M48
;Layer_Color=9474304
;FILE_FORMAT=4:4
METRIC
;TYPE=PLATED
T1F00S00C0.2000
T2F00S00C1.0000
T3F00S00C1.2000
%
T01
X00258552Y00258549
Y00264509
Y00270470
Y00276430
Y00282390
Y00288351
Y00294311
Y00300271
Y00306232
Y00312192
Y00318153
Y00324113
Y00330073
Y00336034
Y00341994
Y00347954
Y00353915
Y00359875
Y00365835
Y00371796
Y00377756
Y00383717
Y00389677
Y00395637
X00345250Y00390500
X00355250
X00365250
X00375250
X00338850Y00328500
X00336100Y00323500
X00312700Y00333500
X00309950Y00338500
X00312700Y00343500
X00309950Y00348500
X00312378Y00258549
X00306397
X00300416
X00294436
X00288455
X00282474
X00276494
X00270513
X00264532
X00318358
X00324339
X00330320
X00336301
X00342281
X00348262
X00354243
X00360223
X00366204
X00372185
X00378165
X00384146
X00390127
X00396107
X00402088
X00408069
X00414049
X00420030
X00426011
X00431991
X00437972
X00443953
X00449934
X00455914
X00461895
X00467876
X00473856
X00479837
X00485818
X00491798
X00497779
X00503760
X00509740
X00515721
X00521702
X00527682
X00533663
X00539644
X00545624
X00551605
X00557586
X00563567
X00569547
X00575528
X00581508
X00587489
X00593470
X00599451Y00258552
Y00264532
Y00270513
Y00276494
Y00282474
Y00288455
Y00294436
Y00300416
Y00306397
Y00312378
Y00318552
X00605624
X00611798
X00617972
X00631373Y00324647
X00631232Y00330459
X00631406Y00336333
X00644627Y00337916
X00644628Y00343916
X00649451Y00342356
Y00336405
Y00330454
Y00324503
Y00318552
X00644627Y00320409
Y00326409
X00644613Y00331852
X00643709Y00349845
X00649451Y00348307
Y00354258
Y00360210
Y00366161
Y00372112
Y00378063
Y00384014
Y00389965
Y00395916
X00629400Y00392050
X00616600
X00623000Y00383950
Y00374050
X00629400
X00636420Y00359179
X00640826Y00355107
X00623280Y00348616
X00617440Y00349989
X00612498Y00353392
X00609300Y00358469
X00608165Y00364360
X00579652Y00375957
X00567749Y00386048
X00528750Y00335000
X00523125Y00327125
X00518375Y00314875
X00500250Y00338500
X00503000Y00343500
X00500250Y00348500
X00503000Y00353500
X00611750Y00260000
X00617833
X00623917
X00630000
X00636083
X00642167
X00648250
X00648250Y00266300
Y00272600
Y00278900
Y00285200
Y00291500
X00649451Y00401868
Y00407819
Y00413770
Y00419721
Y00425672
Y00431623
Y00437575
Y00443526
Y00449477
Y00455428
Y00461379
Y00467330
Y00473281
Y00479232
Y00485184
Y00491135
Y00497086
Y00503037
Y00508988
Y00514939
Y00520891
Y00526842
Y00532793
Y00538744
Y00544695
Y00550646
Y00556597
Y00562548
Y00568500
X00649447Y00574451
X00643524Y00574451
X00637602
X00631679
X00625756
X00619833
X00613911
X00607988
X00602065
X00596143
X00590220
X00584297
X00578375
X00572452
X00566529
X00560606
X00554684
X00548761
X00542838
X00536916
X00530993
X00525070
X00519148
X00513225
X00507302
X00501380
X00495457
X00489534
X00483611
X00477689
X00471766
X00465843
X00459921
X00453998
X00448075
X00442153
X00436230
X00430307
X00424384
X00418462
X00412539
X00406616
X00400694
X00415000Y00552250
Y00545750
Y00539250
Y00532750
X00450000
X00449999Y00542402
X00474784Y00545750
Y00552250
X00505000Y00550366
X00520393Y00556107
X00533250Y00556750
X00538000Y00524250
X00527000
X00494000Y00525250
X00436674Y00504174
X00442000Y00496000
X00403300Y00493500
X00444624Y00448750
Y00438749
X00454625
X00464626
Y00448750
X00454625
X00459500Y00398250
X00560000Y00433000
X00612000Y00431500
X00634000
X00640750Y00399500
X00608250Y00461500
X00623000Y00526000
X00634000Y00526750
X00633000Y00562250
X00570000
X00394771Y00574451
X00388848
X00382926
X00377003
X00371080
X00365158
X00359235
X00353312
X00347389
X00341467
X00335544
X00329621
X00323699
X00317776
X00311853
X00305931
X00300008
X00294085
X00288162
X00282240
X00276317
X00270394
X00264472
X00258549Y00574448
X00258552Y00568488
Y00562528
Y00556567
Y00550607
Y00544646
Y00538686
Y00532726
Y00526765
Y00520805
Y00514845
Y00508884
Y00502924
Y00496964
Y00491003
Y00485043
Y00479082
Y00473122
Y00467162
Y00461201
Y00455241
Y00449281
Y00443320
Y00437360
Y00431399
Y00425439
Y00419479
Y00413518
Y00407558
Y00401598
X00345250Y00400500
X00355250
X00365250
X00375250
Y00410500
Y00420500
Y00430500
X00365250Y00410500
X00355250
X00345250
Y00420500
Y00430500
X00331500Y00431701
X00304548Y00483248
Y00493249
Y00503250
X00382498Y00493249
T02
X00348000Y00558000
X00378000
T03
X00285000Y00386500
Y00416500
Y00446500
M30
