G04*
G04 #@! TF.GenerationSoftware,Altium Limited,Altium Designer,23.3.1 (30)*
G04*
G04 Layer_Physical_Order=4*
G04 Layer_Color=16711680*
%FSAX44Y44*%
%MOMM*%
G71*
G04*
G04 #@! TF.SameCoordinates,EEB403B8-57DA-4B53-8A1C-A64ED6DC22F4*
G04*
G04*
G04 #@! TF.FilePolarity,Positive*
G04*
G01*
G75*
%ADD11C,0.2000*%
G04:AMPARAMS|DCode=20|XSize=0.6mm|YSize=0.55mm|CornerRadius=0.1375mm|HoleSize=0mm|Usage=FLASHONLY|Rotation=180.000|XOffset=0mm|YOffset=0mm|HoleType=Round|Shape=RoundedRectangle|*
%AMROUNDEDRECTD20*
21,1,0.6000,0.2750,0,0,180.0*
21,1,0.3250,0.5500,0,0,180.0*
1,1,0.2750,-0.1625,0.1375*
1,1,0.2750,0.1625,0.1375*
1,1,0.2750,0.1625,-0.1375*
1,1,0.2750,-0.1625,-0.1375*
%
%ADD20ROUNDEDRECTD20*%
G04:AMPARAMS|DCode=22|XSize=0.6mm|YSize=0.6mm|CornerRadius=0.15mm|HoleSize=0mm|Usage=FLASHONLY|Rotation=90.000|XOffset=0mm|YOffset=0mm|HoleType=Round|Shape=RoundedRectangle|*
%AMROUNDEDRECTD22*
21,1,0.6000,0.3000,0,0,90.0*
21,1,0.3000,0.6000,0,0,90.0*
1,1,0.3000,0.1500,0.1500*
1,1,0.3000,0.1500,-0.1500*
1,1,0.3000,-0.1500,-0.1500*
1,1,0.3000,-0.1500,0.1500*
%
%ADD22ROUNDEDRECTD22*%
%ADD58C,0.1250*%
%ADD59C,0.4000*%
%ADD60C,0.3000*%
%ADD61C,2.4000*%
%ADD62C,2.0000*%
%ADD63C,0.4000*%
%ADD64R,1.3100X0.9300*%
%ADD65R,1.3100X3.2400*%
%ADD66R,1.5600X0.4000*%
%ADD67R,1.2000X0.3000*%
%ADD68R,3.0000X2.7000*%
%ADD69R,0.9500X1.0000*%
%ADD70R,1.2500X1.8000*%
%ADD71R,1.0000X1.4000*%
G36*
X00650750Y00257500D02*
X00609000D01*
Y00262500D01*
X00645750D01*
Y00293750D01*
X00635000D01*
Y00299500D01*
X00650750D01*
Y00257500D01*
D02*
G37*
G36*
X00651451Y00314000D02*
X00604000D01*
Y00262500D01*
Y00256549D01*
X00256549D01*
Y00576451D01*
X00651451D01*
Y00314000D01*
D02*
G37*
%LPC*%
G36*
X00570696Y00565750D02*
X00569304D01*
X00568017Y00565217D01*
X00567033Y00564233D01*
X00566500Y00562946D01*
Y00561554D01*
X00567033Y00560267D01*
X00568017Y00559283D01*
X00569304Y00558750D01*
X00570696D01*
X00571983Y00559283D01*
X00572967Y00560267D01*
X00573500Y00561554D01*
Y00562946D01*
X00572967Y00564233D01*
X00571983Y00565217D01*
X00570696Y00565750D01*
D02*
G37*
G36*
X00533946Y00560250D02*
X00532554D01*
X00531267Y00559717D01*
X00530283Y00558733D01*
X00529750Y00557446D01*
Y00556054D01*
X00530283Y00554767D01*
X00531267Y00553783D01*
X00532554Y00553250D01*
X00533946D01*
X00535233Y00553783D01*
X00536217Y00554767D01*
X00536750Y00556054D01*
Y00557446D01*
X00536217Y00558733D01*
X00535233Y00559717D01*
X00533946Y00560250D01*
D02*
G37*
G36*
X00505696Y00553866D02*
X00504304D01*
X00503017Y00553333D01*
X00502033Y00552349D01*
X00501500Y00551062D01*
Y00549670D01*
X00502033Y00548383D01*
X00503017Y00547399D01*
X00504304Y00546866D01*
X00505696D01*
X00506983Y00547399D01*
X00507967Y00548383D01*
X00508500Y00549670D01*
Y00551062D01*
X00507967Y00552349D01*
X00506983Y00553333D01*
X00505696Y00553866D01*
D02*
G37*
G36*
X00415000Y00555819D02*
X00403950D01*
X00402584Y00555547D01*
X00401427Y00554773D01*
X00401427Y00554773D01*
X00400653Y00553616D01*
X00400381Y00552250D01*
X00400653Y00550885D01*
X00400653Y00550884D01*
X00401427Y00549727D01*
Y00548273D01*
X00400653Y00547116D01*
X00400381Y00545750D01*
X00400653Y00544384D01*
X00401427Y00543227D01*
Y00541773D01*
X00400653Y00540616D01*
X00400381Y00539250D01*
X00400653Y00537884D01*
X00401427Y00536727D01*
Y00535273D01*
X00400653Y00534116D01*
X00400381Y00532750D01*
X00400653Y00531384D01*
X00401427Y00530227D01*
X00402584Y00529453D01*
X00403950Y00529181D01*
X00415000D01*
X00416366Y00529453D01*
X00417523Y00530227D01*
X00417523Y00530227D01*
X00418297Y00531384D01*
X00418569Y00532750D01*
X00418297Y00534115D01*
X00418297Y00534116D01*
X00417523Y00535273D01*
Y00536727D01*
X00418297Y00537884D01*
X00418569Y00539250D01*
X00418297Y00540616D01*
X00417523Y00541773D01*
Y00543227D01*
X00418297Y00544384D01*
X00418569Y00545750D01*
X00418297Y00547116D01*
X00417523Y00548273D01*
Y00549727D01*
X00418297Y00550884D01*
X00418569Y00552250D01*
X00418297Y00553616D01*
X00417523Y00554773D01*
X00416366Y00555547D01*
X00415000Y00555819D01*
D02*
G37*
G36*
X00474087Y00555750D02*
X00470850D01*
X00470850Y00555750D01*
X00452250D01*
Y00550621D01*
X00449999Y00545971D01*
X00448633Y00545699D01*
X00448633Y00545699D01*
X00447476Y00544925D01*
X00446702Y00543768D01*
X00446431Y00542402D01*
X00446431Y00542402D01*
X00446702Y00541036D01*
X00446969Y00540638D01*
X00447110Y00540320D01*
X00447365Y00539025D01*
X00447477Y00535273D01*
Y00535273D01*
X00447281Y00534981D01*
X00447033Y00534733D01*
X00447033Y00534732D01*
X00446898Y00534408D01*
X00446703Y00534116D01*
X00446703Y00534115D01*
X00446634Y00533771D01*
X00446500Y00533446D01*
X00446500Y00533446D01*
Y00533095D01*
X00446431Y00532750D01*
X00446431Y00532750D01*
X00446500Y00532405D01*
X00446500Y00532054D01*
X00446500Y00532054D01*
X00446500Y00532054D01*
X00446634Y00531729D01*
X00446703Y00531385D01*
Y00531384D01*
X00446703Y00531384D01*
X00446898Y00531092D01*
X00447033Y00530768D01*
Y00530767D01*
X00447281Y00530519D01*
X00447477Y00530227D01*
X00447477Y00530227D01*
X00447769Y00530031D01*
X00448017Y00529783D01*
X00448017Y00529783D01*
X00448342Y00529648D01*
X00448634Y00529453D01*
X00448634Y00529453D01*
X00448979Y00529384D01*
X00449304Y00529250D01*
X00449304Y00529250D01*
X00449655Y00529250D01*
X00450000Y00529181D01*
X00450000Y00529181D01*
X00450786Y00529181D01*
X00461550D01*
X00461895Y00529250D01*
X00470850D01*
Y00536250D01*
X00469518D01*
X00469148Y00536630D01*
X00469717Y00541736D01*
X00470850Y00542250D01*
X00475480Y00542250D01*
X00476766Y00542783D01*
X00476766Y00542783D01*
X00477751Y00543767D01*
X00478284Y00545054D01*
Y00546446D01*
X00478284Y00546446D01*
X00477751Y00547733D01*
X00476946Y00549000D01*
X00477751Y00550267D01*
X00478284Y00551554D01*
Y00552946D01*
X00477751Y00554233D01*
X00476766Y00555217D01*
X00475480Y00555750D01*
X00474087Y00555750D01*
D02*
G37*
G36*
X00538696Y00527750D02*
X00537304D01*
X00536017Y00527217D01*
X00535033Y00526233D01*
X00529967Y00526233D01*
X00528983Y00527217D01*
X00527696Y00527750D01*
X00526304D01*
X00525017Y00527217D01*
X00524033Y00526233D01*
X00523500Y00524946D01*
Y00523554D01*
X00524033Y00522267D01*
X00524833Y00521467D01*
Y00520355D01*
Y00345828D01*
Y00343352D01*
X00521619Y00339683D01*
X00521593Y00339657D01*
X00521123Y00338954D01*
X00520958Y00338125D01*
Y00329908D01*
X00520158Y00329108D01*
X00519625Y00327821D01*
Y00326429D01*
X00520158Y00325142D01*
X00521142Y00324158D01*
X00522429Y00323625D01*
X00523821D01*
X00525108Y00324158D01*
X00526092Y00325142D01*
X00526625Y00326429D01*
Y00326881D01*
X00527113Y00328457D01*
X00529220Y00331205D01*
X00530005Y00331732D01*
X00530733Y00332033D01*
X00531717Y00333017D01*
X00532250Y00334304D01*
X00532250Y00335280D01*
X00535675Y00338861D01*
X00535675Y00338861D01*
X00539532Y00342718D01*
X00540002Y00343421D01*
X00540167Y00344250D01*
Y00346445D01*
X00540167Y00346445D01*
Y00349334D01*
Y00516011D01*
Y00519208D01*
X00540167D01*
Y00521467D01*
X00540967Y00522267D01*
X00541500Y00523554D01*
Y00524946D01*
X00540967Y00526233D01*
X00539983Y00527217D01*
X00538696Y00527750D01*
D02*
G37*
G36*
X00403300Y00497069D02*
X00392250D01*
X00390884Y00496797D01*
X00390199Y00496339D01*
X00389341Y00496003D01*
X00385767Y00495812D01*
X00384317Y00496243D01*
X00383864Y00496546D01*
X00382498Y00496818D01*
X00371448D01*
X00370083Y00496546D01*
X00368925Y00495772D01*
X00368151Y00494614D01*
X00367880Y00493249D01*
X00368151Y00491883D01*
X00368925Y00490726D01*
X00370083Y00489952D01*
X00371448Y00489680D01*
X00382498D01*
X00383864Y00489952D01*
X00384549Y00490410D01*
X00385407Y00490746D01*
X00388981Y00490937D01*
X00390431Y00490506D01*
X00390884Y00490203D01*
X00392250Y00489931D01*
X00403300D01*
X00404666Y00490203D01*
X00405823Y00490977D01*
X00406597Y00492134D01*
X00406869Y00493500D01*
X00406597Y00494866D01*
X00405823Y00496023D01*
X00404666Y00496797D01*
X00403300Y00497069D01*
D02*
G37*
G36*
X00442696Y00499500D02*
X00441304D01*
X00440017Y00498967D01*
X00439033Y00497983D01*
X00438500Y00496696D01*
Y00495304D01*
X00439033Y00494017D01*
X00440017Y00493033D01*
X00441304Y00492500D01*
X00442696D01*
X00443983Y00493033D01*
X00444967Y00494017D01*
X00445500Y00495304D01*
Y00496696D01*
X00444967Y00497983D01*
X00443983Y00498967D01*
X00442696Y00499500D01*
D02*
G37*
G36*
X00460196Y00401750D02*
X00458804D01*
X00457517Y00401217D01*
X00456533Y00400233D01*
X00456000Y00398946D01*
Y00397554D01*
X00456533Y00396267D01*
X00457517Y00395283D01*
X00458804Y00394750D01*
X00460196D01*
X00461483Y00395283D01*
X00462467Y00396267D01*
X00463000Y00397554D01*
Y00398946D01*
X00462467Y00400233D01*
X00461483Y00401217D01*
X00460196Y00401750D01*
D02*
G37*
G36*
X00623696Y00529500D02*
X00622304D01*
X00621017Y00528967D01*
X00620033Y00527983D01*
X00619500Y00526696D01*
Y00525304D01*
X00620033Y00524017D01*
X00620451Y00523599D01*
Y00476750D01*
X00620645Y00475774D01*
X00621198Y00474948D01*
X00638201Y00457944D01*
Y00401901D01*
X00637783Y00401483D01*
X00637250Y00400196D01*
Y00398804D01*
X00637658Y00397820D01*
X00637088Y00397439D01*
X00636425Y00396446D01*
X00636192Y00395276D01*
Y00392276D01*
X00636425Y00391105D01*
X00637088Y00390113D01*
X00638080Y00389450D01*
X00639251Y00389217D01*
X00642251D01*
X00643421Y00389450D01*
X00644414Y00390113D01*
X00645077Y00391105D01*
X00645310Y00392276D01*
Y00395276D01*
X00645077Y00396446D01*
X00644414Y00397439D01*
X00643843Y00397820D01*
X00644250Y00398804D01*
Y00400196D01*
X00643717Y00401483D01*
X00643299Y00401901D01*
Y00459000D01*
X00643105Y00459976D01*
X00642552Y00460802D01*
X00625549Y00477806D01*
Y00523599D01*
X00625967Y00524017D01*
X00626500Y00525304D01*
Y00526696D01*
X00625967Y00527983D01*
X00624983Y00528967D01*
X00623696Y00529500D01*
D02*
G37*
G36*
X00361250Y00571124D02*
X00292250D01*
X00291102Y00570648D01*
X00270352Y00549898D01*
X00269876Y00548750D01*
Y00438500D01*
X00270352Y00437352D01*
X00275390Y00432314D01*
X00275955Y00430169D01*
X00276160Y00426838D01*
X00276140Y00426732D01*
X00274197Y00424789D01*
X00272420Y00421711D01*
X00271500Y00418277D01*
Y00414723D01*
X00272420Y00411289D01*
X00274197Y00408211D01*
X00276711Y00405697D01*
X00279789Y00403920D01*
X00283223Y00403000D01*
X00286777D01*
X00290211Y00403920D01*
X00293289Y00405697D01*
X00295803Y00408211D01*
X00297580Y00411289D01*
X00298500Y00414723D01*
X00302250Y00415191D01*
X00303421Y00415424D01*
X00304413Y00416087D01*
X00322931Y00434606D01*
X00327931Y00432534D01*
Y00431701D01*
X00328203Y00430335D01*
X00328203Y00430335D01*
X00328977Y00429178D01*
X00330134Y00428404D01*
X00331500Y00428133D01*
X00331500Y00428132D01*
X00332376Y00428307D01*
X00333356Y00428130D01*
X00337333Y00425906D01*
X00337376Y00425862D01*
Y00386500D01*
X00337852Y00385352D01*
X00339000Y00384876D01*
X00381500D01*
X00382648Y00385352D01*
X00383124Y00386500D01*
Y00432376D01*
X00400250D01*
X00401398Y00432852D01*
X00401874Y00434000D01*
Y00476999D01*
X00401398Y00478147D01*
X00400250Y00478623D01*
X00361087Y00478623D01*
X00360799D01*
D01*
X00360490Y00478623D01*
X00359874Y00479761D01*
X00358067Y00483101D01*
X00358038Y00483242D01*
X00360275Y00485478D01*
X00360750Y00486626D01*
X00360750Y00504876D01*
X00381500D01*
X00382648Y00505352D01*
X00383124Y00506500D01*
Y00531624D01*
X00382648Y00532772D01*
X00381500Y00533248D01*
X00362874D01*
Y00569500D01*
X00362398Y00570648D01*
X00361250Y00571124D01*
D02*
G37*
G36*
X00568445Y00389548D02*
X00567053D01*
X00565766Y00389015D01*
X00564782Y00388031D01*
X00564249Y00386744D01*
Y00385352D01*
X00564782Y00384065D01*
X00565766Y00383081D01*
X00567053Y00382548D01*
X00568445D01*
X00569731Y00383081D01*
X00570716Y00384065D01*
X00571249Y00385352D01*
Y00386744D01*
X00570716Y00388031D01*
X00569731Y00389015D01*
X00568445Y00389548D01*
D02*
G37*
G36*
X00502304Y00357000D02*
X00501018Y00356467D01*
X00501017Y00356467D01*
X00501017Y00356467D01*
X00500033Y00355483D01*
X00499500Y00354196D01*
X00499500Y00354196D01*
X00499500Y00352804D01*
X00499500Y00352804D01*
X00498267Y00351467D01*
X00497283Y00350483D01*
Y00350482D01*
X00496750Y00349196D01*
X00496750Y00349196D01*
Y00347804D01*
X00497283Y00346517D01*
Y00346517D01*
X00498267Y00345533D01*
X00498268D01*
X00499554Y00345000D01*
X00499554Y00345000D01*
X00500946D01*
X00500946Y00345000D01*
X00502232Y00345533D01*
X00502233Y00345533D01*
X00502233Y00345533D01*
X00503217Y00346517D01*
X00503217Y00346517D01*
X00503750Y00347804D01*
X00503750Y00347804D01*
X00503750Y00349196D01*
X00503750Y00349196D01*
X00504983Y00350533D01*
X00505967Y00351517D01*
Y00351517D01*
X00506500Y00352804D01*
X00506500Y00352804D01*
Y00354196D01*
X00505967Y00355482D01*
Y00355483D01*
X00504983Y00356467D01*
X00504983D01*
X00503696Y00357000D01*
X00503696Y00357000D01*
X00502304D01*
X00502304Y00357000D01*
D02*
G37*
G36*
X00310646Y00352000D02*
X00309254D01*
X00307967Y00351467D01*
X00306983Y00350483D01*
X00306450Y00349196D01*
Y00347804D01*
X00306983Y00346517D01*
X00307484Y00346016D01*
X00307694Y00345256D01*
X00307779Y00341055D01*
X00307598Y00340381D01*
X00307124Y00339670D01*
X00307124Y00339670D01*
X00306891Y00338500D01*
X00306891Y00338500D01*
X00307124Y00337330D01*
X00307124Y00337329D01*
X00307124Y00337329D01*
X00307787Y00336337D01*
X00307787Y00336337D01*
X00308779Y00335674D01*
X00308780Y00335674D01*
X00309641Y00333500D01*
X00309641Y00333500D01*
X00309641Y00333500D01*
X00309874Y00332329D01*
X00310537Y00331337D01*
X00311529Y00330674D01*
X00311530Y00330674D01*
X00312700Y00330441D01*
X00312700Y00330441D01*
X00312700Y00330441D01*
X00316900Y00327416D01*
Y00320500D01*
Y00310500D01*
X00331900D01*
Y00315625D01*
X00336610Y00316292D01*
X00341594Y00316333D01*
X00344879D01*
X00488665D01*
X00490103Y00316333D01*
X00493093Y00313343D01*
X00493796Y00312873D01*
X00494625Y00312708D01*
X00515592D01*
X00516392Y00311908D01*
X00517679Y00311375D01*
X00519071D01*
X00520358Y00311908D01*
X00521342Y00312892D01*
X00521875Y00314179D01*
Y00315571D01*
X00521342Y00316858D01*
X00520358Y00317842D01*
X00519071Y00318375D01*
X00517679D01*
X00516392Y00317842D01*
X00515592Y00317042D01*
X00495522Y00317042D01*
X00492532Y00320032D01*
X00491829Y00320502D01*
X00491000Y00320667D01*
X00488666D01*
X00344919D01*
X00344127D01*
X00342715Y00321333D01*
X00341755Y00325936D01*
X00341670Y00326371D01*
X00341817Y00326517D01*
X00342350Y00327804D01*
Y00329196D01*
X00341817Y00330483D01*
X00340833Y00331467D01*
X00339546Y00332000D01*
X00338154D01*
X00336867Y00331467D01*
X00331900Y00331500D01*
X00327459Y00333500D01*
X00327226Y00334670D01*
X00326836Y00335651D01*
X00326768Y00336000D01*
X00326836Y00336349D01*
X00327226Y00337329D01*
X00327459Y00338500D01*
X00331900Y00340500D01*
Y00351500D01*
X00324696D01*
X00324400Y00351559D01*
X00311711D01*
X00310646Y00352000D01*
D02*
G37*
%LPD*%
G36*
X00361250Y00531624D02*
X00381500D01*
Y00506500D01*
X00360396D01*
X00359126Y00506500D01*
X00359126Y00506500D01*
X00359126Y00505230D01*
X00359126Y00486626D01*
X00305500Y00433000D01*
X00305500Y00433000D01*
X00305500Y00433000D01*
X00277000D01*
X00271500Y00438500D01*
Y00548750D01*
X00292250Y00569500D01*
X00361250D01*
Y00531624D01*
D02*
G37*
G36*
X00400250Y00434000D02*
X00383124D01*
X00382648Y00435148D01*
X00381500Y00435624D01*
X00359000D01*
Y00476999D01*
X00400250D01*
Y00434000D01*
D02*
G37*
G36*
X00381500Y00386500D02*
X00339000D01*
Y00434000D01*
X00381500D01*
Y00386500D01*
D02*
G37*
%LPC*%
G36*
X00312598Y00510949D02*
X00296498D01*
Y00475549D01*
X00312598D01*
Y00510949D01*
D02*
G37*
%LPD*%
G36*
X00310975Y00477173D02*
X00298122D01*
Y00509325D01*
X00310975D01*
Y00477173D01*
D02*
G37*
D11*
X00623000Y00476750D02*
Y00526000D01*
Y00476750D02*
X00640750Y00459000D01*
Y00399500D02*
Y00459000D01*
Y00393776D02*
Y00399500D01*
Y00393776D02*
X00640751D01*
D20*
X00331500Y00447250D02*
D03*
Y00437250D02*
D03*
D22*
X00640751Y00393776D02*
D03*
X00640750Y00384124D02*
D03*
D58*
X00523125Y00338125D02*
X00527000Y00342000D01*
Y00524250D01*
X00523125Y00327125D02*
Y00338125D01*
X00528750Y00335000D02*
X00538000Y00344250D01*
Y00524250D01*
X00491000Y00318500D02*
X00494625Y00314875D01*
X00324400Y00318500D02*
X00491000D01*
X00494625Y00314875D02*
X00518375D01*
X00324400Y00328500D02*
X00338850D01*
X00324400Y00323500D02*
X00336100D01*
X00461550Y00545750D02*
X00474784D01*
X00461550Y00552250D02*
X00474784D01*
X00475000D01*
D59*
X00331500Y00431701D02*
Y00437250D01*
X00371448Y00493249D02*
X00382498D01*
X00392250Y00493500D02*
X00403300D01*
X00403950Y00552250D02*
X00415000D01*
X00403950Y00545750D02*
X00415000D01*
X00403950Y00539250D02*
X00415000D01*
X00403950Y00532750D02*
X00415000D01*
X00453151Y00539250D02*
X00461550D01*
X00449999Y00542402D02*
X00453151Y00539250D01*
X00450000Y00532750D02*
X00461550D01*
D60*
X00309950Y00338500D02*
X00324400D01*
X00312700Y00333500D02*
X00324400D01*
X00312700Y00343500D02*
X00324400D01*
X00309950Y00348500D02*
X00324400D01*
X00331500Y00447250D02*
X00350750D01*
X00286750Y00418250D02*
X00302250D01*
X00331250Y00447250D02*
X00331500D01*
X00302250Y00418250D02*
X00331250Y00447250D01*
X00285000Y00416500D02*
X00286750Y00418250D01*
D61*
X00285000Y00446500D02*
D03*
Y00416500D02*
D03*
Y00386500D02*
D03*
D62*
X00378000Y00558000D02*
D03*
X00348000D02*
D03*
D63*
X00608250Y00461500D02*
D03*
X00634000Y00431500D02*
D03*
X00612000D02*
D03*
X00629400Y00374050D02*
D03*
X00623000D02*
D03*
Y00383950D02*
D03*
X00629400Y00392050D02*
D03*
X00616600D02*
D03*
X00608165Y00364360D02*
D03*
X00609300Y00358469D02*
D03*
X00612498Y00353392D02*
D03*
X00617440Y00349989D02*
D03*
X00623280Y00348616D02*
D03*
X00631406Y00336333D02*
D03*
X00631232Y00330459D02*
D03*
X00631373Y00324647D02*
D03*
X00644627Y00320409D02*
D03*
Y00326409D02*
D03*
X00644613Y00331852D02*
D03*
X00644627Y00337916D02*
D03*
X00644628Y00343916D02*
D03*
X00643709Y00349845D02*
D03*
X00640826Y00355107D02*
D03*
X00636420Y00359179D02*
D03*
X00567749Y00386048D02*
D03*
X00560000Y00433000D02*
D03*
X00623000Y00526000D02*
D03*
X00640750Y00399500D02*
D03*
X00579652Y00375957D02*
D03*
X00331500Y00431701D02*
D03*
X00382498Y00493249D02*
D03*
X00403300Y00493500D02*
D03*
X00415000Y00552250D02*
D03*
Y00545750D02*
D03*
Y00539250D02*
D03*
Y00532750D02*
D03*
X00449999Y00542402D02*
D03*
X00634000Y00526750D02*
D03*
X00633000Y00562250D02*
D03*
X00494000Y00525250D02*
D03*
X00505000Y00550366D02*
D03*
X00520393Y00556107D02*
D03*
X00464626Y00438749D02*
D03*
X00454625D02*
D03*
X00444624D02*
D03*
Y00448750D02*
D03*
X00454625D02*
D03*
X00464626D02*
D03*
X00309950Y00338500D02*
D03*
X00312700Y00333500D02*
D03*
Y00343500D02*
D03*
X00309950Y00348500D02*
D03*
X00436674Y00504174D02*
D03*
X00442000Y00496000D02*
D03*
X00528750Y00335000D02*
D03*
X00527000Y00524250D02*
D03*
X00538000D02*
D03*
X00523125Y00327125D02*
D03*
X00375250Y00430500D02*
D03*
Y00420500D02*
D03*
Y00410500D02*
D03*
Y00400500D02*
D03*
Y00390500D02*
D03*
X00365250D02*
D03*
Y00400500D02*
D03*
Y00410500D02*
D03*
X00355250D02*
D03*
Y00400500D02*
D03*
Y00390500D02*
D03*
X00345250D02*
D03*
Y00400500D02*
D03*
Y00410500D02*
D03*
Y00420500D02*
D03*
Y00430500D02*
D03*
X00459500Y00398250D02*
D03*
X00338850Y00328500D02*
D03*
X00336100Y00323500D02*
D03*
X00518375Y00314875D02*
D03*
X00304548Y00483248D02*
D03*
Y00493249D02*
D03*
Y00503250D02*
D03*
X00500250Y00338500D02*
D03*
X00503000Y00353500D02*
D03*
Y00343500D02*
D03*
X00500250Y00348500D02*
D03*
X00450000Y00532750D02*
D03*
X00649451Y00318552D02*
D03*
Y00336405D02*
D03*
Y00324503D02*
D03*
Y00330454D02*
D03*
Y00354258D02*
D03*
Y00342356D02*
D03*
Y00348307D02*
D03*
X00570000Y00562250D02*
D03*
X00533250Y00556750D02*
D03*
X00474784Y00552250D02*
D03*
Y00545750D02*
D03*
X00617972Y00318552D02*
D03*
X00611798D02*
D03*
X00605624D02*
D03*
X00611750Y00260000D02*
D03*
X00617833D02*
D03*
X00623917D02*
D03*
X00630000D02*
D03*
X00636083D02*
D03*
X00642167D02*
D03*
X00648250D02*
D03*
X00648250Y00266300D02*
D03*
Y00272600D02*
D03*
Y00278900D02*
D03*
Y00285200D02*
D03*
Y00291500D02*
D03*
X00649451Y00568500D02*
D03*
Y00556597D02*
D03*
Y00544695D02*
D03*
Y00550646D02*
D03*
Y00532793D02*
D03*
Y00538744D02*
D03*
Y00520891D02*
D03*
Y00526842D02*
D03*
Y00562548D02*
D03*
Y00514939D02*
D03*
Y00366161D02*
D03*
Y00360210D02*
D03*
Y00401868D02*
D03*
Y00395916D02*
D03*
Y00407819D02*
D03*
Y00378063D02*
D03*
Y00372112D02*
D03*
Y00389965D02*
D03*
Y00384014D02*
D03*
Y00437575D02*
D03*
Y00443526D02*
D03*
Y00419721D02*
D03*
Y00413770D02*
D03*
Y00431623D02*
D03*
Y00425672D02*
D03*
Y00479232D02*
D03*
Y00473281D02*
D03*
Y00491135D02*
D03*
Y00485184D02*
D03*
Y00455428D02*
D03*
Y00449477D02*
D03*
Y00467330D02*
D03*
Y00461379D02*
D03*
Y00503037D02*
D03*
Y00497086D02*
D03*
Y00508988D02*
D03*
X00599451Y00318552D02*
D03*
Y00312378D02*
D03*
Y00306397D02*
D03*
Y00276494D02*
D03*
Y00282474D02*
D03*
Y00270513D02*
D03*
Y00288455D02*
D03*
Y00264532D02*
D03*
Y00300416D02*
D03*
Y00294436D02*
D03*
Y00258552D02*
D03*
X00587489Y00258549D02*
D03*
X00593470D02*
D03*
X00649447Y00574451D02*
D03*
X00643524Y00574451D02*
D03*
X00637602D02*
D03*
X00631679D02*
D03*
X00625756D02*
D03*
X00619833D02*
D03*
X00607988D02*
D03*
X00602065D02*
D03*
X00596143D02*
D03*
X00590220D02*
D03*
X00584297D02*
D03*
X00578375D02*
D03*
X00613911D02*
D03*
X00572452D02*
D03*
X00270394D02*
D03*
X00276317D02*
D03*
X00282240D02*
D03*
X00288162D02*
D03*
X00294085D02*
D03*
X00300008D02*
D03*
X00305931D02*
D03*
X00311853D02*
D03*
X00317776D02*
D03*
X00323699D02*
D03*
X00329621D02*
D03*
X00335544D02*
D03*
X00341467D02*
D03*
X00347389D02*
D03*
X00353312D02*
D03*
X00359235D02*
D03*
X00365158D02*
D03*
X00371080D02*
D03*
X00377003D02*
D03*
X00382926D02*
D03*
X00388848D02*
D03*
X00394771D02*
D03*
X00400694D02*
D03*
X00406616D02*
D03*
X00412539D02*
D03*
X00418462D02*
D03*
X00424384D02*
D03*
X00430307D02*
D03*
X00436230D02*
D03*
X00442153D02*
D03*
X00448075D02*
D03*
X00453998D02*
D03*
X00459921D02*
D03*
X00465843D02*
D03*
X00471766D02*
D03*
X00477689D02*
D03*
X00483611D02*
D03*
X00489534D02*
D03*
X00495457D02*
D03*
X00501380D02*
D03*
X00507302D02*
D03*
X00513225D02*
D03*
X00519148D02*
D03*
X00525070D02*
D03*
X00530993D02*
D03*
X00536916D02*
D03*
X00542838D02*
D03*
X00548761D02*
D03*
X00554684D02*
D03*
X00560606D02*
D03*
X00264472D02*
D03*
X00566529D02*
D03*
X00258552Y00264509D02*
D03*
Y00568488D02*
D03*
Y00270470D02*
D03*
Y00276430D02*
D03*
Y00282390D02*
D03*
Y00288351D02*
D03*
Y00294311D02*
D03*
Y00300271D02*
D03*
Y00306232D02*
D03*
Y00312192D02*
D03*
Y00318153D02*
D03*
Y00324113D02*
D03*
Y00330073D02*
D03*
Y00336034D02*
D03*
Y00341994D02*
D03*
Y00347954D02*
D03*
Y00353915D02*
D03*
Y00359875D02*
D03*
Y00365835D02*
D03*
Y00371796D02*
D03*
Y00377756D02*
D03*
Y00383717D02*
D03*
Y00389677D02*
D03*
Y00395637D02*
D03*
Y00401598D02*
D03*
Y00407558D02*
D03*
Y00413518D02*
D03*
Y00419479D02*
D03*
Y00425439D02*
D03*
Y00431399D02*
D03*
Y00437360D02*
D03*
Y00443320D02*
D03*
Y00449281D02*
D03*
Y00455241D02*
D03*
Y00461201D02*
D03*
Y00467162D02*
D03*
Y00473122D02*
D03*
Y00479082D02*
D03*
Y00485043D02*
D03*
Y00491003D02*
D03*
Y00496964D02*
D03*
Y00502924D02*
D03*
Y00508884D02*
D03*
Y00514845D02*
D03*
Y00520805D02*
D03*
Y00526765D02*
D03*
Y00532726D02*
D03*
Y00538686D02*
D03*
Y00544646D02*
D03*
Y00550607D02*
D03*
Y00556567D02*
D03*
Y00562528D02*
D03*
X00258549Y00574448D02*
D03*
X00264532Y00258549D02*
D03*
X00276494D02*
D03*
X00270513D02*
D03*
X00312378D02*
D03*
X00306397D02*
D03*
X00324339D02*
D03*
X00318358D02*
D03*
X00288455D02*
D03*
X00282474D02*
D03*
X00300416D02*
D03*
X00294436D02*
D03*
X00348262D02*
D03*
X00342281D02*
D03*
X00360223D02*
D03*
X00354243D02*
D03*
X00330320D02*
D03*
X00336301D02*
D03*
X00390127D02*
D03*
X00384146D02*
D03*
X00402088D02*
D03*
X00396107D02*
D03*
X00366204D02*
D03*
X00378165D02*
D03*
X00372185D02*
D03*
X00426011D02*
D03*
X00420030D02*
D03*
X00437972D02*
D03*
X00431991D02*
D03*
X00414049D02*
D03*
X00408069D02*
D03*
X00467876D02*
D03*
X00449934D02*
D03*
X00443953D02*
D03*
X00461895D02*
D03*
X00455914D02*
D03*
X00521702D02*
D03*
X00515721D02*
D03*
X00533663D02*
D03*
X00527682D02*
D03*
X00497779D02*
D03*
X00491798D02*
D03*
X00509740D02*
D03*
X00503760D02*
D03*
X00557586D02*
D03*
X00551605D02*
D03*
X00581508D02*
D03*
X00563567D02*
D03*
X00545624D02*
D03*
X00539644D02*
D03*
X00485818D02*
D03*
X00473856D02*
D03*
X00479837D02*
D03*
X00575528D02*
D03*
X00569547D02*
D03*
X00258552D02*
D03*
D64*
X00371448Y00516149D02*
D03*
Y00493249D02*
D03*
Y00470349D02*
D03*
D65*
X00304548Y00493249D02*
D03*
D66*
X00461550Y00532750D02*
D03*
Y00539250D02*
D03*
Y00545750D02*
D03*
Y00552250D02*
D03*
X00403950D02*
D03*
Y00545750D02*
D03*
Y00539250D02*
D03*
Y00532750D02*
D03*
D67*
X00324400Y00313500D02*
D03*
Y00318500D02*
D03*
Y00323500D02*
D03*
Y00328500D02*
D03*
Y00333500D02*
D03*
Y00338500D02*
D03*
Y00343500D02*
D03*
Y00348500D02*
D03*
D68*
X00343000Y00367800D02*
D03*
Y00294200D02*
D03*
D69*
X00371000Y00539000D02*
D03*
X00355000D02*
D03*
D70*
X00392250Y00467500D02*
D03*
Y00493500D02*
D03*
D71*
X00350750Y00447250D02*
D03*
X00369750D02*
D03*
X00360250Y00425250D02*
D03*
M02*
