G04*
G04 #@! TF.GenerationSoftware,Altium Limited,Altium Designer,23.3.1 (30)*
G04*
G04 Layer_Color=8388736*
%FSAX44Y44*%
%MOMM*%
G71*
G04*
G04 #@! TF.SameCoordinates,EEB403B8-57DA-4B53-8A1C-A64ED6DC22F4*
G04*
G04*
G04 #@! TF.FilePolarity,Negative*
G04*
G01*
G75*
%ADD35R,0.8500X0.4000*%
%ADD36R,0.3100X0.5500*%
%ADD37R,0.9000X1.8500*%
%ADD38R,1.2000X1.3500*%
G04:AMPARAMS|DCode=39|XSize=0.65mm|YSize=0.6mm|CornerRadius=0.1625mm|HoleSize=0mm|Usage=FLASHONLY|Rotation=180.000|XOffset=0mm|YOffset=0mm|HoleType=Round|Shape=RoundedRectangle|*
%AMROUNDEDRECTD39*
21,1,0.6500,0.2750,0,0,180.0*
21,1,0.3250,0.6000,0,0,180.0*
1,1,0.3250,-0.1625,0.1375*
1,1,0.3250,0.1625,0.1375*
1,1,0.3250,0.1625,-0.1375*
1,1,0.3250,-0.1625,-0.1375*
%
%ADD39ROUNDEDRECTD39*%
G04:AMPARAMS|DCode=40|XSize=1mm|YSize=1mm|CornerRadius=0.2625mm|HoleSize=0mm|Usage=FLASHONLY|Rotation=0.000|XOffset=0mm|YOffset=0mm|HoleType=Round|Shape=RoundedRectangle|*
%AMROUNDEDRECTD40*
21,1,1.0000,0.4750,0,0,0.0*
21,1,0.4750,1.0000,0,0,0.0*
1,1,0.5250,0.2375,-0.2375*
1,1,0.5250,-0.2375,-0.2375*
1,1,0.5250,-0.2375,0.2375*
1,1,0.5250,0.2375,0.2375*
%
%ADD40ROUNDEDRECTD40*%
G04:AMPARAMS|DCode=41|XSize=0.7mm|YSize=0.7mm|CornerRadius=0.2mm|HoleSize=0mm|Usage=FLASHONLY|Rotation=90.000|XOffset=0mm|YOffset=0mm|HoleType=Round|Shape=RoundedRectangle|*
%AMROUNDEDRECTD41*
21,1,0.7000,0.3000,0,0,90.0*
21,1,0.3000,0.7000,0,0,90.0*
1,1,0.4000,0.1500,0.1500*
1,1,0.4000,0.1500,-0.1500*
1,1,0.4000,-0.1500,-0.1500*
1,1,0.4000,-0.1500,0.1500*
%
%ADD41ROUNDEDRECTD41*%
G04:AMPARAMS|DCode=42|XSize=0.65mm|YSize=0.6mm|CornerRadius=0.1625mm|HoleSize=0mm|Usage=FLASHONLY|Rotation=270.000|XOffset=0mm|YOffset=0mm|HoleType=Round|Shape=RoundedRectangle|*
%AMROUNDEDRECTD42*
21,1,0.6500,0.2750,0,0,270.0*
21,1,0.3250,0.6000,0,0,270.0*
1,1,0.3250,-0.1375,-0.1625*
1,1,0.3250,-0.1375,0.1625*
1,1,0.3250,0.1375,0.1625*
1,1,0.3250,0.1375,-0.1625*
%
%ADD42ROUNDEDRECTD42*%
%ADD43R,1.1000X2.2500*%
%ADD44R,0.9000X1.1000*%
G04:AMPARAMS|DCode=45|XSize=0.7mm|YSize=0.7mm|CornerRadius=0.2mm|HoleSize=0mm|Usage=FLASHONLY|Rotation=180.000|XOffset=0mm|YOffset=0mm|HoleType=Round|Shape=RoundedRectangle|*
%AMROUNDEDRECTD45*
21,1,0.7000,0.3000,0,0,180.0*
21,1,0.3000,0.7000,0,0,180.0*
1,1,0.4000,-0.1500,0.1500*
1,1,0.4000,0.1500,0.1500*
1,1,0.4000,0.1500,-0.1500*
1,1,0.4000,-0.1500,-0.1500*
%
%ADD45ROUNDEDRECTD45*%
G04:AMPARAMS|DCode=46|XSize=0.55mm|YSize=0.65mm|CornerRadius=0.15mm|HoleSize=0mm|Usage=FLASHONLY|Rotation=180.000|XOffset=0mm|YOffset=0mm|HoleType=Round|Shape=RoundedRectangle|*
%AMROUNDEDRECTD46*
21,1,0.5500,0.3500,0,0,180.0*
21,1,0.2500,0.6500,0,0,180.0*
1,1,0.3000,-0.1250,0.1750*
1,1,0.3000,0.1250,0.1750*
1,1,0.3000,0.1250,-0.1750*
1,1,0.3000,-0.1250,-0.1750*
%
%ADD46ROUNDEDRECTD46*%
G04:AMPARAMS|DCode=47|XSize=0.6mm|YSize=0.7mm|CornerRadius=0.175mm|HoleSize=0mm|Usage=FLASHONLY|Rotation=180.000|XOffset=0mm|YOffset=0mm|HoleType=Round|Shape=RoundedRectangle|*
%AMROUNDEDRECTD47*
21,1,0.6000,0.3500,0,0,180.0*
21,1,0.2500,0.7000,0,0,180.0*
1,1,0.3500,-0.1250,0.1750*
1,1,0.3500,0.1250,0.1750*
1,1,0.3500,0.1250,-0.1750*
1,1,0.3500,-0.1250,-0.1750*
%
%ADD47ROUNDEDRECTD47*%
%ADD48R,0.4100X0.3900*%
%ADD49R,4.1500X1.7500*%
G04:AMPARAMS|DCode=50|XSize=0.55mm|YSize=0.6mm|CornerRadius=0.15mm|HoleSize=0mm|Usage=FLASHONLY|Rotation=180.000|XOffset=0mm|YOffset=0mm|HoleType=Round|Shape=RoundedRectangle|*
%AMROUNDEDRECTD50*
21,1,0.5500,0.3000,0,0,180.0*
21,1,0.2500,0.6000,0,0,180.0*
1,1,0.3000,-0.1250,0.1500*
1,1,0.3000,0.1250,0.1500*
1,1,0.3000,0.1250,-0.1500*
1,1,0.3000,-0.1250,-0.1500*
%
%ADD50ROUNDEDRECTD50*%
%ADD51R,3.1700X2.2900*%
%ADD52R,1.6500X0.3500*%
%ADD53R,0.7500X0.5500*%
%ADD54C,0.5500*%
%ADD55C,2.4500*%
%ADD56C,2.0500*%
G36*
X00654000Y00314000D02*
Y00254000D01*
X00604000D01*
X00254000Y00253999D01*
Y00579000D01*
X00654000D01*
Y00314000D01*
D02*
G37*
%LPC*%
G36*
X00645310Y00570310D02*
X00262699D01*
Y00262690D01*
X00595191D01*
Y00322052D01*
X00622389D01*
Y00314000D01*
X00629282D01*
Y00318750D01*
Y00326499D01*
X00629400Y00327095D01*
Y00327703D01*
X00629594Y00328678D01*
X00630516Y00330902D01*
X00630914Y00331499D01*
X00630516Y00332096D01*
X00629864Y00333669D01*
X00629594Y00334320D01*
X00629400Y00335296D01*
Y00335903D01*
X00629282Y00336499D01*
Y00343802D01*
X00629147Y00344825D01*
X00628925Y00345361D01*
X00628572Y00345822D01*
X00628111Y00346175D01*
X00627575Y00346397D01*
X00626552Y00346532D01*
X00623948D01*
X00623700Y00346482D01*
X00623301Y00346562D01*
X00622895Y00346535D01*
X00619919Y00346927D01*
X00619155Y00347186D01*
X00618363Y00347344D01*
X00615590Y00348492D01*
X00614919Y00348941D01*
X00614195Y00349298D01*
X00611814Y00351125D01*
X00611282Y00351732D01*
X00610675Y00352264D01*
X00608848Y00354645D01*
X00608491Y00355369D01*
X00608042Y00356040D01*
X00606894Y00358813D01*
X00606736Y00359605D01*
X00606715Y00359667D01*
X00607539Y00360937D01*
X00637564D01*
X00640384Y00358773D01*
X00640916Y00358166D01*
X00641523Y00357634D01*
X00643687Y00354814D01*
X00644044Y00354090D01*
X00644492Y00353419D01*
X00645310Y00351445D01*
Y00570310D01*
D02*
G37*
G36*
Y00331834D02*
X00645086Y00331499D01*
X00645310Y00331164D01*
Y00331834D01*
D02*
G37*
G36*
Y00313513D02*
X00633500D01*
Y00294000D01*
X00645310D01*
Y00313513D01*
D02*
G37*
%LPD*%
G36*
X00476125Y00462250D02*
X00448125Y00490250D01*
X00476125D01*
Y00462250D01*
D02*
G37*
G36*
X00633065Y00405694D02*
X00633126Y00405668D01*
X00633178Y00405628D01*
X00633218Y00405576D01*
X00633244Y00405515D01*
X00633252Y00405450D01*
Y00388650D01*
X00633244Y00388585D01*
X00633218Y00388524D01*
X00633178Y00388472D01*
X00633126Y00388432D01*
X00633065Y00388406D01*
X00633000Y00388398D01*
X00626752D01*
Y00379402D01*
X00633000D01*
X00633065Y00379394D01*
X00633126Y00379368D01*
X00633178Y00379328D01*
X00633218Y00379276D01*
X00633244Y00379215D01*
X00633252Y00379150D01*
Y00368950D01*
X00633244Y00368885D01*
X00633218Y00368824D01*
X00633178Y00368772D01*
X00633126Y00368732D01*
X00633065Y00368706D01*
X00633000Y00368698D01*
X00619500D01*
X00619435Y00368706D01*
X00619374Y00368732D01*
X00619322Y00368772D01*
X00619282Y00368824D01*
X00619256Y00368885D01*
X00619248Y00368950D01*
Y00388398D01*
X00613000D01*
X00612935Y00388406D01*
X00612874Y00388432D01*
X00612822Y00388472D01*
X00612782Y00388524D01*
X00612756Y00388585D01*
X00612748Y00388650D01*
Y00405450D01*
X00612756Y00405515D01*
X00612782Y00405576D01*
X00612822Y00405628D01*
X00612874Y00405668D01*
X00612935Y00405694D01*
X00613000Y00405702D01*
X00618250D01*
X00618315Y00405694D01*
X00618376Y00405668D01*
X00618428Y00405628D01*
X00618468Y00405576D01*
X00618494Y00405515D01*
X00618502Y00405450D01*
Y00399202D01*
X00627498D01*
Y00405450D01*
X00627506Y00405515D01*
X00627532Y00405576D01*
X00627572Y00405628D01*
X00627624Y00405668D01*
X00627685Y00405694D01*
X00627750Y00405702D01*
X00633000D01*
X00633065Y00405694D01*
D02*
G37*
D35*
X00639500Y00310250D02*
D03*
Y00297750D02*
D03*
D36*
X00641850Y00304000D02*
D03*
X00637150D02*
D03*
D37*
X00494000Y00539250D02*
D03*
X00505000D02*
D03*
X00516000D02*
D03*
X00527000D02*
D03*
X00538000D02*
D03*
X00590000D02*
D03*
X00601000D02*
D03*
X00612000D02*
D03*
X00623000D02*
D03*
X00634000Y00419250D02*
D03*
Y00539250D02*
D03*
X00623000Y00419250D02*
D03*
X00612000D02*
D03*
X00601000D02*
D03*
X00590000D02*
D03*
X00538000D02*
D03*
X00527000D02*
D03*
X00516000D02*
D03*
X00505000D02*
D03*
X00494000D02*
D03*
X00549000D02*
D03*
X00560000D02*
D03*
X00549000Y00539250D02*
D03*
X00560000D02*
D03*
D38*
X00493000Y00398250D02*
D03*
X00470500D02*
D03*
D39*
X00640750Y00383950D02*
D03*
Y00393950D02*
D03*
X00590750Y00392250D02*
D03*
Y00402250D02*
D03*
X00598750D02*
D03*
Y00392250D02*
D03*
X00567749Y00402250D02*
D03*
Y00392250D02*
D03*
X00460375Y00514000D02*
D03*
Y00504000D02*
D03*
D40*
X00578750Y00399250D02*
D03*
Y00384250D02*
D03*
D41*
X00607000Y00402250D02*
D03*
X00607001Y00392598D02*
D03*
X00451374Y00513826D02*
D03*
X00451375Y00504174D02*
D03*
X00442499Y00513826D02*
D03*
X00442500Y00504174D02*
D03*
X00458999Y00542402D02*
D03*
X00459000Y00532750D02*
D03*
D42*
X00596000Y00383500D02*
D03*
X00606000D02*
D03*
X00623000Y00555750D02*
D03*
X00633000D02*
D03*
X00502556Y00307125D02*
D03*
X00512556D02*
D03*
X00502556Y00314875D02*
D03*
X00512556D02*
D03*
X00539000Y00556750D02*
D03*
X00549000D02*
D03*
X00570000D02*
D03*
X00560000D02*
D03*
X00507694Y00334875D02*
D03*
X00517694D02*
D03*
X00515750Y00403000D02*
D03*
X00505750D02*
D03*
X00517694Y00327125D02*
D03*
X00507694D02*
D03*
D43*
X00637750Y00447750D02*
D03*
X00608250D02*
D03*
D44*
X00623000Y00432500D02*
D03*
D45*
X00628348Y00318749D02*
D03*
Y00344249D02*
D03*
X00514652Y00556107D02*
D03*
X00505000Y00556107D02*
D03*
D46*
X00638000Y00318750D02*
D03*
D47*
Y00344250D02*
D03*
D48*
X00614800Y00364150D02*
D03*
Y00383950D02*
D03*
Y00374050D02*
D03*
Y00403750D02*
D03*
Y00390350D02*
D03*
X00623000Y00364150D02*
D03*
X00631200D02*
D03*
Y00383950D02*
D03*
X00623000Y00403750D02*
D03*
X00631200Y00390350D02*
D03*
Y00374050D02*
D03*
Y00403750D02*
D03*
D49*
X00454625Y00443750D02*
D03*
D50*
X00638000Y00326499D02*
D03*
Y00336499D02*
D03*
D51*
X00468750Y00369970D02*
D03*
Y00292030D02*
D03*
D52*
X00488550Y00353500D02*
D03*
Y00348500D02*
D03*
Y00343500D02*
D03*
Y00338500D02*
D03*
Y00333500D02*
D03*
Y00328500D02*
D03*
Y00323500D02*
D03*
Y00318500D02*
D03*
Y00313500D02*
D03*
Y00308500D02*
D03*
D53*
X00460375Y00496000D02*
D03*
X00449375D02*
D03*
D54*
X00623000Y00419250D02*
Y00432500D01*
D55*
X00285000Y00446500D02*
D03*
Y00416500D02*
D03*
Y00386500D02*
D03*
D56*
X00378000Y00558000D02*
D03*
X00348000D02*
D03*
M02*
