G04*
G04 #@! TF.GenerationSoftware,Altium Limited,Altium Designer,23.3.1 (30)*
G04*
G04 Layer_Color=16711935*
%FSAX44Y44*%
%MOMM*%
G71*
G04*
G04 #@! TF.SameCoordinates,EEB403B8-57DA-4B53-8A1C-A64ED6DC22F4*
G04*
G04*
G04 #@! TF.FilePolarity,Negative*
G04*
G01*
G75*
G04:AMPARAMS|DCode=39|XSize=0.65mm|YSize=0.6mm|CornerRadius=0.1625mm|HoleSize=0mm|Usage=FLASHONLY|Rotation=180.000|XOffset=0mm|YOffset=0mm|HoleType=Round|Shape=RoundedRectangle|*
%AMROUNDEDRECTD39*
21,1,0.6500,0.2750,0,0,180.0*
21,1,0.3250,0.6000,0,0,180.0*
1,1,0.3250,-0.1625,0.1375*
1,1,0.3250,0.1625,0.1375*
1,1,0.3250,0.1625,-0.1375*
1,1,0.3250,-0.1625,-0.1375*
%
%ADD39ROUNDEDRECTD39*%
G04:AMPARAMS|DCode=41|XSize=0.7mm|YSize=0.7mm|CornerRadius=0.2mm|HoleSize=0mm|Usage=FLASHONLY|Rotation=90.000|XOffset=0mm|YOffset=0mm|HoleType=Round|Shape=RoundedRectangle|*
%AMROUNDEDRECTD41*
21,1,0.7000,0.3000,0,0,90.0*
21,1,0.3000,0.7000,0,0,90.0*
1,1,0.4000,0.1500,0.1500*
1,1,0.4000,0.1500,-0.1500*
1,1,0.4000,-0.1500,-0.1500*
1,1,0.4000,-0.1500,0.1500*
%
%ADD41ROUNDEDRECTD41*%
%ADD55C,2.4500*%
%ADD56C,2.0500*%
%ADD72R,1.3600X0.9800*%
%ADD73R,1.3600X3.2900*%
%ADD74R,1.6100X0.4500*%
%ADD75R,1.2500X0.3500*%
%ADD76R,3.0500X2.7500*%
%ADD77R,1.1500X1.2000*%
%ADD78R,1.3000X1.8500*%
%ADD79R,1.0500X1.4500*%
G36*
X00654000Y00314000D02*
Y00254000D01*
X00604000D01*
X00254000Y00253999D01*
Y00579000D01*
X00654000D01*
Y00314000D01*
D02*
G37*
%LPC*%
G36*
X00645310Y00570310D02*
X00262699D01*
Y00262690D01*
X00595191D01*
Y00322052D01*
X00622389D01*
Y00314000D01*
X00645310D01*
Y00570310D01*
D02*
G37*
%LPD*%
D39*
X00331500Y00447250D02*
D03*
Y00437250D02*
D03*
D41*
X00640751Y00393776D02*
D03*
X00640750Y00384124D02*
D03*
D55*
X00285000Y00446500D02*
D03*
Y00416500D02*
D03*
Y00386500D02*
D03*
D56*
X00378000Y00558000D02*
D03*
X00348000D02*
D03*
D72*
X00371448Y00516149D02*
D03*
Y00493249D02*
D03*
Y00470349D02*
D03*
D73*
X00304548Y00493249D02*
D03*
D74*
X00461550Y00532750D02*
D03*
Y00539250D02*
D03*
Y00545750D02*
D03*
Y00552250D02*
D03*
X00403950D02*
D03*
Y00545750D02*
D03*
Y00539250D02*
D03*
Y00532750D02*
D03*
D75*
X00324400Y00313500D02*
D03*
Y00318500D02*
D03*
Y00323500D02*
D03*
Y00328500D02*
D03*
Y00333500D02*
D03*
Y00338500D02*
D03*
Y00343500D02*
D03*
Y00348500D02*
D03*
D76*
X00343000Y00367800D02*
D03*
Y00294200D02*
D03*
D77*
X00371000Y00539000D02*
D03*
X00355000D02*
D03*
D78*
X00392250Y00467500D02*
D03*
Y00493500D02*
D03*
D79*
X00350750Y00447250D02*
D03*
X00369750D02*
D03*
X00360250Y00425250D02*
D03*
M02*
