G04*
G04 #@! TF.GenerationSoftware,Altium Limited,Altium Designer,23.3.1 (30)*
G04*
G04 Layer_Physical_Order=1*
G04 Layer_Color=255*
%FSAX44Y44*%
%MOMM*%
G71*
G04*
G04 #@! TF.SameCoordinates,EEB403B8-57DA-4B53-8A1C-A64ED6DC22F4*
G04*
G04*
G04 #@! TF.FilePolarity,Positive*
G04*
G01*
G75*
%ADD11C,0.2000*%
%ADD16R,0.8000X0.3500*%
%ADD17R,0.2600X0.5000*%
%ADD18R,0.8500X1.8000*%
%ADD19R,1.1500X1.3000*%
G04:AMPARAMS|DCode=20|XSize=0.6mm|YSize=0.55mm|CornerRadius=0.1375mm|HoleSize=0mm|Usage=FLASHONLY|Rotation=180.000|XOffset=0mm|YOffset=0mm|HoleType=Round|Shape=RoundedRectangle|*
%AMROUNDEDRECTD20*
21,1,0.6000,0.2750,0,0,180.0*
21,1,0.3250,0.5500,0,0,180.0*
1,1,0.2750,-0.1625,0.1375*
1,1,0.2750,0.1625,0.1375*
1,1,0.2750,0.1625,-0.1375*
1,1,0.2750,-0.1625,-0.1375*
%
%ADD20ROUNDEDRECTD20*%
G04:AMPARAMS|DCode=21|XSize=0.95mm|YSize=0.95mm|CornerRadius=0.2375mm|HoleSize=0mm|Usage=FLASHONLY|Rotation=0.000|XOffset=0mm|YOffset=0mm|HoleType=Round|Shape=RoundedRectangle|*
%AMROUNDEDRECTD21*
21,1,0.9500,0.4750,0,0,0.0*
21,1,0.4750,0.9500,0,0,0.0*
1,1,0.4750,0.2375,-0.2375*
1,1,0.4750,-0.2375,-0.2375*
1,1,0.4750,-0.2375,0.2375*
1,1,0.4750,0.2375,0.2375*
%
%ADD21ROUNDEDRECTD21*%
G04:AMPARAMS|DCode=22|XSize=0.6mm|YSize=0.6mm|CornerRadius=0.15mm|HoleSize=0mm|Usage=FLASHONLY|Rotation=90.000|XOffset=0mm|YOffset=0mm|HoleType=Round|Shape=RoundedRectangle|*
%AMROUNDEDRECTD22*
21,1,0.6000,0.3000,0,0,90.0*
21,1,0.3000,0.6000,0,0,90.0*
1,1,0.3000,0.1500,0.1500*
1,1,0.3000,0.1500,-0.1500*
1,1,0.3000,-0.1500,-0.1500*
1,1,0.3000,-0.1500,0.1500*
%
%ADD22ROUNDEDRECTD22*%
G04:AMPARAMS|DCode=23|XSize=0.6mm|YSize=0.55mm|CornerRadius=0.1375mm|HoleSize=0mm|Usage=FLASHONLY|Rotation=270.000|XOffset=0mm|YOffset=0mm|HoleType=Round|Shape=RoundedRectangle|*
%AMROUNDEDRECTD23*
21,1,0.6000,0.2750,0,0,270.0*
21,1,0.3250,0.5500,0,0,270.0*
1,1,0.2750,-0.1375,-0.1625*
1,1,0.2750,-0.1375,0.1625*
1,1,0.2750,0.1375,0.1625*
1,1,0.2750,0.1375,-0.1625*
%
%ADD23ROUNDEDRECTD23*%
%ADD24R,1.0500X2.2000*%
%ADD25R,0.8500X1.0500*%
G04:AMPARAMS|DCode=26|XSize=0.6mm|YSize=0.6mm|CornerRadius=0.15mm|HoleSize=0mm|Usage=FLASHONLY|Rotation=180.000|XOffset=0mm|YOffset=0mm|HoleType=Round|Shape=RoundedRectangle|*
%AMROUNDEDRECTD26*
21,1,0.6000,0.3000,0,0,180.0*
21,1,0.3000,0.6000,0,0,180.0*
1,1,0.3000,-0.1500,0.1500*
1,1,0.3000,0.1500,0.1500*
1,1,0.3000,0.1500,-0.1500*
1,1,0.3000,-0.1500,-0.1500*
%
%ADD26ROUNDEDRECTD26*%
G04:AMPARAMS|DCode=27|XSize=0.5mm|YSize=0.6mm|CornerRadius=0.125mm|HoleSize=0mm|Usage=FLASHONLY|Rotation=180.000|XOffset=0mm|YOffset=0mm|HoleType=Round|Shape=RoundedRectangle|*
%AMROUNDEDRECTD27*
21,1,0.5000,0.3500,0,0,180.0*
21,1,0.2500,0.6000,0,0,180.0*
1,1,0.2500,-0.1250,0.1750*
1,1,0.2500,0.1250,0.1750*
1,1,0.2500,0.1250,-0.1750*
1,1,0.2500,-0.1250,-0.1750*
%
%ADD27ROUNDEDRECTD27*%
%ADD28R,0.3600X0.3400*%
%ADD29R,4.1000X1.7000*%
G04:AMPARAMS|DCode=30|XSize=0.5mm|YSize=0.55mm|CornerRadius=0.125mm|HoleSize=0mm|Usage=FLASHONLY|Rotation=180.000|XOffset=0mm|YOffset=0mm|HoleType=Round|Shape=RoundedRectangle|*
%AMROUNDEDRECTD30*
21,1,0.5000,0.3000,0,0,180.0*
21,1,0.2500,0.5500,0,0,180.0*
1,1,0.2500,-0.1250,0.1500*
1,1,0.2500,0.1250,0.1500*
1,1,0.2500,0.1250,-0.1500*
1,1,0.2500,-0.1250,-0.1500*
%
%ADD30ROUNDEDRECTD30*%
%ADD31R,3.1200X2.2400*%
%ADD32R,1.6000X0.3000*%
%ADD33R,0.7000X0.5000*%
%ADD34C,0.5000*%
%ADD57R,1.0000X1.0000*%
%ADD58C,0.1250*%
%ADD59C,0.4000*%
%ADD60C,0.3000*%
%ADD61C,2.4000*%
%ADD62C,2.0000*%
%ADD63C,0.4000*%
G36*
X00651451Y00314000D02*
X00642588D01*
Y00326499D01*
X00642564Y00326622D01*
Y00327999D01*
X00642311Y00329267D01*
X00641593Y00330342D01*
X00640918Y00330794D01*
X00640886Y00330884D01*
Y00332114D01*
X00640918Y00332205D01*
X00641593Y00332656D01*
X00642311Y00333731D01*
X00642564Y00334999D01*
Y00336376D01*
X00642588Y00336499D01*
Y00344171D01*
X00642604Y00344250D01*
X00642578Y00344379D01*
X00642587Y00344509D01*
X00642564Y00344686D01*
Y00346000D01*
X00642311Y00347268D01*
X00642257Y00347349D01*
X00642179Y00347607D01*
X00642123Y00348034D01*
X00642039Y00348280D01*
X00641989Y00348535D01*
X00641649Y00349355D01*
X00641389Y00350210D01*
X00640968Y00350999D01*
X00640628Y00351819D01*
X00640484Y00352035D01*
X00640369Y00352268D01*
X00640107Y00352609D01*
X00639950Y00352903D01*
X00638898Y00354185D01*
X00638205Y00355088D01*
X00638033Y00355239D01*
X00638013Y00355263D01*
X00637989Y00355283D01*
X00637838Y00355455D01*
X00636935Y00356148D01*
X00635653Y00357200D01*
X00635359Y00357357D01*
X00635018Y00357619D01*
X00634785Y00357734D01*
X00634569Y00357878D01*
X00633749Y00358218D01*
X00632960Y00358639D01*
X00632105Y00358899D01*
X00631285Y00359239D01*
X00631030Y00359289D01*
X00630784Y00359373D01*
X00630358Y00359429D01*
X00630039Y00359526D01*
X00628387Y00359688D01*
X00627259Y00359837D01*
X00627129Y00359828D01*
X00627000Y00359854D01*
X00626921Y00359838D01*
X00623700D01*
X00623595Y00359817D01*
X00622034Y00360128D01*
X00620621Y00361072D01*
X00619678Y00362484D01*
X00619355Y00364109D01*
X00619388Y00364150D01*
X00619388D01*
X00619039Y00365906D01*
X00618600Y00366563D01*
Y00367850D01*
X00617362D01*
X00616556Y00368389D01*
X00614800Y00368738D01*
X00613044Y00368389D01*
X00612238Y00367850D01*
X00611000D01*
Y00366563D01*
X00610561Y00365906D01*
X00610336Y00364774D01*
X00610282Y00364664D01*
X00610266Y00364423D01*
X00610212Y00364150D01*
X00610184D01*
X00610645Y00360652D01*
X00611995Y00357392D01*
X00614143Y00354593D01*
X00616942Y00352445D01*
X00620202Y00351095D01*
X00623700Y00350634D01*
Y00350662D01*
X00627000D01*
X00627087Y00350679D01*
X00627804Y00350585D01*
X00628937Y00350360D01*
X00629951Y00349939D01*
X00630911Y00349298D01*
X00631554Y00348804D01*
X00632048Y00348161D01*
X00632690Y00347201D01*
X00633110Y00346187D01*
X00633335Y00345054D01*
X00633429Y00344337D01*
X00633412Y00344250D01*
Y00336499D01*
X00633436Y00336376D01*
Y00334999D01*
X00633689Y00333731D01*
X00634407Y00332656D01*
X00635082Y00332205D01*
X00635114Y00332114D01*
Y00330884D01*
X00635082Y00330794D01*
X00634407Y00330342D01*
X00633689Y00329267D01*
X00633436Y00327999D01*
Y00326622D01*
X00633412Y00326499D01*
Y00314000D01*
X00604000D01*
Y00262500D01*
Y00256549D01*
X00256549D01*
Y00576451D01*
X00651451D01*
Y00314000D01*
D02*
G37*
G36*
X00650750Y00257500D02*
X00609000D01*
Y00262500D01*
X00645750D01*
Y00293750D01*
X00635000D01*
Y00299500D01*
X00650750D01*
Y00257500D01*
D02*
G37*
%LPC*%
G36*
X00570000Y00565819D02*
X00569655Y00565750D01*
X00569304D01*
X00568979Y00565616D01*
X00568634Y00565547D01*
X00568342Y00565352D01*
X00568017Y00565217D01*
X00567769Y00564969D01*
X00567477Y00564773D01*
X00567281Y00564481D01*
X00567033Y00564233D01*
X00566898Y00563908D01*
X00566703Y00563616D01*
X00566634Y00563271D01*
X00566500Y00562946D01*
Y00562595D01*
X00566431Y00562250D01*
Y00560267D01*
X00565917Y00559497D01*
X00565694Y00558375D01*
Y00555125D01*
X00565917Y00554003D01*
X00566552Y00553052D01*
X00567503Y00552417D01*
X00568625Y00552194D01*
X00571375D01*
X00572497Y00552417D01*
X00573448Y00553052D01*
X00574083Y00554003D01*
X00574306Y00555125D01*
Y00558375D01*
X00574083Y00559497D01*
X00573569Y00560267D01*
Y00562250D01*
X00573500Y00562595D01*
Y00562946D01*
X00573366Y00563271D01*
X00573297Y00563616D01*
X00573102Y00563908D01*
X00572967Y00564233D01*
X00572719Y00564481D01*
X00572523Y00564773D01*
X00572231Y00564969D01*
X00571983Y00565217D01*
X00571658Y00565352D01*
X00571366Y00565547D01*
X00571021Y00565616D01*
X00570696Y00565750D01*
X00570345D01*
X00570000Y00565819D01*
D02*
G37*
G36*
X00349514Y00569500D02*
X00346486D01*
X00343561Y00568716D01*
X00340939Y00567202D01*
X00338798Y00565061D01*
X00337284Y00562439D01*
X00336500Y00559514D01*
Y00556486D01*
X00337284Y00553561D01*
X00338798Y00550939D01*
X00340939Y00548798D01*
X00343561Y00547284D01*
X00346486Y00546500D01*
X00349514D01*
X00352439Y00547284D01*
X00355061Y00548798D01*
X00357202Y00550939D01*
X00358716Y00553561D01*
X00359500Y00556486D01*
Y00559514D01*
X00358716Y00562439D01*
X00357202Y00565061D01*
X00355061Y00567202D01*
X00352439Y00568716D01*
X00349514Y00569500D01*
D02*
G37*
G36*
X00460500Y00537309D02*
X00457500D01*
X00456329Y00537076D01*
X00455337Y00536413D01*
X00455274Y00536319D01*
X00450000D01*
X00449655Y00536250D01*
X00449304D01*
X00448979Y00536115D01*
X00448634Y00536047D01*
X00448342Y00535852D01*
X00448017Y00535717D01*
X00447769Y00535469D01*
X00447477Y00535273D01*
X00447281Y00534981D01*
X00447033Y00534733D01*
X00446898Y00534408D01*
X00446703Y00534116D01*
X00446634Y00533771D01*
X00446500Y00533446D01*
Y00533095D01*
X00446431Y00532750D01*
X00446500Y00532405D01*
Y00532054D01*
X00446634Y00531729D01*
X00446703Y00531384D01*
X00446898Y00531092D01*
X00447033Y00530767D01*
X00447281Y00530519D01*
X00447477Y00530227D01*
X00447769Y00530031D01*
X00448017Y00529783D01*
X00448342Y00529648D01*
X00448634Y00529453D01*
X00448979Y00529384D01*
X00449304Y00529250D01*
X00449655D01*
X00450000Y00529181D01*
X00455274D01*
X00455337Y00529087D01*
X00456329Y00528424D01*
X00457500Y00528191D01*
X00460500D01*
X00461670Y00528424D01*
X00462663Y00529087D01*
X00463326Y00530079D01*
X00463559Y00531250D01*
Y00534250D01*
X00463326Y00535420D01*
X00462663Y00536413D01*
X00461670Y00537076D01*
X00460500Y00537309D01*
D02*
G37*
G36*
X00624375Y00560306D02*
X00621625D01*
X00620503Y00560083D01*
X00619552Y00559448D01*
X00618917Y00558497D01*
X00618694Y00557375D01*
Y00554125D01*
X00618917Y00553003D01*
X00619552Y00552052D01*
X00620451Y00551452D01*
Y00549750D01*
X00584250D01*
Y00528750D01*
X00619081D01*
X00619187Y00528664D01*
X00619825Y00527480D01*
X00619500Y00526696D01*
Y00525304D01*
X00620033Y00524017D01*
X00621017Y00523033D01*
X00622304Y00522500D01*
X00623696D01*
X00624983Y00523033D01*
X00625967Y00524017D01*
X00626500Y00525304D01*
Y00526696D01*
X00626175Y00527480D01*
X00626813Y00528664D01*
X00626919Y00528750D01*
X00628750D01*
Y00549750D01*
X00625549D01*
Y00551452D01*
X00626448Y00552052D01*
X00627083Y00553003D01*
X00627306Y00554125D01*
Y00557375D01*
X00627083Y00558497D01*
X00626448Y00559448D01*
X00625497Y00560083D01*
X00624375Y00560306D01*
D02*
G37*
G36*
X00549500Y00569667D02*
X00490034D01*
X00489204Y00569502D01*
X00488502Y00569032D01*
X00475220Y00555750D01*
X00474087D01*
X00472801Y00555217D01*
X00471816Y00554233D01*
X00471284Y00552946D01*
Y00551554D01*
X00471816Y00550267D01*
X00472254Y00549830D01*
X00472662Y00549000D01*
X00472254Y00548170D01*
X00471816Y00547733D01*
X00471284Y00546446D01*
Y00545054D01*
X00471816Y00543767D01*
X00472801Y00542783D01*
X00474087Y00542250D01*
X00475480D01*
X00476766Y00542783D01*
X00477751Y00543767D01*
X00478284Y00545054D01*
Y00546186D01*
X00493431Y00561333D01*
X00501392D01*
X00501777Y00560063D01*
X00501337Y00559770D01*
X00500674Y00558777D01*
X00500441Y00557607D01*
Y00554607D01*
X00500674Y00553436D01*
X00501337Y00552444D01*
X00501431Y00552381D01*
Y00549750D01*
X00499250D01*
Y00528750D01*
X00511922D01*
Y00527189D01*
X00502811Y00518078D01*
X00463129D01*
X00463122Y00518083D01*
X00462000Y00518306D01*
X00458750D01*
X00457628Y00518083D01*
X00457491Y00517991D01*
X00454285D01*
X00454045Y00518152D01*
X00452874Y00518385D01*
X00449874D01*
X00448704Y00518152D01*
X00448333Y00517904D01*
X00445540D01*
X00445170Y00518152D01*
X00443999Y00518385D01*
X00440999D01*
X00439829Y00518152D01*
X00438836Y00517489D01*
X00438173Y00516497D01*
X00437940Y00515326D01*
Y00512326D01*
X00438173Y00511156D01*
X00438836Y00510163D01*
X00439829Y00509500D01*
X00440999Y00509267D01*
X00443999D01*
X00445170Y00509500D01*
X00445540Y00509748D01*
X00448333D01*
X00448704Y00509500D01*
X00449874Y00509267D01*
X00452874D01*
X00454045Y00509500D01*
X00454546Y00509835D01*
X00455924D01*
X00456168Y00509352D01*
X00456314Y00508565D01*
X00455727Y00507978D01*
X00455251Y00506830D01*
Y00500907D01*
X00454375Y00500000D01*
X00444375D01*
Y00499569D01*
X00442000D01*
X00441655Y00499500D01*
X00441304D01*
X00440979Y00499366D01*
X00440634Y00499297D01*
X00440342Y00499102D01*
X00440017Y00498967D01*
X00439769Y00498719D01*
X00439477Y00498523D01*
X00439281Y00498231D01*
X00439033Y00497983D01*
X00438898Y00497658D01*
X00438703Y00497366D01*
X00438634Y00497021D01*
X00438500Y00496696D01*
Y00496345D01*
X00438432Y00496000D01*
X00438500Y00495655D01*
Y00495304D01*
X00438634Y00494979D01*
X00438703Y00494634D01*
X00438898Y00494342D01*
X00439033Y00494017D01*
X00439281Y00493769D01*
X00439477Y00493477D01*
X00439769Y00493281D01*
X00440017Y00493033D01*
X00440342Y00492898D01*
X00440634Y00492703D01*
X00440979Y00492635D01*
X00441304Y00492500D01*
X00441655D01*
X00442000Y00492431D01*
X00444375D01*
Y00492000D01*
X00449920D01*
X00450406Y00490827D01*
X00449977Y00490398D01*
X00449501Y00489250D01*
X00449977Y00488102D01*
X00472804Y00465275D01*
X00473977Y00464102D01*
X00475125Y00463626D01*
X00476273Y00464102D01*
X00476749Y00465250D01*
Y00489250D01*
Y00500375D01*
X00476273Y00501523D01*
X00469145Y00508652D01*
X00469179Y00509035D01*
X00469510Y00509922D01*
X00504500D01*
X00504500Y00509922D01*
X00506061Y00510232D01*
X00507384Y00511116D01*
X00518884Y00522616D01*
X00518884Y00522616D01*
X00519768Y00523939D01*
X00520078Y00525500D01*
Y00528750D01*
X00524833D01*
Y00527033D01*
X00524033Y00526233D01*
X00523500Y00524946D01*
Y00523554D01*
X00524033Y00522267D01*
X00525017Y00521283D01*
X00526304Y00520750D01*
X00527696D01*
X00528983Y00521283D01*
X00529967Y00522267D01*
X00530500Y00523554D01*
Y00524946D01*
X00529967Y00526233D01*
X00529167Y00527033D01*
Y00528750D01*
X00535833D01*
Y00527033D01*
X00535033Y00526233D01*
X00534500Y00524946D01*
Y00523554D01*
X00535033Y00522267D01*
X00536017Y00521283D01*
X00537304Y00520750D01*
X00538696D01*
X00539983Y00521283D01*
X00540967Y00522267D01*
X00541500Y00523554D01*
Y00524946D01*
X00540967Y00526233D01*
X00540167Y00527033D01*
Y00528750D01*
X00565750D01*
Y00549750D01*
X00562167D01*
Y00552351D01*
X00562497Y00552417D01*
X00563448Y00553052D01*
X00564083Y00554003D01*
X00564306Y00555125D01*
Y00558375D01*
X00564083Y00559497D01*
X00563448Y00560448D01*
X00562497Y00561083D01*
X00561375Y00561306D01*
X00558758D01*
X00551032Y00569032D01*
X00550329Y00569502D01*
X00549500Y00569667D01*
D02*
G37*
G36*
X00286777Y00460000D02*
X00283223D01*
X00279789Y00459080D01*
X00276711Y00457303D01*
X00274197Y00454789D01*
X00272420Y00451711D01*
X00271500Y00448277D01*
Y00444723D01*
X00272420Y00441289D01*
X00274197Y00438211D01*
X00276711Y00435697D01*
X00279789Y00433920D01*
X00283223Y00433000D01*
X00286777D01*
X00290211Y00433920D01*
X00293289Y00435697D01*
X00295803Y00438211D01*
X00297580Y00441289D01*
X00298500Y00444723D01*
Y00448277D01*
X00297580Y00451711D01*
X00295803Y00454789D01*
X00293289Y00457303D01*
X00290211Y00459080D01*
X00286777Y00460000D01*
D02*
G37*
G36*
X00375946Y00434000D02*
X00374554D01*
X00373267Y00433467D01*
X00372283Y00432483D01*
X00371750Y00431196D01*
Y00429804D01*
X00372283Y00428517D01*
X00373267Y00427533D01*
X00374554Y00427000D01*
X00375946D01*
X00377233Y00427533D01*
X00378217Y00428517D01*
X00378750Y00429804D01*
Y00431196D01*
X00378217Y00432483D01*
X00377233Y00433467D01*
X00375946Y00434000D01*
D02*
G37*
G36*
X00345946D02*
X00344554D01*
X00343267Y00433467D01*
X00342283Y00432483D01*
X00341750Y00431196D01*
Y00429804D01*
X00342283Y00428517D01*
X00343267Y00427533D01*
X00344554Y00427000D01*
X00345946D01*
X00347233Y00427533D01*
X00348217Y00428517D01*
X00348750Y00429804D01*
Y00431196D01*
X00348217Y00432483D01*
X00347233Y00433467D01*
X00345946Y00434000D01*
D02*
G37*
G36*
X00375946Y00424000D02*
X00374554D01*
X00373267Y00423467D01*
X00372283Y00422483D01*
X00371750Y00421196D01*
Y00419804D01*
X00372283Y00418517D01*
X00373267Y00417533D01*
X00374554Y00417000D01*
X00375946D01*
X00377233Y00417533D01*
X00378217Y00418517D01*
X00378750Y00419804D01*
Y00421196D01*
X00378217Y00422483D01*
X00377233Y00423467D01*
X00375946Y00424000D01*
D02*
G37*
G36*
X00345946D02*
X00344554D01*
X00343267Y00423467D01*
X00342283Y00422483D01*
X00341750Y00421196D01*
Y00419804D01*
X00342283Y00418517D01*
X00343267Y00417533D01*
X00344554Y00417000D01*
X00345946D01*
X00347233Y00417533D01*
X00348217Y00418517D01*
X00348750Y00419804D01*
Y00421196D01*
X00348217Y00422483D01*
X00347233Y00423467D01*
X00345946Y00424000D01*
D02*
G37*
G36*
X00375946Y00414000D02*
X00374554D01*
X00373267Y00413467D01*
X00372283Y00412483D01*
X00371750Y00411196D01*
Y00409804D01*
X00372283Y00408517D01*
X00373267Y00407533D01*
X00374554Y00407000D01*
X00375946D01*
X00377233Y00407533D01*
X00378217Y00408517D01*
X00378750Y00409804D01*
Y00411196D01*
X00378217Y00412483D01*
X00377233Y00413467D01*
X00375946Y00414000D01*
D02*
G37*
G36*
X00365946D02*
X00364554D01*
X00363267Y00413467D01*
X00362283Y00412483D01*
X00361750Y00411196D01*
Y00409804D01*
X00362283Y00408517D01*
X00363267Y00407533D01*
X00364554Y00407000D01*
X00365946D01*
X00367233Y00407533D01*
X00368217Y00408517D01*
X00368750Y00409804D01*
Y00411196D01*
X00368217Y00412483D01*
X00367233Y00413467D01*
X00365946Y00414000D01*
D02*
G37*
G36*
X00355946D02*
X00354554D01*
X00353267Y00413467D01*
X00352283Y00412483D01*
X00351750Y00411196D01*
Y00409804D01*
X00352283Y00408517D01*
X00353267Y00407533D01*
X00354554Y00407000D01*
X00355946D01*
X00357233Y00407533D01*
X00358217Y00408517D01*
X00358750Y00409804D01*
Y00411196D01*
X00358217Y00412483D01*
X00357233Y00413467D01*
X00355946Y00414000D01*
D02*
G37*
G36*
X00345946D02*
X00344554D01*
X00343267Y00413467D01*
X00342283Y00412483D01*
X00341750Y00411196D01*
Y00409804D01*
X00342283Y00408517D01*
X00343267Y00407533D01*
X00344554Y00407000D01*
X00345946D01*
X00347233Y00407533D01*
X00348217Y00408517D01*
X00348750Y00409804D01*
Y00411196D01*
X00348217Y00412483D01*
X00347233Y00413467D01*
X00345946Y00414000D01*
D02*
G37*
G36*
X00286777Y00430000D02*
X00283223D01*
X00279789Y00429080D01*
X00276711Y00427303D01*
X00274197Y00424789D01*
X00272420Y00421711D01*
X00271500Y00418277D01*
Y00414723D01*
X00272420Y00411289D01*
X00274197Y00408211D01*
X00276711Y00405697D01*
X00279789Y00403920D01*
X00283223Y00403000D01*
X00286777D01*
X00290211Y00403920D01*
X00293289Y00405697D01*
X00295803Y00408211D01*
X00297580Y00411289D01*
X00298500Y00414723D01*
Y00418277D01*
X00297580Y00421711D01*
X00295803Y00424789D01*
X00293289Y00427303D01*
X00290211Y00429080D01*
X00286777Y00430000D01*
D02*
G37*
G36*
X00629250Y00439750D02*
X00616750D01*
Y00425250D01*
Y00408250D01*
X00618412D01*
Y00403750D01*
X00618761Y00401994D01*
X00619200Y00401337D01*
Y00400050D01*
X00620438D01*
X00621244Y00399511D01*
X00623000Y00399162D01*
X00624756Y00399511D01*
X00625562Y00400050D01*
X00626800D01*
Y00401337D01*
X00627239Y00401994D01*
X00627588Y00403750D01*
Y00408250D01*
X00629250D01*
Y00425250D01*
Y00439750D01*
D02*
G37*
G36*
X00375946Y00404000D02*
X00374554D01*
X00373267Y00403467D01*
X00372283Y00402483D01*
X00371750Y00401196D01*
Y00399804D01*
X00372283Y00398517D01*
X00373267Y00397533D01*
X00374554Y00397000D01*
X00375946D01*
X00377233Y00397533D01*
X00378217Y00398517D01*
X00378750Y00399804D01*
Y00401196D01*
X00378217Y00402483D01*
X00377233Y00403467D01*
X00375946Y00404000D01*
D02*
G37*
G36*
X00365946D02*
X00364554D01*
X00363267Y00403467D01*
X00362283Y00402483D01*
X00361750Y00401196D01*
Y00399804D01*
X00362283Y00398517D01*
X00363267Y00397533D01*
X00364554Y00397000D01*
X00365946D01*
X00367233Y00397533D01*
X00368217Y00398517D01*
X00368750Y00399804D01*
Y00401196D01*
X00368217Y00402483D01*
X00367233Y00403467D01*
X00365946Y00404000D01*
D02*
G37*
G36*
X00355946D02*
X00354554D01*
X00353267Y00403467D01*
X00352283Y00402483D01*
X00351750Y00401196D01*
Y00399804D01*
X00352283Y00398517D01*
X00353267Y00397533D01*
X00354554Y00397000D01*
X00355946D01*
X00357233Y00397533D01*
X00358217Y00398517D01*
X00358750Y00399804D01*
Y00401196D01*
X00358217Y00402483D01*
X00357233Y00403467D01*
X00355946Y00404000D01*
D02*
G37*
G36*
X00345946D02*
X00344554D01*
X00343267Y00403467D01*
X00342283Y00402483D01*
X00341750Y00401196D01*
Y00399804D01*
X00342283Y00398517D01*
X00343267Y00397533D01*
X00344554Y00397000D01*
X00345946D01*
X00347233Y00397533D01*
X00348217Y00398517D01*
X00348750Y00399804D01*
Y00401196D01*
X00348217Y00402483D01*
X00347233Y00403467D01*
X00345946Y00404000D01*
D02*
G37*
G36*
X00606750Y00429750D02*
X00584250D01*
Y00421417D01*
X00576750D01*
X00575921Y00421252D01*
X00575218Y00420782D01*
X00566217Y00411781D01*
X00565747Y00411078D01*
X00565582Y00410249D01*
Y00406449D01*
X00565002Y00406333D01*
X00564051Y00405698D01*
X00563416Y00404747D01*
X00563192Y00403625D01*
Y00400875D01*
X00563416Y00399753D01*
X00564051Y00398802D01*
X00565002Y00398167D01*
X00566124Y00397944D01*
X00569374D01*
X00570495Y00398167D01*
X00571106Y00398575D01*
X00572226Y00398140D01*
X00572376Y00398012D01*
Y00396488D01*
X00572226Y00396359D01*
X00571106Y00395925D01*
X00570495Y00396333D01*
X00569374Y00396556D01*
X00566124D01*
X00565002Y00396333D01*
X00564051Y00395698D01*
X00563416Y00394747D01*
X00563192Y00393625D01*
Y00390875D01*
X00563416Y00389753D01*
X00564051Y00388802D01*
X00564180Y00388716D01*
Y00386048D01*
X00564249Y00385703D01*
Y00385352D01*
X00564383Y00385027D01*
X00564452Y00384682D01*
X00564647Y00384390D01*
X00564782Y00384065D01*
X00565030Y00383817D01*
X00565225Y00383525D01*
X00565518Y00383329D01*
X00565766Y00383081D01*
X00566091Y00382946D01*
X00566383Y00382751D01*
X00566728Y00382682D01*
X00567053Y00382548D01*
X00567404D01*
X00567749Y00382479D01*
X00568093Y00382548D01*
X00568445D01*
X00568770Y00382682D01*
X00569114Y00382751D01*
X00569407Y00382946D01*
X00569731Y00383081D01*
X00569980Y00383329D01*
X00570272Y00383525D01*
X00570467Y00383817D01*
X00570716Y00384065D01*
X00570850Y00384390D01*
X00571046Y00384682D01*
X00571114Y00385027D01*
X00571249Y00385352D01*
Y00385703D01*
X00571317Y00386048D01*
Y00388716D01*
X00571446Y00388802D01*
X00572082Y00389753D01*
X00572305Y00390875D01*
Y00392244D01*
X00573575Y00393057D01*
X00574000Y00392881D01*
X00585259D01*
X00586194Y00392256D01*
Y00390875D01*
X00586417Y00389753D01*
X00586876Y00389065D01*
Y00380500D01*
X00587352Y00379352D01*
X00588500Y00378876D01*
X00598750D01*
X00599898Y00379352D01*
X00600374Y00380500D01*
Y00387249D01*
X00601387Y00387503D01*
X00601999Y00386370D01*
X00601917Y00386247D01*
X00601694Y00385125D01*
Y00381875D01*
X00601917Y00380753D01*
X00602552Y00379802D01*
X00603503Y00379167D01*
X00604625Y00378944D01*
X00607375D01*
X00608497Y00379167D01*
X00609448Y00379802D01*
X00609835Y00380381D01*
X00614800D01*
X00616166Y00380653D01*
X00616311Y00380750D01*
X00618100D01*
Y00382600D01*
X00618369Y00383950D01*
X00618100Y00385300D01*
Y00387150D01*
X00616311D01*
X00616166Y00387247D01*
X00614800Y00387519D01*
X00611975D01*
X00611330Y00388789D01*
X00611624Y00389500D01*
Y00395674D01*
X00611149Y00396822D01*
X00610001Y00397298D01*
X00603698D01*
X00603445Y00398568D01*
X00603528Y00398602D01*
X00604004Y00399750D01*
Y00405250D01*
X00603528Y00406398D01*
X00603328Y00406481D01*
Y00408750D01*
X00606750D01*
Y00429750D01*
D02*
G37*
G36*
X00477750Y00406250D02*
X00463250D01*
Y00401819D01*
X00459500D01*
X00459155Y00401750D01*
X00458804D01*
X00458479Y00401615D01*
X00458134Y00401547D01*
X00457842Y00401352D01*
X00457517Y00401217D01*
X00457269Y00400969D01*
X00456977Y00400773D01*
X00456781Y00400481D01*
X00456533Y00400233D01*
X00456398Y00399908D01*
X00456203Y00399616D01*
X00456134Y00399271D01*
X00456000Y00398946D01*
Y00398595D01*
X00455931Y00398250D01*
X00456000Y00397905D01*
Y00397554D01*
X00456134Y00397229D01*
X00456203Y00396884D01*
X00456398Y00396592D01*
X00456533Y00396267D01*
X00456781Y00396019D01*
X00456977Y00395727D01*
X00457269Y00395531D01*
X00457517Y00395283D01*
X00457842Y00395148D01*
X00458134Y00394953D01*
X00458479Y00394884D01*
X00458804Y00394750D01*
X00459155D01*
X00459500Y00394681D01*
X00463250D01*
Y00390250D01*
X00477750D01*
Y00406250D01*
D02*
G37*
G36*
X00641446Y00403000D02*
X00640054D01*
X00638767Y00402467D01*
X00637783Y00401483D01*
X00637250Y00400196D01*
Y00398804D01*
X00637663Y00397806D01*
X00637052Y00397398D01*
X00636417Y00396447D01*
X00636194Y00395325D01*
Y00392575D01*
X00636417Y00391453D01*
X00637052Y00390502D01*
X00638003Y00389867D01*
X00639125Y00389644D01*
X00642375D01*
X00643497Y00389867D01*
X00644448Y00390502D01*
X00645083Y00391453D01*
X00645306Y00392575D01*
Y00395325D01*
X00645083Y00396447D01*
X00644448Y00397398D01*
X00643837Y00397806D01*
X00644250Y00398804D01*
Y00400196D01*
X00643717Y00401483D01*
X00642733Y00402467D01*
X00641446Y00403000D01*
D02*
G37*
G36*
X00375946Y00394000D02*
X00374554D01*
X00373267Y00393467D01*
X00372283Y00392483D01*
X00371750Y00391196D01*
Y00389804D01*
X00372283Y00388517D01*
X00373267Y00387533D01*
X00374554Y00387000D01*
X00375946D01*
X00377233Y00387533D01*
X00378217Y00388517D01*
X00378750Y00389804D01*
Y00391196D01*
X00378217Y00392483D01*
X00377233Y00393467D01*
X00375946Y00394000D01*
D02*
G37*
G36*
X00365946D02*
X00364554D01*
X00363267Y00393467D01*
X00362283Y00392483D01*
X00361750Y00391196D01*
Y00389804D01*
X00362283Y00388517D01*
X00363267Y00387533D01*
X00364554Y00387000D01*
X00365946D01*
X00367233Y00387533D01*
X00368217Y00388517D01*
X00368750Y00389804D01*
Y00391196D01*
X00368217Y00392483D01*
X00367233Y00393467D01*
X00365946Y00394000D01*
D02*
G37*
G36*
X00355946D02*
X00354554D01*
X00353267Y00393467D01*
X00352283Y00392483D01*
X00351750Y00391196D01*
Y00389804D01*
X00352283Y00388517D01*
X00353267Y00387533D01*
X00354554Y00387000D01*
X00355946D01*
X00357233Y00387533D01*
X00358217Y00388517D01*
X00358750Y00389804D01*
Y00391196D01*
X00358217Y00392483D01*
X00357233Y00393467D01*
X00355946Y00394000D01*
D02*
G37*
G36*
X00345946D02*
X00344554D01*
X00343267Y00393467D01*
X00342283Y00392483D01*
X00341750Y00391196D01*
Y00389804D01*
X00342283Y00388517D01*
X00343267Y00387533D01*
X00344554Y00387000D01*
X00345946D01*
X00347233Y00387533D01*
X00348217Y00388517D01*
X00348750Y00389804D01*
Y00391196D01*
X00348217Y00392483D01*
X00347233Y00393467D01*
X00345946Y00394000D01*
D02*
G37*
G36*
X00642375Y00388256D02*
X00639125D01*
X00638003Y00388033D01*
X00637052Y00387398D01*
X00636452Y00386499D01*
X00634500D01*
Y00387150D01*
X00627900D01*
Y00380750D01*
X00634500D01*
Y00381401D01*
X00636452D01*
X00637052Y00380502D01*
X00638003Y00379867D01*
X00639125Y00379644D01*
X00642375D01*
X00643497Y00379867D01*
X00644448Y00380502D01*
X00645083Y00381453D01*
X00645306Y00382575D01*
Y00385325D01*
X00645083Y00386447D01*
X00644448Y00387398D01*
X00643497Y00388033D01*
X00642375Y00388256D01*
D02*
G37*
G36*
X00503696Y00357000D02*
X00502304D01*
X00501239Y00356559D01*
X00488550D01*
X00488255Y00356500D01*
X00479050D01*
Y00345500D01*
X00488255D01*
X00488550Y00345441D01*
X00498489D01*
X00499554Y00345000D01*
X00500946D01*
X00502233Y00345533D01*
X00503217Y00346517D01*
X00503750Y00347804D01*
Y00349196D01*
X00504631Y00350387D01*
X00504983Y00350533D01*
X00505967Y00351517D01*
X00506500Y00352804D01*
Y00354196D01*
X00505967Y00355483D01*
X00504983Y00356467D01*
X00503696Y00357000D01*
D02*
G37*
G36*
X00310646Y00352000D02*
X00309254D01*
X00307967Y00351467D01*
X00306983Y00350483D01*
X00306450Y00349196D01*
Y00347804D01*
X00306983Y00346517D01*
X00307967Y00345533D01*
X00308319Y00345387D01*
X00309200Y00344196D01*
Y00342804D01*
X00309733Y00341517D01*
X00310717Y00340533D01*
X00312004Y00340000D01*
X00313396D01*
X00314683Y00340533D01*
X00315667Y00341517D01*
X00316200Y00342804D01*
Y00344196D01*
X00315667Y00345483D01*
X00314683Y00346467D01*
X00314331Y00346613D01*
X00313450Y00347804D01*
Y00349196D01*
X00312917Y00350483D01*
X00311933Y00351467D01*
X00310646Y00352000D01*
D02*
G37*
G36*
X00554750Y00429750D02*
X00488250D01*
Y00408750D01*
X00503866D01*
X00503991Y00407480D01*
X00503253Y00407333D01*
X00502302Y00406698D01*
X00501875Y00406059D01*
X00500250D01*
Y00406250D01*
X00485750D01*
Y00390250D01*
X00500250D01*
Y00399941D01*
X00501875D01*
X00502302Y00399302D01*
X00503253Y00398667D01*
X00504375Y00398444D01*
X00507125D01*
X00508247Y00398667D01*
X00509198Y00399302D01*
X00509833Y00400253D01*
X00510056Y00401375D01*
Y00404625D01*
X00509833Y00405747D01*
X00509198Y00406698D01*
X00508247Y00407333D01*
X00507509Y00407480D01*
X00507634Y00408750D01*
X00512431D01*
Y00406784D01*
X00512302Y00406698D01*
X00511667Y00405747D01*
X00511444Y00404625D01*
Y00401375D01*
X00511667Y00400253D01*
X00512302Y00399302D01*
X00513253Y00398667D01*
X00514375Y00398444D01*
X00517125D01*
X00518247Y00398667D01*
X00519198Y00399302D01*
X00519833Y00400253D01*
X00520056Y00401375D01*
Y00404625D01*
X00519833Y00405747D01*
X00519569Y00406143D01*
Y00408750D01*
X00524833D01*
Y00400500D01*
X00524998Y00399671D01*
X00525468Y00398968D01*
X00531833Y00392603D01*
Y00338662D01*
X00531280Y00338313D01*
X00530563Y00338037D01*
X00529446Y00338500D01*
X00528054D01*
X00526838Y00337996D01*
X00521527D01*
X00521141Y00338573D01*
X00520190Y00339208D01*
X00519069Y00339431D01*
X00516319D01*
X00515197Y00339208D01*
X00514246Y00338573D01*
X00513610Y00337622D01*
X00513387Y00336500D01*
Y00333250D01*
X00513610Y00332128D01*
X00513704Y00331988D01*
X00514164Y00331000D01*
X00513704Y00330012D01*
X00513610Y00329872D01*
X00513387Y00328750D01*
Y00325500D01*
X00513610Y00324378D01*
X00514246Y00323427D01*
X00515197Y00322792D01*
X00516319Y00322569D01*
X00519069D01*
X00520190Y00322792D01*
X00521141Y00323427D01*
X00521524Y00324000D01*
X00522429Y00323625D01*
X00523821D01*
X00525108Y00324158D01*
X00526092Y00325142D01*
X00526625Y00326429D01*
Y00327821D01*
X00526092Y00329108D01*
X00525108Y00330092D01*
X00523821Y00330625D01*
X00523861Y00331879D01*
X00527139D01*
X00528054Y00331500D01*
X00529446D01*
X00530563Y00331963D01*
X00531280Y00331687D01*
X00531833Y00331338D01*
Y00317505D01*
X00523620Y00309292D01*
X00516755D01*
X00516640Y00309872D01*
X00516546Y00310012D01*
X00516264Y00310618D01*
X00516958Y00311673D01*
X00517679Y00311375D01*
X00519071D01*
X00520358Y00311908D01*
X00521342Y00312892D01*
X00521875Y00314179D01*
Y00315571D01*
X00521342Y00316858D01*
X00520358Y00317842D01*
X00519071Y00318375D01*
X00517679D01*
X00516614Y00317934D01*
X00516431D01*
X00516004Y00318573D01*
X00515053Y00319208D01*
X00513931Y00319431D01*
X00511181D01*
X00510060Y00319208D01*
X00509109Y00318573D01*
X00508473Y00317622D01*
X00508250Y00316500D01*
Y00313250D01*
X00508473Y00312128D01*
X00508567Y00311988D01*
X00509026Y00311000D01*
X00508567Y00310012D01*
X00508473Y00309872D01*
X00508250Y00308750D01*
Y00305500D01*
X00508473Y00304378D01*
X00509109Y00303427D01*
X00510060Y00302792D01*
X00511181Y00302569D01*
X00513931D01*
X00515053Y00302792D01*
X00516004Y00303427D01*
X00516640Y00304378D01*
X00516755Y00304958D01*
X00524517D01*
X00525346Y00305123D01*
X00526049Y00305593D01*
X00535532Y00315075D01*
X00536002Y00315778D01*
X00536167Y00316608D01*
Y00393500D01*
X00536002Y00394329D01*
X00535532Y00395032D01*
X00529167Y00401397D01*
Y00408750D01*
X00554750D01*
Y00429750D01*
D02*
G37*
G36*
X00509069Y00339431D02*
X00506319D01*
X00505197Y00339208D01*
X00504246Y00338573D01*
X00503610Y00337622D01*
X00503399Y00336559D01*
X00488550D01*
X00488255Y00336500D01*
X00479050D01*
Y00325667D01*
X00426897D01*
X00422532Y00330032D01*
X00421829Y00330502D01*
X00421000Y00330667D01*
X00341633D01*
X00340833Y00331467D01*
X00339546Y00332000D01*
X00338154D01*
X00336867Y00331467D01*
X00335883Y00330483D01*
X00335350Y00329196D01*
Y00327804D01*
X00334469Y00326613D01*
X00334117Y00326467D01*
X00333133Y00325483D01*
X00332600Y00324196D01*
Y00322804D01*
X00333133Y00321517D01*
X00334117Y00320533D01*
X00335404Y00320000D01*
X00336796D01*
X00338083Y00320533D01*
X00338883Y00321333D01*
X00420103D01*
X00424468Y00316968D01*
X00425171Y00316498D01*
X00426000Y00316333D01*
X00479050D01*
Y00305500D01*
X00488255D01*
X00488550Y00305441D01*
X00498262D01*
X00498473Y00304378D01*
X00499109Y00303427D01*
X00500060Y00302792D01*
X00501181Y00302569D01*
X00503931D01*
X00505053Y00302792D01*
X00506004Y00303427D01*
X00506640Y00304378D01*
X00506863Y00305500D01*
Y00308750D01*
X00506640Y00309872D01*
X00506546Y00310012D01*
X00506087Y00311000D01*
X00506546Y00311988D01*
X00506640Y00312128D01*
X00506863Y00313250D01*
Y00316500D01*
X00506640Y00317622D01*
X00506004Y00318573D01*
X00505053Y00319208D01*
X00503931Y00319431D01*
X00501181D01*
X00500060Y00319208D01*
X00499320Y00318714D01*
X00498535Y00318953D01*
X00498050Y00319274D01*
Y00325441D01*
X00503399D01*
X00503610Y00324378D01*
X00504246Y00323427D01*
X00505197Y00322792D01*
X00506319Y00322569D01*
X00509069D01*
X00510190Y00322792D01*
X00511141Y00323427D01*
X00511777Y00324378D01*
X00512000Y00325500D01*
Y00328750D01*
X00511777Y00329872D01*
X00511683Y00330012D01*
X00511224Y00331000D01*
X00511683Y00331988D01*
X00511777Y00332128D01*
X00512000Y00333250D01*
Y00336500D01*
X00511777Y00337622D01*
X00511141Y00338573D01*
X00510190Y00339208D01*
X00509069Y00339431D01*
D02*
G37*
%LPD*%
G36*
X00531967Y00560063D02*
X00531884Y00560047D01*
X00531592Y00559852D01*
X00531267Y00559717D01*
X00531019Y00559469D01*
X00530727Y00559273D01*
X00530531Y00558981D01*
X00530283Y00558733D01*
X00530148Y00558408D01*
X00529953Y00558116D01*
X00529884Y00557771D01*
X00529750Y00557446D01*
Y00557095D01*
X00529681Y00556750D01*
X00529750Y00556405D01*
Y00556054D01*
X00529884Y00555729D01*
X00529953Y00555384D01*
X00530148Y00555092D01*
X00530283Y00554767D01*
X00530531Y00554519D01*
X00530727Y00554227D01*
X00531019Y00554031D01*
X00531267Y00553783D01*
X00531592Y00553648D01*
X00531884Y00553453D01*
X00532229Y00553385D01*
X00532554Y00553250D01*
X00532905D01*
X00533250Y00553181D01*
X00535466D01*
X00535552Y00553052D01*
X00536503Y00552417D01*
X00537625Y00552194D01*
X00540375D01*
X00541497Y00552417D01*
X00542448Y00553052D01*
X00543083Y00554003D01*
X00543306Y00555125D01*
Y00556433D01*
X00544576Y00557112D01*
X00544694Y00557034D01*
Y00555125D01*
X00544917Y00554003D01*
X00545552Y00553052D01*
X00546503Y00552417D01*
X00546833Y00552351D01*
Y00549750D01*
X00508569D01*
Y00552381D01*
X00508663Y00552444D01*
X00509326Y00553436D01*
X00509559Y00554607D01*
Y00557607D01*
X00509326Y00558777D01*
X00508663Y00559770D01*
X00508223Y00560063D01*
X00508608Y00561333D01*
X00531842D01*
X00531967Y00560063D01*
D02*
G37*
G36*
X00475125Y00500375D02*
Y00489250D01*
Y00465250D01*
X00473952Y00466423D01*
X00451125Y00489250D01*
X00453875Y00492000D01*
X00454375D01*
Y00492500D01*
X00456875Y00495000D01*
Y00506830D01*
X00457628Y00507583D01*
X00467917D01*
X00475125Y00500375D01*
D02*
G37*
G36*
X00602380Y00399750D02*
X00590505D01*
X00587736Y00396981D01*
X00587352Y00396822D01*
X00587193Y00396438D01*
X00585259Y00394504D01*
X00574000D01*
Y00405250D01*
X00602380D01*
Y00399750D01*
D02*
G37*
G36*
X00610001Y00389500D02*
X00598750D01*
Y00380500D01*
X00588500D01*
Y00395674D01*
X00610001D01*
Y00389500D01*
D02*
G37*
D11*
X00631200Y00383950D02*
X00640750D01*
X00623000Y00526000D02*
Y00539250D01*
Y00555750D01*
X00640750Y00393950D02*
Y00399500D01*
D16*
X00639500Y00310250D02*
D03*
Y00297750D02*
D03*
D17*
X00641850Y00304000D02*
D03*
X00637150D02*
D03*
D18*
X00494000Y00539250D02*
D03*
X00505000D02*
D03*
X00516000D02*
D03*
X00527000D02*
D03*
X00538000D02*
D03*
X00590000D02*
D03*
X00601000D02*
D03*
X00612000D02*
D03*
X00623000D02*
D03*
X00634000Y00419250D02*
D03*
Y00539250D02*
D03*
X00623000Y00419250D02*
D03*
X00612000D02*
D03*
X00601000D02*
D03*
X00590000D02*
D03*
X00538000D02*
D03*
X00527000D02*
D03*
X00516000D02*
D03*
X00505000D02*
D03*
X00494000D02*
D03*
X00549000D02*
D03*
X00560000D02*
D03*
X00549000Y00539250D02*
D03*
X00560000D02*
D03*
D19*
X00493000Y00398250D02*
D03*
X00470500D02*
D03*
D20*
X00640750Y00383950D02*
D03*
Y00393950D02*
D03*
X00590750Y00392250D02*
D03*
Y00402250D02*
D03*
X00598750D02*
D03*
Y00392250D02*
D03*
X00567749Y00402250D02*
D03*
Y00392250D02*
D03*
X00460375Y00514000D02*
D03*
Y00504000D02*
D03*
D21*
X00578750Y00399250D02*
D03*
Y00384250D02*
D03*
D22*
X00607000Y00402250D02*
D03*
X00607001Y00392598D02*
D03*
X00451374Y00513826D02*
D03*
X00451375Y00504174D02*
D03*
X00442499Y00513826D02*
D03*
X00442500Y00504174D02*
D03*
X00458999Y00542402D02*
D03*
X00459000Y00532750D02*
D03*
D23*
X00596000Y00383500D02*
D03*
X00606000D02*
D03*
X00623000Y00555750D02*
D03*
X00633000D02*
D03*
X00502556Y00307125D02*
D03*
X00512556D02*
D03*
X00502556Y00314875D02*
D03*
X00512556D02*
D03*
X00539000Y00556750D02*
D03*
X00549000D02*
D03*
X00570000D02*
D03*
X00560000D02*
D03*
X00507694Y00334875D02*
D03*
X00517694D02*
D03*
X00515750Y00403000D02*
D03*
X00505750D02*
D03*
X00517694Y00327125D02*
D03*
X00507694D02*
D03*
D24*
X00637750Y00447750D02*
D03*
X00608250D02*
D03*
D25*
X00623000Y00432500D02*
D03*
D26*
X00628348Y00318749D02*
D03*
Y00344249D02*
D03*
X00514652Y00556107D02*
D03*
X00505000Y00556107D02*
D03*
D27*
X00638000Y00318750D02*
D03*
Y00344250D02*
D03*
D28*
X00614800Y00364150D02*
D03*
Y00383950D02*
D03*
Y00374050D02*
D03*
Y00403750D02*
D03*
Y00390350D02*
D03*
X00623000Y00364150D02*
D03*
X00631200D02*
D03*
Y00383950D02*
D03*
X00623000Y00403750D02*
D03*
X00631200Y00390350D02*
D03*
Y00374050D02*
D03*
Y00403750D02*
D03*
D29*
X00454625Y00443750D02*
D03*
D30*
X00638000Y00326499D02*
D03*
Y00336499D02*
D03*
D31*
X00468750Y00369970D02*
D03*
Y00292030D02*
D03*
D32*
X00488550Y00353500D02*
D03*
Y00348500D02*
D03*
Y00343500D02*
D03*
Y00338500D02*
D03*
Y00333500D02*
D03*
Y00328500D02*
D03*
Y00323500D02*
D03*
Y00318500D02*
D03*
Y00313500D02*
D03*
Y00308500D02*
D03*
D33*
X00460375Y00496000D02*
D03*
X00449375D02*
D03*
D34*
X00638000Y00344250D02*
G03*
X00627000Y00355250I-00011000J00000000D01*
G01*
X00614800Y00364150D02*
G03*
X00623700Y00355250I00008900J00000000D01*
G01*
X00599250Y00417500D02*
X00601000Y00419250D01*
X00599250Y00402500D02*
Y00417500D01*
X00599000Y00402250D02*
X00599250Y00402500D01*
X00598750Y00402250D02*
X00599000D01*
X00623000Y00419250D02*
Y00432500D01*
X00638000Y00336499D02*
Y00344250D01*
X00623700Y00355250D02*
X00627000D01*
X00623000Y00403750D02*
Y00419250D01*
X00436674Y00504174D02*
X00442500D01*
X00451375D01*
X00504500Y00514000D02*
X00516000Y00525500D01*
Y00539250D01*
X00460375Y00514000D02*
X00504500D01*
X00451374Y00513826D02*
X00451374Y00513826D01*
X00442499Y00513826D02*
X00451374D01*
X00451461Y00513913D02*
X00460288D01*
X00451374Y00513826D02*
X00451461Y00513913D01*
X00460288D02*
X00460375Y00514000D01*
X00638000Y00318750D02*
Y00326499D01*
Y00311500D02*
Y00318750D01*
D57*
X00469125Y00483250D02*
D03*
D58*
X00576750Y00419250D02*
X00590000D01*
X00567749Y00410249D02*
X00576750Y00419250D01*
X00567749Y00402250D02*
Y00410249D01*
X00490034Y00567500D02*
X00549500D01*
X00474784Y00552250D02*
X00490034Y00567500D01*
X00527000Y00524250D02*
Y00539250D01*
X00538000Y00524250D02*
Y00539250D01*
X00524517Y00307125D02*
X00534000Y00316608D01*
X00527000Y00400500D02*
Y00419250D01*
Y00400500D02*
X00534000Y00393500D01*
Y00316608D02*
Y00393500D01*
X00426000Y00323500D02*
X00488550D01*
X00421000Y00328500D02*
X00426000Y00323500D01*
X00338850Y00328500D02*
X00421000D01*
X00336100Y00323500D02*
X00421000D01*
X00426000Y00318500D01*
X00488550D01*
X00512556Y00307125D02*
X00524517D01*
X00492534Y00563500D02*
X00542500D01*
X00474784Y00545750D02*
X00492534Y00563500D01*
X00560000Y00556750D02*
Y00557000D01*
X00549500Y00567500D02*
X00560000Y00557000D01*
X00549000Y00556750D02*
Y00557000D01*
X00542500Y00563500D02*
X00549000Y00557000D01*
Y00539250D02*
Y00556750D01*
X00560000Y00539250D02*
Y00556750D01*
D59*
X00608250Y00447750D02*
Y00461500D01*
X00634000Y00419250D02*
Y00431500D01*
X00612000Y00419250D02*
Y00431500D01*
X00567749Y00386048D02*
Y00392298D01*
X00560000Y00419250D02*
Y00433000D01*
X00606000Y00383950D02*
X00614800D01*
X00579652Y00375957D02*
Y00384254D01*
X00449999Y00542402D02*
X00458999D01*
X00634000Y00526750D02*
Y00539250D01*
X00633000Y00555750D02*
Y00562250D01*
X00494000Y00525250D02*
Y00539250D01*
X00505000D02*
Y00556107D01*
X00514652Y00556107D02*
X00520393D01*
X00442000Y00496000D02*
X00449375D01*
X00459500Y00398250D02*
X00470500D01*
X00516000Y00403000D02*
Y00419250D01*
X00515750Y00403000D02*
X00516000D01*
X00450000Y00532750D02*
X00459000D01*
X00570000Y00556750D02*
Y00562250D01*
X00533250Y00556750D02*
X00539000D01*
D60*
X00606000Y00383500D02*
Y00383950D01*
X00517694Y00334875D02*
X00517756Y00334938D01*
X00528688D02*
X00528750Y00335000D01*
X00517756Y00334938D02*
X00528688D01*
X00517694Y00327125D02*
X00523125D01*
X00512556Y00314875D02*
X00518375D01*
X00501306Y00308500D02*
X00502556Y00307250D01*
X00488550Y00308500D02*
X00501306D01*
X00502556Y00307125D02*
Y00307250D01*
X00501306Y00313500D02*
X00502556Y00314750D01*
X00488550Y00313500D02*
X00501306D01*
X00502556Y00314750D02*
Y00314875D01*
X00493000Y00398750D02*
X00497250Y00403000D01*
X00505750D01*
X00493000Y00398250D02*
Y00398750D01*
X00488550Y00333500D02*
X00507694D01*
Y00334875D01*
X00488550Y00328500D02*
X00507694D01*
Y00327125D02*
Y00328500D01*
X00488550Y00338500D02*
X00500250D01*
X00488550Y00353500D02*
X00503000D01*
X00488550Y00343500D02*
X00503000D01*
X00488550Y00348500D02*
X00500250D01*
D61*
X00285000Y00446500D02*
D03*
Y00416500D02*
D03*
Y00386500D02*
D03*
D62*
X00378000Y00558000D02*
D03*
X00348000D02*
D03*
D63*
X00608250Y00461500D02*
D03*
X00634000Y00431500D02*
D03*
X00612000D02*
D03*
X00629400Y00374050D02*
D03*
X00623000D02*
D03*
Y00383950D02*
D03*
X00629400Y00392050D02*
D03*
X00616600D02*
D03*
X00608165Y00364360D02*
D03*
X00609300Y00358469D02*
D03*
X00612498Y00353392D02*
D03*
X00617440Y00349989D02*
D03*
X00623280Y00348616D02*
D03*
X00631406Y00336333D02*
D03*
X00631232Y00330459D02*
D03*
X00631373Y00324647D02*
D03*
X00644627Y00320409D02*
D03*
Y00326409D02*
D03*
X00644613Y00331852D02*
D03*
X00644627Y00337916D02*
D03*
X00644628Y00343916D02*
D03*
X00643709Y00349845D02*
D03*
X00640826Y00355107D02*
D03*
X00636420Y00359179D02*
D03*
X00567749Y00386048D02*
D03*
X00560000Y00433000D02*
D03*
X00623000Y00526000D02*
D03*
X00640750Y00399500D02*
D03*
X00579652Y00375957D02*
D03*
X00331500Y00431701D02*
D03*
X00382498Y00493249D02*
D03*
X00403300Y00493500D02*
D03*
X00415000Y00552250D02*
D03*
Y00545750D02*
D03*
Y00539250D02*
D03*
Y00532750D02*
D03*
X00449999Y00542402D02*
D03*
X00634000Y00526750D02*
D03*
X00633000Y00562250D02*
D03*
X00494000Y00525250D02*
D03*
X00505000Y00550366D02*
D03*
X00520393Y00556107D02*
D03*
X00464626Y00438749D02*
D03*
X00454625D02*
D03*
X00444624D02*
D03*
Y00448750D02*
D03*
X00454625D02*
D03*
X00464626D02*
D03*
X00309950Y00338500D02*
D03*
X00312700Y00333500D02*
D03*
Y00343500D02*
D03*
X00309950Y00348500D02*
D03*
X00436674Y00504174D02*
D03*
X00442000Y00496000D02*
D03*
X00528750Y00335000D02*
D03*
X00527000Y00524250D02*
D03*
X00538000D02*
D03*
X00523125Y00327125D02*
D03*
X00375250Y00430500D02*
D03*
Y00420500D02*
D03*
Y00410500D02*
D03*
Y00400500D02*
D03*
Y00390500D02*
D03*
X00365250D02*
D03*
Y00400500D02*
D03*
Y00410500D02*
D03*
X00355250D02*
D03*
Y00400500D02*
D03*
Y00390500D02*
D03*
X00345250D02*
D03*
Y00400500D02*
D03*
Y00410500D02*
D03*
Y00420500D02*
D03*
Y00430500D02*
D03*
X00459500Y00398250D02*
D03*
X00338850Y00328500D02*
D03*
X00336100Y00323500D02*
D03*
X00518375Y00314875D02*
D03*
X00304548Y00483248D02*
D03*
Y00493249D02*
D03*
Y00503250D02*
D03*
X00500250Y00338500D02*
D03*
X00503000Y00353500D02*
D03*
Y00343500D02*
D03*
X00500250Y00348500D02*
D03*
X00450000Y00532750D02*
D03*
X00649451Y00318552D02*
D03*
Y00336405D02*
D03*
Y00324503D02*
D03*
Y00330454D02*
D03*
Y00354258D02*
D03*
Y00342356D02*
D03*
Y00348307D02*
D03*
X00570000Y00562250D02*
D03*
X00533250Y00556750D02*
D03*
X00474784Y00552250D02*
D03*
Y00545750D02*
D03*
X00617972Y00318552D02*
D03*
X00611798D02*
D03*
X00605624D02*
D03*
X00611750Y00260000D02*
D03*
X00617833D02*
D03*
X00623917D02*
D03*
X00630000D02*
D03*
X00636083D02*
D03*
X00642167D02*
D03*
X00648250D02*
D03*
X00648250Y00266300D02*
D03*
Y00272600D02*
D03*
Y00278900D02*
D03*
Y00285200D02*
D03*
Y00291500D02*
D03*
X00649451Y00568500D02*
D03*
Y00556597D02*
D03*
Y00544695D02*
D03*
Y00550646D02*
D03*
Y00532793D02*
D03*
Y00538744D02*
D03*
Y00520891D02*
D03*
Y00526842D02*
D03*
Y00562548D02*
D03*
Y00514939D02*
D03*
Y00366161D02*
D03*
Y00360210D02*
D03*
Y00401868D02*
D03*
Y00395916D02*
D03*
Y00407819D02*
D03*
Y00378063D02*
D03*
Y00372112D02*
D03*
Y00389965D02*
D03*
Y00384014D02*
D03*
Y00437575D02*
D03*
Y00443526D02*
D03*
Y00419721D02*
D03*
Y00413770D02*
D03*
Y00431623D02*
D03*
Y00425672D02*
D03*
Y00479232D02*
D03*
Y00473281D02*
D03*
Y00491135D02*
D03*
Y00485184D02*
D03*
Y00455428D02*
D03*
Y00449477D02*
D03*
Y00467330D02*
D03*
Y00461379D02*
D03*
Y00503037D02*
D03*
Y00497086D02*
D03*
Y00508988D02*
D03*
X00599451Y00318552D02*
D03*
Y00312378D02*
D03*
Y00306397D02*
D03*
Y00276494D02*
D03*
Y00282474D02*
D03*
Y00270513D02*
D03*
Y00288455D02*
D03*
Y00264532D02*
D03*
Y00300416D02*
D03*
Y00294436D02*
D03*
Y00258552D02*
D03*
X00587489Y00258549D02*
D03*
X00593470D02*
D03*
X00649447Y00574451D02*
D03*
X00643524Y00574451D02*
D03*
X00637602D02*
D03*
X00631679D02*
D03*
X00625756D02*
D03*
X00619833D02*
D03*
X00607988D02*
D03*
X00602065D02*
D03*
X00596143D02*
D03*
X00590220D02*
D03*
X00584297D02*
D03*
X00578375D02*
D03*
X00613911D02*
D03*
X00572452D02*
D03*
X00270394D02*
D03*
X00276317D02*
D03*
X00282240D02*
D03*
X00288162D02*
D03*
X00294085D02*
D03*
X00300008D02*
D03*
X00305931D02*
D03*
X00311853D02*
D03*
X00317776D02*
D03*
X00323699D02*
D03*
X00329621D02*
D03*
X00335544D02*
D03*
X00341467D02*
D03*
X00347389D02*
D03*
X00353312D02*
D03*
X00359235D02*
D03*
X00365158D02*
D03*
X00371080D02*
D03*
X00377003D02*
D03*
X00382926D02*
D03*
X00388848D02*
D03*
X00394771D02*
D03*
X00400694D02*
D03*
X00406616D02*
D03*
X00412539D02*
D03*
X00418462D02*
D03*
X00424384D02*
D03*
X00430307D02*
D03*
X00436230D02*
D03*
X00442153D02*
D03*
X00448075D02*
D03*
X00453998D02*
D03*
X00459921D02*
D03*
X00465843D02*
D03*
X00471766D02*
D03*
X00477689D02*
D03*
X00483611D02*
D03*
X00489534D02*
D03*
X00495457D02*
D03*
X00501380D02*
D03*
X00507302D02*
D03*
X00513225D02*
D03*
X00519148D02*
D03*
X00525070D02*
D03*
X00530993D02*
D03*
X00536916D02*
D03*
X00542838D02*
D03*
X00548761D02*
D03*
X00554684D02*
D03*
X00560606D02*
D03*
X00264472D02*
D03*
X00566529D02*
D03*
X00258552Y00264509D02*
D03*
Y00568488D02*
D03*
Y00270470D02*
D03*
Y00276430D02*
D03*
Y00282390D02*
D03*
Y00288351D02*
D03*
Y00294311D02*
D03*
Y00300271D02*
D03*
Y00306232D02*
D03*
Y00312192D02*
D03*
Y00318153D02*
D03*
Y00324113D02*
D03*
Y00330073D02*
D03*
Y00336034D02*
D03*
Y00341994D02*
D03*
Y00347954D02*
D03*
Y00353915D02*
D03*
Y00359875D02*
D03*
Y00365835D02*
D03*
Y00371796D02*
D03*
Y00377756D02*
D03*
Y00383717D02*
D03*
Y00389677D02*
D03*
Y00395637D02*
D03*
Y00401598D02*
D03*
Y00407558D02*
D03*
Y00413518D02*
D03*
Y00419479D02*
D03*
Y00425439D02*
D03*
Y00431399D02*
D03*
Y00437360D02*
D03*
Y00443320D02*
D03*
Y00449281D02*
D03*
Y00455241D02*
D03*
Y00461201D02*
D03*
Y00467162D02*
D03*
Y00473122D02*
D03*
Y00479082D02*
D03*
Y00485043D02*
D03*
Y00491003D02*
D03*
Y00496964D02*
D03*
Y00502924D02*
D03*
Y00508884D02*
D03*
Y00514845D02*
D03*
Y00520805D02*
D03*
Y00526765D02*
D03*
Y00532726D02*
D03*
Y00538686D02*
D03*
Y00544646D02*
D03*
Y00550607D02*
D03*
Y00556567D02*
D03*
Y00562528D02*
D03*
X00258549Y00574448D02*
D03*
X00264532Y00258549D02*
D03*
X00276494D02*
D03*
X00270513D02*
D03*
X00312378D02*
D03*
X00306397D02*
D03*
X00324339D02*
D03*
X00318358D02*
D03*
X00288455D02*
D03*
X00282474D02*
D03*
X00300416D02*
D03*
X00294436D02*
D03*
X00348262D02*
D03*
X00342281D02*
D03*
X00360223D02*
D03*
X00354243D02*
D03*
X00330320D02*
D03*
X00336301D02*
D03*
X00390127D02*
D03*
X00384146D02*
D03*
X00402088D02*
D03*
X00396107D02*
D03*
X00366204D02*
D03*
X00378165D02*
D03*
X00372185D02*
D03*
X00426011D02*
D03*
X00420030D02*
D03*
X00437972D02*
D03*
X00431991D02*
D03*
X00414049D02*
D03*
X00408069D02*
D03*
X00467876D02*
D03*
X00449934D02*
D03*
X00443953D02*
D03*
X00461895D02*
D03*
X00455914D02*
D03*
X00521702D02*
D03*
X00515721D02*
D03*
X00533663D02*
D03*
X00527682D02*
D03*
X00497779D02*
D03*
X00491798D02*
D03*
X00509740D02*
D03*
X00503760D02*
D03*
X00557586D02*
D03*
X00551605D02*
D03*
X00581508D02*
D03*
X00563567D02*
D03*
X00545624D02*
D03*
X00539644D02*
D03*
X00485818D02*
D03*
X00473856D02*
D03*
X00479837D02*
D03*
X00575528D02*
D03*
X00569547D02*
D03*
X00258552D02*
D03*
M02*
