G04*
G04 #@! TF.GenerationSoftware,Altium Limited,Altium Designer,23.3.1 (30)*
G04*
G04 Layer_Color=65535*
%FSAX44Y44*%
%MOMM*%
G71*
G04*
G04 #@! TF.SameCoordinates,894D68D6-B316-49F2-8977-02A2DC980D77*
G04*
G04*
G04 #@! TF.FilePolarity,Positive*
G04*
G01*
G75*
%ADD10C,0.0000*%
%ADD11C,0.2540*%
%ADD12C,0.1016*%
%ADD13C,0.1270*%
%ADD14C,0.1500*%
%ADD15C,0.1300*%
G36*
X00473073Y00516635D02*
X00473263Y00516620D01*
X00473497Y00516591D01*
X00473731Y00516547D01*
X00473980Y00516488D01*
X00474214Y00516401D01*
X00474229D01*
X00474243Y00516386D01*
X00474316Y00516357D01*
X00474434Y00516298D01*
X00474565Y00516240D01*
X00474711Y00516137D01*
X00474872Y00516035D01*
X00475019Y00515903D01*
X00475136Y00515757D01*
X00475150Y00515742D01*
X00475180Y00515684D01*
X00475238Y00515596D01*
X00475311Y00515479D01*
X00475370Y00515333D01*
X00475443Y00515143D01*
X00475502Y00514938D01*
X00475560Y00514703D01*
X00474404Y00514543D01*
Y00514572D01*
X00474390Y00514630D01*
X00474360Y00514733D01*
X00474316Y00514850D01*
X00474258Y00514981D01*
X00474170Y00515113D01*
X00474068Y00515260D01*
X00473936Y00515377D01*
X00473921Y00515391D01*
X00473863Y00515420D01*
X00473775Y00515479D01*
X00473658Y00515537D01*
X00473512Y00515581D01*
X00473322Y00515640D01*
X00473117Y00515669D01*
X00472868Y00515684D01*
X00472736D01*
X00472590Y00515669D01*
X00472415Y00515654D01*
X00472224Y00515611D01*
X00472034Y00515567D01*
X00471844Y00515494D01*
X00471698Y00515406D01*
X00471683Y00515391D01*
X00471639Y00515362D01*
X00471595Y00515303D01*
X00471537Y00515230D01*
X00471464Y00515143D01*
X00471420Y00515025D01*
X00471376Y00514908D01*
X00471361Y00514777D01*
Y00514762D01*
Y00514733D01*
X00471376Y00514689D01*
Y00514630D01*
X00471420Y00514499D01*
X00471493Y00514352D01*
X00471507Y00514338D01*
X00471522Y00514323D01*
X00471610Y00514250D01*
X00471668Y00514192D01*
X00471741Y00514148D01*
X00471844Y00514089D01*
X00471946Y00514045D01*
X00471961D01*
X00471990Y00514030D01*
X00472049Y00514016D01*
X00472151Y00513987D01*
X00472283Y00513943D01*
X00472473Y00513884D01*
X00472707Y00513826D01*
X00472839Y00513782D01*
X00473000Y00513738D01*
X00473014D01*
X00473058Y00513723D01*
X00473117Y00513709D01*
X00473204Y00513679D01*
X00473307Y00513650D01*
X00473424Y00513621D01*
X00473687Y00513548D01*
X00473980Y00513460D01*
X00474273Y00513358D01*
X00474536Y00513270D01*
X00474653Y00513226D01*
X00474755Y00513182D01*
X00474785Y00513167D01*
X00474843Y00513138D01*
X00474931Y00513094D01*
X00475033Y00513036D01*
X00475165Y00512948D01*
X00475297Y00512831D01*
X00475414Y00512714D01*
X00475531Y00512567D01*
X00475545Y00512553D01*
X00475575Y00512494D01*
X00475619Y00512407D01*
X00475677Y00512290D01*
X00475736Y00512143D01*
X00475779Y00511968D01*
X00475809Y00511777D01*
X00475823Y00511558D01*
Y00511529D01*
Y00511456D01*
X00475809Y00511339D01*
X00475779Y00511207D01*
X00475736Y00511031D01*
X00475677Y00510841D01*
X00475589Y00510651D01*
X00475472Y00510446D01*
X00475458Y00510417D01*
X00475414Y00510358D01*
X00475326Y00510271D01*
X00475209Y00510154D01*
X00475077Y00510022D01*
X00474902Y00509890D01*
X00474697Y00509758D01*
X00474463Y00509641D01*
X00474434Y00509627D01*
X00474346Y00509598D01*
X00474214Y00509554D01*
X00474039Y00509510D01*
X00473819Y00509451D01*
X00473570Y00509407D01*
X00473292Y00509378D01*
X00473000Y00509363D01*
X00472868D01*
X00472780Y00509378D01*
X00472663D01*
X00472532Y00509393D01*
X00472224Y00509437D01*
X00471888Y00509495D01*
X00471551Y00509598D01*
X00471215Y00509729D01*
X00471068Y00509817D01*
X00470922Y00509919D01*
X00470908D01*
X00470893Y00509949D01*
X00470805Y00510022D01*
X00470688Y00510154D01*
X00470542Y00510344D01*
X00470396Y00510578D01*
X00470249Y00510870D01*
X00470117Y00511207D01*
X00470030Y00511602D01*
X00471200Y00511792D01*
Y00511777D01*
Y00511763D01*
X00471215Y00511675D01*
X00471259Y00511543D01*
X00471303Y00511382D01*
X00471376Y00511207D01*
X00471464Y00511031D01*
X00471595Y00510856D01*
X00471741Y00510695D01*
X00471756Y00510680D01*
X00471829Y00510636D01*
X00471932Y00510578D01*
X00472063Y00510519D01*
X00472254Y00510446D01*
X00472458Y00510388D01*
X00472722Y00510344D01*
X00473000Y00510329D01*
X00473131D01*
X00473278Y00510344D01*
X00473453Y00510373D01*
X00473658Y00510402D01*
X00473863Y00510461D01*
X00474053Y00510549D01*
X00474214Y00510651D01*
X00474229Y00510666D01*
X00474273Y00510709D01*
X00474346Y00510783D01*
X00474419Y00510870D01*
X00474477Y00510987D01*
X00474551Y00511134D01*
X00474594Y00511280D01*
X00474609Y00511441D01*
Y00511456D01*
Y00511514D01*
X00474594Y00511573D01*
X00474565Y00511675D01*
X00474521Y00511763D01*
X00474463Y00511880D01*
X00474375Y00511982D01*
X00474258Y00512070D01*
X00474243Y00512085D01*
X00474199Y00512099D01*
X00474126Y00512129D01*
X00474009Y00512187D01*
X00473848Y00512231D01*
X00473643Y00512304D01*
X00473512Y00512348D01*
X00473380Y00512377D01*
X00473219Y00512421D01*
X00473044Y00512465D01*
X00473029D01*
X00472985Y00512480D01*
X00472927Y00512494D01*
X00472839Y00512524D01*
X00472722Y00512553D01*
X00472605Y00512582D01*
X00472327Y00512670D01*
X00472034Y00512758D01*
X00471727Y00512845D01*
X00471449Y00512948D01*
X00471332Y00512992D01*
X00471229Y00513036D01*
X00471215Y00513050D01*
X00471142Y00513080D01*
X00471054Y00513138D01*
X00470951Y00513211D01*
X00470820Y00513299D01*
X00470703Y00513416D01*
X00470571Y00513548D01*
X00470469Y00513694D01*
X00470454Y00513709D01*
X00470425Y00513767D01*
X00470396Y00513855D01*
X00470352Y00513972D01*
X00470293Y00514104D01*
X00470264Y00514265D01*
X00470235Y00514440D01*
X00470220Y00514630D01*
Y00514645D01*
Y00514703D01*
X00470235Y00514806D01*
X00470249Y00514908D01*
X00470264Y00515040D01*
X00470308Y00515186D01*
X00470352Y00515347D01*
X00470425Y00515494D01*
X00470439Y00515508D01*
X00470469Y00515567D01*
X00470513Y00515640D01*
X00470586Y00515728D01*
X00470659Y00515830D01*
X00470761Y00515933D01*
X00470878Y00516049D01*
X00471010Y00516152D01*
X00471025Y00516167D01*
X00471068Y00516181D01*
X00471127Y00516225D01*
X00471215Y00516269D01*
X00471317Y00516328D01*
X00471449Y00516386D01*
X00471595Y00516445D01*
X00471756Y00516503D01*
X00471785D01*
X00471844Y00516532D01*
X00471932Y00516547D01*
X00472063Y00516576D01*
X00472224Y00516605D01*
X00472385Y00516620D01*
X00472575Y00516649D01*
X00472912D01*
X00473073Y00516635D01*
D02*
G37*
G36*
X00465670Y00509524D02*
X00464617D01*
Y00510534D01*
X00464602Y00510519D01*
X00464573Y00510490D01*
X00464529Y00510432D01*
X00464470Y00510358D01*
X00464382Y00510256D01*
X00464280Y00510168D01*
X00464163Y00510051D01*
X00464031Y00509949D01*
X00463885Y00509846D01*
X00463724Y00509729D01*
X00463534Y00509641D01*
X00463344Y00509554D01*
X00463124Y00509466D01*
X00462905Y00509407D01*
X00462656Y00509378D01*
X00462407Y00509363D01*
X00462305D01*
X00462188Y00509378D01*
X00462027Y00509393D01*
X00461851Y00509422D01*
X00461661Y00509466D01*
X00461456Y00509524D01*
X00461251Y00509598D01*
X00461222Y00509612D01*
X00461164Y00509641D01*
X00461076Y00509685D01*
X00460959Y00509758D01*
X00460827Y00509846D01*
X00460695Y00509949D01*
X00460578Y00510051D01*
X00460462Y00510183D01*
X00460447Y00510197D01*
X00460418Y00510241D01*
X00460374Y00510329D01*
X00460330Y00510432D01*
X00460257Y00510563D01*
X00460198Y00510709D01*
X00460140Y00510870D01*
X00460096Y00511061D01*
Y00511075D01*
X00460081Y00511134D01*
Y00511207D01*
X00460066Y00511324D01*
X00460052Y00511485D01*
Y00511675D01*
X00460037Y00511894D01*
Y00512158D01*
Y00516488D01*
X00461222D01*
Y00512611D01*
Y00512597D01*
Y00512567D01*
Y00512524D01*
Y00512465D01*
Y00512304D01*
X00461237Y00512114D01*
Y00511909D01*
X00461251Y00511704D01*
X00461266Y00511514D01*
X00461281Y00511368D01*
Y00511353D01*
X00461310Y00511295D01*
X00461339Y00511207D01*
X00461383Y00511105D01*
X00461442Y00510987D01*
X00461530Y00510856D01*
X00461632Y00510739D01*
X00461749Y00510636D01*
X00461764Y00510622D01*
X00461822Y00510592D01*
X00461895Y00510549D01*
X00461998Y00510505D01*
X00462129Y00510461D01*
X00462276Y00510417D01*
X00462451Y00510388D01*
X00462641Y00510373D01*
X00462729D01*
X00462832Y00510388D01*
X00462963Y00510402D01*
X00463110Y00510432D01*
X00463270Y00510490D01*
X00463446Y00510549D01*
X00463622Y00510636D01*
X00463636Y00510651D01*
X00463695Y00510695D01*
X00463783Y00510753D01*
X00463885Y00510841D01*
X00463987Y00510943D01*
X00464104Y00511075D01*
X00464192Y00511222D01*
X00464280Y00511382D01*
X00464295Y00511412D01*
X00464309Y00511470D01*
X00464338Y00511573D01*
X00464382Y00511734D01*
X00464426Y00511924D01*
X00464456Y00512158D01*
X00464470Y00512436D01*
X00464485Y00512743D01*
Y00516488D01*
X00465670D01*
Y00509524D01*
D02*
G37*
G36*
X00468684D02*
X00467499D01*
Y00519137D01*
X00468684D01*
Y00509524D01*
D02*
G37*
G36*
X00455414Y00519122D02*
X00455648Y00519107D01*
X00455897Y00519093D01*
X00456131Y00519063D01*
X00456336Y00519034D01*
X00456365D01*
X00456453Y00519005D01*
X00456584Y00518976D01*
X00456745Y00518932D01*
X00456936Y00518873D01*
X00457126Y00518800D01*
X00457331Y00518698D01*
X00457521Y00518581D01*
X00457535Y00518566D01*
X00457608Y00518522D01*
X00457696Y00518449D01*
X00457799Y00518346D01*
X00457916Y00518215D01*
X00458047Y00518054D01*
X00458179Y00517878D01*
X00458296Y00517659D01*
X00458311Y00517630D01*
X00458340Y00517556D01*
X00458384Y00517439D01*
X00458442Y00517279D01*
X00458501Y00517088D01*
X00458545Y00516869D01*
X00458574Y00516620D01*
X00458589Y00516357D01*
Y00516342D01*
Y00516298D01*
Y00516240D01*
X00458574Y00516152D01*
X00458559Y00516049D01*
X00458545Y00515918D01*
X00458530Y00515786D01*
X00458486Y00515640D01*
X00458399Y00515303D01*
X00458252Y00514967D01*
X00458164Y00514791D01*
X00458062Y00514616D01*
X00457945Y00514440D01*
X00457799Y00514279D01*
X00457784Y00514265D01*
X00457755Y00514250D01*
X00457711Y00514206D01*
X00457652Y00514148D01*
X00457550Y00514089D01*
X00457448Y00514016D01*
X00457316Y00513943D01*
X00457155Y00513870D01*
X00456979Y00513782D01*
X00456775Y00513709D01*
X00456540Y00513635D01*
X00456292Y00513577D01*
X00455999Y00513518D01*
X00455692Y00513475D01*
X00455355Y00513460D01*
X00454990Y00513445D01*
X00452532D01*
Y00509524D01*
X00451259D01*
Y00519137D01*
X00455195D01*
X00455414Y00519122D01*
D02*
G37*
G36*
X00480300Y00516635D02*
X00480417Y00516620D01*
X00480564Y00516605D01*
X00480710Y00516576D01*
X00480886Y00516532D01*
X00481237Y00516415D01*
X00481427Y00516342D01*
X00481617Y00516240D01*
X00481807Y00516137D01*
X00481997Y00516006D01*
X00482173Y00515859D01*
X00482349Y00515684D01*
X00482363Y00515669D01*
X00482392Y00515640D01*
X00482436Y00515581D01*
X00482495Y00515508D01*
X00482553Y00515406D01*
X00482626Y00515289D01*
X00482714Y00515157D01*
X00482802Y00514996D01*
X00482875Y00514806D01*
X00482963Y00514616D01*
X00483036Y00514396D01*
X00483109Y00514148D01*
X00483153Y00513899D01*
X00483197Y00513621D01*
X00483226Y00513328D01*
X00483241Y00513006D01*
Y00512992D01*
Y00512933D01*
Y00512831D01*
X00483226Y00512699D01*
X00478047D01*
Y00512685D01*
Y00512655D01*
X00478062Y00512582D01*
Y00512509D01*
X00478077Y00512407D01*
X00478091Y00512304D01*
X00478150Y00512041D01*
X00478237Y00511763D01*
X00478340Y00511470D01*
X00478501Y00511178D01*
X00478691Y00510929D01*
X00478720Y00510900D01*
X00478793Y00510841D01*
X00478925Y00510739D01*
X00479086Y00510636D01*
X00479305Y00510519D01*
X00479554Y00510417D01*
X00479832Y00510358D01*
X00480139Y00510329D01*
X00480256D01*
X00480373Y00510344D01*
X00480520Y00510373D01*
X00480695Y00510417D01*
X00480886Y00510475D01*
X00481076Y00510549D01*
X00481251Y00510666D01*
X00481266Y00510680D01*
X00481324Y00510739D01*
X00481412Y00510812D01*
X00481515Y00510943D01*
X00481632Y00511090D01*
X00481749Y00511280D01*
X00481866Y00511514D01*
X00481983Y00511777D01*
X00483197Y00511617D01*
Y00511602D01*
X00483182Y00511573D01*
X00483168Y00511514D01*
X00483139Y00511441D01*
X00483109Y00511353D01*
X00483065Y00511251D01*
X00482948Y00511002D01*
X00482802Y00510739D01*
X00482626Y00510461D01*
X00482392Y00510183D01*
X00482129Y00509949D01*
X00482114D01*
X00482100Y00509919D01*
X00482056Y00509890D01*
X00481983Y00509861D01*
X00481910Y00509817D01*
X00481822Y00509758D01*
X00481719Y00509715D01*
X00481588Y00509656D01*
X00481310Y00509554D01*
X00480959Y00509451D01*
X00480578Y00509393D01*
X00480139Y00509363D01*
X00479993D01*
X00479891Y00509378D01*
X00479759Y00509393D01*
X00479613Y00509407D01*
X00479452Y00509437D01*
X00479262Y00509481D01*
X00478881Y00509598D01*
X00478676Y00509671D01*
X00478486Y00509758D01*
X00478281Y00509861D01*
X00478091Y00509993D01*
X00477901Y00510139D01*
X00477725Y00510300D01*
X00477711Y00510314D01*
X00477681Y00510344D01*
X00477638Y00510402D01*
X00477594Y00510475D01*
X00477520Y00510563D01*
X00477447Y00510680D01*
X00477360Y00510826D01*
X00477286Y00510987D01*
X00477199Y00511163D01*
X00477111Y00511353D01*
X00477038Y00511573D01*
X00476979Y00511807D01*
X00476921Y00512055D01*
X00476877Y00512333D01*
X00476847Y00512626D01*
X00476833Y00512933D01*
Y00512948D01*
Y00513006D01*
Y00513109D01*
X00476847Y00513226D01*
X00476862Y00513372D01*
X00476877Y00513548D01*
X00476906Y00513738D01*
X00476950Y00513943D01*
X00477052Y00514382D01*
X00477126Y00514601D01*
X00477213Y00514835D01*
X00477316Y00515055D01*
X00477433Y00515274D01*
X00477564Y00515479D01*
X00477725Y00515669D01*
X00477740Y00515684D01*
X00477769Y00515713D01*
X00477813Y00515757D01*
X00477886Y00515830D01*
X00477974Y00515903D01*
X00478091Y00515976D01*
X00478208Y00516064D01*
X00478354Y00516167D01*
X00478515Y00516254D01*
X00478691Y00516342D01*
X00478881Y00516415D01*
X00479101Y00516503D01*
X00479320Y00516562D01*
X00479554Y00516605D01*
X00479803Y00516635D01*
X00480066Y00516649D01*
X00480198D01*
X00480300Y00516635D01*
D02*
G37*
G36*
X00475432Y00530202D02*
X00475534D01*
X00475783Y00530173D01*
X00476075Y00530129D01*
X00476397Y00530071D01*
X00476719Y00529983D01*
X00477026Y00529866D01*
X00477041D01*
X00477056Y00529851D01*
X00477099Y00529837D01*
X00477158Y00529807D01*
X00477304Y00529720D01*
X00477494Y00529617D01*
X00477699Y00529471D01*
X00477904Y00529295D01*
X00478109Y00529090D01*
X00478284Y00528856D01*
X00478299Y00528827D01*
X00478358Y00528739D01*
X00478431Y00528593D01*
X00478504Y00528418D01*
X00478592Y00528198D01*
X00478680Y00527935D01*
X00478738Y00527657D01*
X00478767Y00527350D01*
X00477553Y00527262D01*
Y00527276D01*
Y00527306D01*
X00477538Y00527350D01*
X00477524Y00527408D01*
X00477494Y00527569D01*
X00477436Y00527774D01*
X00477348Y00527993D01*
X00477231Y00528213D01*
X00477070Y00528432D01*
X00476880Y00528622D01*
X00476851Y00528637D01*
X00476778Y00528695D01*
X00476646Y00528769D01*
X00476470Y00528856D01*
X00476236Y00528944D01*
X00475944Y00529017D01*
X00475607Y00529076D01*
X00475212Y00529090D01*
X00475022D01*
X00474934Y00529076D01*
X00474817D01*
X00474568Y00529032D01*
X00474290Y00528988D01*
X00474012Y00528915D01*
X00473749Y00528812D01*
X00473632Y00528739D01*
X00473530Y00528666D01*
X00473515Y00528652D01*
X00473456Y00528593D01*
X00473369Y00528505D01*
X00473281Y00528374D01*
X00473178Y00528227D01*
X00473105Y00528052D01*
X00473047Y00527862D01*
X00473018Y00527642D01*
Y00527613D01*
Y00527554D01*
X00473032Y00527452D01*
X00473061Y00527335D01*
X00473105Y00527203D01*
X00473178Y00527057D01*
X00473266Y00526925D01*
X00473383Y00526794D01*
X00473398Y00526779D01*
X00473471Y00526735D01*
X00473515Y00526706D01*
X00473573Y00526662D01*
X00473661Y00526633D01*
X00473764Y00526589D01*
X00473881Y00526530D01*
X00474012Y00526472D01*
X00474159Y00526428D01*
X00474334Y00526369D01*
X00474539Y00526296D01*
X00474759Y00526238D01*
X00475007Y00526179D01*
X00475285Y00526106D01*
X00475300D01*
X00475358Y00526091D01*
X00475432Y00526077D01*
X00475534Y00526047D01*
X00475666Y00526018D01*
X00475812Y00525974D01*
X00476134Y00525901D01*
X00476485Y00525799D01*
X00476836Y00525696D01*
X00477012Y00525652D01*
X00477158Y00525594D01*
X00477304Y00525535D01*
X00477421Y00525491D01*
X00477436D01*
X00477465Y00525477D01*
X00477494Y00525448D01*
X00477553Y00525418D01*
X00477699Y00525331D01*
X00477890Y00525228D01*
X00478094Y00525082D01*
X00478299Y00524906D01*
X00478489Y00524716D01*
X00478650Y00524511D01*
X00478665Y00524482D01*
X00478709Y00524409D01*
X00478782Y00524292D01*
X00478855Y00524116D01*
X00478928Y00523926D01*
X00479001Y00523692D01*
X00479045Y00523428D01*
X00479060Y00523150D01*
Y00523136D01*
Y00523121D01*
Y00523077D01*
Y00523019D01*
X00479031Y00522873D01*
X00479001Y00522682D01*
X00478957Y00522463D01*
X00478870Y00522214D01*
X00478767Y00521951D01*
X00478621Y00521702D01*
X00478606Y00521673D01*
X00478533Y00521585D01*
X00478445Y00521468D01*
X00478299Y00521322D01*
X00478124Y00521146D01*
X00477904Y00520971D01*
X00477641Y00520810D01*
X00477348Y00520649D01*
X00477333D01*
X00477304Y00520634D01*
X00477260Y00520620D01*
X00477202Y00520590D01*
X00477129Y00520561D01*
X00477041Y00520532D01*
X00476807Y00520473D01*
X00476544Y00520400D01*
X00476222Y00520341D01*
X00475885Y00520298D01*
X00475505Y00520283D01*
X00475285D01*
X00475183Y00520298D01*
X00475051D01*
X00474905Y00520312D01*
X00474744Y00520327D01*
X00474407Y00520371D01*
X00474042Y00520444D01*
X00473676Y00520532D01*
X00473325Y00520649D01*
X00473310D01*
X00473281Y00520663D01*
X00473237Y00520693D01*
X00473178Y00520722D01*
X00473018Y00520810D01*
X00472827Y00520941D01*
X00472593Y00521102D01*
X00472374Y00521292D01*
X00472140Y00521527D01*
X00471935Y00521790D01*
Y00521805D01*
X00471920Y00521819D01*
X00471891Y00521863D01*
X00471862Y00521922D01*
X00471818Y00521995D01*
X00471774Y00522082D01*
X00471686Y00522302D01*
X00471598Y00522551D01*
X00471511Y00522858D01*
X00471452Y00523180D01*
X00471423Y00523531D01*
X00472622Y00523633D01*
Y00523619D01*
Y00523604D01*
X00472637Y00523516D01*
X00472666Y00523385D01*
X00472696Y00523209D01*
X00472754Y00523019D01*
X00472813Y00522814D01*
X00472901Y00522624D01*
X00473003Y00522434D01*
X00473018Y00522419D01*
X00473061Y00522360D01*
X00473135Y00522273D01*
X00473252Y00522170D01*
X00473383Y00522053D01*
X00473544Y00521922D01*
X00473749Y00521805D01*
X00473969Y00521688D01*
X00473983D01*
X00473998Y00521673D01*
X00474086Y00521644D01*
X00474217Y00521600D01*
X00474407Y00521556D01*
X00474612Y00521497D01*
X00474876Y00521453D01*
X00475154Y00521424D01*
X00475446Y00521409D01*
X00475563D01*
X00475709Y00521424D01*
X00475871Y00521439D01*
X00476075Y00521453D01*
X00476280Y00521497D01*
X00476500Y00521541D01*
X00476719Y00521614D01*
X00476748Y00521629D01*
X00476807Y00521658D01*
X00476909Y00521702D01*
X00477026Y00521775D01*
X00477173Y00521863D01*
X00477304Y00521965D01*
X00477436Y00522082D01*
X00477553Y00522214D01*
X00477568Y00522229D01*
X00477597Y00522287D01*
X00477641Y00522360D01*
X00477699Y00522463D01*
X00477743Y00522580D01*
X00477787Y00522726D01*
X00477816Y00522873D01*
X00477831Y00523033D01*
Y00523048D01*
Y00523107D01*
X00477816Y00523194D01*
X00477802Y00523297D01*
X00477772Y00523428D01*
X00477714Y00523560D01*
X00477655Y00523692D01*
X00477568Y00523824D01*
X00477553Y00523838D01*
X00477524Y00523882D01*
X00477451Y00523941D01*
X00477363Y00524028D01*
X00477246Y00524116D01*
X00477099Y00524204D01*
X00476909Y00524306D01*
X00476704Y00524394D01*
X00476690Y00524409D01*
X00476631Y00524423D01*
X00476514Y00524453D01*
X00476441Y00524482D01*
X00476353Y00524511D01*
X00476236Y00524540D01*
X00476119Y00524570D01*
X00475973Y00524614D01*
X00475827Y00524658D01*
X00475651Y00524701D01*
X00475446Y00524745D01*
X00475227Y00524804D01*
X00474993Y00524862D01*
X00474978D01*
X00474934Y00524877D01*
X00474861Y00524892D01*
X00474773Y00524921D01*
X00474671Y00524950D01*
X00474554Y00524979D01*
X00474276Y00525052D01*
X00473969Y00525155D01*
X00473661Y00525257D01*
X00473383Y00525360D01*
X00473252Y00525404D01*
X00473149Y00525462D01*
X00473135D01*
X00473120Y00525477D01*
X00473032Y00525535D01*
X00472915Y00525608D01*
X00472769Y00525711D01*
X00472593Y00525843D01*
X00472432Y00525989D01*
X00472271Y00526164D01*
X00472125Y00526355D01*
X00472110Y00526384D01*
X00472067Y00526457D01*
X00472023Y00526559D01*
X00471964Y00526706D01*
X00471891Y00526881D01*
X00471847Y00527086D01*
X00471803Y00527320D01*
X00471789Y00527554D01*
Y00527569D01*
Y00527584D01*
Y00527627D01*
Y00527686D01*
X00471818Y00527818D01*
X00471847Y00527993D01*
X00471891Y00528213D01*
X00471964Y00528432D01*
X00472067Y00528681D01*
X00472198Y00528915D01*
Y00528929D01*
X00472213Y00528944D01*
X00472271Y00529017D01*
X00472374Y00529134D01*
X00472505Y00529281D01*
X00472666Y00529427D01*
X00472871Y00529588D01*
X00473120Y00529749D01*
X00473398Y00529880D01*
X00473413D01*
X00473427Y00529895D01*
X00473471Y00529910D01*
X00473544Y00529939D01*
X00473617Y00529954D01*
X00473705Y00529983D01*
X00473910Y00530056D01*
X00474173Y00530115D01*
X00474466Y00530159D01*
X00474803Y00530202D01*
X00475154Y00530217D01*
X00475329D01*
X00475432Y00530202D01*
D02*
G37*
G36*
X00506053Y00520444D02*
X00504941D01*
X00502293Y00527408D01*
X00503537D01*
X00505029Y00523224D01*
X00505043Y00523194D01*
X00505073Y00523107D01*
X00505117Y00522975D01*
X00505175Y00522799D01*
X00505248Y00522595D01*
X00505322Y00522360D01*
X00505409Y00522097D01*
X00505482Y00521834D01*
X00505497Y00521863D01*
X00505512Y00521936D01*
X00505556Y00522053D01*
X00505599Y00522200D01*
X00505658Y00522390D01*
X00505731Y00522624D01*
X00505819Y00522873D01*
X00505921Y00523150D01*
X00507472Y00527408D01*
X00508686D01*
X00506053Y00520444D01*
D02*
G37*
G36*
X00518869D02*
X00517523D01*
Y00521790D01*
X00518869D01*
Y00520444D01*
D02*
G37*
G36*
X00512812Y00530085D02*
X00512929Y00530071D01*
X00513061Y00530056D01*
X00513207Y00530042D01*
X00513368Y00529998D01*
X00513719Y00529910D01*
X00514085Y00529778D01*
X00514275Y00529690D01*
X00514451Y00529588D01*
X00514612Y00529456D01*
X00514773Y00529325D01*
X00514787Y00529310D01*
X00514802Y00529295D01*
X00514846Y00529251D01*
X00514904Y00529193D01*
X00514963Y00529105D01*
X00515036Y00529017D01*
X00515182Y00528798D01*
X00515329Y00528520D01*
X00515460Y00528198D01*
X00515563Y00527832D01*
X00515577Y00527627D01*
X00515592Y00527423D01*
Y00527393D01*
Y00527320D01*
X00515577Y00527203D01*
X00515563Y00527057D01*
X00515533Y00526881D01*
X00515490Y00526691D01*
X00515431Y00526486D01*
X00515343Y00526281D01*
X00515329Y00526252D01*
X00515299Y00526179D01*
X00515241Y00526077D01*
X00515153Y00525930D01*
X00515051Y00525755D01*
X00514919Y00525550D01*
X00514743Y00525345D01*
X00514553Y00525111D01*
X00514524Y00525082D01*
X00514451Y00524994D01*
X00514319Y00524862D01*
X00514231Y00524775D01*
X00514129Y00524672D01*
X00514012Y00524555D01*
X00513866Y00524423D01*
X00513719Y00524292D01*
X00513558Y00524131D01*
X00513383Y00523970D01*
X00513178Y00523794D01*
X00512973Y00523619D01*
X00512739Y00523414D01*
X00512724Y00523399D01*
X00512695Y00523370D01*
X00512637Y00523326D01*
X00512564Y00523268D01*
X00512388Y00523121D01*
X00512169Y00522931D01*
X00511949Y00522726D01*
X00511715Y00522521D01*
X00511525Y00522346D01*
X00511452Y00522273D01*
X00511379Y00522200D01*
X00511364Y00522185D01*
X00511335Y00522141D01*
X00511276Y00522082D01*
X00511203Y00521995D01*
X00511042Y00521805D01*
X00510881Y00521571D01*
X00515607D01*
Y00520444D01*
X00509242D01*
Y00520458D01*
Y00520517D01*
Y00520605D01*
X00509257Y00520707D01*
X00509272Y00520824D01*
X00509286Y00520956D01*
X00509330Y00521102D01*
X00509374Y00521249D01*
Y00521263D01*
X00509389Y00521278D01*
X00509418Y00521366D01*
X00509477Y00521483D01*
X00509564Y00521658D01*
X00509667Y00521848D01*
X00509813Y00522068D01*
X00509959Y00522287D01*
X00510149Y00522521D01*
Y00522536D01*
X00510179Y00522551D01*
X00510252Y00522639D01*
X00510369Y00522770D01*
X00510545Y00522946D01*
X00510764Y00523150D01*
X00511027Y00523399D01*
X00511349Y00523677D01*
X00511700Y00523984D01*
X00511715Y00523999D01*
X00511773Y00524043D01*
X00511847Y00524101D01*
X00511949Y00524204D01*
X00512081Y00524306D01*
X00512227Y00524438D01*
X00512549Y00524716D01*
X00512900Y00525052D01*
X00513251Y00525389D01*
X00513427Y00525550D01*
X00513573Y00525711D01*
X00513705Y00525872D01*
X00513822Y00526018D01*
Y00526033D01*
X00513851Y00526047D01*
X00513880Y00526091D01*
X00513909Y00526150D01*
X00513997Y00526296D01*
X00514100Y00526486D01*
X00514202Y00526706D01*
X00514290Y00526940D01*
X00514348Y00527203D01*
X00514378Y00527452D01*
Y00527467D01*
Y00527481D01*
X00514363Y00527569D01*
X00514348Y00527701D01*
X00514319Y00527862D01*
X00514246Y00528052D01*
X00514158Y00528242D01*
X00514041Y00528447D01*
X00513866Y00528637D01*
X00513836Y00528652D01*
X00513778Y00528710D01*
X00513661Y00528783D01*
X00513515Y00528886D01*
X00513324Y00528973D01*
X00513105Y00529047D01*
X00512841Y00529105D01*
X00512549Y00529120D01*
X00512461D01*
X00512403Y00529105D01*
X00512256Y00529090D01*
X00512066Y00529061D01*
X00511847Y00528988D01*
X00511613Y00528900D01*
X00511393Y00528769D01*
X00511188Y00528593D01*
X00511174Y00528564D01*
X00511115Y00528505D01*
X00511027Y00528388D01*
X00510939Y00528227D01*
X00510837Y00528022D01*
X00510764Y00527788D01*
X00510705Y00527510D01*
X00510676Y00527188D01*
X00509462Y00527320D01*
Y00527335D01*
Y00527379D01*
X00509477Y00527452D01*
X00509491Y00527540D01*
X00509520Y00527657D01*
X00509535Y00527788D01*
X00509623Y00528081D01*
X00509740Y00528418D01*
X00509901Y00528754D01*
X00510120Y00529090D01*
X00510237Y00529237D01*
X00510384Y00529383D01*
X00510398Y00529398D01*
X00510428Y00529412D01*
X00510471Y00529456D01*
X00510530Y00529500D01*
X00510618Y00529544D01*
X00510720Y00529617D01*
X00510837Y00529676D01*
X00510969Y00529749D01*
X00511115Y00529807D01*
X00511276Y00529880D01*
X00511466Y00529939D01*
X00511656Y00529983D01*
X00512095Y00530071D01*
X00512329Y00530085D01*
X00512578Y00530100D01*
X00512710D01*
X00512812Y00530085D01*
D02*
G37*
G36*
X00494349Y00530042D02*
X00494466D01*
X00494758Y00530027D01*
X00495066Y00529998D01*
X00495387Y00529939D01*
X00495695Y00529880D01*
X00495841Y00529837D01*
X00495973Y00529793D01*
X00495987D01*
X00496002Y00529778D01*
X00496090Y00529749D01*
X00496207Y00529676D01*
X00496353Y00529573D01*
X00496529Y00529456D01*
X00496704Y00529295D01*
X00496880Y00529105D01*
X00497041Y00528871D01*
X00497055Y00528842D01*
X00497099Y00528754D01*
X00497172Y00528622D01*
X00497245Y00528447D01*
X00497319Y00528227D01*
X00497392Y00527979D01*
X00497436Y00527715D01*
X00497450Y00527423D01*
Y00527408D01*
Y00527379D01*
Y00527320D01*
X00497436Y00527247D01*
Y00527159D01*
X00497421Y00527057D01*
X00497363Y00526823D01*
X00497289Y00526545D01*
X00497172Y00526267D01*
X00496997Y00525974D01*
X00496894Y00525828D01*
X00496777Y00525696D01*
X00496748Y00525667D01*
X00496704Y00525638D01*
X00496660Y00525579D01*
X00496587Y00525535D01*
X00496499Y00525462D01*
X00496397Y00525404D01*
X00496280Y00525331D01*
X00496148Y00525257D01*
X00495987Y00525184D01*
X00495826Y00525111D01*
X00495636Y00525038D01*
X00495446Y00524965D01*
X00495227Y00524906D01*
X00494992Y00524862D01*
X00494744Y00524818D01*
X00494773Y00524804D01*
X00494832Y00524775D01*
X00494919Y00524731D01*
X00495022Y00524672D01*
X00495270Y00524511D01*
X00495402Y00524423D01*
X00495504Y00524336D01*
X00495534Y00524306D01*
X00495607Y00524248D01*
X00495709Y00524131D01*
X00495841Y00523984D01*
X00496002Y00523794D01*
X00496177Y00523575D01*
X00496368Y00523326D01*
X00496558Y00523048D01*
X00498226Y00520444D01*
X00496631D01*
X00495358Y00522434D01*
Y00522448D01*
X00495329Y00522477D01*
X00495300Y00522521D01*
X00495270Y00522580D01*
X00495168Y00522726D01*
X00495036Y00522916D01*
X00494890Y00523136D01*
X00494729Y00523355D01*
X00494583Y00523560D01*
X00494436Y00523750D01*
X00494422Y00523765D01*
X00494378Y00523824D01*
X00494305Y00523911D01*
X00494232Y00524014D01*
X00494012Y00524219D01*
X00493910Y00524321D01*
X00493793Y00524394D01*
X00493778Y00524409D01*
X00493749Y00524423D01*
X00493690Y00524453D01*
X00493617Y00524496D01*
X00493442Y00524584D01*
X00493222Y00524658D01*
X00493208D01*
X00493178Y00524672D01*
X00493120D01*
X00493047Y00524687D01*
X00492944Y00524701D01*
X00492827D01*
X00492681Y00524716D01*
X00491042D01*
Y00520444D01*
X00489769D01*
Y00530056D01*
X00494232D01*
X00494349Y00530042D01*
D02*
G37*
G36*
X00488716Y00520444D02*
X00487282D01*
X00486170Y00523355D01*
X00482132D01*
X00481093Y00520444D01*
X00479748D01*
X00483420Y00530056D01*
X00484810D01*
X00488716Y00520444D01*
D02*
G37*
G36*
X00467048Y00530042D02*
X00467282Y00530027D01*
X00467531Y00530012D01*
X00467765Y00529983D01*
X00467970Y00529954D01*
X00467999D01*
X00468087Y00529924D01*
X00468219Y00529895D01*
X00468380Y00529851D01*
X00468570Y00529793D01*
X00468760Y00529720D01*
X00468965Y00529617D01*
X00469155Y00529500D01*
X00469170Y00529486D01*
X00469243Y00529442D01*
X00469331Y00529369D01*
X00469433Y00529266D01*
X00469550Y00529134D01*
X00469682Y00528973D01*
X00469813Y00528798D01*
X00469930Y00528578D01*
X00469945Y00528549D01*
X00469974Y00528476D01*
X00470018Y00528359D01*
X00470077Y00528198D01*
X00470135Y00528008D01*
X00470179Y00527788D01*
X00470209Y00527540D01*
X00470223Y00527276D01*
Y00527262D01*
Y00527218D01*
Y00527159D01*
X00470209Y00527071D01*
X00470194Y00526969D01*
X00470179Y00526837D01*
X00470165Y00526706D01*
X00470121Y00526559D01*
X00470033Y00526223D01*
X00469887Y00525886D01*
X00469799Y00525711D01*
X00469696Y00525535D01*
X00469579Y00525360D01*
X00469433Y00525199D01*
X00469418Y00525184D01*
X00469389Y00525169D01*
X00469345Y00525126D01*
X00469287Y00525067D01*
X00469184Y00525009D01*
X00469082Y00524935D01*
X00468950Y00524862D01*
X00468789Y00524789D01*
X00468614Y00524701D01*
X00468409Y00524628D01*
X00468175Y00524555D01*
X00467926Y00524496D01*
X00467634Y00524438D01*
X00467326Y00524394D01*
X00466990Y00524380D01*
X00466624Y00524365D01*
X00464166D01*
Y00520444D01*
X00462893D01*
Y00530056D01*
X00466829D01*
X00467048Y00530042D01*
D02*
G37*
G36*
X00460655Y00520444D02*
X00459382D01*
Y00530056D01*
X00460655D01*
Y00520444D01*
D02*
G37*
G36*
X00452915Y00521571D02*
X00457641D01*
Y00520444D01*
X00451642D01*
Y00530056D01*
X00452915D01*
Y00521571D01*
D02*
G37*
G36*
X00524005Y00530085D02*
X00524180Y00530056D01*
X00524385Y00530027D01*
X00524619Y00529968D01*
X00524853Y00529881D01*
X00525073Y00529778D01*
X00525102Y00529763D01*
X00525175Y00529720D01*
X00525277Y00529646D01*
X00525424Y00529559D01*
X00525570Y00529427D01*
X00525731Y00529266D01*
X00525892Y00529090D01*
X00526038Y00528886D01*
X00526053Y00528856D01*
X00526097Y00528783D01*
X00526170Y00528652D01*
X00526258Y00528491D01*
X00526345Y00528286D01*
X00526448Y00528037D01*
X00526550Y00527759D01*
X00526638Y00527452D01*
Y00527437D01*
X00526653Y00527408D01*
Y00527364D01*
X00526667Y00527291D01*
X00526697Y00527218D01*
X00526711Y00527115D01*
X00526726Y00526984D01*
X00526755Y00526852D01*
X00526770Y00526691D01*
X00526784Y00526530D01*
X00526814Y00526340D01*
X00526828Y00526135D01*
X00526843Y00525916D01*
Y00525696D01*
X00526857Y00525184D01*
Y00525170D01*
Y00525111D01*
Y00525023D01*
Y00524906D01*
X00526843Y00524760D01*
Y00524599D01*
X00526828Y00524409D01*
X00526814Y00524204D01*
X00526770Y00523765D01*
X00526711Y00523312D01*
X00526623Y00522858D01*
X00526565Y00522653D01*
X00526506Y00522448D01*
Y00522434D01*
X00526492Y00522404D01*
X00526477Y00522346D01*
X00526448Y00522273D01*
X00526404Y00522185D01*
X00526360Y00522097D01*
X00526243Y00521863D01*
X00526097Y00521600D01*
X00525921Y00521336D01*
X00525716Y00521073D01*
X00525467Y00520839D01*
X00525453D01*
X00525438Y00520810D01*
X00525394Y00520795D01*
X00525350Y00520751D01*
X00525190Y00520663D01*
X00524999Y00520561D01*
X00524736Y00520459D01*
X00524443Y00520371D01*
X00524107Y00520312D01*
X00523727Y00520283D01*
X00523595D01*
X00523492Y00520298D01*
X00523375Y00520312D01*
X00523244Y00520341D01*
X00523097Y00520371D01*
X00522937Y00520400D01*
X00522585Y00520517D01*
X00522395Y00520605D01*
X00522220Y00520693D01*
X00522029Y00520810D01*
X00521854Y00520941D01*
X00521693Y00521088D01*
X00521532Y00521263D01*
X00521517Y00521278D01*
X00521488Y00521322D01*
X00521444Y00521395D01*
X00521386Y00521497D01*
X00521312Y00521629D01*
X00521239Y00521790D01*
X00521152Y00521980D01*
X00521064Y00522214D01*
X00520976Y00522463D01*
X00520888Y00522756D01*
X00520815Y00523077D01*
X00520742Y00523428D01*
X00520683Y00523824D01*
X00520639Y00524233D01*
X00520610Y00524701D01*
X00520596Y00525184D01*
Y00525199D01*
Y00525257D01*
Y00525345D01*
Y00525462D01*
X00520610Y00525608D01*
Y00525769D01*
X00520625Y00525960D01*
X00520639Y00526164D01*
X00520683Y00526603D01*
X00520742Y00527057D01*
X00520815Y00527510D01*
X00520874Y00527715D01*
X00520932Y00527920D01*
Y00527935D01*
X00520947Y00527964D01*
X00520976Y00528022D01*
X00521005Y00528096D01*
X00521035Y00528183D01*
X00521078Y00528286D01*
X00521195Y00528520D01*
X00521342Y00528783D01*
X00521517Y00529047D01*
X00521722Y00529295D01*
X00521971Y00529529D01*
X00521986D01*
X00522000Y00529559D01*
X00522044Y00529588D01*
X00522103Y00529617D01*
X00522249Y00529705D01*
X00522454Y00529822D01*
X00522702Y00529924D01*
X00523010Y00530012D01*
X00523346Y00530071D01*
X00523727Y00530100D01*
X00523858D01*
X00524005Y00530085D01*
D02*
G37*
G36*
X00454454Y00605264D02*
X00454444D01*
X00454405D01*
X00454347D01*
X00454278Y00605274D01*
X00454200Y00605284D01*
X00454113Y00605294D01*
X00454015Y00605323D01*
X00453918Y00605352D01*
X00453908D01*
X00453898Y00605362D01*
X00453839Y00605381D01*
X00453761Y00605420D01*
X00453644Y00605479D01*
X00453518Y00605547D01*
X00453371Y00605645D01*
X00453225Y00605742D01*
X00453069Y00605869D01*
X00453059D01*
X00453050Y00605889D01*
X00452991Y00605937D01*
X00452903Y00606015D01*
X00452786Y00606132D01*
X00452650Y00606279D01*
X00452484Y00606454D01*
X00452299Y00606669D01*
X00452094Y00606903D01*
X00452084Y00606913D01*
X00452055Y00606952D01*
X00452016Y00607001D01*
X00451947Y00607069D01*
X00451879Y00607156D01*
X00451791Y00607254D01*
X00451606Y00607469D01*
X00451382Y00607703D01*
X00451157Y00607937D01*
X00451050Y00608054D01*
X00450943Y00608151D01*
X00450835Y00608239D01*
X00450738Y00608317D01*
X00450728D01*
X00450718Y00608337D01*
X00450689Y00608356D01*
X00450650Y00608376D01*
X00450553Y00608434D01*
X00450426Y00608503D01*
X00450280Y00608571D01*
X00450123Y00608629D01*
X00449948Y00608668D01*
X00449782Y00608688D01*
X00449772D01*
X00449762D01*
X00449704Y00608678D01*
X00449616Y00608668D01*
X00449509Y00608649D01*
X00449382Y00608600D01*
X00449255Y00608542D01*
X00449119Y00608464D01*
X00448992Y00608346D01*
X00448982Y00608327D01*
X00448943Y00608288D01*
X00448895Y00608210D01*
X00448826Y00608112D01*
X00448768Y00607986D01*
X00448719Y00607839D01*
X00448680Y00607664D01*
X00448670Y00607469D01*
Y00607410D01*
X00448680Y00607371D01*
X00448690Y00607274D01*
X00448709Y00607147D01*
X00448758Y00607001D01*
X00448816Y00606844D01*
X00448904Y00606698D01*
X00449021Y00606562D01*
X00449041Y00606552D01*
X00449080Y00606513D01*
X00449158Y00606454D01*
X00449265Y00606396D01*
X00449402Y00606328D01*
X00449558Y00606279D01*
X00449743Y00606240D01*
X00449958Y00606220D01*
X00449870Y00605411D01*
X00449860D01*
X00449831D01*
X00449782Y00605420D01*
X00449724Y00605430D01*
X00449646Y00605450D01*
X00449558Y00605459D01*
X00449363Y00605518D01*
X00449138Y00605596D01*
X00448914Y00605703D01*
X00448690Y00605850D01*
X00448592Y00605928D01*
X00448495Y00606025D01*
X00448485Y00606035D01*
X00448475Y00606054D01*
X00448446Y00606084D01*
X00448416Y00606123D01*
X00448387Y00606181D01*
X00448339Y00606250D01*
X00448299Y00606328D01*
X00448251Y00606415D01*
X00448212Y00606513D01*
X00448163Y00606620D01*
X00448124Y00606747D01*
X00448095Y00606874D01*
X00448036Y00607166D01*
X00448026Y00607322D01*
X00448017Y00607488D01*
Y00607576D01*
X00448026Y00607644D01*
X00448036Y00607722D01*
X00448046Y00607810D01*
X00448056Y00607908D01*
X00448085Y00608015D01*
X00448143Y00608249D01*
X00448231Y00608493D01*
X00448290Y00608620D01*
X00448358Y00608737D01*
X00448446Y00608844D01*
X00448534Y00608951D01*
X00448543Y00608961D01*
X00448553Y00608971D01*
X00448582Y00609000D01*
X00448621Y00609039D01*
X00448680Y00609078D01*
X00448738Y00609127D01*
X00448885Y00609224D01*
X00449070Y00609322D01*
X00449285Y00609410D01*
X00449528Y00609478D01*
X00449665Y00609488D01*
X00449801Y00609497D01*
X00449821D01*
X00449870D01*
X00449948Y00609488D01*
X00450045Y00609478D01*
X00450162Y00609458D01*
X00450289Y00609429D01*
X00450426Y00609390D01*
X00450562Y00609332D01*
X00450582Y00609322D01*
X00450631Y00609302D01*
X00450699Y00609263D01*
X00450796Y00609205D01*
X00450913Y00609137D01*
X00451050Y00609049D01*
X00451186Y00608932D01*
X00451343Y00608805D01*
X00451362Y00608785D01*
X00451421Y00608737D01*
X00451508Y00608649D01*
X00451567Y00608590D01*
X00451635Y00608522D01*
X00451713Y00608444D01*
X00451801Y00608346D01*
X00451889Y00608249D01*
X00451996Y00608142D01*
X00452103Y00608025D01*
X00452220Y00607888D01*
X00452337Y00607752D01*
X00452474Y00607595D01*
X00452484Y00607586D01*
X00452503Y00607566D01*
X00452533Y00607527D01*
X00452572Y00607478D01*
X00452669Y00607361D01*
X00452796Y00607215D01*
X00452932Y00607069D01*
X00453069Y00606913D01*
X00453186Y00606786D01*
X00453235Y00606737D01*
X00453284Y00606688D01*
X00453293Y00606679D01*
X00453323Y00606659D01*
X00453362Y00606620D01*
X00453420Y00606571D01*
X00453547Y00606464D01*
X00453703Y00606357D01*
Y00609507D01*
X00454454D01*
Y00605264D01*
D02*
G37*
G36*
X00452474Y00604640D02*
X00452523Y00604621D01*
X00452601Y00604601D01*
X00452679Y00604562D01*
X00452786Y00604523D01*
X00452893Y00604484D01*
X00453010Y00604426D01*
X00453274Y00604299D01*
X00453537Y00604123D01*
X00453791Y00603928D01*
X00453908Y00603811D01*
X00454015Y00603684D01*
X00454025Y00603675D01*
X00454035Y00603655D01*
X00454064Y00603616D01*
X00454103Y00603558D01*
X00454142Y00603489D01*
X00454191Y00603411D01*
X00454239Y00603323D01*
X00454288Y00603216D01*
X00454337Y00603099D01*
X00454386Y00602972D01*
X00454435Y00602826D01*
X00454473Y00602680D01*
X00454542Y00602358D01*
X00454552Y00602182D01*
X00454561Y00601997D01*
Y00601899D01*
X00454552Y00601821D01*
Y00601734D01*
X00454542Y00601636D01*
X00454522Y00601519D01*
X00454512Y00601402D01*
X00454454Y00601129D01*
X00454386Y00600846D01*
X00454278Y00600573D01*
X00454220Y00600436D01*
X00454142Y00600309D01*
X00454132Y00600300D01*
X00454122Y00600280D01*
X00454093Y00600251D01*
X00454064Y00600202D01*
X00453966Y00600085D01*
X00453830Y00599949D01*
X00453664Y00599783D01*
X00453449Y00599627D01*
X00453205Y00599461D01*
X00452923Y00599324D01*
X00452913D01*
X00452884Y00599315D01*
X00452845Y00599295D01*
X00452786Y00599276D01*
X00452708Y00599246D01*
X00452620Y00599217D01*
X00452523Y00599188D01*
X00452406Y00599159D01*
X00452289Y00599129D01*
X00452152Y00599100D01*
X00451860Y00599042D01*
X00451547Y00599002D01*
X00451206Y00598993D01*
X00451196D01*
X00451157D01*
X00451109D01*
X00451040Y00599002D01*
X00450952D01*
X00450845Y00599012D01*
X00450738Y00599022D01*
X00450611Y00599042D01*
X00450338Y00599090D01*
X00450045Y00599149D01*
X00449743Y00599246D01*
X00449460Y00599373D01*
X00449450D01*
X00449431Y00599393D01*
X00449392Y00599412D01*
X00449333Y00599441D01*
X00449275Y00599481D01*
X00449207Y00599529D01*
X00449041Y00599656D01*
X00448855Y00599802D01*
X00448670Y00599988D01*
X00448485Y00600212D01*
X00448329Y00600456D01*
Y00600466D01*
X00448309Y00600485D01*
X00448290Y00600524D01*
X00448270Y00600583D01*
X00448241Y00600641D01*
X00448202Y00600719D01*
X00448173Y00600817D01*
X00448134Y00600914D01*
X00448095Y00601021D01*
X00448065Y00601139D01*
X00447997Y00601402D01*
X00447958Y00601694D01*
X00447939Y00602007D01*
Y00602104D01*
X00447948Y00602173D01*
X00447958Y00602251D01*
X00447968Y00602348D01*
X00447978Y00602455D01*
X00447997Y00602572D01*
X00448056Y00602826D01*
X00448143Y00603099D01*
X00448202Y00603236D01*
X00448270Y00603372D01*
X00448348Y00603499D01*
X00448436Y00603626D01*
X00448446Y00603635D01*
X00448456Y00603655D01*
X00448485Y00603684D01*
X00448524Y00603733D01*
X00448573Y00603782D01*
X00448641Y00603850D01*
X00448709Y00603918D01*
X00448787Y00603987D01*
X00448885Y00604065D01*
X00448982Y00604133D01*
X00449099Y00604211D01*
X00449226Y00604289D01*
X00449353Y00604357D01*
X00449499Y00604426D01*
X00449811Y00604543D01*
X00450006Y00603704D01*
X00449997D01*
X00449977Y00603694D01*
X00449938Y00603684D01*
X00449889Y00603665D01*
X00449831Y00603635D01*
X00449762Y00603606D01*
X00449616Y00603538D01*
X00449450Y00603450D01*
X00449275Y00603333D01*
X00449119Y00603206D01*
X00448982Y00603050D01*
X00448973Y00603031D01*
X00448933Y00602972D01*
X00448885Y00602884D01*
X00448816Y00602758D01*
X00448758Y00602611D01*
X00448709Y00602426D01*
X00448670Y00602221D01*
X00448660Y00601987D01*
Y00601919D01*
X00448670Y00601870D01*
Y00601802D01*
X00448680Y00601734D01*
X00448709Y00601558D01*
X00448748Y00601363D01*
X00448816Y00601158D01*
X00448904Y00600953D01*
X00449021Y00600758D01*
Y00600748D01*
X00449041Y00600739D01*
X00449090Y00600680D01*
X00449168Y00600592D01*
X00449275Y00600485D01*
X00449411Y00600378D01*
X00449567Y00600261D01*
X00449762Y00600154D01*
X00449977Y00600066D01*
X00449987D01*
X00450006Y00600056D01*
X00450036Y00600046D01*
X00450084Y00600036D01*
X00450133Y00600017D01*
X00450201Y00600007D01*
X00450358Y00599968D01*
X00450543Y00599929D01*
X00450748Y00599900D01*
X00450972Y00599880D01*
X00451206Y00599871D01*
X00451216D01*
X00451245D01*
X00451284D01*
X00451343D01*
X00451411Y00599880D01*
X00451499D01*
X00451586Y00599890D01*
X00451684Y00599900D01*
X00451908Y00599929D01*
X00452152Y00599968D01*
X00452396Y00600027D01*
X00452630Y00600105D01*
X00452640D01*
X00452659Y00600114D01*
X00452689Y00600134D01*
X00452728Y00600154D01*
X00452845Y00600202D01*
X00452971Y00600280D01*
X00453128Y00600387D01*
X00453274Y00600514D01*
X00453420Y00600661D01*
X00453547Y00600836D01*
Y00600846D01*
X00453557Y00600856D01*
X00453576Y00600885D01*
X00453596Y00600924D01*
X00453635Y00601031D01*
X00453693Y00601168D01*
X00453742Y00601324D01*
X00453791Y00601509D01*
X00453830Y00601714D01*
X00453839Y00601929D01*
Y00601997D01*
X00453830Y00602046D01*
Y00602104D01*
X00453820Y00602182D01*
X00453791Y00602348D01*
X00453742Y00602533D01*
X00453664Y00602738D01*
X00453566Y00602933D01*
X00453430Y00603128D01*
X00453420Y00603138D01*
X00453410Y00603148D01*
X00453352Y00603206D01*
X00453254Y00603294D01*
X00453128Y00603401D01*
X00452952Y00603509D01*
X00452747Y00603626D01*
X00452494Y00603723D01*
X00452211Y00603801D01*
X00452425Y00604650D01*
X00452435D01*
X00452474Y00604640D01*
D02*
G37*
G36*
X00392080Y00623387D02*
X00394489Y00620031D01*
X00393445D01*
X00391826Y00622314D01*
X00391816Y00622323D01*
X00391806Y00622343D01*
X00391777Y00622382D01*
X00391738Y00622440D01*
X00391660Y00622557D01*
X00391563Y00622704D01*
X00391553Y00622694D01*
X00391524Y00622655D01*
X00391494Y00622597D01*
X00391446Y00622519D01*
X00391338Y00622372D01*
X00391289Y00622304D01*
X00391250Y00622245D01*
X00389631Y00620031D01*
X00388617D01*
X00391094Y00623348D01*
X00388910Y00626439D01*
X00389914D01*
X00391085Y00624791D01*
Y00624781D01*
X00391104Y00624772D01*
X00391143Y00624703D01*
X00391212Y00624616D01*
X00391280Y00624508D01*
X00391367Y00624381D01*
X00391455Y00624245D01*
X00391524Y00624128D01*
X00391592Y00624011D01*
X00391602Y00624030D01*
X00391631Y00624069D01*
X00391680Y00624138D01*
X00391738Y00624225D01*
X00391806Y00624333D01*
X00391894Y00624459D01*
X00391992Y00624586D01*
X00392099Y00624723D01*
X00393386Y00626439D01*
X00394313D01*
X00392080Y00623387D01*
D02*
G37*
G36*
X00397883Y00620031D02*
X00397093D01*
Y00625045D01*
X00397083Y00625035D01*
X00397044Y00624996D01*
X00396976Y00624947D01*
X00396888Y00624879D01*
X00396781Y00624791D01*
X00396654Y00624703D01*
X00396508Y00624596D01*
X00396342Y00624498D01*
X00396332D01*
X00396322Y00624489D01*
X00396264Y00624450D01*
X00396176Y00624401D01*
X00396069Y00624342D01*
X00395942Y00624274D01*
X00395805Y00624216D01*
X00395659Y00624147D01*
X00395523Y00624089D01*
Y00624859D01*
X00395532D01*
X00395552Y00624869D01*
X00395591Y00624889D01*
X00395630Y00624918D01*
X00395688Y00624947D01*
X00395757Y00624976D01*
X00395913Y00625064D01*
X00396088Y00625172D01*
X00396283Y00625298D01*
X00396478Y00625445D01*
X00396664Y00625601D01*
X00396674Y00625610D01*
X00396683Y00625620D01*
X00396742Y00625679D01*
X00396829Y00625766D01*
X00396937Y00625874D01*
X00397054Y00626010D01*
X00397171Y00626157D01*
X00397278Y00626313D01*
X00397366Y00626469D01*
X00397883D01*
Y00620031D01*
D02*
G37*
G36*
X00493738Y00610787D02*
Y00610777D01*
Y00610748D01*
Y00610699D01*
Y00610631D01*
X00493728Y00610543D01*
Y00610455D01*
X00493718Y00610348D01*
X00493708Y00610231D01*
X00493679Y00609987D01*
X00493640Y00609733D01*
X00493591Y00609480D01*
X00493513Y00609255D01*
Y00609246D01*
X00493504Y00609226D01*
X00493494Y00609197D01*
X00493474Y00609158D01*
X00493416Y00609060D01*
X00493338Y00608924D01*
X00493231Y00608778D01*
X00493094Y00608621D01*
X00492918Y00608475D01*
X00492723Y00608329D01*
X00492714D01*
X00492694Y00608309D01*
X00492665Y00608299D01*
X00492616Y00608270D01*
X00492567Y00608251D01*
X00492499Y00608222D01*
X00492411Y00608182D01*
X00492323Y00608153D01*
X00492226Y00608124D01*
X00492109Y00608085D01*
X00491992Y00608056D01*
X00491855Y00608036D01*
X00491563Y00607997D01*
X00491231Y00607978D01*
X00491143D01*
X00491085Y00607987D01*
X00491007D01*
X00490919Y00607997D01*
X00490821Y00608007D01*
X00490714Y00608017D01*
X00490480Y00608056D01*
X00490236Y00608105D01*
X00489982Y00608182D01*
X00489758Y00608280D01*
X00489748D01*
X00489729Y00608299D01*
X00489709Y00608309D01*
X00489670Y00608339D01*
X00489563Y00608407D01*
X00489446Y00608514D01*
X00489310Y00608641D01*
X00489183Y00608787D01*
X00489056Y00608973D01*
X00488949Y00609177D01*
Y00609187D01*
X00488939Y00609207D01*
X00488929Y00609236D01*
X00488910Y00609285D01*
X00488890Y00609343D01*
X00488871Y00609421D01*
X00488851Y00609509D01*
X00488832Y00609607D01*
X00488802Y00609714D01*
X00488783Y00609831D01*
X00488763Y00609967D01*
X00488744Y00610104D01*
X00488724Y00610260D01*
X00488714Y00610426D01*
X00488705Y00610601D01*
Y00610787D01*
Y00614493D01*
X00489553D01*
Y00610787D01*
Y00610777D01*
Y00610748D01*
Y00610709D01*
Y00610650D01*
Y00610582D01*
X00489563Y00610504D01*
X00489573Y00610318D01*
X00489592Y00610123D01*
X00489612Y00609919D01*
X00489651Y00609724D01*
X00489670Y00609636D01*
X00489700Y00609558D01*
X00489709Y00609538D01*
X00489729Y00609490D01*
X00489768Y00609421D01*
X00489827Y00609333D01*
X00489895Y00609236D01*
X00489992Y00609129D01*
X00490100Y00609031D01*
X00490236Y00608943D01*
X00490256Y00608933D01*
X00490304Y00608914D01*
X00490382Y00608875D01*
X00490490Y00608846D01*
X00490626Y00608807D01*
X00490782Y00608768D01*
X00490958Y00608748D01*
X00491153Y00608739D01*
X00491241D01*
X00491309Y00608748D01*
X00491387D01*
X00491475Y00608758D01*
X00491670Y00608787D01*
X00491894Y00608846D01*
X00492109Y00608914D01*
X00492314Y00609021D01*
X00492411Y00609080D01*
X00492489Y00609158D01*
Y00609168D01*
X00492509Y00609177D01*
X00492528Y00609207D01*
X00492548Y00609246D01*
X00492587Y00609294D01*
X00492616Y00609353D01*
X00492655Y00609431D01*
X00492694Y00609519D01*
X00492723Y00609626D01*
X00492762Y00609743D01*
X00492801Y00609870D01*
X00492831Y00610026D01*
X00492850Y00610192D01*
X00492870Y00610367D01*
X00492889Y00610572D01*
Y00610787D01*
Y00614493D01*
X00493738D01*
Y00610787D01*
D02*
G37*
G36*
X00497795Y00608085D02*
X00497005D01*
Y00613098D01*
X00496995Y00613089D01*
X00496956Y00613050D01*
X00496888Y00613001D01*
X00496800Y00612933D01*
X00496693Y00612845D01*
X00496566Y00612757D01*
X00496420Y00612650D01*
X00496254Y00612552D01*
X00496244D01*
X00496235Y00612542D01*
X00496176Y00612503D01*
X00496088Y00612455D01*
X00495981Y00612396D01*
X00495854Y00612328D01*
X00495718Y00612269D01*
X00495571Y00612201D01*
X00495435Y00612142D01*
Y00612913D01*
X00495444D01*
X00495464Y00612923D01*
X00495503Y00612942D01*
X00495542Y00612971D01*
X00495601Y00613001D01*
X00495669Y00613030D01*
X00495825Y00613118D01*
X00496001Y00613225D01*
X00496196Y00613352D01*
X00496391Y00613498D01*
X00496576Y00613654D01*
X00496586Y00613664D01*
X00496595Y00613674D01*
X00496654Y00613732D01*
X00496742Y00613820D01*
X00496849Y00613927D01*
X00496966Y00614064D01*
X00497083Y00614210D01*
X00497190Y00614366D01*
X00497278Y00614522D01*
X00497795D01*
Y00608085D01*
D02*
G37*
G36*
X00460469Y00551005D02*
X00455455D01*
X00455465Y00550995D01*
X00455504Y00550956D01*
X00455553Y00550888D01*
X00455621Y00550800D01*
X00455709Y00550693D01*
X00455797Y00550566D01*
X00455904Y00550420D01*
X00456002Y00550254D01*
Y00550244D01*
X00456011Y00550235D01*
X00456050Y00550176D01*
X00456099Y00550088D01*
X00456157Y00549981D01*
X00456226Y00549854D01*
X00456284Y00549718D01*
X00456353Y00549571D01*
X00456411Y00549435D01*
X00455641D01*
Y00549445D01*
X00455631Y00549464D01*
X00455611Y00549503D01*
X00455582Y00549542D01*
X00455553Y00549601D01*
X00455523Y00549669D01*
X00455436Y00549825D01*
X00455328Y00550000D01*
X00455202Y00550196D01*
X00455055Y00550391D01*
X00454899Y00550576D01*
X00454890Y00550586D01*
X00454880Y00550596D01*
X00454821Y00550654D01*
X00454734Y00550742D01*
X00454626Y00550849D01*
X00454490Y00550966D01*
X00454343Y00551083D01*
X00454187Y00551190D01*
X00454031Y00551278D01*
Y00551795D01*
X00460469D01*
Y00551005D01*
D02*
G37*
G36*
Y00547279D02*
X00459142Y00546431D01*
X00459132D01*
X00459113Y00546411D01*
X00459084Y00546392D01*
X00459045Y00546372D01*
X00458947Y00546304D01*
X00458820Y00546216D01*
X00458674Y00546119D01*
X00458528Y00546011D01*
X00458391Y00545914D01*
X00458264Y00545816D01*
X00458255Y00545807D01*
X00458215Y00545777D01*
X00458157Y00545728D01*
X00458089Y00545680D01*
X00457952Y00545533D01*
X00457884Y00545465D01*
X00457835Y00545387D01*
X00457825Y00545377D01*
X00457816Y00545358D01*
X00457796Y00545319D01*
X00457767Y00545270D01*
X00457708Y00545153D01*
X00457660Y00545007D01*
Y00544997D01*
X00457650Y00544977D01*
Y00544938D01*
X00457640Y00544890D01*
X00457630Y00544821D01*
Y00544743D01*
X00457621Y00544646D01*
Y00543553D01*
X00460469D01*
Y00542705D01*
X00454061D01*
Y00545680D01*
X00454070Y00545758D01*
Y00545836D01*
X00454080Y00546031D01*
X00454100Y00546236D01*
X00454138Y00546450D01*
X00454178Y00546655D01*
X00454207Y00546753D01*
X00454236Y00546840D01*
Y00546850D01*
X00454246Y00546860D01*
X00454265Y00546918D01*
X00454314Y00546996D01*
X00454382Y00547094D01*
X00454460Y00547211D01*
X00454568Y00547328D01*
X00454695Y00547445D01*
X00454851Y00547552D01*
X00454870Y00547562D01*
X00454929Y00547591D01*
X00455016Y00547640D01*
X00455133Y00547689D01*
X00455280Y00547738D01*
X00455446Y00547786D01*
X00455621Y00547816D01*
X00455816Y00547825D01*
X00455826D01*
X00455845D01*
X00455884D01*
X00455933Y00547816D01*
X00455992D01*
X00456060Y00547806D01*
X00456216Y00547767D01*
X00456401Y00547718D01*
X00456587Y00547640D01*
X00456782Y00547523D01*
X00456879Y00547455D01*
X00456967Y00547377D01*
X00456987Y00547357D01*
X00457006Y00547328D01*
X00457045Y00547299D01*
X00457074Y00547250D01*
X00457123Y00547192D01*
X00457162Y00547123D01*
X00457211Y00547045D01*
X00457260Y00546957D01*
X00457309Y00546850D01*
X00457357Y00546743D01*
X00457406Y00546616D01*
X00457455Y00546489D01*
X00457494Y00546343D01*
X00457523Y00546187D01*
X00457552Y00546021D01*
X00457562Y00546040D01*
X00457582Y00546080D01*
X00457611Y00546138D01*
X00457650Y00546206D01*
X00457757Y00546372D01*
X00457816Y00546460D01*
X00457874Y00546528D01*
X00457894Y00546548D01*
X00457933Y00546596D01*
X00458011Y00546665D01*
X00458108Y00546753D01*
X00458235Y00546860D01*
X00458381Y00546977D01*
X00458547Y00547104D01*
X00458732Y00547230D01*
X00460469Y00548342D01*
Y00547279D01*
D02*
G37*
G36*
X00529698Y00549527D02*
X00529776Y00549517D01*
X00529854Y00549507D01*
X00529952Y00549488D01*
X00530050Y00549458D01*
X00530274Y00549390D01*
X00530401Y00549341D01*
X00530518Y00549273D01*
X00530635Y00549205D01*
X00530752Y00549127D01*
X00530869Y00549029D01*
X00530986Y00548922D01*
X00530996Y00548912D01*
X00531015Y00548893D01*
X00531035Y00548863D01*
X00531074Y00548815D01*
X00531122Y00548756D01*
X00531171Y00548678D01*
X00531220Y00548590D01*
X00531269Y00548503D01*
X00531327Y00548395D01*
X00531376Y00548278D01*
X00531425Y00548151D01*
X00531474Y00548015D01*
X00531512Y00547869D01*
X00531532Y00547713D01*
X00531552Y00547547D01*
X00531561Y00547381D01*
Y00547303D01*
X00531552Y00547244D01*
X00531542Y00547166D01*
X00531532Y00547088D01*
X00531522Y00546991D01*
X00531503Y00546893D01*
X00531444Y00546669D01*
X00531347Y00546435D01*
X00531298Y00546318D01*
X00531230Y00546211D01*
X00531152Y00546093D01*
X00531064Y00545986D01*
X00531054Y00545976D01*
X00531044Y00545967D01*
X00531015Y00545937D01*
X00530976Y00545898D01*
X00530918Y00545859D01*
X00530859Y00545811D01*
X00530791Y00545752D01*
X00530713Y00545703D01*
X00530518Y00545586D01*
X00530293Y00545489D01*
X00530040Y00545401D01*
X00529903Y00545372D01*
X00529757Y00545352D01*
X00529650Y00546142D01*
X00529659D01*
X00529679Y00546152D01*
X00529718D01*
X00529757Y00546171D01*
X00529874Y00546201D01*
X00530020Y00546250D01*
X00530176Y00546308D01*
X00530342Y00546386D01*
X00530488Y00546484D01*
X00530615Y00546591D01*
X00530625Y00546610D01*
X00530664Y00546649D01*
X00530703Y00546718D01*
X00530761Y00546815D01*
X00530810Y00546922D01*
X00530859Y00547059D01*
X00530898Y00547215D01*
X00530908Y00547381D01*
Y00547439D01*
X00530898Y00547478D01*
X00530888Y00547576D01*
X00530859Y00547703D01*
X00530810Y00547859D01*
X00530752Y00548015D01*
X00530654Y00548171D01*
X00530527Y00548317D01*
X00530508Y00548337D01*
X00530459Y00548376D01*
X00530381Y00548434D01*
X00530264Y00548512D01*
X00530127Y00548581D01*
X00529962Y00548639D01*
X00529776Y00548678D01*
X00529572Y00548698D01*
X00529562D01*
X00529552D01*
X00529523D01*
X00529484Y00548688D01*
X00529386Y00548678D01*
X00529259Y00548649D01*
X00529123Y00548610D01*
X00528967Y00548542D01*
X00528820Y00548454D01*
X00528684Y00548337D01*
X00528665Y00548317D01*
X00528625Y00548278D01*
X00528577Y00548200D01*
X00528508Y00548093D01*
X00528440Y00547966D01*
X00528391Y00547810D01*
X00528352Y00547644D01*
X00528333Y00547449D01*
Y00547361D01*
X00528343Y00547293D01*
X00528352Y00547215D01*
X00528362Y00547118D01*
X00528382Y00547010D01*
X00528411Y00546893D01*
X00527718Y00546981D01*
Y00547030D01*
X00527728Y00547069D01*
Y00547196D01*
X00527718Y00547283D01*
X00527699Y00547410D01*
X00527670Y00547547D01*
X00527621Y00547693D01*
X00527562Y00547849D01*
X00527475Y00548005D01*
X00527465Y00548025D01*
X00527426Y00548073D01*
X00527357Y00548132D01*
X00527270Y00548210D01*
X00527162Y00548288D01*
X00527026Y00548346D01*
X00526860Y00548395D01*
X00526665Y00548415D01*
X00526655D01*
X00526646D01*
X00526597D01*
X00526519Y00548395D01*
X00526411Y00548376D01*
X00526304Y00548346D01*
X00526187Y00548288D01*
X00526060Y00548220D01*
X00525953Y00548122D01*
X00525943Y00548112D01*
X00525904Y00548073D01*
X00525855Y00548005D01*
X00525807Y00547917D01*
X00525748Y00547810D01*
X00525709Y00547683D01*
X00525670Y00547537D01*
X00525660Y00547371D01*
Y00547293D01*
X00525680Y00547205D01*
X00525699Y00547108D01*
X00525729Y00546981D01*
X00525787Y00546854D01*
X00525855Y00546727D01*
X00525953Y00546601D01*
X00525963Y00546591D01*
X00526002Y00546552D01*
X00526070Y00546503D01*
X00526168Y00546445D01*
X00526285Y00546376D01*
X00526431Y00546318D01*
X00526606Y00546259D01*
X00526811Y00546220D01*
X00526675Y00545430D01*
X00526665D01*
X00526636Y00545440D01*
X00526597Y00545450D01*
X00526548Y00545459D01*
X00526480Y00545479D01*
X00526402Y00545499D01*
X00526226Y00545567D01*
X00526031Y00545645D01*
X00525826Y00545762D01*
X00525631Y00545898D01*
X00525456Y00546074D01*
X00525446Y00546084D01*
X00525436Y00546093D01*
X00525416Y00546123D01*
X00525387Y00546171D01*
X00525358Y00546220D01*
X00525319Y00546279D01*
X00525231Y00546425D01*
X00525153Y00546610D01*
X00525085Y00546835D01*
X00525036Y00547079D01*
X00525017Y00547215D01*
Y00547439D01*
X00525026Y00547537D01*
X00525046Y00547664D01*
X00525075Y00547810D01*
X00525114Y00547976D01*
X00525173Y00548142D01*
X00525251Y00548307D01*
Y00548317D01*
X00525261Y00548327D01*
X00525290Y00548386D01*
X00525339Y00548464D01*
X00525407Y00548561D01*
X00525495Y00548668D01*
X00525602Y00548785D01*
X00525729Y00548893D01*
X00525865Y00548990D01*
X00525885Y00549000D01*
X00525933Y00549029D01*
X00526012Y00549068D01*
X00526109Y00549107D01*
X00526236Y00549146D01*
X00526372Y00549185D01*
X00526519Y00549215D01*
X00526684Y00549224D01*
X00526704D01*
X00526753D01*
X00526831Y00549215D01*
X00526928Y00549195D01*
X00527045Y00549166D01*
X00527172Y00549127D01*
X00527309Y00549078D01*
X00527435Y00549000D01*
X00527455Y00548990D01*
X00527494Y00548961D01*
X00527553Y00548903D01*
X00527631Y00548834D01*
X00527718Y00548737D01*
X00527806Y00548629D01*
X00527904Y00548493D01*
X00527982Y00548337D01*
Y00548346D01*
X00527991Y00548366D01*
Y00548395D01*
X00528011Y00548434D01*
X00528040Y00548532D01*
X00528099Y00548659D01*
X00528167Y00548795D01*
X00528265Y00548941D01*
X00528382Y00549088D01*
X00528528Y00549215D01*
X00528547Y00549224D01*
X00528606Y00549263D01*
X00528694Y00549312D01*
X00528811Y00549380D01*
X00528957Y00549439D01*
X00529133Y00549488D01*
X00529338Y00549527D01*
X00529562Y00549536D01*
X00529572D01*
X00529601D01*
X00529640D01*
X00529698Y00549527D01*
D02*
G37*
G36*
X00529474Y00544611D02*
X00529523Y00544591D01*
X00529601Y00544572D01*
X00529679Y00544533D01*
X00529786Y00544494D01*
X00529893Y00544455D01*
X00530010Y00544396D01*
X00530274Y00544269D01*
X00530537Y00544094D01*
X00530791Y00543899D01*
X00530908Y00543782D01*
X00531015Y00543655D01*
X00531025Y00543645D01*
X00531035Y00543626D01*
X00531064Y00543587D01*
X00531103Y00543528D01*
X00531142Y00543460D01*
X00531191Y00543382D01*
X00531239Y00543294D01*
X00531288Y00543187D01*
X00531337Y00543070D01*
X00531386Y00542943D01*
X00531435Y00542797D01*
X00531474Y00542650D01*
X00531542Y00542328D01*
X00531552Y00542153D01*
X00531561Y00541968D01*
Y00541870D01*
X00531552Y00541792D01*
Y00541704D01*
X00531542Y00541607D01*
X00531522Y00541490D01*
X00531512Y00541373D01*
X00531454Y00541100D01*
X00531386Y00540817D01*
X00531278Y00540544D01*
X00531220Y00540407D01*
X00531142Y00540280D01*
X00531132Y00540271D01*
X00531122Y00540251D01*
X00531093Y00540222D01*
X00531064Y00540173D01*
X00530966Y00540056D01*
X00530830Y00539919D01*
X00530664Y00539754D01*
X00530449Y00539598D01*
X00530205Y00539432D01*
X00529923Y00539295D01*
X00529913D01*
X00529884Y00539285D01*
X00529845Y00539266D01*
X00529786Y00539246D01*
X00529708Y00539217D01*
X00529620Y00539188D01*
X00529523Y00539159D01*
X00529406Y00539129D01*
X00529289Y00539100D01*
X00529152Y00539071D01*
X00528859Y00539012D01*
X00528547Y00538973D01*
X00528206Y00538964D01*
X00528196D01*
X00528157D01*
X00528108D01*
X00528040Y00538973D01*
X00527952D01*
X00527845Y00538983D01*
X00527738Y00538993D01*
X00527611Y00539012D01*
X00527338Y00539061D01*
X00527045Y00539120D01*
X00526743Y00539217D01*
X00526460Y00539344D01*
X00526450D01*
X00526431Y00539363D01*
X00526392Y00539383D01*
X00526333Y00539412D01*
X00526275Y00539451D01*
X00526207Y00539500D01*
X00526041Y00539627D01*
X00525855Y00539773D01*
X00525670Y00539958D01*
X00525485Y00540183D01*
X00525329Y00540427D01*
Y00540436D01*
X00525309Y00540456D01*
X00525290Y00540495D01*
X00525270Y00540553D01*
X00525241Y00540612D01*
X00525202Y00540690D01*
X00525173Y00540788D01*
X00525134Y00540885D01*
X00525095Y00540992D01*
X00525065Y00541109D01*
X00524997Y00541373D01*
X00524958Y00541665D01*
X00524939Y00541977D01*
Y00542075D01*
X00524948Y00542143D01*
X00524958Y00542221D01*
X00524968Y00542319D01*
X00524978Y00542426D01*
X00524997Y00542543D01*
X00525056Y00542797D01*
X00525143Y00543070D01*
X00525202Y00543206D01*
X00525270Y00543343D01*
X00525348Y00543470D01*
X00525436Y00543596D01*
X00525446Y00543606D01*
X00525456Y00543626D01*
X00525485Y00543655D01*
X00525524Y00543704D01*
X00525573Y00543753D01*
X00525641Y00543821D01*
X00525709Y00543889D01*
X00525787Y00543957D01*
X00525885Y00544035D01*
X00525982Y00544104D01*
X00526099Y00544182D01*
X00526226Y00544260D01*
X00526353Y00544328D01*
X00526499Y00544396D01*
X00526811Y00544513D01*
X00527006Y00543675D01*
X00526997D01*
X00526977Y00543665D01*
X00526938Y00543655D01*
X00526889Y00543635D01*
X00526831Y00543606D01*
X00526763Y00543577D01*
X00526616Y00543509D01*
X00526450Y00543421D01*
X00526275Y00543304D01*
X00526119Y00543177D01*
X00525982Y00543021D01*
X00525973Y00543002D01*
X00525933Y00542943D01*
X00525885Y00542855D01*
X00525816Y00542728D01*
X00525758Y00542582D01*
X00525709Y00542397D01*
X00525670Y00542192D01*
X00525660Y00541958D01*
Y00541890D01*
X00525670Y00541841D01*
Y00541773D01*
X00525680Y00541704D01*
X00525709Y00541529D01*
X00525748Y00541334D01*
X00525816Y00541129D01*
X00525904Y00540924D01*
X00526021Y00540729D01*
Y00540719D01*
X00526041Y00540709D01*
X00526090Y00540651D01*
X00526168Y00540563D01*
X00526275Y00540456D01*
X00526411Y00540349D01*
X00526567Y00540232D01*
X00526763Y00540124D01*
X00526977Y00540036D01*
X00526987D01*
X00527006Y00540027D01*
X00527036Y00540017D01*
X00527084Y00540007D01*
X00527133Y00539988D01*
X00527201Y00539978D01*
X00527357Y00539939D01*
X00527543Y00539900D01*
X00527748Y00539871D01*
X00527972Y00539851D01*
X00528206Y00539841D01*
X00528216D01*
X00528245D01*
X00528284D01*
X00528343D01*
X00528411Y00539851D01*
X00528499D01*
X00528586Y00539861D01*
X00528684Y00539871D01*
X00528908Y00539900D01*
X00529152Y00539939D01*
X00529396Y00539997D01*
X00529630Y00540075D01*
X00529640D01*
X00529659Y00540085D01*
X00529689Y00540105D01*
X00529728Y00540124D01*
X00529845Y00540173D01*
X00529972Y00540251D01*
X00530127Y00540358D01*
X00530274Y00540485D01*
X00530420Y00540631D01*
X00530547Y00540807D01*
Y00540817D01*
X00530557Y00540826D01*
X00530576Y00540856D01*
X00530596Y00540895D01*
X00530635Y00541002D01*
X00530693Y00541139D01*
X00530742Y00541295D01*
X00530791Y00541480D01*
X00530830Y00541685D01*
X00530840Y00541899D01*
Y00541968D01*
X00530830Y00542016D01*
Y00542075D01*
X00530820Y00542153D01*
X00530791Y00542319D01*
X00530742Y00542504D01*
X00530664Y00542709D01*
X00530566Y00542904D01*
X00530430Y00543099D01*
X00530420Y00543109D01*
X00530410Y00543119D01*
X00530352Y00543177D01*
X00530254Y00543265D01*
X00530127Y00543372D01*
X00529952Y00543479D01*
X00529747Y00543596D01*
X00529493Y00543694D01*
X00529211Y00543772D01*
X00529425Y00544621D01*
X00529435D01*
X00529474Y00544611D01*
D02*
G37*
G36*
X00482923Y00600659D02*
X00484454D01*
Y00599869D01*
X00482923D01*
Y00597089D01*
X00482201D01*
X00478056Y00600015D01*
Y00600659D01*
X00482201D01*
Y00601527D01*
X00482923D01*
Y00600659D01*
D02*
G37*
G36*
X00482474Y00596621D02*
X00482523Y00596601D01*
X00482601Y00596582D01*
X00482679Y00596543D01*
X00482786Y00596504D01*
X00482893Y00596465D01*
X00483010Y00596406D01*
X00483274Y00596279D01*
X00483537Y00596104D01*
X00483791Y00595909D01*
X00483908Y00595792D01*
X00484015Y00595665D01*
X00484025Y00595655D01*
X00484035Y00595635D01*
X00484064Y00595597D01*
X00484103Y00595538D01*
X00484142Y00595470D01*
X00484191Y00595392D01*
X00484239Y00595304D01*
X00484288Y00595197D01*
X00484337Y00595080D01*
X00484386Y00594953D01*
X00484435Y00594807D01*
X00484473Y00594660D01*
X00484542Y00594338D01*
X00484552Y00594163D01*
X00484561Y00593977D01*
Y00593880D01*
X00484552Y00593802D01*
Y00593714D01*
X00484542Y00593616D01*
X00484522Y00593499D01*
X00484512Y00593382D01*
X00484454Y00593109D01*
X00484386Y00592826D01*
X00484278Y00592553D01*
X00484220Y00592417D01*
X00484142Y00592290D01*
X00484132Y00592280D01*
X00484122Y00592261D01*
X00484093Y00592231D01*
X00484064Y00592183D01*
X00483966Y00592066D01*
X00483830Y00591929D01*
X00483664Y00591763D01*
X00483449Y00591607D01*
X00483205Y00591441D01*
X00482923Y00591305D01*
X00482913D01*
X00482884Y00591295D01*
X00482845Y00591276D01*
X00482786Y00591256D01*
X00482708Y00591227D01*
X00482620Y00591198D01*
X00482523Y00591168D01*
X00482406Y00591139D01*
X00482289Y00591110D01*
X00482152Y00591081D01*
X00481860Y00591022D01*
X00481547Y00590983D01*
X00481206Y00590973D01*
X00481196D01*
X00481157D01*
X00481109D01*
X00481040Y00590983D01*
X00480952D01*
X00480845Y00590993D01*
X00480738Y00591003D01*
X00480611Y00591022D01*
X00480338Y00591071D01*
X00480045Y00591129D01*
X00479743Y00591227D01*
X00479460Y00591354D01*
X00479450D01*
X00479431Y00591373D01*
X00479392Y00591393D01*
X00479333Y00591422D01*
X00479275Y00591461D01*
X00479207Y00591510D01*
X00479041Y00591637D01*
X00478855Y00591783D01*
X00478670Y00591968D01*
X00478485Y00592192D01*
X00478329Y00592436D01*
Y00592446D01*
X00478309Y00592466D01*
X00478290Y00592505D01*
X00478270Y00592563D01*
X00478241Y00592622D01*
X00478202Y00592700D01*
X00478173Y00592797D01*
X00478134Y00592895D01*
X00478095Y00593002D01*
X00478065Y00593119D01*
X00477997Y00593382D01*
X00477958Y00593675D01*
X00477939Y00593987D01*
Y00594085D01*
X00477948Y00594153D01*
X00477958Y00594231D01*
X00477968Y00594328D01*
X00477978Y00594436D01*
X00477997Y00594553D01*
X00478056Y00594807D01*
X00478143Y00595080D01*
X00478202Y00595216D01*
X00478270Y00595353D01*
X00478348Y00595480D01*
X00478436Y00595606D01*
X00478446Y00595616D01*
X00478456Y00595635D01*
X00478485Y00595665D01*
X00478524Y00595714D01*
X00478573Y00595762D01*
X00478641Y00595831D01*
X00478709Y00595899D01*
X00478787Y00595967D01*
X00478885Y00596045D01*
X00478982Y00596113D01*
X00479099Y00596191D01*
X00479226Y00596269D01*
X00479353Y00596338D01*
X00479499Y00596406D01*
X00479811Y00596523D01*
X00480006Y00595684D01*
X00479997D01*
X00479977Y00595675D01*
X00479938Y00595665D01*
X00479889Y00595645D01*
X00479831Y00595616D01*
X00479762Y00595587D01*
X00479616Y00595518D01*
X00479450Y00595431D01*
X00479275Y00595314D01*
X00479119Y00595187D01*
X00478982Y00595031D01*
X00478973Y00595011D01*
X00478933Y00594953D01*
X00478885Y00594865D01*
X00478816Y00594738D01*
X00478758Y00594592D01*
X00478709Y00594407D01*
X00478670Y00594202D01*
X00478660Y00593968D01*
Y00593899D01*
X00478670Y00593851D01*
Y00593782D01*
X00478680Y00593714D01*
X00478709Y00593539D01*
X00478748Y00593343D01*
X00478816Y00593139D01*
X00478904Y00592934D01*
X00479021Y00592739D01*
Y00592729D01*
X00479041Y00592719D01*
X00479090Y00592661D01*
X00479168Y00592573D01*
X00479275Y00592466D01*
X00479411Y00592358D01*
X00479567Y00592241D01*
X00479762Y00592134D01*
X00479977Y00592046D01*
X00479987D01*
X00480006Y00592036D01*
X00480036Y00592027D01*
X00480084Y00592017D01*
X00480133Y00591997D01*
X00480201Y00591988D01*
X00480358Y00591949D01*
X00480543Y00591910D01*
X00480748Y00591880D01*
X00480972Y00591861D01*
X00481206Y00591851D01*
X00481216D01*
X00481245D01*
X00481284D01*
X00481343D01*
X00481411Y00591861D01*
X00481499D01*
X00481586Y00591871D01*
X00481684Y00591880D01*
X00481908Y00591910D01*
X00482152Y00591949D01*
X00482396Y00592007D01*
X00482630Y00592085D01*
X00482640D01*
X00482659Y00592095D01*
X00482689Y00592114D01*
X00482728Y00592134D01*
X00482845Y00592183D01*
X00482971Y00592261D01*
X00483128Y00592368D01*
X00483274Y00592495D01*
X00483420Y00592641D01*
X00483547Y00592817D01*
Y00592826D01*
X00483557Y00592836D01*
X00483576Y00592865D01*
X00483596Y00592905D01*
X00483635Y00593012D01*
X00483693Y00593148D01*
X00483742Y00593304D01*
X00483791Y00593490D01*
X00483830Y00593694D01*
X00483839Y00593909D01*
Y00593977D01*
X00483830Y00594026D01*
Y00594085D01*
X00483820Y00594163D01*
X00483791Y00594328D01*
X00483742Y00594514D01*
X00483664Y00594719D01*
X00483566Y00594914D01*
X00483430Y00595109D01*
X00483420Y00595119D01*
X00483410Y00595128D01*
X00483352Y00595187D01*
X00483254Y00595275D01*
X00483128Y00595382D01*
X00482952Y00595489D01*
X00482747Y00595606D01*
X00482494Y00595704D01*
X00482211Y00595782D01*
X00482425Y00596630D01*
X00482435D01*
X00482474Y00596621D01*
D02*
G37*
G36*
X00470454Y00562132D02*
X00465441D01*
X00465450Y00562122D01*
X00465489Y00562083D01*
X00465538Y00562015D01*
X00465606Y00561927D01*
X00465694Y00561820D01*
X00465782Y00561693D01*
X00465889Y00561547D01*
X00465987Y00561381D01*
Y00561371D01*
X00465997Y00561361D01*
X00466036Y00561303D01*
X00466084Y00561215D01*
X00466143Y00561108D01*
X00466211Y00560981D01*
X00466270Y00560844D01*
X00466338Y00560698D01*
X00466396Y00560562D01*
X00465626D01*
Y00560571D01*
X00465616Y00560591D01*
X00465597Y00560630D01*
X00465567Y00560669D01*
X00465538Y00560728D01*
X00465509Y00560796D01*
X00465421Y00560952D01*
X00465314Y00561127D01*
X00465187Y00561322D01*
X00465041Y00561517D01*
X00464885Y00561703D01*
X00464875Y00561713D01*
X00464865Y00561722D01*
X00464807Y00561781D01*
X00464719Y00561869D01*
X00464612Y00561976D01*
X00464475Y00562093D01*
X00464329Y00562210D01*
X00464173Y00562317D01*
X00464017Y00562405D01*
Y00562922D01*
X00470454D01*
Y00562132D01*
D02*
G37*
G36*
X00468474Y00559225D02*
X00468523Y00559206D01*
X00468601Y00559186D01*
X00468679Y00559147D01*
X00468786Y00559108D01*
X00468893Y00559069D01*
X00469011Y00559011D01*
X00469274Y00558884D01*
X00469537Y00558708D01*
X00469791Y00558513D01*
X00469908Y00558396D01*
X00470015Y00558270D01*
X00470025Y00558260D01*
X00470035Y00558240D01*
X00470064Y00558201D01*
X00470103Y00558143D01*
X00470142Y00558074D01*
X00470191Y00557996D01*
X00470239Y00557909D01*
X00470288Y00557801D01*
X00470337Y00557684D01*
X00470386Y00557557D01*
X00470434Y00557411D01*
X00470474Y00557265D01*
X00470542Y00556943D01*
X00470551Y00556768D01*
X00470561Y00556582D01*
Y00556485D01*
X00470551Y00556407D01*
Y00556319D01*
X00470542Y00556221D01*
X00470522Y00556104D01*
X00470513Y00555987D01*
X00470454Y00555714D01*
X00470386Y00555431D01*
X00470278Y00555158D01*
X00470220Y00555022D01*
X00470142Y00554895D01*
X00470132Y00554885D01*
X00470122Y00554865D01*
X00470093Y00554836D01*
X00470064Y00554787D01*
X00469966Y00554670D01*
X00469830Y00554534D01*
X00469664Y00554368D01*
X00469449Y00554212D01*
X00469206Y00554046D01*
X00468923Y00553910D01*
X00468913D01*
X00468884Y00553900D01*
X00468845Y00553880D01*
X00468786Y00553861D01*
X00468708Y00553832D01*
X00468620Y00553802D01*
X00468523Y00553773D01*
X00468406Y00553744D01*
X00468289Y00553715D01*
X00468152Y00553685D01*
X00467859Y00553627D01*
X00467547Y00553588D01*
X00467206Y00553578D01*
X00467196D01*
X00467157D01*
X00467108D01*
X00467040Y00553588D01*
X00466953D01*
X00466845Y00553598D01*
X00466738Y00553607D01*
X00466611Y00553627D01*
X00466338Y00553676D01*
X00466045Y00553734D01*
X00465743Y00553832D01*
X00465460Y00553959D01*
X00465450D01*
X00465431Y00553978D01*
X00465392Y00553997D01*
X00465333Y00554027D01*
X00465275Y00554066D01*
X00465207Y00554114D01*
X00465041Y00554241D01*
X00464855Y00554388D01*
X00464670Y00554573D01*
X00464485Y00554797D01*
X00464329Y00555041D01*
Y00555051D01*
X00464309Y00555070D01*
X00464290Y00555109D01*
X00464270Y00555168D01*
X00464241Y00555226D01*
X00464202Y00555304D01*
X00464173Y00555402D01*
X00464134Y00555499D01*
X00464095Y00555607D01*
X00464065Y00555724D01*
X00463997Y00555987D01*
X00463958Y00556280D01*
X00463939Y00556592D01*
Y00556689D01*
X00463948Y00556758D01*
X00463958Y00556836D01*
X00463968Y00556933D01*
X00463978Y00557041D01*
X00463997Y00557158D01*
X00464056Y00557411D01*
X00464143Y00557684D01*
X00464202Y00557821D01*
X00464270Y00557957D01*
X00464348Y00558084D01*
X00464436Y00558211D01*
X00464446Y00558221D01*
X00464455Y00558240D01*
X00464485Y00558270D01*
X00464524Y00558318D01*
X00464573Y00558367D01*
X00464641Y00558435D01*
X00464709Y00558504D01*
X00464787Y00558572D01*
X00464885Y00558650D01*
X00464982Y00558718D01*
X00465099Y00558796D01*
X00465226Y00558874D01*
X00465353Y00558942D01*
X00465499Y00559011D01*
X00465811Y00559128D01*
X00466006Y00558289D01*
X00465997D01*
X00465977Y00558279D01*
X00465938Y00558270D01*
X00465889Y00558250D01*
X00465831Y00558221D01*
X00465762Y00558191D01*
X00465616Y00558123D01*
X00465450Y00558036D01*
X00465275Y00557918D01*
X00465119Y00557792D01*
X00464982Y00557636D01*
X00464972Y00557616D01*
X00464934Y00557557D01*
X00464885Y00557470D01*
X00464816Y00557343D01*
X00464758Y00557197D01*
X00464709Y00557011D01*
X00464670Y00556806D01*
X00464660Y00556572D01*
Y00556504D01*
X00464670Y00556455D01*
Y00556387D01*
X00464680Y00556319D01*
X00464709Y00556143D01*
X00464748Y00555948D01*
X00464816Y00555743D01*
X00464904Y00555538D01*
X00465021Y00555344D01*
Y00555334D01*
X00465041Y00555324D01*
X00465089Y00555265D01*
X00465168Y00555178D01*
X00465275Y00555070D01*
X00465411Y00554963D01*
X00465567Y00554846D01*
X00465762Y00554739D01*
X00465977Y00554651D01*
X00465987D01*
X00466006Y00554641D01*
X00466036Y00554632D01*
X00466084Y00554622D01*
X00466133Y00554602D01*
X00466201Y00554592D01*
X00466357Y00554553D01*
X00466543Y00554514D01*
X00466748Y00554485D01*
X00466972Y00554466D01*
X00467206Y00554456D01*
X00467216D01*
X00467245D01*
X00467284D01*
X00467343D01*
X00467411Y00554466D01*
X00467499D01*
X00467586Y00554475D01*
X00467684Y00554485D01*
X00467908Y00554514D01*
X00468152Y00554553D01*
X00468396Y00554612D01*
X00468630Y00554690D01*
X00468640D01*
X00468659Y00554700D01*
X00468689Y00554719D01*
X00468728Y00554739D01*
X00468845Y00554787D01*
X00468971Y00554865D01*
X00469128Y00554973D01*
X00469274Y00555100D01*
X00469420Y00555246D01*
X00469547Y00555421D01*
Y00555431D01*
X00469557Y00555441D01*
X00469576Y00555470D01*
X00469596Y00555509D01*
X00469635Y00555617D01*
X00469693Y00555753D01*
X00469742Y00555909D01*
X00469791Y00556095D01*
X00469830Y00556299D01*
X00469840Y00556514D01*
Y00556582D01*
X00469830Y00556631D01*
Y00556689D01*
X00469820Y00556768D01*
X00469791Y00556933D01*
X00469742Y00557119D01*
X00469664Y00557323D01*
X00469566Y00557519D01*
X00469430Y00557714D01*
X00469420Y00557723D01*
X00469410Y00557733D01*
X00469352Y00557792D01*
X00469254Y00557879D01*
X00469128Y00557987D01*
X00468952Y00558094D01*
X00468747Y00558211D01*
X00468493Y00558309D01*
X00468211Y00558387D01*
X00468425Y00559235D01*
X00468435D01*
X00468474Y00559225D01*
D02*
G37*
G36*
X00523119Y00560552D02*
X00523197Y00560542D01*
X00523294Y00560532D01*
X00523402Y00560522D01*
X00523519Y00560503D01*
X00523772Y00560444D01*
X00524045Y00560356D01*
X00524182Y00560298D01*
X00524319Y00560230D01*
X00524445Y00560152D01*
X00524572Y00560064D01*
X00524582Y00560054D01*
X00524601Y00560044D01*
X00524631Y00560015D01*
X00524679Y00559976D01*
X00524728Y00559927D01*
X00524796Y00559859D01*
X00524865Y00559791D01*
X00524933Y00559713D01*
X00525011Y00559615D01*
X00525079Y00559518D01*
X00525157Y00559401D01*
X00525235Y00559274D01*
X00525304Y00559147D01*
X00525372Y00559001D01*
X00525489Y00558689D01*
X00524650Y00558494D01*
Y00558503D01*
X00524640Y00558523D01*
X00524631Y00558562D01*
X00524611Y00558611D01*
X00524582Y00558669D01*
X00524553Y00558737D01*
X00524484Y00558884D01*
X00524397Y00559050D01*
X00524280Y00559225D01*
X00524153Y00559381D01*
X00523997Y00559518D01*
X00523977Y00559528D01*
X00523919Y00559566D01*
X00523831Y00559615D01*
X00523704Y00559683D01*
X00523558Y00559742D01*
X00523372Y00559791D01*
X00523168Y00559830D01*
X00522934Y00559840D01*
X00522865D01*
X00522817Y00559830D01*
X00522748D01*
X00522680Y00559820D01*
X00522504Y00559791D01*
X00522309Y00559752D01*
X00522104Y00559683D01*
X00521900Y00559596D01*
X00521704Y00559479D01*
X00521695D01*
X00521685Y00559459D01*
X00521627Y00559410D01*
X00521539Y00559332D01*
X00521431Y00559225D01*
X00521324Y00559089D01*
X00521207Y00558932D01*
X00521100Y00558737D01*
X00521012Y00558523D01*
Y00558513D01*
X00521002Y00558494D01*
X00520993Y00558464D01*
X00520983Y00558416D01*
X00520963Y00558367D01*
X00520953Y00558298D01*
X00520914Y00558143D01*
X00520876Y00557957D01*
X00520846Y00557752D01*
X00520827Y00557528D01*
X00520817Y00557294D01*
Y00557284D01*
Y00557255D01*
Y00557216D01*
Y00557157D01*
X00520827Y00557089D01*
Y00557001D01*
X00520836Y00556913D01*
X00520846Y00556816D01*
X00520876Y00556592D01*
X00520914Y00556348D01*
X00520973Y00556104D01*
X00521051Y00555870D01*
Y00555860D01*
X00521061Y00555841D01*
X00521080Y00555811D01*
X00521100Y00555772D01*
X00521149Y00555655D01*
X00521227Y00555528D01*
X00521334Y00555372D01*
X00521461Y00555226D01*
X00521607Y00555080D01*
X00521783Y00554953D01*
X00521792D01*
X00521802Y00554943D01*
X00521831Y00554924D01*
X00521870Y00554904D01*
X00521978Y00554865D01*
X00522114Y00554807D01*
X00522270Y00554758D01*
X00522456Y00554709D01*
X00522660Y00554670D01*
X00522875Y00554660D01*
X00522943D01*
X00522992Y00554670D01*
X00523050D01*
X00523129Y00554680D01*
X00523294Y00554709D01*
X00523480Y00554758D01*
X00523685Y00554836D01*
X00523880Y00554934D01*
X00524075Y00555070D01*
X00524084Y00555080D01*
X00524094Y00555090D01*
X00524153Y00555148D01*
X00524240Y00555246D01*
X00524348Y00555372D01*
X00524455Y00555548D01*
X00524572Y00555753D01*
X00524670Y00556006D01*
X00524748Y00556289D01*
X00525596Y00556075D01*
Y00556065D01*
X00525587Y00556026D01*
X00525567Y00555977D01*
X00525547Y00555899D01*
X00525508Y00555821D01*
X00525469Y00555714D01*
X00525430Y00555606D01*
X00525372Y00555490D01*
X00525245Y00555226D01*
X00525070Y00554963D01*
X00524874Y00554709D01*
X00524757Y00554592D01*
X00524631Y00554485D01*
X00524621Y00554475D01*
X00524601Y00554465D01*
X00524562Y00554436D01*
X00524504Y00554397D01*
X00524436Y00554358D01*
X00524357Y00554309D01*
X00524270Y00554260D01*
X00524162Y00554212D01*
X00524045Y00554163D01*
X00523919Y00554114D01*
X00523772Y00554066D01*
X00523626Y00554026D01*
X00523304Y00553958D01*
X00523129Y00553948D01*
X00522943Y00553939D01*
X00522846D01*
X00522768Y00553948D01*
X00522680D01*
X00522582Y00553958D01*
X00522465Y00553978D01*
X00522348Y00553987D01*
X00522075Y00554046D01*
X00521792Y00554114D01*
X00521519Y00554221D01*
X00521383Y00554280D01*
X00521256Y00554358D01*
X00521246Y00554368D01*
X00521227Y00554378D01*
X00521197Y00554407D01*
X00521149Y00554436D01*
X00521031Y00554534D01*
X00520895Y00554670D01*
X00520729Y00554836D01*
X00520573Y00555051D01*
X00520407Y00555294D01*
X00520271Y00555577D01*
Y00555587D01*
X00520261Y00555616D01*
X00520242Y00555655D01*
X00520222Y00555714D01*
X00520193Y00555792D01*
X00520163Y00555880D01*
X00520134Y00555977D01*
X00520105Y00556094D01*
X00520076Y00556211D01*
X00520046Y00556348D01*
X00519988Y00556640D01*
X00519949Y00556953D01*
X00519939Y00557294D01*
Y00557304D01*
Y00557343D01*
Y00557391D01*
X00519949Y00557460D01*
Y00557547D01*
X00519959Y00557655D01*
X00519968Y00557762D01*
X00519988Y00557889D01*
X00520037Y00558162D01*
X00520095Y00558455D01*
X00520193Y00558757D01*
X00520320Y00559040D01*
Y00559050D01*
X00520339Y00559069D01*
X00520359Y00559108D01*
X00520388Y00559167D01*
X00520427Y00559225D01*
X00520476Y00559293D01*
X00520602Y00559459D01*
X00520749Y00559645D01*
X00520934Y00559830D01*
X00521158Y00560015D01*
X00521402Y00560171D01*
X00521412D01*
X00521431Y00560191D01*
X00521470Y00560210D01*
X00521529Y00560230D01*
X00521587Y00560259D01*
X00521665Y00560298D01*
X00521763Y00560327D01*
X00521861Y00560366D01*
X00521968Y00560405D01*
X00522085Y00560435D01*
X00522348Y00560503D01*
X00522641Y00560542D01*
X00522953Y00560561D01*
X00523050D01*
X00523119Y00560552D01*
D02*
G37*
G36*
X00530258Y00559605D02*
X00527703D01*
X00527352Y00557879D01*
X00527362Y00557889D01*
X00527381Y00557899D01*
X00527410Y00557918D01*
X00527449Y00557947D01*
X00527508Y00557977D01*
X00527566Y00558006D01*
X00527723Y00558084D01*
X00527898Y00558162D01*
X00528103Y00558220D01*
X00528327Y00558269D01*
X00528561Y00558289D01*
X00528639D01*
X00528698Y00558279D01*
X00528776Y00558269D01*
X00528854Y00558260D01*
X00528951Y00558240D01*
X00529049Y00558220D01*
X00529273Y00558143D01*
X00529390Y00558103D01*
X00529507Y00558045D01*
X00529634Y00557977D01*
X00529751Y00557899D01*
X00529868Y00557811D01*
X00529976Y00557704D01*
X00529985Y00557694D01*
X00530005Y00557674D01*
X00530034Y00557645D01*
X00530063Y00557596D01*
X00530112Y00557538D01*
X00530161Y00557469D01*
X00530210Y00557391D01*
X00530268Y00557304D01*
X00530327Y00557196D01*
X00530376Y00557089D01*
X00530424Y00556962D01*
X00530473Y00556836D01*
X00530502Y00556689D01*
X00530532Y00556543D01*
X00530551Y00556377D01*
X00530561Y00556211D01*
Y00556202D01*
Y00556172D01*
Y00556124D01*
X00530551Y00556065D01*
X00530541Y00555987D01*
X00530532Y00555899D01*
X00530522Y00555802D01*
X00530502Y00555694D01*
X00530434Y00555460D01*
X00530346Y00555216D01*
X00530288Y00555080D01*
X00530219Y00554953D01*
X00530141Y00554826D01*
X00530054Y00554709D01*
X00530044Y00554699D01*
X00530024Y00554680D01*
X00529985Y00554641D01*
X00529937Y00554592D01*
X00529878Y00554534D01*
X00529800Y00554465D01*
X00529712Y00554397D01*
X00529605Y00554329D01*
X00529498Y00554251D01*
X00529371Y00554183D01*
X00529225Y00554114D01*
X00529078Y00554056D01*
X00528913Y00554007D01*
X00528747Y00553968D01*
X00528561Y00553948D01*
X00528366Y00553939D01*
X00528279D01*
X00528220Y00553948D01*
X00528152Y00553958D01*
X00528064Y00553968D01*
X00527966Y00553978D01*
X00527859Y00553997D01*
X00527635Y00554056D01*
X00527401Y00554143D01*
X00527284Y00554202D01*
X00527167Y00554270D01*
X00527049Y00554339D01*
X00526942Y00554426D01*
X00526932Y00554436D01*
X00526923Y00554446D01*
X00526894Y00554475D01*
X00526854Y00554514D01*
X00526815Y00554563D01*
X00526767Y00554621D01*
X00526718Y00554690D01*
X00526659Y00554768D01*
X00526552Y00554953D01*
X00526445Y00555177D01*
X00526367Y00555431D01*
X00526338Y00555577D01*
X00526318Y00555724D01*
X00527147Y00555782D01*
Y00555772D01*
Y00555753D01*
X00527157Y00555724D01*
X00527167Y00555685D01*
X00527196Y00555577D01*
X00527235Y00555441D01*
X00527284Y00555294D01*
X00527362Y00555148D01*
X00527449Y00555002D01*
X00527566Y00554875D01*
X00527586Y00554865D01*
X00527625Y00554826D01*
X00527693Y00554787D01*
X00527791Y00554729D01*
X00527908Y00554680D01*
X00528044Y00554631D01*
X00528200Y00554592D01*
X00528366Y00554582D01*
X00528425D01*
X00528464Y00554592D01*
X00528571Y00554602D01*
X00528708Y00554631D01*
X00528854Y00554690D01*
X00529020Y00554758D01*
X00529176Y00554865D01*
X00529254Y00554924D01*
X00529332Y00555002D01*
Y00555012D01*
X00529351Y00555021D01*
X00529390Y00555080D01*
X00529459Y00555177D01*
X00529527Y00555304D01*
X00529595Y00555470D01*
X00529664Y00555665D01*
X00529702Y00555889D01*
X00529722Y00556143D01*
Y00556153D01*
Y00556172D01*
Y00556211D01*
X00529712Y00556250D01*
Y00556309D01*
X00529702Y00556377D01*
X00529673Y00556533D01*
X00529634Y00556699D01*
X00529566Y00556875D01*
X00529468Y00557050D01*
X00529342Y00557206D01*
X00529322Y00557226D01*
X00529273Y00557265D01*
X00529195Y00557333D01*
X00529078Y00557401D01*
X00528942Y00557469D01*
X00528766Y00557538D01*
X00528571Y00557577D01*
X00528357Y00557596D01*
X00528288D01*
X00528220Y00557587D01*
X00528122Y00557577D01*
X00528015Y00557547D01*
X00527898Y00557518D01*
X00527781Y00557469D01*
X00527664Y00557411D01*
X00527654Y00557401D01*
X00527615Y00557382D01*
X00527557Y00557343D01*
X00527488Y00557294D01*
X00527420Y00557226D01*
X00527342Y00557148D01*
X00527264Y00557060D01*
X00527196Y00556962D01*
X00526455Y00557070D01*
X00527079Y00560356D01*
X00530258D01*
Y00559605D01*
D02*
G37*
%LPC*%
G36*
X00455268Y00518010D02*
X00452532D01*
Y00514572D01*
X00455121D01*
X00455209Y00514586D01*
X00455312D01*
X00455414Y00514601D01*
X00455677Y00514630D01*
X00455970Y00514689D01*
X00456263Y00514762D01*
X00456526Y00514879D01*
X00456643Y00514952D01*
X00456745Y00515025D01*
X00456775Y00515040D01*
X00456833Y00515113D01*
X00456906Y00515216D01*
X00457009Y00515362D01*
X00457111Y00515537D01*
X00457184Y00515757D01*
X00457243Y00516020D01*
X00457272Y00516313D01*
Y00516342D01*
Y00516415D01*
X00457257Y00516532D01*
X00457228Y00516679D01*
X00457199Y00516840D01*
X00457140Y00517015D01*
X00457067Y00517191D01*
X00456965Y00517352D01*
X00456950Y00517366D01*
X00456906Y00517425D01*
X00456848Y00517498D01*
X00456745Y00517586D01*
X00456628Y00517673D01*
X00456497Y00517776D01*
X00456336Y00517849D01*
X00456160Y00517922D01*
X00456146D01*
X00456102Y00517937D01*
X00456014Y00517952D01*
X00455897Y00517966D01*
X00455736Y00517981D01*
X00455531Y00517995D01*
X00455268Y00518010D01*
D02*
G37*
G36*
X00480081Y00515684D02*
X00480008D01*
X00479949Y00515669D01*
X00479788Y00515654D01*
X00479598Y00515611D01*
X00479379Y00515552D01*
X00479159Y00515450D01*
X00478925Y00515318D01*
X00478706Y00515128D01*
X00478676Y00515099D01*
X00478618Y00515025D01*
X00478530Y00514908D01*
X00478428Y00514733D01*
X00478325Y00514528D01*
X00478223Y00514279D01*
X00478150Y00513987D01*
X00478106Y00513665D01*
X00481997D01*
Y00513679D01*
Y00513709D01*
X00481983Y00513753D01*
Y00513811D01*
X00481954Y00513972D01*
X00481910Y00514162D01*
X00481851Y00514367D01*
X00481763Y00514586D01*
X00481675Y00514806D01*
X00481544Y00514981D01*
Y00514996D01*
X00481515Y00515011D01*
X00481441Y00515099D01*
X00481310Y00515201D01*
X00481149Y00515333D01*
X00480929Y00515464D01*
X00480681Y00515581D01*
X00480403Y00515654D01*
X00480242Y00515669D01*
X00480081Y00515684D01*
D02*
G37*
G36*
X00494071Y00528988D02*
X00491042D01*
Y00525813D01*
X00493910D01*
X00494071Y00525828D01*
X00494261Y00525843D01*
X00494480Y00525857D01*
X00494714Y00525886D01*
X00494934Y00525930D01*
X00495124Y00525989D01*
X00495153Y00526003D01*
X00495212Y00526018D01*
X00495300Y00526062D01*
X00495402Y00526120D01*
X00495519Y00526208D01*
X00495651Y00526311D01*
X00495768Y00526428D01*
X00495870Y00526559D01*
X00495885Y00526574D01*
X00495914Y00526633D01*
X00495958Y00526706D01*
X00496002Y00526823D01*
X00496046Y00526940D01*
X00496090Y00527086D01*
X00496119Y00527247D01*
X00496134Y00527423D01*
Y00527437D01*
Y00527452D01*
Y00527540D01*
X00496104Y00527657D01*
X00496075Y00527818D01*
X00496017Y00527993D01*
X00495929Y00528183D01*
X00495797Y00528374D01*
X00495636Y00528549D01*
X00495607Y00528564D01*
X00495548Y00528622D01*
X00495417Y00528695D01*
X00495256Y00528769D01*
X00495036Y00528856D01*
X00494773Y00528915D01*
X00494451Y00528973D01*
X00494071Y00528988D01*
D02*
G37*
G36*
X00484078Y00529061D02*
Y00529047D01*
X00484063Y00529017D01*
Y00528973D01*
X00484049Y00528900D01*
X00484020Y00528812D01*
X00483990Y00528710D01*
X00483932Y00528476D01*
X00483859Y00528183D01*
X00483771Y00527876D01*
X00483669Y00527540D01*
X00483551Y00527203D01*
X00482498Y00524394D01*
X00485761D01*
X00484766Y00527042D01*
Y00527057D01*
X00484751Y00527101D01*
X00484722Y00527159D01*
X00484693Y00527247D01*
X00484649Y00527350D01*
X00484605Y00527467D01*
X00484517Y00527744D01*
X00484400Y00528066D01*
X00484283Y00528403D01*
X00484180Y00528739D01*
X00484078Y00529061D01*
D02*
G37*
G36*
X00466902Y00528929D02*
X00464166D01*
Y00525491D01*
X00466756D01*
X00466843Y00525506D01*
X00466946D01*
X00467048Y00525521D01*
X00467312Y00525550D01*
X00467604Y00525608D01*
X00467897Y00525682D01*
X00468160Y00525799D01*
X00468277Y00525872D01*
X00468380Y00525945D01*
X00468409Y00525960D01*
X00468467Y00526033D01*
X00468541Y00526135D01*
X00468643Y00526281D01*
X00468745Y00526457D01*
X00468819Y00526676D01*
X00468877Y00526940D01*
X00468906Y00527232D01*
Y00527262D01*
Y00527335D01*
X00468892Y00527452D01*
X00468862Y00527598D01*
X00468833Y00527759D01*
X00468775Y00527935D01*
X00468702Y00528110D01*
X00468599Y00528271D01*
X00468585Y00528286D01*
X00468541Y00528344D01*
X00468482Y00528418D01*
X00468380Y00528505D01*
X00468263Y00528593D01*
X00468131Y00528695D01*
X00467970Y00528769D01*
X00467794Y00528842D01*
X00467780D01*
X00467736Y00528856D01*
X00467648Y00528871D01*
X00467531Y00528886D01*
X00467370Y00528900D01*
X00467165Y00528915D01*
X00466902Y00528929D01*
D02*
G37*
G36*
X00523712Y00529120D02*
X00523639D01*
X00523580Y00529105D01*
X00523434Y00529090D01*
X00523244Y00529032D01*
X00523039Y00528944D01*
X00522819Y00528827D01*
X00522600Y00528652D01*
X00522498Y00528535D01*
X00522410Y00528418D01*
Y00528403D01*
X00522380Y00528374D01*
X00522351Y00528315D01*
X00522322Y00528242D01*
X00522278Y00528139D01*
X00522220Y00528022D01*
X00522161Y00527862D01*
X00522117Y00527686D01*
X00522059Y00527481D01*
X00522000Y00527247D01*
X00521956Y00526984D01*
X00521898Y00526676D01*
X00521869Y00526355D01*
X00521839Y00526003D01*
X00521810Y00525608D01*
Y00525184D01*
Y00525155D01*
Y00525082D01*
Y00524965D01*
X00521825Y00524804D01*
Y00524614D01*
X00521839Y00524394D01*
X00521854Y00524145D01*
X00521883Y00523897D01*
X00521942Y00523370D01*
X00522044Y00522843D01*
X00522103Y00522609D01*
X00522176Y00522390D01*
X00522263Y00522185D01*
X00522351Y00522024D01*
Y00522009D01*
X00522380Y00521995D01*
X00522454Y00521907D01*
X00522571Y00521775D01*
X00522732Y00521644D01*
X00522937Y00521497D01*
X00523171Y00521366D01*
X00523434Y00521278D01*
X00523580Y00521263D01*
X00523727Y00521249D01*
X00523800D01*
X00523858Y00521263D01*
X00524005Y00521292D01*
X00524195Y00521351D01*
X00524414Y00521439D01*
X00524634Y00521571D01*
X00524751Y00521658D01*
X00524868Y00521775D01*
X00524985Y00521892D01*
X00525087Y00522024D01*
Y00522039D01*
X00525116Y00522068D01*
X00525146Y00522112D01*
X00525175Y00522185D01*
X00525219Y00522273D01*
X00525263Y00522404D01*
X00525307Y00522551D01*
X00525365Y00522712D01*
X00525424Y00522916D01*
X00525467Y00523136D01*
X00525511Y00523399D01*
X00525555Y00523692D01*
X00525599Y00524014D01*
X00525614Y00524365D01*
X00525643Y00524760D01*
Y00525184D01*
Y00525214D01*
Y00525287D01*
Y00525404D01*
X00525629Y00525565D01*
Y00525755D01*
X00525614Y00525974D01*
X00525599Y00526208D01*
X00525570Y00526472D01*
X00525511Y00526998D01*
X00525409Y00527510D01*
X00525350Y00527759D01*
X00525277Y00527979D01*
X00525190Y00528169D01*
X00525087Y00528330D01*
Y00528344D01*
X00525058Y00528359D01*
X00524985Y00528447D01*
X00524868Y00528578D01*
X00524707Y00528725D01*
X00524502Y00528871D01*
X00524268Y00529003D01*
X00524005Y00529090D01*
X00523858Y00529105D01*
X00523712Y00529120D01*
D02*
G37*
G36*
X00455816Y00546948D02*
X00455806D01*
X00455797D01*
X00455738D01*
X00455660Y00546928D01*
X00455553Y00546909D01*
X00455436Y00546870D01*
X00455309Y00546811D01*
X00455182Y00546723D01*
X00455065Y00546616D01*
X00455055Y00546596D01*
X00455016Y00546558D01*
X00454968Y00546470D01*
X00454919Y00546362D01*
X00454860Y00546216D01*
X00454821Y00546040D01*
X00454782Y00545826D01*
X00454772Y00545572D01*
Y00543553D01*
X00456889D01*
Y00545465D01*
X00456879Y00545572D01*
X00456870Y00545699D01*
X00456860Y00545845D01*
X00456840Y00546002D01*
X00456811Y00546148D01*
X00456772Y00546275D01*
X00456762Y00546294D01*
X00456753Y00546333D01*
X00456723Y00546392D01*
X00456684Y00546460D01*
X00456626Y00546538D01*
X00456557Y00546626D01*
X00456479Y00546704D01*
X00456392Y00546772D01*
X00456382Y00546782D01*
X00456343Y00546801D01*
X00456294Y00546831D01*
X00456216Y00546860D01*
X00456138Y00546889D01*
X00456040Y00546918D01*
X00455933Y00546938D01*
X00455816Y00546948D01*
D02*
G37*
G36*
X00482201Y00599869D02*
X00479333D01*
X00482201Y00597859D01*
Y00599869D01*
D02*
G37*
%LPD*%
D10*
X00489250Y00566250D02*
G03*
X00489250Y00566250I-00001000J00000000D01*
G01*
D11*
X00448520Y00582250D02*
G03*
X00448520Y00582250I-00001270J00000000D01*
G01*
D12*
X00450980Y00578980D02*
Y00581520D01*
X00444376Y00580250D02*
X00450980D01*
X00453520Y00578980D02*
Y00581520D01*
Y00580250D02*
X00460124D01*
X00504480Y00545520D02*
X00507020D01*
X00505750D02*
Y00552124D01*
X00504480Y00542980D02*
X00507020D01*
X00505750Y00536376D02*
Y00542980D01*
D13*
X00460124Y00563486D02*
Y00597014D01*
X00444376Y00563486D02*
X00460124D01*
X00444376D02*
Y00597014D01*
X00460124D01*
X00491750Y00582750D02*
Y00590750D01*
X00520750Y00582750D02*
Y00590750D01*
X00513750D02*
X00520750D01*
X00491750D02*
X00498750D01*
X00488986Y00536376D02*
X00522514D01*
X00488986D02*
Y00552124D01*
X00522514D01*
Y00536376D02*
Y00552124D01*
X00388850Y00511750D02*
Y00616750D01*
Y00511750D02*
X00431850D01*
X00388850Y00616750D02*
X00431850D01*
D14*
X00509250Y00554750D02*
Y00559750D01*
X00445710Y00546750D02*
X00450790D01*
X00478226Y00580250D02*
X00483226D01*
D15*
X00459750Y00580250D02*
X00462000D01*
Y00579250D02*
Y00581250D01*
X00472500Y00580250D02*
X00474750D01*
X00472500Y00579250D02*
Y00581250D01*
X00474750Y00565250D02*
Y00595250D01*
X00459750D02*
X00474750D01*
X00459750Y00565250D02*
X00474750D01*
X00459750D02*
Y00595250D01*
M02*
