G04*
G04 #@! TF.GenerationSoftware,Altium Limited,Altium Designer,23.3.1 (30)*
G04*
G04 Layer_Physical_Order=4*
G04 Layer_Color=16711680*
%FSAX44Y44*%
%MOMM*%
G71*
G04*
G04 #@! TF.SameCoordinates,894D68D6-B316-49F2-8977-02A2DC980D77*
G04*
G04*
G04 #@! TF.FilePolarity,Positive*
G04*
G01*
G75*
%ADD34C,0.3000*%
%ADD35C,0.4000*%
%ADD36R,0.7500X0.3500*%
G36*
X00496250Y00601250D02*
Y00584250D01*
X00482500Y00570500D01*
X00466000D01*
Y00582000D01*
X00473500D01*
X00477250Y00585750D01*
Y00599250D01*
X00481250Y00603250D01*
X00494250D01*
X00496250Y00601250D01*
D02*
G37*
G36*
X00534250Y00561250D02*
X00474750D01*
X00473500Y00562500D01*
X00466000D01*
Y00566000D01*
X00473500D01*
X00474750Y00567250D01*
X00498250D01*
X00511250Y00580250D01*
X00534250D01*
Y00561250D01*
D02*
G37*
D34*
X00421521Y00556750D02*
X00422021Y00556250D01*
X00445750D01*
X00421250Y00556750D02*
X00421521D01*
X00414250Y00550250D02*
X00416250Y00548250D01*
X00445750D01*
X00414250Y00550250D02*
Y00559250D01*
X00416750Y00561750D02*
X00425250D01*
X00414250Y00559250D02*
X00416750Y00561750D01*
X00445750Y00564250D02*
X00453250D01*
X00469750Y00556250D02*
X00478250D01*
X00469750Y00548250D02*
X00478250D01*
D35*
X00416250Y00527450D02*
D03*
Y00601050D02*
D03*
X00452250Y00598250D02*
D03*
X00462250D02*
D03*
X00472250D02*
D03*
X00496717Y00557250D02*
D03*
X00486717D02*
D03*
X00421250Y00556750D02*
D03*
X00425250Y00561750D02*
D03*
X00492250Y00588250D02*
D03*
Y00598250D02*
D03*
X00482250D02*
D03*
X00453250Y00564250D02*
D03*
X00478250Y00556250D02*
D03*
X00528250Y00574250D02*
D03*
Y00564250D02*
D03*
X00448250Y00535000D02*
D03*
X00478250Y00548250D02*
D03*
X00425250Y00571750D02*
D03*
X00421250Y00566750D02*
D03*
Y00576750D02*
D03*
X00425250Y00581750D02*
D03*
D36*
X00445750Y00540250D02*
D03*
Y00548250D02*
D03*
Y00556250D02*
D03*
Y00564250D02*
D03*
Y00572250D02*
D03*
Y00580250D02*
D03*
Y00588250D02*
D03*
X00469750D02*
D03*
Y00580250D02*
D03*
Y00572250D02*
D03*
Y00564250D02*
D03*
Y00556250D02*
D03*
Y00548250D02*
D03*
Y00540250D02*
D03*
M02*
