G04*
G04 #@! TF.GenerationSoftware,Altium Limited,Altium Designer,23.3.1 (30)*
G04*
G04 Layer_Physical_Order=1*
G04 Layer_Color=255*
%FSAX44Y44*%
%MOMM*%
G71*
G04*
G04 #@! TF.SameCoordinates,894D68D6-B316-49F2-8977-02A2DC980D77*
G04*
G04*
G04 #@! TF.FilePolarity,Positive*
G04*
G01*
G75*
%ADD25R,1.2500X1.0000*%
%ADD26R,1.0000X1.4000*%
G04:AMPARAMS|DCode=27|XSize=0.6mm|YSize=0.6mm|CornerRadius=0.15mm|HoleSize=0mm|Usage=FLASHONLY|Rotation=180.000|XOffset=0mm|YOffset=0mm|HoleType=Round|Shape=RoundedRectangle|*
%AMROUNDEDRECTD27*
21,1,0.6000,0.3000,0,0,180.0*
21,1,0.3000,0.6000,0,0,180.0*
1,1,0.3000,-0.1500,0.1500*
1,1,0.3000,0.1500,0.1500*
1,1,0.3000,0.1500,-0.1500*
1,1,0.3000,-0.1500,-0.1500*
%
%ADD27ROUNDEDRECTD27*%
G04:AMPARAMS|DCode=28|XSize=0.6mm|YSize=0.55mm|CornerRadius=0.1375mm|HoleSize=0mm|Usage=FLASHONLY|Rotation=180.000|XOffset=0mm|YOffset=0mm|HoleType=Round|Shape=RoundedRectangle|*
%AMROUNDEDRECTD28*
21,1,0.6000,0.2750,0,0,180.0*
21,1,0.3250,0.5500,0,0,180.0*
1,1,0.2750,-0.1625,0.1375*
1,1,0.2750,0.1625,0.1375*
1,1,0.2750,0.1625,-0.1375*
1,1,0.2750,-0.1625,-0.1375*
%
%ADD28ROUNDEDRECTD28*%
G04:AMPARAMS|DCode=29|XSize=0.6mm|YSize=0.6mm|CornerRadius=0.15mm|HoleSize=0mm|Usage=FLASHONLY|Rotation=270.000|XOffset=0mm|YOffset=0mm|HoleType=Round|Shape=RoundedRectangle|*
%AMROUNDEDRECTD29*
21,1,0.6000,0.3000,0,0,270.0*
21,1,0.3000,0.6000,0,0,270.0*
1,1,0.3000,-0.1500,-0.1500*
1,1,0.3000,-0.1500,0.1500*
1,1,0.3000,0.1500,0.1500*
1,1,0.3000,0.1500,-0.1500*
%
%ADD29ROUNDEDRECTD29*%
G04:AMPARAMS|DCode=30|XSize=0.95mm|YSize=0.95mm|CornerRadius=0.2375mm|HoleSize=0mm|Usage=FLASHONLY|Rotation=0.000|XOffset=0mm|YOffset=0mm|HoleType=Round|Shape=RoundedRectangle|*
%AMROUNDEDRECTD30*
21,1,0.9500,0.4750,0,0,0.0*
21,1,0.4750,0.9500,0,0,0.0*
1,1,0.4750,0.2375,-0.2375*
1,1,0.4750,-0.2375,-0.2375*
1,1,0.4750,-0.2375,0.2375*
1,1,0.4750,0.2375,0.2375*
%
%ADD30ROUNDEDRECTD30*%
%ADD31R,1.0000X1.2500*%
%ADD32R,3.0000X2.7000*%
%ADD33R,1.2000X0.3000*%
%ADD34C,0.3000*%
%ADD35C,0.4000*%
G36*
X00512250Y00602250D02*
Y00587250D01*
X00507250Y00582250D01*
X00448841D01*
X00441341Y00574750D01*
X00435145D01*
X00434850Y00574809D01*
X00427011D01*
X00425946Y00575250D01*
X00424554D01*
X00423274Y00574720D01*
X00417250D01*
Y00580250D01*
X00422250Y00585250D01*
X00431250D01*
X00432050Y00586050D01*
X00432750D01*
Y00586750D01*
X00449250Y00603250D01*
X00511250D01*
X00512250Y00602250D01*
D02*
G37*
G36*
X00507725Y00577775D02*
Y00538250D01*
X00491250D01*
X00481724Y00547776D01*
X00481819Y00548250D01*
X00481547Y00549616D01*
X00480773Y00550773D01*
X00479616Y00551547D01*
X00478250Y00551819D01*
X00477776Y00551724D01*
X00468250Y00561250D01*
X00444850D01*
X00442350Y00563750D01*
Y00564750D01*
X00441350D01*
X00440850Y00565250D01*
X00440250D01*
X00425474Y00565274D01*
X00425250Y00565319D01*
X00425030Y00565275D01*
X00417250Y00565288D01*
Y00573096D01*
X00423274D01*
X00423572Y00573220D01*
X00423895D01*
X00423968Y00573250D01*
X00426855D01*
X00427011Y00573185D01*
X00434690D01*
X00434829Y00573158D01*
X00434992Y00573190D01*
X00435145Y00573126D01*
X00441341D01*
X00441639Y00573250D01*
X00442250D01*
X00449250Y00580250D01*
X00505250D01*
X00507725Y00577775D01*
D02*
G37*
G36*
X00534250Y00536250D02*
X00510750D01*
Y00580250D01*
X00534250D01*
Y00536250D01*
D02*
G37*
%LPC*%
G36*
X00464250Y00565250D02*
X00464250D01*
X00464250Y00565250D01*
X00464250Y00565250D01*
D02*
G37*
%LPD*%
D25*
X00452250Y00590250D02*
D03*
Y00570250D02*
D03*
D26*
X00496750Y00573250D02*
D03*
X00515750D02*
D03*
X00506250Y00595250D02*
D03*
D27*
X00514076Y00557251D02*
D03*
X00504424Y00557250D02*
D03*
D28*
X00448250Y00541750D02*
D03*
Y00551750D02*
D03*
D29*
X00480725Y00585076D02*
D03*
X00480726Y00575424D02*
D03*
D30*
X00467250Y00572750D02*
D03*
Y00587750D02*
D03*
D31*
X00515750Y00544250D02*
D03*
X00495750D02*
D03*
D32*
X00416250Y00527450D02*
D03*
Y00601050D02*
D03*
D33*
X00434850Y00581750D02*
D03*
Y00576750D02*
D03*
Y00571750D02*
D03*
Y00566750D02*
D03*
Y00561750D02*
D03*
Y00556750D02*
D03*
Y00551750D02*
D03*
Y00546750D02*
D03*
D34*
X00455750Y00551750D02*
X00459250Y00548250D01*
X00448250Y00551750D02*
X00455750D01*
X00459250Y00548250D02*
X00478250D01*
X00434850Y00551750D02*
X00448250D01*
X00421250Y00556750D02*
X00434850D01*
X00425250Y00561750D02*
X00434850D01*
X00448250Y00535000D02*
Y00541750D01*
X00425250Y00571750D02*
X00434850D01*
X00421250Y00566750D02*
X00434850D01*
X00421250Y00576750D02*
X00434850D01*
X00425250Y00581750D02*
X00434850D01*
D35*
X00416250Y00527450D02*
D03*
Y00601050D02*
D03*
X00452250Y00598250D02*
D03*
X00462250D02*
D03*
X00472250D02*
D03*
X00496717Y00557250D02*
D03*
X00486717D02*
D03*
X00421250Y00556750D02*
D03*
X00425250Y00561750D02*
D03*
X00492250Y00588250D02*
D03*
Y00598250D02*
D03*
X00482250D02*
D03*
X00453250Y00564250D02*
D03*
X00478250Y00556250D02*
D03*
X00528250Y00574250D02*
D03*
Y00564250D02*
D03*
X00448250Y00535000D02*
D03*
X00478250Y00548250D02*
D03*
X00425250Y00571750D02*
D03*
X00421250Y00566750D02*
D03*
Y00576750D02*
D03*
X00425250Y00581750D02*
D03*
M02*
