M48
;Layer_Color=9474304
;FILE_FORMAT=4:4
METRIC
;TYPE=PLATED
T1F00S00C0.2000
%
T01
X00416250Y00527450
X00421250Y00556750
X00425250Y00561750
X00421250Y00566750
X00425250Y00571750
X00421250Y00576750
X00425250Y00581750
X00416250Y00601050
X00452250Y00598250
X00462250
X00472250
X00482250
X00492250
Y00588250
X00496717Y00557250
X00486717
X00478250Y00556250
Y00548250
X00453250Y00564250
X00448250Y00535000
X00528250Y00564250
Y00574250
M30
