G04*
G04 #@! TF.GenerationSoftware,Altium Limited,Altium Designer,23.3.1 (30)*
G04*
G04 Layer_Color=8388736*
%FSLAX44Y44*%
%MOMM*%
G71*
G04*
G04 #@! TF.SameCoordinates,DEB4E624-6092-4267-9E12-8A2B7123D7A8*
G04*
G04*
G04 #@! TF.FilePolarity,Negative*
G04*
G01*
G75*
%ADD28R,1.3400X2.8300*%
G04:AMPARAMS|DCode=29|XSize=1.47mm|YSize=0.69mm|CornerRadius=0.1975mm|HoleSize=0mm|Usage=FLASHONLY|Rotation=180.000|XOffset=0mm|YOffset=0mm|HoleType=Round|Shape=RoundedRectangle|*
%AMROUNDEDRECTD29*
21,1,1.4700,0.2950,0,0,180.0*
21,1,1.0750,0.6900,0,0,180.0*
1,1,0.3950,-0.5375,0.1475*
1,1,0.3950,0.5375,0.1475*
1,1,0.3950,0.5375,-0.1475*
1,1,0.3950,-0.5375,-0.1475*
%
%ADD29ROUNDEDRECTD29*%
%ADD30R,0.6000X0.8000*%
%ADD31R,0.6500X1.3000*%
%ADD32R,1.0000X1.0000*%
G04:AMPARAMS|DCode=33|XSize=1.47mm|YSize=0.69mm|CornerRadius=0.1975mm|HoleSize=0mm|Usage=FLASHONLY|Rotation=270.000|XOffset=0mm|YOffset=0mm|HoleType=Round|Shape=RoundedRectangle|*
%AMROUNDEDRECTD33*
21,1,1.4700,0.2950,0,0,270.0*
21,1,1.0750,0.6900,0,0,270.0*
1,1,0.3950,-0.1475,-0.5375*
1,1,0.3950,-0.1475,0.5375*
1,1,0.3950,0.1475,0.5375*
1,1,0.3950,0.1475,-0.5375*
%
%ADD33ROUNDEDRECTD33*%
%ADD34R,2.5130X3.4020*%
G04:AMPARAMS|DCode=35|XSize=2.07mm|YSize=0.7mm|CornerRadius=0.125mm|HoleSize=0mm|Usage=FLASHONLY|Rotation=180.000|XOffset=0mm|YOffset=0mm|HoleType=Round|Shape=RoundedRectangle|*
%AMROUNDEDRECTD35*
21,1,2.0700,0.4500,0,0,180.0*
21,1,1.8200,0.7000,0,0,180.0*
1,1,0.2500,-0.9100,0.2250*
1,1,0.2500,0.9100,0.2250*
1,1,0.2500,0.9100,-0.2250*
1,1,0.2500,-0.9100,-0.2250*
%
%ADD35ROUNDEDRECTD35*%
%ADD36R,1.2000X1.1000*%
%ADD37R,1.0000X1.0000*%
%ADD38R,0.8000X0.6000*%
%ADD39R,1.1000X1.2000*%
%ADD40R,1.3000X0.6500*%
%ADD41R,3.4020X2.5130*%
G04:AMPARAMS|DCode=42|XSize=2.07mm|YSize=0.7mm|CornerRadius=0.125mm|HoleSize=0mm|Usage=FLASHONLY|Rotation=270.000|XOffset=0mm|YOffset=0mm|HoleType=Round|Shape=RoundedRectangle|*
%AMROUNDEDRECTD42*
21,1,2.0700,0.4500,0,0,270.0*
21,1,1.8200,0.7000,0,0,270.0*
1,1,0.2500,-0.2250,-0.9100*
1,1,0.2500,-0.2250,0.9100*
1,1,0.2500,0.2250,0.9100*
1,1,0.2500,0.2250,-0.9100*
%
%ADD42ROUNDEDRECTD42*%
%ADD43R,2.8300X1.3400*%
%ADD44C,1.6300*%
%ADD45R,1.6300X1.6300*%
%ADD46R,1.6300X1.6300*%
%ADD47P,2.3052X4X350.0*%
%ADD48P,2.3052X4X387.0*%
%ADD49P,2.3052X4X61.0*%
%ADD50P,2.3052X4X99.0*%
%ADD51P,2.3052X4X171.0*%
%ADD52P,2.3052X4X242.0*%
%ADD53P,2.3052X4X278.0*%
%ADD54C,0.1000*%
%ADD55P,2.3052X4X312.0*%
%ADD56C,1.6600*%
%ADD57R,1.6600X1.6600*%
G36*
X645000Y517000D02*
X634000D01*
Y529000D01*
X645000D01*
Y534000D01*
X657000D01*
Y512000D01*
X645000D01*
Y517000D01*
D02*
G37*
G36*
X668000Y534000D02*
X680000D01*
Y529000D01*
X691000D01*
Y517000D01*
X680000D01*
Y512000D01*
X668000D01*
Y534000D01*
D02*
G37*
D28*
X751850Y458500D02*
D03*
X722150D02*
D03*
D29*
X673200Y499750D02*
D03*
Y490250D02*
D03*
Y480750D02*
D03*
X649800D02*
D03*
Y490250D02*
D03*
Y499750D02*
D03*
X293100Y-100550D02*
D03*
Y-91050D02*
D03*
Y-81550D02*
D03*
X316500D02*
D03*
Y-91050D02*
D03*
Y-100550D02*
D03*
X621855Y-43000D02*
D03*
Y-33500D02*
D03*
Y-24000D02*
D03*
X645255D02*
D03*
Y-33500D02*
D03*
Y-43000D02*
D03*
X567817Y906907D02*
D03*
Y897407D02*
D03*
Y887907D02*
D03*
X544417D02*
D03*
Y897407D02*
D03*
Y906907D02*
D03*
X239350Y976898D02*
D03*
Y967398D02*
D03*
Y957898D02*
D03*
X215950D02*
D03*
Y967398D02*
D03*
Y976898D02*
D03*
X26409Y735935D02*
D03*
Y726435D02*
D03*
Y716935D02*
D03*
X3009D02*
D03*
Y726435D02*
D03*
Y735935D02*
D03*
D30*
X636750Y500000D02*
D03*
Y489000D02*
D03*
D31*
X631250Y347250D02*
D03*
X640750D02*
D03*
X650250D02*
D03*
Y373250D02*
D03*
X631250D02*
D03*
X640750D02*
D03*
X-117175Y432075D02*
D03*
X-107675D02*
D03*
X-98175D02*
D03*
Y458075D02*
D03*
X-117175D02*
D03*
X-107675D02*
D03*
X25780Y157750D02*
D03*
X35280D02*
D03*
X44780D02*
D03*
Y183750D02*
D03*
X25780D02*
D03*
X35280D02*
D03*
X877750Y132000D02*
D03*
X868250D02*
D03*
X858750D02*
D03*
Y106000D02*
D03*
X877750D02*
D03*
X868250D02*
D03*
X931250Y433000D02*
D03*
X921750D02*
D03*
X912250D02*
D03*
Y407000D02*
D03*
X931250D02*
D03*
X921750D02*
D03*
X878943Y712790D02*
D03*
X869443D02*
D03*
X859943D02*
D03*
Y686790D02*
D03*
X878943D02*
D03*
X869443D02*
D03*
D32*
X663750Y343750D02*
D03*
Y329250D02*
D03*
X735250Y376250D02*
D03*
Y361750D02*
D03*
X649250Y402000D02*
D03*
Y387500D02*
D03*
X-84675Y428575D02*
D03*
Y414075D02*
D03*
X-13175Y461075D02*
D03*
Y446575D02*
D03*
X-99175Y486825D02*
D03*
Y472325D02*
D03*
X58280Y154250D02*
D03*
Y139750D02*
D03*
X129780Y186750D02*
D03*
Y172250D02*
D03*
X43780Y212500D02*
D03*
Y198000D02*
D03*
X845250Y135500D02*
D03*
Y150000D02*
D03*
X859750Y77250D02*
D03*
Y91750D02*
D03*
X773750Y103000D02*
D03*
Y117500D02*
D03*
X827250Y404000D02*
D03*
Y418500D02*
D03*
X913250Y378250D02*
D03*
Y392750D02*
D03*
X898750Y436500D02*
D03*
Y451000D02*
D03*
X860943Y658040D02*
D03*
Y672540D02*
D03*
X774943Y683790D02*
D03*
Y698290D02*
D03*
X846443Y716290D02*
D03*
Y730790D02*
D03*
D33*
X631250Y330700D02*
D03*
X640750D02*
D03*
X650250D02*
D03*
Y307300D02*
D03*
X640750D02*
D03*
X631250D02*
D03*
X-117175Y415525D02*
D03*
X-107675D02*
D03*
X-98175D02*
D03*
Y392125D02*
D03*
X-107675D02*
D03*
X-117175D02*
D03*
X25780Y141200D02*
D03*
X35280D02*
D03*
X44780D02*
D03*
Y117800D02*
D03*
X35280D02*
D03*
X25780D02*
D03*
X877750Y148550D02*
D03*
X868250D02*
D03*
X858750D02*
D03*
Y171950D02*
D03*
X868250D02*
D03*
X877750D02*
D03*
X931250Y449550D02*
D03*
X921750D02*
D03*
X912250D02*
D03*
Y472950D02*
D03*
X921750D02*
D03*
X931250D02*
D03*
X878943Y729340D02*
D03*
X869443D02*
D03*
X859943D02*
D03*
Y752740D02*
D03*
X869443D02*
D03*
X878943D02*
D03*
D34*
X691250Y383000D02*
D03*
X-57175Y467825D02*
D03*
X85780Y193500D02*
D03*
X817750Y96250D02*
D03*
X871250Y397250D02*
D03*
X818943Y677040D02*
D03*
D35*
X666500Y363950D02*
D03*
Y376650D02*
D03*
Y389350D02*
D03*
Y402050D02*
D03*
X716000D02*
D03*
Y389350D02*
D03*
Y376650D02*
D03*
Y363950D02*
D03*
X-81925Y448775D02*
D03*
Y461475D02*
D03*
Y474175D02*
D03*
Y486875D02*
D03*
X-32425D02*
D03*
Y474175D02*
D03*
Y461475D02*
D03*
Y448775D02*
D03*
X61030Y174450D02*
D03*
Y187150D02*
D03*
Y199850D02*
D03*
Y212550D02*
D03*
X110530D02*
D03*
Y199850D02*
D03*
Y187150D02*
D03*
Y174450D02*
D03*
X842500Y115300D02*
D03*
Y102600D02*
D03*
Y89900D02*
D03*
Y77200D02*
D03*
X793000D02*
D03*
Y89900D02*
D03*
Y102600D02*
D03*
Y115300D02*
D03*
X896000Y416300D02*
D03*
Y403600D02*
D03*
Y390900D02*
D03*
Y378200D02*
D03*
X846500D02*
D03*
Y390900D02*
D03*
Y403600D02*
D03*
Y416300D02*
D03*
X843693Y696090D02*
D03*
Y683390D02*
D03*
Y670690D02*
D03*
Y657990D02*
D03*
X794193D02*
D03*
Y670690D02*
D03*
Y683390D02*
D03*
Y696090D02*
D03*
D36*
X617500Y402000D02*
D03*
X634500D02*
D03*
X683250Y418750D02*
D03*
X666250D02*
D03*
X-65175Y503575D02*
D03*
X-82175D02*
D03*
X-130675Y474575D02*
D03*
X-113675D02*
D03*
X77780Y229250D02*
D03*
X60780D02*
D03*
X12280Y200250D02*
D03*
X29280D02*
D03*
X234550Y4200D02*
D03*
X217550D02*
D03*
X218018Y-97032D02*
D03*
X235018D02*
D03*
X563305Y61750D02*
D03*
X546305D02*
D03*
X825750Y60500D02*
D03*
X842750D02*
D03*
X879250Y361500D02*
D03*
X896250D02*
D03*
X944750Y390500D02*
D03*
X927750D02*
D03*
X892443Y670290D02*
D03*
X875443D02*
D03*
X826943Y641290D02*
D03*
X843943D02*
D03*
X626367Y802157D02*
D03*
X643367D02*
D03*
X297900Y872148D02*
D03*
X314900D02*
D03*
X84959Y631185D02*
D03*
X101959D02*
D03*
D37*
X646250Y465750D02*
D03*
X660750D02*
D03*
Y451750D02*
D03*
X646250D02*
D03*
X280050Y-68050D02*
D03*
X294550D02*
D03*
X247550Y3450D02*
D03*
X262050D02*
D03*
X221800Y-82550D02*
D03*
X236300D02*
D03*
X608805Y-10500D02*
D03*
X623305D02*
D03*
X550555Y-25000D02*
D03*
X565055D02*
D03*
X576305Y61000D02*
D03*
X590805D02*
D03*
X580867Y874407D02*
D03*
X566367D02*
D03*
X613367Y802907D02*
D03*
X598867D02*
D03*
X639117Y888907D02*
D03*
X624617D02*
D03*
X284900Y872898D02*
D03*
X270400D02*
D03*
X310650Y958898D02*
D03*
X296150D02*
D03*
X252400Y944398D02*
D03*
X237900D02*
D03*
X39459Y703435D02*
D03*
X24959D02*
D03*
X71959Y631935D02*
D03*
X57459D02*
D03*
X97709Y717935D02*
D03*
X83209D02*
D03*
D38*
X666250Y431750D02*
D03*
X677250D02*
D03*
D39*
X736000Y389250D02*
D03*
Y406250D02*
D03*
X-12425Y474075D02*
D03*
Y491075D02*
D03*
X130530Y199750D02*
D03*
Y216750D02*
D03*
X205050Y-48550D02*
D03*
Y-65550D02*
D03*
X562805Y-56500D02*
D03*
Y-39500D02*
D03*
X533805Y9000D02*
D03*
Y-8000D02*
D03*
X874950Y71925D02*
D03*
Y88925D02*
D03*
X773000Y90000D02*
D03*
Y73000D02*
D03*
X826500Y391000D02*
D03*
Y374000D02*
D03*
X774193Y670790D02*
D03*
Y653790D02*
D03*
X655867Y854907D02*
D03*
Y871907D02*
D03*
X626867Y920407D02*
D03*
Y903407D02*
D03*
X327400Y924898D02*
D03*
Y941898D02*
D03*
X298400Y990398D02*
D03*
Y973398D02*
D03*
X114484Y683910D02*
D03*
Y700910D02*
D03*
X85334Y749310D02*
D03*
Y732310D02*
D03*
D40*
X276550Y-100550D02*
D03*
Y-91050D02*
D03*
Y-81550D02*
D03*
X250550D02*
D03*
Y-100550D02*
D03*
Y-91050D02*
D03*
X605305Y-43000D02*
D03*
Y-33500D02*
D03*
Y-24000D02*
D03*
X579305D02*
D03*
Y-43000D02*
D03*
Y-33500D02*
D03*
X584367Y906907D02*
D03*
Y897407D02*
D03*
Y887907D02*
D03*
X610367D02*
D03*
Y906907D02*
D03*
Y897407D02*
D03*
X255900Y976898D02*
D03*
Y967398D02*
D03*
Y957898D02*
D03*
X281900D02*
D03*
Y976898D02*
D03*
Y967398D02*
D03*
X42959Y735935D02*
D03*
Y726435D02*
D03*
Y716935D02*
D03*
X68959D02*
D03*
Y735935D02*
D03*
Y726435D02*
D03*
D41*
X240800Y-40550D02*
D03*
X569555Y17000D02*
D03*
X620117Y846907D02*
D03*
X78709Y675935D02*
D03*
X291650Y916898D02*
D03*
D42*
X259850Y-65300D02*
D03*
X247150D02*
D03*
X234450D02*
D03*
X221750D02*
D03*
Y-15800D02*
D03*
X234450D02*
D03*
X247150D02*
D03*
X259850D02*
D03*
X588605Y-7750D02*
D03*
X575905D02*
D03*
X563205D02*
D03*
X550505D02*
D03*
Y41750D02*
D03*
X563205D02*
D03*
X575905D02*
D03*
X588605D02*
D03*
X601067Y871657D02*
D03*
X613767D02*
D03*
X626467D02*
D03*
X639167D02*
D03*
Y822157D02*
D03*
X626467D02*
D03*
X613767D02*
D03*
X601067D02*
D03*
X59659Y700685D02*
D03*
X72359D02*
D03*
X85059D02*
D03*
X97759D02*
D03*
Y651185D02*
D03*
X85059D02*
D03*
X72359D02*
D03*
X59659D02*
D03*
X272600Y892148D02*
D03*
X285300D02*
D03*
X298000D02*
D03*
X310700D02*
D03*
Y941648D02*
D03*
X298000D02*
D03*
X285300D02*
D03*
X272600D02*
D03*
D43*
X622500Y474100D02*
D03*
Y444400D02*
D03*
D44*
X697000Y454300D02*
D03*
X608000Y325500D02*
D03*
X743700Y425000D02*
D03*
X-22716Y112597D02*
D03*
X261046Y-145357D02*
D03*
X630208Y-98499D02*
D03*
X927665Y90225D02*
D03*
X907728Y793464D02*
D03*
X596922Y970925D02*
D03*
X230855Y1014287D02*
D03*
X-15643Y765857D02*
D03*
X974315Y436950D02*
D03*
X-176754Y415860D02*
D03*
D45*
X697000Y479700D02*
D03*
X608000Y350900D02*
D03*
X974315Y411550D02*
D03*
D46*
X718300Y425000D02*
D03*
D47*
X-37284Y133403D02*
D03*
D48*
X236889Y-137507D02*
D03*
X621078Y963075D02*
D03*
D49*
X605792Y-105501D02*
D03*
D50*
X912735Y69675D02*
D03*
D51*
X922658Y772915D02*
D03*
D52*
X255145Y1021713D02*
D03*
D53*
X-357Y786143D02*
D03*
D54*
X847765Y885250D02*
D03*
X985741Y691754D02*
D03*
X986789Y175683D02*
D03*
X847347Y-14235D02*
D03*
X356514Y-174503D02*
D03*
X132727Y-100442D02*
D03*
X-171285Y317110D02*
D03*
X-170044Y552951D02*
D03*
X131860Y972714D02*
D03*
X356522Y1044261D02*
D03*
D55*
X-175425Y441225D02*
D03*
D56*
X563250Y178150D02*
D03*
Y203550D02*
D03*
Y228950D02*
D03*
Y254350D02*
D03*
Y279750D02*
D03*
Y305150D02*
D03*
Y330550D02*
D03*
Y355950D02*
D03*
Y381350D02*
D03*
Y406750D02*
D03*
Y432150D02*
D03*
Y457550D02*
D03*
Y482950D02*
D03*
Y508350D02*
D03*
Y533750D02*
D03*
Y559150D02*
D03*
Y584550D02*
D03*
Y609950D02*
D03*
Y635350D02*
D03*
X309250Y203550D02*
D03*
Y228950D02*
D03*
Y254350D02*
D03*
Y279750D02*
D03*
Y305150D02*
D03*
Y330550D02*
D03*
Y355950D02*
D03*
Y381350D02*
D03*
Y406750D02*
D03*
Y432150D02*
D03*
Y457550D02*
D03*
Y482950D02*
D03*
Y508350D02*
D03*
Y533750D02*
D03*
Y559150D02*
D03*
Y584550D02*
D03*
Y178150D02*
D03*
Y609950D02*
D03*
D57*
Y635350D02*
D03*
M02*
