G04*
G04 #@! TF.GenerationSoftware,Altium Limited,Altium Designer,23.3.1 (30)*
G04*
G04 Layer_Physical_Order=2*
G04 Layer_Color=16711680*
%FSLAX44Y44*%
%MOMM*%
G71*
G04*
G04 #@! TF.SameCoordinates,DEB4E624-6092-4267-9E12-8A2B7123D7A8*
G04*
G04*
G04 #@! TF.FilePolarity,Positive*
G04*
G01*
G75*
%ADD61C,0.5000*%
%ADD62C,1.5300*%
%ADD63R,1.5300X1.5300*%
%ADD64R,1.5300X1.5300*%
%ADD65P,2.1638X4X350.0*%
%ADD66P,2.1638X4X387.0*%
%ADD67P,2.1638X4X61.0*%
%ADD68P,2.1638X4X99.0*%
%ADD69P,2.1638X4X171.0*%
%ADD70P,2.1638X4X242.0*%
%ADD71P,2.1638X4X278.0*%
%ADD72P,2.1638X4X312.0*%
%ADD73C,1.5600*%
%ADD74R,1.5600X1.5600*%
%ADD75C,0.8000*%
G36*
X864374Y951618D02*
X1052772Y686749D01*
X1055729Y180101D01*
X861571Y-84683D01*
X354020Y-245966D01*
X84659Y-157103D01*
X-248197Y319002D01*
X-231302Y588522D01*
X113847Y1037671D01*
X360365Y1112389D01*
X864374Y951618D01*
D02*
G37*
%LPC*%
G36*
X261552Y1033763D02*
X243095Y1028120D01*
X248738Y1009663D01*
X267195Y1015306D01*
X261552Y1033763D01*
D02*
G37*
G36*
X231788Y1023975D02*
X229249Y1023887D01*
X226819Y1023144D01*
X224664Y1021797D01*
X222931Y1019939D01*
X221738Y1017695D01*
X221166Y1015220D01*
X221255Y1012680D01*
X221998Y1010250D01*
X223344Y1008096D01*
X225203Y1006363D01*
X227446Y1005170D01*
X229922Y1004598D01*
X232461Y1004687D01*
X234891Y1005430D01*
X237046Y1006776D01*
X238779Y1008635D01*
X239972Y1010878D01*
X240543Y1013354D01*
X240455Y1015893D01*
X239712Y1018323D01*
X238365Y1020478D01*
X236507Y1022211D01*
X234264Y1023404D01*
X231788Y1023975D01*
D02*
G37*
G36*
X359635Y1091761D02*
X353408D01*
X347235Y1090949D01*
X341221Y1089337D01*
X335468Y1086954D01*
X330075Y1083841D01*
X325135Y1080050D01*
X320733Y1075648D01*
X316942Y1070707D01*
X313829Y1065315D01*
X311446Y1059563D01*
X309834Y1053548D01*
X309022Y1047375D01*
Y1041148D01*
X309834Y1034975D01*
X311446Y1028960D01*
X313829Y1023208D01*
X316942Y1017815D01*
X320733Y1012875D01*
X325135Y1008472D01*
X330075Y1004682D01*
X335468Y1001569D01*
X341221Y999186D01*
X347235Y997574D01*
X353408Y996761D01*
X359635D01*
X365808Y997574D01*
X371823Y999186D01*
X377575Y1001569D01*
X382968Y1004682D01*
X387908Y1008472D01*
X392311Y1012875D01*
X396101Y1017815D01*
X399215Y1023208D01*
X401597Y1028960D01*
X403209Y1034975D01*
X404022Y1041148D01*
Y1047375D01*
X403209Y1053548D01*
X401597Y1059563D01*
X399215Y1065315D01*
X396101Y1070707D01*
X392311Y1075648D01*
X387908Y1080050D01*
X382968Y1083841D01*
X377575Y1086954D01*
X371823Y1089337D01*
X365808Y1090949D01*
X359635Y1091761D01*
D02*
G37*
G36*
X596158Y980628D02*
X593673Y980099D01*
X591409Y978946D01*
X589520Y977246D01*
X588136Y975115D01*
X587351Y972698D01*
X587218Y970161D01*
X587747Y967675D01*
X588900Y965412D01*
X590600Y963523D01*
X592731Y962139D01*
X595148Y961354D01*
X597685Y961221D01*
X600171Y961750D01*
X602435Y962903D01*
X604323Y964603D01*
X605707Y966734D01*
X606492Y969151D01*
X606625Y971688D01*
X606097Y974174D01*
X604943Y976438D01*
X603243Y978326D01*
X601112Y979710D01*
X598695Y980495D01*
X596158Y980628D01*
D02*
G37*
G36*
X614883Y975235D02*
X608919Y956880D01*
X627274Y950916D01*
X633238Y969271D01*
X614883Y975235D01*
D02*
G37*
G36*
X134973Y1020214D02*
X128747D01*
X122573Y1019401D01*
X116559Y1017790D01*
X110806Y1015407D01*
X105414Y1012294D01*
X100474Y1008503D01*
X96071Y1004100D01*
X92280Y999161D01*
X89167Y993768D01*
X86784Y988015D01*
X85173Y982001D01*
X84360Y975828D01*
Y969601D01*
X85173Y963428D01*
X86784Y957413D01*
X89167Y951661D01*
X92280Y946268D01*
X96071Y941328D01*
X100474Y936925D01*
X105414Y933135D01*
X110806Y930021D01*
X116559Y927639D01*
X122573Y926027D01*
X128747Y925214D01*
X134973D01*
X141146Y926027D01*
X147161Y927639D01*
X152914Y930021D01*
X158306Y933135D01*
X163246Y936925D01*
X167649Y941328D01*
X171439Y946268D01*
X174553Y951661D01*
X176935Y957413D01*
X178547Y963428D01*
X179360Y969601D01*
Y975828D01*
X178547Y982001D01*
X176935Y988015D01*
X174553Y993768D01*
X171439Y999161D01*
X167649Y1004100D01*
X163246Y1008503D01*
X158306Y1012294D01*
X152914Y1015407D01*
X147161Y1017790D01*
X141146Y1019401D01*
X134973Y1020214D01*
D02*
G37*
G36*
X850878Y932750D02*
X844652D01*
X838478Y931938D01*
X832464Y930326D01*
X826711Y927943D01*
X821319Y924830D01*
X816379Y921039D01*
X811976Y916637D01*
X808185Y911697D01*
X805072Y906304D01*
X802689Y900552D01*
X801078Y894537D01*
X800265Y888364D01*
Y882137D01*
X801078Y875964D01*
X802689Y869949D01*
X805072Y864197D01*
X808185Y858804D01*
X811976Y853864D01*
X816379Y849461D01*
X821319Y845671D01*
X826711Y842558D01*
X832464Y840175D01*
X838478Y838563D01*
X844652Y837750D01*
X850878D01*
X857051Y838563D01*
X863066Y840175D01*
X868819Y842558D01*
X874211Y845671D01*
X879151Y849461D01*
X883554Y853864D01*
X887344Y858804D01*
X890458Y864197D01*
X892841Y869949D01*
X894452Y875964D01*
X895265Y882137D01*
Y888364D01*
X894452Y894537D01*
X892841Y900552D01*
X890458Y906304D01*
X887344Y911697D01*
X883554Y916637D01*
X879151Y921039D01*
X874211Y924830D01*
X868819Y927943D01*
X863066Y930326D01*
X857051Y931938D01*
X850878Y932750D01*
D02*
G37*
G36*
X907983Y803194D02*
X905456Y802929D01*
X903083Y802018D01*
X901028Y800525D01*
X899429Y798550D01*
X898395Y796229D01*
X897998Y793719D01*
X898263Y791192D01*
X899174Y788820D01*
X900668Y786764D01*
X902642Y785165D01*
X904963Y784132D01*
X907473Y783734D01*
X910000Y784000D01*
X912372Y784911D01*
X914428Y786404D01*
X916027Y788379D01*
X917060Y790700D01*
X917458Y793210D01*
X917192Y795736D01*
X916282Y798109D01*
X914788Y800164D01*
X912813Y801763D01*
X910492Y802797D01*
X907983Y803194D01*
D02*
G37*
G36*
X-2256Y799657D02*
X-13871Y784243D01*
X1542Y772628D01*
X13157Y788042D01*
X-2256Y799657D01*
D02*
G37*
G36*
X924792Y786395D02*
X909178Y775050D01*
X920523Y759436D01*
X936137Y770780D01*
X924792Y786395D01*
D02*
G37*
G36*
X-15728Y775590D02*
X-18244Y775237D01*
X-20583Y774244D01*
X-22585Y772680D01*
X-24114Y770650D01*
X-25066Y768294D01*
X-25376Y765772D01*
X-25022Y763256D01*
X-24030Y760917D01*
X-22465Y758915D01*
X-20436Y757386D01*
X-18080Y756434D01*
X-15558Y756124D01*
X-13042Y756478D01*
X-10703Y757471D01*
X-8701Y759035D01*
X-7172Y761065D01*
X-6220Y763420D01*
X-5910Y765942D01*
X-6264Y768458D01*
X-7257Y770797D01*
X-8821Y772800D01*
X-10850Y774329D01*
X-13206Y775281D01*
X-15728Y775590D01*
D02*
G37*
G36*
X988855Y739254D02*
X982628D01*
X976455Y738441D01*
X970440Y736830D01*
X964688Y734447D01*
X959295Y731334D01*
X954355Y727543D01*
X949952Y723140D01*
X946162Y718200D01*
X943049Y712808D01*
X940666Y707055D01*
X939054Y701041D01*
X938241Y694867D01*
Y688641D01*
X939054Y682467D01*
X940666Y676453D01*
X943049Y670700D01*
X946162Y665308D01*
X949952Y660368D01*
X954355Y655965D01*
X959295Y652175D01*
X964688Y649061D01*
X970440Y646678D01*
X976455Y645067D01*
X982628Y644254D01*
X988855D01*
X995028Y645067D01*
X1001042Y646678D01*
X1006795Y649061D01*
X1012188Y652175D01*
X1017128Y655965D01*
X1021530Y660368D01*
X1025321Y665308D01*
X1028434Y670700D01*
X1030817Y676453D01*
X1032429Y682467D01*
X1033241Y688641D01*
Y694867D01*
X1032429Y701041D01*
X1030817Y707055D01*
X1028434Y712808D01*
X1025321Y718200D01*
X1021530Y723140D01*
X1017128Y727543D01*
X1012188Y731334D01*
X1006795Y734447D01*
X1001042Y736830D01*
X995028Y738441D01*
X988855Y739254D01*
D02*
G37*
G36*
X319050Y645150D02*
X299450D01*
Y625550D01*
X319050D01*
Y645150D01*
D02*
G37*
G36*
X564540Y619750D02*
X561960D01*
X559467Y619082D01*
X557233Y617792D01*
X555408Y615967D01*
X554118Y613733D01*
X553450Y611240D01*
Y608660D01*
X554118Y606167D01*
X555408Y603933D01*
X557233Y602108D01*
X559467Y600818D01*
X561960Y600150D01*
X564540D01*
X567033Y600818D01*
X569267Y602108D01*
X571092Y603933D01*
X572382Y606167D01*
X573050Y608660D01*
Y611240D01*
X572382Y613733D01*
X571092Y615967D01*
X569267Y617792D01*
X567033Y619082D01*
X564540Y619750D01*
D02*
G37*
G36*
X310540D02*
X307960D01*
X305467Y619082D01*
X303233Y617792D01*
X301408Y615967D01*
X300118Y613733D01*
X299450Y611240D01*
Y608660D01*
X300118Y606167D01*
X301408Y603933D01*
X303233Y602108D01*
X305467Y600818D01*
X307960Y600150D01*
X310540D01*
X313033Y600818D01*
X315267Y602108D01*
X317092Y603933D01*
X318382Y606167D01*
X319050Y608660D01*
Y611240D01*
X318382Y613733D01*
X317092Y615967D01*
X315267Y617792D01*
X313033Y619082D01*
X310540Y619750D01*
D02*
G37*
G36*
X564540Y594350D02*
X561960D01*
X559467Y593682D01*
X557233Y592392D01*
X555408Y590567D01*
X554118Y588333D01*
X553450Y585840D01*
Y583260D01*
X554118Y580767D01*
X555408Y578533D01*
X557233Y576708D01*
X559467Y575418D01*
X561960Y574750D01*
X564540D01*
X567033Y575418D01*
X569267Y576708D01*
X571092Y578533D01*
X572382Y580767D01*
X573050Y583260D01*
Y585840D01*
X572382Y588333D01*
X571092Y590567D01*
X569267Y592392D01*
X567033Y593682D01*
X564540Y594350D01*
D02*
G37*
G36*
X310540D02*
X307960D01*
X305467Y593682D01*
X303233Y592392D01*
X301408Y590567D01*
X300118Y588333D01*
X299450Y585840D01*
Y583260D01*
X300118Y580767D01*
X301408Y578533D01*
X303233Y576708D01*
X305467Y575418D01*
X307960Y574750D01*
X310540D01*
X313033Y575418D01*
X315267Y576708D01*
X317092Y578533D01*
X318382Y580767D01*
X319050Y583260D01*
Y585840D01*
X318382Y588333D01*
X317092Y590567D01*
X315267Y592392D01*
X313033Y593682D01*
X310540Y594350D01*
D02*
G37*
G36*
X564540Y568950D02*
X561960D01*
X559467Y568282D01*
X557233Y566992D01*
X555408Y565167D01*
X554118Y562933D01*
X553450Y560440D01*
Y557860D01*
X554118Y555367D01*
X555408Y553133D01*
X557233Y551308D01*
X559467Y550018D01*
X561960Y549350D01*
X564540D01*
X567033Y550018D01*
X569267Y551308D01*
X571092Y553133D01*
X572382Y555367D01*
X573050Y557860D01*
Y560440D01*
X572382Y562933D01*
X571092Y565167D01*
X569267Y566992D01*
X567033Y568282D01*
X564540Y568950D01*
D02*
G37*
G36*
X310540D02*
X307960D01*
X305467Y568282D01*
X303233Y566992D01*
X301408Y565167D01*
X300118Y562933D01*
X299450Y560440D01*
Y557860D01*
X300118Y555367D01*
X301408Y553133D01*
X303233Y551308D01*
X305467Y550018D01*
X307960Y549350D01*
X310540D01*
X313033Y550018D01*
X315267Y551308D01*
X317092Y553133D01*
X318382Y555367D01*
X319050Y557860D01*
Y560440D01*
X318382Y562933D01*
X317092Y565167D01*
X315267Y566992D01*
X313033Y568282D01*
X310540Y568950D01*
D02*
G37*
G36*
X564540Y543550D02*
X561960D01*
X559467Y542882D01*
X557233Y541592D01*
X555408Y539767D01*
X554118Y537533D01*
X553450Y535040D01*
Y532460D01*
X554118Y529967D01*
X555408Y527733D01*
X557233Y525908D01*
X559467Y524618D01*
X561960Y523950D01*
X564540D01*
X567033Y524618D01*
X569267Y525908D01*
X571092Y527733D01*
X572382Y529967D01*
X573050Y532460D01*
Y535040D01*
X572382Y537533D01*
X571092Y539767D01*
X569267Y541592D01*
X567033Y542882D01*
X564540Y543550D01*
D02*
G37*
G36*
X310540D02*
X307960D01*
X305467Y542882D01*
X303233Y541592D01*
X301408Y539767D01*
X300118Y537533D01*
X299450Y535040D01*
Y532460D01*
X300118Y529967D01*
X301408Y527733D01*
X303233Y525908D01*
X305467Y524618D01*
X307960Y523950D01*
X310540D01*
X313033Y524618D01*
X315267Y525908D01*
X317092Y527733D01*
X318382Y529967D01*
X319050Y532460D01*
Y535040D01*
X318382Y537533D01*
X317092Y539767D01*
X315267Y541592D01*
X313033Y542882D01*
X310540Y543550D01*
D02*
G37*
G36*
X-166931Y600451D02*
X-173157D01*
X-179331Y599638D01*
X-185345Y598027D01*
X-191098Y595644D01*
X-196490Y592531D01*
X-201430Y588740D01*
X-205833Y584337D01*
X-209623Y579397D01*
X-212737Y574005D01*
X-215119Y568252D01*
X-216731Y562238D01*
X-217544Y556064D01*
Y549838D01*
X-216731Y543664D01*
X-215119Y537650D01*
X-212737Y531897D01*
X-209623Y526505D01*
X-205833Y521565D01*
X-201430Y517162D01*
X-196490Y513372D01*
X-191098Y510258D01*
X-185345Y507875D01*
X-179331Y506264D01*
X-173157Y505451D01*
X-166931D01*
X-160757Y506264D01*
X-154743Y507875D01*
X-148990Y510258D01*
X-143598Y513372D01*
X-138658Y517162D01*
X-134255Y521565D01*
X-130464Y526505D01*
X-127351Y531897D01*
X-124968Y537650D01*
X-123357Y543664D01*
X-122544Y549838D01*
Y556064D01*
X-123357Y562238D01*
X-124968Y568252D01*
X-127351Y574005D01*
X-130464Y579397D01*
X-134255Y584337D01*
X-138658Y588740D01*
X-143598Y592531D01*
X-148990Y595644D01*
X-154743Y598027D01*
X-160757Y599638D01*
X-166931Y600451D01*
D02*
G37*
G36*
X564540Y518150D02*
X561960D01*
X559467Y517482D01*
X557233Y516192D01*
X555408Y514367D01*
X554118Y512133D01*
X553450Y509640D01*
Y507060D01*
X554118Y504567D01*
X555408Y502333D01*
X557233Y500508D01*
X559467Y499218D01*
X561960Y498550D01*
X564540D01*
X567033Y499218D01*
X569267Y500508D01*
X571092Y502333D01*
X572382Y504567D01*
X573050Y507060D01*
Y509640D01*
X572382Y512133D01*
X571092Y514367D01*
X569267Y516192D01*
X567033Y517482D01*
X564540Y518150D01*
D02*
G37*
G36*
X310540D02*
X307960D01*
X305467Y517482D01*
X303233Y516192D01*
X301408Y514367D01*
X300118Y512133D01*
X299450Y509640D01*
Y507060D01*
X300118Y504567D01*
X301408Y502333D01*
X303233Y500508D01*
X305467Y499218D01*
X307960Y498550D01*
X310540D01*
X313033Y499218D01*
X315267Y500508D01*
X317092Y502333D01*
X318382Y504567D01*
X319050Y507060D01*
Y509640D01*
X318382Y512133D01*
X317092Y514367D01*
X315267Y516192D01*
X313033Y517482D01*
X310540Y518150D01*
D02*
G37*
G36*
Y492750D02*
X307960D01*
X305467Y492082D01*
X303233Y490792D01*
X301408Y488967D01*
X300118Y486733D01*
X299450Y484240D01*
Y481660D01*
X300118Y479167D01*
X301408Y476933D01*
X303233Y475108D01*
X305467Y473818D01*
X307960Y473150D01*
X310540D01*
X313033Y473818D01*
X315267Y475108D01*
X317092Y476933D01*
X318382Y479167D01*
X319050Y481660D01*
Y484240D01*
X318382Y486733D01*
X317092Y488967D01*
X315267Y490792D01*
X313033Y492082D01*
X310540Y492750D01*
D02*
G37*
G36*
X706650Y489350D02*
X687350D01*
Y470050D01*
X706650D01*
Y489350D01*
D02*
G37*
G36*
X564540Y467350D02*
X561960D01*
X559467Y466682D01*
X557233Y465392D01*
X555408Y463567D01*
X554118Y461333D01*
X553450Y458840D01*
Y456260D01*
X554118Y453767D01*
X555408Y451533D01*
X557233Y449708D01*
X559467Y448418D01*
X561960Y447750D01*
X564540D01*
X567033Y448418D01*
X569267Y449708D01*
X571092Y451533D01*
X572382Y453767D01*
X573050Y456260D01*
Y458840D01*
X572382Y461333D01*
X571092Y463567D01*
X569267Y465392D01*
X567033Y466682D01*
X564540Y467350D01*
D02*
G37*
G36*
X310540D02*
X307960D01*
X305467Y466682D01*
X303233Y465392D01*
X301408Y463567D01*
X300118Y461333D01*
X299450Y458840D01*
Y456260D01*
X300118Y453767D01*
X301408Y451533D01*
X303233Y449708D01*
X305467Y448418D01*
X307960Y447750D01*
X310540D01*
X313033Y448418D01*
X315267Y449708D01*
X317092Y451533D01*
X318382Y453767D01*
X319050Y456260D01*
Y458840D01*
X318382Y461333D01*
X317092Y463567D01*
X315267Y465392D01*
X313033Y466682D01*
X310540Y467350D01*
D02*
G37*
G36*
X698270Y463950D02*
X695730D01*
X693275Y463292D01*
X691075Y462022D01*
X689278Y460225D01*
X688008Y458025D01*
X687350Y455570D01*
Y453030D01*
X688008Y450575D01*
X689278Y448375D01*
X691075Y446578D01*
X693275Y445308D01*
X695730Y444650D01*
X698270D01*
X700725Y445308D01*
X702925Y446578D01*
X704722Y448375D01*
X705992Y450575D01*
X706650Y453030D01*
Y455570D01*
X705992Y458025D01*
X704722Y460225D01*
X702925Y462022D01*
X700725Y463292D01*
X698270Y463950D01*
D02*
G37*
G36*
X-184557Y451367D02*
X-185567Y432093D01*
X-166293Y431083D01*
X-165283Y450357D01*
X-184557Y451367D01*
D02*
G37*
G36*
X975585Y446600D02*
X973045D01*
X970590Y445942D01*
X968390Y444672D01*
X966593Y442875D01*
X965323Y440675D01*
X964665Y438220D01*
Y435680D01*
X965323Y433225D01*
X966593Y431025D01*
X968390Y429228D01*
X970590Y427958D01*
X973045Y427300D01*
X975585D01*
X978040Y427958D01*
X980240Y429228D01*
X982037Y431025D01*
X983307Y433225D01*
X983965Y435680D01*
Y438220D01*
X983307Y440675D01*
X982037Y442875D01*
X980240Y444672D01*
X978040Y445942D01*
X975585Y446600D01*
D02*
G37*
G36*
X564540Y441950D02*
X561960D01*
X559467Y441282D01*
X557233Y439992D01*
X555408Y438167D01*
X554118Y435933D01*
X553450Y433440D01*
Y430860D01*
X554118Y428367D01*
X555408Y426133D01*
X557233Y424308D01*
X559467Y423018D01*
X561960Y422350D01*
X564540D01*
X567033Y423018D01*
X569267Y424308D01*
X571092Y426133D01*
X572382Y428367D01*
X573050Y430860D01*
Y433440D01*
X572382Y435933D01*
X571092Y438167D01*
X569267Y439992D01*
X567033Y441282D01*
X564540Y441950D01*
D02*
G37*
G36*
X310540D02*
X307960D01*
X305467Y441282D01*
X303233Y439992D01*
X301408Y438167D01*
X300118Y435933D01*
X299450Y433440D01*
Y430860D01*
X300118Y428367D01*
X301408Y426133D01*
X303233Y424308D01*
X305467Y423018D01*
X307960Y422350D01*
X310540D01*
X313033Y423018D01*
X315267Y424308D01*
X317092Y426133D01*
X318382Y428367D01*
X319050Y430860D01*
Y433440D01*
X318382Y435933D01*
X317092Y438167D01*
X315267Y439992D01*
X313033Y441282D01*
X310540Y441950D01*
D02*
G37*
G36*
X727950Y434650D02*
X708650D01*
Y429588D01*
X705204D01*
X703448Y429239D01*
X701960Y428244D01*
X663256Y389540D01*
X662261Y388052D01*
X661912Y386296D01*
Y358897D01*
X661413Y358399D01*
X660500Y356194D01*
Y353806D01*
X661413Y351601D01*
X663101Y349913D01*
X665306Y349000D01*
X667693D01*
X669899Y349913D01*
X671587Y351601D01*
X672500Y353806D01*
Y356194D01*
X671587Y358399D01*
X671088Y358897D01*
Y384395D01*
X707104Y420412D01*
X708650D01*
Y415350D01*
X727950D01*
Y434650D01*
D02*
G37*
G36*
X-177518Y425563D02*
X-180003Y425035D01*
X-182267Y423881D01*
X-184156Y422181D01*
X-185539Y420050D01*
X-186325Y417634D01*
X-186458Y415096D01*
X-185929Y412611D01*
X-184776Y410347D01*
X-183076Y408459D01*
X-180944Y407075D01*
X-178528Y406289D01*
X-175991Y406157D01*
X-173505Y406685D01*
X-171241Y407838D01*
X-169353Y409539D01*
X-167969Y411670D01*
X-167184Y414086D01*
X-167051Y416623D01*
X-167579Y419109D01*
X-168733Y421373D01*
X-170433Y423261D01*
X-172564Y424645D01*
X-174981Y425430D01*
X-177518Y425563D01*
D02*
G37*
G36*
X983965Y421200D02*
X964665D01*
Y401900D01*
X983965D01*
Y421200D01*
D02*
G37*
G36*
X564540Y416550D02*
X561960D01*
X559467Y415882D01*
X557233Y414592D01*
X555408Y412767D01*
X554118Y410533D01*
X553450Y408040D01*
Y405460D01*
X554118Y402967D01*
X555408Y400733D01*
X557233Y398908D01*
X559467Y397618D01*
X561960Y396950D01*
X564540D01*
X567033Y397618D01*
X569267Y398908D01*
X571092Y400733D01*
X572382Y402967D01*
X573050Y405460D01*
Y408040D01*
X572382Y410533D01*
X571092Y412767D01*
X569267Y414592D01*
X567033Y415882D01*
X564540Y416550D01*
D02*
G37*
G36*
X310540D02*
X307960D01*
X305467Y415882D01*
X303233Y414592D01*
X301408Y412767D01*
X300118Y410533D01*
X299450Y408040D01*
Y405460D01*
X300118Y402967D01*
X301408Y400733D01*
X303233Y398908D01*
X305467Y397618D01*
X307960Y396950D01*
X310540D01*
X313033Y397618D01*
X315267Y398908D01*
X317092Y400733D01*
X318382Y402967D01*
X319050Y405460D01*
Y408040D01*
X318382Y410533D01*
X317092Y412767D01*
X315267Y414592D01*
X313033Y415882D01*
X310540Y416550D01*
D02*
G37*
G36*
X564540Y391150D02*
X561960D01*
X559467Y390482D01*
X557233Y389192D01*
X555408Y387367D01*
X554118Y385133D01*
X553450Y382640D01*
Y380060D01*
X554118Y377567D01*
X555408Y375333D01*
X557233Y373508D01*
X559467Y372218D01*
X561960Y371550D01*
X564540D01*
X567033Y372218D01*
X569267Y373508D01*
X571092Y375333D01*
X572382Y377567D01*
X573050Y380060D01*
Y382640D01*
X572382Y385133D01*
X571092Y387367D01*
X569267Y389192D01*
X567033Y390482D01*
X564540Y391150D01*
D02*
G37*
G36*
X310540D02*
X307960D01*
X305467Y390482D01*
X303233Y389192D01*
X301408Y387367D01*
X300118Y385133D01*
X299450Y382640D01*
Y380060D01*
X300118Y377567D01*
X301408Y375333D01*
X303233Y373508D01*
X305467Y372218D01*
X307960Y371550D01*
X310540D01*
X313033Y372218D01*
X315267Y373508D01*
X317092Y375333D01*
X318382Y377567D01*
X319050Y380060D01*
Y382640D01*
X318382Y385133D01*
X317092Y387367D01*
X315267Y389192D01*
X313033Y390482D01*
X310540Y391150D01*
D02*
G37*
G36*
X564540Y365750D02*
X561960D01*
X559467Y365082D01*
X557233Y363792D01*
X555408Y361967D01*
X554118Y359733D01*
X553450Y357240D01*
Y354660D01*
X554118Y352167D01*
X555408Y349933D01*
X557233Y348108D01*
X559467Y346818D01*
X561960Y346150D01*
X564540D01*
X567033Y346818D01*
X569267Y348108D01*
X571092Y349933D01*
X572382Y352167D01*
X573050Y354660D01*
Y357240D01*
X572382Y359733D01*
X571092Y361967D01*
X569267Y363792D01*
X567033Y365082D01*
X564540Y365750D01*
D02*
G37*
G36*
X310540D02*
X307960D01*
X305467Y365082D01*
X303233Y363792D01*
X301408Y361967D01*
X300118Y359733D01*
X299450Y357240D01*
Y354660D01*
X300118Y352167D01*
X301408Y349933D01*
X303233Y348108D01*
X305467Y346818D01*
X307960Y346150D01*
X310540D01*
X313033Y346818D01*
X315267Y348108D01*
X317092Y349933D01*
X318382Y352167D01*
X319050Y354660D01*
Y357240D01*
X318382Y359733D01*
X317092Y361967D01*
X315267Y363792D01*
X313033Y365082D01*
X310540Y365750D01*
D02*
G37*
G36*
X656193Y425000D02*
X653807D01*
X651601Y424087D01*
X649913Y422399D01*
X649000Y420193D01*
Y419489D01*
X604756Y375244D01*
X603761Y373756D01*
X603412Y372000D01*
Y360550D01*
X598350D01*
Y341250D01*
X617650D01*
Y360550D01*
X612588D01*
Y370099D01*
X655489Y413000D01*
X656193D01*
X658399Y413913D01*
X660087Y415601D01*
X661000Y417807D01*
Y420193D01*
X660087Y422399D01*
X658399Y424087D01*
X656193Y425000D01*
D02*
G37*
G36*
X564540Y340350D02*
X561960D01*
X559467Y339682D01*
X557233Y338392D01*
X555408Y336567D01*
X554118Y334333D01*
X553450Y331840D01*
Y329260D01*
X554118Y326767D01*
X555408Y324533D01*
X557233Y322708D01*
X559467Y321418D01*
X561960Y320750D01*
X564540D01*
X567033Y321418D01*
X569267Y322708D01*
X571092Y324533D01*
X572382Y326767D01*
X573050Y329260D01*
Y331840D01*
X572382Y334333D01*
X571092Y336567D01*
X569267Y338392D01*
X567033Y339682D01*
X564540Y340350D01*
D02*
G37*
G36*
X310540D02*
X307960D01*
X305467Y339682D01*
X303233Y338392D01*
X301408Y336567D01*
X300118Y334333D01*
X299450Y331840D01*
Y329260D01*
X300118Y326767D01*
X301408Y324533D01*
X303233Y322708D01*
X305467Y321418D01*
X307960Y320750D01*
X310540D01*
X313033Y321418D01*
X315267Y322708D01*
X317092Y324533D01*
X318382Y326767D01*
X319050Y329260D01*
Y331840D01*
X318382Y334333D01*
X317092Y336567D01*
X315267Y338392D01*
X313033Y339682D01*
X310540Y340350D01*
D02*
G37*
G36*
X609271Y335150D02*
X606730D01*
X604275Y334492D01*
X602075Y333222D01*
X600278Y331425D01*
X599008Y329225D01*
X598350Y326770D01*
Y324230D01*
X599008Y321775D01*
X600278Y319575D01*
X602075Y317778D01*
X604275Y316508D01*
X606730Y315850D01*
X609271D01*
X611725Y316508D01*
X613925Y317778D01*
X615722Y319575D01*
X616992Y321775D01*
X617650Y324230D01*
Y326770D01*
X616992Y329225D01*
X615722Y331425D01*
X613925Y333222D01*
X611725Y334492D01*
X609271Y335150D01*
D02*
G37*
G36*
X564540Y314950D02*
X561960D01*
X559467Y314282D01*
X557233Y312992D01*
X555408Y311167D01*
X554118Y308933D01*
X553450Y306440D01*
Y303860D01*
X554118Y301367D01*
X555408Y299133D01*
X557233Y297308D01*
X559467Y296018D01*
X561960Y295350D01*
X564540D01*
X567033Y296018D01*
X569267Y297308D01*
X571092Y299133D01*
X572382Y301367D01*
X573050Y303860D01*
Y306440D01*
X572382Y308933D01*
X571092Y311167D01*
X569267Y312992D01*
X567033Y314282D01*
X564540Y314950D01*
D02*
G37*
G36*
Y289550D02*
X561960D01*
X559467Y288882D01*
X557233Y287592D01*
X555408Y285767D01*
X554118Y283533D01*
X553450Y281040D01*
Y278460D01*
X554118Y275967D01*
X555408Y273733D01*
X557233Y271908D01*
X559467Y270618D01*
X561960Y269950D01*
X564540D01*
X567033Y270618D01*
X569267Y271908D01*
X571092Y273733D01*
X572382Y275967D01*
X573050Y278460D01*
Y281040D01*
X572382Y283533D01*
X571092Y285767D01*
X569267Y287592D01*
X567033Y288882D01*
X564540Y289550D01*
D02*
G37*
G36*
X310540D02*
X307960D01*
X305467Y288882D01*
X303233Y287592D01*
X301408Y285767D01*
X300118Y283533D01*
X299450Y281040D01*
Y278460D01*
X300118Y275967D01*
X301408Y273733D01*
X303233Y271908D01*
X305467Y270618D01*
X307960Y269950D01*
X310540D01*
X313033Y270618D01*
X315267Y271908D01*
X317092Y273733D01*
X318382Y275967D01*
X319050Y278460D01*
Y281040D01*
X318382Y283533D01*
X317092Y285767D01*
X315267Y287592D01*
X313033Y288882D01*
X310540Y289550D01*
D02*
G37*
G36*
X-168172Y364610D02*
X-174398D01*
X-180572Y363797D01*
X-186586Y362186D01*
X-192339Y359803D01*
X-197731Y356690D01*
X-202671Y352899D01*
X-207074Y348496D01*
X-210865Y343557D01*
X-213978Y338164D01*
X-216361Y332411D01*
X-217972Y326397D01*
X-218785Y320224D01*
Y313997D01*
X-217972Y307824D01*
X-216361Y301809D01*
X-213978Y296056D01*
X-210865Y290664D01*
X-207074Y285724D01*
X-202671Y281321D01*
X-197731Y277531D01*
X-192339Y274417D01*
X-186586Y272035D01*
X-180572Y270423D01*
X-174398Y269610D01*
X-168172D01*
X-161998Y270423D01*
X-155984Y272035D01*
X-150231Y274417D01*
X-144839Y277531D01*
X-139899Y281321D01*
X-135496Y285724D01*
X-131706Y290664D01*
X-128592Y296056D01*
X-126209Y301809D01*
X-124598Y307824D01*
X-123785Y313997D01*
Y320224D01*
X-124598Y326397D01*
X-126209Y332411D01*
X-128592Y338164D01*
X-131706Y343557D01*
X-135496Y348496D01*
X-139899Y352899D01*
X-144839Y356690D01*
X-150231Y359803D01*
X-155984Y362186D01*
X-161998Y363797D01*
X-168172Y364610D01*
D02*
G37*
G36*
X564540Y264150D02*
X561960D01*
X559467Y263482D01*
X557233Y262192D01*
X555408Y260367D01*
X554118Y258133D01*
X553450Y255640D01*
Y253060D01*
X554118Y250567D01*
X555408Y248333D01*
X557233Y246508D01*
X559467Y245218D01*
X561960Y244550D01*
X564540D01*
X567033Y245218D01*
X569267Y246508D01*
X571092Y248333D01*
X572382Y250567D01*
X573050Y253060D01*
Y255640D01*
X572382Y258133D01*
X571092Y260367D01*
X569267Y262192D01*
X567033Y263482D01*
X564540Y264150D01*
D02*
G37*
G36*
X310540D02*
X307960D01*
X305467Y263482D01*
X303233Y262192D01*
X301408Y260367D01*
X300118Y258133D01*
X299450Y255640D01*
Y253060D01*
X300118Y250567D01*
X301408Y248333D01*
X303233Y246508D01*
X305467Y245218D01*
X307960Y244550D01*
X310540D01*
X313033Y245218D01*
X315267Y246508D01*
X317092Y248333D01*
X318382Y250567D01*
X319050Y253060D01*
Y255640D01*
X318382Y258133D01*
X317092Y260367D01*
X315267Y262192D01*
X313033Y263482D01*
X310540Y264150D01*
D02*
G37*
G36*
X564540Y238750D02*
X561960D01*
X559467Y238082D01*
X557233Y236792D01*
X555408Y234967D01*
X554118Y232733D01*
X553450Y230240D01*
Y227660D01*
X554118Y225167D01*
X555408Y222933D01*
X557233Y221108D01*
X559467Y219818D01*
X561960Y219150D01*
X564540D01*
X567033Y219818D01*
X569267Y221108D01*
X571092Y222933D01*
X572382Y225167D01*
X573050Y227660D01*
Y230240D01*
X572382Y232733D01*
X571092Y234967D01*
X569267Y236792D01*
X567033Y238082D01*
X564540Y238750D01*
D02*
G37*
G36*
X310540D02*
X307960D01*
X305467Y238082D01*
X303233Y236792D01*
X301408Y234967D01*
X300118Y232733D01*
X299450Y230240D01*
Y227660D01*
X300118Y225167D01*
X301408Y222933D01*
X303233Y221108D01*
X305467Y219818D01*
X307960Y219150D01*
X310540D01*
X313033Y219818D01*
X315267Y221108D01*
X317092Y222933D01*
X318382Y225167D01*
X319050Y227660D01*
Y230240D01*
X318382Y232733D01*
X317092Y234967D01*
X315267Y236792D01*
X313033Y238082D01*
X310540Y238750D01*
D02*
G37*
G36*
X564540Y213350D02*
X561960D01*
X559467Y212682D01*
X557233Y211392D01*
X555408Y209567D01*
X554118Y207333D01*
X553450Y204840D01*
Y202260D01*
X554118Y199767D01*
X555408Y197533D01*
X557233Y195708D01*
X559467Y194418D01*
X561960Y193750D01*
X564540D01*
X567033Y194418D01*
X569267Y195708D01*
X571092Y197533D01*
X572382Y199767D01*
X573050Y202260D01*
Y204840D01*
X572382Y207333D01*
X571092Y209567D01*
X569267Y211392D01*
X567033Y212682D01*
X564540Y213350D01*
D02*
G37*
G36*
X310540D02*
X307960D01*
X305467Y212682D01*
X303233Y211392D01*
X301408Y209567D01*
X300118Y207333D01*
X299450Y204840D01*
Y202260D01*
X300118Y199767D01*
X301408Y197533D01*
X303233Y195708D01*
X305467Y194418D01*
X307960Y193750D01*
X310540D01*
X313033Y194418D01*
X315267Y195708D01*
X317092Y197533D01*
X318382Y199767D01*
X319050Y202260D01*
Y204840D01*
X318382Y207333D01*
X317092Y209567D01*
X315267Y211392D01*
X313033Y212682D01*
X310540Y213350D01*
D02*
G37*
G36*
X564540Y187950D02*
X561960D01*
X559467Y187282D01*
X557233Y185992D01*
X555408Y184167D01*
X554118Y181933D01*
X553450Y179440D01*
Y176860D01*
X554118Y174367D01*
X555408Y172133D01*
X557233Y170308D01*
X559467Y169018D01*
X561960Y168350D01*
X564540D01*
X567033Y169018D01*
X569267Y170308D01*
X571092Y172133D01*
X572382Y174367D01*
X573050Y176860D01*
Y179440D01*
X572382Y181933D01*
X571092Y184167D01*
X569267Y185992D01*
X567033Y187282D01*
X564540Y187950D01*
D02*
G37*
G36*
X310540D02*
X307960D01*
X305467Y187282D01*
X303233Y185992D01*
X301408Y184167D01*
X300118Y181933D01*
X299450Y179440D01*
Y176860D01*
X300118Y174367D01*
X301408Y172133D01*
X303233Y170308D01*
X305467Y169018D01*
X307960Y168350D01*
X310540D01*
X313033Y169018D01*
X315267Y170308D01*
X317092Y172133D01*
X318382Y174367D01*
X319050Y176860D01*
Y179440D01*
X318382Y181933D01*
X317092Y184167D01*
X315267Y185992D01*
X313033Y187282D01*
X310540Y187950D01*
D02*
G37*
G36*
X989902Y223183D02*
X983676D01*
X977502Y222371D01*
X971488Y220759D01*
X965735Y218376D01*
X960343Y215263D01*
X955403Y211472D01*
X951000Y207070D01*
X947209Y202130D01*
X944096Y196737D01*
X941713Y190985D01*
X940101Y184970D01*
X939289Y178797D01*
Y172570D01*
X940101Y166397D01*
X941713Y160382D01*
X944096Y154630D01*
X947209Y149237D01*
X951000Y144297D01*
X955403Y139894D01*
X960343Y136104D01*
X965735Y132991D01*
X971488Y130608D01*
X977502Y128996D01*
X983676Y128183D01*
X989902D01*
X996076Y128996D01*
X1002090Y130608D01*
X1007843Y132991D01*
X1013235Y136104D01*
X1018175Y139894D01*
X1022578Y144297D01*
X1026368Y149237D01*
X1029482Y154630D01*
X1031864Y160382D01*
X1033476Y166397D01*
X1034289Y172570D01*
Y178797D01*
X1033476Y184970D01*
X1031864Y190985D01*
X1029482Y196737D01*
X1026368Y202130D01*
X1022578Y207070D01*
X1018175Y211472D01*
X1013235Y215263D01*
X1007843Y218376D01*
X1002090Y220759D01*
X996076Y222371D01*
X989902Y223183D01*
D02*
G37*
G36*
X-34915Y146843D02*
X-50724Y135773D01*
X-39654Y119963D01*
X-23845Y131033D01*
X-34915Y146843D01*
D02*
G37*
G36*
X-22291Y122321D02*
X-24822Y122099D01*
X-27210Y121230D01*
X-29291Y119773D01*
X-30925Y117826D01*
X-31998Y115524D01*
X-32440Y113021D01*
X-32218Y110490D01*
X-31349Y108103D01*
X-29892Y106021D01*
X-27945Y104388D01*
X-25642Y103314D01*
X-23140Y102873D01*
X-20609Y103094D01*
X-18221Y103963D01*
X-16140Y105421D01*
X-14507Y107367D01*
X-13433Y109670D01*
X-12992Y112172D01*
X-13213Y114704D01*
X-14082Y117091D01*
X-15539Y119172D01*
X-17486Y120806D01*
X-19789Y121880D01*
X-22291Y122321D01*
D02*
G37*
G36*
X927410Y99955D02*
X924900Y99557D01*
X922579Y98524D01*
X920604Y96924D01*
X919111Y94869D01*
X918201Y92497D01*
X917935Y89970D01*
X918332Y87460D01*
X919366Y85139D01*
X920965Y83164D01*
X923020Y81671D01*
X925393Y80760D01*
X927920Y80495D01*
X930429Y80892D01*
X932750Y81926D01*
X934725Y83525D01*
X936218Y85580D01*
X937129Y87952D01*
X937395Y90479D01*
X936997Y92989D01*
X935964Y95310D01*
X934365Y97285D01*
X932309Y98778D01*
X929937Y99689D01*
X927410Y99955D01*
D02*
G37*
G36*
X910600Y83155D02*
X899256Y67541D01*
X914870Y56196D01*
X926214Y71810D01*
X910600Y83155D01*
D02*
G37*
G36*
X850461Y33265D02*
X844234D01*
X838061Y32452D01*
X832046Y30840D01*
X826294Y28457D01*
X820901Y25344D01*
X815961Y21554D01*
X811558Y17151D01*
X807768Y12211D01*
X804655Y6818D01*
X802272Y1066D01*
X800660Y-4949D01*
X799847Y-11122D01*
Y-17349D01*
X800660Y-23522D01*
X802272Y-29536D01*
X804655Y-35289D01*
X807768Y-40682D01*
X811558Y-45622D01*
X815961Y-50024D01*
X820901Y-53815D01*
X826294Y-56928D01*
X832046Y-59311D01*
X838061Y-60923D01*
X844234Y-61735D01*
X850461D01*
X856634Y-60923D01*
X862649Y-59311D01*
X868401Y-56928D01*
X873794Y-53815D01*
X878734Y-50024D01*
X883137Y-45622D01*
X886927Y-40682D01*
X890040Y-35289D01*
X892423Y-29536D01*
X894035Y-23522D01*
X894847Y-17349D01*
Y-11122D01*
X894035Y-4949D01*
X892423Y1066D01*
X890040Y6818D01*
X886927Y12211D01*
X883137Y17151D01*
X878734Y21554D01*
X873794Y25344D01*
X868401Y28457D01*
X862649Y30840D01*
X856634Y32452D01*
X850461Y33265D01*
D02*
G37*
G36*
X631310Y-88829D02*
X628769Y-88873D01*
X626327Y-89573D01*
X624149Y-90882D01*
X622384Y-92710D01*
X621152Y-94932D01*
X620537Y-97398D01*
X620582Y-99938D01*
X621282Y-102381D01*
X622591Y-104558D01*
X624418Y-106323D01*
X626641Y-107555D01*
X629106Y-108170D01*
X631647Y-108126D01*
X634089Y-107425D01*
X636267Y-106117D01*
X638032Y-104289D01*
X639264Y-102067D01*
X639879Y-99601D01*
X639834Y-97061D01*
X639134Y-94618D01*
X637825Y-92440D01*
X635998Y-90675D01*
X633775Y-89443D01*
X631310Y-88829D01*
D02*
G37*
G36*
X612408Y-93565D02*
X593856Y-98884D01*
X599176Y-117437D01*
X617728Y-112117D01*
X612408Y-93565D01*
D02*
G37*
G36*
X135840Y-52942D02*
X129614D01*
X123440Y-53755D01*
X117426Y-55366D01*
X111673Y-57749D01*
X106281Y-60862D01*
X101341Y-64653D01*
X96938Y-69056D01*
X93147Y-73996D01*
X90034Y-79388D01*
X87651Y-85141D01*
X86039Y-91155D01*
X85227Y-97329D01*
Y-103555D01*
X86039Y-109729D01*
X87651Y-115743D01*
X90034Y-121496D01*
X93147Y-126888D01*
X96938Y-131828D01*
X101341Y-136231D01*
X106281Y-140022D01*
X111673Y-143135D01*
X117426Y-145518D01*
X123440Y-147129D01*
X129614Y-147942D01*
X135840D01*
X142014Y-147129D01*
X148028Y-145518D01*
X153781Y-143135D01*
X159173Y-140022D01*
X164113Y-136231D01*
X168516Y-131828D01*
X172306Y-126888D01*
X175420Y-121496D01*
X177803Y-115743D01*
X179414Y-109729D01*
X180227Y-103555D01*
Y-97329D01*
X179414Y-91155D01*
X177803Y-85141D01*
X175420Y-79388D01*
X172306Y-73996D01*
X168516Y-69056D01*
X164113Y-64653D01*
X159173Y-60862D01*
X153781Y-57749D01*
X148028Y-55366D01*
X142014Y-53755D01*
X135840Y-52942D01*
D02*
G37*
G36*
X230694Y-125348D02*
X224730Y-143703D01*
X243085Y-149667D01*
X249049Y-131312D01*
X230694Y-125348D01*
D02*
G37*
G36*
X260283Y-135653D02*
X257797Y-136181D01*
X255534Y-137335D01*
X253645Y-139035D01*
X252261Y-141166D01*
X251476Y-143583D01*
X251343Y-146120D01*
X251871Y-148605D01*
X253025Y-150870D01*
X254725Y-152758D01*
X256856Y-154142D01*
X259273Y-154927D01*
X261810Y-155060D01*
X264296Y-154531D01*
X266559Y-153378D01*
X268448Y-151678D01*
X269832Y-149547D01*
X270617Y-147130D01*
X270750Y-144593D01*
X270221Y-142107D01*
X269068Y-139844D01*
X267368Y-137955D01*
X265237Y-136571D01*
X262820Y-135786D01*
X260283Y-135653D01*
D02*
G37*
G36*
X359627Y-127003D02*
X353400D01*
X347227Y-127815D01*
X341213Y-129427D01*
X335460Y-131810D01*
X330068Y-134923D01*
X325128Y-138714D01*
X320725Y-143117D01*
X316934Y-148056D01*
X313821Y-153449D01*
X311438Y-159202D01*
X309827Y-165216D01*
X309014Y-171389D01*
Y-177616D01*
X309827Y-183789D01*
X311438Y-189804D01*
X313821Y-195557D01*
X316934Y-200949D01*
X320725Y-205889D01*
X325128Y-210292D01*
X330068Y-214082D01*
X335460Y-217196D01*
X341213Y-219578D01*
X347227Y-221190D01*
X353400Y-222003D01*
X359627D01*
X365800Y-221190D01*
X371815Y-219578D01*
X377567Y-217196D01*
X382960Y-214082D01*
X387900Y-210292D01*
X392303Y-205889D01*
X396093Y-200949D01*
X399207Y-195557D01*
X401589Y-189804D01*
X403201Y-183789D01*
X404014Y-177616D01*
Y-171389D01*
X403201Y-165216D01*
X401589Y-159202D01*
X399207Y-153449D01*
X396093Y-148056D01*
X392303Y-143117D01*
X387900Y-138714D01*
X382960Y-134923D01*
X377567Y-131810D01*
X371815Y-129427D01*
X365800Y-127815D01*
X359627Y-127003D01*
D02*
G37*
%LPD*%
D61*
X666500Y386296D02*
X705204Y425000D01*
X718300D01*
X608000Y372000D02*
X655000Y419000D01*
X608000Y350900D02*
Y372000D01*
X666500Y355000D02*
Y386296D01*
D62*
X697000Y454300D02*
D03*
X608000Y325500D02*
D03*
X743700Y425000D02*
D03*
X-22716Y112597D02*
D03*
X261046Y-145357D02*
D03*
X630208Y-98499D02*
D03*
X927665Y90225D02*
D03*
X907728Y793464D02*
D03*
X596922Y970925D02*
D03*
X230855Y1014287D02*
D03*
X-15643Y765857D02*
D03*
X974315Y436950D02*
D03*
X-176754Y415860D02*
D03*
D63*
X697000Y479700D02*
D03*
X608000Y350900D02*
D03*
X974315Y411550D02*
D03*
D64*
X718300Y425000D02*
D03*
D65*
X-37284Y133403D02*
D03*
D66*
X236889Y-137507D02*
D03*
X621078Y963075D02*
D03*
D67*
X605792Y-105501D02*
D03*
D68*
X912735Y69675D02*
D03*
D69*
X922658Y772915D02*
D03*
D70*
X255145Y1021713D02*
D03*
D71*
X-357Y786143D02*
D03*
D72*
X-175425Y441225D02*
D03*
D73*
X563250Y178150D02*
D03*
Y203550D02*
D03*
Y228950D02*
D03*
Y254350D02*
D03*
Y279750D02*
D03*
Y305150D02*
D03*
Y330550D02*
D03*
Y355950D02*
D03*
Y381350D02*
D03*
Y406750D02*
D03*
Y432150D02*
D03*
Y457550D02*
D03*
Y482950D02*
D03*
Y508350D02*
D03*
Y533750D02*
D03*
Y559150D02*
D03*
Y584550D02*
D03*
Y609950D02*
D03*
Y635350D02*
D03*
X309250Y203550D02*
D03*
Y228950D02*
D03*
Y254350D02*
D03*
Y279750D02*
D03*
Y305150D02*
D03*
Y330550D02*
D03*
Y355950D02*
D03*
Y381350D02*
D03*
Y406750D02*
D03*
Y432150D02*
D03*
Y457550D02*
D03*
Y482950D02*
D03*
Y508350D02*
D03*
Y533750D02*
D03*
Y559150D02*
D03*
Y584550D02*
D03*
Y178150D02*
D03*
Y609950D02*
D03*
D74*
Y635350D02*
D03*
D75*
X659000Y490000D02*
D03*
X858750Y184000D02*
D03*
X-86125Y392125D02*
D03*
X316518Y-71032D02*
D03*
X303300Y-68050D02*
D03*
X552273Y-56268D02*
D03*
X859943Y764690D02*
D03*
X531867Y888107D02*
D03*
X206518Y-97032D02*
D03*
X864950Y61425D02*
D03*
X114359Y671735D02*
D03*
X215825Y945723D02*
D03*
X-9166Y717060D02*
D03*
X645380Y-11825D02*
D03*
X900075Y473075D02*
D03*
X650000Y295000D02*
D03*
X699250Y372000D02*
D03*
X684250D02*
D03*
X618000Y412000D02*
D03*
X624000Y374000D02*
D03*
X655000Y419000D02*
D03*
X52780Y117901D02*
D03*
X12530Y209500D02*
D03*
X18530Y184500D02*
D03*
X78780Y205000D02*
D03*
Y182500D02*
D03*
X93779Y205000D02*
D03*
X85780Y193500D02*
D03*
X93779Y182500D02*
D03*
X58280Y131000D02*
D03*
X-84675Y405325D02*
D03*
X-49175Y456825D02*
D03*
X-57175Y467825D02*
D03*
X-49175Y479325D02*
D03*
X-64175Y456825D02*
D03*
Y479325D02*
D03*
X-124425Y458825D02*
D03*
X-130425Y483825D02*
D03*
X578555Y-50250D02*
D03*
X558055Y10000D02*
D03*
X580555D02*
D03*
X558055Y25000D02*
D03*
X569555Y17000D02*
D03*
X580555Y25000D02*
D03*
X632055Y-10500D02*
D03*
X251800Y-32550D02*
D03*
X240800Y-40550D02*
D03*
X229300Y-32550D02*
D03*
X251800Y-47550D02*
D03*
X229300D02*
D03*
X249800Y-107800D02*
D03*
X944500Y381250D02*
D03*
X938500Y406250D02*
D03*
X878250Y385750D02*
D03*
Y408250D02*
D03*
X863250Y385750D02*
D03*
X871250Y397250D02*
D03*
X863250Y408250D02*
D03*
X898750Y459750D02*
D03*
X845250Y158750D02*
D03*
X809750Y107250D02*
D03*
X817750Y96250D02*
D03*
X809750Y84750D02*
D03*
X824750Y107250D02*
D03*
Y84750D02*
D03*
X885000Y105250D02*
D03*
X892193Y661040D02*
D03*
X886193Y686040D02*
D03*
X825943Y665540D02*
D03*
Y688040D02*
D03*
X810943Y665540D02*
D03*
X818943Y677040D02*
D03*
X810943Y688040D02*
D03*
X846443Y739540D02*
D03*
X557617Y874407D02*
D03*
X609117Y838907D02*
D03*
X620117Y846907D02*
D03*
X631617Y838907D02*
D03*
X609117Y853907D02*
D03*
X631617D02*
D03*
X611117Y914157D02*
D03*
X636117Y920157D02*
D03*
X699250Y394500D02*
D03*
X691250Y383000D02*
D03*
X663750Y320500D02*
D03*
X666500Y355000D02*
D03*
X613250Y431000D02*
D03*
X623000Y431250D02*
D03*
X632750Y431500D02*
D03*
X642500Y431750D02*
D03*
X642250Y441500D02*
D03*
X229150Y944398D02*
D03*
X280650Y908898D02*
D03*
X291650Y916898D02*
D03*
X303150Y908898D02*
D03*
X280650Y923898D02*
D03*
X303150D02*
D03*
X282650Y984148D02*
D03*
X307650Y990148D02*
D03*
X90209Y682935D02*
D03*
X67709D02*
D03*
X90209Y667935D02*
D03*
X78709Y675935D02*
D03*
X67709Y667935D02*
D03*
X16209Y703435D02*
D03*
X94584Y749060D02*
D03*
X69209Y744185D02*
D03*
M02*
