G04*
G04 #@! TF.GenerationSoftware,Altium Limited,Altium Designer,23.3.1 (30)*
G04*
G04 Layer_Physical_Order=1*
G04 Layer_Color=255*
%FSLAX44Y44*%
%MOMM*%
G71*
G04*
G04 #@! TF.SameCoordinates,DEB4E624-6092-4267-9E12-8A2B7123D7A8*
G04*
G04*
G04 #@! TF.FilePolarity,Positive*
G04*
G01*
G75*
%ADD11C,0.2000*%
%ADD14R,1.2400X2.7300*%
G04:AMPARAMS|DCode=15|XSize=1.37mm|YSize=0.59mm|CornerRadius=0.1475mm|HoleSize=0mm|Usage=FLASHONLY|Rotation=180.000|XOffset=0mm|YOffset=0mm|HoleType=Round|Shape=RoundedRectangle|*
%AMROUNDEDRECTD15*
21,1,1.3700,0.2950,0,0,180.0*
21,1,1.0750,0.5900,0,0,180.0*
1,1,0.2950,-0.5375,0.1475*
1,1,0.2950,0.5375,0.1475*
1,1,0.2950,0.5375,-0.1475*
1,1,0.2950,-0.5375,-0.1475*
%
%ADD15ROUNDEDRECTD15*%
%ADD16R,0.5000X0.7000*%
%ADD17R,0.5500X1.2000*%
%ADD18R,0.9000X0.9000*%
G04:AMPARAMS|DCode=19|XSize=1.37mm|YSize=0.59mm|CornerRadius=0.1475mm|HoleSize=0mm|Usage=FLASHONLY|Rotation=270.000|XOffset=0mm|YOffset=0mm|HoleType=Round|Shape=RoundedRectangle|*
%AMROUNDEDRECTD19*
21,1,1.3700,0.2950,0,0,270.0*
21,1,1.0750,0.5900,0,0,270.0*
1,1,0.2950,-0.1475,-0.5375*
1,1,0.2950,-0.1475,0.5375*
1,1,0.2950,0.1475,0.5375*
1,1,0.2950,0.1475,-0.5375*
%
%ADD19ROUNDEDRECTD19*%
G04:AMPARAMS|DCode=20|XSize=1.97mm|YSize=0.6mm|CornerRadius=0.075mm|HoleSize=0mm|Usage=FLASHONLY|Rotation=180.000|XOffset=0mm|YOffset=0mm|HoleType=Round|Shape=RoundedRectangle|*
%AMROUNDEDRECTD20*
21,1,1.9700,0.4500,0,0,180.0*
21,1,1.8200,0.6000,0,0,180.0*
1,1,0.1500,-0.9100,0.2250*
1,1,0.1500,0.9100,0.2250*
1,1,0.1500,0.9100,-0.2250*
1,1,0.1500,-0.9100,-0.2250*
%
%ADD20ROUNDEDRECTD20*%
%ADD21R,1.1000X1.0000*%
%ADD22R,0.9000X0.9000*%
%ADD23R,0.7000X0.5000*%
%ADD24R,1.0000X1.1000*%
%ADD25R,1.2000X0.5500*%
G04:AMPARAMS|DCode=26|XSize=1.97mm|YSize=0.6mm|CornerRadius=0.075mm|HoleSize=0mm|Usage=FLASHONLY|Rotation=270.000|XOffset=0mm|YOffset=0mm|HoleType=Round|Shape=RoundedRectangle|*
%AMROUNDEDRECTD26*
21,1,1.9700,0.4500,0,0,270.0*
21,1,1.8200,0.6000,0,0,270.0*
1,1,0.1500,-0.2250,-0.9100*
1,1,0.1500,-0.2250,0.9100*
1,1,0.1500,0.2250,0.9100*
1,1,0.1500,0.2250,-0.9100*
%
%ADD26ROUNDEDRECTD26*%
%ADD27R,2.7300X1.2400*%
%ADD58R,1.0000X2.0000*%
%ADD59R,2.4130X3.3020*%
%ADD60R,3.3020X2.4130*%
%ADD61C,0.5000*%
%ADD62C,1.5300*%
%ADD63R,1.5300X1.5300*%
%ADD64R,1.5300X1.5300*%
%ADD65P,2.1638X4X350.0*%
%ADD66P,2.1638X4X387.0*%
%ADD67P,2.1638X4X61.0*%
%ADD68P,2.1638X4X99.0*%
%ADD69P,2.1638X4X171.0*%
%ADD70P,2.1638X4X242.0*%
%ADD71P,2.1638X4X278.0*%
%ADD72P,2.1638X4X312.0*%
%ADD73C,1.5600*%
%ADD74R,1.5600X1.5600*%
%ADD75C,0.8000*%
G36*
X864374Y951618D02*
X885883Y921379D01*
X882051Y918139D01*
X879151Y921039D01*
X874211Y924830D01*
X868819Y927943D01*
X863066Y930326D01*
X857051Y931938D01*
X850878Y932750D01*
X844652D01*
X838478Y931938D01*
X832464Y930326D01*
X826711Y927943D01*
X821319Y924830D01*
X816379Y921039D01*
X811976Y916637D01*
X808185Y911697D01*
X805072Y906304D01*
X802689Y900552D01*
X801078Y894537D01*
X800265Y888364D01*
Y882137D01*
X801078Y875964D01*
X802689Y869949D01*
X805072Y864197D01*
X808185Y858804D01*
X811976Y853864D01*
X816379Y849461D01*
X821319Y845671D01*
X826711Y842558D01*
X832464Y840175D01*
X838478Y838563D01*
X844652Y837750D01*
X850878D01*
X857051Y838563D01*
X863066Y840175D01*
X868819Y842558D01*
X874211Y845671D01*
X879151Y849461D01*
X883554Y853864D01*
X887344Y858804D01*
X890458Y864197D01*
X892841Y869949D01*
X894452Y875964D01*
X895265Y882137D01*
Y888364D01*
X894452Y894537D01*
X892841Y900552D01*
X890458Y906304D01*
X890408Y906391D01*
X894620Y909096D01*
X1022663Y729078D01*
X1018832Y725839D01*
X1017128Y727543D01*
X1012188Y731334D01*
X1006795Y734447D01*
X1001042Y736830D01*
X995028Y738441D01*
X988855Y739254D01*
X982628D01*
X976455Y738441D01*
X970440Y736830D01*
X964688Y734447D01*
X959295Y731334D01*
X954355Y727543D01*
X949952Y723140D01*
X946162Y718200D01*
X943049Y712808D01*
X940666Y707055D01*
X939054Y701041D01*
X938241Y694867D01*
Y688641D01*
X939054Y682467D01*
X940666Y676453D01*
X943049Y670700D01*
X946162Y665308D01*
X949952Y660368D01*
X954355Y655965D01*
X959295Y652175D01*
X964688Y649061D01*
X970440Y646678D01*
X976455Y645067D01*
X982628Y644254D01*
X988855D01*
X995028Y645067D01*
X1001042Y646678D01*
X1006795Y649061D01*
X1012188Y652175D01*
X1017128Y655965D01*
X1021530Y660368D01*
X1025321Y665308D01*
X1028434Y670700D01*
X1030817Y676453D01*
X1032429Y682467D01*
X1033241Y688641D01*
Y694867D01*
X1032429Y701041D01*
X1030817Y707055D01*
X1028900Y711684D01*
X1033302Y714121D01*
X1052772Y686749D01*
X1055729Y180101D01*
X861571Y-84683D01*
X354020Y-245966D01*
X84659Y-157103D01*
X-248197Y319002D01*
X-231302Y588522D01*
X113847Y1037671D01*
X360365Y1112389D01*
X864374Y951618D01*
D02*
G37*
%LPC*%
G36*
X261552Y1033763D02*
X243095Y1028120D01*
X248738Y1009663D01*
X248738D01*
X250557Y1008318D01*
Y998891D01*
X250906Y997135D01*
X251901Y995646D01*
X260899Y986648D01*
X260669Y981648D01*
X247900D01*
X247900Y981648D01*
X244725Y981916D01*
X233975D01*
X232619Y981646D01*
X231470Y980878D01*
X230702Y979729D01*
X230432Y978373D01*
Y975791D01*
X230136Y975477D01*
X229627Y975477D01*
X224868Y978373D01*
X224598Y979729D01*
X223830Y980878D01*
X222681Y981646D01*
X221325Y981916D01*
X220538D01*
Y997482D01*
X228080Y1005024D01*
X229922Y1004598D01*
X232461Y1004687D01*
X234891Y1005430D01*
X237046Y1006776D01*
X238779Y1008635D01*
X239972Y1010878D01*
X240543Y1013354D01*
X240455Y1015893D01*
X239712Y1018323D01*
X238365Y1020478D01*
X236507Y1022211D01*
X234264Y1023404D01*
X231788Y1023975D01*
X229249Y1023887D01*
X226819Y1023144D01*
X224664Y1021797D01*
X222931Y1019939D01*
X221738Y1017695D01*
X221166Y1015220D01*
X221255Y1012680D01*
X221607Y1011528D01*
X212706Y1002626D01*
X211711Y1001138D01*
X211362Y999382D01*
Y981916D01*
X210575D01*
X209219Y981646D01*
X208070Y980878D01*
X207302Y979729D01*
X207032Y978373D01*
Y975423D01*
X207302Y974067D01*
Y970229D01*
X207032Y968873D01*
Y965923D01*
X207302Y964567D01*
Y960729D01*
X207032Y959373D01*
Y956423D01*
X207302Y955067D01*
X208070Y953918D01*
X208565Y953587D01*
X209582Y951498D01*
X210292Y948266D01*
X210275Y948004D01*
X209825Y946916D01*
Y944529D01*
X210739Y942324D01*
X212426Y940636D01*
X214632Y939723D01*
X217019D01*
X218864Y940487D01*
X219224Y940636D01*
X219224Y940636D01*
X223359Y940946D01*
X225091Y939971D01*
X225751Y939311D01*
X227957Y938398D01*
X231400Y937898D01*
X231400Y937898D01*
X240900D01*
X244400Y937898D01*
X249400Y937898D01*
X258900D01*
Y944789D01*
X262650Y947839D01*
X263820Y948072D01*
X264813Y948735D01*
X268995Y952918D01*
X273900Y953148D01*
X274535Y953148D01*
X275791D01*
X280246Y950748D01*
Y932548D01*
X275464Y930963D01*
X273140D01*
Y907776D01*
X273052Y907333D01*
Y905938D01*
X271165Y904052D01*
X270350D01*
X269277Y903838D01*
X268367Y903231D01*
X267760Y902321D01*
X267546Y901248D01*
Y891820D01*
X267512Y891648D01*
Y879398D01*
X263900D01*
Y866398D01*
X276900D01*
Y866398D01*
X278400D01*
Y866398D01*
X290400D01*
Y865148D01*
X305400D01*
Y879148D01*
X305400D01*
X303054Y883048D01*
Y901248D01*
X307836Y902833D01*
X310160D01*
Y920310D01*
X320400D01*
Y917398D01*
X334400D01*
Y932398D01*
X334400D01*
Y934398D01*
X334400D01*
Y949398D01*
X320907D01*
X319157Y950796D01*
X317150Y953052D01*
Y965398D01*
X310193D01*
X305400Y965898D01*
X305400Y969880D01*
X305400Y979529D01*
X305799Y981275D01*
X308843Y984148D01*
X311049Y985061D01*
X312737Y986749D01*
X313650Y988954D01*
Y991341D01*
X312737Y993547D01*
X311049Y995235D01*
X308843Y996148D01*
X306457D01*
X305400Y996854D01*
Y997898D01*
X291400D01*
Y990773D01*
X286400Y988883D01*
X286049Y989234D01*
X283843Y990148D01*
X281457D01*
X279251Y989234D01*
X277563Y987547D01*
X276816Y985743D01*
X276233Y985199D01*
X275229Y984856D01*
X270238Y988386D01*
X269889Y990141D01*
X268894Y991630D01*
X259733Y1000791D01*
Y1013025D01*
X267195Y1015306D01*
X261552Y1033763D01*
D02*
G37*
G36*
X359635Y1091761D02*
X353408D01*
X347235Y1090949D01*
X341221Y1089337D01*
X335468Y1086954D01*
X330075Y1083841D01*
X325135Y1080050D01*
X320733Y1075648D01*
X316942Y1070707D01*
X313829Y1065315D01*
X311446Y1059563D01*
X309834Y1053548D01*
X309022Y1047375D01*
Y1041148D01*
X309834Y1034975D01*
X311446Y1028960D01*
X313829Y1023208D01*
X316942Y1017815D01*
X320733Y1012875D01*
X325135Y1008472D01*
X330075Y1004682D01*
X335468Y1001569D01*
X341221Y999186D01*
X347235Y997574D01*
X353408Y996761D01*
X359635D01*
X365808Y997574D01*
X371823Y999186D01*
X377575Y1001569D01*
X382968Y1004682D01*
X387908Y1008472D01*
X392311Y1012875D01*
X396101Y1017815D01*
X399215Y1023208D01*
X401597Y1028960D01*
X403209Y1034975D01*
X404022Y1041148D01*
Y1047375D01*
X403209Y1053548D01*
X401597Y1059563D01*
X399215Y1065315D01*
X396101Y1070707D01*
X392311Y1075648D01*
X387908Y1080050D01*
X382968Y1083841D01*
X377575Y1086954D01*
X371823Y1089337D01*
X365808Y1090949D01*
X359635Y1091761D01*
D02*
G37*
G36*
X596158Y980628D02*
X593673Y980099D01*
X591409Y978946D01*
X589520Y977246D01*
X588136Y975115D01*
X587351Y972698D01*
X587218Y970161D01*
X587648Y968139D01*
X541173Y921664D01*
X540178Y920176D01*
X539829Y918420D01*
Y911925D01*
X539042D01*
X537686Y911655D01*
X536537Y910887D01*
X535769Y909738D01*
X535499Y908382D01*
Y905432D01*
X535769Y904076D01*
Y900238D01*
X535499Y898882D01*
Y898509D01*
X533684Y895232D01*
X530764Y894107D01*
X530674D01*
X528468Y893194D01*
X526781Y891506D01*
X525867Y889301D01*
Y886914D01*
X526781Y884708D01*
X528468Y883020D01*
X530674Y882107D01*
X533060D01*
X535266Y883020D01*
X535664Y883419D01*
X537297D01*
X537686Y883159D01*
X539042Y882889D01*
X547435D01*
X549213Y882889D01*
X551683Y880269D01*
X552442Y877592D01*
X551617Y875601D01*
Y873214D01*
X552531Y871008D01*
X554218Y869321D01*
X556423Y868407D01*
X559867Y867907D01*
X559867Y867907D01*
X569367D01*
X572867Y867907D01*
X577867Y867907D01*
X587367D01*
Y874798D01*
X591117Y877848D01*
X592287Y878081D01*
X593280Y878744D01*
X597462Y882927D01*
X602367Y883157D01*
X603002Y883157D01*
X604258D01*
X608713Y880757D01*
Y862557D01*
X603931Y860972D01*
X601607D01*
Y837785D01*
X601519Y837342D01*
Y835947D01*
X599632Y834061D01*
X598817D01*
X597744Y833847D01*
X596834Y833240D01*
X596227Y832330D01*
X596013Y831257D01*
Y821829D01*
X595979Y821657D01*
Y809407D01*
X592367D01*
Y796407D01*
X605367D01*
Y796407D01*
X606867D01*
Y796407D01*
X618867D01*
Y795157D01*
X633867D01*
Y809157D01*
X633867D01*
X631521Y813057D01*
Y831257D01*
X636304Y832842D01*
X638627D01*
Y850319D01*
X648867D01*
Y847407D01*
X662867D01*
Y862407D01*
X662867D01*
Y864407D01*
X662867D01*
Y879407D01*
X649374D01*
X647624Y880805D01*
X645617Y883061D01*
Y895407D01*
X638660D01*
X633867Y895907D01*
X633867Y899889D01*
X633867Y909538D01*
X634266Y911284D01*
X637310Y914157D01*
X639516Y915070D01*
X641204Y916758D01*
X642117Y918963D01*
Y921350D01*
X641204Y923556D01*
X639516Y925244D01*
X637310Y926157D01*
X634924D01*
X633867Y926863D01*
Y927907D01*
X619867D01*
Y920782D01*
X614867Y918892D01*
X614516Y919244D01*
X612310Y920157D01*
X609924D01*
X607718Y919244D01*
X606705Y918230D01*
X603516Y918839D01*
X601705Y919763D01*
Y937214D01*
X618317Y953826D01*
X627274Y950916D01*
X633238Y969271D01*
X614883Y975235D01*
X609171Y957657D01*
X593873Y942358D01*
X592878Y940870D01*
X592529Y939114D01*
Y916590D01*
X592367Y911657D01*
X576367D01*
X576367Y911657D01*
X573192Y911925D01*
X562442D01*
X561086Y911655D01*
X559937Y910887D01*
X559169Y909738D01*
X558899Y908382D01*
Y905800D01*
X558603Y905486D01*
X558094Y905486D01*
X553335Y908382D01*
X553065Y909738D01*
X552297Y910887D01*
X551148Y911655D01*
X549792Y911925D01*
X549411Y916925D01*
X594161Y961675D01*
X595148Y961354D01*
X597685Y961221D01*
X600171Y961750D01*
X602435Y962903D01*
X604323Y964603D01*
X605707Y966734D01*
X606492Y969151D01*
X606625Y971688D01*
X606097Y974174D01*
X604943Y976438D01*
X603243Y978326D01*
X601112Y979710D01*
X598695Y980495D01*
X596158Y980628D01*
D02*
G37*
G36*
X134973Y1020214D02*
X128747D01*
X122573Y1019401D01*
X116559Y1017790D01*
X110806Y1015407D01*
X105414Y1012294D01*
X100474Y1008503D01*
X96071Y1004100D01*
X92280Y999161D01*
X89167Y993768D01*
X86784Y988015D01*
X85173Y982001D01*
X84360Y975828D01*
Y969601D01*
X85173Y963428D01*
X86784Y957413D01*
X89167Y951661D01*
X92280Y946268D01*
X96071Y941328D01*
X100474Y936925D01*
X105414Y933135D01*
X110806Y930021D01*
X116559Y927639D01*
X122573Y926027D01*
X128747Y925214D01*
X134973D01*
X141146Y926027D01*
X147161Y927639D01*
X152914Y930021D01*
X158306Y933135D01*
X163246Y936925D01*
X167649Y941328D01*
X171439Y946268D01*
X174553Y951661D01*
X176935Y957413D01*
X178547Y963428D01*
X179360Y969601D01*
Y975828D01*
X178547Y982001D01*
X176935Y988015D01*
X174553Y993768D01*
X171439Y999161D01*
X167649Y1004100D01*
X163246Y1008503D01*
X158306Y1012294D01*
X152914Y1015407D01*
X147161Y1017790D01*
X141146Y1019401D01*
X134973Y1020214D01*
D02*
G37*
G36*
X907983Y803194D02*
X905456Y802929D01*
X903083Y802018D01*
X901028Y800525D01*
X899429Y798550D01*
X898395Y796229D01*
X897998Y793719D01*
X898263Y791192D01*
X898459Y790684D01*
X875698Y767924D01*
X874704Y766435D01*
X870329Y763174D01*
X866858Y763974D01*
X865943Y765883D01*
X865029Y768089D01*
X863341Y769776D01*
X861136Y770690D01*
X858749D01*
X856544Y769776D01*
X854856Y768089D01*
X853943Y765883D01*
Y763496D01*
X854856Y761291D01*
X855355Y760793D01*
Y759710D01*
X855194Y759471D01*
X854925Y758115D01*
Y749722D01*
X854925Y747944D01*
X852305Y745474D01*
X849628Y744715D01*
X847636Y745540D01*
X845249D01*
X843044Y744626D01*
X841356Y742939D01*
X840443Y740733D01*
X839943Y737290D01*
X839943Y737290D01*
Y727790D01*
X839943Y724290D01*
X839943Y719290D01*
Y709790D01*
X846834D01*
X849884Y706040D01*
X850117Y704869D01*
X850780Y703877D01*
X854962Y699694D01*
X855193Y694790D01*
X855193Y694155D01*
Y692899D01*
X852793Y688444D01*
X834593D01*
X833008Y693226D01*
Y695550D01*
X809821D01*
X809378Y695638D01*
X807983D01*
X806097Y697525D01*
Y698340D01*
X805883Y699413D01*
X805275Y700322D01*
X804366Y700930D01*
X803293Y701144D01*
X793865D01*
X793693Y701178D01*
X781443D01*
Y704790D01*
X768443D01*
Y691790D01*
X768443D01*
Y690290D01*
X768443D01*
Y678290D01*
X767193D01*
Y663290D01*
X781193D01*
Y663290D01*
X785093Y665636D01*
X803293D01*
X804878Y660853D01*
Y658530D01*
X822355D01*
Y648290D01*
X819443D01*
Y634290D01*
X834443D01*
Y634290D01*
X836443D01*
Y634290D01*
X851443D01*
Y647783D01*
X852840Y649533D01*
X855097Y651540D01*
X867443D01*
Y658497D01*
X867943Y663290D01*
X871925Y663290D01*
X881573Y663290D01*
X883320Y662890D01*
X886193Y659846D01*
X887106Y657641D01*
X888794Y655953D01*
X890999Y655040D01*
X893386D01*
X895592Y655953D01*
X897279Y657641D01*
X898193Y659846D01*
Y662233D01*
X898899Y663290D01*
X899943D01*
Y677290D01*
X892818D01*
X890928Y682290D01*
X891279Y682641D01*
X892193Y684846D01*
Y687233D01*
X891279Y689438D01*
X889592Y691126D01*
X889036Y696020D01*
X892274Y699402D01*
X897043D01*
X898799Y699751D01*
X900287Y700745D01*
X905437Y705895D01*
X906432Y707384D01*
X906781Y709140D01*
Y750550D01*
X916021Y759790D01*
X920523Y759436D01*
X920523D01*
X936137Y770780D01*
X924792Y786395D01*
X909178Y775050D01*
X913018Y769765D01*
X898948Y755695D01*
X897954Y754206D01*
X897605Y752450D01*
Y711040D01*
X895142Y708578D01*
X889393D01*
X888693Y708439D01*
X885149Y710360D01*
X883693Y711607D01*
Y720790D01*
X883693Y720790D01*
X883961Y723965D01*
Y734715D01*
X883691Y736071D01*
X882923Y737220D01*
X881774Y737988D01*
X881383Y738066D01*
X879532Y741040D01*
X881383Y744014D01*
X881774Y744091D01*
X882923Y744859D01*
X883691Y746009D01*
X883961Y747365D01*
Y758115D01*
X883691Y759471D01*
X883531Y759710D01*
Y762779D01*
X904909Y784156D01*
X904963Y784132D01*
X907473Y783734D01*
X910000Y784000D01*
X912372Y784911D01*
X914428Y786404D01*
X916027Y788379D01*
X917060Y790700D01*
X917458Y793210D01*
X917192Y795736D01*
X916282Y798109D01*
X914788Y800164D01*
X912813Y801763D01*
X910492Y802797D01*
X907983Y803194D01*
D02*
G37*
G36*
X-2256Y799657D02*
X-13871Y784243D01*
X1542Y772628D01*
X1899Y773102D01*
X6887Y773451D01*
X23684Y756654D01*
X25173Y755659D01*
X26928Y755310D01*
X31149D01*
X40342Y746116D01*
X38596Y741364D01*
X34959Y740685D01*
X31784Y740953D01*
X21034D01*
X19678Y740683D01*
X18529Y739915D01*
X17761Y738766D01*
X17683Y738375D01*
X14709Y736524D01*
X11735Y738375D01*
X11658Y738766D01*
X10890Y739915D01*
X9740Y740683D01*
X8384Y740953D01*
X7597D01*
Y748164D01*
X7248Y749920D01*
X6253Y751408D01*
X-6169Y763831D01*
X-5910Y765942D01*
X-6264Y768458D01*
X-7257Y770797D01*
X-8821Y772800D01*
X-10850Y774329D01*
X-13206Y775281D01*
X-15728Y775590D01*
X-18244Y775237D01*
X-20583Y774244D01*
X-22585Y772680D01*
X-24114Y770650D01*
X-25066Y768294D01*
X-25376Y765772D01*
X-25022Y763256D01*
X-24030Y760917D01*
X-22465Y758915D01*
X-20436Y757386D01*
X-18080Y756434D01*
X-15558Y756124D01*
X-13042Y756478D01*
X-12165Y756850D01*
X-1579Y746264D01*
Y740953D01*
X-2366D01*
X-3722Y740683D01*
X-4871Y739915D01*
X-5639Y738766D01*
X-5909Y737410D01*
Y734460D01*
X-5639Y733104D01*
Y729266D01*
X-5909Y727910D01*
Y727617D01*
X-7400Y724323D01*
X-10359Y723060D01*
X-12565Y722147D01*
X-14252Y720459D01*
X-15166Y718253D01*
Y715866D01*
X-14252Y713661D01*
X-12565Y711973D01*
X-10359Y711060D01*
X-7972D01*
X-5767Y711973D01*
X-5394Y712347D01*
X-3961D01*
X-3722Y712187D01*
X-2366Y711917D01*
X6027D01*
X7805Y711917D01*
X10275Y709297D01*
X11034Y706620D01*
X10209Y704629D01*
Y702242D01*
X11123Y700036D01*
X12810Y698348D01*
X15016Y697435D01*
X18459Y696935D01*
X18459Y696935D01*
X27959D01*
X31459Y696935D01*
X36459Y696935D01*
X45959D01*
Y705609D01*
X49226Y708876D01*
X51935D01*
X51935Y708876D01*
X53106Y709109D01*
X54098Y709772D01*
X56121Y711795D01*
X60959Y712185D01*
X60959Y712185D01*
X62850D01*
X67305Y709785D01*
Y691585D01*
X62523Y690000D01*
X60199D01*
Y666813D01*
X60111Y666370D01*
Y664976D01*
X58224Y663089D01*
X57409D01*
X56336Y662875D01*
X55427Y662268D01*
X54819Y661358D01*
X54605Y660285D01*
Y650857D01*
X54571Y650685D01*
Y638435D01*
X50959D01*
Y625435D01*
X63959D01*
Y625435D01*
X65459D01*
Y625435D01*
X77459D01*
Y624185D01*
X92459D01*
Y638185D01*
X92459D01*
X90113Y642085D01*
Y660285D01*
X94896Y661870D01*
X97219D01*
Y687609D01*
X97219Y688781D01*
X97756Y688781D01*
X100009D01*
X101082Y688995D01*
X101992Y689602D01*
X102484Y690339D01*
X102957Y690439D01*
X107484Y689508D01*
X107484Y688410D01*
Y676410D01*
X107484D01*
X108359Y671773D01*
Y670542D01*
X109273Y668336D01*
X110961Y666648D01*
X113166Y665735D01*
X115553D01*
X117758Y666648D01*
X119446Y668336D01*
X120359Y670542D01*
Y671876D01*
X121484Y676410D01*
X121484D01*
Y688410D01*
X121484Y691410D01*
X121484Y696410D01*
Y708410D01*
X107956D01*
X106236Y709799D01*
X104209Y712054D01*
Y724435D01*
X97179D01*
X92334Y724810D01*
X92334Y728969D01*
X92334Y738441D01*
X92734Y740187D01*
X95778Y743060D01*
X97983Y743973D01*
X99671Y745661D01*
X100584Y747867D01*
Y750254D01*
X99671Y752459D01*
X97983Y754146D01*
X95778Y755060D01*
X93391D01*
X92334Y755766D01*
Y756810D01*
X78334D01*
Y750078D01*
X77834Y749769D01*
X73334Y748545D01*
X72608Y749272D01*
X70403Y750185D01*
X68016D01*
X65810Y749272D01*
X64123Y747584D01*
X63209Y745378D01*
Y744409D01*
X58728Y741738D01*
X56777Y742659D01*
X36293Y763143D01*
X34805Y764137D01*
X33049Y764486D01*
X28829D01*
X9769Y783546D01*
X13157Y788042D01*
X-2256Y799657D01*
D02*
G37*
G36*
X564540Y645150D02*
X561960D01*
X559467Y644482D01*
X557233Y643192D01*
X555408Y641367D01*
X554118Y639133D01*
X553450Y636640D01*
Y634060D01*
X554118Y631567D01*
X555408Y629333D01*
X557233Y627508D01*
X559467Y626218D01*
X561960Y625550D01*
X564540D01*
X567033Y626218D01*
X569267Y627508D01*
X571092Y629333D01*
X572382Y631567D01*
X573050Y634060D01*
Y636640D01*
X572382Y639133D01*
X571092Y641367D01*
X569267Y643192D01*
X567033Y644482D01*
X564540Y645150D01*
D02*
G37*
G36*
X319050D02*
X299450D01*
Y625550D01*
X319050D01*
Y645150D01*
D02*
G37*
G36*
X564540Y619750D02*
X561960D01*
X559467Y619082D01*
X557233Y617792D01*
X555408Y615967D01*
X554118Y613733D01*
X553450Y611240D01*
Y608660D01*
X554118Y606167D01*
X555408Y603933D01*
X557233Y602108D01*
X559467Y600818D01*
X561960Y600150D01*
X564540D01*
X567033Y600818D01*
X569267Y602108D01*
X571092Y603933D01*
X572382Y606167D01*
X573050Y608660D01*
Y611240D01*
X572382Y613733D01*
X571092Y615967D01*
X569267Y617792D01*
X567033Y619082D01*
X564540Y619750D01*
D02*
G37*
G36*
X310540D02*
X307960D01*
X305467Y619082D01*
X303233Y617792D01*
X301408Y615967D01*
X300118Y613733D01*
X299450Y611240D01*
Y608660D01*
X300118Y606167D01*
X301408Y603933D01*
X303233Y602108D01*
X305467Y600818D01*
X307960Y600150D01*
X310540D01*
X313033Y600818D01*
X315267Y602108D01*
X317092Y603933D01*
X318382Y606167D01*
X319050Y608660D01*
Y611240D01*
X318382Y613733D01*
X317092Y615967D01*
X315267Y617792D01*
X313033Y619082D01*
X310540Y619750D01*
D02*
G37*
G36*
X564540Y594350D02*
X561960D01*
X559467Y593682D01*
X557233Y592392D01*
X555408Y590567D01*
X554118Y588333D01*
X553450Y585840D01*
Y583260D01*
X554118Y580767D01*
X555408Y578533D01*
X557233Y576708D01*
X559467Y575418D01*
X561960Y574750D01*
X564540D01*
X567033Y575418D01*
X569267Y576708D01*
X571092Y578533D01*
X572382Y580767D01*
X573050Y583260D01*
Y585840D01*
X572382Y588333D01*
X571092Y590567D01*
X569267Y592392D01*
X567033Y593682D01*
X564540Y594350D01*
D02*
G37*
G36*
X310540D02*
X307960D01*
X305467Y593682D01*
X303233Y592392D01*
X301408Y590567D01*
X300118Y588333D01*
X299450Y585840D01*
Y583260D01*
X300118Y580767D01*
X301408Y578533D01*
X303233Y576708D01*
X305467Y575418D01*
X307960Y574750D01*
X310540D01*
X313033Y575418D01*
X315267Y576708D01*
X317092Y578533D01*
X318382Y580767D01*
X319050Y583260D01*
Y585840D01*
X318382Y588333D01*
X317092Y590567D01*
X315267Y592392D01*
X313033Y593682D01*
X310540Y594350D01*
D02*
G37*
G36*
X564540Y568950D02*
X561960D01*
X559467Y568282D01*
X557233Y566992D01*
X555408Y565167D01*
X554118Y562933D01*
X553450Y560440D01*
Y557860D01*
X554118Y555367D01*
X555408Y553133D01*
X557233Y551308D01*
X559467Y550018D01*
X561960Y549350D01*
X564540D01*
X567033Y550018D01*
X569267Y551308D01*
X571092Y553133D01*
X572382Y555367D01*
X573050Y557860D01*
Y560440D01*
X572382Y562933D01*
X571092Y565167D01*
X569267Y566992D01*
X567033Y568282D01*
X564540Y568950D01*
D02*
G37*
G36*
X310540D02*
X307960D01*
X305467Y568282D01*
X303233Y566992D01*
X301408Y565167D01*
X300118Y562933D01*
X299450Y560440D01*
Y557860D01*
X300118Y555367D01*
X301408Y553133D01*
X303233Y551308D01*
X305467Y550018D01*
X307960Y549350D01*
X310540D01*
X313033Y550018D01*
X315267Y551308D01*
X317092Y553133D01*
X318382Y555367D01*
X319050Y557860D01*
Y560440D01*
X318382Y562933D01*
X317092Y565167D01*
X315267Y566992D01*
X313033Y568282D01*
X310540Y568950D01*
D02*
G37*
G36*
X713000Y538289D02*
X665750D01*
X664970Y538134D01*
X664611Y537894D01*
X663837Y537615D01*
X661363Y537213D01*
X659030Y537384D01*
X658250Y537539D01*
X632750D01*
X631970Y537384D01*
X631308Y536942D01*
X630866Y536280D01*
X630711Y535500D01*
Y496500D01*
X630866Y495720D01*
X631308Y495058D01*
X631970Y494616D01*
X632250Y494560D01*
Y494500D01*
X632553D01*
X632750Y494461D01*
X636518D01*
X638050Y493500D01*
X639000D01*
X640500Y492000D01*
Y491964D01*
X640882Y491725D01*
Y488775D01*
X641152Y487419D01*
Y483581D01*
X640882Y482225D01*
Y479275D01*
X641152Y477919D01*
X641920Y476770D01*
X643069Y476002D01*
X644425Y475732D01*
X650692D01*
X654250Y472250D01*
X654250Y471970D01*
Y462629D01*
X654195Y462469D01*
X653404Y461257D01*
X651250Y459051D01*
Y459000D01*
X651200D01*
X650959Y458753D01*
X649545Y458539D01*
X611500D01*
X610720Y458384D01*
X610058Y457942D01*
X610058Y457942D01*
X602558Y450442D01*
X602116Y449780D01*
X601961Y449000D01*
Y430750D01*
X602116Y429970D01*
X602558Y429308D01*
X607808Y424058D01*
X608470Y423616D01*
X609250Y423461D01*
X645000D01*
X647790Y421205D01*
X649000Y419754D01*
Y417807D01*
X649913Y415601D01*
X651601Y413913D01*
X652599Y413500D01*
X651605Y408500D01*
X642750D01*
X642000Y409000D01*
Y409000D01*
X628619Y409000D01*
X626265Y409921D01*
X624000Y412757D01*
Y413194D01*
X623087Y415399D01*
X621399Y417086D01*
X619193Y418000D01*
X616806D01*
X614601Y417086D01*
X612914Y415399D01*
X612000Y413194D01*
Y410807D01*
X610793Y409000D01*
X610000D01*
Y395000D01*
X622000D01*
X625000Y395000D01*
X630000Y395000D01*
X638164D01*
X642139Y394133D01*
X642750Y390311D01*
Y387489D01*
X639685Y384424D01*
X636000Y381250D01*
X626500D01*
Y380873D01*
X625193Y380000D01*
X622807D01*
X620601Y379086D01*
X618913Y377399D01*
X618000Y375193D01*
Y372807D01*
X618913Y370601D01*
X620601Y368913D01*
X621721Y368450D01*
X621822Y366979D01*
X621012Y363381D01*
X620299Y363239D01*
X618811Y362244D01*
X617205Y360638D01*
X613150D01*
X612707Y360550D01*
X598350D01*
Y341250D01*
X617650D01*
Y349427D01*
X622327Y351883D01*
X626500Y349592D01*
Y339250D01*
X626500Y339250D01*
X626232Y336075D01*
Y329778D01*
X624375Y328406D01*
X621881Y327605D01*
X616992Y329225D01*
X615722Y331425D01*
X613925Y333222D01*
X611725Y334492D01*
X609271Y335150D01*
X606730D01*
X604275Y334492D01*
X602075Y333222D01*
X600278Y331425D01*
X599008Y329225D01*
X598350Y326770D01*
Y324230D01*
X599008Y321775D01*
X600278Y319575D01*
X602075Y317778D01*
X604275Y316508D01*
X606730Y315850D01*
X609271D01*
X611725Y316508D01*
X613925Y317778D01*
X615088Y318941D01*
X617020D01*
X626232Y309729D01*
Y301925D01*
X626502Y300569D01*
X627270Y299420D01*
X628419Y298652D01*
X629775Y298382D01*
X632725D01*
X634081Y298652D01*
X637919D01*
X639275Y298382D01*
X639495D01*
X642859Y296748D01*
X644000Y293806D01*
X644913Y291601D01*
X646601Y289913D01*
X648807Y289000D01*
X651193D01*
X653399Y289913D01*
X655087Y291601D01*
X656000Y293806D01*
Y296194D01*
X655087Y298399D01*
X654713Y298772D01*
Y300142D01*
X654998Y300569D01*
X655268Y301925D01*
Y310318D01*
X655268Y312096D01*
X657888Y314566D01*
X660565Y315325D01*
X662557Y314500D01*
X664943D01*
X667149Y315413D01*
X668837Y317101D01*
X669750Y319307D01*
X670250Y322750D01*
X670250Y322750D01*
Y332250D01*
X670250Y335750D01*
X670250Y340750D01*
Y350250D01*
X670250Y350250D01*
X670275Y350290D01*
X671587Y351601D01*
X672500Y353806D01*
X672500Y353807D01*
X672500Y354318D01*
Y356193D01*
X676673Y359110D01*
X677583Y359717D01*
X678190Y360627D01*
X678404Y361700D01*
Y364490D01*
X700372D01*
X700815Y364402D01*
X702209D01*
X704096Y362515D01*
Y361700D01*
X704310Y360627D01*
X704917Y359717D01*
X705827Y359110D01*
X706900Y358896D01*
X716328D01*
X716500Y358862D01*
X728750D01*
Y355250D01*
X741750D01*
Y368250D01*
X741750D01*
Y369750D01*
X741750D01*
Y381750D01*
X743000D01*
Y396750D01*
X743000D01*
X743039Y399270D01*
Y406387D01*
X743531Y411214D01*
X752014Y411329D01*
X752391Y411409D01*
X752767Y411484D01*
X752779Y411492D01*
X752793Y411495D01*
X753110Y411713D01*
X753429Y411926D01*
X760442Y418939D01*
X760884Y419601D01*
X761039Y420381D01*
Y471384D01*
X761039Y473500D01*
X761039Y473500D01*
X760884Y474280D01*
X760442Y474942D01*
X759780Y475384D01*
X759000Y475539D01*
X759000Y475539D01*
X756884Y475539D01*
X736250Y475539D01*
X735470Y475384D01*
X733398Y475018D01*
X731181Y475138D01*
X729658Y475549D01*
X729530Y475634D01*
X728750Y475789D01*
X715039D01*
Y536250D01*
X714884Y537030D01*
X714442Y537692D01*
X713780Y538134D01*
X713000Y538289D01*
D02*
G37*
G36*
X564540Y543550D02*
X561960D01*
X559467Y542882D01*
X557233Y541592D01*
X555408Y539767D01*
X554118Y537533D01*
X553450Y535040D01*
Y532460D01*
X554118Y529967D01*
X555408Y527733D01*
X557233Y525908D01*
X559467Y524618D01*
X561960Y523950D01*
X564540D01*
X567033Y524618D01*
X569267Y525908D01*
X571092Y527733D01*
X572382Y529967D01*
X573050Y532460D01*
Y535040D01*
X572382Y537533D01*
X571092Y539767D01*
X569267Y541592D01*
X567033Y542882D01*
X564540Y543550D01*
D02*
G37*
G36*
X310540D02*
X307960D01*
X305467Y542882D01*
X303233Y541592D01*
X301408Y539767D01*
X300118Y537533D01*
X299450Y535040D01*
Y532460D01*
X300118Y529967D01*
X301408Y527733D01*
X303233Y525908D01*
X305467Y524618D01*
X307960Y523950D01*
X310540D01*
X313033Y524618D01*
X315267Y525908D01*
X317092Y527733D01*
X318382Y529967D01*
X319050Y532460D01*
Y535040D01*
X318382Y537533D01*
X317092Y539767D01*
X315267Y541592D01*
X313033Y542882D01*
X310540Y543550D01*
D02*
G37*
G36*
X-166931Y600451D02*
X-173157D01*
X-179331Y599638D01*
X-185345Y598027D01*
X-191098Y595644D01*
X-196490Y592531D01*
X-201430Y588740D01*
X-205833Y584337D01*
X-209623Y579397D01*
X-212737Y574005D01*
X-215119Y568252D01*
X-216731Y562238D01*
X-217544Y556064D01*
Y549838D01*
X-216731Y543664D01*
X-215119Y537650D01*
X-212737Y531897D01*
X-209623Y526505D01*
X-205833Y521565D01*
X-201430Y517162D01*
X-196490Y513372D01*
X-191098Y510258D01*
X-185345Y507875D01*
X-179331Y506264D01*
X-173157Y505451D01*
X-166931D01*
X-160757Y506264D01*
X-154743Y507875D01*
X-148990Y510258D01*
X-143598Y513372D01*
X-138658Y517162D01*
X-134255Y521565D01*
X-130464Y526505D01*
X-127351Y531897D01*
X-124968Y537650D01*
X-123357Y543664D01*
X-122544Y549838D01*
Y556064D01*
X-123357Y562238D01*
X-124968Y568252D01*
X-127351Y574005D01*
X-130464Y579397D01*
X-134255Y584337D01*
X-138658Y588740D01*
X-143598Y592531D01*
X-148990Y595644D01*
X-154743Y598027D01*
X-160757Y599638D01*
X-166931Y600451D01*
D02*
G37*
G36*
X564540Y518150D02*
X561960D01*
X559467Y517482D01*
X557233Y516192D01*
X555408Y514367D01*
X554118Y512133D01*
X553450Y509640D01*
Y507060D01*
X554118Y504567D01*
X555408Y502333D01*
X557233Y500508D01*
X559467Y499218D01*
X561960Y498550D01*
X564540D01*
X567033Y499218D01*
X569267Y500508D01*
X571092Y502333D01*
X572382Y504567D01*
X573050Y507060D01*
Y509640D01*
X572382Y512133D01*
X571092Y514367D01*
X569267Y516192D01*
X567033Y517482D01*
X564540Y518150D01*
D02*
G37*
G36*
X310540D02*
X307960D01*
X305467Y517482D01*
X303233Y516192D01*
X301408Y514367D01*
X300118Y512133D01*
X299450Y509640D01*
Y507060D01*
X300118Y504567D01*
X301408Y502333D01*
X303233Y500508D01*
X305467Y499218D01*
X307960Y498550D01*
X310540D01*
X313033Y499218D01*
X315267Y500508D01*
X317092Y502333D01*
X318382Y504567D01*
X319050Y507060D01*
Y509640D01*
X318382Y512133D01*
X317092Y514367D01*
X315267Y516192D01*
X313033Y517482D01*
X310540Y518150D01*
D02*
G37*
G36*
X923225Y481868D02*
X920275D01*
X918919Y481598D01*
X915081D01*
X913725Y481868D01*
X910775D01*
X909419Y481598D01*
X908270Y480830D01*
X907939Y480335D01*
X905850Y479318D01*
X902618Y478608D01*
X902356Y478624D01*
X901268Y479075D01*
X898882D01*
X896676Y478162D01*
X894988Y476474D01*
X894075Y474268D01*
Y471881D01*
X894839Y470036D01*
X894988Y469676D01*
X894988Y469676D01*
X895298Y465541D01*
X894323Y463809D01*
X893663Y463149D01*
X892750Y460943D01*
X892250Y457500D01*
X892250Y457500D01*
Y448000D01*
X892250Y444500D01*
X892250Y439500D01*
Y430000D01*
X899141D01*
X902191Y426250D01*
X902424Y425079D01*
X903087Y424087D01*
X907270Y419905D01*
X907500Y415000D01*
X907500Y413109D01*
X905100Y408654D01*
X886900D01*
X885315Y413437D01*
Y415760D01*
X862128D01*
X861685Y415848D01*
X860291D01*
X858404Y417735D01*
Y418550D01*
X858190Y419623D01*
X857583Y420533D01*
X856673Y421140D01*
X855600Y421354D01*
X846172D01*
X846000Y421388D01*
X833750D01*
Y425000D01*
X820750D01*
Y412000D01*
X820750D01*
Y410500D01*
X820750D01*
Y398500D01*
X819500D01*
Y383500D01*
X833500D01*
Y383500D01*
X837400Y385846D01*
X855600D01*
X857185Y381063D01*
Y378740D01*
X874662D01*
Y368500D01*
X871750D01*
Y354500D01*
X886750D01*
Y354500D01*
X888750D01*
Y354500D01*
X903750D01*
Y367993D01*
X905148Y369743D01*
X907404Y371750D01*
X919750D01*
Y378707D01*
X920250Y383500D01*
X924232Y383500D01*
X933881Y383500D01*
X935627Y383101D01*
X938500Y380056D01*
X939414Y377851D01*
X941101Y376163D01*
X943307Y375250D01*
X945694D01*
X947899Y376163D01*
X949587Y377851D01*
X950500Y380056D01*
Y382443D01*
X951206Y383500D01*
X952250D01*
Y397500D01*
X945125D01*
X943235Y402500D01*
X943587Y402851D01*
X944500Y405056D01*
Y407443D01*
X944031Y408575D01*
X945562Y412115D01*
X946731Y413575D01*
X959415D01*
X959534Y413456D01*
X961022Y412461D01*
X962778Y412112D01*
X964665D01*
Y401900D01*
X983965D01*
Y421200D01*
X969608D01*
X969165Y421288D01*
X964678D01*
X964559Y421407D01*
X963071Y422402D01*
X961315Y422751D01*
X940069D01*
X936000Y425000D01*
X936000Y427751D01*
Y441000D01*
X936000Y441000D01*
X936268Y444175D01*
Y450472D01*
X941268Y452543D01*
X958135Y435676D01*
X959623Y434682D01*
X961379Y434333D01*
X965026D01*
X965323Y433225D01*
X966593Y431025D01*
X968390Y429228D01*
X970590Y427958D01*
X973045Y427300D01*
X975585D01*
X978040Y427958D01*
X980240Y429228D01*
X982037Y431025D01*
X983307Y433225D01*
X983965Y435680D01*
Y438220D01*
X983307Y440675D01*
X982037Y442875D01*
X980240Y444672D01*
X978040Y445942D01*
X975585Y446600D01*
X973045D01*
X970590Y445942D01*
X968390Y444672D01*
X967227Y443509D01*
X963280D01*
X936268Y470521D01*
Y478325D01*
X935998Y479681D01*
X935230Y480830D01*
X934081Y481598D01*
X932725Y481868D01*
X929775D01*
X928419Y481598D01*
X924581D01*
X923225Y481868D01*
D02*
G37*
G36*
X-74675Y510575D02*
Y510575D01*
X-77675Y510575D01*
X-89675D01*
Y497082D01*
X-91073Y495332D01*
X-93329Y493325D01*
X-105675D01*
Y486368D01*
X-106175Y481575D01*
X-110157Y481575D01*
X-119806Y481575D01*
X-121552Y481974D01*
X-124425Y485019D01*
X-125338Y487224D01*
X-127026Y488912D01*
X-129232Y489825D01*
X-131618D01*
X-133824Y488912D01*
X-135512Y487224D01*
X-136425Y485019D01*
Y482631D01*
X-137131Y481575D01*
X-138175D01*
Y467575D01*
X-131050D01*
X-129160Y462575D01*
X-129512Y462224D01*
X-130425Y460019D01*
Y457631D01*
X-129512Y455426D01*
X-127824Y453738D01*
X-126826Y453325D01*
X-127820Y448325D01*
X-163355D01*
X-165283Y450357D01*
Y450357D01*
X-184557Y451367D01*
X-185567Y432093D01*
X-166293Y431083D01*
X-165870Y439149D01*
X-121925D01*
Y424075D01*
X-121925Y424075D01*
X-122193Y420900D01*
Y414603D01*
X-127193Y412532D01*
X-133765Y419104D01*
X-135254Y420099D01*
X-137010Y420448D01*
X-168262D01*
X-168733Y421373D01*
X-170433Y423261D01*
X-172564Y424645D01*
X-174981Y425430D01*
X-177518Y425563D01*
X-180003Y425035D01*
X-182267Y423881D01*
X-184156Y422181D01*
X-185539Y420050D01*
X-186325Y417634D01*
X-186458Y415096D01*
X-185929Y412611D01*
X-184776Y410347D01*
X-183076Y408459D01*
X-180944Y407075D01*
X-178528Y406289D01*
X-175991Y406157D01*
X-173505Y406685D01*
X-171241Y407838D01*
X-169353Y409539D01*
X-168228Y411272D01*
X-138910D01*
X-122193Y394554D01*
Y386750D01*
X-121923Y385394D01*
X-121155Y384245D01*
X-120006Y383477D01*
X-118650Y383207D01*
X-115700D01*
X-114344Y383477D01*
X-110506D01*
X-109150Y383207D01*
X-106200D01*
X-104844Y383477D01*
X-101006D01*
X-99650Y383207D01*
X-96700D01*
X-95344Y383477D01*
X-94195Y384245D01*
X-93864Y384740D01*
X-91986Y385734D01*
X-88616Y386530D01*
X-88255Y386513D01*
X-87318Y386125D01*
X-84932D01*
X-82726Y387038D01*
X-81039Y388726D01*
X-80125Y390932D01*
Y393318D01*
X-80827Y395013D01*
X-81038Y395524D01*
X-81039Y395524D01*
X-81246Y399634D01*
X-80248Y401266D01*
X-79588Y401926D01*
X-78675Y404132D01*
X-78175Y407575D01*
X-78175Y407575D01*
Y417075D01*
X-78175Y420575D01*
X-78175Y425575D01*
Y435075D01*
X-85066D01*
X-88116Y438825D01*
X-88349Y439995D01*
X-89012Y440988D01*
X-93195Y445170D01*
X-93425Y450075D01*
X-93425Y450710D01*
Y451966D01*
X-91025Y456421D01*
X-72825D01*
X-71240Y451638D01*
Y449315D01*
X-48053D01*
X-47610Y449227D01*
X-46216D01*
X-44329Y447340D01*
Y446525D01*
X-44116Y445452D01*
X-43508Y444542D01*
X-42598Y443935D01*
X-41525Y443721D01*
X-32097D01*
X-31925Y443687D01*
X-19675D01*
Y440075D01*
X-6675D01*
Y453075D01*
X-6675D01*
Y454575D01*
X-6675D01*
Y466575D01*
X-5425D01*
Y481575D01*
X-19425D01*
Y481575D01*
X-23325Y479229D01*
X-41525D01*
X-43110Y484011D01*
Y486335D01*
X-60587D01*
Y496575D01*
X-57675D01*
Y510575D01*
X-69675D01*
X-72675Y510575D01*
Y510575D01*
X-74675D01*
D02*
G37*
G36*
X564540Y492750D02*
X561960D01*
X559467Y492082D01*
X557233Y490792D01*
X555408Y488967D01*
X554118Y486733D01*
X553450Y484240D01*
Y481660D01*
X554118Y479167D01*
X555408Y476933D01*
X557233Y475108D01*
X559467Y473818D01*
X561960Y473150D01*
X564540D01*
X567033Y473818D01*
X569267Y475108D01*
X571092Y476933D01*
X572382Y479167D01*
X573050Y481660D01*
Y484240D01*
X572382Y486733D01*
X571092Y488967D01*
X569267Y490792D01*
X567033Y492082D01*
X564540Y492750D01*
D02*
G37*
G36*
X310540D02*
X307960D01*
X305467Y492082D01*
X303233Y490792D01*
X301408Y488967D01*
X300118Y486733D01*
X299450Y484240D01*
Y481660D01*
X300118Y479167D01*
X301408Y476933D01*
X303233Y475108D01*
X305467Y473818D01*
X307960Y473150D01*
X310540D01*
X313033Y473818D01*
X315267Y475108D01*
X317092Y476933D01*
X318382Y479167D01*
X319050Y481660D01*
Y484240D01*
X318382Y486733D01*
X317092Y488967D01*
X315267Y490792D01*
X313033Y492082D01*
X310540Y492750D01*
D02*
G37*
G36*
X564540Y467350D02*
X561960D01*
X559467Y466682D01*
X557233Y465392D01*
X555408Y463567D01*
X554118Y461333D01*
X553450Y458840D01*
Y456260D01*
X554118Y453767D01*
X555408Y451533D01*
X557233Y449708D01*
X559467Y448418D01*
X561960Y447750D01*
X564540D01*
X567033Y448418D01*
X569267Y449708D01*
X571092Y451533D01*
X572382Y453767D01*
X573050Y456260D01*
Y458840D01*
X572382Y461333D01*
X571092Y463567D01*
X569267Y465392D01*
X567033Y466682D01*
X564540Y467350D01*
D02*
G37*
G36*
X310540D02*
X307960D01*
X305467Y466682D01*
X303233Y465392D01*
X301408Y463567D01*
X300118Y461333D01*
X299450Y458840D01*
Y456260D01*
X300118Y453767D01*
X301408Y451533D01*
X303233Y449708D01*
X305467Y448418D01*
X307960Y447750D01*
X310540D01*
X313033Y448418D01*
X315267Y449708D01*
X317092Y451533D01*
X318382Y453767D01*
X319050Y456260D01*
Y458840D01*
X318382Y461333D01*
X317092Y463567D01*
X315267Y465392D01*
X313033Y466682D01*
X310540Y467350D01*
D02*
G37*
G36*
X564540Y441950D02*
X561960D01*
X559467Y441282D01*
X557233Y439992D01*
X555408Y438167D01*
X554118Y435933D01*
X553450Y433440D01*
Y430860D01*
X554118Y428367D01*
X555408Y426133D01*
X557233Y424308D01*
X559467Y423018D01*
X561960Y422350D01*
X564540D01*
X567033Y423018D01*
X569267Y424308D01*
X571092Y426133D01*
X572382Y428367D01*
X573050Y430860D01*
Y433440D01*
X572382Y435933D01*
X571092Y438167D01*
X569267Y439992D01*
X567033Y441282D01*
X564540Y441950D01*
D02*
G37*
G36*
X310540D02*
X307960D01*
X305467Y441282D01*
X303233Y439992D01*
X301408Y438167D01*
X300118Y435933D01*
X299450Y433440D01*
Y430860D01*
X300118Y428367D01*
X301408Y426133D01*
X303233Y424308D01*
X305467Y423018D01*
X307960Y422350D01*
X310540D01*
X313033Y423018D01*
X315267Y424308D01*
X317092Y426133D01*
X318382Y428367D01*
X319050Y430860D01*
Y433440D01*
X318382Y435933D01*
X317092Y438167D01*
X315267Y439992D01*
X313033Y441282D01*
X310540Y441950D01*
D02*
G37*
G36*
X564540Y416550D02*
X561960D01*
X559467Y415882D01*
X557233Y414592D01*
X555408Y412767D01*
X554118Y410533D01*
X553450Y408040D01*
Y405460D01*
X554118Y402967D01*
X555408Y400733D01*
X557233Y398908D01*
X559467Y397618D01*
X561960Y396950D01*
X564540D01*
X567033Y397618D01*
X569267Y398908D01*
X571092Y400733D01*
X572382Y402967D01*
X573050Y405460D01*
Y408040D01*
X572382Y410533D01*
X571092Y412767D01*
X569267Y414592D01*
X567033Y415882D01*
X564540Y416550D01*
D02*
G37*
G36*
X310540D02*
X307960D01*
X305467Y415882D01*
X303233Y414592D01*
X301408Y412767D01*
X300118Y410533D01*
X299450Y408040D01*
Y405460D01*
X300118Y402967D01*
X301408Y400733D01*
X303233Y398908D01*
X305467Y397618D01*
X307960Y396950D01*
X310540D01*
X313033Y397618D01*
X315267Y398908D01*
X317092Y400733D01*
X318382Y402967D01*
X319050Y405460D01*
Y408040D01*
X318382Y410533D01*
X317092Y412767D01*
X315267Y414592D01*
X313033Y415882D01*
X310540Y416550D01*
D02*
G37*
G36*
X564540Y391150D02*
X561960D01*
X559467Y390482D01*
X557233Y389192D01*
X555408Y387367D01*
X554118Y385133D01*
X553450Y382640D01*
Y380060D01*
X554118Y377567D01*
X555408Y375333D01*
X557233Y373508D01*
X559467Y372218D01*
X561960Y371550D01*
X564540D01*
X567033Y372218D01*
X569267Y373508D01*
X571092Y375333D01*
X572382Y377567D01*
X573050Y380060D01*
Y382640D01*
X572382Y385133D01*
X571092Y387367D01*
X569267Y389192D01*
X567033Y390482D01*
X564540Y391150D01*
D02*
G37*
G36*
X310540D02*
X307960D01*
X305467Y390482D01*
X303233Y389192D01*
X301408Y387367D01*
X300118Y385133D01*
X299450Y382640D01*
Y380060D01*
X300118Y377567D01*
X301408Y375333D01*
X303233Y373508D01*
X305467Y372218D01*
X307960Y371550D01*
X310540D01*
X313033Y372218D01*
X315267Y373508D01*
X317092Y375333D01*
X318382Y377567D01*
X319050Y380060D01*
Y382640D01*
X318382Y385133D01*
X317092Y387367D01*
X315267Y389192D01*
X313033Y390482D01*
X310540Y391150D01*
D02*
G37*
G36*
X564540Y365750D02*
X561960D01*
X559467Y365082D01*
X557233Y363792D01*
X555408Y361967D01*
X554118Y359733D01*
X553450Y357240D01*
Y354660D01*
X554118Y352167D01*
X555408Y349933D01*
X557233Y348108D01*
X559467Y346818D01*
X561960Y346150D01*
X564540D01*
X567033Y346818D01*
X569267Y348108D01*
X571092Y349933D01*
X572382Y352167D01*
X573050Y354660D01*
Y357240D01*
X572382Y359733D01*
X571092Y361967D01*
X569267Y363792D01*
X567033Y365082D01*
X564540Y365750D01*
D02*
G37*
G36*
X310540D02*
X307960D01*
X305467Y365082D01*
X303233Y363792D01*
X301408Y361967D01*
X300118Y359733D01*
X299450Y357240D01*
Y354660D01*
X300118Y352167D01*
X301408Y349933D01*
X303233Y348108D01*
X305467Y346818D01*
X307960Y346150D01*
X310540D01*
X313033Y346818D01*
X315267Y348108D01*
X317092Y349933D01*
X318382Y352167D01*
X319050Y354660D01*
Y357240D01*
X318382Y359733D01*
X317092Y361967D01*
X315267Y363792D01*
X313033Y365082D01*
X310540Y365750D01*
D02*
G37*
G36*
X564540Y340350D02*
X561960D01*
X559467Y339682D01*
X557233Y338392D01*
X555408Y336567D01*
X554118Y334333D01*
X553450Y331840D01*
Y329260D01*
X554118Y326767D01*
X555408Y324533D01*
X557233Y322708D01*
X559467Y321418D01*
X561960Y320750D01*
X564540D01*
X567033Y321418D01*
X569267Y322708D01*
X571092Y324533D01*
X572382Y326767D01*
X573050Y329260D01*
Y331840D01*
X572382Y334333D01*
X571092Y336567D01*
X569267Y338392D01*
X567033Y339682D01*
X564540Y340350D01*
D02*
G37*
G36*
X310540D02*
X307960D01*
X305467Y339682D01*
X303233Y338392D01*
X301408Y336567D01*
X300118Y334333D01*
X299450Y331840D01*
Y329260D01*
X300118Y326767D01*
X301408Y324533D01*
X303233Y322708D01*
X305467Y321418D01*
X307960Y320750D01*
X310540D01*
X313033Y321418D01*
X315267Y322708D01*
X317092Y324533D01*
X318382Y326767D01*
X319050Y329260D01*
Y331840D01*
X318382Y334333D01*
X317092Y336567D01*
X315267Y338392D01*
X313033Y339682D01*
X310540Y340350D01*
D02*
G37*
G36*
X564540Y314950D02*
X561960D01*
X559467Y314282D01*
X557233Y312992D01*
X555408Y311167D01*
X554118Y308933D01*
X553450Y306440D01*
Y303860D01*
X554118Y301367D01*
X555408Y299133D01*
X557233Y297308D01*
X559467Y296018D01*
X561960Y295350D01*
X564540D01*
X567033Y296018D01*
X569267Y297308D01*
X571092Y299133D01*
X572382Y301367D01*
X573050Y303860D01*
Y306440D01*
X572382Y308933D01*
X571092Y311167D01*
X569267Y312992D01*
X567033Y314282D01*
X564540Y314950D01*
D02*
G37*
G36*
X310540D02*
X307960D01*
X305467Y314282D01*
X303233Y312992D01*
X301408Y311167D01*
X300118Y308933D01*
X299450Y306440D01*
Y303860D01*
X300118Y301367D01*
X301408Y299133D01*
X303233Y297308D01*
X305467Y296018D01*
X307960Y295350D01*
X310540D01*
X313033Y296018D01*
X315267Y297308D01*
X317092Y299133D01*
X318382Y301367D01*
X319050Y303860D01*
Y306440D01*
X318382Y308933D01*
X317092Y311167D01*
X315267Y312992D01*
X313033Y314282D01*
X310540Y314950D01*
D02*
G37*
G36*
X564540Y289550D02*
X561960D01*
X559467Y288882D01*
X557233Y287592D01*
X555408Y285767D01*
X554118Y283533D01*
X553450Y281040D01*
Y278460D01*
X554118Y275967D01*
X555408Y273733D01*
X557233Y271908D01*
X559467Y270618D01*
X561960Y269950D01*
X564540D01*
X567033Y270618D01*
X569267Y271908D01*
X571092Y273733D01*
X572382Y275967D01*
X573050Y278460D01*
Y281040D01*
X572382Y283533D01*
X571092Y285767D01*
X569267Y287592D01*
X567033Y288882D01*
X564540Y289550D01*
D02*
G37*
G36*
X310540D02*
X307960D01*
X305467Y288882D01*
X303233Y287592D01*
X301408Y285767D01*
X300118Y283533D01*
X299450Y281040D01*
Y278460D01*
X300118Y275967D01*
X301408Y273733D01*
X303233Y271908D01*
X305467Y270618D01*
X307960Y269950D01*
X310540D01*
X313033Y270618D01*
X315267Y271908D01*
X317092Y273733D01*
X318382Y275967D01*
X319050Y278460D01*
Y281040D01*
X318382Y283533D01*
X317092Y285767D01*
X315267Y287592D01*
X313033Y288882D01*
X310540Y289550D01*
D02*
G37*
G36*
X-168172Y364610D02*
X-174398D01*
X-180572Y363797D01*
X-186586Y362186D01*
X-192339Y359803D01*
X-197731Y356690D01*
X-202671Y352899D01*
X-207074Y348496D01*
X-210865Y343557D01*
X-213978Y338164D01*
X-216361Y332411D01*
X-217972Y326397D01*
X-218785Y320224D01*
Y313997D01*
X-217972Y307824D01*
X-216361Y301809D01*
X-213978Y296056D01*
X-210865Y290664D01*
X-207074Y285724D01*
X-202671Y281321D01*
X-197731Y277531D01*
X-192339Y274417D01*
X-186586Y272035D01*
X-180572Y270423D01*
X-174398Y269610D01*
X-168172D01*
X-161998Y270423D01*
X-155984Y272035D01*
X-150231Y274417D01*
X-144839Y277531D01*
X-139899Y281321D01*
X-135496Y285724D01*
X-131706Y290664D01*
X-128592Y296056D01*
X-126209Y301809D01*
X-124598Y307824D01*
X-123785Y313997D01*
Y320224D01*
X-124598Y326397D01*
X-126209Y332411D01*
X-128592Y338164D01*
X-131706Y343557D01*
X-135496Y348496D01*
X-139899Y352899D01*
X-144839Y356690D01*
X-150231Y359803D01*
X-155984Y362186D01*
X-161998Y363797D01*
X-168172Y364610D01*
D02*
G37*
G36*
X564540Y264150D02*
X561960D01*
X559467Y263482D01*
X557233Y262192D01*
X555408Y260367D01*
X554118Y258133D01*
X553450Y255640D01*
Y253060D01*
X554118Y250567D01*
X555408Y248333D01*
X557233Y246508D01*
X559467Y245218D01*
X561960Y244550D01*
X564540D01*
X567033Y245218D01*
X569267Y246508D01*
X571092Y248333D01*
X572382Y250567D01*
X573050Y253060D01*
Y255640D01*
X572382Y258133D01*
X571092Y260367D01*
X569267Y262192D01*
X567033Y263482D01*
X564540Y264150D01*
D02*
G37*
G36*
X310540D02*
X307960D01*
X305467Y263482D01*
X303233Y262192D01*
X301408Y260367D01*
X300118Y258133D01*
X299450Y255640D01*
Y253060D01*
X300118Y250567D01*
X301408Y248333D01*
X303233Y246508D01*
X305467Y245218D01*
X307960Y244550D01*
X310540D01*
X313033Y245218D01*
X315267Y246508D01*
X317092Y248333D01*
X318382Y250567D01*
X319050Y253060D01*
Y255640D01*
X318382Y258133D01*
X317092Y260367D01*
X315267Y262192D01*
X313033Y263482D01*
X310540Y264150D01*
D02*
G37*
G36*
X564540Y238750D02*
X561960D01*
X559467Y238082D01*
X557233Y236792D01*
X555408Y234967D01*
X554118Y232733D01*
X553450Y230240D01*
Y227660D01*
X554118Y225167D01*
X555408Y222933D01*
X557233Y221108D01*
X559467Y219818D01*
X561960Y219150D01*
X564540D01*
X567033Y219818D01*
X569267Y221108D01*
X571092Y222933D01*
X572382Y225167D01*
X573050Y227660D01*
Y230240D01*
X572382Y232733D01*
X571092Y234967D01*
X569267Y236792D01*
X567033Y238082D01*
X564540Y238750D01*
D02*
G37*
G36*
X310540D02*
X307960D01*
X305467Y238082D01*
X303233Y236792D01*
X301408Y234967D01*
X300118Y232733D01*
X299450Y230240D01*
Y227660D01*
X300118Y225167D01*
X301408Y222933D01*
X303233Y221108D01*
X305467Y219818D01*
X307960Y219150D01*
X310540D01*
X313033Y219818D01*
X315267Y221108D01*
X317092Y222933D01*
X318382Y225167D01*
X319050Y227660D01*
Y230240D01*
X318382Y232733D01*
X317092Y234967D01*
X315267Y236792D01*
X313033Y238082D01*
X310540Y238750D01*
D02*
G37*
G36*
X68280Y236250D02*
Y236250D01*
X65280Y236250D01*
X53280D01*
Y222757D01*
X51882Y221007D01*
X49626Y219000D01*
X37280D01*
Y212043D01*
X36779Y207250D01*
X32797Y207250D01*
X23149Y207250D01*
X21403Y207649D01*
X18530Y210693D01*
X17616Y212899D01*
X15928Y214587D01*
X13723Y215500D01*
X11336D01*
X9131Y214587D01*
X7443Y212899D01*
X6530Y210693D01*
Y208307D01*
X5824Y207250D01*
X4780D01*
Y193250D01*
X11904D01*
X13794Y188250D01*
X13443Y187899D01*
X12530Y185693D01*
Y183307D01*
X9423Y178588D01*
X3312D01*
X1557Y178239D01*
X68Y177244D01*
X-30702Y146474D01*
X-34915Y146843D01*
X-34915Y146843D01*
X-50724Y135773D01*
X-39654Y119963D01*
X-23845Y131033D01*
X-27683Y136516D01*
X5213Y169412D01*
X17799D01*
X21030Y165750D01*
X21030Y164412D01*
Y149750D01*
X21030Y149750D01*
X20761Y146575D01*
Y135825D01*
X21031Y134469D01*
X21799Y133320D01*
X22949Y132552D01*
X24305Y132282D01*
X26887D01*
X27201Y131986D01*
X27201Y131477D01*
X24304Y126718D01*
X22949Y126448D01*
X21799Y125680D01*
X21031Y124531D01*
X20761Y123175D01*
Y122388D01*
X-14725D01*
X-16481Y122039D01*
X-17970Y121044D01*
X-17978Y121035D01*
X-19789Y121880D01*
X-22291Y122321D01*
X-24822Y122099D01*
X-27210Y121230D01*
X-29291Y119773D01*
X-30925Y117826D01*
X-31998Y115524D01*
X-32440Y113021D01*
X-32218Y110490D01*
X-31349Y108103D01*
X-29892Y106021D01*
X-27945Y104388D01*
X-25642Y103314D01*
X-23140Y102873D01*
X-20609Y103094D01*
X-18221Y103963D01*
X-16140Y105421D01*
X-14507Y107367D01*
X-13433Y109670D01*
X-12992Y112172D01*
X-8063Y113212D01*
X20761D01*
Y112425D01*
X21031Y111069D01*
X21799Y109920D01*
X22949Y109152D01*
X24305Y108882D01*
X27255D01*
X28610Y109152D01*
X32449D01*
X33805Y108882D01*
X36755D01*
X38110Y109152D01*
X41949D01*
X43305Y108882D01*
X46255D01*
X47611Y109152D01*
X48760Y109920D01*
X49528Y111069D01*
X51586Y111901D01*
X53973D01*
X56178Y112814D01*
X57866Y114502D01*
X58780Y116707D01*
Y119094D01*
X58404Y120000D01*
X59059Y123062D01*
X60720Y125517D01*
X61678Y125913D01*
X63366Y127601D01*
X64280Y129806D01*
X64780Y133250D01*
X64780Y133250D01*
Y142750D01*
X64780Y146250D01*
X64780Y151250D01*
Y160750D01*
X57888D01*
X54838Y164500D01*
X54605Y165671D01*
X53942Y166663D01*
X49760Y170845D01*
X49530Y175750D01*
X49530Y177640D01*
X51930Y182096D01*
X70130D01*
X71715Y177313D01*
Y174990D01*
X94901D01*
X95345Y174902D01*
X96739D01*
X98626Y173015D01*
Y172200D01*
X98839Y171127D01*
X99447Y170217D01*
X100357Y169610D01*
X101430Y169396D01*
X110857D01*
X111030Y169362D01*
X123280D01*
Y165750D01*
X136280D01*
Y178750D01*
X136280D01*
Y180250D01*
X136280D01*
Y192250D01*
X137530D01*
Y207250D01*
X123530D01*
Y207250D01*
X119629Y204904D01*
X101430D01*
X99845Y209687D01*
Y212010D01*
X82368D01*
Y222250D01*
X85280D01*
Y236250D01*
X73280D01*
X70280Y236250D01*
Y236250D01*
X68280D01*
D02*
G37*
G36*
X564540Y213350D02*
X561960D01*
X559467Y212682D01*
X557233Y211392D01*
X555408Y209567D01*
X554118Y207333D01*
X553450Y204840D01*
Y202260D01*
X554118Y199767D01*
X555408Y197533D01*
X557233Y195708D01*
X559467Y194418D01*
X561960Y193750D01*
X564540D01*
X567033Y194418D01*
X569267Y195708D01*
X571092Y197533D01*
X572382Y199767D01*
X573050Y202260D01*
Y204840D01*
X572382Y207333D01*
X571092Y209567D01*
X569267Y211392D01*
X567033Y212682D01*
X564540Y213350D01*
D02*
G37*
G36*
X310540D02*
X307960D01*
X305467Y212682D01*
X303233Y211392D01*
X301408Y209567D01*
X300118Y207333D01*
X299450Y204840D01*
Y202260D01*
X300118Y199767D01*
X301408Y197533D01*
X303233Y195708D01*
X305467Y194418D01*
X307960Y193750D01*
X310540D01*
X313033Y194418D01*
X315267Y195708D01*
X317092Y197533D01*
X318382Y199767D01*
X319050Y202260D01*
Y204840D01*
X318382Y207333D01*
X317092Y209567D01*
X315267Y211392D01*
X313033Y212682D01*
X310540Y213350D01*
D02*
G37*
G36*
X564540Y187950D02*
X561960D01*
X559467Y187282D01*
X557233Y185992D01*
X555408Y184167D01*
X554118Y181933D01*
X553450Y179440D01*
Y176860D01*
X554118Y174367D01*
X555408Y172133D01*
X557233Y170308D01*
X559467Y169018D01*
X561960Y168350D01*
X564540D01*
X567033Y169018D01*
X569267Y170308D01*
X571092Y172133D01*
X572382Y174367D01*
X573050Y176860D01*
Y179440D01*
X572382Y181933D01*
X571092Y184167D01*
X569267Y185992D01*
X567033Y187282D01*
X564540Y187950D01*
D02*
G37*
G36*
X859943Y190000D02*
X857557D01*
X855351Y189087D01*
X853663Y187399D01*
X852750Y185194D01*
Y182806D01*
X853663Y180601D01*
X854162Y180103D01*
Y178921D01*
X854002Y178681D01*
X853732Y177325D01*
Y168932D01*
X853732Y167154D01*
X851112Y164685D01*
X848435Y163925D01*
X846443Y164750D01*
X844056D01*
X841851Y163837D01*
X840163Y162149D01*
X839250Y159944D01*
X838750Y156500D01*
X838750Y156500D01*
Y147000D01*
X838750Y143500D01*
X838750Y138500D01*
Y129000D01*
X845641D01*
X848691Y125250D01*
X848924Y124080D01*
X849587Y123087D01*
X853770Y118905D01*
X854000Y114000D01*
X854000Y112109D01*
X851600Y107654D01*
X833400D01*
X831815Y112437D01*
Y114760D01*
X808628D01*
X808185Y114848D01*
X806790D01*
X804904Y116735D01*
Y117550D01*
X804690Y118623D01*
X804083Y119533D01*
X803173Y120140D01*
X802100Y120354D01*
X792672D01*
X792500Y120388D01*
X780250D01*
Y124000D01*
X767250D01*
Y111000D01*
X767250D01*
Y109500D01*
X767250D01*
Y97500D01*
X766000D01*
Y82500D01*
X780000D01*
Y82500D01*
X783900Y84846D01*
X802100D01*
X803685Y80063D01*
Y77740D01*
X821162D01*
Y67500D01*
X818250D01*
Y53500D01*
X833250D01*
Y53500D01*
X835250D01*
Y53500D01*
X850250D01*
Y66993D01*
X851648Y68743D01*
X853904Y70750D01*
X859257D01*
X860014Y69351D01*
X860790Y65750D01*
X859863Y64824D01*
X858950Y62618D01*
Y60231D01*
X859863Y58026D01*
X861551Y56338D01*
X863756Y55425D01*
X866143D01*
X868349Y56338D01*
X870036Y58026D01*
X870950Y60231D01*
Y60936D01*
X874439Y64425D01*
X881950D01*
Y76425D01*
X881950Y79425D01*
X882163Y84337D01*
X891585D01*
X903096Y72826D01*
X899256Y67541D01*
X914870Y56196D01*
X926214Y71810D01*
X910600Y83155D01*
X910600D01*
X906099Y82800D01*
X896730Y92169D01*
X895241Y93164D01*
X893486Y93513D01*
X887024D01*
X885294Y98044D01*
X886193Y99250D01*
X888399Y100163D01*
X890087Y101851D01*
X891000Y104057D01*
Y106444D01*
X890087Y108649D01*
X888399Y110337D01*
X886193Y111250D01*
X883807D01*
X882500Y112123D01*
Y114000D01*
X873000Y114000D01*
X869897D01*
X867826Y119000D01*
X869413Y120588D01*
X873000Y124000D01*
X882500D01*
Y140000D01*
X882500Y140000D01*
X882768Y143175D01*
Y149472D01*
X887768Y151543D01*
X923077Y116235D01*
Y98745D01*
X922579Y98524D01*
X920604Y96924D01*
X919111Y94869D01*
X918201Y92497D01*
X917935Y89970D01*
X918332Y87460D01*
X919366Y85139D01*
X920965Y83164D01*
X923020Y81671D01*
X925393Y80760D01*
X927920Y80495D01*
X930429Y80892D01*
X932750Y81926D01*
X934725Y83525D01*
X936218Y85580D01*
X937129Y87952D01*
X937395Y90479D01*
X936997Y92989D01*
X935964Y95310D01*
X934365Y97285D01*
X932309Y98778D01*
X932253Y98800D01*
Y118135D01*
X931904Y119891D01*
X930909Y121379D01*
X882768Y169521D01*
Y177325D01*
X882498Y178681D01*
X881730Y179830D01*
X880581Y180598D01*
X879225Y180868D01*
X876275D01*
X874919Y180598D01*
X871081D01*
X869725Y180868D01*
X869359D01*
X866141Y182221D01*
X864750Y185194D01*
X863837Y187399D01*
X862149Y189087D01*
X859943Y190000D01*
D02*
G37*
G36*
X989902Y223183D02*
X983676D01*
X977502Y222371D01*
X971488Y220759D01*
X965735Y218376D01*
X960343Y215263D01*
X955403Y211472D01*
X951000Y207070D01*
X947209Y202130D01*
X944096Y196737D01*
X941713Y190985D01*
X940101Y184970D01*
X939289Y178797D01*
Y172570D01*
X940101Y166397D01*
X941713Y160382D01*
X944096Y154630D01*
X947209Y149237D01*
X951000Y144297D01*
X955403Y139894D01*
X960343Y136104D01*
X965735Y132991D01*
X971488Y130608D01*
X977502Y128996D01*
X983676Y128183D01*
X989902D01*
X996076Y128996D01*
X1002090Y130608D01*
X1007843Y132991D01*
X1013235Y136104D01*
X1018175Y139894D01*
X1022578Y144297D01*
X1026368Y149237D01*
X1029482Y154630D01*
X1031864Y160382D01*
X1033476Y166397D01*
X1034289Y172570D01*
Y178797D01*
X1033476Y184970D01*
X1031864Y190985D01*
X1029482Y196737D01*
X1026368Y202130D01*
X1022578Y207070D01*
X1018175Y211472D01*
X1013235Y215263D01*
X1007843Y218376D01*
X1002090Y220759D01*
X996076Y222371D01*
X989902Y223183D01*
D02*
G37*
G36*
X570805Y68750D02*
X555805D01*
Y54750D01*
X555805D01*
X558151Y50850D01*
Y32650D01*
X553368Y31065D01*
X551045D01*
Y13588D01*
X540805D01*
Y16500D01*
X526805D01*
Y1500D01*
X526805D01*
Y-500D01*
X526805D01*
Y-15500D01*
X540298D01*
X542048Y-16898D01*
X544055Y-19154D01*
Y-31500D01*
X551012D01*
X555805Y-32000D01*
X555805Y-35982D01*
X555805Y-45825D01*
X554634Y-48049D01*
X552159Y-50268D01*
X551080D01*
X548874Y-51182D01*
X547187Y-52869D01*
X546273Y-55075D01*
Y-57462D01*
X547187Y-59667D01*
X548874Y-61355D01*
X551080Y-62268D01*
X551522D01*
X555805Y-64000D01*
Y-64000D01*
X555805Y-64000D01*
X569805D01*
Y-56875D01*
X574805Y-54985D01*
X575156Y-55337D01*
X577362Y-56250D01*
X579748D01*
X581954Y-55337D01*
X582967Y-54323D01*
X586156Y-54932D01*
X587967Y-55856D01*
Y-92264D01*
X588316Y-94019D01*
X589311Y-95508D01*
X594326Y-100523D01*
X599176Y-117437D01*
X617728Y-112117D01*
X612408Y-93565D01*
X603033Y-96253D01*
X597143Y-90363D01*
Y-52683D01*
X597305Y-47750D01*
X613305D01*
X613305Y-47750D01*
X616480Y-48018D01*
X627230D01*
X628586Y-47748D01*
X629735Y-46980D01*
X630503Y-45831D01*
X630773Y-44475D01*
Y-41893D01*
X631069Y-41579D01*
X631578Y-41579D01*
X636337Y-44475D01*
X636607Y-45831D01*
X637375Y-46980D01*
X638524Y-47748D01*
X639880Y-48018D01*
X640667D01*
Y-81552D01*
X632975Y-89244D01*
X631310Y-88829D01*
X628769Y-88873D01*
X626327Y-89573D01*
X624149Y-90882D01*
X622384Y-92710D01*
X621152Y-94932D01*
X620537Y-97398D01*
X620582Y-99938D01*
X621282Y-102381D01*
X622591Y-104558D01*
X624418Y-106323D01*
X626641Y-107555D01*
X629106Y-108170D01*
X631647Y-108126D01*
X634089Y-107425D01*
X636267Y-106117D01*
X638032Y-104289D01*
X639264Y-102067D01*
X639879Y-99601D01*
X639834Y-97061D01*
X639456Y-95740D01*
X648499Y-86697D01*
X649494Y-85208D01*
X649843Y-83452D01*
Y-48018D01*
X650630D01*
X651986Y-47748D01*
X653135Y-46980D01*
X653903Y-45831D01*
X654173Y-44475D01*
Y-41525D01*
X653903Y-40169D01*
Y-36331D01*
X654173Y-34975D01*
Y-32025D01*
X653903Y-30669D01*
Y-26831D01*
X654173Y-25475D01*
Y-22525D01*
X653903Y-21169D01*
X653135Y-20020D01*
X652640Y-19689D01*
X651623Y-17600D01*
X650913Y-14368D01*
X650929Y-14106D01*
X651380Y-13018D01*
Y-10632D01*
X650467Y-8426D01*
X648779Y-6738D01*
X646573Y-5825D01*
X644186D01*
X642342Y-6589D01*
X641981Y-6738D01*
X641981Y-6738D01*
X637846Y-7049D01*
X636114Y-6073D01*
X635454Y-5414D01*
X633248Y-4500D01*
X629805Y-4000D01*
X629805Y-4000D01*
X620305D01*
X616805Y-4000D01*
X611805Y-4000D01*
X602305D01*
Y-10891D01*
X598555Y-13941D01*
X597384Y-14174D01*
X596392Y-14837D01*
X592210Y-19020D01*
X587305Y-19250D01*
X586670Y-19250D01*
X585415D01*
X580959Y-16850D01*
Y1350D01*
X585742Y2935D01*
X588065D01*
Y26122D01*
X588153Y26565D01*
Y27959D01*
X590040Y29846D01*
X590855D01*
X591928Y30060D01*
X592838Y30667D01*
X593445Y31577D01*
X593659Y32650D01*
Y42078D01*
X593693Y42250D01*
Y54500D01*
X597305D01*
Y67500D01*
X584305D01*
Y67500D01*
X582805D01*
Y67500D01*
X570805D01*
Y68750D01*
D02*
G37*
G36*
X242050Y11200D02*
X227050D01*
Y-2800D01*
X227050D01*
X229396Y-6700D01*
Y-24900D01*
X224613Y-26485D01*
X222290D01*
Y-43962D01*
X212050D01*
Y-41050D01*
X198050D01*
Y-56050D01*
X198050D01*
Y-58050D01*
X198050D01*
Y-73050D01*
X211543D01*
X213293Y-74448D01*
X215300Y-76704D01*
X215300Y-89050D01*
X215127Y-89087D01*
X210518Y-90032D01*
Y-90032D01*
X205932Y-91032D01*
X205324D01*
X203119Y-91945D01*
X201431Y-93633D01*
X200518Y-95838D01*
Y-98225D01*
X201431Y-100431D01*
X203119Y-102119D01*
X205324Y-103032D01*
X205932D01*
X210518Y-104032D01*
X210518Y-104032D01*
X210518Y-104032D01*
X222518D01*
X225518Y-104032D01*
X231366Y-104032D01*
Y-124860D01*
X230694Y-125348D01*
X230694D01*
X224730Y-143703D01*
X243085Y-149667D01*
X249049Y-131312D01*
X240542Y-128548D01*
Y-113560D01*
X241631Y-112944D01*
X245542Y-112027D01*
X246401Y-112887D01*
X248606Y-113800D01*
X250993D01*
X253199Y-112887D01*
X254887Y-111199D01*
X255800Y-108994D01*
Y-106607D01*
X256673Y-105300D01*
X258550D01*
X258550Y-95800D01*
Y-92697D01*
X263550Y-90626D01*
X265138Y-92213D01*
X268550Y-95800D01*
Y-105300D01*
X284550D01*
X284550Y-105300D01*
X287725Y-105568D01*
X294022D01*
X295191Y-107151D01*
X296093Y-110568D01*
X268672Y-137989D01*
X267368Y-137955D01*
X265237Y-136571D01*
X262820Y-135786D01*
X260283Y-135653D01*
X257797Y-136181D01*
X255534Y-137335D01*
X253645Y-139035D01*
X252261Y-141166D01*
X251476Y-143583D01*
X251343Y-146120D01*
X251871Y-148605D01*
X253025Y-150870D01*
X254725Y-152758D01*
X256856Y-154142D01*
X259273Y-154927D01*
X261810Y-155060D01*
X264296Y-154531D01*
X266559Y-153378D01*
X268448Y-151678D01*
X269832Y-149547D01*
X270383Y-147851D01*
X271520Y-147625D01*
X273009Y-146630D01*
X303515Y-116124D01*
X314071Y-105568D01*
X321875D01*
X323231Y-105298D01*
X324380Y-104530D01*
X325148Y-103381D01*
X325418Y-102025D01*
Y-99075D01*
X325148Y-97719D01*
Y-93881D01*
X325418Y-92525D01*
Y-89575D01*
X325148Y-88219D01*
Y-84381D01*
X325418Y-83025D01*
Y-80075D01*
X325148Y-78719D01*
X324380Y-77570D01*
X323130Y-76156D01*
X322518Y-72225D01*
Y-69839D01*
X321604Y-67633D01*
X319917Y-65946D01*
X317712Y-65032D01*
X315324D01*
X313919Y-65614D01*
X312905Y-65887D01*
X308399Y-64655D01*
X307878Y-64142D01*
X306699Y-62964D01*
X304494Y-62050D01*
X301050Y-61550D01*
X301050Y-61550D01*
X291550D01*
X288050Y-61550D01*
X283050Y-61550D01*
X273550D01*
Y-68441D01*
X269800Y-71491D01*
X268629Y-71724D01*
X267637Y-72387D01*
X263455Y-76570D01*
X258550Y-76800D01*
X256659Y-76800D01*
X252204Y-74400D01*
Y-56200D01*
X256987Y-54615D01*
X259310D01*
Y-31428D01*
X259398Y-30985D01*
Y-29590D01*
X261285Y-27704D01*
X262100D01*
X263173Y-27490D01*
X264083Y-26883D01*
X264690Y-25973D01*
X264904Y-24900D01*
Y-15472D01*
X264938Y-15300D01*
Y-3050D01*
X268550D01*
Y9950D01*
X255550D01*
Y9950D01*
X254050D01*
Y9950D01*
X242050D01*
Y11200D01*
D02*
G37*
G36*
X850461Y33265D02*
X844234D01*
X838061Y32452D01*
X832046Y30840D01*
X826294Y28457D01*
X820901Y25344D01*
X815961Y21554D01*
X811558Y17151D01*
X807768Y12211D01*
X804655Y6818D01*
X802272Y1066D01*
X800660Y-4949D01*
X799847Y-11122D01*
Y-17349D01*
X800660Y-23522D01*
X802272Y-29536D01*
X804655Y-35289D01*
X807768Y-40682D01*
X811558Y-45622D01*
X815961Y-50024D01*
X820901Y-53815D01*
X826294Y-56928D01*
X832046Y-59311D01*
X838061Y-60923D01*
X844234Y-61735D01*
X850461D01*
X856634Y-60923D01*
X862649Y-59311D01*
X868401Y-56928D01*
X873794Y-53815D01*
X878734Y-50024D01*
X883137Y-45622D01*
X886927Y-40682D01*
X890040Y-35289D01*
X892423Y-29536D01*
X894035Y-23522D01*
X894847Y-17349D01*
Y-11122D01*
X894035Y-4949D01*
X892423Y1066D01*
X890040Y6818D01*
X886927Y12211D01*
X883137Y17151D01*
X878734Y21554D01*
X873794Y25344D01*
X868401Y28457D01*
X862649Y30840D01*
X856634Y32452D01*
X850461Y33265D01*
D02*
G37*
G36*
X135840Y-52942D02*
X129614D01*
X123440Y-53755D01*
X117426Y-55366D01*
X111673Y-57749D01*
X106281Y-60862D01*
X101341Y-64653D01*
X96938Y-69056D01*
X93147Y-73996D01*
X90034Y-79388D01*
X87651Y-85141D01*
X86039Y-91155D01*
X85227Y-97329D01*
Y-103555D01*
X86039Y-109729D01*
X87651Y-115743D01*
X90034Y-121496D01*
X93147Y-126888D01*
X96938Y-131828D01*
X101341Y-136231D01*
X106281Y-140022D01*
X111673Y-143135D01*
X117426Y-145518D01*
X123440Y-147129D01*
X129614Y-147942D01*
X135840D01*
X142014Y-147129D01*
X148028Y-145518D01*
X153781Y-143135D01*
X159173Y-140022D01*
X164113Y-136231D01*
X168516Y-131828D01*
X172306Y-126888D01*
X175420Y-121496D01*
X177803Y-115743D01*
X179414Y-109729D01*
X180227Y-103555D01*
Y-97329D01*
X179414Y-91155D01*
X177803Y-85141D01*
X175420Y-79388D01*
X172306Y-73996D01*
X168516Y-69056D01*
X164113Y-64653D01*
X159173Y-60862D01*
X153781Y-57749D01*
X148028Y-55366D01*
X142014Y-53755D01*
X135840Y-52942D01*
D02*
G37*
G36*
X359627Y-127003D02*
X353400D01*
X347227Y-127815D01*
X341213Y-129427D01*
X335460Y-131810D01*
X330068Y-134923D01*
X325128Y-138714D01*
X320725Y-143117D01*
X316934Y-148056D01*
X313821Y-153449D01*
X311438Y-159202D01*
X309827Y-165216D01*
X309014Y-171389D01*
Y-177616D01*
X309827Y-183789D01*
X311438Y-189804D01*
X313821Y-195557D01*
X316934Y-200949D01*
X320725Y-205889D01*
X325128Y-210292D01*
X330068Y-214082D01*
X335460Y-217196D01*
X341213Y-219578D01*
X347227Y-221190D01*
X353400Y-222003D01*
X359627D01*
X365800Y-221190D01*
X371815Y-219578D01*
X377567Y-217196D01*
X382960Y-214082D01*
X387900Y-210292D01*
X392303Y-205889D01*
X396093Y-200949D01*
X399207Y-195557D01*
X401589Y-189804D01*
X403201Y-183789D01*
X404014Y-177616D01*
Y-171389D01*
X403201Y-165216D01*
X401589Y-159202D01*
X399207Y-153449D01*
X396093Y-148056D01*
X392303Y-143117D01*
X387900Y-138714D01*
X382960Y-134923D01*
X377567Y-131810D01*
X371815Y-129427D01*
X365800Y-127815D01*
X359627Y-127003D01*
D02*
G37*
%LPD*%
G36*
X658250Y496500D02*
X632750D01*
Y535500D01*
X658250D01*
Y496500D01*
D02*
G37*
G36*
X713000Y475487D02*
X712558Y475192D01*
X712116Y474530D01*
X711961Y473750D01*
Y471250D01*
X667250D01*
Y472250D01*
X665750D01*
Y494071D01*
X667020Y494892D01*
X667825Y494732D01*
X678575D01*
X679931Y495002D01*
X681080Y495770D01*
X681848Y496919D01*
X682118Y498275D01*
Y501225D01*
X681848Y502581D01*
X681080Y503730D01*
X679931Y504498D01*
X678575Y504768D01*
X667825D01*
X667020Y504608D01*
X665750Y505429D01*
Y536250D01*
X713000D01*
Y475487D01*
D02*
G37*
G36*
X650750Y431250D02*
X645000Y425500D01*
X609250D01*
X604000Y430750D01*
Y449000D01*
X611500Y456500D01*
X650750D01*
Y431250D01*
D02*
G37*
G36*
X759000Y420381D02*
X751987Y413368D01*
X743503Y413253D01*
X743000Y413750D01*
Y413750D01*
X741197D01*
X741000Y413789D01*
X736250D01*
Y443250D01*
Y473500D01*
X759000Y473500D01*
Y420381D01*
D02*
G37*
G36*
X728750Y411750D02*
X741000D01*
Y399270D01*
X705315D01*
Y401510D01*
X704500D01*
Y412500D01*
X691500D01*
Y427500D01*
X672500D01*
Y464250D01*
X714000D01*
Y473750D01*
X728750D01*
Y411750D01*
D02*
G37*
D11*
X44353Y725041D02*
X51959D01*
X42959Y726435D02*
X44353Y725041D01*
X51959D02*
X57000Y720000D01*
Y717000D02*
Y720000D01*
X51935Y711935D02*
X57000Y717000D01*
X39459Y703435D02*
X47959Y711935D01*
X51935D01*
X35280Y157750D02*
Y166000D01*
X39530Y170250D01*
X46030D01*
X-103425Y444575D02*
X-96925D01*
X-107675Y440325D02*
X-103425Y444575D01*
X-107675Y432075D02*
Y440325D01*
X640750Y355500D02*
X645000Y359750D01*
X651500D01*
X640750Y347250D02*
Y355500D01*
X35280Y117800D02*
Y141200D01*
X46030Y170250D02*
X51780Y164500D01*
Y160750D02*
Y164500D01*
Y160750D02*
X58280Y154250D01*
X-91175Y435075D02*
X-84675Y428575D01*
X-91175Y435075D02*
Y438825D01*
X-96925Y444575D02*
X-91175Y438825D01*
X-107675Y392125D02*
Y415525D01*
X621855Y-33500D02*
X645255D01*
X592805Y-22750D02*
X598555Y-17000D01*
X592805Y-29250D02*
Y-22750D01*
X597055Y-33500D02*
X605305D01*
X592805Y-29250D02*
X597055Y-33500D01*
X598555Y-17000D02*
X602305D01*
X608805Y-10500D01*
X273550Y-74550D02*
X280050Y-68050D01*
X269800Y-74550D02*
X273550D01*
X264050Y-86800D02*
X268300Y-91050D01*
X276550D01*
X264050Y-86800D02*
Y-80300D01*
X269800Y-74550D01*
X293100Y-91050D02*
X316500D01*
X921750Y449550D02*
Y472950D01*
X905250Y426250D02*
X911000Y420500D01*
X917500D01*
X921750Y424750D02*
Y433000D01*
X917500Y420500D02*
X921750Y424750D01*
X905250Y426250D02*
Y430000D01*
X898750Y436500D02*
X905250Y430000D01*
X845250Y135500D02*
X851750Y129000D01*
Y125250D02*
Y129000D01*
X864000Y119500D02*
X868250Y123750D01*
Y132000D01*
X857500Y119500D02*
X864000D01*
X851750Y125250D02*
X857500Y119500D01*
X868250Y148550D02*
Y171950D01*
X852943Y706040D02*
X858693Y700290D01*
X865193D01*
X869443Y704540D02*
Y712790D01*
X865193Y700290D02*
X869443Y704540D01*
X852943Y706040D02*
Y709790D01*
X846443Y716290D02*
X852943Y709790D01*
X580867Y874407D02*
X587367Y880907D01*
X591117D01*
X592617Y897407D02*
X596867Y893157D01*
X584367Y897407D02*
X592617D01*
X596867Y886657D02*
Y893157D01*
X591117Y880907D02*
X596867Y886657D01*
X544417Y897407D02*
X567817D01*
X640750Y307300D02*
Y330700D01*
X651500Y359750D02*
X657250Y354000D01*
Y350250D02*
Y354000D01*
Y350250D02*
X663750Y343750D01*
X649800Y480750D02*
X658750D01*
X660750Y478750D01*
Y465750D02*
Y478750D01*
X252400Y944398D02*
X258900Y950898D01*
X262650D01*
X264150Y967398D02*
X268400Y963148D01*
X255900Y967398D02*
X264150D01*
X268400Y956648D02*
Y963148D01*
X262650Y950898D02*
X268400Y956648D01*
X215950Y967398D02*
X239350D01*
D14*
X751850Y458500D02*
D03*
X722150D02*
D03*
D15*
X673200Y499750D02*
D03*
Y490250D02*
D03*
Y480750D02*
D03*
X649800D02*
D03*
Y490250D02*
D03*
Y499750D02*
D03*
X293100Y-100550D02*
D03*
Y-91050D02*
D03*
Y-81550D02*
D03*
X316500D02*
D03*
Y-91050D02*
D03*
Y-100550D02*
D03*
X621855Y-43000D02*
D03*
Y-33500D02*
D03*
Y-24000D02*
D03*
X645255D02*
D03*
Y-33500D02*
D03*
Y-43000D02*
D03*
X567817Y906907D02*
D03*
Y897407D02*
D03*
Y887907D02*
D03*
X544417D02*
D03*
Y897407D02*
D03*
Y906907D02*
D03*
X239350Y976898D02*
D03*
Y967398D02*
D03*
Y957898D02*
D03*
X215950D02*
D03*
Y967398D02*
D03*
Y976898D02*
D03*
X26409Y735935D02*
D03*
Y726435D02*
D03*
Y716935D02*
D03*
X3009D02*
D03*
Y726435D02*
D03*
Y735935D02*
D03*
D16*
X636750Y500000D02*
D03*
Y489000D02*
D03*
D17*
X631250Y347250D02*
D03*
X640750D02*
D03*
X650250D02*
D03*
Y373250D02*
D03*
X631250D02*
D03*
X640750D02*
D03*
X-117175Y432075D02*
D03*
X-107675D02*
D03*
X-98175D02*
D03*
Y458075D02*
D03*
X-117175D02*
D03*
X-107675D02*
D03*
X25780Y157750D02*
D03*
X35280D02*
D03*
X44780D02*
D03*
Y183750D02*
D03*
X25780D02*
D03*
X35280D02*
D03*
X877750Y132000D02*
D03*
X868250D02*
D03*
X858750D02*
D03*
Y106000D02*
D03*
X877750D02*
D03*
X868250D02*
D03*
X931250Y433000D02*
D03*
X921750D02*
D03*
X912250D02*
D03*
Y407000D02*
D03*
X931250D02*
D03*
X921750D02*
D03*
X878943Y712790D02*
D03*
X869443D02*
D03*
X859943D02*
D03*
Y686790D02*
D03*
X878943D02*
D03*
X869443D02*
D03*
D18*
X663750Y343750D02*
D03*
Y329250D02*
D03*
X735250Y376250D02*
D03*
Y361750D02*
D03*
X649250Y402000D02*
D03*
Y387500D02*
D03*
X-84675Y428575D02*
D03*
Y414075D02*
D03*
X-13175Y461075D02*
D03*
Y446575D02*
D03*
X-99175Y486825D02*
D03*
Y472325D02*
D03*
X58280Y154250D02*
D03*
Y139750D02*
D03*
X129780Y186750D02*
D03*
Y172250D02*
D03*
X43780Y212500D02*
D03*
Y198000D02*
D03*
X845250Y135500D02*
D03*
Y150000D02*
D03*
X859750Y77250D02*
D03*
Y91750D02*
D03*
X773750Y103000D02*
D03*
Y117500D02*
D03*
X827250Y404000D02*
D03*
Y418500D02*
D03*
X913250Y378250D02*
D03*
Y392750D02*
D03*
X898750Y436500D02*
D03*
Y451000D02*
D03*
X860943Y658040D02*
D03*
Y672540D02*
D03*
X774943Y683790D02*
D03*
Y698290D02*
D03*
X846443Y716290D02*
D03*
Y730790D02*
D03*
D19*
X631250Y330700D02*
D03*
X640750D02*
D03*
X650250D02*
D03*
Y307300D02*
D03*
X640750D02*
D03*
X631250D02*
D03*
X-117175Y415525D02*
D03*
X-107675D02*
D03*
X-98175D02*
D03*
Y392125D02*
D03*
X-107675D02*
D03*
X-117175D02*
D03*
X25780Y141200D02*
D03*
X35280D02*
D03*
X44780D02*
D03*
Y117800D02*
D03*
X35280D02*
D03*
X25780D02*
D03*
X877750Y148550D02*
D03*
X868250D02*
D03*
X858750D02*
D03*
Y171950D02*
D03*
X868250D02*
D03*
X877750D02*
D03*
X931250Y449550D02*
D03*
X921750D02*
D03*
X912250D02*
D03*
Y472950D02*
D03*
X921750D02*
D03*
X931250D02*
D03*
X878943Y729340D02*
D03*
X869443D02*
D03*
X859943D02*
D03*
Y752740D02*
D03*
X869443D02*
D03*
X878943D02*
D03*
D20*
X666500Y363950D02*
D03*
Y376650D02*
D03*
Y389350D02*
D03*
Y402050D02*
D03*
X716000D02*
D03*
Y389350D02*
D03*
Y376650D02*
D03*
Y363950D02*
D03*
X-81925Y448775D02*
D03*
Y461475D02*
D03*
Y474175D02*
D03*
Y486875D02*
D03*
X-32425D02*
D03*
Y474175D02*
D03*
Y461475D02*
D03*
Y448775D02*
D03*
X61030Y174450D02*
D03*
Y187150D02*
D03*
Y199850D02*
D03*
Y212550D02*
D03*
X110530D02*
D03*
Y199850D02*
D03*
Y187150D02*
D03*
Y174450D02*
D03*
X842500Y115300D02*
D03*
Y102600D02*
D03*
Y89900D02*
D03*
Y77200D02*
D03*
X793000D02*
D03*
Y89900D02*
D03*
Y102600D02*
D03*
Y115300D02*
D03*
X896000Y416300D02*
D03*
Y403600D02*
D03*
Y390900D02*
D03*
Y378200D02*
D03*
X846500D02*
D03*
Y390900D02*
D03*
Y403600D02*
D03*
Y416300D02*
D03*
X843693Y696090D02*
D03*
Y683390D02*
D03*
Y670690D02*
D03*
Y657990D02*
D03*
X794193D02*
D03*
Y670690D02*
D03*
Y683390D02*
D03*
Y696090D02*
D03*
D21*
X617500Y402000D02*
D03*
X634500D02*
D03*
X683250Y418750D02*
D03*
X666250D02*
D03*
X-65175Y503575D02*
D03*
X-82175D02*
D03*
X-130675Y474575D02*
D03*
X-113675D02*
D03*
X77780Y229250D02*
D03*
X60780D02*
D03*
X12280Y200250D02*
D03*
X29280D02*
D03*
X234550Y4200D02*
D03*
X217550D02*
D03*
X218018Y-97032D02*
D03*
X235018D02*
D03*
X563305Y61750D02*
D03*
X546305D02*
D03*
X825750Y60500D02*
D03*
X842750D02*
D03*
X879250Y361500D02*
D03*
X896250D02*
D03*
X944750Y390500D02*
D03*
X927750D02*
D03*
X892443Y670290D02*
D03*
X875443D02*
D03*
X826943Y641290D02*
D03*
X843943D02*
D03*
X626367Y802157D02*
D03*
X643367D02*
D03*
X297900Y872148D02*
D03*
X314900D02*
D03*
X84959Y631185D02*
D03*
X101959D02*
D03*
D22*
X646250Y465750D02*
D03*
X660750D02*
D03*
Y451750D02*
D03*
X646250D02*
D03*
X280050Y-68050D02*
D03*
X294550D02*
D03*
X247550Y3450D02*
D03*
X262050D02*
D03*
X221800Y-82550D02*
D03*
X236300D02*
D03*
X608805Y-10500D02*
D03*
X623305D02*
D03*
X550555Y-25000D02*
D03*
X565055D02*
D03*
X576305Y61000D02*
D03*
X590805D02*
D03*
X580867Y874407D02*
D03*
X566367D02*
D03*
X613367Y802907D02*
D03*
X598867D02*
D03*
X639117Y888907D02*
D03*
X624617D02*
D03*
X284900Y872898D02*
D03*
X270400D02*
D03*
X310650Y958898D02*
D03*
X296150D02*
D03*
X252400Y944398D02*
D03*
X237900D02*
D03*
X39459Y703435D02*
D03*
X24959D02*
D03*
X71959Y631935D02*
D03*
X57459D02*
D03*
X97709Y717935D02*
D03*
X83209D02*
D03*
D23*
X666250Y431750D02*
D03*
X677250D02*
D03*
D24*
X736000Y389250D02*
D03*
Y406250D02*
D03*
X-12425Y474075D02*
D03*
Y491075D02*
D03*
X130530Y199750D02*
D03*
Y216750D02*
D03*
X205050Y-48550D02*
D03*
Y-65550D02*
D03*
X562805Y-56500D02*
D03*
Y-39500D02*
D03*
X533805Y9000D02*
D03*
Y-8000D02*
D03*
X874950Y71925D02*
D03*
Y88925D02*
D03*
X773000Y90000D02*
D03*
Y73000D02*
D03*
X826500Y391000D02*
D03*
Y374000D02*
D03*
X774193Y670790D02*
D03*
Y653790D02*
D03*
X655867Y854907D02*
D03*
Y871907D02*
D03*
X626867Y920407D02*
D03*
Y903407D02*
D03*
X327400Y924898D02*
D03*
Y941898D02*
D03*
X298400Y990398D02*
D03*
Y973398D02*
D03*
X114484Y683910D02*
D03*
Y700910D02*
D03*
X85334Y749310D02*
D03*
Y732310D02*
D03*
D25*
X276550Y-100550D02*
D03*
Y-91050D02*
D03*
Y-81550D02*
D03*
X250550D02*
D03*
Y-100550D02*
D03*
Y-91050D02*
D03*
X605305Y-43000D02*
D03*
Y-33500D02*
D03*
Y-24000D02*
D03*
X579305D02*
D03*
Y-43000D02*
D03*
Y-33500D02*
D03*
X584367Y906907D02*
D03*
Y897407D02*
D03*
Y887907D02*
D03*
X610367D02*
D03*
Y906907D02*
D03*
Y897407D02*
D03*
X255900Y976898D02*
D03*
Y967398D02*
D03*
Y957898D02*
D03*
X281900D02*
D03*
Y976898D02*
D03*
Y967398D02*
D03*
X42959Y735935D02*
D03*
Y726435D02*
D03*
Y716935D02*
D03*
X68959D02*
D03*
Y735935D02*
D03*
Y726435D02*
D03*
D26*
X259850Y-65300D02*
D03*
X247150D02*
D03*
X234450D02*
D03*
X221750D02*
D03*
Y-15800D02*
D03*
X234450D02*
D03*
X247150D02*
D03*
X259850D02*
D03*
X588605Y-7750D02*
D03*
X575905D02*
D03*
X563205D02*
D03*
X550505D02*
D03*
Y41750D02*
D03*
X563205D02*
D03*
X575905D02*
D03*
X588605D02*
D03*
X601067Y871657D02*
D03*
X613767D02*
D03*
X626467D02*
D03*
X639167D02*
D03*
Y822157D02*
D03*
X626467D02*
D03*
X613767D02*
D03*
X601067D02*
D03*
X59659Y700685D02*
D03*
X72359D02*
D03*
X85059D02*
D03*
X97759D02*
D03*
Y651185D02*
D03*
X85059D02*
D03*
X72359D02*
D03*
X59659D02*
D03*
X272600Y892148D02*
D03*
X285300D02*
D03*
X298000D02*
D03*
X310700D02*
D03*
Y941648D02*
D03*
X298000D02*
D03*
X285300D02*
D03*
X272600D02*
D03*
D27*
X622500Y474100D02*
D03*
Y444400D02*
D03*
D58*
X674000Y523000D02*
D03*
X651000D02*
D03*
D59*
X691250Y383000D02*
D03*
X-57175Y467825D02*
D03*
X85780Y193500D02*
D03*
X817750Y96250D02*
D03*
X871250Y397250D02*
D03*
X818943Y677040D02*
D03*
D60*
X240800Y-40550D02*
D03*
X569555Y17000D02*
D03*
X620117Y846907D02*
D03*
X78709Y675935D02*
D03*
X291650Y916898D02*
D03*
D61*
X259850Y-58450D02*
X265290Y-53010D01*
X259850Y-65300D02*
Y-58450D01*
X649925Y490125D02*
X658875D01*
X659000Y490000D01*
X649800Y490250D02*
X649925Y490125D01*
X683250Y395500D02*
X684250Y394500D01*
X683250Y395500D02*
Y418750D01*
X893486Y88925D02*
X912735Y69675D01*
X874950Y88925D02*
X893486D01*
X868000Y100000D02*
Y105750D01*
X859750Y91750D02*
X868000Y100000D01*
Y105750D02*
X868250Y106000D01*
X877750Y168050D02*
X927665Y118135D01*
X877750Y168050D02*
Y171950D01*
X927665Y90225D02*
Y118135D01*
X858750Y171950D02*
Y184000D01*
X859750Y91750D02*
X862575Y88925D01*
X874950D01*
X3009Y735935D02*
Y748164D01*
X-17008Y768181D02*
X3009Y748164D01*
X597117Y902157D02*
Y939114D01*
X621078Y963075D01*
X544417Y918420D02*
X596922Y970925D01*
X544417Y906907D02*
Y918420D01*
X869443Y729340D02*
Y752740D01*
X255145Y998891D02*
X265650Y988386D01*
X270868Y967398D02*
X281900D01*
X265650Y972615D02*
X270868Y967398D01*
X265650Y972615D02*
Y988386D01*
X255145Y998891D02*
Y1021713D01*
X297275Y971773D02*
X298400Y972898D01*
X295900Y970398D02*
X297275Y971773D01*
Y960023D02*
Y971773D01*
X285150Y967398D02*
X288150Y970398D01*
X298400Y972898D02*
Y973398D01*
X288150Y970398D02*
X295900D01*
X281900Y967398D02*
X285150D01*
X296150Y958898D02*
X297275Y960023D01*
X215950Y999382D02*
X230855Y1014287D01*
X215950Y976898D02*
Y999382D01*
X26928Y759898D02*
X33049D01*
X55584Y731060D02*
Y737363D01*
X3008Y783819D02*
X26928Y759898D01*
X33049D02*
X55584Y737363D01*
X3009Y726435D02*
X26409D01*
X-137010Y415860D02*
X-117175Y396025D01*
X-176754Y415860D02*
X-137010D01*
X-117175Y392125D02*
Y396025D01*
X-172913Y443737D02*
X-112872D01*
X-175425Y441225D02*
X-172913Y443737D01*
X931250Y469050D02*
X961379Y438921D01*
X972344D02*
X974315Y436950D01*
X931250Y469050D02*
Y472950D01*
X961379Y438921D02*
X972344D01*
X962778Y416700D02*
X969165D01*
X974315Y411550D01*
X961315Y418163D02*
X962778Y416700D01*
X924750Y413250D02*
Y414553D01*
X928360Y418163D01*
X961315D01*
X921750Y407000D02*
Y410250D01*
X924750Y413250D01*
X914375Y391625D02*
X926125D01*
X927250Y390500D01*
X922000Y395750D02*
X926125Y391625D01*
X927250Y390500D02*
X927750D01*
X921750Y407000D02*
X922000Y406750D01*
Y395750D02*
Y406750D01*
X913250Y392750D02*
X914375Y391625D01*
X300271Y-112879D02*
X312600Y-100550D01*
X269764Y-143386D02*
X300271Y-112879D01*
X261046Y-145357D02*
X263017Y-143386D01*
X312600Y-100550D02*
X316500D01*
X263017Y-143386D02*
X269764D01*
X235018Y-97032D02*
X235954Y-97968D01*
Y-136572D02*
X236889Y-137507D01*
X235954Y-136572D02*
Y-97968D01*
X630208Y-98499D02*
X645255Y-83452D01*
Y-43000D01*
X592555Y-92264D02*
X605792Y-105501D01*
X316500Y-81550D02*
X316509Y-81541D01*
Y-71041D01*
X316518Y-71032D01*
X294550Y-68050D02*
X303300D01*
X3312Y174000D02*
X30083D01*
X-37284Y133403D02*
X3312Y174000D01*
X-19928Y112597D02*
X-14725Y117800D01*
X25780D01*
X-22716Y112597D02*
X-19928D01*
X552273Y-56268D02*
X552389Y-56384D01*
X562689D02*
X562805Y-56500D01*
X552389Y-56384D02*
X562689D01*
X902193Y709140D02*
Y752450D01*
X922658Y772915D01*
X878943Y764679D02*
X907728Y793464D01*
X878943Y752740D02*
Y764679D01*
X859943Y752740D02*
Y764690D01*
X531867Y888107D02*
X531967Y888007D01*
X544317D02*
X544417Y887907D01*
X531967Y888007D02*
X544317D01*
X55584Y731060D02*
X59959Y726685D01*
X68709D02*
X68959Y726435D01*
X59959Y726685D02*
X68709D01*
X-107925Y448684D02*
Y457825D01*
X-112872Y443737D02*
X-107925Y448684D01*
Y457825D02*
X-107675Y458075D01*
X32280Y177500D02*
X35280Y180500D01*
X30083Y174000D02*
X32280Y176197D01*
X35280Y180500D02*
Y183750D01*
X32280Y176197D02*
Y177500D01*
X235659Y-89550D02*
Y-83191D01*
Y-96391D02*
Y-89550D01*
X237159Y-91050D01*
X250550D01*
X235659Y-83191D02*
X236300Y-82550D01*
X235018Y-97032D02*
X235659Y-96391D01*
X206518Y-97032D02*
X218018D01*
X874950Y71425D02*
Y71925D01*
X864950Y61425D02*
X874950Y71425D01*
X114484Y671860D02*
Y683910D01*
X215950Y945848D02*
Y957898D01*
X-9166Y717060D02*
X-9041Y716935D01*
X3009D02*
X3134Y716810D01*
X-9041Y716935D02*
X3009D01*
X-98175Y392125D02*
X-86125D01*
X645255Y-11950D02*
X645380Y-11825D01*
X645130Y-24125D02*
X645255Y-24000D01*
Y-11950D01*
X900075Y473075D02*
X900200Y472950D01*
X912250D02*
X912375Y472825D01*
X900200Y472950D02*
X912250D01*
X858625Y171825D02*
X858750Y171950D01*
X650125Y295125D02*
Y307175D01*
X650250Y307300D01*
X650000Y295000D02*
X650125Y295125D01*
X691250Y378555D02*
X700815Y368990D01*
X649250Y402000D02*
X649250Y402000D01*
X634500Y402000D02*
X649250D01*
X617809Y411809D02*
X618000Y412000D01*
X617500Y402000D02*
X617809Y402309D01*
Y411809D01*
X608000Y350900D02*
X613150Y356050D01*
X619105D01*
X622055Y359000D01*
X635000D01*
X640500Y364500D02*
Y373000D01*
X640750Y373250D01*
X635000Y359000D02*
X640500Y364500D01*
X641000Y373500D02*
Y379250D01*
X649250Y387500D01*
X640750Y373250D02*
X641000Y373500D01*
X631000D02*
Y373809D01*
Y373500D02*
X631250Y373250D01*
X624000Y374000D02*
X624191Y373809D01*
X631000D01*
X655125Y418875D02*
X666125D01*
X655000Y419000D02*
X655125Y418875D01*
X666125D02*
X666250Y418750D01*
Y431750D01*
X666250D01*
X649300Y402050D02*
X666500D01*
X649250Y402000D02*
X649300Y402050D01*
X44780Y117800D02*
X44830Y117850D01*
X52729D01*
X52780Y117901D01*
X77780Y206000D02*
Y229250D01*
Y206000D02*
X78780Y205000D01*
X60780Y212800D02*
Y229250D01*
Y212800D02*
X61030Y212550D01*
X30905Y199125D02*
X42655D01*
X32280Y190000D02*
X35280Y187000D01*
X32280Y190000D02*
Y197750D01*
X30905Y199125D02*
X32280Y197750D01*
X35280Y183750D02*
Y187000D01*
X30405Y199125D02*
X30905D01*
X12405Y209375D02*
X12530Y209500D01*
X12280Y200250D02*
X12405Y200375D01*
Y209375D01*
X29280Y200250D02*
X30405Y199125D01*
X42655D02*
X43780Y198000D01*
X25530Y184000D02*
X25780Y183750D01*
X18721Y184309D02*
X25530D01*
Y184000D02*
Y184309D01*
X18530Y184500D02*
X18721Y184309D01*
X25780Y141950D02*
Y157750D01*
X44780Y141950D02*
Y157750D01*
X58280Y131000D02*
Y139750D01*
X110730Y186950D02*
X129580D01*
X130480Y199800D02*
X130530Y199750D01*
X128080Y173950D02*
X129780Y172250D01*
X111030Y173950D02*
X128080D01*
X129580Y186950D02*
X129780Y186750D01*
X61005Y212525D02*
X61030Y212550D01*
X43780Y212500D02*
X43805Y212525D01*
X61005D01*
X103680Y174450D02*
X110530D01*
X110580Y199800D02*
X130480D01*
X110530Y174450D02*
X111030Y173950D01*
X98640Y179490D02*
X103680Y174450D01*
X95345Y179490D02*
X98640D01*
X85780Y193500D02*
X92130Y199850D01*
X110530Y187150D02*
X110730Y186950D01*
X85780Y189055D02*
Y193500D01*
Y189055D02*
X95345Y179490D01*
X92130Y199850D02*
X110530D01*
X110580Y199800D01*
X-32425Y474175D02*
X-32375Y474125D01*
X-50825Y474175D02*
X-32425D01*
X-57175Y463380D02*
X-47610Y453815D01*
X-57175Y463380D02*
Y467825D01*
X-32425Y461475D02*
X-32225Y461275D01*
X-57175Y467825D02*
X-50825Y474175D01*
X-47610Y453815D02*
X-44315D01*
X-39275Y448775D01*
X-32425D02*
X-31925Y448275D01*
X-32375Y474125D02*
X-12475D01*
X-39275Y448775D02*
X-32425D01*
X-99150Y486850D02*
X-81950D01*
X-99175Y486825D02*
X-99150Y486850D01*
X-81950D02*
X-81925Y486875D01*
X-13375Y461275D02*
X-13175Y461075D01*
X-31925Y448275D02*
X-14875D01*
X-13175Y446575D01*
X-12475Y474125D02*
X-12425Y474075D01*
X-32225Y461275D02*
X-13375D01*
X-84675Y405325D02*
Y414075D01*
X-98175Y416275D02*
Y432075D01*
X-117175Y416275D02*
Y432075D01*
X-124425Y458825D02*
X-124234Y458634D01*
X-117425Y458325D02*
Y458634D01*
X-124234D02*
X-117425D01*
Y458325D02*
X-117175Y458075D01*
X-100300Y473450D02*
X-99175Y472325D01*
X-113675Y474575D02*
X-112550Y473450D01*
X-130550Y474700D02*
Y483700D01*
X-130675Y474575D02*
X-130550Y474700D01*
Y483700D02*
X-130425Y483825D01*
X-112550Y473450D02*
X-112050D01*
X-107675Y458075D02*
Y461325D01*
X-112050Y473450D02*
X-110675Y472075D01*
Y464325D02*
Y472075D01*
Y464325D02*
X-107675Y461325D01*
X-112050Y473450D02*
X-100300D01*
X-82175Y487125D02*
X-81925Y486875D01*
X-82175Y487125D02*
Y503575D01*
X-65175Y480325D02*
X-64175Y479325D01*
X-65175Y480325D02*
Y503575D01*
X533805Y9000D02*
X557055D01*
X558055Y10000D01*
X533805Y-8000D02*
X550255D01*
X550505Y-7750D01*
X563930Y-37875D02*
Y-26125D01*
X573055Y-36500D02*
X576055Y-33500D01*
X565305Y-36500D02*
X573055D01*
X563930Y-37875D02*
X565305Y-36500D01*
X576055Y-33500D02*
X579305D01*
X563930Y-38375D02*
Y-37875D01*
X562805Y-39500D02*
X563930Y-38375D01*
Y-26125D02*
X565055Y-25000D01*
X579055Y-43250D02*
X579305Y-43000D01*
X578746Y-50059D02*
Y-43250D01*
X579055D01*
X578555Y-50250D02*
X578746Y-50059D01*
X605305Y-43000D02*
X621105D01*
X605305Y-24000D02*
X621105D01*
X623305Y-10500D02*
X632055D01*
X592555Y-92264D02*
Y-38250D01*
X579555Y-33750D02*
X588055D01*
X592555Y-38250D01*
X576105Y41950D02*
Y60800D01*
X563255Y61700D02*
X563305Y61750D01*
X589105Y59300D02*
X590805Y61000D01*
X589105Y42250D02*
Y59300D01*
X576105Y60800D02*
X576305Y61000D01*
X550505Y-7750D02*
X550530Y-7775D01*
Y-24975D02*
X550555Y-25000D01*
X550530Y-24975D02*
Y-7775D01*
X579305Y-33500D02*
X579555Y-33750D01*
X588605Y34900D02*
Y41750D01*
X563255Y41800D02*
Y61700D01*
X588605Y41750D02*
X589105Y42250D01*
X583565Y29860D02*
X588605Y34900D01*
X583565Y26565D02*
Y29860D01*
X563205Y23350D02*
X569555Y17000D01*
X575905Y41750D02*
X576105Y41950D01*
X569555Y17000D02*
X574000D01*
X583565Y26565D01*
X563205Y23350D02*
Y41750D01*
X563255Y41800D01*
X234450Y-15800D02*
X234500Y-15750D01*
X234450Y-34200D02*
Y-15800D01*
X245245Y-40550D02*
X254810Y-30985D01*
X240800Y-40550D02*
X245245D01*
X247150Y-15800D02*
X247350Y-15600D01*
X234450Y-34200D02*
X240800Y-40550D01*
X254810Y-30985D02*
Y-27690D01*
X259850Y-22650D01*
Y-15800D02*
X260350Y-15300D01*
X234500Y-15750D02*
Y4150D01*
X259850Y-22650D02*
Y-15800D01*
X221775Y-82525D02*
Y-65325D01*
Y-82525D02*
X221800Y-82550D01*
X221750Y-65300D02*
X221775Y-65325D01*
X247350Y3250D02*
X247550Y3450D01*
X260350Y-15300D02*
Y1750D01*
X262050Y3450D01*
X234500Y4150D02*
X234550Y4200D01*
X247350Y-15600D02*
Y3250D01*
X276550Y-81550D02*
X292350D01*
X276550Y-100550D02*
X292350D01*
X249800Y-107800D02*
X249991Y-107609D01*
Y-100800D02*
X250300D01*
X249991Y-107609D02*
Y-100800D01*
X250300D02*
X250550Y-100550D01*
X221500Y-65550D02*
X221750Y-65300D01*
X205050Y-65550D02*
X221500D01*
X228300Y-48550D02*
X229300Y-47550D01*
X205050Y-48550D02*
X228300D01*
X879250Y361500D02*
Y384750D01*
X878250Y385750D02*
X879250Y384750D01*
X896250Y361500D02*
Y377950D01*
X896000Y378200D02*
X896250Y377950D01*
X944500Y381250D02*
X944625Y381375D01*
Y390375D02*
X944750Y390500D01*
X944625Y381375D02*
Y390375D01*
X931250Y407000D02*
X931500Y406750D01*
Y406441D02*
X938309D01*
X931500D02*
Y406750D01*
X938309Y406441D02*
X938500Y406250D01*
X931250Y433000D02*
Y448800D01*
X912250Y433000D02*
Y448800D01*
X898750Y451000D02*
Y459750D01*
X827450Y403800D02*
X846300D01*
X826500Y391000D02*
X826550Y390950D01*
X827250Y418500D02*
X828950Y416800D01*
X846000D01*
X827250Y404000D02*
X827450Y403800D01*
X896000Y378200D02*
X896025Y378225D01*
X913225D02*
X913250Y378250D01*
X896025Y378225D02*
X913225D01*
X846500Y416300D02*
X853350D01*
X826550Y390950D02*
X846450D01*
X846000Y416800D02*
X846500Y416300D01*
X853350D02*
X858390Y411260D01*
X861685D01*
X864900Y390900D02*
X871250Y397250D01*
X846300Y403800D02*
X846500Y403600D01*
X871250Y397250D02*
Y401695D01*
X861685Y411260D02*
X871250Y401695D01*
X846500Y390900D02*
X864900D01*
X846450Y390950D02*
X846500Y390900D01*
X792950Y89950D02*
X793000Y89900D01*
X811400D01*
X808185Y110260D02*
X817750Y100695D01*
Y96250D02*
Y100695D01*
X792800Y102800D02*
X793000Y102600D01*
X811400Y89900D02*
X817750Y96250D01*
X804890Y110260D02*
X808185D01*
X799850Y115300D02*
X804890Y110260D01*
X792500Y115800D02*
X793000Y115300D01*
X773050Y89950D02*
X792950D01*
X793000Y115300D02*
X799850D01*
X842525Y77225D02*
X859725D01*
X859750Y77250D01*
X842500Y77200D02*
X842525Y77225D01*
X773750Y103000D02*
X773950Y102800D01*
X775450Y115800D02*
X792500D01*
X773750Y117500D02*
X775450Y115800D01*
X773000Y90000D02*
X773050Y89950D01*
X773950Y102800D02*
X792800D01*
X845250Y150000D02*
Y158750D01*
X858750Y132000D02*
Y147800D01*
X877750Y132000D02*
Y147800D01*
X884809Y105441D02*
X885000Y105250D01*
X878000Y105441D02*
Y105750D01*
Y105441D02*
X884809D01*
X877750Y106000D02*
X878000Y105750D01*
X842500Y77200D02*
X842750Y76950D01*
Y60500D02*
Y76950D01*
X824750Y84750D02*
X825750Y83750D01*
Y60500D02*
Y83750D01*
X826943Y641290D02*
Y664540D01*
X825943Y665540D02*
X826943Y664540D01*
X843943Y641290D02*
Y657740D01*
X843693Y657990D02*
X843943Y657740D01*
X862068Y671415D02*
X873818D01*
X869443Y683540D02*
X872443Y680540D01*
Y672790D02*
Y680540D01*
Y672790D02*
X873818Y671415D01*
X869443Y683540D02*
Y686790D01*
X873818Y671415D02*
X874318D01*
X892193Y661040D02*
X892318Y661165D01*
Y670165D02*
X892443Y670290D01*
X892318Y661165D02*
Y670165D01*
X874318Y671415D02*
X875443Y670290D01*
X860943Y672540D02*
X862068Y671415D01*
X878943Y686790D02*
X879193Y686540D01*
Y686231D02*
X886001D01*
X879193D02*
Y686540D01*
X886001Y686231D02*
X886193Y686040D01*
X889393Y703990D02*
X897043D01*
X902193Y709140D01*
X878943Y712790D02*
Y728590D01*
X859943Y712790D02*
Y728590D01*
X846443Y730790D02*
Y739540D01*
X874193Y700040D02*
X885443D01*
X869693Y687040D02*
Y695540D01*
X885443Y700040D02*
X889393Y703990D01*
X869693Y695540D02*
X874193Y700040D01*
X775143Y683590D02*
X793993D01*
X774193Y670790D02*
X774243Y670740D01*
X774943Y698290D02*
X776643Y696590D01*
X793693D01*
X774943Y683790D02*
X775143Y683590D01*
X843693Y657990D02*
X843718Y658015D01*
X860918D02*
X860943Y658040D01*
X843718Y658015D02*
X860918D01*
X869443Y686790D02*
X869693Y687040D01*
X794193Y696090D02*
X801043D01*
X774243Y670740D02*
X794143D01*
X793693Y696590D02*
X794193Y696090D01*
X801043D02*
X806083Y691050D01*
X809378D01*
X812593Y670690D02*
X818943Y677040D01*
X793993Y683590D02*
X794193Y683390D01*
X818943Y677040D02*
Y681485D01*
X809378Y691050D02*
X818943Y681485D01*
X794193Y670690D02*
X812593D01*
X794143Y670740D02*
X794193Y670690D01*
X626417Y822107D02*
X626467Y822157D01*
Y840557D01*
X606107Y837342D02*
X615672Y846907D01*
X620117D01*
X613567Y821957D02*
X613767Y822157D01*
X620117Y846907D02*
X626467Y840557D01*
X606107Y834047D02*
Y837342D01*
X601067Y829007D02*
X606107Y834047D01*
X600567Y821657D02*
X601067Y822157D01*
X626417Y802207D02*
Y822107D01*
X601067Y822157D02*
Y829007D01*
X610117Y897657D02*
X610367Y897407D01*
X639142Y871682D02*
Y888882D01*
X639117Y888907D02*
X639142Y888882D01*
Y871682D02*
X639167Y871657D01*
X613367Y802907D02*
X613567Y803107D01*
X600567Y804607D02*
Y821657D01*
X598867Y802907D02*
X600567Y804607D01*
X626367Y802157D02*
X626417Y802207D01*
X613567Y803107D02*
Y821957D01*
X597117Y902157D02*
X601617Y897657D01*
X610117D01*
X557617Y874407D02*
X566367D01*
X568567Y887907D02*
X584367D01*
X568567Y906907D02*
X584367D01*
X610926Y913966D02*
X611117Y914157D01*
X610617Y907157D02*
X610926D01*
Y913966D01*
X610367Y906907D02*
X610617Y907157D01*
X624617Y888907D02*
X625742Y890032D01*
Y902282D02*
X626867Y903407D01*
X626992Y920282D02*
X635992D01*
X626867Y920407D02*
X626992Y920282D01*
X635992D02*
X636117Y920157D01*
X625742Y901782D02*
Y902282D01*
X610367Y897407D02*
X613617D01*
X624367Y900407D02*
X625742Y901782D01*
X616617Y900407D02*
X624367D01*
X613617Y897407D02*
X616617Y900407D01*
X625742Y890032D02*
Y901782D01*
X639167Y871657D02*
X639417Y871907D01*
X655867D01*
X631617Y853907D02*
X632617Y854907D01*
X655867D01*
X608000Y325500D02*
X609971Y323529D01*
X618921D01*
X631250Y331450D02*
Y347250D01*
X650250Y331450D02*
Y347250D01*
X663750Y320500D02*
Y329250D01*
X618921Y323529D02*
X631250Y311200D01*
Y307300D02*
Y311200D01*
X716200Y376450D02*
X735050D01*
X735950Y389300D02*
X736000Y389250D01*
X733550Y363450D02*
X735250Y361750D01*
X716500Y363450D02*
X733550D01*
X735050Y376450D02*
X735250Y376250D01*
X709150Y363950D02*
X716000D01*
X716050Y389300D02*
X735950D01*
X716000Y363950D02*
X716500Y363450D01*
X704110Y368990D02*
X709150Y363950D01*
X700815Y368990D02*
X704110D01*
X691250Y383000D02*
X697600Y389350D01*
X716000Y376650D02*
X716200Y376450D01*
X691250Y378555D02*
Y383000D01*
X697600Y389350D02*
X716000D01*
X716050Y389300D01*
X666500Y363950D02*
X666500Y363950D01*
X666500Y355000D02*
Y363950D01*
X660750Y451750D02*
Y465750D01*
X297950Y892098D02*
X298000Y892148D01*
Y910548D01*
X277640Y907333D02*
X287205Y916898D01*
X291650D01*
X285100Y891948D02*
X285300Y892148D01*
X291650Y916898D02*
X298000Y910548D01*
X277640Y904038D02*
Y907333D01*
X272600Y898998D02*
X277640Y904038D01*
X272100Y891648D02*
X272600Y892148D01*
X297950Y872198D02*
Y892098D01*
X272600Y892148D02*
Y898998D01*
X310675Y941673D02*
Y958873D01*
X310650Y958898D02*
X310675Y958873D01*
Y941673D02*
X310700Y941648D01*
X284900Y872898D02*
X285100Y873098D01*
X272100Y874598D02*
Y891648D01*
X270400Y872898D02*
X272100Y874598D01*
X297900Y872148D02*
X297950Y872198D01*
X285100Y873098D02*
Y891948D01*
X229150Y944398D02*
X237900D01*
X240100Y957898D02*
X255900D01*
X240100Y976898D02*
X255900D01*
X282459Y983957D02*
X282650Y984148D01*
X282150Y977148D02*
X282459D01*
Y983957D01*
X281900Y976898D02*
X282150Y977148D01*
X298525Y990273D02*
X307525D01*
X298400Y990398D02*
X298525Y990273D01*
X307525D02*
X307650Y990148D01*
X310700Y941648D02*
X310950Y941898D01*
X327400D01*
X303150Y923898D02*
X304150Y924898D01*
X327400D01*
X97759Y700685D02*
X114259D01*
X97734Y700710D02*
Y717910D01*
Y700710D02*
X97759Y700685D01*
X72159Y632135D02*
Y650985D01*
X85009Y651135D02*
X85059Y651185D01*
X59159Y633635D02*
Y650685D01*
X59659Y651185D01*
Y658035D02*
X64699Y663075D01*
Y666370D01*
X78709Y675935D02*
X85059Y669585D01*
X72159Y650985D02*
X72359Y651185D01*
X74264Y675935D02*
X78709D01*
X64699Y666370D02*
X74264Y675935D01*
X85059Y651185D02*
Y669585D01*
X59659Y651185D02*
Y658035D01*
X27159Y716935D02*
X42959D01*
X16209Y703435D02*
X24959D01*
X27159Y735935D02*
X42959D01*
X85009Y631235D02*
Y651135D01*
X57459Y631935D02*
X59159Y633635D01*
X71959Y631935D02*
X72159Y632135D01*
X84959Y631185D02*
X85009Y631235D01*
X72084Y726310D02*
X75084Y729310D01*
X82834D01*
X84209Y730685D01*
Y731185D01*
X85334Y732310D01*
X83084Y717810D02*
X84209Y718935D01*
Y730685D01*
X68959Y735935D02*
X69084Y736060D01*
X97709Y717935D02*
X97734Y717910D01*
X85459Y749185D02*
X94459D01*
X69084Y736060D02*
Y744060D01*
X69209Y744185D01*
D62*
X697000Y454300D02*
D03*
X608000Y325500D02*
D03*
X743700Y425000D02*
D03*
X-22716Y112597D02*
D03*
X261046Y-145357D02*
D03*
X630208Y-98499D02*
D03*
X927665Y90225D02*
D03*
X907728Y793464D02*
D03*
X596922Y970925D02*
D03*
X230855Y1014287D02*
D03*
X-15643Y765857D02*
D03*
X974315Y436950D02*
D03*
X-176754Y415860D02*
D03*
D63*
X697000Y479700D02*
D03*
X608000Y350900D02*
D03*
X974315Y411550D02*
D03*
D64*
X718300Y425000D02*
D03*
D65*
X-37284Y133403D02*
D03*
D66*
X236889Y-137507D02*
D03*
X621078Y963075D02*
D03*
D67*
X605792Y-105501D02*
D03*
D68*
X912735Y69675D02*
D03*
D69*
X922658Y772915D02*
D03*
D70*
X255145Y1021713D02*
D03*
D71*
X-357Y786143D02*
D03*
D72*
X-175425Y441225D02*
D03*
D73*
X563250Y178150D02*
D03*
Y203550D02*
D03*
Y228950D02*
D03*
Y254350D02*
D03*
Y279750D02*
D03*
Y305150D02*
D03*
Y330550D02*
D03*
Y355950D02*
D03*
Y381350D02*
D03*
Y406750D02*
D03*
Y432150D02*
D03*
Y457550D02*
D03*
Y482950D02*
D03*
Y508350D02*
D03*
Y533750D02*
D03*
Y559150D02*
D03*
Y584550D02*
D03*
Y609950D02*
D03*
Y635350D02*
D03*
X309250Y203550D02*
D03*
Y228950D02*
D03*
Y254350D02*
D03*
Y279750D02*
D03*
Y305150D02*
D03*
Y330550D02*
D03*
Y355950D02*
D03*
Y381350D02*
D03*
Y406750D02*
D03*
Y432150D02*
D03*
Y457550D02*
D03*
Y482950D02*
D03*
Y508350D02*
D03*
Y533750D02*
D03*
Y559150D02*
D03*
Y584550D02*
D03*
Y178150D02*
D03*
Y609950D02*
D03*
D74*
Y635350D02*
D03*
D75*
X659000Y490000D02*
D03*
X858750Y184000D02*
D03*
X-86125Y392125D02*
D03*
X316518Y-71032D02*
D03*
X303300Y-68050D02*
D03*
X552273Y-56268D02*
D03*
X859943Y764690D02*
D03*
X531867Y888107D02*
D03*
X206518Y-97032D02*
D03*
X864950Y61425D02*
D03*
X114359Y671735D02*
D03*
X215825Y945723D02*
D03*
X-9166Y717060D02*
D03*
X645380Y-11825D02*
D03*
X900075Y473075D02*
D03*
X650000Y295000D02*
D03*
X699250Y372000D02*
D03*
X684250D02*
D03*
X618000Y412000D02*
D03*
X624000Y374000D02*
D03*
X655000Y419000D02*
D03*
X52780Y117901D02*
D03*
X12530Y209500D02*
D03*
X18530Y184500D02*
D03*
X78780Y205000D02*
D03*
Y182500D02*
D03*
X93779Y205000D02*
D03*
X85780Y193500D02*
D03*
X93779Y182500D02*
D03*
X58280Y131000D02*
D03*
X-84675Y405325D02*
D03*
X-49175Y456825D02*
D03*
X-57175Y467825D02*
D03*
X-49175Y479325D02*
D03*
X-64175Y456825D02*
D03*
Y479325D02*
D03*
X-124425Y458825D02*
D03*
X-130425Y483825D02*
D03*
X578555Y-50250D02*
D03*
X558055Y10000D02*
D03*
X580555D02*
D03*
X558055Y25000D02*
D03*
X569555Y17000D02*
D03*
X580555Y25000D02*
D03*
X632055Y-10500D02*
D03*
X251800Y-32550D02*
D03*
X240800Y-40550D02*
D03*
X229300Y-32550D02*
D03*
X251800Y-47550D02*
D03*
X229300D02*
D03*
X249800Y-107800D02*
D03*
X944500Y381250D02*
D03*
X938500Y406250D02*
D03*
X878250Y385750D02*
D03*
Y408250D02*
D03*
X863250Y385750D02*
D03*
X871250Y397250D02*
D03*
X863250Y408250D02*
D03*
X898750Y459750D02*
D03*
X845250Y158750D02*
D03*
X809750Y107250D02*
D03*
X817750Y96250D02*
D03*
X809750Y84750D02*
D03*
X824750Y107250D02*
D03*
Y84750D02*
D03*
X885000Y105250D02*
D03*
X892193Y661040D02*
D03*
X886193Y686040D02*
D03*
X825943Y665540D02*
D03*
Y688040D02*
D03*
X810943Y665540D02*
D03*
X818943Y677040D02*
D03*
X810943Y688040D02*
D03*
X846443Y739540D02*
D03*
X557617Y874407D02*
D03*
X609117Y838907D02*
D03*
X620117Y846907D02*
D03*
X631617Y838907D02*
D03*
X609117Y853907D02*
D03*
X631617D02*
D03*
X611117Y914157D02*
D03*
X636117Y920157D02*
D03*
X699250Y394500D02*
D03*
X691250Y383000D02*
D03*
X663750Y320500D02*
D03*
X666500Y355000D02*
D03*
X613250Y431000D02*
D03*
X623000Y431250D02*
D03*
X632750Y431500D02*
D03*
X642500Y431750D02*
D03*
X642250Y441500D02*
D03*
X229150Y944398D02*
D03*
X280650Y908898D02*
D03*
X291650Y916898D02*
D03*
X303150Y908898D02*
D03*
X280650Y923898D02*
D03*
X303150D02*
D03*
X282650Y984148D02*
D03*
X307650Y990148D02*
D03*
X90209Y682935D02*
D03*
X67709D02*
D03*
X90209Y667935D02*
D03*
X78709Y675935D02*
D03*
X67709Y667935D02*
D03*
X16209Y703435D02*
D03*
X94584Y749060D02*
D03*
X69209Y744185D02*
D03*
M02*
