G04*
G04 #@! TF.GenerationSoftware,Altium Limited,Altium Designer,23.3.1 (30)*
G04*
G04 Layer_Color=32896*
%FSAX44Y44*%
%MOMM*%
G71*
G04*
G04 #@! TF.SameCoordinates,E4202109-5C2D-4CF9-8B46-EFF2A95DF25D*
G04*
G04*
G04 #@! TF.FilePolarity,Positive*
G04*
G01*
G75*
%ADD10C,0.2000*%
%ADD11C,0.2540*%
%ADD13C,0.1500*%
%ADD14C,0.1270*%
G36*
X00307189Y00402814D02*
X00307355Y00402804D01*
X00307501Y00402775D01*
X00307648Y00402736D01*
X00307775Y00402697D01*
X00307901Y00402648D01*
X00308009Y00402599D01*
X00308116Y00402551D01*
X00308204Y00402492D01*
X00308282Y00402443D01*
X00308350Y00402394D01*
X00308409Y00402355D01*
X00308457Y00402316D01*
X00308486Y00402287D01*
X00308506Y00402277D01*
X00308516Y00402268D01*
X00308623Y00402160D01*
X00308711Y00402053D01*
X00308789Y00401936D01*
X00308857Y00401819D01*
X00308916Y00401712D01*
X00308955Y00401595D01*
X00309033Y00401390D01*
X00309072Y00401204D01*
X00309081Y00401126D01*
X00309091Y00401058D01*
X00309101Y00401000D01*
Y00400922D01*
X00309091Y00400756D01*
X00309072Y00400600D01*
X00309033Y00400453D01*
X00308994Y00400327D01*
X00308955Y00400219D01*
X00308916Y00400132D01*
X00308896Y00400083D01*
X00308886Y00400063D01*
X00308799Y00399917D01*
X00308701Y00399780D01*
X00308594Y00399663D01*
X00308486Y00399566D01*
X00308389Y00399478D01*
X00308311Y00399420D01*
X00308262Y00399380D01*
X00308252Y00399371D01*
X00308418D01*
X00308584Y00399380D01*
X00308740Y00399390D01*
X00308886Y00399400D01*
X00309013Y00399420D01*
X00309140Y00399439D01*
X00309247Y00399459D01*
X00309345Y00399478D01*
X00309433Y00399498D01*
X00309511Y00399517D01*
X00309579Y00399537D01*
X00309628Y00399556D01*
X00309667Y00399566D01*
X00309706Y00399576D01*
X00309715Y00399585D01*
X00309725D01*
X00309911Y00399673D01*
X00310076Y00399771D01*
X00310213Y00399868D01*
X00310320Y00399966D01*
X00310408Y00400044D01*
X00310476Y00400112D01*
X00310515Y00400151D01*
X00310525Y00400171D01*
X00310593Y00400288D01*
X00310652Y00400395D01*
X00310691Y00400512D01*
X00310710Y00400619D01*
X00310730Y00400707D01*
X00310740Y00400775D01*
Y00400844D01*
X00310730Y00401009D01*
X00310691Y00401165D01*
X00310632Y00401302D01*
X00310574Y00401419D01*
X00310506Y00401507D01*
X00310457Y00401575D01*
X00310418Y00401624D01*
X00310398Y00401634D01*
X00310310Y00401702D01*
X00310213Y00401760D01*
X00309988Y00401858D01*
X00309891Y00401887D01*
X00309813Y00401917D01*
X00309754Y00401936D01*
X00309745D01*
X00309735D01*
X00309793Y00402716D01*
X00310057Y00402668D01*
X00310291Y00402580D01*
X00310486Y00402492D01*
X00310652Y00402385D01*
X00310779Y00402287D01*
X00310876Y00402209D01*
X00310935Y00402151D01*
X00310954Y00402141D01*
Y00402131D01*
X00311032Y00402034D01*
X00311100Y00401936D01*
X00311198Y00401731D01*
X00311276Y00401526D01*
X00311334Y00401331D01*
X00311364Y00401156D01*
X00311374Y00401078D01*
Y00401019D01*
X00311383Y00400961D01*
Y00400892D01*
X00311374Y00400707D01*
X00311354Y00400532D01*
X00311315Y00400366D01*
X00311266Y00400210D01*
X00311208Y00400063D01*
X00311149Y00399936D01*
X00311081Y00399810D01*
X00311013Y00399702D01*
X00310944Y00399605D01*
X00310876Y00399517D01*
X00310818Y00399449D01*
X00310759Y00399380D01*
X00310710Y00399332D01*
X00310671Y00399302D01*
X00310652Y00399283D01*
X00310642Y00399273D01*
X00310476Y00399156D01*
X00310281Y00399049D01*
X00310086Y00398961D01*
X00309862Y00398883D01*
X00309647Y00398815D01*
X00309423Y00398756D01*
X00309198Y00398708D01*
X00308974Y00398678D01*
X00308769Y00398649D01*
X00308574Y00398629D01*
X00308399Y00398610D01*
X00308243Y00398600D01*
X00308116Y00398591D01*
X00308018D01*
X00307989D01*
X00307960D01*
X00307950D01*
X00307940D01*
X00307638Y00398600D01*
X00307365Y00398620D01*
X00307101Y00398649D01*
X00306867Y00398688D01*
X00306653Y00398737D01*
X00306458Y00398786D01*
X00306282Y00398844D01*
X00306126Y00398903D01*
X00305990Y00398951D01*
X00305872Y00399010D01*
X00305775Y00399059D01*
X00305697Y00399107D01*
X00305638Y00399146D01*
X00305599Y00399176D01*
X00305570Y00399195D01*
X00305560Y00399205D01*
X00305434Y00399322D01*
X00305326Y00399449D01*
X00305229Y00399585D01*
X00305141Y00399722D01*
X00305073Y00399859D01*
X00305014Y00399985D01*
X00304965Y00400122D01*
X00304926Y00400249D01*
X00304897Y00400366D01*
X00304878Y00400473D01*
X00304858Y00400570D01*
X00304848Y00400648D01*
Y00400717D01*
X00304839Y00400775D01*
Y00400814D01*
X00304848Y00401019D01*
X00304878Y00401214D01*
X00304926Y00401390D01*
X00304975Y00401546D01*
X00305024Y00401663D01*
X00305073Y00401760D01*
X00305102Y00401819D01*
X00305112Y00401838D01*
X00305229Y00402004D01*
X00305356Y00402141D01*
X00305482Y00402268D01*
X00305609Y00402375D01*
X00305726Y00402453D01*
X00305814Y00402511D01*
X00305853Y00402531D01*
X00305882Y00402551D01*
X00305892Y00402560D01*
X00305902D01*
X00306097Y00402648D01*
X00306292Y00402716D01*
X00306487Y00402755D01*
X00306653Y00402794D01*
X00306809Y00402814D01*
X00306867D01*
X00306926Y00402824D01*
X00306965D01*
X00306994D01*
X00307014D01*
X00307023D01*
X00307189Y00402814D01*
D02*
G37*
G36*
X00305697Y00394640D02*
X00305853Y00394748D01*
X00305980Y00394855D01*
X00306038Y00394904D01*
X00306077Y00394943D01*
X00306107Y00394962D01*
X00306116Y00394972D01*
X00306165Y00395021D01*
X00306214Y00395069D01*
X00306331Y00395196D01*
X00306467Y00395352D01*
X00306604Y00395499D01*
X00306731Y00395645D01*
X00306828Y00395762D01*
X00306867Y00395811D01*
X00306897Y00395850D01*
X00306916Y00395869D01*
X00306926Y00395879D01*
X00307062Y00396035D01*
X00307180Y00396172D01*
X00307297Y00396308D01*
X00307404Y00396425D01*
X00307511Y00396533D01*
X00307599Y00396630D01*
X00307687Y00396728D01*
X00307765Y00396806D01*
X00307833Y00396874D01*
X00307892Y00396932D01*
X00307979Y00397020D01*
X00308038Y00397069D01*
X00308057Y00397088D01*
X00308213Y00397215D01*
X00308350Y00397332D01*
X00308486Y00397420D01*
X00308603Y00397488D01*
X00308701Y00397547D01*
X00308769Y00397586D01*
X00308818Y00397605D01*
X00308838Y00397615D01*
X00308974Y00397674D01*
X00309111Y00397713D01*
X00309237Y00397742D01*
X00309355Y00397761D01*
X00309452Y00397771D01*
X00309530Y00397781D01*
X00309579D01*
X00309598D01*
X00309735Y00397771D01*
X00309872Y00397761D01*
X00310115Y00397693D01*
X00310330Y00397605D01*
X00310515Y00397508D01*
X00310662Y00397410D01*
X00310720Y00397361D01*
X00310779Y00397323D01*
X00310818Y00397284D01*
X00310847Y00397254D01*
X00310857Y00397244D01*
X00310866Y00397235D01*
X00310954Y00397127D01*
X00311042Y00397020D01*
X00311110Y00396903D01*
X00311169Y00396776D01*
X00311257Y00396533D01*
X00311315Y00396298D01*
X00311344Y00396191D01*
X00311354Y00396094D01*
X00311364Y00396006D01*
X00311374Y00395928D01*
X00311383Y00395859D01*
Y00395772D01*
X00311374Y00395606D01*
X00311364Y00395450D01*
X00311305Y00395157D01*
X00311276Y00395030D01*
X00311237Y00394904D01*
X00311188Y00394796D01*
X00311149Y00394699D01*
X00311100Y00394611D01*
X00311061Y00394533D01*
X00311013Y00394465D01*
X00310983Y00394406D01*
X00310954Y00394367D01*
X00310925Y00394338D01*
X00310915Y00394318D01*
X00310905Y00394309D01*
X00310808Y00394211D01*
X00310710Y00394133D01*
X00310486Y00393987D01*
X00310262Y00393880D01*
X00310037Y00393801D01*
X00309842Y00393743D01*
X00309754Y00393733D01*
X00309676Y00393714D01*
X00309618Y00393704D01*
X00309569Y00393694D01*
X00309540D01*
X00309530D01*
X00309442Y00394504D01*
X00309657Y00394523D01*
X00309842Y00394562D01*
X00309998Y00394611D01*
X00310135Y00394679D01*
X00310242Y00394738D01*
X00310320Y00394796D01*
X00310359Y00394835D01*
X00310379Y00394845D01*
X00310496Y00394982D01*
X00310583Y00395128D01*
X00310642Y00395284D01*
X00310691Y00395430D01*
X00310710Y00395557D01*
X00310720Y00395655D01*
X00310730Y00395694D01*
Y00395752D01*
X00310720Y00395947D01*
X00310681Y00396123D01*
X00310632Y00396269D01*
X00310574Y00396396D01*
X00310506Y00396493D01*
X00310457Y00396572D01*
X00310418Y00396610D01*
X00310408Y00396630D01*
X00310281Y00396747D01*
X00310145Y00396825D01*
X00310018Y00396884D01*
X00309891Y00396932D01*
X00309784Y00396952D01*
X00309696Y00396962D01*
X00309637Y00396971D01*
X00309628D01*
X00309618D01*
X00309452Y00396952D01*
X00309277Y00396913D01*
X00309121Y00396854D01*
X00308974Y00396786D01*
X00308847Y00396718D01*
X00308750Y00396659D01*
X00308711Y00396640D01*
X00308682Y00396620D01*
X00308672Y00396601D01*
X00308662D01*
X00308564Y00396523D01*
X00308457Y00396435D01*
X00308350Y00396337D01*
X00308243Y00396220D01*
X00308018Y00395986D01*
X00307794Y00395752D01*
X00307609Y00395538D01*
X00307521Y00395440D01*
X00307453Y00395352D01*
X00307384Y00395284D01*
X00307345Y00395235D01*
X00307316Y00395196D01*
X00307306Y00395187D01*
X00307101Y00394952D01*
X00306916Y00394738D01*
X00306750Y00394562D01*
X00306614Y00394416D01*
X00306497Y00394299D01*
X00306409Y00394221D01*
X00306350Y00394172D01*
X00306341Y00394153D01*
X00306331D01*
X00306175Y00394026D01*
X00306029Y00393928D01*
X00305882Y00393831D01*
X00305756Y00393763D01*
X00305638Y00393704D01*
X00305560Y00393665D01*
X00305502Y00393645D01*
X00305492Y00393636D01*
X00305482D01*
X00305385Y00393606D01*
X00305287Y00393577D01*
X00305200Y00393567D01*
X00305121Y00393558D01*
X00305053Y00393548D01*
X00304995D01*
X00304956D01*
X00304946D01*
Y00397791D01*
X00305697D01*
Y00394640D01*
D02*
G37*
G36*
X00307189Y00392085D02*
X00306906Y00392007D01*
X00306653Y00391909D01*
X00306448Y00391792D01*
X00306272Y00391685D01*
X00306146Y00391578D01*
X00306048Y00391490D01*
X00305990Y00391431D01*
X00305980Y00391422D01*
X00305970Y00391412D01*
X00305833Y00391217D01*
X00305736Y00391022D01*
X00305658Y00390817D01*
X00305609Y00390632D01*
X00305580Y00390466D01*
X00305570Y00390388D01*
Y00390329D01*
X00305560Y00390280D01*
Y00390212D01*
X00305570Y00389998D01*
X00305609Y00389793D01*
X00305658Y00389607D01*
X00305707Y00389451D01*
X00305765Y00389315D01*
X00305804Y00389207D01*
X00305824Y00389169D01*
X00305843Y00389139D01*
X00305853Y00389129D01*
Y00389120D01*
X00305980Y00388944D01*
X00306126Y00388798D01*
X00306272Y00388671D01*
X00306429Y00388564D01*
X00306555Y00388486D01*
X00306672Y00388437D01*
X00306711Y00388418D01*
X00306741Y00388398D01*
X00306760Y00388388D01*
X00306770D01*
X00307004Y00388310D01*
X00307248Y00388252D01*
X00307492Y00388213D01*
X00307716Y00388183D01*
X00307813Y00388174D01*
X00307901Y00388164D01*
X00307989D01*
X00308057Y00388154D01*
X00308116D01*
X00308155D01*
X00308184D01*
X00308194D01*
X00308428Y00388164D01*
X00308652Y00388183D01*
X00308857Y00388213D01*
X00309042Y00388252D01*
X00309198Y00388291D01*
X00309267Y00388300D01*
X00309315Y00388320D01*
X00309364Y00388330D01*
X00309394Y00388340D01*
X00309413Y00388349D01*
X00309423D01*
X00309637Y00388437D01*
X00309832Y00388544D01*
X00309988Y00388661D01*
X00310125Y00388769D01*
X00310232Y00388876D01*
X00310310Y00388964D01*
X00310359Y00389022D01*
X00310379Y00389032D01*
Y00389042D01*
X00310496Y00389237D01*
X00310583Y00389442D01*
X00310652Y00389646D01*
X00310691Y00389841D01*
X00310720Y00390017D01*
X00310730Y00390085D01*
Y00390154D01*
X00310740Y00390202D01*
Y00390271D01*
X00310730Y00390505D01*
X00310691Y00390710D01*
X00310642Y00390895D01*
X00310583Y00391041D01*
X00310515Y00391168D01*
X00310466Y00391256D01*
X00310427Y00391314D01*
X00310418Y00391334D01*
X00310281Y00391490D01*
X00310125Y00391617D01*
X00309949Y00391734D01*
X00309784Y00391822D01*
X00309637Y00391890D01*
X00309569Y00391919D01*
X00309511Y00391948D01*
X00309462Y00391968D01*
X00309423Y00391978D01*
X00309403Y00391987D01*
X00309394D01*
X00309589Y00392826D01*
X00309901Y00392709D01*
X00310047Y00392641D01*
X00310174Y00392573D01*
X00310301Y00392495D01*
X00310418Y00392416D01*
X00310515Y00392348D01*
X00310613Y00392270D01*
X00310691Y00392202D01*
X00310759Y00392134D01*
X00310827Y00392065D01*
X00310876Y00392017D01*
X00310915Y00391968D01*
X00310944Y00391939D01*
X00310954Y00391919D01*
X00310964Y00391909D01*
X00311052Y00391782D01*
X00311130Y00391656D01*
X00311198Y00391519D01*
X00311257Y00391383D01*
X00311344Y00391110D01*
X00311403Y00390856D01*
X00311422Y00390739D01*
X00311432Y00390632D01*
X00311442Y00390534D01*
X00311452Y00390456D01*
X00311461Y00390388D01*
Y00390290D01*
X00311442Y00389978D01*
X00311403Y00389686D01*
X00311334Y00389422D01*
X00311305Y00389305D01*
X00311266Y00389198D01*
X00311227Y00389100D01*
X00311198Y00389003D01*
X00311159Y00388925D01*
X00311130Y00388866D01*
X00311110Y00388808D01*
X00311091Y00388769D01*
X00311071Y00388749D01*
Y00388739D01*
X00310915Y00388495D01*
X00310730Y00388271D01*
X00310544Y00388086D01*
X00310359Y00387940D01*
X00310193Y00387813D01*
X00310125Y00387764D01*
X00310067Y00387725D01*
X00310008Y00387696D01*
X00309969Y00387676D01*
X00309949Y00387657D01*
X00309940D01*
X00309657Y00387530D01*
X00309355Y00387432D01*
X00309062Y00387374D01*
X00308789Y00387325D01*
X00308662Y00387306D01*
X00308555Y00387296D01*
X00308447Y00387286D01*
X00308360D01*
X00308291Y00387276D01*
X00308243D01*
X00308204D01*
X00308194D01*
X00307852Y00387286D01*
X00307540Y00387325D01*
X00307248Y00387384D01*
X00307111Y00387413D01*
X00306994Y00387442D01*
X00306877Y00387471D01*
X00306780Y00387501D01*
X00306692Y00387530D01*
X00306614Y00387559D01*
X00306555Y00387579D01*
X00306516Y00387598D01*
X00306487Y00387608D01*
X00306477D01*
X00306194Y00387744D01*
X00305951Y00387910D01*
X00305736Y00388066D01*
X00305570Y00388232D01*
X00305434Y00388369D01*
X00305336Y00388486D01*
X00305307Y00388535D01*
X00305278Y00388564D01*
X00305268Y00388583D01*
X00305258Y00388593D01*
X00305180Y00388720D01*
X00305121Y00388856D01*
X00305014Y00389129D01*
X00304946Y00389412D01*
X00304887Y00389686D01*
X00304878Y00389803D01*
X00304858Y00389920D01*
X00304848Y00390017D01*
Y00390105D01*
X00304839Y00390183D01*
Y00390280D01*
X00304848Y00390466D01*
X00304858Y00390641D01*
X00304926Y00390963D01*
X00304965Y00391110D01*
X00305014Y00391256D01*
X00305063Y00391383D01*
X00305112Y00391500D01*
X00305161Y00391607D01*
X00305209Y00391695D01*
X00305258Y00391773D01*
X00305297Y00391841D01*
X00305336Y00391899D01*
X00305365Y00391939D01*
X00305375Y00391958D01*
X00305385Y00391968D01*
X00305492Y00392095D01*
X00305609Y00392212D01*
X00305863Y00392407D01*
X00306126Y00392582D01*
X00306390Y00392709D01*
X00306507Y00392768D01*
X00306614Y00392807D01*
X00306721Y00392846D01*
X00306799Y00392885D01*
X00306877Y00392904D01*
X00306926Y00392924D01*
X00306965Y00392933D01*
X00306975D01*
X00307189Y00392085D01*
D02*
G37*
G36*
X00417851Y00397288D02*
X00418056Y00397249D01*
X00418232Y00397200D01*
X00418378Y00397141D01*
X00418495Y00397073D01*
X00418583Y00397024D01*
X00418642Y00396985D01*
X00418661Y00396976D01*
X00418807Y00396849D01*
X00418924Y00396702D01*
X00419022Y00396556D01*
X00419090Y00396420D01*
X00419149Y00396293D01*
X00419178Y00396195D01*
X00419198Y00396156D01*
Y00396127D01*
X00419207Y00396107D01*
Y00396098D01*
X00419285Y00396254D01*
X00419383Y00396390D01*
X00419471Y00396498D01*
X00419558Y00396595D01*
X00419636Y00396663D01*
X00419695Y00396722D01*
X00419734Y00396751D01*
X00419753Y00396761D01*
X00419880Y00396839D01*
X00420017Y00396888D01*
X00420144Y00396927D01*
X00420261Y00396956D01*
X00420358Y00396976D01*
X00420436Y00396985D01*
X00420485D01*
X00420504D01*
X00420670Y00396976D01*
X00420817Y00396946D01*
X00420953Y00396907D01*
X00421080Y00396868D01*
X00421177Y00396829D01*
X00421255Y00396790D01*
X00421304Y00396761D01*
X00421324Y00396751D01*
X00421460Y00396654D01*
X00421587Y00396546D01*
X00421694Y00396429D01*
X00421782Y00396322D01*
X00421851Y00396225D01*
X00421899Y00396147D01*
X00421928Y00396088D01*
X00421938Y00396078D01*
Y00396068D01*
X00422016Y00395903D01*
X00422075Y00395737D01*
X00422114Y00395571D01*
X00422143Y00395425D01*
X00422163Y00395298D01*
X00422172Y00395200D01*
Y00394976D01*
X00422153Y00394840D01*
X00422104Y00394596D01*
X00422036Y00394371D01*
X00421958Y00394186D01*
X00421870Y00394040D01*
X00421831Y00393981D01*
X00421802Y00393932D01*
X00421772Y00393884D01*
X00421753Y00393854D01*
X00421743Y00393845D01*
X00421733Y00393835D01*
X00421558Y00393659D01*
X00421363Y00393523D01*
X00421158Y00393406D01*
X00420963Y00393328D01*
X00420787Y00393259D01*
X00420709Y00393240D01*
X00420641Y00393220D01*
X00420592Y00393211D01*
X00420553Y00393201D01*
X00420524Y00393191D01*
X00420514D01*
X00420378Y00393981D01*
X00420583Y00394020D01*
X00420758Y00394079D01*
X00420904Y00394137D01*
X00421021Y00394206D01*
X00421119Y00394264D01*
X00421187Y00394313D01*
X00421226Y00394352D01*
X00421236Y00394362D01*
X00421334Y00394488D01*
X00421402Y00394615D01*
X00421460Y00394742D01*
X00421490Y00394869D01*
X00421509Y00394966D01*
X00421529Y00395054D01*
Y00395132D01*
X00421519Y00395298D01*
X00421480Y00395444D01*
X00421441Y00395571D01*
X00421382Y00395678D01*
X00421334Y00395766D01*
X00421285Y00395834D01*
X00421246Y00395873D01*
X00421236Y00395883D01*
X00421129Y00395981D01*
X00421002Y00396049D01*
X00420885Y00396107D01*
X00420778Y00396137D01*
X00420670Y00396156D01*
X00420592Y00396176D01*
X00420544D01*
X00420534D01*
X00420524D01*
X00420329Y00396156D01*
X00420163Y00396107D01*
X00420027Y00396049D01*
X00419919Y00395971D01*
X00419832Y00395893D01*
X00419763Y00395834D01*
X00419724Y00395786D01*
X00419714Y00395766D01*
X00419627Y00395610D01*
X00419568Y00395454D01*
X00419519Y00395308D01*
X00419490Y00395171D01*
X00419471Y00395044D01*
X00419461Y00394957D01*
Y00394830D01*
X00419471Y00394791D01*
Y00394742D01*
X00418778Y00394654D01*
X00418807Y00394771D01*
X00418827Y00394879D01*
X00418837Y00394976D01*
X00418846Y00395054D01*
X00418856Y00395122D01*
Y00395210D01*
X00418837Y00395405D01*
X00418798Y00395571D01*
X00418749Y00395727D01*
X00418680Y00395854D01*
X00418612Y00395961D01*
X00418563Y00396039D01*
X00418525Y00396078D01*
X00418505Y00396098D01*
X00418368Y00396215D01*
X00418222Y00396302D01*
X00418066Y00396371D01*
X00417929Y00396410D01*
X00417803Y00396439D01*
X00417705Y00396449D01*
X00417666Y00396459D01*
X00417637D01*
X00417627D01*
X00417617D01*
X00417413Y00396439D01*
X00417227Y00396400D01*
X00417061Y00396342D01*
X00416925Y00396273D01*
X00416808Y00396195D01*
X00416730Y00396137D01*
X00416681Y00396098D01*
X00416661Y00396078D01*
X00416535Y00395932D01*
X00416437Y00395776D01*
X00416379Y00395620D01*
X00416330Y00395464D01*
X00416301Y00395337D01*
X00416291Y00395239D01*
X00416281Y00395200D01*
Y00395142D01*
X00416291Y00394976D01*
X00416330Y00394820D01*
X00416379Y00394683D01*
X00416427Y00394576D01*
X00416486Y00394479D01*
X00416525Y00394410D01*
X00416564Y00394371D01*
X00416574Y00394352D01*
X00416701Y00394244D01*
X00416847Y00394147D01*
X00417013Y00394069D01*
X00417169Y00394010D01*
X00417315Y00393962D01*
X00417432Y00393932D01*
X00417471Y00393913D01*
X00417510D01*
X00417530Y00393903D01*
X00417539D01*
X00417432Y00393113D01*
X00417286Y00393133D01*
X00417149Y00393162D01*
X00416896Y00393250D01*
X00416671Y00393347D01*
X00416476Y00393464D01*
X00416398Y00393513D01*
X00416330Y00393572D01*
X00416271Y00393620D01*
X00416213Y00393659D01*
X00416174Y00393698D01*
X00416145Y00393728D01*
X00416135Y00393737D01*
X00416125Y00393747D01*
X00416037Y00393854D01*
X00415959Y00393971D01*
X00415891Y00394079D01*
X00415842Y00394196D01*
X00415745Y00394430D01*
X00415686Y00394654D01*
X00415667Y00394752D01*
X00415657Y00394849D01*
X00415647Y00394927D01*
X00415637Y00395005D01*
X00415628Y00395064D01*
Y00395142D01*
X00415637Y00395308D01*
X00415657Y00395474D01*
X00415676Y00395630D01*
X00415715Y00395776D01*
X00415764Y00395912D01*
X00415813Y00396039D01*
X00415862Y00396156D01*
X00415920Y00396264D01*
X00415969Y00396351D01*
X00416018Y00396439D01*
X00416067Y00396517D01*
X00416115Y00396576D01*
X00416154Y00396624D01*
X00416174Y00396654D01*
X00416193Y00396673D01*
X00416203Y00396683D01*
X00416320Y00396790D01*
X00416437Y00396888D01*
X00416554Y00396966D01*
X00416671Y00397034D01*
X00416788Y00397102D01*
X00416915Y00397151D01*
X00417140Y00397219D01*
X00417237Y00397249D01*
X00417335Y00397268D01*
X00417413Y00397278D01*
X00417491Y00397288D01*
X00417549Y00397297D01*
X00417588D01*
X00417617D01*
X00417627D01*
X00417851Y00397288D01*
D02*
G37*
G36*
X00419090Y00390265D02*
X00422143Y00392499D01*
Y00391572D01*
X00420426Y00390285D01*
X00420290Y00390177D01*
X00420163Y00390080D01*
X00420036Y00389992D01*
X00419929Y00389924D01*
X00419841Y00389865D01*
X00419773Y00389816D01*
X00419734Y00389787D01*
X00419714Y00389777D01*
X00419832Y00389709D01*
X00419949Y00389641D01*
X00420085Y00389553D01*
X00420212Y00389465D01*
X00420319Y00389397D01*
X00420407Y00389329D01*
X00420475Y00389290D01*
X00420485Y00389270D01*
X00420495D01*
X00422143Y00388100D01*
Y00387095D01*
X00419051Y00389280D01*
X00415735Y00386802D01*
Y00387817D01*
X00417949Y00389436D01*
X00418008Y00389475D01*
X00418076Y00389524D01*
X00418222Y00389631D01*
X00418300Y00389680D01*
X00418359Y00389709D01*
X00418398Y00389738D01*
X00418407Y00389748D01*
X00418261Y00389846D01*
X00418144Y00389924D01*
X00418086Y00389963D01*
X00418047Y00389992D01*
X00418027Y00390002D01*
X00418017Y00390011D01*
X00415735Y00391631D01*
Y00392674D01*
X00419090Y00390265D01*
D02*
G37*
G36*
X00401939Y00332327D02*
X00402105Y00332317D01*
X00402251Y00332288D01*
X00402398Y00332249D01*
X00402524Y00332210D01*
X00402651Y00332161D01*
X00402758Y00332112D01*
X00402866Y00332063D01*
X00402954Y00332005D01*
X00403032Y00331956D01*
X00403100Y00331907D01*
X00403158Y00331868D01*
X00403207Y00331829D01*
X00403237Y00331800D01*
X00403256Y00331790D01*
X00403266Y00331780D01*
X00403373Y00331673D01*
X00403461Y00331566D01*
X00403539Y00331449D01*
X00403607Y00331332D01*
X00403666Y00331225D01*
X00403705Y00331107D01*
X00403783Y00330903D01*
X00403822Y00330717D01*
X00403831Y00330639D01*
X00403841Y00330571D01*
X00403851Y00330513D01*
Y00330434D01*
X00403841Y00330269D01*
X00403822Y00330113D01*
X00403783Y00329966D01*
X00403744Y00329840D01*
X00403705Y00329732D01*
X00403666Y00329644D01*
X00403646Y00329596D01*
X00403636Y00329576D01*
X00403549Y00329430D01*
X00403451Y00329293D01*
X00403344Y00329176D01*
X00403237Y00329079D01*
X00403139Y00328991D01*
X00403061Y00328932D01*
X00403012Y00328893D01*
X00403002Y00328884D01*
X00403168D01*
X00403334Y00328893D01*
X00403490Y00328903D01*
X00403636Y00328913D01*
X00403763Y00328932D01*
X00403890Y00328952D01*
X00403997Y00328971D01*
X00404095Y00328991D01*
X00404183Y00329010D01*
X00404261Y00329030D01*
X00404329Y00329049D01*
X00404378Y00329069D01*
X00404417Y00329079D01*
X00404456Y00329088D01*
X00404465Y00329098D01*
X00404475D01*
X00404660Y00329186D01*
X00404826Y00329283D01*
X00404963Y00329381D01*
X00405070Y00329479D01*
X00405158Y00329557D01*
X00405226Y00329625D01*
X00405265Y00329664D01*
X00405275Y00329683D01*
X00405343Y00329800D01*
X00405402Y00329908D01*
X00405441Y00330025D01*
X00405460Y00330132D01*
X00405480Y00330220D01*
X00405490Y00330288D01*
Y00330356D01*
X00405480Y00330522D01*
X00405441Y00330678D01*
X00405382Y00330815D01*
X00405324Y00330932D01*
X00405256Y00331020D01*
X00405207Y00331088D01*
X00405168Y00331137D01*
X00405148Y00331147D01*
X00405060Y00331215D01*
X00404963Y00331273D01*
X00404739Y00331371D01*
X00404641Y00331400D01*
X00404563Y00331429D01*
X00404504Y00331449D01*
X00404495D01*
X00404485D01*
X00404543Y00332229D01*
X00404807Y00332180D01*
X00405041Y00332093D01*
X00405236Y00332005D01*
X00405402Y00331898D01*
X00405529Y00331800D01*
X00405626Y00331722D01*
X00405685Y00331663D01*
X00405704Y00331654D01*
Y00331644D01*
X00405782Y00331546D01*
X00405850Y00331449D01*
X00405948Y00331244D01*
X00406026Y00331039D01*
X00406085Y00330844D01*
X00406114Y00330668D01*
X00406124Y00330591D01*
Y00330532D01*
X00406133Y00330474D01*
Y00330405D01*
X00406124Y00330220D01*
X00406104Y00330044D01*
X00406065Y00329879D01*
X00406016Y00329722D01*
X00405958Y00329576D01*
X00405899Y00329449D01*
X00405831Y00329323D01*
X00405763Y00329215D01*
X00405694Y00329118D01*
X00405626Y00329030D01*
X00405568Y00328962D01*
X00405509Y00328893D01*
X00405460Y00328845D01*
X00405421Y00328815D01*
X00405402Y00328796D01*
X00405392Y00328786D01*
X00405226Y00328669D01*
X00405031Y00328562D01*
X00404836Y00328474D01*
X00404612Y00328396D01*
X00404397Y00328328D01*
X00404173Y00328269D01*
X00403949Y00328220D01*
X00403724Y00328191D01*
X00403519Y00328162D01*
X00403324Y00328142D01*
X00403149Y00328123D01*
X00402993Y00328113D01*
X00402866Y00328103D01*
X00402768D01*
X00402739D01*
X00402710D01*
X00402700D01*
X00402690D01*
X00402388Y00328113D01*
X00402115Y00328133D01*
X00401851Y00328162D01*
X00401617Y00328201D01*
X00401403Y00328250D01*
X00401208Y00328298D01*
X00401032Y00328357D01*
X00400876Y00328415D01*
X00400740Y00328464D01*
X00400622Y00328523D01*
X00400525Y00328572D01*
X00400447Y00328620D01*
X00400388Y00328659D01*
X00400349Y00328689D01*
X00400320Y00328708D01*
X00400310Y00328718D01*
X00400184Y00328835D01*
X00400076Y00328962D01*
X00399979Y00329098D01*
X00399891Y00329235D01*
X00399823Y00329371D01*
X00399764Y00329498D01*
X00399715Y00329635D01*
X00399676Y00329761D01*
X00399647Y00329879D01*
X00399628Y00329986D01*
X00399608Y00330083D01*
X00399598Y00330161D01*
Y00330230D01*
X00399589Y00330288D01*
Y00330327D01*
X00399598Y00330532D01*
X00399628Y00330727D01*
X00399676Y00330903D01*
X00399725Y00331059D01*
X00399774Y00331176D01*
X00399823Y00331273D01*
X00399852Y00331332D01*
X00399862Y00331351D01*
X00399979Y00331517D01*
X00400106Y00331654D01*
X00400232Y00331780D01*
X00400359Y00331888D01*
X00400476Y00331966D01*
X00400564Y00332024D01*
X00400603Y00332044D01*
X00400632Y00332063D01*
X00400642Y00332073D01*
X00400652D01*
X00400847Y00332161D01*
X00401042Y00332229D01*
X00401237Y00332268D01*
X00401403Y00332307D01*
X00401559Y00332327D01*
X00401617D01*
X00401676Y00332336D01*
X00401715D01*
X00401744D01*
X00401764D01*
X00401773D01*
X00401939Y00332327D01*
D02*
G37*
G36*
Y00326572D02*
X00401656Y00326494D01*
X00401403Y00326396D01*
X00401198Y00326279D01*
X00401022Y00326172D01*
X00400896Y00326065D01*
X00400798Y00325977D01*
X00400740Y00325919D01*
X00400730Y00325909D01*
X00400720Y00325899D01*
X00400583Y00325704D01*
X00400486Y00325509D01*
X00400408Y00325304D01*
X00400359Y00325119D01*
X00400330Y00324953D01*
X00400320Y00324875D01*
Y00324816D01*
X00400310Y00324768D01*
Y00324699D01*
X00400320Y00324485D01*
X00400359Y00324280D01*
X00400408Y00324095D01*
X00400457Y00323938D01*
X00400515Y00323802D01*
X00400554Y00323695D01*
X00400574Y00323656D01*
X00400593Y00323626D01*
X00400603Y00323617D01*
Y00323607D01*
X00400730Y00323431D01*
X00400876Y00323285D01*
X00401022Y00323158D01*
X00401178Y00323051D01*
X00401305Y00322973D01*
X00401422Y00322924D01*
X00401461Y00322905D01*
X00401491Y00322885D01*
X00401510Y00322875D01*
X00401520D01*
X00401754Y00322797D01*
X00401998Y00322739D01*
X00402242Y00322700D01*
X00402466Y00322671D01*
X00402564Y00322661D01*
X00402651Y00322651D01*
X00402739D01*
X00402807Y00322641D01*
X00402866D01*
X00402905D01*
X00402934D01*
X00402944D01*
X00403178Y00322651D01*
X00403402Y00322671D01*
X00403607Y00322700D01*
X00403792Y00322739D01*
X00403949Y00322778D01*
X00404017Y00322788D01*
X00404066Y00322807D01*
X00404114Y00322817D01*
X00404143Y00322827D01*
X00404163Y00322836D01*
X00404173D01*
X00404387Y00322924D01*
X00404582Y00323032D01*
X00404739Y00323148D01*
X00404875Y00323256D01*
X00404982Y00323363D01*
X00405060Y00323451D01*
X00405109Y00323509D01*
X00405129Y00323519D01*
Y00323529D01*
X00405246Y00323724D01*
X00405334Y00323929D01*
X00405402Y00324134D01*
X00405441Y00324329D01*
X00405470Y00324504D01*
X00405480Y00324572D01*
Y00324641D01*
X00405490Y00324690D01*
Y00324758D01*
X00405480Y00324992D01*
X00405441Y00325197D01*
X00405392Y00325382D01*
X00405334Y00325528D01*
X00405265Y00325655D01*
X00405216Y00325743D01*
X00405177Y00325802D01*
X00405168Y00325821D01*
X00405031Y00325977D01*
X00404875Y00326104D01*
X00404700Y00326221D01*
X00404534Y00326309D01*
X00404387Y00326377D01*
X00404319Y00326406D01*
X00404261Y00326436D01*
X00404212Y00326455D01*
X00404173Y00326465D01*
X00404153Y00326474D01*
X00404143D01*
X00404339Y00327313D01*
X00404651Y00327196D01*
X00404797Y00327128D01*
X00404924Y00327060D01*
X00405051Y00326982D01*
X00405168Y00326904D01*
X00405265Y00326835D01*
X00405363Y00326757D01*
X00405441Y00326689D01*
X00405509Y00326621D01*
X00405577Y00326553D01*
X00405626Y00326504D01*
X00405665Y00326455D01*
X00405694Y00326426D01*
X00405704Y00326406D01*
X00405714Y00326396D01*
X00405802Y00326270D01*
X00405880Y00326143D01*
X00405948Y00326006D01*
X00406007Y00325870D01*
X00406094Y00325597D01*
X00406153Y00325343D01*
X00406172Y00325226D01*
X00406182Y00325119D01*
X00406192Y00325021D01*
X00406202Y00324943D01*
X00406211Y00324875D01*
Y00324777D01*
X00406192Y00324465D01*
X00406153Y00324173D01*
X00406085Y00323909D01*
X00406055Y00323792D01*
X00406016Y00323685D01*
X00405977Y00323587D01*
X00405948Y00323490D01*
X00405909Y00323412D01*
X00405880Y00323353D01*
X00405860Y00323295D01*
X00405841Y00323256D01*
X00405821Y00323236D01*
Y00323227D01*
X00405665Y00322983D01*
X00405480Y00322758D01*
X00405294Y00322573D01*
X00405109Y00322427D01*
X00404943Y00322300D01*
X00404875Y00322251D01*
X00404817Y00322212D01*
X00404758Y00322183D01*
X00404719Y00322163D01*
X00404700Y00322144D01*
X00404690D01*
X00404407Y00322017D01*
X00404104Y00321920D01*
X00403812Y00321861D01*
X00403539Y00321812D01*
X00403412Y00321793D01*
X00403305Y00321783D01*
X00403197Y00321773D01*
X00403110D01*
X00403041Y00321763D01*
X00402993D01*
X00402954D01*
X00402944D01*
X00402603Y00321773D01*
X00402290Y00321812D01*
X00401998Y00321871D01*
X00401861Y00321900D01*
X00401744Y00321929D01*
X00401627Y00321959D01*
X00401530Y00321988D01*
X00401442Y00322017D01*
X00401364Y00322046D01*
X00401305Y00322066D01*
X00401266Y00322085D01*
X00401237Y00322095D01*
X00401227D01*
X00400944Y00322232D01*
X00400700Y00322397D01*
X00400486Y00322553D01*
X00400320Y00322719D01*
X00400184Y00322856D01*
X00400086Y00322973D01*
X00400057Y00323022D01*
X00400028Y00323051D01*
X00400018Y00323070D01*
X00400008Y00323080D01*
X00399930Y00323207D01*
X00399871Y00323344D01*
X00399764Y00323617D01*
X00399696Y00323899D01*
X00399637Y00324173D01*
X00399628Y00324290D01*
X00399608Y00324407D01*
X00399598Y00324504D01*
Y00324592D01*
X00399589Y00324670D01*
Y00324768D01*
X00399598Y00324953D01*
X00399608Y00325129D01*
X00399676Y00325450D01*
X00399715Y00325597D01*
X00399764Y00325743D01*
X00399813Y00325870D01*
X00399862Y00325987D01*
X00399911Y00326094D01*
X00399959Y00326182D01*
X00400008Y00326260D01*
X00400047Y00326328D01*
X00400086Y00326387D01*
X00400115Y00326426D01*
X00400125Y00326445D01*
X00400135Y00326455D01*
X00400242Y00326582D01*
X00400359Y00326699D01*
X00400613Y00326894D01*
X00400876Y00327070D01*
X00401139Y00327196D01*
X00401256Y00327255D01*
X00401364Y00327294D01*
X00401471Y00327333D01*
X00401549Y00327372D01*
X00401627Y00327391D01*
X00401676Y00327411D01*
X00401715Y00327421D01*
X00401725D01*
X00401939Y00326572D01*
D02*
G37*
G36*
X00486959Y00335666D02*
X00487067Y00335510D01*
X00487184Y00335364D01*
X00487301Y00335227D01*
X00487408Y00335120D01*
X00487496Y00335032D01*
X00487555Y00334974D01*
X00487564Y00334964D01*
X00487574Y00334954D01*
X00487759Y00334798D01*
X00487954Y00334652D01*
X00488149Y00334525D01*
X00488325Y00334418D01*
X00488481Y00334330D01*
X00488549Y00334301D01*
X00488608Y00334272D01*
X00488647Y00334242D01*
X00488686Y00334223D01*
X00488705Y00334213D01*
X00488715D01*
Y00333442D01*
X00488579Y00333501D01*
X00488432Y00333569D01*
X00488296Y00333628D01*
X00488169Y00333696D01*
X00488062Y00333755D01*
X00487974Y00333803D01*
X00487915Y00333842D01*
X00487906Y00333852D01*
X00487896D01*
X00487730Y00333950D01*
X00487584Y00334057D01*
X00487457Y00334145D01*
X00487350Y00334232D01*
X00487262Y00334301D01*
X00487194Y00334350D01*
X00487155Y00334389D01*
X00487145Y00334398D01*
Y00329385D01*
X00486355D01*
Y00335822D01*
X00486872D01*
X00486959Y00335666D01*
D02*
G37*
G36*
X00495445Y00332087D02*
Y00331901D01*
X00495435Y00331726D01*
X00495426Y00331560D01*
X00495406Y00331404D01*
X00495387Y00331267D01*
X00495367Y00331131D01*
X00495348Y00331014D01*
X00495318Y00330906D01*
X00495299Y00330809D01*
X00495279Y00330721D01*
X00495260Y00330643D01*
X00495240Y00330585D01*
X00495221Y00330536D01*
X00495211Y00330507D01*
X00495201Y00330487D01*
Y00330477D01*
X00495094Y00330272D01*
X00494967Y00330087D01*
X00494840Y00329941D01*
X00494704Y00329814D01*
X00494587Y00329707D01*
X00494480Y00329638D01*
X00494440Y00329609D01*
X00494421Y00329599D01*
X00494402Y00329580D01*
X00494392D01*
X00494167Y00329482D01*
X00493914Y00329404D01*
X00493670Y00329356D01*
X00493436Y00329317D01*
X00493329Y00329307D01*
X00493231Y00329297D01*
X00493143Y00329287D01*
X00493065D01*
X00493007Y00329278D01*
X00492919D01*
X00492587Y00329297D01*
X00492295Y00329336D01*
X00492158Y00329356D01*
X00492041Y00329385D01*
X00491924Y00329424D01*
X00491827Y00329453D01*
X00491739Y00329482D01*
X00491651Y00329521D01*
X00491583Y00329551D01*
X00491534Y00329570D01*
X00491485Y00329599D01*
X00491456Y00329609D01*
X00491436Y00329629D01*
X00491427D01*
X00491232Y00329775D01*
X00491056Y00329921D01*
X00490919Y00330077D01*
X00490812Y00330224D01*
X00490734Y00330360D01*
X00490676Y00330458D01*
X00490656Y00330497D01*
X00490646Y00330526D01*
X00490637Y00330546D01*
Y00330555D01*
X00490559Y00330780D01*
X00490510Y00331033D01*
X00490471Y00331287D01*
X00490442Y00331531D01*
X00490432Y00331648D01*
X00490422Y00331755D01*
Y00331843D01*
X00490412Y00331931D01*
Y00331999D01*
Y00332048D01*
Y00332077D01*
Y00332087D01*
Y00335793D01*
X00491261D01*
Y00332087D01*
Y00331872D01*
X00491280Y00331667D01*
X00491300Y00331492D01*
X00491319Y00331326D01*
X00491349Y00331170D01*
X00491388Y00331043D01*
X00491427Y00330926D01*
X00491456Y00330819D01*
X00491495Y00330731D01*
X00491534Y00330653D01*
X00491563Y00330594D01*
X00491602Y00330546D01*
X00491622Y00330507D01*
X00491641Y00330477D01*
X00491661Y00330468D01*
Y00330458D01*
X00491739Y00330380D01*
X00491836Y00330321D01*
X00492041Y00330214D01*
X00492256Y00330146D01*
X00492480Y00330087D01*
X00492675Y00330058D01*
X00492763Y00330048D01*
X00492841D01*
X00492909Y00330038D01*
X00492997D01*
X00493192Y00330048D01*
X00493368Y00330068D01*
X00493524Y00330107D01*
X00493660Y00330146D01*
X00493768Y00330175D01*
X00493846Y00330214D01*
X00493894Y00330233D01*
X00493914Y00330243D01*
X00494050Y00330331D01*
X00494158Y00330429D01*
X00494255Y00330536D01*
X00494324Y00330633D01*
X00494382Y00330721D01*
X00494421Y00330789D01*
X00494440Y00330838D01*
X00494450Y00330858D01*
X00494480Y00330936D01*
X00494499Y00331023D01*
X00494538Y00331219D01*
X00494558Y00331423D01*
X00494577Y00331618D01*
X00494587Y00331804D01*
X00494597Y00331882D01*
Y00331950D01*
Y00332009D01*
Y00332048D01*
Y00332077D01*
Y00332087D01*
Y00335793D01*
X00495445D01*
Y00332087D01*
D02*
G37*
G36*
X00422975Y00355092D02*
X00423268Y00355053D01*
X00423531Y00354985D01*
X00423648Y00354955D01*
X00423755Y00354916D01*
X00423853Y00354877D01*
X00423950Y00354848D01*
X00424028Y00354809D01*
X00424087Y00354780D01*
X00424145Y00354760D01*
X00424184Y00354741D01*
X00424204Y00354721D01*
X00424214D01*
X00424458Y00354565D01*
X00424682Y00354380D01*
X00424867Y00354194D01*
X00425014Y00354009D01*
X00425140Y00353843D01*
X00425189Y00353775D01*
X00425228Y00353717D01*
X00425257Y00353658D01*
X00425277Y00353619D01*
X00425296Y00353600D01*
Y00353590D01*
X00425423Y00353307D01*
X00425521Y00353005D01*
X00425579Y00352712D01*
X00425628Y00352439D01*
X00425647Y00352312D01*
X00425657Y00352205D01*
X00425667Y00352098D01*
Y00352010D01*
X00425677Y00351941D01*
Y00351893D01*
Y00351854D01*
Y00351844D01*
X00425667Y00351502D01*
X00425628Y00351190D01*
X00425569Y00350898D01*
X00425540Y00350761D01*
X00425511Y00350644D01*
X00425482Y00350527D01*
X00425452Y00350430D01*
X00425423Y00350342D01*
X00425394Y00350264D01*
X00425374Y00350205D01*
X00425355Y00350166D01*
X00425345Y00350137D01*
Y00350127D01*
X00425209Y00349844D01*
X00425043Y00349600D01*
X00424887Y00349386D01*
X00424721Y00349220D01*
X00424584Y00349084D01*
X00424467Y00348986D01*
X00424418Y00348957D01*
X00424389Y00348927D01*
X00424370Y00348918D01*
X00424360Y00348908D01*
X00424233Y00348830D01*
X00424097Y00348772D01*
X00423824Y00348664D01*
X00423541Y00348596D01*
X00423268Y00348537D01*
X00423150Y00348528D01*
X00423033Y00348508D01*
X00422936Y00348498D01*
X00422848D01*
X00422770Y00348489D01*
X00422673D01*
X00422487Y00348498D01*
X00422312Y00348508D01*
X00421990Y00348576D01*
X00421843Y00348615D01*
X00421697Y00348664D01*
X00421570Y00348713D01*
X00421453Y00348762D01*
X00421346Y00348811D01*
X00421258Y00348859D01*
X00421180Y00348908D01*
X00421112Y00348947D01*
X00421054Y00348986D01*
X00421015Y00349015D01*
X00420995Y00349025D01*
X00420985Y00349035D01*
X00420858Y00349142D01*
X00420741Y00349259D01*
X00420546Y00349513D01*
X00420371Y00349776D01*
X00420244Y00350039D01*
X00420185Y00350157D01*
X00420146Y00350264D01*
X00420107Y00350371D01*
X00420068Y00350449D01*
X00420049Y00350527D01*
X00420029Y00350576D01*
X00420020Y00350615D01*
Y00350625D01*
X00420868Y00350839D01*
X00420946Y00350556D01*
X00421044Y00350303D01*
X00421161Y00350098D01*
X00421268Y00349922D01*
X00421375Y00349796D01*
X00421463Y00349698D01*
X00421522Y00349640D01*
X00421531Y00349630D01*
X00421541Y00349620D01*
X00421736Y00349483D01*
X00421931Y00349386D01*
X00422136Y00349308D01*
X00422322Y00349259D01*
X00422487Y00349230D01*
X00422565Y00349220D01*
X00422624D01*
X00422673Y00349210D01*
X00422741D01*
X00422955Y00349220D01*
X00423160Y00349259D01*
X00423346Y00349308D01*
X00423502Y00349357D01*
X00423638Y00349415D01*
X00423745Y00349454D01*
X00423784Y00349474D01*
X00423814Y00349493D01*
X00423824Y00349503D01*
X00423833D01*
X00424009Y00349630D01*
X00424155Y00349776D01*
X00424282Y00349922D01*
X00424389Y00350079D01*
X00424467Y00350205D01*
X00424516Y00350322D01*
X00424535Y00350361D01*
X00424555Y00350391D01*
X00424565Y00350410D01*
Y00350420D01*
X00424643Y00350654D01*
X00424701Y00350898D01*
X00424740Y00351142D01*
X00424770Y00351366D01*
X00424779Y00351464D01*
X00424789Y00351551D01*
Y00351639D01*
X00424799Y00351707D01*
Y00351766D01*
Y00351805D01*
Y00351834D01*
Y00351844D01*
X00424789Y00352078D01*
X00424770Y00352302D01*
X00424740Y00352507D01*
X00424701Y00352692D01*
X00424662Y00352849D01*
X00424653Y00352917D01*
X00424633Y00352966D01*
X00424623Y00353014D01*
X00424614Y00353044D01*
X00424604Y00353063D01*
Y00353073D01*
X00424516Y00353287D01*
X00424409Y00353483D01*
X00424292Y00353638D01*
X00424184Y00353775D01*
X00424077Y00353882D01*
X00423989Y00353960D01*
X00423931Y00354009D01*
X00423921Y00354029D01*
X00423911D01*
X00423716Y00354146D01*
X00423511Y00354234D01*
X00423307Y00354302D01*
X00423111Y00354341D01*
X00422936Y00354370D01*
X00422868Y00354380D01*
X00422799D01*
X00422751Y00354390D01*
X00422682D01*
X00422448Y00354380D01*
X00422243Y00354341D01*
X00422058Y00354292D01*
X00421912Y00354234D01*
X00421785Y00354165D01*
X00421697Y00354117D01*
X00421639Y00354077D01*
X00421619Y00354068D01*
X00421463Y00353931D01*
X00421336Y00353775D01*
X00421219Y00353600D01*
X00421132Y00353434D01*
X00421063Y00353287D01*
X00421034Y00353219D01*
X00421005Y00353161D01*
X00420985Y00353112D01*
X00420975Y00353073D01*
X00420966Y00353053D01*
Y00353044D01*
X00420127Y00353239D01*
X00420244Y00353551D01*
X00420312Y00353697D01*
X00420381Y00353824D01*
X00420458Y00353951D01*
X00420536Y00354068D01*
X00420605Y00354165D01*
X00420683Y00354263D01*
X00420751Y00354341D01*
X00420819Y00354409D01*
X00420888Y00354477D01*
X00420936Y00354526D01*
X00420985Y00354565D01*
X00421015Y00354594D01*
X00421034Y00354604D01*
X00421044Y00354614D01*
X00421171Y00354702D01*
X00421297Y00354780D01*
X00421434Y00354848D01*
X00421570Y00354907D01*
X00421843Y00354994D01*
X00422097Y00355053D01*
X00422214Y00355072D01*
X00422322Y00355082D01*
X00422419Y00355092D01*
X00422497Y00355102D01*
X00422565Y00355111D01*
X00422663D01*
X00422975Y00355092D01*
D02*
G37*
G36*
X00419561Y00350849D02*
Y00350127D01*
X00416781D01*
Y00348596D01*
X00415991D01*
Y00350127D01*
X00415123D01*
Y00350849D01*
X00415991D01*
Y00354994D01*
X00416635D01*
X00419561Y00350849D01*
D02*
G37*
G36*
X00362240Y00340224D02*
X00362406Y00340215D01*
X00362552Y00340185D01*
X00362698Y00340146D01*
X00362825Y00340107D01*
X00362952Y00340059D01*
X00363059Y00340010D01*
X00363167Y00339961D01*
X00363254Y00339902D01*
X00363332Y00339854D01*
X00363401Y00339805D01*
X00363459Y00339766D01*
X00363508Y00339727D01*
X00363537Y00339698D01*
X00363557Y00339688D01*
X00363567Y00339678D01*
X00363674Y00339571D01*
X00363762Y00339464D01*
X00363840Y00339346D01*
X00363908Y00339229D01*
X00363966Y00339122D01*
X00364005Y00339005D01*
X00364083Y00338800D01*
X00364122Y00338615D01*
X00364132Y00338537D01*
X00364142Y00338469D01*
X00364152Y00338410D01*
Y00338332D01*
X00364142Y00338166D01*
X00364122Y00338010D01*
X00364083Y00337864D01*
X00364044Y00337737D01*
X00364005Y00337630D01*
X00363966Y00337542D01*
X00363947Y00337493D01*
X00363937Y00337474D01*
X00363849Y00337327D01*
X00363752Y00337191D01*
X00363644Y00337074D01*
X00363537Y00336976D01*
X00363440Y00336889D01*
X00363362Y00336830D01*
X00363313Y00336791D01*
X00363303Y00336781D01*
X00363469D01*
X00363635Y00336791D01*
X00363791Y00336801D01*
X00363937Y00336810D01*
X00364064Y00336830D01*
X00364191Y00336850D01*
X00364298Y00336869D01*
X00364395Y00336889D01*
X00364483Y00336908D01*
X00364561Y00336927D01*
X00364630Y00336947D01*
X00364678Y00336967D01*
X00364717Y00336976D01*
X00364756Y00336986D01*
X00364766Y00336996D01*
X00364776D01*
X00364961Y00337084D01*
X00365127Y00337181D01*
X00365264Y00337279D01*
X00365371Y00337376D01*
X00365459Y00337454D01*
X00365527Y00337523D01*
X00365566Y00337561D01*
X00365576Y00337581D01*
X00365644Y00337698D01*
X00365703Y00337805D01*
X00365742Y00337922D01*
X00365761Y00338030D01*
X00365780Y00338117D01*
X00365790Y00338186D01*
Y00338254D01*
X00365780Y00338420D01*
X00365742Y00338576D01*
X00365683Y00338713D01*
X00365625Y00338829D01*
X00365556Y00338917D01*
X00365507Y00338986D01*
X00365468Y00339034D01*
X00365449Y00339044D01*
X00365361Y00339112D01*
X00365264Y00339171D01*
X00365039Y00339268D01*
X00364942Y00339298D01*
X00364864Y00339327D01*
X00364805Y00339346D01*
X00364795D01*
X00364786D01*
X00364844Y00340127D01*
X00365108Y00340078D01*
X00365342Y00339990D01*
X00365537Y00339902D01*
X00365703Y00339795D01*
X00365829Y00339698D01*
X00365927Y00339619D01*
X00365985Y00339561D01*
X00366005Y00339551D01*
Y00339542D01*
X00366083Y00339444D01*
X00366151Y00339346D01*
X00366249Y00339142D01*
X00366327Y00338937D01*
X00366385Y00338742D01*
X00366414Y00338566D01*
X00366424Y00338488D01*
Y00338430D01*
X00366434Y00338371D01*
Y00338303D01*
X00366424Y00338117D01*
X00366405Y00337942D01*
X00366366Y00337776D01*
X00366317Y00337620D01*
X00366259Y00337474D01*
X00366200Y00337347D01*
X00366132Y00337220D01*
X00366063Y00337113D01*
X00365995Y00337015D01*
X00365927Y00336927D01*
X00365868Y00336859D01*
X00365810Y00336791D01*
X00365761Y00336742D01*
X00365722Y00336713D01*
X00365703Y00336693D01*
X00365693Y00336684D01*
X00365527Y00336567D01*
X00365332Y00336459D01*
X00365137Y00336372D01*
X00364912Y00336294D01*
X00364698Y00336225D01*
X00364474Y00336167D01*
X00364249Y00336118D01*
X00364025Y00336089D01*
X00363820Y00336059D01*
X00363625Y00336040D01*
X00363449Y00336021D01*
X00363293Y00336011D01*
X00363167Y00336001D01*
X00363069D01*
X00363040D01*
X00363010D01*
X00363001D01*
X00362991D01*
X00362689Y00336011D01*
X00362416Y00336030D01*
X00362152Y00336059D01*
X00361918Y00336099D01*
X00361703Y00336147D01*
X00361508Y00336196D01*
X00361333Y00336255D01*
X00361177Y00336313D01*
X00361040Y00336362D01*
X00360923Y00336420D01*
X00360826Y00336469D01*
X00360748Y00336518D01*
X00360689Y00336557D01*
X00360650Y00336586D01*
X00360621Y00336606D01*
X00360611Y00336615D01*
X00360484Y00336732D01*
X00360377Y00336859D01*
X00360280Y00336996D01*
X00360192Y00337132D01*
X00360123Y00337269D01*
X00360065Y00337396D01*
X00360016Y00337532D01*
X00359977Y00337659D01*
X00359948Y00337776D01*
X00359928Y00337883D01*
X00359909Y00337981D01*
X00359899Y00338059D01*
Y00338127D01*
X00359889Y00338186D01*
Y00338225D01*
X00359899Y00338430D01*
X00359928Y00338625D01*
X00359977Y00338800D01*
X00360026Y00338956D01*
X00360075Y00339073D01*
X00360123Y00339171D01*
X00360153Y00339229D01*
X00360163Y00339249D01*
X00360280Y00339415D01*
X00360406Y00339551D01*
X00360533Y00339678D01*
X00360660Y00339785D01*
X00360777Y00339863D01*
X00360865Y00339922D01*
X00360904Y00339941D01*
X00360933Y00339961D01*
X00360943Y00339971D01*
X00360952D01*
X00361148Y00340059D01*
X00361343Y00340127D01*
X00361538Y00340166D01*
X00361703Y00340205D01*
X00361860Y00340224D01*
X00361918D01*
X00361977Y00340234D01*
X00362016D01*
X00362045D01*
X00362064D01*
X00362074D01*
X00362240Y00340224D01*
D02*
G37*
G36*
X00366434Y00333514D02*
X00366278Y00333426D01*
X00366122Y00333319D01*
X00365976Y00333202D01*
X00365839Y00333085D01*
X00365732Y00332977D01*
X00365644Y00332890D01*
X00365586Y00332831D01*
X00365576Y00332821D01*
X00365566Y00332812D01*
X00365410Y00332626D01*
X00365264Y00332431D01*
X00365137Y00332236D01*
X00365029Y00332061D01*
X00364942Y00331904D01*
X00364912Y00331836D01*
X00364883Y00331778D01*
X00364854Y00331739D01*
X00364834Y00331700D01*
X00364825Y00331680D01*
Y00331670D01*
X00364054D01*
X00364113Y00331807D01*
X00364181Y00331953D01*
X00364240Y00332090D01*
X00364308Y00332217D01*
X00364366Y00332324D01*
X00364415Y00332412D01*
X00364454Y00332470D01*
X00364464Y00332480D01*
Y00332490D01*
X00364561Y00332655D01*
X00364669Y00332802D01*
X00364756Y00332929D01*
X00364844Y00333036D01*
X00364912Y00333124D01*
X00364961Y00333192D01*
X00365000Y00333231D01*
X00365010Y00333241D01*
X00359997D01*
Y00334031D01*
X00366434D01*
Y00333514D01*
D02*
G37*
G36*
X00362240Y00329495D02*
X00361957Y00329417D01*
X00361703Y00329320D01*
X00361499Y00329203D01*
X00361323Y00329095D01*
X00361196Y00328988D01*
X00361099Y00328900D01*
X00361040Y00328842D01*
X00361031Y00328832D01*
X00361021Y00328822D01*
X00360884Y00328627D01*
X00360787Y00328432D01*
X00360709Y00328227D01*
X00360660Y00328042D01*
X00360631Y00327876D01*
X00360621Y00327798D01*
Y00327740D01*
X00360611Y00327691D01*
Y00327623D01*
X00360621Y00327408D01*
X00360660Y00327203D01*
X00360709Y00327018D01*
X00360757Y00326862D01*
X00360816Y00326725D01*
X00360855Y00326618D01*
X00360874Y00326579D01*
X00360894Y00326550D01*
X00360904Y00326540D01*
Y00326530D01*
X00361031Y00326355D01*
X00361177Y00326208D01*
X00361323Y00326082D01*
X00361479Y00325974D01*
X00361606Y00325896D01*
X00361723Y00325848D01*
X00361762Y00325828D01*
X00361791Y00325808D01*
X00361811Y00325799D01*
X00361821D01*
X00362055Y00325721D01*
X00362299Y00325662D01*
X00362542Y00325623D01*
X00362767Y00325594D01*
X00362864Y00325584D01*
X00362952Y00325574D01*
X00363040D01*
X00363108Y00325565D01*
X00363167D01*
X00363206D01*
X00363235D01*
X00363245D01*
X00363479Y00325574D01*
X00363703Y00325594D01*
X00363908Y00325623D01*
X00364093Y00325662D01*
X00364249Y00325701D01*
X00364318Y00325711D01*
X00364366Y00325730D01*
X00364415Y00325740D01*
X00364444Y00325750D01*
X00364464Y00325760D01*
X00364474D01*
X00364688Y00325848D01*
X00364883Y00325955D01*
X00365039Y00326072D01*
X00365176Y00326179D01*
X00365283Y00326286D01*
X00365361Y00326374D01*
X00365410Y00326433D01*
X00365429Y00326442D01*
Y00326452D01*
X00365546Y00326647D01*
X00365634Y00326852D01*
X00365703Y00327057D01*
X00365742Y00327252D01*
X00365771Y00327427D01*
X00365780Y00327496D01*
Y00327564D01*
X00365790Y00327613D01*
Y00327681D01*
X00365780Y00327915D01*
X00365742Y00328120D01*
X00365693Y00328305D01*
X00365634Y00328452D01*
X00365566Y00328578D01*
X00365517Y00328666D01*
X00365478Y00328725D01*
X00365468Y00328744D01*
X00365332Y00328900D01*
X00365176Y00329027D01*
X00365000Y00329144D01*
X00364834Y00329232D01*
X00364688Y00329300D01*
X00364620Y00329329D01*
X00364561Y00329359D01*
X00364513Y00329378D01*
X00364474Y00329388D01*
X00364454Y00329398D01*
X00364444D01*
X00364639Y00330237D01*
X00364952Y00330120D01*
X00365098Y00330051D01*
X00365225Y00329983D01*
X00365351Y00329905D01*
X00365468Y00329827D01*
X00365566Y00329759D01*
X00365663Y00329681D01*
X00365742Y00329612D01*
X00365810Y00329544D01*
X00365878Y00329476D01*
X00365927Y00329427D01*
X00365966Y00329378D01*
X00365995Y00329349D01*
X00366005Y00329329D01*
X00366015Y00329320D01*
X00366102Y00329193D01*
X00366180Y00329066D01*
X00366249Y00328930D01*
X00366307Y00328793D01*
X00366395Y00328520D01*
X00366454Y00328266D01*
X00366473Y00328149D01*
X00366483Y00328042D01*
X00366493Y00327944D01*
X00366502Y00327867D01*
X00366512Y00327798D01*
Y00327701D01*
X00366493Y00327388D01*
X00366454Y00327096D01*
X00366385Y00326833D01*
X00366356Y00326716D01*
X00366317Y00326608D01*
X00366278Y00326511D01*
X00366249Y00326413D01*
X00366210Y00326335D01*
X00366180Y00326277D01*
X00366161Y00326218D01*
X00366141Y00326179D01*
X00366122Y00326160D01*
Y00326150D01*
X00365966Y00325906D01*
X00365780Y00325682D01*
X00365595Y00325496D01*
X00365410Y00325350D01*
X00365244Y00325223D01*
X00365176Y00325174D01*
X00365117Y00325135D01*
X00365059Y00325106D01*
X00365020Y00325087D01*
X00365000Y00325067D01*
X00364991D01*
X00364708Y00324940D01*
X00364405Y00324843D01*
X00364113Y00324784D01*
X00363840Y00324735D01*
X00363713Y00324716D01*
X00363605Y00324706D01*
X00363498Y00324697D01*
X00363410D01*
X00363342Y00324687D01*
X00363293D01*
X00363254D01*
X00363245D01*
X00362903Y00324697D01*
X00362591Y00324735D01*
X00362299Y00324794D01*
X00362162Y00324823D01*
X00362045Y00324853D01*
X00361928Y00324882D01*
X00361830Y00324911D01*
X00361743Y00324940D01*
X00361665Y00324970D01*
X00361606Y00324989D01*
X00361567Y00325009D01*
X00361538Y00325018D01*
X00361528D01*
X00361245Y00325155D01*
X00361001Y00325321D01*
X00360787Y00325477D01*
X00360621Y00325643D01*
X00360484Y00325779D01*
X00360387Y00325896D01*
X00360358Y00325945D01*
X00360328Y00325974D01*
X00360318Y00325994D01*
X00360309Y00326003D01*
X00360231Y00326130D01*
X00360172Y00326267D01*
X00360065Y00326540D01*
X00359997Y00326823D01*
X00359938Y00327096D01*
X00359928Y00327213D01*
X00359909Y00327330D01*
X00359899Y00327427D01*
Y00327515D01*
X00359889Y00327593D01*
Y00327691D01*
X00359899Y00327876D01*
X00359909Y00328052D01*
X00359977Y00328374D01*
X00360016Y00328520D01*
X00360065Y00328666D01*
X00360114Y00328793D01*
X00360163Y00328910D01*
X00360211Y00329017D01*
X00360260Y00329105D01*
X00360309Y00329183D01*
X00360348Y00329252D01*
X00360387Y00329310D01*
X00360416Y00329349D01*
X00360426Y00329369D01*
X00360436Y00329378D01*
X00360543Y00329505D01*
X00360660Y00329622D01*
X00360914Y00329817D01*
X00361177Y00329993D01*
X00361440Y00330120D01*
X00361557Y00330178D01*
X00361665Y00330217D01*
X00361772Y00330256D01*
X00361850Y00330295D01*
X00361928Y00330315D01*
X00361977Y00330334D01*
X00362016Y00330344D01*
X00362025D01*
X00362240Y00329495D01*
D02*
G37*
G36*
X00374994Y00293574D02*
X00375189Y00293535D01*
X00375365Y00293486D01*
X00375511Y00293427D01*
X00375638Y00293369D01*
X00375726Y00293320D01*
X00375784Y00293281D01*
X00375804Y00293271D01*
X00375950Y00293144D01*
X00376087Y00292998D01*
X00376194Y00292852D01*
X00376282Y00292705D01*
X00376340Y00292579D01*
X00376389Y00292471D01*
X00376409Y00292432D01*
X00376418Y00292403D01*
X00376428Y00292384D01*
Y00292374D01*
X00376496Y00292540D01*
X00376584Y00292686D01*
X00376662Y00292813D01*
X00376740Y00292910D01*
X00376818Y00292988D01*
X00376877Y00293047D01*
X00376916Y00293076D01*
X00376925Y00293086D01*
X00377052Y00293164D01*
X00377189Y00293223D01*
X00377316Y00293262D01*
X00377442Y00293291D01*
X00377550Y00293310D01*
X00377628Y00293320D01*
X00377686D01*
X00377706D01*
X00377832Y00293310D01*
X00377959Y00293300D01*
X00378184Y00293242D01*
X00378388Y00293154D01*
X00378564Y00293066D01*
X00378701Y00292969D01*
X00378759Y00292920D01*
X00378808Y00292881D01*
X00378847Y00292852D01*
X00378876Y00292823D01*
X00378886Y00292813D01*
X00378896Y00292803D01*
X00378983Y00292705D01*
X00379062Y00292598D01*
X00379120Y00292491D01*
X00379179Y00292374D01*
X00379266Y00292150D01*
X00379325Y00291935D01*
X00379354Y00291740D01*
X00379374Y00291662D01*
Y00291584D01*
X00379383Y00291525D01*
Y00291447D01*
X00379374Y00291291D01*
X00379364Y00291155D01*
X00379305Y00290891D01*
X00379237Y00290657D01*
X00379149Y00290472D01*
X00379100Y00290384D01*
X00379062Y00290316D01*
X00379013Y00290257D01*
X00378983Y00290199D01*
X00378954Y00290160D01*
X00378925Y00290131D01*
X00378915Y00290121D01*
X00378905Y00290111D01*
X00378818Y00290023D01*
X00378720Y00289945D01*
X00378623Y00289877D01*
X00378515Y00289828D01*
X00378320Y00289731D01*
X00378135Y00289672D01*
X00377969Y00289643D01*
X00377901Y00289633D01*
X00377842Y00289623D01*
X00377794Y00289614D01*
X00377755D01*
X00377735D01*
X00377725D01*
X00377559Y00289623D01*
X00377413Y00289653D01*
X00377277Y00289692D01*
X00377160Y00289731D01*
X00377062Y00289770D01*
X00376994Y00289809D01*
X00376955Y00289838D01*
X00376935Y00289848D01*
X00376818Y00289945D01*
X00376721Y00290062D01*
X00376633Y00290179D01*
X00376555Y00290306D01*
X00376506Y00290413D01*
X00376457Y00290501D01*
X00376438Y00290560D01*
X00376428Y00290569D01*
Y00290579D01*
X00376360Y00290374D01*
X00376272Y00290189D01*
X00376174Y00290033D01*
X00376077Y00289906D01*
X00375989Y00289809D01*
X00375911Y00289731D01*
X00375862Y00289692D01*
X00375853Y00289672D01*
X00375843D01*
X00375677Y00289565D01*
X00375501Y00289497D01*
X00375326Y00289438D01*
X00375160Y00289399D01*
X00375023Y00289380D01*
X00374955Y00289370D01*
X00374906D01*
X00374858Y00289360D01*
X00374828D01*
X00374809D01*
X00374799D01*
X00374643Y00289370D01*
X00374497Y00289389D01*
X00374360Y00289409D01*
X00374224Y00289448D01*
X00373990Y00289545D01*
X00373882Y00289594D01*
X00373785Y00289653D01*
X00373697Y00289701D01*
X00373619Y00289750D01*
X00373551Y00289799D01*
X00373492Y00289848D01*
X00373453Y00289887D01*
X00373424Y00289906D01*
X00373404Y00289926D01*
X00373395Y00289935D01*
X00373297Y00290053D01*
X00373209Y00290170D01*
X00373141Y00290296D01*
X00373073Y00290423D01*
X00373024Y00290550D01*
X00372975Y00290677D01*
X00372907Y00290921D01*
X00372887Y00291038D01*
X00372868Y00291135D01*
X00372858Y00291233D01*
X00372848Y00291311D01*
X00372839Y00291379D01*
Y00291467D01*
X00372848Y00291642D01*
X00372858Y00291808D01*
X00372887Y00291964D01*
X00372926Y00292101D01*
X00372966Y00292237D01*
X00373014Y00292364D01*
X00373063Y00292481D01*
X00373121Y00292589D01*
X00373170Y00292686D01*
X00373219Y00292764D01*
X00373268Y00292832D01*
X00373307Y00292891D01*
X00373346Y00292940D01*
X00373375Y00292969D01*
X00373385Y00292988D01*
X00373395Y00292998D01*
X00373502Y00293105D01*
X00373609Y00293193D01*
X00373726Y00293271D01*
X00373843Y00293340D01*
X00373960Y00293398D01*
X00374077Y00293437D01*
X00374292Y00293515D01*
X00374487Y00293554D01*
X00374575Y00293564D01*
X00374643Y00293574D01*
X00374702Y00293583D01*
X00374741D01*
X00374770D01*
X00374780D01*
X00374994Y00293574D01*
D02*
G37*
G36*
X00379383Y00286844D02*
X00379227Y00286756D01*
X00379071Y00286649D01*
X00378925Y00286532D01*
X00378788Y00286414D01*
X00378681Y00286307D01*
X00378593Y00286219D01*
X00378535Y00286161D01*
X00378525Y00286151D01*
X00378515Y00286141D01*
X00378359Y00285956D01*
X00378213Y00285761D01*
X00378086Y00285566D01*
X00377979Y00285390D01*
X00377891Y00285234D01*
X00377862Y00285166D01*
X00377832Y00285107D01*
X00377803Y00285068D01*
X00377784Y00285029D01*
X00377774Y00285010D01*
Y00285000D01*
X00377004D01*
X00377062Y00285137D01*
X00377130Y00285283D01*
X00377189Y00285420D01*
X00377257Y00285546D01*
X00377316Y00285654D01*
X00377364Y00285741D01*
X00377403Y00285800D01*
X00377413Y00285810D01*
Y00285819D01*
X00377511Y00285985D01*
X00377618Y00286132D01*
X00377706Y00286258D01*
X00377794Y00286366D01*
X00377862Y00286453D01*
X00377910Y00286522D01*
X00377950Y00286561D01*
X00377959Y00286570D01*
X00372946D01*
Y00287360D01*
X00379383D01*
Y00286844D01*
D02*
G37*
G36*
X00375189Y00282825D02*
X00374906Y00282747D01*
X00374653Y00282649D01*
X00374448Y00282533D01*
X00374272Y00282425D01*
X00374146Y00282318D01*
X00374048Y00282230D01*
X00373990Y00282172D01*
X00373980Y00282162D01*
X00373970Y00282152D01*
X00373834Y00281957D01*
X00373736Y00281762D01*
X00373658Y00281557D01*
X00373609Y00281372D01*
X00373580Y00281206D01*
X00373570Y00281128D01*
Y00281070D01*
X00373560Y00281021D01*
Y00280952D01*
X00373570Y00280738D01*
X00373609Y00280533D01*
X00373658Y00280348D01*
X00373707Y00280192D01*
X00373765Y00280055D01*
X00373804Y00279948D01*
X00373824Y00279909D01*
X00373843Y00279879D01*
X00373853Y00279870D01*
Y00279860D01*
X00373980Y00279685D01*
X00374126Y00279538D01*
X00374272Y00279411D01*
X00374428Y00279304D01*
X00374555Y00279226D01*
X00374672Y00279177D01*
X00374711Y00279158D01*
X00374741Y00279138D01*
X00374760Y00279128D01*
X00374770D01*
X00375004Y00279051D01*
X00375248Y00278992D01*
X00375492Y00278953D01*
X00375716Y00278924D01*
X00375813Y00278914D01*
X00375901Y00278904D01*
X00375989D01*
X00376057Y00278894D01*
X00376116D01*
X00376155D01*
X00376184D01*
X00376194D01*
X00376428Y00278904D01*
X00376652Y00278924D01*
X00376857Y00278953D01*
X00377043Y00278992D01*
X00377198Y00279031D01*
X00377267Y00279041D01*
X00377316Y00279060D01*
X00377364Y00279070D01*
X00377394Y00279080D01*
X00377413Y00279090D01*
X00377423D01*
X00377637Y00279177D01*
X00377832Y00279285D01*
X00377989Y00279402D01*
X00378125Y00279509D01*
X00378232Y00279616D01*
X00378310Y00279704D01*
X00378359Y00279762D01*
X00378379Y00279772D01*
Y00279782D01*
X00378496Y00279977D01*
X00378583Y00280182D01*
X00378652Y00280387D01*
X00378691Y00280582D01*
X00378720Y00280757D01*
X00378730Y00280826D01*
Y00280894D01*
X00378740Y00280943D01*
Y00281011D01*
X00378730Y00281245D01*
X00378691Y00281450D01*
X00378642Y00281635D01*
X00378583Y00281782D01*
X00378515Y00281908D01*
X00378466Y00281996D01*
X00378428Y00282055D01*
X00378418Y00282074D01*
X00378281Y00282230D01*
X00378125Y00282357D01*
X00377950Y00282474D01*
X00377784Y00282562D01*
X00377637Y00282630D01*
X00377569Y00282659D01*
X00377511Y00282689D01*
X00377462Y00282708D01*
X00377423Y00282718D01*
X00377403Y00282728D01*
X00377394D01*
X00377589Y00283566D01*
X00377901Y00283449D01*
X00378047Y00283381D01*
X00378174Y00283313D01*
X00378301Y00283235D01*
X00378418Y00283157D01*
X00378515Y00283088D01*
X00378613Y00283010D01*
X00378691Y00282942D01*
X00378759Y00282874D01*
X00378827Y00282806D01*
X00378876Y00282757D01*
X00378915Y00282708D01*
X00378944Y00282679D01*
X00378954Y00282659D01*
X00378964Y00282649D01*
X00379052Y00282523D01*
X00379130Y00282396D01*
X00379198Y00282259D01*
X00379257Y00282123D01*
X00379344Y00281850D01*
X00379403Y00281596D01*
X00379422Y00281479D01*
X00379432Y00281372D01*
X00379442Y00281274D01*
X00379452Y00281196D01*
X00379461Y00281128D01*
Y00281031D01*
X00379442Y00280718D01*
X00379403Y00280426D01*
X00379335Y00280162D01*
X00379305Y00280045D01*
X00379266Y00279938D01*
X00379227Y00279841D01*
X00379198Y00279743D01*
X00379159Y00279665D01*
X00379130Y00279606D01*
X00379110Y00279548D01*
X00379091Y00279509D01*
X00379071Y00279489D01*
Y00279480D01*
X00378915Y00279236D01*
X00378730Y00279011D01*
X00378545Y00278826D01*
X00378359Y00278680D01*
X00378193Y00278553D01*
X00378125Y00278504D01*
X00378067Y00278465D01*
X00378008Y00278436D01*
X00377969Y00278417D01*
X00377950Y00278397D01*
X00377940D01*
X00377657Y00278270D01*
X00377355Y00278173D01*
X00377062Y00278114D01*
X00376789Y00278065D01*
X00376662Y00278046D01*
X00376555Y00278036D01*
X00376447Y00278026D01*
X00376360D01*
X00376291Y00278017D01*
X00376243D01*
X00376204D01*
X00376194D01*
X00375853Y00278026D01*
X00375540Y00278065D01*
X00375248Y00278124D01*
X00375111Y00278153D01*
X00374994Y00278182D01*
X00374877Y00278212D01*
X00374780Y00278241D01*
X00374692Y00278270D01*
X00374614Y00278299D01*
X00374555Y00278319D01*
X00374516Y00278339D01*
X00374487Y00278348D01*
X00374477D01*
X00374194Y00278485D01*
X00373951Y00278651D01*
X00373736Y00278807D01*
X00373570Y00278972D01*
X00373434Y00279109D01*
X00373336Y00279226D01*
X00373307Y00279275D01*
X00373278Y00279304D01*
X00373268Y00279324D01*
X00373258Y00279333D01*
X00373180Y00279460D01*
X00373121Y00279597D01*
X00373014Y00279870D01*
X00372946Y00280153D01*
X00372887Y00280426D01*
X00372878Y00280543D01*
X00372858Y00280660D01*
X00372848Y00280757D01*
Y00280845D01*
X00372839Y00280923D01*
Y00281021D01*
X00372848Y00281206D01*
X00372858Y00281382D01*
X00372926Y00281703D01*
X00372966Y00281850D01*
X00373014Y00281996D01*
X00373063Y00282123D01*
X00373112Y00282240D01*
X00373161Y00282347D01*
X00373209Y00282435D01*
X00373258Y00282513D01*
X00373297Y00282581D01*
X00373336Y00282640D01*
X00373365Y00282679D01*
X00373375Y00282698D01*
X00373385Y00282708D01*
X00373492Y00282835D01*
X00373609Y00282952D01*
X00373863Y00283147D01*
X00374126Y00283323D01*
X00374389Y00283449D01*
X00374506Y00283508D01*
X00374614Y00283547D01*
X00374721Y00283586D01*
X00374799Y00283625D01*
X00374877Y00283644D01*
X00374926Y00283664D01*
X00374965Y00283674D01*
X00374975D01*
X00375189Y00282825D01*
D02*
G37*
G36*
X00452197Y00344068D02*
X00452344D01*
X00452490Y00344058D01*
X00452627Y00344048D01*
X00452753Y00344029D01*
X00452861Y00344019D01*
X00452968Y00344009D01*
X00453056Y00343990D01*
X00453144Y00343980D01*
X00453212Y00343970D01*
X00453261Y00343951D01*
X00453309Y00343941D01*
X00453339D01*
X00453358Y00343931D01*
X00453368D01*
X00453573Y00343873D01*
X00453758Y00343805D01*
X00453924Y00343736D01*
X00454060Y00343678D01*
X00454168Y00343619D01*
X00454255Y00343571D01*
X00454304Y00343541D01*
X00454324Y00343531D01*
X00454460Y00343434D01*
X00454577Y00343327D01*
X00454685Y00343219D01*
X00454772Y00343122D01*
X00454831Y00343024D01*
X00454880Y00342956D01*
X00454909Y00342907D01*
X00454919Y00342888D01*
X00454987Y00342742D01*
X00455046Y00342585D01*
X00455084Y00342429D01*
X00455104Y00342293D01*
X00455123Y00342176D01*
X00455133Y00342078D01*
Y00341990D01*
X00455114Y00341737D01*
X00455075Y00341512D01*
X00455016Y00341308D01*
X00454948Y00341142D01*
X00454870Y00341005D01*
X00454811Y00340908D01*
X00454792Y00340869D01*
X00454772Y00340840D01*
X00454753Y00340830D01*
Y00340820D01*
X00454597Y00340654D01*
X00454431Y00340518D01*
X00454255Y00340401D01*
X00454080Y00340303D01*
X00453924Y00340225D01*
X00453856Y00340196D01*
X00453797Y00340176D01*
X00453748Y00340157D01*
X00453709Y00340137D01*
X00453690Y00340127D01*
X00453680D01*
X00453544Y00340089D01*
X00453407Y00340050D01*
X00453105Y00340001D01*
X00452802Y00339962D01*
X00452510Y00339932D01*
X00452373Y00339923D01*
X00452246Y00339913D01*
X00452139D01*
X00452041Y00339903D01*
X00451963D01*
X00451905D01*
X00451866D01*
X00451856D01*
X00451534Y00339913D01*
X00451222Y00339932D01*
X00450949Y00339962D01*
X00450686Y00340001D01*
X00450452Y00340050D01*
X00450237Y00340098D01*
X00450042Y00340157D01*
X00449876Y00340215D01*
X00449720Y00340274D01*
X00449593Y00340332D01*
X00449486Y00340381D01*
X00449398Y00340430D01*
X00449330Y00340469D01*
X00449281Y00340498D01*
X00449252Y00340518D01*
X00449242Y00340527D01*
X00449125Y00340635D01*
X00449027Y00340742D01*
X00448940Y00340859D01*
X00448862Y00340986D01*
X00448803Y00341103D01*
X00448745Y00341230D01*
X00448667Y00341464D01*
X00448647Y00341571D01*
X00448628Y00341669D01*
X00448608Y00341756D01*
X00448598Y00341834D01*
X00448589Y00341903D01*
Y00341990D01*
X00448608Y00342244D01*
X00448647Y00342468D01*
X00448706Y00342663D01*
X00448774Y00342839D01*
X00448842Y00342966D01*
X00448901Y00343073D01*
X00448930Y00343102D01*
X00448940Y00343132D01*
X00448959Y00343141D01*
Y00343151D01*
X00449115Y00343317D01*
X00449291Y00343453D01*
X00449467Y00343571D01*
X00449642Y00343668D01*
X00449798Y00343746D01*
X00449857Y00343775D01*
X00449915Y00343805D01*
X00449964Y00343824D01*
X00450003Y00343834D01*
X00450022Y00343844D01*
X00450032D01*
X00450169Y00343883D01*
X00450305Y00343922D01*
X00450608Y00343980D01*
X00450910Y00344019D01*
X00451203Y00344048D01*
X00451339Y00344058D01*
X00451466Y00344068D01*
X00451573D01*
X00451671Y00344078D01*
X00451749D01*
X00451807D01*
X00451846D01*
X00451856D01*
X00452197Y00344068D01*
D02*
G37*
G36*
X00455133Y00337377D02*
X00454977Y00337289D01*
X00454821Y00337182D01*
X00454675Y00337065D01*
X00454538Y00336948D01*
X00454431Y00336841D01*
X00454343Y00336753D01*
X00454285Y00336694D01*
X00454275Y00336684D01*
X00454265Y00336675D01*
X00454109Y00336489D01*
X00453963Y00336294D01*
X00453836Y00336099D01*
X00453729Y00335924D01*
X00453641Y00335768D01*
X00453612Y00335699D01*
X00453582Y00335641D01*
X00453553Y00335602D01*
X00453534Y00335563D01*
X00453524Y00335543D01*
Y00335533D01*
X00452753D01*
X00452812Y00335670D01*
X00452880Y00335816D01*
X00452939Y00335953D01*
X00453007Y00336080D01*
X00453065Y00336187D01*
X00453114Y00336275D01*
X00453153Y00336333D01*
X00453163Y00336343D01*
Y00336353D01*
X00453261Y00336519D01*
X00453368Y00336665D01*
X00453456Y00336792D01*
X00453544Y00336899D01*
X00453612Y00336987D01*
X00453661Y00337055D01*
X00453699Y00337094D01*
X00453709Y00337104D01*
X00448696D01*
Y00337894D01*
X00455133D01*
Y00337377D01*
D02*
G37*
G36*
X00450939Y00333358D02*
X00450656Y00333280D01*
X00450403Y00333183D01*
X00450198Y00333066D01*
X00450022Y00332959D01*
X00449896Y00332851D01*
X00449798Y00332763D01*
X00449740Y00332705D01*
X00449730Y00332695D01*
X00449720Y00332686D01*
X00449584Y00332490D01*
X00449486Y00332295D01*
X00449408Y00332090D01*
X00449359Y00331905D01*
X00449330Y00331739D01*
X00449320Y00331661D01*
Y00331603D01*
X00449310Y00331554D01*
Y00331486D01*
X00449320Y00331271D01*
X00449359Y00331066D01*
X00449408Y00330881D01*
X00449457Y00330725D01*
X00449515Y00330588D01*
X00449554Y00330481D01*
X00449574Y00330442D01*
X00449593Y00330413D01*
X00449603Y00330403D01*
Y00330393D01*
X00449730Y00330218D01*
X00449876Y00330071D01*
X00450022Y00329945D01*
X00450178Y00329837D01*
X00450305Y00329759D01*
X00450422Y00329711D01*
X00450461Y00329691D01*
X00450491Y00329672D01*
X00450510Y00329662D01*
X00450520D01*
X00450754Y00329584D01*
X00450998Y00329525D01*
X00451242Y00329486D01*
X00451466Y00329457D01*
X00451563Y00329447D01*
X00451651Y00329437D01*
X00451739D01*
X00451807Y00329428D01*
X00451866D01*
X00451905D01*
X00451934D01*
X00451944D01*
X00452178Y00329437D01*
X00452402Y00329457D01*
X00452607Y00329486D01*
X00452792Y00329525D01*
X00452948Y00329564D01*
X00453017Y00329574D01*
X00453065Y00329594D01*
X00453114Y00329603D01*
X00453144Y00329613D01*
X00453163Y00329623D01*
X00453173D01*
X00453387Y00329711D01*
X00453582Y00329818D01*
X00453739Y00329935D01*
X00453875Y00330042D01*
X00453982Y00330150D01*
X00454060Y00330237D01*
X00454109Y00330296D01*
X00454129Y00330306D01*
Y00330315D01*
X00454246Y00330510D01*
X00454333Y00330715D01*
X00454402Y00330920D01*
X00454441Y00331115D01*
X00454470Y00331291D01*
X00454480Y00331359D01*
Y00331427D01*
X00454490Y00331476D01*
Y00331544D01*
X00454480Y00331778D01*
X00454441Y00331983D01*
X00454392Y00332169D01*
X00454333Y00332315D01*
X00454265Y00332442D01*
X00454216Y00332529D01*
X00454178Y00332588D01*
X00454168Y00332607D01*
X00454031Y00332763D01*
X00453875Y00332890D01*
X00453699Y00333007D01*
X00453534Y00333095D01*
X00453387Y00333163D01*
X00453319Y00333193D01*
X00453261Y00333222D01*
X00453212Y00333241D01*
X00453173Y00333251D01*
X00453153Y00333261D01*
X00453144D01*
X00453339Y00334100D01*
X00453651Y00333983D01*
X00453797Y00333914D01*
X00453924Y00333846D01*
X00454051Y00333768D01*
X00454168Y00333690D01*
X00454265Y00333622D01*
X00454363Y00333544D01*
X00454441Y00333475D01*
X00454509Y00333407D01*
X00454577Y00333339D01*
X00454626Y00333290D01*
X00454665Y00333241D01*
X00454694Y00333212D01*
X00454704Y00333193D01*
X00454714Y00333183D01*
X00454802Y00333056D01*
X00454880Y00332929D01*
X00454948Y00332793D01*
X00455006Y00332656D01*
X00455094Y00332383D01*
X00455153Y00332130D01*
X00455172Y00332012D01*
X00455182Y00331905D01*
X00455192Y00331808D01*
X00455202Y00331730D01*
X00455211Y00331661D01*
Y00331564D01*
X00455192Y00331252D01*
X00455153Y00330959D01*
X00455084Y00330696D01*
X00455055Y00330579D01*
X00455016Y00330471D01*
X00454977Y00330374D01*
X00454948Y00330276D01*
X00454909Y00330198D01*
X00454880Y00330140D01*
X00454860Y00330081D01*
X00454841Y00330042D01*
X00454821Y00330023D01*
Y00330013D01*
X00454665Y00329769D01*
X00454480Y00329545D01*
X00454295Y00329360D01*
X00454109Y00329213D01*
X00453943Y00329086D01*
X00453875Y00329038D01*
X00453817Y00328999D01*
X00453758Y00328969D01*
X00453719Y00328950D01*
X00453699Y00328930D01*
X00453690D01*
X00453407Y00328804D01*
X00453105Y00328706D01*
X00452812Y00328647D01*
X00452539Y00328599D01*
X00452412Y00328579D01*
X00452305Y00328569D01*
X00452197Y00328560D01*
X00452110D01*
X00452041Y00328550D01*
X00451993D01*
X00451954D01*
X00451944D01*
X00451603Y00328560D01*
X00451290Y00328599D01*
X00450998Y00328657D01*
X00450861Y00328686D01*
X00450744Y00328716D01*
X00450627Y00328745D01*
X00450530Y00328774D01*
X00450442Y00328804D01*
X00450364Y00328833D01*
X00450305Y00328852D01*
X00450266Y00328872D01*
X00450237Y00328882D01*
X00450227D01*
X00449944Y00329018D01*
X00449701Y00329184D01*
X00449486Y00329340D01*
X00449320Y00329506D01*
X00449184Y00329642D01*
X00449086Y00329759D01*
X00449057Y00329808D01*
X00449027Y00329837D01*
X00449018Y00329857D01*
X00449008Y00329867D01*
X00448930Y00329994D01*
X00448871Y00330130D01*
X00448764Y00330403D01*
X00448696Y00330686D01*
X00448637Y00330959D01*
X00448628Y00331076D01*
X00448608Y00331193D01*
X00448598Y00331291D01*
Y00331379D01*
X00448589Y00331456D01*
Y00331554D01*
X00448598Y00331739D01*
X00448608Y00331915D01*
X00448676Y00332237D01*
X00448715Y00332383D01*
X00448764Y00332529D01*
X00448813Y00332656D01*
X00448862Y00332773D01*
X00448910Y00332881D01*
X00448959Y00332968D01*
X00449008Y00333046D01*
X00449047Y00333115D01*
X00449086Y00333173D01*
X00449115Y00333212D01*
X00449125Y00333232D01*
X00449135Y00333241D01*
X00449242Y00333368D01*
X00449359Y00333485D01*
X00449613Y00333680D01*
X00449876Y00333856D01*
X00450140Y00333983D01*
X00450257Y00334041D01*
X00450364Y00334080D01*
X00450471Y00334119D01*
X00450549Y00334158D01*
X00450627Y00334178D01*
X00450676Y00334197D01*
X00450715Y00334207D01*
X00450725D01*
X00450939Y00333358D01*
D02*
G37*
G36*
X00344449Y00321696D02*
X00348594D01*
Y00321052D01*
X00344449Y00318126D01*
X00343727D01*
Y00320906D01*
X00342196D01*
Y00321696D01*
X00343727D01*
Y00322564D01*
X00344449D01*
Y00321696D01*
D02*
G37*
G36*
X00348633Y00315863D02*
X00348477Y00315775D01*
X00348321Y00315668D01*
X00348175Y00315551D01*
X00348038Y00315434D01*
X00347931Y00315327D01*
X00347843Y00315239D01*
X00347785Y00315180D01*
X00347775Y00315171D01*
X00347765Y00315161D01*
X00347609Y00314975D01*
X00347463Y00314780D01*
X00347336Y00314585D01*
X00347229Y00314410D01*
X00347141Y00314254D01*
X00347112Y00314186D01*
X00347082Y00314127D01*
X00347053Y00314088D01*
X00347034Y00314049D01*
X00347024Y00314029D01*
Y00314020D01*
X00346254D01*
X00346312Y00314156D01*
X00346380Y00314303D01*
X00346439Y00314439D01*
X00346507Y00314566D01*
X00346566Y00314673D01*
X00346614Y00314761D01*
X00346653Y00314820D01*
X00346663Y00314829D01*
Y00314839D01*
X00346761Y00315005D01*
X00346868Y00315151D01*
X00346956Y00315278D01*
X00347043Y00315385D01*
X00347112Y00315473D01*
X00347160Y00315541D01*
X00347200Y00315580D01*
X00347209Y00315590D01*
X00342196D01*
Y00316380D01*
X00348633D01*
Y00315863D01*
D02*
G37*
G36*
X00344439Y00311845D02*
X00344156Y00311767D01*
X00343903Y00311669D01*
X00343698Y00311552D01*
X00343522Y00311445D01*
X00343396Y00311337D01*
X00343298Y00311250D01*
X00343240Y00311191D01*
X00343230Y00311181D01*
X00343220Y00311172D01*
X00343083Y00310977D01*
X00342986Y00310781D01*
X00342908Y00310577D01*
X00342859Y00310391D01*
X00342830Y00310226D01*
X00342820Y00310147D01*
Y00310089D01*
X00342810Y00310040D01*
Y00309972D01*
X00342820Y00309757D01*
X00342859Y00309552D01*
X00342908Y00309367D01*
X00342957Y00309211D01*
X00343015Y00309075D01*
X00343054Y00308967D01*
X00343074Y00308928D01*
X00343093Y00308899D01*
X00343103Y00308889D01*
Y00308880D01*
X00343230Y00308704D01*
X00343376Y00308558D01*
X00343522Y00308431D01*
X00343679Y00308324D01*
X00343805Y00308246D01*
X00343922Y00308197D01*
X00343961Y00308177D01*
X00343991Y00308158D01*
X00344010Y00308148D01*
X00344020D01*
X00344254Y00308070D01*
X00344498Y00308011D01*
X00344742Y00307972D01*
X00344966Y00307943D01*
X00345064Y00307933D01*
X00345151Y00307924D01*
X00345239D01*
X00345307Y00307914D01*
X00345366D01*
X00345405D01*
X00345434D01*
X00345444D01*
X00345678Y00307924D01*
X00345902Y00307943D01*
X00346107Y00307972D01*
X00346292Y00308011D01*
X00346449Y00308050D01*
X00346517Y00308060D01*
X00346566Y00308080D01*
X00346614Y00308090D01*
X00346644Y00308099D01*
X00346663Y00308109D01*
X00346673D01*
X00346887Y00308197D01*
X00347082Y00308304D01*
X00347239Y00308421D01*
X00347375Y00308528D01*
X00347482Y00308636D01*
X00347560Y00308724D01*
X00347609Y00308782D01*
X00347629Y00308792D01*
Y00308801D01*
X00347746Y00308997D01*
X00347834Y00309201D01*
X00347902Y00309406D01*
X00347941Y00309601D01*
X00347970Y00309777D01*
X00347980Y00309845D01*
Y00309913D01*
X00347990Y00309962D01*
Y00310030D01*
X00347980Y00310264D01*
X00347941Y00310469D01*
X00347892Y00310655D01*
X00347834Y00310801D01*
X00347765Y00310928D01*
X00347716Y00311016D01*
X00347677Y00311074D01*
X00347668Y00311094D01*
X00347531Y00311250D01*
X00347375Y00311376D01*
X00347200Y00311493D01*
X00347034Y00311581D01*
X00346887Y00311649D01*
X00346819Y00311679D01*
X00346761Y00311708D01*
X00346712Y00311728D01*
X00346673Y00311737D01*
X00346653Y00311747D01*
X00346644D01*
X00346839Y00312586D01*
X00347151Y00312469D01*
X00347297Y00312401D01*
X00347424Y00312332D01*
X00347551Y00312254D01*
X00347668Y00312176D01*
X00347765Y00312108D01*
X00347863Y00312030D01*
X00347941Y00311962D01*
X00348009Y00311893D01*
X00348077Y00311825D01*
X00348126Y00311776D01*
X00348165Y00311728D01*
X00348194Y00311698D01*
X00348204Y00311679D01*
X00348214Y00311669D01*
X00348302Y00311542D01*
X00348380Y00311416D01*
X00348448Y00311279D01*
X00348507Y00311142D01*
X00348594Y00310869D01*
X00348653Y00310616D01*
X00348672Y00310499D01*
X00348682Y00310391D01*
X00348692Y00310294D01*
X00348702Y00310216D01*
X00348711Y00310147D01*
Y00310050D01*
X00348692Y00309738D01*
X00348653Y00309445D01*
X00348585Y00309182D01*
X00348555Y00309065D01*
X00348516Y00308958D01*
X00348477Y00308860D01*
X00348448Y00308762D01*
X00348409Y00308684D01*
X00348380Y00308626D01*
X00348360Y00308567D01*
X00348341Y00308528D01*
X00348321Y00308509D01*
Y00308499D01*
X00348165Y00308255D01*
X00347980Y00308031D01*
X00347794Y00307846D01*
X00347609Y00307699D01*
X00347443Y00307572D01*
X00347375Y00307524D01*
X00347317Y00307485D01*
X00347258Y00307456D01*
X00347219Y00307436D01*
X00347200Y00307416D01*
X00347190D01*
X00346907Y00307290D01*
X00346605Y00307192D01*
X00346312Y00307134D01*
X00346039Y00307085D01*
X00345912Y00307065D01*
X00345805Y00307056D01*
X00345698Y00307046D01*
X00345610D01*
X00345541Y00307036D01*
X00345493D01*
X00345454D01*
X00345444D01*
X00345103Y00307046D01*
X00344790Y00307085D01*
X00344498Y00307143D01*
X00344361Y00307173D01*
X00344244Y00307202D01*
X00344127Y00307231D01*
X00344030Y00307260D01*
X00343942Y00307290D01*
X00343864Y00307319D01*
X00343805Y00307339D01*
X00343766Y00307358D01*
X00343737Y00307368D01*
X00343727D01*
X00343444Y00307504D01*
X00343201Y00307670D01*
X00342986Y00307826D01*
X00342820Y00307992D01*
X00342684Y00308129D01*
X00342586Y00308246D01*
X00342557Y00308294D01*
X00342528Y00308324D01*
X00342518Y00308343D01*
X00342508Y00308353D01*
X00342430Y00308480D01*
X00342371Y00308616D01*
X00342264Y00308889D01*
X00342196Y00309172D01*
X00342137Y00309445D01*
X00342128Y00309562D01*
X00342108Y00309679D01*
X00342098Y00309777D01*
Y00309865D01*
X00342089Y00309943D01*
Y00310040D01*
X00342098Y00310226D01*
X00342108Y00310401D01*
X00342177Y00310723D01*
X00342215Y00310869D01*
X00342264Y00311016D01*
X00342313Y00311142D01*
X00342362Y00311259D01*
X00342411Y00311367D01*
X00342459Y00311455D01*
X00342508Y00311532D01*
X00342547Y00311601D01*
X00342586Y00311659D01*
X00342615Y00311698D01*
X00342625Y00311718D01*
X00342635Y00311728D01*
X00342742Y00311854D01*
X00342859Y00311971D01*
X00343113Y00312167D01*
X00343376Y00312342D01*
X00343639Y00312469D01*
X00343756Y00312527D01*
X00343864Y00312566D01*
X00343971Y00312605D01*
X00344049Y00312644D01*
X00344127Y00312664D01*
X00344176Y00312683D01*
X00344215Y00312693D01*
X00344225D01*
X00344439Y00311845D01*
D02*
G37*
G36*
X00378527Y00371662D02*
X00378693Y00371642D01*
X00378839Y00371613D01*
X00378985Y00371584D01*
X00379112Y00371535D01*
X00379239Y00371486D01*
X00379346Y00371438D01*
X00379454Y00371379D01*
X00379541Y00371320D01*
X00379619Y00371272D01*
X00379688Y00371223D01*
X00379746Y00371174D01*
X00379795Y00371145D01*
X00379824Y00371116D01*
X00379844Y00371096D01*
X00379854Y00371086D01*
X00379961Y00370979D01*
X00380049Y00370862D01*
X00380127Y00370745D01*
X00380195Y00370618D01*
X00380253Y00370501D01*
X00380293Y00370384D01*
X00380370Y00370160D01*
X00380390Y00370062D01*
X00380410Y00369965D01*
X00380419Y00369887D01*
X00380429Y00369809D01*
X00380439Y00369750D01*
Y00369672D01*
X00380419Y00369438D01*
X00380370Y00369214D01*
X00380312Y00369009D01*
X00380234Y00368833D01*
X00380156Y00368677D01*
X00380127Y00368619D01*
X00380097Y00368560D01*
X00380068Y00368521D01*
X00380049Y00368492D01*
X00380039Y00368473D01*
X00380029Y00368463D01*
X00381755Y00368814D01*
Y00371369D01*
X00382506D01*
Y00368190D01*
X00379220Y00367565D01*
X00379112Y00368307D01*
X00379210Y00368375D01*
X00379298Y00368453D01*
X00379376Y00368531D01*
X00379444Y00368599D01*
X00379493Y00368667D01*
X00379532Y00368726D01*
X00379551Y00368765D01*
X00379561Y00368775D01*
X00379619Y00368892D01*
X00379668Y00369009D01*
X00379697Y00369126D01*
X00379727Y00369233D01*
X00379737Y00369331D01*
X00379746Y00369399D01*
Y00369467D01*
X00379727Y00369682D01*
X00379688Y00369877D01*
X00379619Y00370052D01*
X00379551Y00370189D01*
X00379483Y00370306D01*
X00379415Y00370384D01*
X00379376Y00370433D01*
X00379356Y00370452D01*
X00379200Y00370579D01*
X00379025Y00370677D01*
X00378849Y00370745D01*
X00378683Y00370784D01*
X00378527Y00370813D01*
X00378459Y00370823D01*
X00378400D01*
X00378361Y00370833D01*
X00378322D01*
X00378303D01*
X00378293D01*
X00378039Y00370813D01*
X00377815Y00370774D01*
X00377620Y00370706D01*
X00377454Y00370638D01*
X00377327Y00370569D01*
X00377230Y00370501D01*
X00377171Y00370462D01*
X00377162Y00370443D01*
X00377152D01*
X00377074Y00370365D01*
X00377015Y00370287D01*
X00376908Y00370131D01*
X00376840Y00369965D01*
X00376781Y00369818D01*
X00376752Y00369682D01*
X00376742Y00369575D01*
X00376732Y00369536D01*
Y00369477D01*
X00376742Y00369311D01*
X00376781Y00369155D01*
X00376830Y00369019D01*
X00376879Y00368902D01*
X00376937Y00368804D01*
X00376976Y00368736D01*
X00377015Y00368697D01*
X00377025Y00368677D01*
X00377152Y00368560D01*
X00377298Y00368473D01*
X00377444Y00368394D01*
X00377591Y00368346D01*
X00377727Y00368307D01*
X00377835Y00368277D01*
X00377874Y00368268D01*
X00377903Y00368258D01*
X00377922D01*
X00377932D01*
X00377874Y00367429D01*
X00377727Y00367448D01*
X00377581Y00367478D01*
X00377327Y00367556D01*
X00377103Y00367663D01*
X00376918Y00367770D01*
X00376840Y00367829D01*
X00376771Y00367878D01*
X00376713Y00367926D01*
X00376664Y00367965D01*
X00376625Y00368004D01*
X00376596Y00368034D01*
X00376586Y00368043D01*
X00376576Y00368053D01*
X00376489Y00368160D01*
X00376420Y00368277D01*
X00376352Y00368394D01*
X00376293Y00368512D01*
X00376206Y00368746D01*
X00376147Y00368970D01*
X00376128Y00369077D01*
X00376118Y00369175D01*
X00376108Y00369263D01*
X00376098Y00369331D01*
X00376089Y00369389D01*
Y00369477D01*
X00376098Y00369672D01*
X00376118Y00369857D01*
X00376157Y00370023D01*
X00376206Y00370189D01*
X00376264Y00370335D01*
X00376333Y00370482D01*
X00376401Y00370608D01*
X00376479Y00370716D01*
X00376547Y00370823D01*
X00376615Y00370911D01*
X00376684Y00370989D01*
X00376742Y00371047D01*
X00376791Y00371096D01*
X00376830Y00371135D01*
X00376849Y00371155D01*
X00376859Y00371165D01*
X00376976Y00371252D01*
X00377103Y00371330D01*
X00377230Y00371399D01*
X00377366Y00371457D01*
X00377610Y00371545D01*
X00377844Y00371613D01*
X00377952Y00371633D01*
X00378049Y00371642D01*
X00378137Y00371652D01*
X00378215Y00371662D01*
X00378274Y00371672D01*
X00378322D01*
X00378352D01*
X00378361D01*
X00378527Y00371662D01*
D02*
G37*
G36*
X00378439Y00365858D02*
X00378156Y00365780D01*
X00377903Y00365683D01*
X00377698Y00365566D01*
X00377522Y00365459D01*
X00377396Y00365351D01*
X00377298Y00365263D01*
X00377240Y00365205D01*
X00377230Y00365195D01*
X00377220Y00365186D01*
X00377084Y00364990D01*
X00376986Y00364795D01*
X00376908Y00364590D01*
X00376859Y00364405D01*
X00376830Y00364239D01*
X00376820Y00364161D01*
Y00364103D01*
X00376810Y00364054D01*
Y00363986D01*
X00376820Y00363771D01*
X00376859Y00363566D01*
X00376908Y00363381D01*
X00376957Y00363225D01*
X00377015Y00363088D01*
X00377054Y00362981D01*
X00377074Y00362942D01*
X00377093Y00362913D01*
X00377103Y00362903D01*
Y00362893D01*
X00377230Y00362718D01*
X00377376Y00362571D01*
X00377522Y00362445D01*
X00377678Y00362337D01*
X00377805Y00362259D01*
X00377922Y00362211D01*
X00377961Y00362191D01*
X00377991Y00362172D01*
X00378010Y00362162D01*
X00378020D01*
X00378254Y00362084D01*
X00378498Y00362025D01*
X00378742Y00361986D01*
X00378966Y00361957D01*
X00379063Y00361947D01*
X00379151Y00361938D01*
X00379239D01*
X00379307Y00361928D01*
X00379366D01*
X00379405D01*
X00379434D01*
X00379444D01*
X00379678Y00361938D01*
X00379902Y00361957D01*
X00380107Y00361986D01*
X00380293Y00362025D01*
X00380448Y00362064D01*
X00380517Y00362074D01*
X00380566Y00362094D01*
X00380614Y00362103D01*
X00380644Y00362113D01*
X00380663Y00362123D01*
X00380673D01*
X00380887Y00362211D01*
X00381082Y00362318D01*
X00381239Y00362435D01*
X00381375Y00362542D01*
X00381482Y00362650D01*
X00381560Y00362737D01*
X00381609Y00362796D01*
X00381629Y00362806D01*
Y00362815D01*
X00381746Y00363010D01*
X00381833Y00363215D01*
X00381902Y00363420D01*
X00381941Y00363615D01*
X00381970Y00363791D01*
X00381980Y00363859D01*
Y00363927D01*
X00381990Y00363976D01*
Y00364044D01*
X00381980Y00364278D01*
X00381941Y00364483D01*
X00381892Y00364669D01*
X00381833Y00364815D01*
X00381765Y00364942D01*
X00381716Y00365029D01*
X00381678Y00365088D01*
X00381668Y00365107D01*
X00381531Y00365263D01*
X00381375Y00365390D01*
X00381199Y00365507D01*
X00381034Y00365595D01*
X00380887Y00365663D01*
X00380819Y00365693D01*
X00380761Y00365722D01*
X00380712Y00365742D01*
X00380673Y00365751D01*
X00380653Y00365761D01*
X00380644D01*
X00380839Y00366600D01*
X00381151Y00366483D01*
X00381297Y00366414D01*
X00381424Y00366346D01*
X00381551Y00366268D01*
X00381668Y00366190D01*
X00381765Y00366122D01*
X00381863Y00366044D01*
X00381941Y00365975D01*
X00382009Y00365907D01*
X00382077Y00365839D01*
X00382126Y00365790D01*
X00382165Y00365742D01*
X00382194Y00365712D01*
X00382204Y00365693D01*
X00382214Y00365683D01*
X00382302Y00365556D01*
X00382380Y00365429D01*
X00382448Y00365293D01*
X00382506Y00365156D01*
X00382594Y00364883D01*
X00382653Y00364630D01*
X00382672Y00364512D01*
X00382682Y00364405D01*
X00382692Y00364308D01*
X00382702Y00364230D01*
X00382711Y00364161D01*
Y00364064D01*
X00382692Y00363752D01*
X00382653Y00363459D01*
X00382585Y00363196D01*
X00382555Y00363079D01*
X00382516Y00362971D01*
X00382477Y00362874D01*
X00382448Y00362776D01*
X00382409Y00362698D01*
X00382380Y00362640D01*
X00382360Y00362581D01*
X00382341Y00362542D01*
X00382321Y00362523D01*
Y00362513D01*
X00382165Y00362269D01*
X00381980Y00362045D01*
X00381795Y00361860D01*
X00381609Y00361713D01*
X00381443Y00361586D01*
X00381375Y00361538D01*
X00381317Y00361499D01*
X00381258Y00361469D01*
X00381219Y00361450D01*
X00381199Y00361430D01*
X00381190D01*
X00380907Y00361304D01*
X00380605Y00361206D01*
X00380312Y00361147D01*
X00380039Y00361099D01*
X00379912Y00361079D01*
X00379805Y00361069D01*
X00379697Y00361060D01*
X00379610D01*
X00379541Y00361050D01*
X00379493D01*
X00379454D01*
X00379444D01*
X00379103Y00361060D01*
X00378790Y00361099D01*
X00378498Y00361157D01*
X00378361Y00361186D01*
X00378244Y00361216D01*
X00378127Y00361245D01*
X00378030Y00361274D01*
X00377942Y00361304D01*
X00377864Y00361333D01*
X00377805Y00361352D01*
X00377766Y00361372D01*
X00377737Y00361382D01*
X00377727D01*
X00377444Y00361518D01*
X00377201Y00361684D01*
X00376986Y00361840D01*
X00376820Y00362006D01*
X00376684Y00362142D01*
X00376586Y00362259D01*
X00376557Y00362308D01*
X00376528Y00362337D01*
X00376518Y00362357D01*
X00376508Y00362367D01*
X00376430Y00362494D01*
X00376371Y00362630D01*
X00376264Y00362903D01*
X00376196Y00363186D01*
X00376137Y00363459D01*
X00376128Y00363576D01*
X00376108Y00363693D01*
X00376098Y00363791D01*
Y00363879D01*
X00376089Y00363956D01*
Y00364054D01*
X00376098Y00364239D01*
X00376108Y00364415D01*
X00376176Y00364737D01*
X00376216Y00364883D01*
X00376264Y00365029D01*
X00376313Y00365156D01*
X00376362Y00365273D01*
X00376410Y00365381D01*
X00376459Y00365468D01*
X00376508Y00365546D01*
X00376547Y00365615D01*
X00376586Y00365673D01*
X00376615Y00365712D01*
X00376625Y00365732D01*
X00376635Y00365742D01*
X00376742Y00365868D01*
X00376859Y00365985D01*
X00377113Y00366180D01*
X00377376Y00366356D01*
X00377640Y00366483D01*
X00377757Y00366541D01*
X00377864Y00366580D01*
X00377971Y00366619D01*
X00378049Y00366658D01*
X00378127Y00366678D01*
X00378176Y00366697D01*
X00378215Y00366707D01*
X00378225D01*
X00378439Y00365858D01*
D02*
G37*
G36*
X00356026Y00367502D02*
X00355275D01*
Y00370643D01*
X00355002Y00370418D01*
X00354719Y00370214D01*
X00354436Y00370018D01*
X00354173Y00369843D01*
X00354046Y00369775D01*
X00353939Y00369706D01*
X00353841Y00369648D01*
X00353753Y00369599D01*
X00353685Y00369560D01*
X00353636Y00369531D01*
X00353597Y00369511D01*
X00353588Y00369501D01*
X00353217Y00369316D01*
X00352846Y00369150D01*
X00352495Y00369014D01*
X00352329Y00368955D01*
X00352183Y00368897D01*
X00352037Y00368848D01*
X00351910Y00368809D01*
X00351803Y00368770D01*
X00351705Y00368741D01*
X00351627Y00368721D01*
X00351569Y00368702D01*
X00351530Y00368692D01*
X00351520D01*
X00351130Y00368594D01*
X00350954Y00368555D01*
X00350779Y00368526D01*
X00350622Y00368497D01*
X00350476Y00368477D01*
X00350330Y00368458D01*
X00350203Y00368438D01*
X00350096Y00368429D01*
X00349989Y00368419D01*
X00349901Y00368409D01*
X00349832D01*
X00349774Y00368399D01*
X00349735D01*
X00349706D01*
X00349696D01*
Y00369209D01*
X00350047Y00369238D01*
X00350379Y00369277D01*
X00350671Y00369326D01*
X00350808Y00369355D01*
X00350935Y00369375D01*
X00351042Y00369404D01*
X00351149Y00369423D01*
X00351237Y00369443D01*
X00351315Y00369463D01*
X00351373Y00369482D01*
X00351413Y00369492D01*
X00351442Y00369501D01*
X00351452D01*
X00351881Y00369638D01*
X00352281Y00369784D01*
X00352476Y00369862D01*
X00352661Y00369940D01*
X00352837Y00370018D01*
X00352993Y00370087D01*
X00353139Y00370155D01*
X00353275Y00370223D01*
X00353392Y00370282D01*
X00353490Y00370331D01*
X00353568Y00370369D01*
X00353627Y00370399D01*
X00353666Y00370418D01*
X00353675Y00370428D01*
X00353871Y00370545D01*
X00354066Y00370652D01*
X00354241Y00370769D01*
X00354407Y00370877D01*
X00354563Y00370974D01*
X00354700Y00371082D01*
X00354836Y00371179D01*
X00354953Y00371267D01*
X00355051Y00371345D01*
X00355148Y00371423D01*
X00355226Y00371491D01*
X00355294Y00371540D01*
X00355343Y00371589D01*
X00355382Y00371618D01*
X00355402Y00371637D01*
X00355411Y00371647D01*
X00356026D01*
Y00367502D01*
D02*
G37*
G36*
X00351939Y00365883D02*
X00351656Y00365805D01*
X00351403Y00365707D01*
X00351198Y00365590D01*
X00351022Y00365483D01*
X00350896Y00365376D01*
X00350798Y00365288D01*
X00350740Y00365229D01*
X00350730Y00365220D01*
X00350720Y00365210D01*
X00350583Y00365015D01*
X00350486Y00364820D01*
X00350408Y00364615D01*
X00350359Y00364430D01*
X00350330Y00364264D01*
X00350320Y00364186D01*
Y00364127D01*
X00350310Y00364078D01*
Y00364010D01*
X00350320Y00363796D01*
X00350359Y00363591D01*
X00350408Y00363405D01*
X00350457Y00363249D01*
X00350515Y00363113D01*
X00350554Y00363006D01*
X00350574Y00362967D01*
X00350593Y00362937D01*
X00350603Y00362928D01*
Y00362918D01*
X00350730Y00362742D01*
X00350876Y00362596D01*
X00351022Y00362469D01*
X00351179Y00362362D01*
X00351305Y00362284D01*
X00351422Y00362235D01*
X00351461Y00362215D01*
X00351491Y00362196D01*
X00351510Y00362186D01*
X00351520D01*
X00351754Y00362108D01*
X00351998Y00362050D01*
X00352242Y00362011D01*
X00352466Y00361981D01*
X00352564Y00361972D01*
X00352651Y00361962D01*
X00352739D01*
X00352807Y00361952D01*
X00352866D01*
X00352905D01*
X00352934D01*
X00352944D01*
X00353178Y00361962D01*
X00353402Y00361981D01*
X00353607Y00362011D01*
X00353792Y00362050D01*
X00353949Y00362089D01*
X00354017Y00362099D01*
X00354066Y00362118D01*
X00354114Y00362128D01*
X00354144Y00362137D01*
X00354163Y00362147D01*
X00354173D01*
X00354387Y00362235D01*
X00354582Y00362342D01*
X00354739Y00362459D01*
X00354875Y00362567D01*
X00354982Y00362674D01*
X00355060Y00362762D01*
X00355109Y00362820D01*
X00355129Y00362830D01*
Y00362840D01*
X00355246Y00363035D01*
X00355334Y00363240D01*
X00355402Y00363445D01*
X00355441Y00363640D01*
X00355470Y00363815D01*
X00355480Y00363883D01*
Y00363952D01*
X00355490Y00364000D01*
Y00364069D01*
X00355480Y00364303D01*
X00355441Y00364508D01*
X00355392Y00364693D01*
X00355334Y00364839D01*
X00355265Y00364966D01*
X00355216Y00365054D01*
X00355177Y00365112D01*
X00355168Y00365132D01*
X00355031Y00365288D01*
X00354875Y00365415D01*
X00354700Y00365532D01*
X00354534Y00365620D01*
X00354387Y00365688D01*
X00354319Y00365717D01*
X00354261Y00365746D01*
X00354212Y00365766D01*
X00354173Y00365776D01*
X00354153Y00365785D01*
X00354144D01*
X00354339Y00366624D01*
X00354651Y00366507D01*
X00354797Y00366439D01*
X00354924Y00366371D01*
X00355051Y00366292D01*
X00355168Y00366214D01*
X00355265Y00366146D01*
X00355363Y00366068D01*
X00355441Y00366000D01*
X00355509Y00365932D01*
X00355577Y00365863D01*
X00355626Y00365815D01*
X00355665Y00365766D01*
X00355694Y00365737D01*
X00355704Y00365717D01*
X00355714Y00365707D01*
X00355802Y00365580D01*
X00355880Y00365454D01*
X00355948Y00365317D01*
X00356007Y00365181D01*
X00356094Y00364907D01*
X00356153Y00364654D01*
X00356172Y00364537D01*
X00356182Y00364430D01*
X00356192Y00364332D01*
X00356202Y00364254D01*
X00356211Y00364186D01*
Y00364088D01*
X00356192Y00363776D01*
X00356153Y00363484D01*
X00356085Y00363220D01*
X00356055Y00363103D01*
X00356016Y00362996D01*
X00355977Y00362898D01*
X00355948Y00362801D01*
X00355909Y00362723D01*
X00355880Y00362664D01*
X00355860Y00362606D01*
X00355841Y00362567D01*
X00355821Y00362547D01*
Y00362537D01*
X00355665Y00362294D01*
X00355480Y00362069D01*
X00355294Y00361884D01*
X00355109Y00361738D01*
X00354943Y00361611D01*
X00354875Y00361562D01*
X00354817Y00361523D01*
X00354758Y00361494D01*
X00354719Y00361474D01*
X00354700Y00361455D01*
X00354690D01*
X00354407Y00361328D01*
X00354104Y00361230D01*
X00353812Y00361172D01*
X00353539Y00361123D01*
X00353412Y00361104D01*
X00353305Y00361094D01*
X00353198Y00361084D01*
X00353110D01*
X00353041Y00361074D01*
X00352993D01*
X00352954D01*
X00352944D01*
X00352603Y00361084D01*
X00352290Y00361123D01*
X00351998Y00361182D01*
X00351861Y00361211D01*
X00351744Y00361240D01*
X00351627Y00361269D01*
X00351530Y00361299D01*
X00351442Y00361328D01*
X00351364Y00361357D01*
X00351305Y00361377D01*
X00351266Y00361396D01*
X00351237Y00361406D01*
X00351227D01*
X00350944Y00361543D01*
X00350700Y00361708D01*
X00350486Y00361864D01*
X00350320Y00362030D01*
X00350184Y00362167D01*
X00350086Y00362284D01*
X00350057Y00362333D01*
X00350028Y00362362D01*
X00350018Y00362381D01*
X00350008Y00362391D01*
X00349930Y00362518D01*
X00349871Y00362654D01*
X00349764Y00362928D01*
X00349696Y00363210D01*
X00349637Y00363484D01*
X00349628Y00363601D01*
X00349608Y00363718D01*
X00349598Y00363815D01*
Y00363903D01*
X00349589Y00363981D01*
Y00364078D01*
X00349598Y00364264D01*
X00349608Y00364439D01*
X00349676Y00364761D01*
X00349715Y00364907D01*
X00349764Y00365054D01*
X00349813Y00365181D01*
X00349862Y00365298D01*
X00349911Y00365405D01*
X00349959Y00365493D01*
X00350008Y00365571D01*
X00350047Y00365639D01*
X00350086Y00365698D01*
X00350115Y00365737D01*
X00350125Y00365756D01*
X00350135Y00365766D01*
X00350242Y00365893D01*
X00350359Y00366010D01*
X00350613Y00366205D01*
X00350876Y00366380D01*
X00351139Y00366507D01*
X00351256Y00366566D01*
X00351364Y00366605D01*
X00351471Y00366644D01*
X00351549Y00366683D01*
X00351627Y00366702D01*
X00351676Y00366722D01*
X00351715Y00366731D01*
X00351725D01*
X00351939Y00365883D01*
D02*
G37*
G36*
X00372701Y00320086D02*
X00372886Y00320067D01*
X00373062Y00320057D01*
X00373218Y00320038D01*
X00373364Y00320008D01*
X00373501Y00319989D01*
X00373618Y00319960D01*
X00373725Y00319930D01*
X00373823Y00319911D01*
X00373901Y00319891D01*
X00373959Y00319862D01*
X00374008Y00319852D01*
X00374047Y00319833D01*
X00374067Y00319823D01*
X00374076D01*
X00374301Y00319716D01*
X00374496Y00319589D01*
X00374652Y00319452D01*
X00374798Y00319326D01*
X00374905Y00319209D01*
X00374983Y00319121D01*
X00375003Y00319082D01*
X00375022Y00319053D01*
X00375042Y00319043D01*
Y00319033D01*
X00375159Y00318838D01*
X00375237Y00318633D01*
X00375295Y00318448D01*
X00375344Y00318272D01*
X00375364Y00318116D01*
X00375373Y00318048D01*
Y00317999D01*
X00375383Y00317950D01*
Y00317892D01*
X00375373Y00317736D01*
X00375354Y00317580D01*
X00375325Y00317433D01*
X00375295Y00317297D01*
X00375198Y00317053D01*
X00375140Y00316946D01*
X00375091Y00316848D01*
X00375032Y00316751D01*
X00374974Y00316673D01*
X00374925Y00316604D01*
X00374886Y00316556D01*
X00374847Y00316507D01*
X00374818Y00316478D01*
X00374798Y00316458D01*
X00374788Y00316448D01*
X00374671Y00316351D01*
X00374554Y00316263D01*
X00374427Y00316185D01*
X00374291Y00316126D01*
X00374164Y00316068D01*
X00374027Y00316019D01*
X00373784Y00315951D01*
X00373667Y00315931D01*
X00373559Y00315912D01*
X00373462Y00315902D01*
X00373384Y00315892D01*
X00373316Y00315883D01*
X00373257D01*
X00373228D01*
X00373218D01*
X00373042Y00315892D01*
X00372877Y00315902D01*
X00372730Y00315931D01*
X00372584Y00315970D01*
X00372448Y00316009D01*
X00372321Y00316058D01*
X00372204Y00316107D01*
X00372106Y00316156D01*
X00372009Y00316204D01*
X00371931Y00316253D01*
X00371862Y00316302D01*
X00371804Y00316341D01*
X00371755Y00316380D01*
X00371726Y00316409D01*
X00371706Y00316419D01*
X00371696Y00316429D01*
X00371599Y00316536D01*
X00371511Y00316643D01*
X00371433Y00316761D01*
X00371365Y00316868D01*
X00371306Y00316985D01*
X00371258Y00317092D01*
X00371189Y00317307D01*
X00371150Y00317492D01*
X00371141Y00317570D01*
X00371131Y00317638D01*
X00371121Y00317697D01*
Y00317775D01*
X00371131Y00317950D01*
X00371160Y00318116D01*
X00371189Y00318263D01*
X00371238Y00318389D01*
X00371277Y00318497D01*
X00371306Y00318584D01*
X00371336Y00318633D01*
X00371345Y00318653D01*
X00371443Y00318799D01*
X00371540Y00318926D01*
X00371648Y00319043D01*
X00371745Y00319131D01*
X00371823Y00319209D01*
X00371901Y00319257D01*
X00371940Y00319296D01*
X00371960Y00319306D01*
X00371892D01*
X00371843D01*
X00371814D01*
X00371804D01*
X00371618D01*
X00371443Y00319287D01*
X00371287Y00319267D01*
X00371141Y00319248D01*
X00371014Y00319228D01*
X00370916Y00319209D01*
X00370887Y00319199D01*
X00370858D01*
X00370848Y00319189D01*
X00370838D01*
X00370672Y00319140D01*
X00370526Y00319092D01*
X00370399Y00319043D01*
X00370292Y00319004D01*
X00370204Y00318955D01*
X00370136Y00318926D01*
X00370097Y00318906D01*
X00370087Y00318897D01*
X00369990Y00318828D01*
X00369902Y00318750D01*
X00369824Y00318682D01*
X00369765Y00318604D01*
X00369716Y00318545D01*
X00369677Y00318497D01*
X00369658Y00318458D01*
X00369648Y00318448D01*
X00369590Y00318340D01*
X00369551Y00318233D01*
X00369521Y00318126D01*
X00369502Y00318028D01*
X00369492Y00317941D01*
X00369482Y00317872D01*
Y00317814D01*
X00369492Y00317658D01*
X00369521Y00317521D01*
X00369560Y00317404D01*
X00369599Y00317307D01*
X00369638Y00317219D01*
X00369677Y00317160D01*
X00369707Y00317121D01*
X00369716Y00317112D01*
X00369814Y00317014D01*
X00369941Y00316936D01*
X00370068Y00316877D01*
X00370194Y00316829D01*
X00370302Y00316790D01*
X00370399Y00316770D01*
X00370438Y00316761D01*
X00370467Y00316751D01*
X00370477D01*
X00370487D01*
X00370429Y00316000D01*
X00370155Y00316048D01*
X00369921Y00316126D01*
X00369716Y00316214D01*
X00369551Y00316312D01*
X00369424Y00316409D01*
X00369326Y00316487D01*
X00369268Y00316546D01*
X00369258Y00316556D01*
X00369248Y00316565D01*
X00369112Y00316761D01*
X00369014Y00316956D01*
X00368936Y00317160D01*
X00368887Y00317355D01*
X00368858Y00317531D01*
X00368848Y00317609D01*
Y00317668D01*
X00368839Y00317726D01*
Y00317794D01*
X00368858Y00318048D01*
X00368897Y00318292D01*
X00368956Y00318497D01*
X00369024Y00318682D01*
X00369092Y00318828D01*
X00369122Y00318887D01*
X00369151Y00318936D01*
X00369180Y00318984D01*
X00369190Y00319014D01*
X00369209Y00319023D01*
Y00319033D01*
X00369365Y00319218D01*
X00369541Y00319374D01*
X00369726Y00319511D01*
X00369911Y00319628D01*
X00370068Y00319716D01*
X00370136Y00319745D01*
X00370204Y00319774D01*
X00370253Y00319794D01*
X00370292Y00319813D01*
X00370311Y00319823D01*
X00370321D01*
X00370467Y00319872D01*
X00370614Y00319911D01*
X00370936Y00319979D01*
X00371267Y00320028D01*
X00371579Y00320067D01*
X00371726Y00320077D01*
X00371852Y00320086D01*
X00371979D01*
X00372077Y00320096D01*
X00372165D01*
X00372223D01*
X00372272D01*
X00372282D01*
X00372496D01*
X00372701Y00320086D01*
D02*
G37*
G36*
X00371189Y00314312D02*
X00370906Y00314234D01*
X00370653Y00314137D01*
X00370448Y00314020D01*
X00370272Y00313912D01*
X00370146Y00313805D01*
X00370048Y00313717D01*
X00369990Y00313659D01*
X00369980Y00313649D01*
X00369970Y00313639D01*
X00369833Y00313444D01*
X00369736Y00313249D01*
X00369658Y00313044D01*
X00369609Y00312859D01*
X00369580Y00312693D01*
X00369570Y00312615D01*
Y00312557D01*
X00369560Y00312508D01*
Y00312440D01*
X00369570Y00312225D01*
X00369609Y00312020D01*
X00369658Y00311835D01*
X00369707Y00311679D01*
X00369765Y00311542D01*
X00369804Y00311435D01*
X00369824Y00311396D01*
X00369843Y00311367D01*
X00369853Y00311357D01*
Y00311347D01*
X00369980Y00311172D01*
X00370126Y00311025D01*
X00370272Y00310898D01*
X00370429Y00310791D01*
X00370555Y00310713D01*
X00370672Y00310665D01*
X00370711Y00310645D01*
X00370741Y00310625D01*
X00370760Y00310616D01*
X00370770D01*
X00371004Y00310538D01*
X00371248Y00310479D01*
X00371492Y00310440D01*
X00371716Y00310411D01*
X00371814Y00310401D01*
X00371901Y00310391D01*
X00371989D01*
X00372057Y00310382D01*
X00372116D01*
X00372155D01*
X00372184D01*
X00372194D01*
X00372428Y00310391D01*
X00372652Y00310411D01*
X00372857Y00310440D01*
X00373042Y00310479D01*
X00373199Y00310518D01*
X00373267Y00310528D01*
X00373316Y00310547D01*
X00373364Y00310557D01*
X00373394Y00310567D01*
X00373413Y00310577D01*
X00373423D01*
X00373637Y00310665D01*
X00373833Y00310772D01*
X00373988Y00310889D01*
X00374125Y00310996D01*
X00374232Y00311103D01*
X00374310Y00311191D01*
X00374359Y00311250D01*
X00374379Y00311259D01*
Y00311269D01*
X00374496Y00311464D01*
X00374584Y00311669D01*
X00374652Y00311874D01*
X00374691Y00312069D01*
X00374720Y00312244D01*
X00374730Y00312313D01*
Y00312381D01*
X00374740Y00312430D01*
Y00312498D01*
X00374730Y00312732D01*
X00374691Y00312937D01*
X00374642Y00313122D01*
X00374584Y00313269D01*
X00374515Y00313396D01*
X00374467Y00313483D01*
X00374427Y00313542D01*
X00374418Y00313561D01*
X00374281Y00313717D01*
X00374125Y00313844D01*
X00373950Y00313961D01*
X00373784Y00314049D01*
X00373637Y00314117D01*
X00373569Y00314146D01*
X00373511Y00314176D01*
X00373462Y00314195D01*
X00373423Y00314205D01*
X00373403Y00314215D01*
X00373394D01*
X00373589Y00315054D01*
X00373901Y00314937D01*
X00374047Y00314868D01*
X00374174Y00314800D01*
X00374301Y00314722D01*
X00374418Y00314644D01*
X00374515Y00314576D01*
X00374613Y00314498D01*
X00374691Y00314429D01*
X00374759Y00314361D01*
X00374827Y00314293D01*
X00374876Y00314244D01*
X00374915Y00314195D01*
X00374944Y00314166D01*
X00374954Y00314146D01*
X00374964Y00314137D01*
X00375052Y00314010D01*
X00375130Y00313883D01*
X00375198Y00313747D01*
X00375257Y00313610D01*
X00375344Y00313337D01*
X00375403Y00313083D01*
X00375422Y00312966D01*
X00375432Y00312859D01*
X00375442Y00312761D01*
X00375452Y00312683D01*
X00375461Y00312615D01*
Y00312518D01*
X00375442Y00312206D01*
X00375403Y00311913D01*
X00375335Y00311650D01*
X00375305Y00311532D01*
X00375266Y00311425D01*
X00375227Y00311328D01*
X00375198Y00311230D01*
X00375159Y00311152D01*
X00375130Y00311094D01*
X00375110Y00311035D01*
X00375091Y00310996D01*
X00375071Y00310977D01*
Y00310967D01*
X00374915Y00310723D01*
X00374730Y00310499D01*
X00374544Y00310313D01*
X00374359Y00310167D01*
X00374193Y00310040D01*
X00374125Y00309991D01*
X00374067Y00309952D01*
X00374008Y00309923D01*
X00373969Y00309904D01*
X00373950Y00309884D01*
X00373940D01*
X00373657Y00309757D01*
X00373354Y00309660D01*
X00373062Y00309601D01*
X00372789Y00309552D01*
X00372662Y00309533D01*
X00372555Y00309523D01*
X00372448Y00309513D01*
X00372360D01*
X00372291Y00309504D01*
X00372243D01*
X00372204D01*
X00372194D01*
X00371852Y00309513D01*
X00371540Y00309552D01*
X00371248Y00309611D01*
X00371111Y00309640D01*
X00370994Y00309670D01*
X00370877Y00309699D01*
X00370780Y00309728D01*
X00370692Y00309757D01*
X00370614Y00309787D01*
X00370555Y00309806D01*
X00370516Y00309826D01*
X00370487Y00309835D01*
X00370477D01*
X00370194Y00309972D01*
X00369950Y00310138D01*
X00369736Y00310294D01*
X00369570Y00310460D01*
X00369434Y00310596D01*
X00369336Y00310713D01*
X00369307Y00310762D01*
X00369277Y00310791D01*
X00369268Y00310811D01*
X00369258Y00310821D01*
X00369180Y00310947D01*
X00369122Y00311084D01*
X00369014Y00311357D01*
X00368946Y00311640D01*
X00368887Y00311913D01*
X00368878Y00312030D01*
X00368858Y00312147D01*
X00368848Y00312244D01*
Y00312332D01*
X00368839Y00312410D01*
Y00312508D01*
X00368848Y00312693D01*
X00368858Y00312869D01*
X00368926Y00313191D01*
X00368965Y00313337D01*
X00369014Y00313483D01*
X00369063Y00313610D01*
X00369112Y00313727D01*
X00369160Y00313834D01*
X00369209Y00313922D01*
X00369258Y00314000D01*
X00369297Y00314069D01*
X00369336Y00314127D01*
X00369365Y00314166D01*
X00369375Y00314186D01*
X00369385Y00314195D01*
X00369492Y00314322D01*
X00369609Y00314439D01*
X00369863Y00314634D01*
X00370126Y00314810D01*
X00370390Y00314937D01*
X00370507Y00314995D01*
X00370614Y00315034D01*
X00370721Y00315073D01*
X00370799Y00315112D01*
X00370877Y00315132D01*
X00370926Y00315151D01*
X00370965Y00315161D01*
X00370975D01*
X00371189Y00314312D01*
D02*
G37*
G36*
X00387527Y00293588D02*
X00387693Y00293569D01*
X00387839Y00293540D01*
X00387985Y00293510D01*
X00388112Y00293461D01*
X00388239Y00293413D01*
X00388346Y00293364D01*
X00388454Y00293305D01*
X00388541Y00293247D01*
X00388619Y00293198D01*
X00388688Y00293149D01*
X00388746Y00293101D01*
X00388795Y00293071D01*
X00388824Y00293042D01*
X00388844Y00293022D01*
X00388853Y00293013D01*
X00388961Y00292906D01*
X00389049Y00292788D01*
X00389127Y00292671D01*
X00389195Y00292545D01*
X00389253Y00292428D01*
X00389292Y00292311D01*
X00389370Y00292086D01*
X00389390Y00291989D01*
X00389409Y00291891D01*
X00389419Y00291813D01*
X00389429Y00291735D01*
X00389439Y00291677D01*
Y00291598D01*
X00389419Y00291364D01*
X00389370Y00291140D01*
X00389312Y00290935D01*
X00389234Y00290760D01*
X00389156Y00290604D01*
X00389127Y00290545D01*
X00389097Y00290487D01*
X00389068Y00290448D01*
X00389049Y00290418D01*
X00389039Y00290399D01*
X00389029Y00290389D01*
X00390756Y00290740D01*
Y00293296D01*
X00391507D01*
Y00290116D01*
X00388219Y00289492D01*
X00388112Y00290233D01*
X00388210Y00290301D01*
X00388298Y00290379D01*
X00388376Y00290457D01*
X00388444Y00290526D01*
X00388493Y00290594D01*
X00388532Y00290652D01*
X00388551Y00290691D01*
X00388561Y00290701D01*
X00388619Y00290818D01*
X00388668Y00290935D01*
X00388698Y00291052D01*
X00388727Y00291160D01*
X00388736Y00291257D01*
X00388746Y00291325D01*
Y00291394D01*
X00388727Y00291608D01*
X00388688Y00291803D01*
X00388619Y00291979D01*
X00388551Y00292115D01*
X00388483Y00292232D01*
X00388415Y00292311D01*
X00388376Y00292359D01*
X00388356Y00292379D01*
X00388200Y00292506D01*
X00388024Y00292603D01*
X00387849Y00292671D01*
X00387683Y00292710D01*
X00387527Y00292740D01*
X00387459Y00292749D01*
X00387400D01*
X00387361Y00292759D01*
X00387322D01*
X00387303D01*
X00387293D01*
X00387039Y00292740D01*
X00386815Y00292701D01*
X00386620Y00292632D01*
X00386454Y00292564D01*
X00386327Y00292496D01*
X00386230Y00292428D01*
X00386171Y00292388D01*
X00386161Y00292369D01*
X00386152D01*
X00386074Y00292291D01*
X00386015Y00292213D01*
X00385908Y00292057D01*
X00385840Y00291891D01*
X00385781Y00291745D01*
X00385752Y00291608D01*
X00385742Y00291501D01*
X00385732Y00291462D01*
Y00291403D01*
X00385742Y00291238D01*
X00385781Y00291082D01*
X00385830Y00290945D01*
X00385879Y00290828D01*
X00385937Y00290730D01*
X00385976Y00290662D01*
X00386015Y00290623D01*
X00386025Y00290604D01*
X00386152Y00290487D01*
X00386298Y00290399D01*
X00386444Y00290321D01*
X00386591Y00290272D01*
X00386727Y00290233D01*
X00386834Y00290204D01*
X00386874Y00290194D01*
X00386903Y00290184D01*
X00386922D01*
X00386932D01*
X00386874Y00289355D01*
X00386727Y00289375D01*
X00386581Y00289404D01*
X00386327Y00289482D01*
X00386103Y00289589D01*
X00385918Y00289697D01*
X00385840Y00289755D01*
X00385771Y00289804D01*
X00385713Y00289853D01*
X00385664Y00289892D01*
X00385625Y00289931D01*
X00385596Y00289960D01*
X00385586Y00289970D01*
X00385576Y00289979D01*
X00385489Y00290087D01*
X00385420Y00290204D01*
X00385352Y00290321D01*
X00385294Y00290438D01*
X00385206Y00290672D01*
X00385147Y00290896D01*
X00385128Y00291003D01*
X00385118Y00291101D01*
X00385108Y00291189D01*
X00385098Y00291257D01*
X00385089Y00291316D01*
Y00291403D01*
X00385098Y00291598D01*
X00385118Y00291784D01*
X00385157Y00291950D01*
X00385206Y00292115D01*
X00385264Y00292262D01*
X00385332Y00292408D01*
X00385401Y00292535D01*
X00385479Y00292642D01*
X00385547Y00292749D01*
X00385615Y00292837D01*
X00385684Y00292915D01*
X00385742Y00292974D01*
X00385791Y00293022D01*
X00385830Y00293062D01*
X00385849Y00293081D01*
X00385859Y00293091D01*
X00385976Y00293179D01*
X00386103Y00293257D01*
X00386230Y00293325D01*
X00386366Y00293383D01*
X00386610Y00293471D01*
X00386844Y00293540D01*
X00386952Y00293559D01*
X00387049Y00293569D01*
X00387137Y00293578D01*
X00387215Y00293588D01*
X00387273Y00293598D01*
X00387322D01*
X00387351D01*
X00387361D01*
X00387527Y00293588D01*
D02*
G37*
G36*
X00391633Y00286829D02*
X00391477Y00286741D01*
X00391321Y00286634D01*
X00391175Y00286517D01*
X00391038Y00286400D01*
X00390931Y00286292D01*
X00390843Y00286205D01*
X00390785Y00286146D01*
X00390775Y00286136D01*
X00390765Y00286127D01*
X00390609Y00285941D01*
X00390463Y00285746D01*
X00390336Y00285551D01*
X00390229Y00285376D01*
X00390141Y00285220D01*
X00390112Y00285151D01*
X00390083Y00285093D01*
X00390053Y00285054D01*
X00390034Y00285015D01*
X00390024Y00284995D01*
Y00284986D01*
X00389253D01*
X00389312Y00285122D01*
X00389380Y00285268D01*
X00389439Y00285405D01*
X00389507Y00285532D01*
X00389566Y00285639D01*
X00389614Y00285727D01*
X00389653Y00285785D01*
X00389663Y00285795D01*
Y00285805D01*
X00389761Y00285971D01*
X00389868Y00286117D01*
X00389956Y00286244D01*
X00390043Y00286351D01*
X00390112Y00286439D01*
X00390160Y00286507D01*
X00390200Y00286546D01*
X00390209Y00286556D01*
X00385196D01*
Y00287346D01*
X00391633D01*
Y00286829D01*
D02*
G37*
G36*
X00387439Y00282810D02*
X00387156Y00282733D01*
X00386903Y00282635D01*
X00386698Y00282518D01*
X00386522Y00282411D01*
X00386396Y00282303D01*
X00386298Y00282215D01*
X00386240Y00282157D01*
X00386230Y00282147D01*
X00386220Y00282138D01*
X00386083Y00281942D01*
X00385986Y00281747D01*
X00385908Y00281542D01*
X00385859Y00281357D01*
X00385830Y00281191D01*
X00385820Y00281113D01*
Y00281055D01*
X00385810Y00281006D01*
Y00280938D01*
X00385820Y00280723D01*
X00385859Y00280518D01*
X00385908Y00280333D01*
X00385957Y00280177D01*
X00386015Y00280040D01*
X00386054Y00279933D01*
X00386074Y00279894D01*
X00386093Y00279865D01*
X00386103Y00279855D01*
Y00279845D01*
X00386230Y00279670D01*
X00386376Y00279524D01*
X00386522Y00279397D01*
X00386679Y00279289D01*
X00386805Y00279211D01*
X00386922Y00279163D01*
X00386961Y00279143D01*
X00386991Y00279124D01*
X00387010Y00279114D01*
X00387020D01*
X00387254Y00279036D01*
X00387498Y00278977D01*
X00387742Y00278938D01*
X00387966Y00278909D01*
X00388064Y00278899D01*
X00388151Y00278890D01*
X00388239D01*
X00388307Y00278880D01*
X00388366D01*
X00388405D01*
X00388434D01*
X00388444D01*
X00388678Y00278890D01*
X00388902Y00278909D01*
X00389107Y00278938D01*
X00389292Y00278977D01*
X00389449Y00279016D01*
X00389517Y00279026D01*
X00389566Y00279046D01*
X00389614Y00279055D01*
X00389644Y00279065D01*
X00389663Y00279075D01*
X00389673D01*
X00389887Y00279163D01*
X00390083Y00279270D01*
X00390238Y00279387D01*
X00390375Y00279494D01*
X00390482Y00279602D01*
X00390560Y00279689D01*
X00390609Y00279748D01*
X00390629Y00279758D01*
Y00279767D01*
X00390746Y00279963D01*
X00390834Y00280167D01*
X00390902Y00280372D01*
X00390941Y00280567D01*
X00390970Y00280743D01*
X00390980Y00280811D01*
Y00280879D01*
X00390990Y00280928D01*
Y00280996D01*
X00390980Y00281230D01*
X00390941Y00281435D01*
X00390892Y00281621D01*
X00390834Y00281767D01*
X00390765Y00281894D01*
X00390717Y00281982D01*
X00390677Y00282040D01*
X00390668Y00282059D01*
X00390531Y00282215D01*
X00390375Y00282342D01*
X00390200Y00282459D01*
X00390034Y00282547D01*
X00389887Y00282615D01*
X00389819Y00282645D01*
X00389761Y00282674D01*
X00389712Y00282694D01*
X00389673Y00282703D01*
X00389653Y00282713D01*
X00389644D01*
X00389839Y00283552D01*
X00390151Y00283435D01*
X00390297Y00283367D01*
X00390424Y00283298D01*
X00390551Y00283220D01*
X00390668Y00283142D01*
X00390765Y00283074D01*
X00390863Y00282996D01*
X00390941Y00282928D01*
X00391009Y00282859D01*
X00391077Y00282791D01*
X00391126Y00282742D01*
X00391165Y00282694D01*
X00391194Y00282664D01*
X00391204Y00282645D01*
X00391214Y00282635D01*
X00391302Y00282508D01*
X00391380Y00282381D01*
X00391448Y00282245D01*
X00391507Y00282108D01*
X00391594Y00281835D01*
X00391653Y00281582D01*
X00391672Y00281465D01*
X00391682Y00281357D01*
X00391692Y00281260D01*
X00391702Y00281182D01*
X00391711Y00281113D01*
Y00281016D01*
X00391692Y00280704D01*
X00391653Y00280411D01*
X00391585Y00280148D01*
X00391555Y00280031D01*
X00391516Y00279923D01*
X00391477Y00279826D01*
X00391448Y00279728D01*
X00391409Y00279650D01*
X00391380Y00279592D01*
X00391360Y00279533D01*
X00391341Y00279494D01*
X00391321Y00279475D01*
Y00279465D01*
X00391165Y00279221D01*
X00390980Y00278997D01*
X00390794Y00278811D01*
X00390609Y00278665D01*
X00390443Y00278538D01*
X00390375Y00278490D01*
X00390317Y00278451D01*
X00390258Y00278421D01*
X00390219Y00278402D01*
X00390200Y00278382D01*
X00390190D01*
X00389907Y00278256D01*
X00389605Y00278158D01*
X00389312Y00278099D01*
X00389039Y00278051D01*
X00388912Y00278031D01*
X00388805Y00278022D01*
X00388698Y00278012D01*
X00388610D01*
X00388541Y00278002D01*
X00388493D01*
X00388454D01*
X00388444D01*
X00388102Y00278012D01*
X00387790Y00278051D01*
X00387498Y00278109D01*
X00387361Y00278139D01*
X00387244Y00278168D01*
X00387127Y00278197D01*
X00387030Y00278226D01*
X00386942Y00278256D01*
X00386864Y00278285D01*
X00386805Y00278304D01*
X00386766Y00278324D01*
X00386737Y00278334D01*
X00386727D01*
X00386444Y00278470D01*
X00386200Y00278636D01*
X00385986Y00278792D01*
X00385820Y00278958D01*
X00385684Y00279094D01*
X00385586Y00279211D01*
X00385557Y00279260D01*
X00385527Y00279289D01*
X00385518Y00279309D01*
X00385508Y00279319D01*
X00385430Y00279445D01*
X00385372Y00279582D01*
X00385264Y00279855D01*
X00385196Y00280138D01*
X00385137Y00280411D01*
X00385128Y00280528D01*
X00385108Y00280645D01*
X00385098Y00280743D01*
Y00280830D01*
X00385089Y00280909D01*
Y00281006D01*
X00385098Y00281191D01*
X00385108Y00281367D01*
X00385176Y00281689D01*
X00385215Y00281835D01*
X00385264Y00281982D01*
X00385313Y00282108D01*
X00385362Y00282225D01*
X00385410Y00282333D01*
X00385459Y00282420D01*
X00385508Y00282498D01*
X00385547Y00282567D01*
X00385586Y00282625D01*
X00385615Y00282664D01*
X00385625Y00282684D01*
X00385635Y00282694D01*
X00385742Y00282820D01*
X00385859Y00282937D01*
X00386113Y00283132D01*
X00386376Y00283308D01*
X00386640Y00283435D01*
X00386757Y00283493D01*
X00386864Y00283532D01*
X00386971Y00283571D01*
X00387049Y00283610D01*
X00387127Y00283630D01*
X00387176Y00283649D01*
X00387215Y00283659D01*
X00387225D01*
X00387439Y00282810D01*
D02*
G37*
G36*
X00422994Y00363342D02*
X00423287Y00363303D01*
X00423550Y00363234D01*
X00423667Y00363205D01*
X00423775Y00363166D01*
X00423872Y00363127D01*
X00423970Y00363098D01*
X00424048Y00363059D01*
X00424106Y00363030D01*
X00424165Y00363010D01*
X00424204Y00362991D01*
X00424223Y00362971D01*
X00424233D01*
X00424477Y00362815D01*
X00424701Y00362630D01*
X00424887Y00362444D01*
X00425033Y00362259D01*
X00425160Y00362093D01*
X00425209Y00362025D01*
X00425247Y00361967D01*
X00425277Y00361908D01*
X00425296Y00361869D01*
X00425316Y00361850D01*
Y00361840D01*
X00425443Y00361557D01*
X00425540Y00361255D01*
X00425599Y00360962D01*
X00425647Y00360689D01*
X00425667Y00360562D01*
X00425677Y00360455D01*
X00425686Y00360348D01*
Y00360260D01*
X00425696Y00360191D01*
Y00360143D01*
Y00360104D01*
Y00360094D01*
X00425686Y00359753D01*
X00425647Y00359440D01*
X00425589Y00359148D01*
X00425560Y00359011D01*
X00425530Y00358894D01*
X00425501Y00358777D01*
X00425472Y00358680D01*
X00425443Y00358592D01*
X00425413Y00358514D01*
X00425394Y00358455D01*
X00425374Y00358416D01*
X00425365Y00358387D01*
Y00358377D01*
X00425228Y00358094D01*
X00425062Y00357850D01*
X00424906Y00357636D01*
X00424740Y00357470D01*
X00424604Y00357334D01*
X00424487Y00357236D01*
X00424438Y00357207D01*
X00424409Y00357178D01*
X00424389Y00357168D01*
X00424380Y00357158D01*
X00424253Y00357080D01*
X00424116Y00357021D01*
X00423843Y00356914D01*
X00423560Y00356846D01*
X00423287Y00356787D01*
X00423170Y00356778D01*
X00423053Y00356758D01*
X00422955Y00356748D01*
X00422868D01*
X00422790Y00356739D01*
X00422692D01*
X00422507Y00356748D01*
X00422331Y00356758D01*
X00422009Y00356826D01*
X00421863Y00356865D01*
X00421717Y00356914D01*
X00421590Y00356963D01*
X00421473Y00357012D01*
X00421366Y00357061D01*
X00421278Y00357109D01*
X00421200Y00357158D01*
X00421132Y00357197D01*
X00421073Y00357236D01*
X00421034Y00357265D01*
X00421015Y00357275D01*
X00421005Y00357285D01*
X00420878Y00357392D01*
X00420761Y00357509D01*
X00420566Y00357763D01*
X00420390Y00358026D01*
X00420263Y00358289D01*
X00420205Y00358406D01*
X00420166Y00358514D01*
X00420127Y00358621D01*
X00420088Y00358699D01*
X00420068Y00358777D01*
X00420049Y00358826D01*
X00420039Y00358865D01*
Y00358875D01*
X00420888Y00359089D01*
X00420966Y00358806D01*
X00421063Y00358553D01*
X00421180Y00358348D01*
X00421288Y00358172D01*
X00421395Y00358046D01*
X00421483Y00357948D01*
X00421541Y00357890D01*
X00421551Y00357880D01*
X00421561Y00357870D01*
X00421756Y00357733D01*
X00421951Y00357636D01*
X00422156Y00357558D01*
X00422341Y00357509D01*
X00422507Y00357480D01*
X00422585Y00357470D01*
X00422643D01*
X00422692Y00357460D01*
X00422760D01*
X00422975Y00357470D01*
X00423180Y00357509D01*
X00423365Y00357558D01*
X00423521Y00357607D01*
X00423658Y00357665D01*
X00423765Y00357704D01*
X00423804Y00357724D01*
X00423833Y00357743D01*
X00423843Y00357753D01*
X00423853D01*
X00424028Y00357880D01*
X00424175Y00358026D01*
X00424301Y00358172D01*
X00424409Y00358329D01*
X00424487Y00358455D01*
X00424535Y00358572D01*
X00424555Y00358611D01*
X00424575Y00358641D01*
X00424584Y00358660D01*
Y00358670D01*
X00424662Y00358904D01*
X00424721Y00359148D01*
X00424760Y00359392D01*
X00424789Y00359616D01*
X00424799Y00359714D01*
X00424809Y00359801D01*
Y00359889D01*
X00424818Y00359957D01*
Y00360016D01*
Y00360055D01*
Y00360084D01*
Y00360094D01*
X00424809Y00360328D01*
X00424789Y00360552D01*
X00424760Y00360757D01*
X00424721Y00360942D01*
X00424682Y00361099D01*
X00424672Y00361167D01*
X00424653Y00361216D01*
X00424643Y00361264D01*
X00424633Y00361294D01*
X00424623Y00361313D01*
Y00361323D01*
X00424535Y00361537D01*
X00424428Y00361732D01*
X00424311Y00361889D01*
X00424204Y00362025D01*
X00424097Y00362132D01*
X00424009Y00362210D01*
X00423950Y00362259D01*
X00423941Y00362279D01*
X00423931D01*
X00423736Y00362396D01*
X00423531Y00362483D01*
X00423326Y00362552D01*
X00423131Y00362591D01*
X00422955Y00362620D01*
X00422887Y00362630D01*
X00422819D01*
X00422770Y00362640D01*
X00422702D01*
X00422468Y00362630D01*
X00422263Y00362591D01*
X00422078Y00362542D01*
X00421931Y00362483D01*
X00421805Y00362415D01*
X00421717Y00362366D01*
X00421658Y00362327D01*
X00421639Y00362318D01*
X00421483Y00362181D01*
X00421356Y00362025D01*
X00421239Y00361850D01*
X00421151Y00361684D01*
X00421083Y00361537D01*
X00421054Y00361469D01*
X00421024Y00361411D01*
X00421005Y00361362D01*
X00420995Y00361323D01*
X00420985Y00361303D01*
Y00361294D01*
X00420146Y00361489D01*
X00420263Y00361801D01*
X00420332Y00361947D01*
X00420400Y00362074D01*
X00420478Y00362201D01*
X00420556Y00362318D01*
X00420624Y00362415D01*
X00420702Y00362513D01*
X00420771Y00362591D01*
X00420839Y00362659D01*
X00420907Y00362727D01*
X00420956Y00362776D01*
X00421005Y00362815D01*
X00421034Y00362844D01*
X00421054Y00362854D01*
X00421063Y00362864D01*
X00421190Y00362952D01*
X00421317Y00363030D01*
X00421453Y00363098D01*
X00421590Y00363157D01*
X00421863Y00363244D01*
X00422117Y00363303D01*
X00422234Y00363322D01*
X00422341Y00363332D01*
X00422439Y00363342D01*
X00422517Y00363352D01*
X00422585Y00363361D01*
X00422682D01*
X00422994Y00363342D01*
D02*
G37*
G36*
X00417396Y00363274D02*
X00417532Y00363264D01*
X00417796Y00363205D01*
X00418030Y00363137D01*
X00418215Y00363049D01*
X00418303Y00363000D01*
X00418371Y00362961D01*
X00418430Y00362913D01*
X00418488Y00362883D01*
X00418527Y00362854D01*
X00418557Y00362825D01*
X00418566Y00362815D01*
X00418576Y00362805D01*
X00418664Y00362718D01*
X00418742Y00362620D01*
X00418810Y00362523D01*
X00418859Y00362415D01*
X00418956Y00362220D01*
X00419015Y00362035D01*
X00419044Y00361869D01*
X00419054Y00361801D01*
X00419064Y00361742D01*
X00419073Y00361693D01*
Y00361654D01*
Y00361635D01*
Y00361625D01*
X00419064Y00361459D01*
X00419035Y00361313D01*
X00418996Y00361176D01*
X00418956Y00361059D01*
X00418918Y00360962D01*
X00418878Y00360894D01*
X00418849Y00360855D01*
X00418839Y00360835D01*
X00418742Y00360718D01*
X00418625Y00360621D01*
X00418508Y00360533D01*
X00418381Y00360455D01*
X00418274Y00360406D01*
X00418186Y00360357D01*
X00418127Y00360338D01*
X00418118Y00360328D01*
X00418108D01*
X00418313Y00360260D01*
X00418498Y00360172D01*
X00418654Y00360074D01*
X00418781Y00359977D01*
X00418878Y00359889D01*
X00418956Y00359811D01*
X00418996Y00359762D01*
X00419015Y00359753D01*
Y00359743D01*
X00419122Y00359577D01*
X00419191Y00359401D01*
X00419249Y00359226D01*
X00419288Y00359060D01*
X00419308Y00358923D01*
X00419317Y00358855D01*
Y00358806D01*
X00419327Y00358758D01*
Y00358728D01*
Y00358709D01*
Y00358699D01*
X00419317Y00358543D01*
X00419298Y00358397D01*
X00419278Y00358260D01*
X00419239Y00358124D01*
X00419142Y00357890D01*
X00419093Y00357782D01*
X00419035Y00357685D01*
X00418986Y00357597D01*
X00418937Y00357519D01*
X00418888Y00357451D01*
X00418839Y00357392D01*
X00418800Y00357353D01*
X00418781Y00357324D01*
X00418761Y00357304D01*
X00418752Y00357295D01*
X00418635Y00357197D01*
X00418518Y00357109D01*
X00418391Y00357041D01*
X00418264Y00356973D01*
X00418137Y00356924D01*
X00418010Y00356875D01*
X00417766Y00356807D01*
X00417649Y00356787D01*
X00417552Y00356768D01*
X00417454Y00356758D01*
X00417376Y00356748D01*
X00417308Y00356739D01*
X00417220D01*
X00417045Y00356748D01*
X00416879Y00356758D01*
X00416723Y00356787D01*
X00416586Y00356826D01*
X00416450Y00356865D01*
X00416323Y00356914D01*
X00416206Y00356963D01*
X00416099Y00357021D01*
X00416001Y00357070D01*
X00415923Y00357119D01*
X00415855Y00357168D01*
X00415796Y00357207D01*
X00415747Y00357246D01*
X00415718Y00357275D01*
X00415699Y00357285D01*
X00415689Y00357295D01*
X00415582Y00357402D01*
X00415494Y00357509D01*
X00415416Y00357626D01*
X00415348Y00357743D01*
X00415289Y00357860D01*
X00415250Y00357977D01*
X00415172Y00358192D01*
X00415133Y00358387D01*
X00415123Y00358475D01*
X00415113Y00358543D01*
X00415104Y00358602D01*
Y00358641D01*
Y00358670D01*
Y00358680D01*
X00415113Y00358894D01*
X00415153Y00359089D01*
X00415201Y00359265D01*
X00415260Y00359411D01*
X00415318Y00359538D01*
X00415367Y00359626D01*
X00415406Y00359684D01*
X00415416Y00359704D01*
X00415543Y00359850D01*
X00415689Y00359987D01*
X00415835Y00360094D01*
X00415982Y00360182D01*
X00416108Y00360240D01*
X00416216Y00360289D01*
X00416255Y00360308D01*
X00416284Y00360318D01*
X00416303Y00360328D01*
X00416313D01*
X00416147Y00360396D01*
X00416001Y00360484D01*
X00415874Y00360562D01*
X00415777Y00360640D01*
X00415699Y00360718D01*
X00415640Y00360777D01*
X00415611Y00360816D01*
X00415601Y00360825D01*
X00415523Y00360952D01*
X00415465Y00361089D01*
X00415426Y00361216D01*
X00415396Y00361342D01*
X00415377Y00361450D01*
X00415367Y00361528D01*
Y00361586D01*
Y00361606D01*
X00415377Y00361732D01*
X00415387Y00361859D01*
X00415445Y00362084D01*
X00415533Y00362288D01*
X00415621Y00362464D01*
X00415718Y00362601D01*
X00415767Y00362659D01*
X00415806Y00362708D01*
X00415835Y00362747D01*
X00415865Y00362776D01*
X00415874Y00362786D01*
X00415884Y00362796D01*
X00415982Y00362883D01*
X00416089Y00362961D01*
X00416196Y00363020D01*
X00416313Y00363078D01*
X00416538Y00363166D01*
X00416752Y00363225D01*
X00416947Y00363254D01*
X00417025Y00363274D01*
X00417103D01*
X00417162Y00363283D01*
X00417240D01*
X00417396Y00363274D01*
D02*
G37*
G36*
X00393684Y00380877D02*
X00393792Y00380721D01*
X00393909Y00380575D01*
X00394026Y00380438D01*
X00394133Y00380331D01*
X00394221Y00380243D01*
X00394279Y00380185D01*
X00394289Y00380175D01*
X00394299Y00380165D01*
X00394484Y00380009D01*
X00394679Y00379863D01*
X00394874Y00379736D01*
X00395050Y00379629D01*
X00395206Y00379541D01*
X00395274Y00379512D01*
X00395333Y00379482D01*
X00395372Y00379453D01*
X00395411Y00379434D01*
X00395430Y00379424D01*
X00395440D01*
Y00378653D01*
X00395303Y00378712D01*
X00395157Y00378780D01*
X00395021Y00378839D01*
X00394894Y00378907D01*
X00394786Y00378965D01*
X00394699Y00379014D01*
X00394640Y00379053D01*
X00394631Y00379063D01*
X00394621D01*
X00394455Y00379161D01*
X00394309Y00379268D01*
X00394182Y00379356D01*
X00394075Y00379444D01*
X00393987Y00379512D01*
X00393918Y00379561D01*
X00393880Y00379599D01*
X00393870Y00379609D01*
Y00374596D01*
X00393080D01*
Y00381033D01*
X00393597D01*
X00393684Y00380877D01*
D02*
G37*
G36*
X00399722Y00381092D02*
X00400014Y00381053D01*
X00400278Y00380984D01*
X00400395Y00380955D01*
X00400502Y00380916D01*
X00400600Y00380877D01*
X00400697Y00380848D01*
X00400775Y00380809D01*
X00400834Y00380780D01*
X00400892Y00380760D01*
X00400931Y00380741D01*
X00400951Y00380721D01*
X00400961D01*
X00401204Y00380565D01*
X00401429Y00380380D01*
X00401614Y00380195D01*
X00401760Y00380009D01*
X00401887Y00379843D01*
X00401936Y00379775D01*
X00401975Y00379717D01*
X00402004Y00379658D01*
X00402024Y00379619D01*
X00402043Y00379599D01*
Y00379590D01*
X00402170Y00379307D01*
X00402267Y00379005D01*
X00402326Y00378712D01*
X00402375Y00378439D01*
X00402394Y00378312D01*
X00402404Y00378205D01*
X00402414Y00378097D01*
Y00378010D01*
X00402424Y00377941D01*
Y00377893D01*
Y00377854D01*
Y00377844D01*
X00402414Y00377503D01*
X00402375Y00377190D01*
X00402316Y00376898D01*
X00402287Y00376761D01*
X00402258Y00376644D01*
X00402229Y00376527D01*
X00402199Y00376430D01*
X00402170Y00376342D01*
X00402141Y00376264D01*
X00402121Y00376205D01*
X00402102Y00376166D01*
X00402092Y00376137D01*
Y00376127D01*
X00401955Y00375844D01*
X00401790Y00375601D01*
X00401634Y00375386D01*
X00401468Y00375220D01*
X00401331Y00375084D01*
X00401214Y00374986D01*
X00401165Y00374957D01*
X00401136Y00374927D01*
X00401117Y00374918D01*
X00401107Y00374908D01*
X00400980Y00374830D01*
X00400844Y00374771D01*
X00400570Y00374664D01*
X00400288Y00374596D01*
X00400014Y00374537D01*
X00399897Y00374528D01*
X00399780Y00374508D01*
X00399683Y00374498D01*
X00399595D01*
X00399517Y00374489D01*
X00399420D01*
X00399234Y00374498D01*
X00399059Y00374508D01*
X00398737Y00374576D01*
X00398590Y00374615D01*
X00398444Y00374664D01*
X00398317Y00374713D01*
X00398200Y00374762D01*
X00398093Y00374810D01*
X00398005Y00374859D01*
X00397927Y00374908D01*
X00397859Y00374947D01*
X00397800Y00374986D01*
X00397761Y00375015D01*
X00397742Y00375025D01*
X00397732Y00375035D01*
X00397605Y00375142D01*
X00397488Y00375259D01*
X00397293Y00375513D01*
X00397118Y00375776D01*
X00396991Y00376040D01*
X00396932Y00376157D01*
X00396893Y00376264D01*
X00396854Y00376371D01*
X00396815Y00376449D01*
X00396796Y00376527D01*
X00396776Y00376576D01*
X00396767Y00376615D01*
Y00376625D01*
X00397615Y00376839D01*
X00397693Y00376556D01*
X00397791Y00376303D01*
X00397908Y00376098D01*
X00398015Y00375922D01*
X00398122Y00375796D01*
X00398210Y00375698D01*
X00398269Y00375640D01*
X00398278Y00375630D01*
X00398288Y00375620D01*
X00398483Y00375484D01*
X00398678Y00375386D01*
X00398883Y00375308D01*
X00399068Y00375259D01*
X00399234Y00375230D01*
X00399312Y00375220D01*
X00399371D01*
X00399420Y00375210D01*
X00399488D01*
X00399702Y00375220D01*
X00399907Y00375259D01*
X00400093Y00375308D01*
X00400249Y00375357D01*
X00400385Y00375415D01*
X00400492Y00375454D01*
X00400531Y00375474D01*
X00400561Y00375493D01*
X00400570Y00375503D01*
X00400580D01*
X00400756Y00375630D01*
X00400902Y00375776D01*
X00401029Y00375922D01*
X00401136Y00376078D01*
X00401214Y00376205D01*
X00401263Y00376322D01*
X00401282Y00376361D01*
X00401302Y00376391D01*
X00401312Y00376410D01*
Y00376420D01*
X00401390Y00376654D01*
X00401448Y00376898D01*
X00401487Y00377142D01*
X00401516Y00377366D01*
X00401526Y00377463D01*
X00401536Y00377551D01*
Y00377639D01*
X00401546Y00377707D01*
Y00377766D01*
Y00377805D01*
Y00377834D01*
Y00377844D01*
X00401536Y00378078D01*
X00401516Y00378302D01*
X00401487Y00378507D01*
X00401448Y00378692D01*
X00401409Y00378848D01*
X00401399Y00378917D01*
X00401380Y00378965D01*
X00401370Y00379014D01*
X00401361Y00379044D01*
X00401351Y00379063D01*
Y00379073D01*
X00401263Y00379287D01*
X00401156Y00379482D01*
X00401039Y00379638D01*
X00400931Y00379775D01*
X00400824Y00379882D01*
X00400736Y00379960D01*
X00400678Y00380009D01*
X00400668Y00380029D01*
X00400658D01*
X00400463Y00380146D01*
X00400258Y00380233D01*
X00400053Y00380302D01*
X00399858Y00380341D01*
X00399683Y00380370D01*
X00399615Y00380380D01*
X00399546D01*
X00399497Y00380390D01*
X00399429D01*
X00399195Y00380380D01*
X00398990Y00380341D01*
X00398805Y00380292D01*
X00398659Y00380233D01*
X00398532Y00380165D01*
X00398444Y00380117D01*
X00398386Y00380077D01*
X00398366Y00380068D01*
X00398210Y00379931D01*
X00398083Y00379775D01*
X00397966Y00379599D01*
X00397878Y00379434D01*
X00397810Y00379287D01*
X00397781Y00379219D01*
X00397752Y00379161D01*
X00397732Y00379112D01*
X00397722Y00379073D01*
X00397713Y00379053D01*
Y00379044D01*
X00396874Y00379239D01*
X00396991Y00379551D01*
X00397059Y00379697D01*
X00397127Y00379824D01*
X00397205Y00379951D01*
X00397284Y00380068D01*
X00397352Y00380165D01*
X00397430Y00380263D01*
X00397498Y00380341D01*
X00397566Y00380409D01*
X00397635Y00380477D01*
X00397683Y00380526D01*
X00397732Y00380565D01*
X00397761Y00380594D01*
X00397781Y00380604D01*
X00397791Y00380614D01*
X00397917Y00380702D01*
X00398044Y00380780D01*
X00398181Y00380848D01*
X00398317Y00380906D01*
X00398590Y00380994D01*
X00398844Y00381053D01*
X00398961Y00381072D01*
X00399068Y00381082D01*
X00399166Y00381092D01*
X00399244Y00381102D01*
X00399312Y00381111D01*
X00399410D01*
X00399722Y00381092D01*
D02*
G37*
G36*
X00391022Y00380175D02*
X00387881D01*
X00388105Y00379902D01*
X00388310Y00379619D01*
X00388505Y00379336D01*
X00388681Y00379073D01*
X00388749Y00378946D01*
X00388817Y00378839D01*
X00388876Y00378741D01*
X00388925Y00378653D01*
X00388964Y00378585D01*
X00388993Y00378536D01*
X00389012Y00378497D01*
X00389022Y00378488D01*
X00389207Y00378117D01*
X00389373Y00377746D01*
X00389510Y00377395D01*
X00389568Y00377229D01*
X00389627Y00377083D01*
X00389676Y00376937D01*
X00389715Y00376810D01*
X00389754Y00376703D01*
X00389783Y00376605D01*
X00389802Y00376527D01*
X00389822Y00376469D01*
X00389832Y00376430D01*
Y00376420D01*
X00389929Y00376030D01*
X00389968Y00375854D01*
X00389997Y00375679D01*
X00390027Y00375522D01*
X00390046Y00375376D01*
X00390066Y00375230D01*
X00390085Y00375103D01*
X00390095Y00374996D01*
X00390105Y00374888D01*
X00390115Y00374801D01*
Y00374733D01*
X00390124Y00374674D01*
Y00374635D01*
Y00374606D01*
Y00374596D01*
X00389315D01*
X00389286Y00374947D01*
X00389246Y00375279D01*
X00389198Y00375571D01*
X00389169Y00375708D01*
X00389149Y00375835D01*
X00389120Y00375942D01*
X00389100Y00376049D01*
X00389081Y00376137D01*
X00389061Y00376215D01*
X00389042Y00376273D01*
X00389032Y00376313D01*
X00389022Y00376342D01*
Y00376352D01*
X00388886Y00376781D01*
X00388739Y00377181D01*
X00388661Y00377376D01*
X00388583Y00377561D01*
X00388505Y00377737D01*
X00388437Y00377893D01*
X00388369Y00378039D01*
X00388300Y00378176D01*
X00388242Y00378293D01*
X00388193Y00378390D01*
X00388154Y00378468D01*
X00388125Y00378527D01*
X00388105Y00378566D01*
X00388096Y00378575D01*
X00387979Y00378770D01*
X00387871Y00378965D01*
X00387754Y00379141D01*
X00387647Y00379307D01*
X00387549Y00379463D01*
X00387442Y00379599D01*
X00387345Y00379736D01*
X00387257Y00379853D01*
X00387179Y00379951D01*
X00387101Y00380048D01*
X00387032Y00380126D01*
X00386984Y00380195D01*
X00386935Y00380243D01*
X00386906Y00380282D01*
X00386886Y00380302D01*
X00386876Y00380312D01*
Y00380926D01*
X00391022D01*
Y00380175D01*
D02*
G37*
G36*
X00396813Y00293564D02*
X00397017Y00293525D01*
X00397193Y00293476D01*
X00397339Y00293417D01*
X00397456Y00293349D01*
X00397544Y00293300D01*
X00397603Y00293262D01*
X00397622Y00293252D01*
X00397768Y00293125D01*
X00397885Y00292979D01*
X00397983Y00292832D01*
X00398051Y00292696D01*
X00398110Y00292569D01*
X00398139Y00292471D01*
X00398158Y00292432D01*
Y00292403D01*
X00398168Y00292384D01*
Y00292374D01*
X00398246Y00292530D01*
X00398344Y00292666D01*
X00398432Y00292774D01*
X00398519Y00292871D01*
X00398597Y00292940D01*
X00398656Y00292998D01*
X00398695Y00293027D01*
X00398714Y00293037D01*
X00398841Y00293115D01*
X00398978Y00293164D01*
X00399105Y00293203D01*
X00399222Y00293232D01*
X00399319Y00293252D01*
X00399397Y00293262D01*
X00399446D01*
X00399465D01*
X00399631Y00293252D01*
X00399778Y00293223D01*
X00399914Y00293183D01*
X00400041Y00293144D01*
X00400138Y00293105D01*
X00400216Y00293066D01*
X00400265Y00293037D01*
X00400285Y00293027D01*
X00400421Y00292930D01*
X00400548Y00292823D01*
X00400655Y00292705D01*
X00400743Y00292598D01*
X00400811Y00292501D01*
X00400860Y00292423D01*
X00400890Y00292364D01*
X00400899Y00292354D01*
Y00292345D01*
X00400977Y00292179D01*
X00401036Y00292013D01*
X00401075Y00291847D01*
X00401104Y00291701D01*
X00401124Y00291574D01*
X00401133Y00291477D01*
Y00291252D01*
X00401114Y00291116D01*
X00401065Y00290872D01*
X00400997Y00290648D01*
X00400919Y00290462D01*
X00400831Y00290316D01*
X00400792Y00290257D01*
X00400763Y00290209D01*
X00400733Y00290160D01*
X00400714Y00290131D01*
X00400704Y00290121D01*
X00400694Y00290111D01*
X00400519Y00289935D01*
X00400324Y00289799D01*
X00400119Y00289682D01*
X00399924Y00289604D01*
X00399748Y00289536D01*
X00399670Y00289516D01*
X00399602Y00289497D01*
X00399553Y00289487D01*
X00399514Y00289477D01*
X00399485Y00289467D01*
X00399475D01*
X00399339Y00290257D01*
X00399543Y00290296D01*
X00399719Y00290355D01*
X00399865Y00290413D01*
X00399982Y00290482D01*
X00400080Y00290540D01*
X00400148Y00290589D01*
X00400187Y00290628D01*
X00400197Y00290638D01*
X00400294Y00290765D01*
X00400363Y00290891D01*
X00400421Y00291018D01*
X00400451Y00291145D01*
X00400470Y00291243D01*
X00400490Y00291330D01*
Y00291408D01*
X00400480Y00291574D01*
X00400441Y00291720D01*
X00400402Y00291847D01*
X00400343Y00291954D01*
X00400294Y00292042D01*
X00400246Y00292111D01*
X00400207Y00292150D01*
X00400197Y00292159D01*
X00400090Y00292257D01*
X00399963Y00292325D01*
X00399846Y00292384D01*
X00399739Y00292413D01*
X00399631Y00292432D01*
X00399553Y00292452D01*
X00399505D01*
X00399495D01*
X00399485D01*
X00399290Y00292432D01*
X00399124Y00292384D01*
X00398988Y00292325D01*
X00398880Y00292247D01*
X00398792Y00292169D01*
X00398724Y00292111D01*
X00398685Y00292062D01*
X00398675Y00292042D01*
X00398588Y00291886D01*
X00398529Y00291730D01*
X00398480Y00291584D01*
X00398451Y00291447D01*
X00398432Y00291320D01*
X00398422Y00291233D01*
Y00291106D01*
X00398432Y00291067D01*
Y00291018D01*
X00397739Y00290930D01*
X00397768Y00291047D01*
X00397788Y00291155D01*
X00397798Y00291252D01*
X00397807Y00291330D01*
X00397817Y00291399D01*
Y00291486D01*
X00397798Y00291681D01*
X00397759Y00291847D01*
X00397710Y00292003D01*
X00397641Y00292130D01*
X00397573Y00292237D01*
X00397524Y00292315D01*
X00397486Y00292354D01*
X00397466Y00292374D01*
X00397329Y00292491D01*
X00397183Y00292579D01*
X00397027Y00292647D01*
X00396890Y00292686D01*
X00396764Y00292715D01*
X00396666Y00292725D01*
X00396627Y00292735D01*
X00396598D01*
X00396588D01*
X00396578D01*
X00396374Y00292715D01*
X00396188Y00292676D01*
X00396022Y00292618D01*
X00395886Y00292549D01*
X00395769Y00292471D01*
X00395691Y00292413D01*
X00395642Y00292374D01*
X00395622Y00292354D01*
X00395496Y00292208D01*
X00395398Y00292052D01*
X00395340Y00291896D01*
X00395291Y00291740D01*
X00395262Y00291613D01*
X00395252Y00291516D01*
X00395242Y00291477D01*
Y00291418D01*
X00395252Y00291252D01*
X00395291Y00291096D01*
X00395340Y00290960D01*
X00395388Y00290852D01*
X00395447Y00290755D01*
X00395486Y00290686D01*
X00395525Y00290648D01*
X00395535Y00290628D01*
X00395662Y00290521D01*
X00395808Y00290423D01*
X00395974Y00290345D01*
X00396130Y00290287D01*
X00396276Y00290238D01*
X00396393Y00290209D01*
X00396432Y00290189D01*
X00396471D01*
X00396491Y00290179D01*
X00396500D01*
X00396393Y00289389D01*
X00396247Y00289409D01*
X00396110Y00289438D01*
X00395857Y00289526D01*
X00395632Y00289623D01*
X00395437Y00289740D01*
X00395359Y00289789D01*
X00395291Y00289848D01*
X00395232Y00289897D01*
X00395174Y00289935D01*
X00395135Y00289974D01*
X00395106Y00290004D01*
X00395096Y00290014D01*
X00395086Y00290023D01*
X00394998Y00290131D01*
X00394920Y00290248D01*
X00394852Y00290355D01*
X00394803Y00290472D01*
X00394706Y00290706D01*
X00394647Y00290930D01*
X00394628Y00291028D01*
X00394618Y00291126D01*
X00394608Y00291203D01*
X00394598Y00291282D01*
X00394589Y00291340D01*
Y00291418D01*
X00394598Y00291584D01*
X00394618Y00291750D01*
X00394637Y00291906D01*
X00394676Y00292052D01*
X00394725Y00292189D01*
X00394774Y00292315D01*
X00394823Y00292432D01*
X00394881Y00292540D01*
X00394930Y00292628D01*
X00394979Y00292715D01*
X00395028Y00292793D01*
X00395076Y00292852D01*
X00395115Y00292901D01*
X00395135Y00292930D01*
X00395154Y00292949D01*
X00395164Y00292959D01*
X00395281Y00293066D01*
X00395398Y00293164D01*
X00395515Y00293242D01*
X00395632Y00293310D01*
X00395749Y00293379D01*
X00395876Y00293427D01*
X00396101Y00293496D01*
X00396198Y00293525D01*
X00396296Y00293544D01*
X00396374Y00293554D01*
X00396452Y00293564D01*
X00396510Y00293574D01*
X00396549D01*
X00396578D01*
X00396588D01*
X00396813Y00293564D01*
D02*
G37*
G36*
X00401133Y00286853D02*
X00400977Y00286766D01*
X00400821Y00286658D01*
X00400675Y00286541D01*
X00400538Y00286424D01*
X00400431Y00286317D01*
X00400343Y00286229D01*
X00400285Y00286171D01*
X00400275Y00286161D01*
X00400265Y00286151D01*
X00400109Y00285966D01*
X00399963Y00285771D01*
X00399836Y00285576D01*
X00399729Y00285400D01*
X00399641Y00285244D01*
X00399612Y00285176D01*
X00399582Y00285117D01*
X00399553Y00285078D01*
X00399534Y00285039D01*
X00399524Y00285020D01*
Y00285010D01*
X00398753D01*
X00398812Y00285147D01*
X00398880Y00285293D01*
X00398939Y00285429D01*
X00399007Y00285556D01*
X00399066Y00285663D01*
X00399114Y00285751D01*
X00399153Y00285810D01*
X00399163Y00285819D01*
Y00285829D01*
X00399261Y00285995D01*
X00399368Y00286141D01*
X00399456Y00286268D01*
X00399543Y00286375D01*
X00399612Y00286463D01*
X00399660Y00286532D01*
X00399700Y00286570D01*
X00399709Y00286580D01*
X00394696D01*
Y00287370D01*
X00401133D01*
Y00286853D01*
D02*
G37*
G36*
X00396939Y00282835D02*
X00396656Y00282757D01*
X00396403Y00282659D01*
X00396198Y00282542D01*
X00396022Y00282435D01*
X00395896Y00282328D01*
X00395798Y00282240D01*
X00395740Y00282181D01*
X00395730Y00282172D01*
X00395720Y00282162D01*
X00395583Y00281967D01*
X00395486Y00281772D01*
X00395408Y00281567D01*
X00395359Y00281382D01*
X00395330Y00281216D01*
X00395320Y00281138D01*
Y00281079D01*
X00395310Y00281031D01*
Y00280962D01*
X00395320Y00280748D01*
X00395359Y00280543D01*
X00395408Y00280357D01*
X00395457Y00280201D01*
X00395515Y00280065D01*
X00395554Y00279958D01*
X00395574Y00279919D01*
X00395593Y00279889D01*
X00395603Y00279880D01*
Y00279870D01*
X00395730Y00279694D01*
X00395876Y00279548D01*
X00396022Y00279421D01*
X00396179Y00279314D01*
X00396305Y00279236D01*
X00396422Y00279187D01*
X00396461Y00279167D01*
X00396491Y00279148D01*
X00396510Y00279138D01*
X00396520D01*
X00396754Y00279060D01*
X00396998Y00279002D01*
X00397242Y00278963D01*
X00397466Y00278934D01*
X00397564Y00278924D01*
X00397651Y00278914D01*
X00397739D01*
X00397807Y00278904D01*
X00397866D01*
X00397905D01*
X00397934D01*
X00397944D01*
X00398178Y00278914D01*
X00398402Y00278934D01*
X00398607Y00278963D01*
X00398792Y00279002D01*
X00398949Y00279041D01*
X00399017Y00279051D01*
X00399066Y00279070D01*
X00399114Y00279080D01*
X00399144Y00279090D01*
X00399163Y00279099D01*
X00399173D01*
X00399387Y00279187D01*
X00399582Y00279294D01*
X00399739Y00279411D01*
X00399875Y00279519D01*
X00399982Y00279626D01*
X00400060Y00279714D01*
X00400109Y00279772D01*
X00400129Y00279782D01*
Y00279792D01*
X00400246Y00279987D01*
X00400334Y00280192D01*
X00400402Y00280396D01*
X00400441Y00280592D01*
X00400470Y00280767D01*
X00400480Y00280835D01*
Y00280904D01*
X00400490Y00280952D01*
Y00281021D01*
X00400480Y00281255D01*
X00400441Y00281460D01*
X00400392Y00281645D01*
X00400334Y00281791D01*
X00400265Y00281918D01*
X00400216Y00282006D01*
X00400177Y00282064D01*
X00400168Y00282084D01*
X00400031Y00282240D01*
X00399875Y00282367D01*
X00399700Y00282484D01*
X00399534Y00282572D01*
X00399387Y00282640D01*
X00399319Y00282669D01*
X00399261Y00282698D01*
X00399212Y00282718D01*
X00399173Y00282728D01*
X00399153Y00282737D01*
X00399144D01*
X00399339Y00283576D01*
X00399651Y00283459D01*
X00399797Y00283391D01*
X00399924Y00283323D01*
X00400051Y00283244D01*
X00400168Y00283167D01*
X00400265Y00283098D01*
X00400363Y00283020D01*
X00400441Y00282952D01*
X00400509Y00282884D01*
X00400577Y00282815D01*
X00400626Y00282767D01*
X00400665Y00282718D01*
X00400694Y00282689D01*
X00400704Y00282669D01*
X00400714Y00282659D01*
X00400802Y00282533D01*
X00400880Y00282406D01*
X00400948Y00282269D01*
X00401007Y00282133D01*
X00401094Y00281859D01*
X00401153Y00281606D01*
X00401172Y00281489D01*
X00401182Y00281382D01*
X00401192Y00281284D01*
X00401202Y00281206D01*
X00401211Y00281138D01*
Y00281040D01*
X00401192Y00280728D01*
X00401153Y00280436D01*
X00401085Y00280172D01*
X00401055Y00280055D01*
X00401016Y00279948D01*
X00400977Y00279850D01*
X00400948Y00279753D01*
X00400909Y00279675D01*
X00400880Y00279616D01*
X00400860Y00279558D01*
X00400841Y00279519D01*
X00400821Y00279499D01*
Y00279489D01*
X00400665Y00279246D01*
X00400480Y00279021D01*
X00400294Y00278836D01*
X00400109Y00278690D01*
X00399943Y00278563D01*
X00399875Y00278514D01*
X00399817Y00278475D01*
X00399758Y00278446D01*
X00399719Y00278426D01*
X00399700Y00278407D01*
X00399690D01*
X00399407Y00278280D01*
X00399105Y00278182D01*
X00398812Y00278124D01*
X00398539Y00278075D01*
X00398412Y00278056D01*
X00398305Y00278046D01*
X00398198Y00278036D01*
X00398110D01*
X00398041Y00278026D01*
X00397993D01*
X00397954D01*
X00397944D01*
X00397603Y00278036D01*
X00397290Y00278075D01*
X00396998Y00278134D01*
X00396861Y00278163D01*
X00396744Y00278192D01*
X00396627Y00278221D01*
X00396530Y00278251D01*
X00396442Y00278280D01*
X00396364Y00278309D01*
X00396305Y00278329D01*
X00396266Y00278348D01*
X00396237Y00278358D01*
X00396227D01*
X00395944Y00278494D01*
X00395701Y00278660D01*
X00395486Y00278816D01*
X00395320Y00278982D01*
X00395184Y00279119D01*
X00395086Y00279236D01*
X00395057Y00279285D01*
X00395028Y00279314D01*
X00395018Y00279333D01*
X00395008Y00279343D01*
X00394930Y00279470D01*
X00394871Y00279606D01*
X00394764Y00279880D01*
X00394696Y00280162D01*
X00394637Y00280436D01*
X00394628Y00280553D01*
X00394608Y00280670D01*
X00394598Y00280767D01*
Y00280855D01*
X00394589Y00280933D01*
Y00281031D01*
X00394598Y00281216D01*
X00394608Y00281391D01*
X00394676Y00281713D01*
X00394715Y00281859D01*
X00394764Y00282006D01*
X00394813Y00282133D01*
X00394862Y00282250D01*
X00394911Y00282357D01*
X00394959Y00282445D01*
X00395008Y00282523D01*
X00395047Y00282591D01*
X00395086Y00282650D01*
X00395115Y00282689D01*
X00395125Y00282708D01*
X00395135Y00282718D01*
X00395242Y00282845D01*
X00395359Y00282962D01*
X00395613Y00283157D01*
X00395876Y00283332D01*
X00396139Y00283459D01*
X00396256Y00283518D01*
X00396364Y00283557D01*
X00396471Y00283596D01*
X00396549Y00283635D01*
X00396627Y00283654D01*
X00396676Y00283674D01*
X00396715Y00283683D01*
X00396725D01*
X00396939Y00282835D01*
D02*
G37*
G36*
X00329947Y00370907D02*
X00330103Y00371014D01*
X00330230Y00371121D01*
X00330288Y00371170D01*
X00330327Y00371209D01*
X00330357Y00371229D01*
X00330366Y00371238D01*
X00330415Y00371287D01*
X00330464Y00371336D01*
X00330581Y00371463D01*
X00330718Y00371619D01*
X00330854Y00371765D01*
X00330981Y00371911D01*
X00331078Y00372028D01*
X00331117Y00372077D01*
X00331147Y00372116D01*
X00331166Y00372136D01*
X00331176Y00372146D01*
X00331312Y00372301D01*
X00331429Y00372438D01*
X00331547Y00372575D01*
X00331654Y00372692D01*
X00331761Y00372799D01*
X00331849Y00372896D01*
X00331937Y00372994D01*
X00332015Y00373072D01*
X00332083Y00373140D01*
X00332141Y00373199D01*
X00332229Y00373287D01*
X00332288Y00373335D01*
X00332307Y00373355D01*
X00332463Y00373482D01*
X00332600Y00373599D01*
X00332737Y00373686D01*
X00332854Y00373755D01*
X00332951Y00373813D01*
X00333019Y00373852D01*
X00333068Y00373872D01*
X00333088Y00373882D01*
X00333224Y00373940D01*
X00333361Y00373979D01*
X00333488Y00374008D01*
X00333605Y00374028D01*
X00333702Y00374038D01*
X00333780Y00374047D01*
X00333829D01*
X00333848D01*
X00333985Y00374038D01*
X00334122Y00374028D01*
X00334365Y00373960D01*
X00334580Y00373872D01*
X00334765Y00373774D01*
X00334911Y00373677D01*
X00334970Y00373628D01*
X00335029Y00373589D01*
X00335068Y00373550D01*
X00335097Y00373521D01*
X00335107Y00373511D01*
X00335116Y00373501D01*
X00335204Y00373394D01*
X00335292Y00373287D01*
X00335360Y00373170D01*
X00335419Y00373043D01*
X00335507Y00372799D01*
X00335565Y00372565D01*
X00335594Y00372458D01*
X00335604Y00372360D01*
X00335614Y00372272D01*
X00335624Y00372194D01*
X00335633Y00372126D01*
Y00372038D01*
X00335624Y00371872D01*
X00335614Y00371716D01*
X00335555Y00371424D01*
X00335526Y00371297D01*
X00335487Y00371170D01*
X00335438Y00371063D01*
X00335399Y00370965D01*
X00335350Y00370877D01*
X00335311Y00370799D01*
X00335263Y00370731D01*
X00335233Y00370673D01*
X00335204Y00370634D01*
X00335175Y00370604D01*
X00335165Y00370585D01*
X00335155Y00370575D01*
X00335058Y00370478D01*
X00334960Y00370400D01*
X00334736Y00370253D01*
X00334512Y00370146D01*
X00334287Y00370068D01*
X00334092Y00370009D01*
X00334005Y00370000D01*
X00333926Y00369980D01*
X00333868Y00369970D01*
X00333819Y00369961D01*
X00333790D01*
X00333780D01*
X00333692Y00370770D01*
X00333907Y00370790D01*
X00334092Y00370829D01*
X00334248Y00370877D01*
X00334385Y00370946D01*
X00334492Y00371004D01*
X00334570Y00371063D01*
X00334609Y00371102D01*
X00334629Y00371112D01*
X00334746Y00371248D01*
X00334833Y00371394D01*
X00334892Y00371550D01*
X00334941Y00371697D01*
X00334960Y00371824D01*
X00334970Y00371921D01*
X00334980Y00371960D01*
Y00372019D01*
X00334970Y00372214D01*
X00334931Y00372389D01*
X00334882Y00372536D01*
X00334824Y00372662D01*
X00334756Y00372760D01*
X00334707Y00372838D01*
X00334668Y00372877D01*
X00334658Y00372896D01*
X00334531Y00373013D01*
X00334395Y00373092D01*
X00334268Y00373150D01*
X00334141Y00373199D01*
X00334034Y00373218D01*
X00333946Y00373228D01*
X00333887Y00373238D01*
X00333878D01*
X00333868D01*
X00333702Y00373218D01*
X00333526Y00373179D01*
X00333371Y00373121D01*
X00333224Y00373052D01*
X00333097Y00372984D01*
X00333000Y00372926D01*
X00332961Y00372906D01*
X00332932Y00372887D01*
X00332922Y00372867D01*
X00332912D01*
X00332814Y00372789D01*
X00332707Y00372701D01*
X00332600Y00372604D01*
X00332493Y00372487D01*
X00332268Y00372253D01*
X00332044Y00372019D01*
X00331859Y00371804D01*
X00331771Y00371707D01*
X00331703Y00371619D01*
X00331634Y00371550D01*
X00331595Y00371502D01*
X00331566Y00371463D01*
X00331556Y00371453D01*
X00331352Y00371219D01*
X00331166Y00371004D01*
X00331000Y00370829D01*
X00330864Y00370682D01*
X00330747Y00370565D01*
X00330659Y00370487D01*
X00330601Y00370439D01*
X00330591Y00370419D01*
X00330581D01*
X00330425Y00370292D01*
X00330279Y00370195D01*
X00330132Y00370097D01*
X00330005Y00370029D01*
X00329888Y00369970D01*
X00329810Y00369931D01*
X00329752Y00369912D01*
X00329742Y00369902D01*
X00329732D01*
X00329635Y00369873D01*
X00329537Y00369844D01*
X00329450Y00369834D01*
X00329371Y00369824D01*
X00329303Y00369814D01*
X00329245D01*
X00329206D01*
X00329196D01*
Y00374057D01*
X00329947D01*
Y00370907D01*
D02*
G37*
G36*
X00331439Y00368351D02*
X00331156Y00368273D01*
X00330903Y00368176D01*
X00330698Y00368059D01*
X00330522Y00367951D01*
X00330396Y00367844D01*
X00330298Y00367756D01*
X00330240Y00367698D01*
X00330230Y00367688D01*
X00330220Y00367678D01*
X00330084Y00367483D01*
X00329986Y00367288D01*
X00329908Y00367083D01*
X00329859Y00366898D01*
X00329830Y00366732D01*
X00329820Y00366654D01*
Y00366596D01*
X00329810Y00366547D01*
Y00366479D01*
X00329820Y00366264D01*
X00329859Y00366059D01*
X00329908Y00365874D01*
X00329957Y00365718D01*
X00330015Y00365581D01*
X00330054Y00365474D01*
X00330074Y00365435D01*
X00330093Y00365406D01*
X00330103Y00365396D01*
Y00365386D01*
X00330230Y00365211D01*
X00330376Y00365064D01*
X00330522Y00364938D01*
X00330678Y00364830D01*
X00330805Y00364752D01*
X00330922Y00364703D01*
X00330961Y00364684D01*
X00330991Y00364664D01*
X00331010Y00364655D01*
X00331020D01*
X00331254Y00364577D01*
X00331498Y00364518D01*
X00331742Y00364479D01*
X00331966Y00364450D01*
X00332063Y00364440D01*
X00332151Y00364430D01*
X00332239D01*
X00332307Y00364421D01*
X00332366D01*
X00332405D01*
X00332434D01*
X00332444D01*
X00332678Y00364430D01*
X00332902Y00364450D01*
X00333107Y00364479D01*
X00333293Y00364518D01*
X00333448Y00364557D01*
X00333517Y00364567D01*
X00333566Y00364586D01*
X00333614Y00364596D01*
X00333644Y00364606D01*
X00333663Y00364616D01*
X00333673D01*
X00333887Y00364703D01*
X00334082Y00364811D01*
X00334239Y00364928D01*
X00334375Y00365035D01*
X00334482Y00365142D01*
X00334560Y00365230D01*
X00334609Y00365289D01*
X00334629Y00365298D01*
Y00365308D01*
X00334746Y00365503D01*
X00334833Y00365708D01*
X00334902Y00365913D01*
X00334941Y00366108D01*
X00334970Y00366283D01*
X00334980Y00366352D01*
Y00366420D01*
X00334990Y00366469D01*
Y00366537D01*
X00334980Y00366771D01*
X00334941Y00366976D01*
X00334892Y00367161D01*
X00334833Y00367308D01*
X00334765Y00367435D01*
X00334716Y00367522D01*
X00334678Y00367581D01*
X00334668Y00367600D01*
X00334531Y00367756D01*
X00334375Y00367883D01*
X00334199Y00368000D01*
X00334034Y00368088D01*
X00333887Y00368156D01*
X00333819Y00368186D01*
X00333761Y00368215D01*
X00333712Y00368234D01*
X00333673Y00368244D01*
X00333653Y00368254D01*
X00333644D01*
X00333839Y00369093D01*
X00334151Y00368975D01*
X00334297Y00368907D01*
X00334424Y00368839D01*
X00334551Y00368761D01*
X00334668Y00368683D01*
X00334765Y00368615D01*
X00334863Y00368537D01*
X00334941Y00368468D01*
X00335009Y00368400D01*
X00335077Y00368332D01*
X00335126Y00368283D01*
X00335165Y00368234D01*
X00335194Y00368205D01*
X00335204Y00368186D01*
X00335214Y00368176D01*
X00335302Y00368049D01*
X00335380Y00367922D01*
X00335448Y00367786D01*
X00335507Y00367649D01*
X00335594Y00367376D01*
X00335653Y00367122D01*
X00335672Y00367005D01*
X00335682Y00366898D01*
X00335692Y00366800D01*
X00335702Y00366722D01*
X00335711Y00366654D01*
Y00366557D01*
X00335692Y00366245D01*
X00335653Y00365952D01*
X00335584Y00365689D01*
X00335555Y00365572D01*
X00335516Y00365464D01*
X00335477Y00365367D01*
X00335448Y00365269D01*
X00335409Y00365191D01*
X00335380Y00365133D01*
X00335360Y00365074D01*
X00335341Y00365035D01*
X00335321Y00365016D01*
Y00365006D01*
X00335165Y00364762D01*
X00334980Y00364538D01*
X00334795Y00364352D01*
X00334609Y00364206D01*
X00334443Y00364079D01*
X00334375Y00364030D01*
X00334317Y00363991D01*
X00334258Y00363962D01*
X00334219Y00363943D01*
X00334199Y00363923D01*
X00334190D01*
X00333907Y00363796D01*
X00333605Y00363699D01*
X00333312Y00363640D01*
X00333039Y00363592D01*
X00332912Y00363572D01*
X00332805Y00363562D01*
X00332697Y00363553D01*
X00332610D01*
X00332541Y00363543D01*
X00332493D01*
X00332454D01*
X00332444D01*
X00332103Y00363553D01*
X00331790Y00363592D01*
X00331498Y00363650D01*
X00331361Y00363679D01*
X00331244Y00363709D01*
X00331127Y00363738D01*
X00331030Y00363767D01*
X00330942Y00363796D01*
X00330864Y00363826D01*
X00330805Y00363845D01*
X00330766Y00363865D01*
X00330737Y00363874D01*
X00330727D01*
X00330444Y00364011D01*
X00330201Y00364177D01*
X00329986Y00364333D01*
X00329820Y00364499D01*
X00329684Y00364635D01*
X00329586Y00364752D01*
X00329557Y00364801D01*
X00329528Y00364830D01*
X00329518Y00364850D01*
X00329508Y00364860D01*
X00329430Y00364986D01*
X00329371Y00365123D01*
X00329264Y00365396D01*
X00329196Y00365679D01*
X00329137Y00365952D01*
X00329128Y00366069D01*
X00329108Y00366186D01*
X00329098Y00366283D01*
Y00366371D01*
X00329089Y00366449D01*
Y00366547D01*
X00329098Y00366732D01*
X00329108Y00366908D01*
X00329176Y00367230D01*
X00329215Y00367376D01*
X00329264Y00367522D01*
X00329313Y00367649D01*
X00329362Y00367766D01*
X00329411Y00367873D01*
X00329459Y00367961D01*
X00329508Y00368039D01*
X00329547Y00368107D01*
X00329586Y00368166D01*
X00329615Y00368205D01*
X00329625Y00368224D01*
X00329635Y00368234D01*
X00329742Y00368361D01*
X00329859Y00368478D01*
X00330113Y00368673D01*
X00330376Y00368849D01*
X00330639Y00368975D01*
X00330756Y00369034D01*
X00330864Y00369073D01*
X00330971Y00369112D01*
X00331049Y00369151D01*
X00331127Y00369171D01*
X00331176Y00369190D01*
X00331215Y00369200D01*
X00331225D01*
X00331439Y00368351D01*
D02*
G37*
G36*
X00301633Y00411705D02*
X00301477Y00411617D01*
X00301321Y00411510D01*
X00301175Y00411393D01*
X00301038Y00411276D01*
X00300931Y00411169D01*
X00300843Y00411081D01*
X00300785Y00411022D01*
X00300775Y00411012D01*
X00300765Y00411003D01*
X00300609Y00410817D01*
X00300463Y00410622D01*
X00300336Y00410427D01*
X00300229Y00410252D01*
X00300141Y00410096D01*
X00300112Y00410027D01*
X00300082Y00409969D01*
X00300053Y00409930D01*
X00300034Y00409891D01*
X00300024Y00409871D01*
Y00409861D01*
X00299253D01*
X00299312Y00409998D01*
X00299380Y00410144D01*
X00299439Y00410281D01*
X00299507Y00410408D01*
X00299566Y00410515D01*
X00299614Y00410603D01*
X00299653Y00410661D01*
X00299663Y00410671D01*
Y00410681D01*
X00299761Y00410847D01*
X00299868Y00410993D01*
X00299956Y00411120D01*
X00300044Y00411227D01*
X00300112Y00411315D01*
X00300161Y00411383D01*
X00300200Y00411422D01*
X00300209Y00411432D01*
X00295196D01*
Y00412222D01*
X00301633D01*
Y00411705D01*
D02*
G37*
G36*
X00297439Y00407687D02*
X00297156Y00407608D01*
X00296903Y00407511D01*
X00296698Y00407394D01*
X00296522Y00407287D01*
X00296396Y00407179D01*
X00296298Y00407091D01*
X00296240Y00407033D01*
X00296230Y00407023D01*
X00296220Y00407014D01*
X00296084Y00406818D01*
X00295986Y00406623D01*
X00295908Y00406418D01*
X00295859Y00406233D01*
X00295830Y00406067D01*
X00295820Y00405989D01*
Y00405931D01*
X00295810Y00405882D01*
Y00405814D01*
X00295820Y00405599D01*
X00295859Y00405394D01*
X00295908Y00405209D01*
X00295957Y00405053D01*
X00296015Y00404916D01*
X00296054Y00404809D01*
X00296074Y00404770D01*
X00296093Y00404741D01*
X00296103Y00404731D01*
Y00404721D01*
X00296230Y00404546D01*
X00296376Y00404399D01*
X00296522Y00404273D01*
X00296679Y00404165D01*
X00296805Y00404087D01*
X00296922Y00404039D01*
X00296961Y00404019D01*
X00296991Y00404000D01*
X00297010Y00403990D01*
X00297020D01*
X00297254Y00403912D01*
X00297498Y00403853D01*
X00297742Y00403814D01*
X00297966Y00403785D01*
X00298064Y00403775D01*
X00298151Y00403765D01*
X00298239D01*
X00298307Y00403756D01*
X00298366D01*
X00298405D01*
X00298434D01*
X00298444D01*
X00298678Y00403765D01*
X00298902Y00403785D01*
X00299107Y00403814D01*
X00299292Y00403853D01*
X00299449Y00403892D01*
X00299517Y00403902D01*
X00299566Y00403922D01*
X00299614Y00403931D01*
X00299644Y00403941D01*
X00299663Y00403951D01*
X00299673D01*
X00299887Y00404039D01*
X00300082Y00404146D01*
X00300238Y00404263D01*
X00300375Y00404370D01*
X00300482Y00404478D01*
X00300560Y00404565D01*
X00300609Y00404624D01*
X00300629Y00404634D01*
Y00404643D01*
X00300746Y00404838D01*
X00300833Y00405043D01*
X00300902Y00405248D01*
X00300941Y00405443D01*
X00300970Y00405619D01*
X00300980Y00405687D01*
Y00405755D01*
X00300990Y00405804D01*
Y00405872D01*
X00300980Y00406106D01*
X00300941Y00406311D01*
X00300892Y00406497D01*
X00300833Y00406643D01*
X00300765Y00406770D01*
X00300716Y00406857D01*
X00300678Y00406916D01*
X00300668Y00406936D01*
X00300531Y00407091D01*
X00300375Y00407218D01*
X00300200Y00407335D01*
X00300034Y00407423D01*
X00299887Y00407491D01*
X00299819Y00407521D01*
X00299761Y00407550D01*
X00299712Y00407569D01*
X00299673Y00407579D01*
X00299653Y00407589D01*
X00299644D01*
X00299839Y00408428D01*
X00300151Y00408311D01*
X00300297Y00408242D01*
X00300424Y00408174D01*
X00300551Y00408096D01*
X00300668Y00408018D01*
X00300765Y00407950D01*
X00300863Y00407872D01*
X00300941Y00407803D01*
X00301009Y00407735D01*
X00301077Y00407667D01*
X00301126Y00407618D01*
X00301165Y00407569D01*
X00301194Y00407540D01*
X00301204Y00407521D01*
X00301214Y00407511D01*
X00301302Y00407384D01*
X00301380Y00407257D01*
X00301448Y00407121D01*
X00301507Y00406984D01*
X00301594Y00406711D01*
X00301653Y00406457D01*
X00301672Y00406340D01*
X00301682Y00406233D01*
X00301692Y00406136D01*
X00301702Y00406058D01*
X00301711Y00405989D01*
Y00405892D01*
X00301692Y00405580D01*
X00301653Y00405287D01*
X00301584Y00405024D01*
X00301555Y00404907D01*
X00301516Y00404799D01*
X00301477Y00404702D01*
X00301448Y00404604D01*
X00301409Y00404526D01*
X00301380Y00404468D01*
X00301360Y00404409D01*
X00301341Y00404370D01*
X00301321Y00404351D01*
Y00404341D01*
X00301165Y00404097D01*
X00300980Y00403873D01*
X00300795Y00403688D01*
X00300609Y00403541D01*
X00300443Y00403414D01*
X00300375Y00403366D01*
X00300317Y00403327D01*
X00300258Y00403297D01*
X00300219Y00403278D01*
X00300200Y00403258D01*
X00300190D01*
X00299907Y00403132D01*
X00299605Y00403034D01*
X00299312Y00402976D01*
X00299039Y00402927D01*
X00298912Y00402907D01*
X00298805Y00402897D01*
X00298697Y00402888D01*
X00298610D01*
X00298541Y00402878D01*
X00298493D01*
X00298454D01*
X00298444D01*
X00298102Y00402888D01*
X00297790Y00402927D01*
X00297498Y00402985D01*
X00297361Y00403014D01*
X00297244Y00403044D01*
X00297127Y00403073D01*
X00297030Y00403102D01*
X00296942Y00403132D01*
X00296864Y00403161D01*
X00296805Y00403180D01*
X00296766Y00403200D01*
X00296737Y00403210D01*
X00296727D01*
X00296444Y00403346D01*
X00296201Y00403512D01*
X00295986Y00403668D01*
X00295820Y00403834D01*
X00295684Y00403970D01*
X00295586Y00404087D01*
X00295557Y00404136D01*
X00295528Y00404165D01*
X00295518Y00404185D01*
X00295508Y00404195D01*
X00295430Y00404322D01*
X00295371Y00404458D01*
X00295264Y00404731D01*
X00295196Y00405014D01*
X00295137Y00405287D01*
X00295128Y00405404D01*
X00295108Y00405521D01*
X00295098Y00405619D01*
Y00405706D01*
X00295089Y00405784D01*
Y00405882D01*
X00295098Y00406067D01*
X00295108Y00406243D01*
X00295176Y00406565D01*
X00295215Y00406711D01*
X00295264Y00406857D01*
X00295313Y00406984D01*
X00295362Y00407101D01*
X00295410Y00407209D01*
X00295459Y00407296D01*
X00295508Y00407374D01*
X00295547Y00407443D01*
X00295586Y00407501D01*
X00295615Y00407540D01*
X00295625Y00407560D01*
X00295635Y00407569D01*
X00295742Y00407696D01*
X00295859Y00407813D01*
X00296113Y00408008D01*
X00296376Y00408184D01*
X00296639Y00408311D01*
X00296756Y00408369D01*
X00296864Y00408408D01*
X00296971Y00408447D01*
X00297049Y00408486D01*
X00297127Y00408506D01*
X00297176Y00408525D01*
X00297215Y00408535D01*
X00297225D01*
X00297439Y00407687D01*
D02*
G37*
%LPC*%
G36*
X00307043Y00402014D02*
X00307004D01*
X00306984D01*
X00306975D01*
X00306731Y00401995D01*
X00306516Y00401955D01*
X00306321Y00401897D01*
X00306165Y00401838D01*
X00306048Y00401770D01*
X00305960Y00401712D01*
X00305902Y00401673D01*
X00305882Y00401653D01*
X00305746Y00401517D01*
X00305648Y00401370D01*
X00305580Y00401224D01*
X00305531Y00401097D01*
X00305502Y00400970D01*
X00305492Y00400883D01*
X00305482Y00400844D01*
Y00400795D01*
X00305492Y00400668D01*
X00305512Y00400551D01*
X00305541Y00400434D01*
X00305580Y00400336D01*
X00305609Y00400258D01*
X00305638Y00400200D01*
X00305658Y00400151D01*
X00305668Y00400141D01*
X00305746Y00400034D01*
X00305843Y00399936D01*
X00305931Y00399859D01*
X00306029Y00399790D01*
X00306107Y00399732D01*
X00306175Y00399693D01*
X00306214Y00399673D01*
X00306233Y00399663D01*
X00306380Y00399605D01*
X00306516Y00399566D01*
X00306643Y00399537D01*
X00306770Y00399517D01*
X00306867Y00399507D01*
X00306945Y00399498D01*
X00306994D01*
X00307014D01*
X00307238Y00399517D01*
X00307433Y00399556D01*
X00307609Y00399615D01*
X00307755Y00399683D01*
X00307862Y00399751D01*
X00307950Y00399810D01*
X00307999Y00399849D01*
X00308018Y00399868D01*
X00308145Y00400014D01*
X00308243Y00400161D01*
X00308311Y00400317D01*
X00308360Y00400453D01*
X00308389Y00400580D01*
X00308399Y00400678D01*
X00308409Y00400717D01*
Y00400765D01*
X00308389Y00400961D01*
X00308350Y00401136D01*
X00308282Y00401292D01*
X00308213Y00401419D01*
X00308145Y00401526D01*
X00308077Y00401604D01*
X00308038Y00401643D01*
X00308018Y00401663D01*
X00307862Y00401780D01*
X00307696Y00401868D01*
X00307521Y00401926D01*
X00307355Y00401975D01*
X00307209Y00401995D01*
X00307141Y00402004D01*
X00307082D01*
X00307043Y00402014D01*
D02*
G37*
G36*
X00401793Y00331527D02*
X00401754D01*
X00401734D01*
X00401725D01*
X00401481Y00331507D01*
X00401266Y00331468D01*
X00401071Y00331410D01*
X00400915Y00331351D01*
X00400798Y00331283D01*
X00400710Y00331225D01*
X00400652Y00331185D01*
X00400632Y00331166D01*
X00400496Y00331029D01*
X00400398Y00330883D01*
X00400330Y00330737D01*
X00400281Y00330610D01*
X00400252Y00330483D01*
X00400242Y00330395D01*
X00400232Y00330356D01*
Y00330308D01*
X00400242Y00330181D01*
X00400262Y00330064D01*
X00400291Y00329947D01*
X00400330Y00329849D01*
X00400359Y00329771D01*
X00400388Y00329713D01*
X00400408Y00329664D01*
X00400418Y00329654D01*
X00400496Y00329547D01*
X00400593Y00329449D01*
X00400681Y00329371D01*
X00400779Y00329303D01*
X00400857Y00329244D01*
X00400925Y00329206D01*
X00400964Y00329186D01*
X00400983Y00329176D01*
X00401130Y00329118D01*
X00401266Y00329079D01*
X00401393Y00329049D01*
X00401520Y00329030D01*
X00401617Y00329020D01*
X00401695Y00329010D01*
X00401744D01*
X00401764D01*
X00401988Y00329030D01*
X00402183Y00329069D01*
X00402359Y00329128D01*
X00402505Y00329196D01*
X00402612Y00329264D01*
X00402700Y00329323D01*
X00402749Y00329361D01*
X00402768Y00329381D01*
X00402895Y00329527D01*
X00402993Y00329674D01*
X00403061Y00329830D01*
X00403110Y00329966D01*
X00403139Y00330093D01*
X00403149Y00330191D01*
X00403158Y00330230D01*
Y00330278D01*
X00403139Y00330474D01*
X00403100Y00330649D01*
X00403032Y00330805D01*
X00402963Y00330932D01*
X00402895Y00331039D01*
X00402827Y00331117D01*
X00402788Y00331156D01*
X00402768Y00331176D01*
X00402612Y00331293D01*
X00402446Y00331381D01*
X00402271Y00331439D01*
X00402105Y00331488D01*
X00401959Y00331507D01*
X00401890Y00331517D01*
X00401832D01*
X00401793Y00331527D01*
D02*
G37*
G36*
X00416781Y00353717D02*
Y00350849D01*
X00418791D01*
X00416781Y00353717D01*
D02*
G37*
G36*
X00362094Y00339425D02*
X00362055D01*
X00362035D01*
X00362025D01*
X00361782Y00339405D01*
X00361567Y00339366D01*
X00361372Y00339307D01*
X00361216Y00339249D01*
X00361099Y00339181D01*
X00361011Y00339122D01*
X00360952Y00339083D01*
X00360933Y00339064D01*
X00360797Y00338927D01*
X00360699Y00338781D01*
X00360631Y00338634D01*
X00360582Y00338508D01*
X00360553Y00338381D01*
X00360543Y00338293D01*
X00360533Y00338254D01*
Y00338205D01*
X00360543Y00338078D01*
X00360562Y00337961D01*
X00360592Y00337844D01*
X00360631Y00337747D01*
X00360660Y00337669D01*
X00360689Y00337610D01*
X00360709Y00337561D01*
X00360718Y00337552D01*
X00360797Y00337444D01*
X00360894Y00337347D01*
X00360982Y00337269D01*
X00361079Y00337201D01*
X00361157Y00337142D01*
X00361226Y00337103D01*
X00361265Y00337084D01*
X00361284Y00337074D01*
X00361430Y00337015D01*
X00361567Y00336976D01*
X00361694Y00336947D01*
X00361821Y00336927D01*
X00361918Y00336918D01*
X00361996Y00336908D01*
X00362045D01*
X00362064D01*
X00362289Y00336927D01*
X00362484Y00336967D01*
X00362659Y00337025D01*
X00362806Y00337093D01*
X00362913Y00337162D01*
X00363001Y00337220D01*
X00363050Y00337259D01*
X00363069Y00337279D01*
X00363196Y00337425D01*
X00363293Y00337571D01*
X00363362Y00337727D01*
X00363410Y00337864D01*
X00363440Y00337991D01*
X00363449Y00338088D01*
X00363459Y00338127D01*
Y00338176D01*
X00363440Y00338371D01*
X00363401Y00338547D01*
X00363332Y00338703D01*
X00363264Y00338829D01*
X00363196Y00338937D01*
X00363128Y00339015D01*
X00363089Y00339054D01*
X00363069Y00339073D01*
X00362913Y00339190D01*
X00362747Y00339278D01*
X00362572Y00339337D01*
X00362406Y00339385D01*
X00362259Y00339405D01*
X00362191Y00339415D01*
X00362133D01*
X00362094Y00339425D01*
D02*
G37*
G36*
X00377784Y00292510D02*
X00377735D01*
X00377725D01*
X00377715D01*
X00377569Y00292501D01*
X00377433Y00292462D01*
X00377306Y00292423D01*
X00377208Y00292364D01*
X00377121Y00292315D01*
X00377062Y00292267D01*
X00377023Y00292228D01*
X00377013Y00292218D01*
X00376916Y00292101D01*
X00376847Y00291974D01*
X00376799Y00291847D01*
X00376769Y00291730D01*
X00376750Y00291623D01*
X00376730Y00291545D01*
Y00291467D01*
X00376740Y00291301D01*
X00376779Y00291155D01*
X00376818Y00291018D01*
X00376877Y00290911D01*
X00376925Y00290823D01*
X00376974Y00290755D01*
X00377004Y00290716D01*
X00377013Y00290706D01*
X00377130Y00290609D01*
X00377257Y00290540D01*
X00377374Y00290491D01*
X00377491Y00290462D01*
X00377598Y00290443D01*
X00377677Y00290423D01*
X00377735D01*
X00377755D01*
X00377901Y00290433D01*
X00378028Y00290472D01*
X00378154Y00290521D01*
X00378252Y00290569D01*
X00378330Y00290628D01*
X00378398Y00290667D01*
X00378437Y00290706D01*
X00378447Y00290716D01*
X00378545Y00290833D01*
X00378613Y00290960D01*
X00378671Y00291086D01*
X00378701Y00291203D01*
X00378720Y00291311D01*
X00378740Y00291389D01*
Y00291467D01*
X00378730Y00291633D01*
X00378691Y00291769D01*
X00378642Y00291896D01*
X00378593Y00292003D01*
X00378535Y00292091D01*
X00378486Y00292159D01*
X00378447Y00292198D01*
X00378437Y00292208D01*
X00378320Y00292306D01*
X00378203Y00292384D01*
X00378076Y00292432D01*
X00377969Y00292471D01*
X00377872Y00292491D01*
X00377784Y00292510D01*
D02*
G37*
G36*
X00374828Y00292774D02*
X00374799D01*
X00374780D01*
X00374770D01*
X00374565Y00292754D01*
X00374389Y00292715D01*
X00374224Y00292657D01*
X00374097Y00292589D01*
X00373990Y00292520D01*
X00373912Y00292462D01*
X00373863Y00292423D01*
X00373843Y00292403D01*
X00373726Y00292257D01*
X00373638Y00292111D01*
X00373570Y00291954D01*
X00373531Y00291808D01*
X00373502Y00291672D01*
X00373492Y00291574D01*
X00373482Y00291535D01*
Y00291477D01*
X00373492Y00291340D01*
X00373512Y00291213D01*
X00373531Y00291106D01*
X00373570Y00290999D01*
X00373600Y00290911D01*
X00373619Y00290852D01*
X00373638Y00290813D01*
X00373648Y00290794D01*
X00373717Y00290686D01*
X00373795Y00290589D01*
X00373882Y00290511D01*
X00373960Y00290443D01*
X00374029Y00290394D01*
X00374087Y00290355D01*
X00374126Y00290335D01*
X00374136Y00290326D01*
X00374253Y00290277D01*
X00374370Y00290238D01*
X00374487Y00290209D01*
X00374585Y00290189D01*
X00374672Y00290179D01*
X00374731Y00290170D01*
X00374780D01*
X00374789D01*
X00374985Y00290189D01*
X00375170Y00290228D01*
X00375326Y00290287D01*
X00375462Y00290355D01*
X00375570Y00290413D01*
X00375648Y00290472D01*
X00375696Y00290511D01*
X00375716Y00290530D01*
X00375843Y00290677D01*
X00375931Y00290823D01*
X00375999Y00290979D01*
X00376038Y00291125D01*
X00376067Y00291252D01*
X00376077Y00291360D01*
X00376087Y00291399D01*
Y00291447D01*
X00376067Y00291652D01*
X00376028Y00291837D01*
X00375970Y00292003D01*
X00375901Y00292140D01*
X00375823Y00292247D01*
X00375765Y00292325D01*
X00375726Y00292374D01*
X00375706Y00292393D01*
X00375560Y00292520D01*
X00375404Y00292618D01*
X00375248Y00292686D01*
X00375102Y00292725D01*
X00374965Y00292754D01*
X00374867Y00292764D01*
X00374828Y00292774D01*
D02*
G37*
G36*
X00452002Y00343268D02*
X00451924D01*
X00451876D01*
X00451856D01*
X00451573D01*
X00451310Y00343249D01*
X00451076Y00343239D01*
X00450861Y00343210D01*
X00450666Y00343180D01*
X00450491Y00343151D01*
X00450344Y00343122D01*
X00450208Y00343083D01*
X00450100Y00343044D01*
X00450003Y00343015D01*
X00449915Y00342985D01*
X00449857Y00342956D01*
X00449808Y00342937D01*
X00449779Y00342917D01*
X00449759Y00342897D01*
X00449749D01*
X00449661Y00342829D01*
X00449584Y00342751D01*
X00449506Y00342673D01*
X00449447Y00342595D01*
X00449359Y00342449D01*
X00449301Y00342303D01*
X00449262Y00342176D01*
X00449242Y00342078D01*
X00449232Y00342039D01*
Y00341990D01*
X00449242Y00341893D01*
X00449252Y00341795D01*
X00449310Y00341620D01*
X00449398Y00341464D01*
X00449496Y00341327D01*
X00449584Y00341220D01*
X00449671Y00341142D01*
X00449730Y00341093D01*
X00449740Y00341074D01*
X00449749D01*
X00449857Y00341015D01*
X00449993Y00340956D01*
X00450140Y00340908D01*
X00450295Y00340869D01*
X00450647Y00340801D01*
X00450998Y00340761D01*
X00451164Y00340742D01*
X00451329Y00340732D01*
X00451476Y00340723D01*
X00451603D01*
X00451710Y00340713D01*
X00451788D01*
X00451837D01*
X00451856D01*
X00452139D01*
X00452402Y00340732D01*
X00452636Y00340752D01*
X00452851Y00340771D01*
X00453056Y00340810D01*
X00453231Y00340840D01*
X00453387Y00340878D01*
X00453524Y00340918D01*
X00453641Y00340947D01*
X00453748Y00340986D01*
X00453826Y00341025D01*
X00453895Y00341054D01*
X00453943Y00341074D01*
X00453982Y00341093D01*
X00454002Y00341113D01*
X00454012D01*
X00454090Y00341171D01*
X00454168Y00341239D01*
X00454285Y00341386D01*
X00454363Y00341532D01*
X00454421Y00341669D01*
X00454460Y00341795D01*
X00454470Y00341893D01*
X00454480Y00341932D01*
Y00341981D01*
X00454470Y00342078D01*
X00454460Y00342176D01*
X00454402Y00342351D01*
X00454314Y00342507D01*
X00454216Y00342644D01*
X00454119Y00342751D01*
X00454031Y00342829D01*
X00453973Y00342878D01*
X00453963Y00342897D01*
X00453953D01*
X00453846Y00342966D01*
X00453719Y00343024D01*
X00453573Y00343073D01*
X00453407Y00343112D01*
X00453065Y00343180D01*
X00452714Y00343219D01*
X00452539Y00343239D01*
X00452383Y00343249D01*
X00452237Y00343258D01*
X00452110D01*
X00452002Y00343268D01*
D02*
G37*
G36*
X00347317Y00320906D02*
X00344449D01*
Y00318897D01*
X00347317Y00320906D01*
D02*
G37*
G36*
X00373316Y00319218D02*
X00373276D01*
X00373257D01*
X00373247D01*
X00373013Y00319199D01*
X00372799Y00319160D01*
X00372623Y00319101D01*
X00372467Y00319043D01*
X00372350Y00318974D01*
X00372262Y00318916D01*
X00372213Y00318877D01*
X00372194Y00318857D01*
X00372067Y00318721D01*
X00371969Y00318575D01*
X00371911Y00318419D01*
X00371862Y00318282D01*
X00371833Y00318155D01*
X00371823Y00318058D01*
X00371814Y00318019D01*
Y00317970D01*
X00371833Y00317775D01*
X00371872Y00317599D01*
X00371931Y00317443D01*
X00372009Y00317307D01*
X00372077Y00317199D01*
X00372135Y00317121D01*
X00372174Y00317073D01*
X00372194Y00317053D01*
X00372350Y00316936D01*
X00372506Y00316848D01*
X00372672Y00316780D01*
X00372838Y00316741D01*
X00372974Y00316712D01*
X00373091Y00316702D01*
X00373130Y00316692D01*
X00373159D01*
X00373179D01*
X00373189D01*
X00373433Y00316712D01*
X00373647Y00316751D01*
X00373842Y00316809D01*
X00373998Y00316887D01*
X00374125Y00316956D01*
X00374223Y00317014D01*
X00374281Y00317053D01*
X00374301Y00317073D01*
X00374379Y00317151D01*
X00374447Y00317229D01*
X00374544Y00317385D01*
X00374622Y00317531D01*
X00374681Y00317677D01*
X00374710Y00317804D01*
X00374720Y00317902D01*
X00374730Y00317941D01*
Y00317989D01*
X00374710Y00318175D01*
X00374671Y00318340D01*
X00374603Y00318487D01*
X00374535Y00318614D01*
X00374457Y00318721D01*
X00374388Y00318789D01*
X00374349Y00318838D01*
X00374330Y00318857D01*
X00374164Y00318974D01*
X00373988Y00319062D01*
X00373813Y00319131D01*
X00373637Y00319170D01*
X00373481Y00319199D01*
X00373423Y00319209D01*
X00373364D01*
X00373316Y00319218D01*
D02*
G37*
G36*
X00417298Y00362640D02*
X00417220D01*
X00417054Y00362630D01*
X00416918Y00362591D01*
X00416791Y00362542D01*
X00416684Y00362493D01*
X00416596Y00362435D01*
X00416528Y00362386D01*
X00416489Y00362347D01*
X00416479Y00362337D01*
X00416381Y00362220D01*
X00416303Y00362103D01*
X00416255Y00361976D01*
X00416216Y00361869D01*
X00416196Y00361772D01*
X00416177Y00361684D01*
Y00361635D01*
Y00361625D01*
Y00361615D01*
X00416186Y00361469D01*
X00416226Y00361333D01*
X00416264Y00361206D01*
X00416323Y00361108D01*
X00416372Y00361021D01*
X00416421Y00360962D01*
X00416460Y00360923D01*
X00416469Y00360913D01*
X00416586Y00360816D01*
X00416713Y00360747D01*
X00416840Y00360699D01*
X00416957Y00360669D01*
X00417064Y00360650D01*
X00417142Y00360630D01*
X00417220D01*
X00417386Y00360640D01*
X00417532Y00360679D01*
X00417669Y00360718D01*
X00417776Y00360777D01*
X00417864Y00360825D01*
X00417932Y00360874D01*
X00417971Y00360903D01*
X00417981Y00360913D01*
X00418079Y00361030D01*
X00418147Y00361157D01*
X00418196Y00361274D01*
X00418225Y00361391D01*
X00418245Y00361498D01*
X00418264Y00361576D01*
Y00361635D01*
Y00361654D01*
X00418254Y00361801D01*
X00418215Y00361927D01*
X00418166Y00362054D01*
X00418118Y00362152D01*
X00418059Y00362230D01*
X00418020Y00362298D01*
X00417981Y00362337D01*
X00417971Y00362347D01*
X00417854Y00362444D01*
X00417728Y00362513D01*
X00417601Y00362571D01*
X00417484Y00362601D01*
X00417376Y00362620D01*
X00417298Y00362640D01*
D02*
G37*
G36*
X00417289Y00359987D02*
X00417240D01*
X00417035Y00359967D01*
X00416850Y00359928D01*
X00416684Y00359869D01*
X00416547Y00359801D01*
X00416440Y00359723D01*
X00416362Y00359665D01*
X00416313Y00359626D01*
X00416294Y00359606D01*
X00416167Y00359460D01*
X00416069Y00359304D01*
X00416001Y00359148D01*
X00415962Y00359002D01*
X00415933Y00358865D01*
X00415923Y00358767D01*
X00415913Y00358728D01*
Y00358699D01*
Y00358680D01*
Y00358670D01*
X00415933Y00358465D01*
X00415972Y00358289D01*
X00416030Y00358124D01*
X00416099Y00357997D01*
X00416167Y00357890D01*
X00416226Y00357812D01*
X00416264Y00357763D01*
X00416284Y00357743D01*
X00416430Y00357626D01*
X00416577Y00357538D01*
X00416733Y00357470D01*
X00416879Y00357431D01*
X00417015Y00357402D01*
X00417113Y00357392D01*
X00417152Y00357382D01*
X00417211D01*
X00417347Y00357392D01*
X00417474Y00357412D01*
X00417581Y00357431D01*
X00417688Y00357470D01*
X00417776Y00357499D01*
X00417835Y00357519D01*
X00417874Y00357538D01*
X00417893Y00357548D01*
X00418001Y00357617D01*
X00418098Y00357695D01*
X00418176Y00357782D01*
X00418245Y00357860D01*
X00418293Y00357929D01*
X00418332Y00357987D01*
X00418352Y00358026D01*
X00418362Y00358036D01*
X00418410Y00358153D01*
X00418449Y00358270D01*
X00418479Y00358387D01*
X00418498Y00358484D01*
X00418508Y00358572D01*
X00418518Y00358631D01*
Y00358680D01*
Y00358689D01*
X00418498Y00358884D01*
X00418459Y00359070D01*
X00418400Y00359226D01*
X00418332Y00359362D01*
X00418274Y00359470D01*
X00418215Y00359548D01*
X00418176Y00359596D01*
X00418157Y00359616D01*
X00418010Y00359743D01*
X00417864Y00359831D01*
X00417708Y00359899D01*
X00417562Y00359938D01*
X00417435Y00359967D01*
X00417328Y00359977D01*
X00417289Y00359987D01*
D02*
G37*
%LPD*%
D10*
X00497000Y00271700D02*
Y00324700D01*
X00447500Y00271700D02*
X00497000D01*
X00447500D02*
Y00324700D01*
X00497000D01*
D11*
X00497770Y00425850D02*
G03*
X00497770Y00425850I-00001270J00000000D01*
G01*
D13*
X00305500Y00378450D02*
X00310500D01*
X00352000Y00315000D02*
X00357000D01*
X00441100Y00336750D02*
X00446100D01*
X00329750Y00384376D02*
X00334750D01*
X00373801Y00304200D02*
X00378801D01*
X00404750Y00357700D02*
Y00362700D01*
X00352001Y00333060D02*
X00357001D01*
X00387000Y00304200D02*
X00392000D01*
X00368250Y00365950D02*
X00373250D01*
X00359250D02*
X00364250D01*
X00392102Y00327326D02*
X00397102D01*
X00394750Y00366700D02*
Y00371700D01*
X00361000Y00315000D02*
X00366000D01*
X00395500Y00304200D02*
X00400500D01*
X00404750Y00349450D02*
Y00354450D01*
X00296080Y00392700D02*
X00301080D01*
D14*
X00509250Y00324200D02*
G03*
X00509250Y00324200I-00001000J00000000D01*
G01*
X00508250D02*
G03*
X00508250Y00324200I-00001000J00000000D01*
G01*
X00510486D02*
G03*
X00510486Y00324200I-00002236J00000000D01*
G01*
X00491250Y00316200D02*
G03*
X00491250Y00316200I-00001000J00000000D01*
G01*
Y00317200D02*
G03*
X00491250Y00317200I-00001000J00000000D01*
G01*
X00491664D02*
G03*
X00491664Y00317200I-00001414J00000000D01*
G01*
X00492486D02*
G03*
X00492486Y00317200I-00002236J00000000D01*
G01*
X00493412D02*
G03*
X00493412Y00317200I-00003162J00000000D01*
G01*
X00426000Y00367450D02*
X00531000D01*
X00426000D02*
Y00410450D01*
X00531000Y00367450D02*
Y00410450D01*
M02*
