M48
;Layer_Color=9474304
;FILE_FORMAT=4:4
METRIC
;TYPE=PLATED
T1F00S00C0.2000
%
T01
X00213550Y00258550
X00219585
X00225620
X00231656
X00237691
X00243726
X00249761
X00255796
X00261831
X00267866
X00273902
X00279937
X00285972
X00292007
X00298042
X00304077
X00310113
X00316148
X00322183
X00328218
X00334253
X00340289
X00346324
X00352359
X00358394
X00364429
X00370464
X00376499
X00382535
X00388570
X00394605
X00391250Y00293200
X00396300Y00298523
X00384026Y00309026
X00376301Y00314500
X00373800Y00324950
X00383100
Y00334950
X00373800
X00364500
Y00344950
X00373800
X00383100
X00379350Y00356500
X00383850Y00360000
X00389924Y00360426
X00370750Y00355650
X00361750
X00354501Y00344100
X00346750Y00327500
X00347051Y00319883
X00347750Y00310174
X00326790Y00311372
X00320790
X00317770Y00307891
X00312781Y00306209
X00307503Y00308123
X00302790Y00311431
X00296790Y00311449
X00290846Y00309304
X00283900Y00307050
X00278792Y00311372
X00272950Y00312741
X00266952Y00312890
X00261143Y00311387
X00255196Y00312184
X00249257Y00313036
X00247693Y00307244
X00247628Y00301244
X00247463Y00295247
X00252575Y00292106
X00258561Y00292520
X00273406Y00285690
X00273569Y00279693
X00273469Y00273694
X00259048Y00266382
X00253053Y00266638
X00247295Y00268323
X00241295
X00235295Y00268258
X00229566Y00270040
X00226301Y00273546
X00220906Y00274800
X00221345Y00281638
X00225372Y00286786
X00225554Y00292783
X00225372Y00298780
X00221198Y00302143
X00220237Y00307748
X00221839Y00312617
X00226288Y00316713
X00228527Y00322279
X00231975Y00327190
X00226891Y00330376
X00221875Y00333668
X00218309Y00338493
X00213550Y00340486
Y00346789
Y00353091
Y00359394
Y00365697
Y00372000
X00235000Y00372000
X00241000
X00247000
X00253000
X00259000
X00265000
X00271000
Y00378383
Y00384767
Y00391150
X00290630Y00387874
X00311800Y00384550
X00316800Y00389550
X00321800Y00384550
X00321800Y00394550
X00311800Y00394550
X00340248Y00389202
X00338500Y00379550
X00347850Y00378250
X00353350Y00377500
X00355900Y00389450
X00366250Y00379450
X00364500Y00324950
X00361300Y00293200
X00370750Y00293200
X00376250
X00336850Y00296500
X00314150Y00274550
X00316733Y00333628
X00322733
X00328733
X00326750Y00349150
X00318801Y00349324
X00311000Y00349150
X00310733Y00333690
X00304734Y00333628
X00298743Y00333292
X00292752Y00333628
X00286753Y00333693
X00280753Y00333628
X00274781Y00333045
X00264413Y00333166
X00258810Y00335312
X00254357Y00339334
X00250183Y00343644
X00245369Y00347225
X00239936Y00349770
X00236844Y00354912
X00237593Y00360865
X00237582Y00366865
X00213550Y00334183
Y00327880
Y00321578
Y00315275
Y00308972
Y00302669
Y00296367
Y00290064
Y00283761
Y00277458
Y00271155
Y00264853
X00304709Y00367212
X00405500Y00369200
X00416000Y00362450
X00425400Y00360800
X00428350Y00351625
X00434151Y00340392
X00425500Y00335450
X00415600Y00327500
Y00317500
X00424350Y00313000
X00430226Y00314675
X00425250Y00304700
X00419800Y00292350
X00425050Y00279150
X00429150Y00269050
X00430816Y00258550
X00436851
X00442886
X00448922
X00454957
X00460992
X00467027
X00473062
X00479097
X00485132
X00491168
X00497203
X00503238
X00509273
X00515308
X00521343
X00527379
X00533414
X00539449
X00539450Y00264654
Y00270757
Y00276861
Y00282964
Y00289068
Y00295171
Y00301275
Y00307379
Y00313482
Y00319586
Y00325689
Y00331793
Y00337896
Y00344000
Y00350103
Y00356207
Y00362311
Y00368414
Y00374518
Y00380621
Y00386725
Y00392828
X00520300Y00373700
X00477955Y00375039
X00480500Y00363700
X00498350Y00351500
X00495350Y00317250
X00487350Y00304500
X00463650Y00305050
X00459300Y00309950
X00463650Y00315050
Y00325050
X00459300Y00329950
X00463650Y00334950
X00459300Y00299950
X00463650Y00295050
X00459300Y00289950
X00480500Y00270950
X00519500Y00279150
X00519750Y00291950
X00424781Y00258550
X00418746
X00412710
X00406675
X00400640
X00400850Y00322500
X00399350Y00345250
X00440130Y00363320
X00418500Y00387600
X00412850Y00412000
X00401300Y00413700
X00402242Y00429450
X00408208
X00414173
X00420139
X00426104
X00432070
X00438035
X00444001
X00449966
X00455932
X00461898
X00467863
X00473829
X00479794
X00485760
X00491725
X00497691
X00503656
X00509622
X00515587
X00521553
X00527519Y00429450
X00533484
X00539450
X00539450Y00423346
Y00417243
Y00411139
Y00405036
Y00398932
X00531930Y00413450
X00491900Y00398800
X00466000Y00397100
X00456550Y00413450
X00471000Y00423165
X00476650Y00422800
X00486000Y00423165
X00396276Y00429450
X00390311
X00384345
X00378380
X00372414
X00366449
X00360483
X00354518
X00348552
X00342587
X00336621
X00330655
X00324690
X00318724
X00312759
X00306793
X00300828
X00294862
X00288897
X00282931
X00276966
X00271000Y00429450
Y00423067
Y00416683
Y00410300
Y00403917
Y00397533
X00298283Y00405683
X00306600Y00412500
X00334049Y00413083
X00338600Y00418000
X00338500Y00399450
X00386300Y00413700
M30
