G04*
G04 #@! TF.GenerationSoftware,Altium Limited,Altium Designer,23.3.1 (30)*
G04*
G04 Layer_Physical_Order=4*
G04 Layer_Color=16711680*
%FSAX44Y44*%
%MOMM*%
G71*
G04*
G04 #@! TF.SameCoordinates,E4202109-5C2D-4CF9-8B46-EFF2A95DF25D*
G04*
G04*
G04 #@! TF.FilePolarity,Positive*
G04*
G01*
G75*
G04:AMPARAMS|DCode=21|XSize=0.6mm|YSize=0.6mm|CornerRadius=0.15mm|HoleSize=0mm|Usage=FLASHONLY|Rotation=180.000|XOffset=0mm|YOffset=0mm|HoleType=Round|Shape=RoundedRectangle|*
%AMROUNDEDRECTD21*
21,1,0.6000,0.3000,0,0,180.0*
21,1,0.3000,0.6000,0,0,180.0*
1,1,0.3000,-0.1500,0.1500*
1,1,0.3000,0.1500,0.1500*
1,1,0.3000,0.1500,-0.1500*
1,1,0.3000,-0.1500,-0.1500*
%
%ADD21ROUNDEDRECTD21*%
G04:AMPARAMS|DCode=34|XSize=0.6mm|YSize=0.6mm|CornerRadius=0.15mm|HoleSize=0mm|Usage=FLASHONLY|Rotation=90.000|XOffset=0mm|YOffset=0mm|HoleType=Round|Shape=RoundedRectangle|*
%AMROUNDEDRECTD34*
21,1,0.6000,0.3000,0,0,90.0*
21,1,0.3000,0.6000,0,0,90.0*
1,1,0.3000,0.1500,0.1500*
1,1,0.3000,0.1500,-0.1500*
1,1,0.3000,-0.1500,-0.1500*
1,1,0.3000,-0.1500,0.1500*
%
%ADD34ROUNDEDRECTD34*%
%ADD76C,0.1250*%
%ADD77C,0.1600*%
%ADD78C,0.3000*%
%ADD79C,0.2500*%
%ADD80C,0.4000*%
%ADD81C,0.4000*%
%ADD82R,2.7000X3.0000*%
%ADD83R,0.3000X1.2000*%
%ADD84R,1.6000X0.6000*%
%ADD85C,0.5000*%
G36*
X00541450Y00256550D02*
X00211547D01*
Y00374000D01*
X00269000D01*
Y00431452D01*
X00541450D01*
Y00256550D01*
D02*
G37*
%LPC*%
G36*
X00337904Y00421500D02*
X00336617Y00420967D01*
X00336478Y00420828D01*
X00332252Y00420167D01*
X00332252D01*
X00326931Y00420167D01*
X00314598D01*
X00309100D01*
X00309100Y00420167D01*
X00308271Y00420002D01*
X00308271Y00420002D01*
X00308271Y00420002D01*
X00307568Y00419532D01*
X00307568Y00419532D01*
X00305068Y00417032D01*
X00304598Y00416329D01*
X00304598Y00416329D01*
X00304491Y00415791D01*
X00303633Y00414483D01*
X00303100Y00413196D01*
X00303100Y00411976D01*
X00302256Y00410985D01*
X00299384Y00409015D01*
X00298980Y00409182D01*
X00298979Y00409183D01*
X00298979Y00409183D01*
X00298406Y00409183D01*
X00297587D01*
X00296300Y00408650D01*
X00295316Y00407665D01*
X00295316Y00407665D01*
X00295157Y00407282D01*
X00294783Y00406379D01*
Y00404986D01*
X00295294Y00403565D01*
X00294918Y00401189D01*
X00294255Y00400197D01*
X00294022Y00399026D01*
Y00396026D01*
X00294255Y00394855D01*
X00294918Y00393863D01*
X00295911Y00393200D01*
X00297081Y00392967D01*
X00300081D01*
X00301252Y00393200D01*
X00302244Y00393863D01*
X00302907Y00394855D01*
X00303140Y00396026D01*
Y00399026D01*
X00302907Y00400197D01*
X00302244Y00401189D01*
X00301470Y00403143D01*
X00301783Y00404986D01*
X00301783Y00406207D01*
X00302627Y00407197D01*
X00305498Y00409168D01*
X00305904Y00409000D01*
X00306476Y00409000D01*
X00307296D01*
X00308583Y00409533D01*
X00309567Y00410517D01*
X00309567Y00410517D01*
X00309772Y00411012D01*
X00310100Y00411804D01*
Y00413196D01*
X00313640Y00415667D01*
X00313878Y00415833D01*
X00326529Y00415833D01*
X00330549Y00413779D01*
X00330549Y00412387D01*
X00330549Y00412387D01*
X00331082Y00411101D01*
X00331082Y00411100D01*
X00332066Y00410116D01*
X00332859Y00409788D01*
X00333353Y00409583D01*
X00333353Y00409583D01*
X00334745D01*
X00336031Y00410116D01*
X00337016Y00411100D01*
X00337016Y00411101D01*
X00337549Y00412387D01*
X00337800Y00413883D01*
X00339296Y00414500D01*
X00340583Y00415033D01*
X00341189Y00415639D01*
X00341567Y00416017D01*
X00341567Y00416017D01*
X00341567Y00416018D01*
X00342100Y00417304D01*
Y00418696D01*
X00342100Y00418696D01*
X00341567Y00419982D01*
Y00419983D01*
X00340583Y00420967D01*
X00339296Y00421500D01*
X00337904D01*
X00337904Y00421500D01*
D02*
G37*
G36*
X00470304Y00426665D02*
X00470304Y00426665D01*
X00469017Y00426133D01*
X00468033Y00425148D01*
X00468033Y00425148D01*
X00467500Y00423862D01*
X00467500Y00423862D01*
X00467500Y00423364D01*
X00464741Y00421461D01*
X00463343Y00420950D01*
X00458000D01*
Y00417454D01*
X00457246Y00416950D01*
X00455854Y00416950D01*
X00455854Y00416950D01*
X00454567Y00416417D01*
X00453961Y00415811D01*
X00453775Y00415625D01*
Y00415625D01*
X00453583Y00415433D01*
X00453583Y00415433D01*
X00453583Y00415432D01*
X00453050Y00414146D01*
X00453050Y00414146D01*
Y00412754D01*
X00453050Y00412754D01*
X00453583Y00411468D01*
X00453583Y00411467D01*
X00453583D01*
X00454567Y00410483D01*
X00455854Y00409950D01*
X00457246D01*
X00457246Y00409950D01*
X00458000Y00409446D01*
Y00405950D01*
X00463500D01*
X00464000Y00405950D01*
X00468000D01*
X00468500Y00405950D01*
X00473220D01*
X00475084Y00401450D01*
X00467992Y00394358D01*
X00467483Y00393597D01*
X00467305Y00392700D01*
X00467305Y00392700D01*
Y00342095D01*
X00464346Y00338450D01*
X00462954D01*
X00461667Y00337917D01*
X00460683Y00336933D01*
X00458604Y00333450D01*
X00457838Y00333133D01*
X00456708Y00332939D01*
X00454586Y00333015D01*
X00450937Y00335069D01*
Y00335069D01*
X00450937D01*
X00447926Y00338081D01*
X00447223Y00338551D01*
X00446394Y00338716D01*
X00438306D01*
X00437651Y00339696D01*
X00437651Y00341089D01*
X00437651Y00341089D01*
X00437118Y00342375D01*
X00437118Y00342375D01*
X00436134Y00343360D01*
X00435341Y00343688D01*
X00434847Y00343893D01*
X00434847Y00343892D01*
X00433455D01*
X00432169Y00343360D01*
X00431184Y00342375D01*
X00431184Y00342375D01*
X00430805Y00341459D01*
X00430024Y00340744D01*
X00426554Y00338839D01*
X00426494Y00338827D01*
X00426196Y00338950D01*
X00424804D01*
X00423517Y00338417D01*
X00422533Y00337433D01*
X00422000Y00336146D01*
X00417564Y00334600D01*
X00413132Y00339032D01*
X00413117Y00339042D01*
X00412831Y00340056D01*
X00412707Y00342109D01*
X00412909Y00343994D01*
X00415987Y00347073D01*
X00416914Y00348000D01*
X00419169Y00350255D01*
X00421610Y00351227D01*
X00424532Y00351080D01*
X00424850Y00350929D01*
X00425178Y00350136D01*
X00425383Y00349642D01*
X00425383Y00349642D01*
X00426367Y00348658D01*
X00427654Y00348125D01*
X00429046Y00348125D01*
X00429046Y00348125D01*
X00429540Y00348330D01*
X00430333Y00348658D01*
X00430333Y00348658D01*
X00431317Y00349642D01*
X00431317Y00349642D01*
X00431727Y00350633D01*
X00431850Y00350929D01*
X00431850Y00350929D01*
X00431850Y00350929D01*
X00431850Y00351201D01*
X00431850Y00352321D01*
X00431850Y00352321D01*
X00431850Y00352321D01*
X00431317Y00353608D01*
X00430359Y00354566D01*
X00430253Y00354791D01*
X00428791Y00358454D01*
X00428702Y00359625D01*
X00428900Y00360104D01*
X00428900Y00360104D01*
Y00361496D01*
X00428572Y00362289D01*
X00428367Y00362783D01*
X00428367Y00362783D01*
X00427383Y00363767D01*
X00427383Y00363767D01*
X00426889Y00363972D01*
X00426096Y00364300D01*
X00424704D01*
X00424704Y00364300D01*
X00423695Y00363882D01*
X00423213Y00363798D01*
X00419443Y00364361D01*
X00418585Y00364814D01*
X00417983Y00365417D01*
X00416696Y00365950D01*
X00415304D01*
X00414017Y00365417D01*
X00409831Y00367332D01*
X00409000Y00368504D01*
X00409000Y00369896D01*
X00408467Y00371183D01*
X00407483Y00372167D01*
X00406196Y00372700D01*
X00404804D01*
X00403663Y00372228D01*
X00403239Y00372863D01*
X00402247Y00373526D01*
X00401076Y00373759D01*
X00398076D01*
X00396906Y00373526D01*
X00395913Y00372863D01*
X00395250Y00371870D01*
X00395017Y00370700D01*
Y00367700D01*
X00395250Y00366530D01*
X00395913Y00365537D01*
X00396906Y00364874D01*
X00398076Y00364641D01*
X00401076D01*
X00401375Y00364701D01*
X00401691Y00364552D01*
X00404056Y00362548D01*
X00405017Y00361313D01*
Y00358699D01*
X00405250Y00357529D01*
X00405753Y00356074D01*
X00405250Y00354620D01*
X00405017Y00353449D01*
Y00350896D01*
X00403584Y00349723D01*
X00400832Y00348425D01*
X00400046Y00348750D01*
X00398654D01*
X00397367Y00348217D01*
X00396383Y00347233D01*
X00394894Y00346936D01*
X00386017Y00355814D01*
Y00357217D01*
X00386817Y00358017D01*
X00387350Y00359304D01*
Y00360696D01*
X00386817Y00361983D01*
X00385833Y00362967D01*
X00384546Y00363500D01*
X00383154D01*
X00381867Y00362967D01*
X00380883Y00361983D01*
X00380350Y00360696D01*
Y00360203D01*
X00380046Y00360000D01*
X00378654D01*
X00377367Y00359467D01*
X00376383Y00358483D01*
X00375850Y00357196D01*
X00375119Y00355354D01*
X00371968Y00353417D01*
X00360964D01*
X00355517Y00358864D01*
Y00363478D01*
X00356720Y00364482D01*
X00360017Y00366264D01*
X00360251Y00366217D01*
X00363251D01*
X00364421Y00366450D01*
X00365414Y00367113D01*
X00367088D01*
X00368080Y00366450D01*
X00369251Y00366217D01*
X00372251D01*
X00373421Y00366450D01*
X00374414Y00367113D01*
X00375077Y00368106D01*
X00375310Y00369276D01*
Y00372276D01*
X00375077Y00373447D01*
X00374414Y00374439D01*
X00373421Y00375102D01*
X00372251Y00375335D01*
X00371959D01*
Y00375598D01*
X00371746Y00376671D01*
X00371138Y00377580D01*
X00369750Y00378968D01*
Y00380146D01*
X00369217Y00381433D01*
X00368233Y00382417D01*
X00366946Y00382950D01*
X00365554D01*
X00364267Y00382417D01*
X00363283Y00381433D01*
X00362750Y00380146D01*
X00360739Y00379056D01*
X00356317Y00379483D01*
X00355333Y00380467D01*
X00354046Y00381000D01*
X00352654D01*
X00351367Y00380467D01*
X00351359Y00380459D01*
X00350817Y00380233D01*
X00350817Y00380233D01*
X00349833Y00381217D01*
X00348546Y00381750D01*
X00347154D01*
X00347154Y00381750D01*
X00346157Y00381337D01*
X00345736Y00381227D01*
X00342239Y00381477D01*
X00340885Y00382114D01*
X00340483Y00382517D01*
X00339196Y00383050D01*
X00337804D01*
X00336517Y00382517D01*
X00336367Y00382532D01*
X00335912Y00383213D01*
X00334920Y00383876D01*
X00333749Y00384109D01*
X00330749D01*
X00329579Y00383876D01*
X00328586Y00383213D01*
X00327923Y00382220D01*
X00327690Y00381050D01*
Y00378050D01*
X00327923Y00376879D01*
X00328586Y00375887D01*
X00329579Y00375224D01*
X00330749Y00374991D01*
X00333749D01*
X00334920Y00375224D01*
X00335912Y00375887D01*
X00336367Y00376568D01*
X00336517Y00376583D01*
X00337804Y00376050D01*
X00339196D01*
X00340193Y00376463D01*
X00340614Y00376573D01*
X00344111Y00376323D01*
X00345465Y00375686D01*
X00345683Y00375467D01*
Y00351194D01*
X00340368Y00345879D01*
X00339898Y00345176D01*
X00339733Y00344347D01*
Y00297300D01*
X00339898Y00296471D01*
X00340368Y00295768D01*
X00360118Y00276018D01*
X00360821Y00275548D01*
X00361650Y00275383D01*
X00398400D01*
X00399229Y00275548D01*
X00399932Y00276018D01*
X00412641Y00288727D01*
X00413192Y00288943D01*
X00417455Y00287177D01*
Y00277219D01*
X00417455Y00277219D01*
X00417634Y00276322D01*
X00418142Y00275561D01*
X00421811Y00271892D01*
X00422572Y00271383D01*
X00422572D01*
X00423854Y00270701D01*
X00425650Y00268354D01*
X00426183Y00267067D01*
X00427167Y00266083D01*
X00428454Y00265550D01*
X00429846D01*
X00431133Y00266083D01*
X00431933Y00266883D01*
X00460900D01*
X00461729Y00267048D01*
X00462432Y00267518D01*
X00483182Y00288268D01*
X00483652Y00288971D01*
X00483817Y00289800D01*
Y00297304D01*
X00486654Y00301000D01*
X00488046Y00301000D01*
X00489333Y00301533D01*
X00489955Y00302155D01*
X00496645D01*
X00498750Y00300050D01*
Y00296350D01*
X00498750Y00295550D01*
Y00287350D01*
X00517750D01*
X00517750Y00287350D01*
X00520446Y00288450D01*
X00520446D01*
X00520446Y00288450D01*
X00520771Y00288584D01*
X00521116Y00288653D01*
X00521116Y00288653D01*
X00521408Y00288848D01*
X00521733Y00288983D01*
X00521981Y00289231D01*
X00522273Y00289427D01*
X00522273Y00289427D01*
X00522469Y00289719D01*
X00522717Y00289967D01*
X00522852Y00290292D01*
X00523047Y00290584D01*
X00523047Y00290585D01*
X00523116Y00290929D01*
X00523250Y00291254D01*
X00523250Y00291254D01*
Y00291605D01*
X00523319Y00291950D01*
X00523250Y00292295D01*
X00523250Y00292646D01*
X00523250Y00292646D01*
X00523116Y00292971D01*
X00523047Y00293316D01*
X00523047Y00293316D01*
X00522852Y00293608D01*
X00522717Y00293933D01*
X00522469Y00294181D01*
X00522273Y00294473D01*
X00522273Y00294473D01*
X00521981Y00294669D01*
X00521733Y00294917D01*
X00521408Y00295052D01*
X00521116Y00295247D01*
X00521116Y00295247D01*
X00521116Y00295247D01*
X00520771Y00295315D01*
X00520446Y00295450D01*
X00520446Y00295450D01*
X00517750Y00298833D01*
Y00300050D01*
X00517750Y00300850D01*
Y00308250D01*
X00517750Y00309050D01*
Y00312750D01*
X00517750Y00313550D01*
Y00321750D01*
X00498750D01*
X00498750Y00321750D01*
X00496046Y00320750D01*
X00494654D01*
X00493367Y00320217D01*
X00492383Y00319233D01*
X00491850Y00317946D01*
Y00316554D01*
X00492383Y00315267D01*
X00493367Y00314283D01*
X00494654Y00313750D01*
X00496046D01*
X00497756Y00313118D01*
X00497872Y00308556D01*
X00494832Y00306845D01*
X00489955D01*
X00489333Y00307467D01*
X00488046Y00308000D01*
X00486654Y00308000D01*
X00483817Y00311695D01*
Y00341403D01*
X00487932Y00345518D01*
X00488402Y00346221D01*
X00488567Y00347050D01*
Y00392402D01*
X00491464Y00395300D01*
X00492596D01*
X00493388Y00395628D01*
X00493883Y00395833D01*
X00493883Y00395833D01*
X00494867Y00396817D01*
X00495400Y00398104D01*
Y00399496D01*
X00495400Y00399496D01*
X00494867Y00400783D01*
X00494226Y00401714D01*
X00494348Y00402940D01*
X00495483Y00405799D01*
X00497644Y00405950D01*
X00499000D01*
Y00411105D01*
X00529325D01*
X00529947Y00410483D01*
X00531234Y00409950D01*
X00532626D01*
X00533913Y00410483D01*
X00534897Y00411467D01*
X00535430Y00412754D01*
Y00414146D01*
X00534897Y00415433D01*
X00533913Y00416417D01*
X00532626Y00416950D01*
X00531234D01*
X00529947Y00416417D01*
X00529325Y00415795D01*
X00499000D01*
Y00420950D01*
X00493657D01*
X00489500Y00422469D01*
Y00423862D01*
X00488967Y00425148D01*
X00487983Y00426133D01*
X00486696Y00426665D01*
X00485304D01*
X00484017Y00426133D01*
X00483955Y00426070D01*
X00481551Y00425356D01*
X00478633Y00425767D01*
X00477346Y00426300D01*
X00475954D01*
X00474667Y00425767D01*
X00472983Y00426133D01*
X00471696Y00426665D01*
X00471696Y00426665D01*
X00470304Y00426665D01*
X00470304Y00426665D01*
D02*
G37*
G36*
X00419196Y00391100D02*
X00417804D01*
X00416517Y00390567D01*
X00415533Y00389583D01*
X00415000Y00388296D01*
Y00386904D01*
X00415533Y00385617D01*
X00416517Y00384633D01*
X00417804Y00384100D01*
X00419196D01*
X00420483Y00384633D01*
X00421467Y00385617D01*
X00422000Y00386904D01*
Y00388296D01*
X00421467Y00389583D01*
X00420483Y00390567D01*
X00419196Y00391100D01*
D02*
G37*
G36*
X00309499Y00378183D02*
X00306499D01*
X00305329Y00377950D01*
X00304336Y00377287D01*
X00303673Y00376295D01*
X00303440Y00375124D01*
Y00372124D01*
X00303673Y00370953D01*
X00303541Y00370517D01*
X00302727Y00370179D01*
X00302727Y00370179D01*
X00301742Y00369195D01*
X00301209Y00367909D01*
X00301209Y00367908D01*
X00301209Y00366516D01*
X00301209Y00366516D01*
X00301742Y00365230D01*
X00302727Y00364245D01*
X00302727Y00364245D01*
X00304013Y00363712D01*
X00304013Y00363712D01*
X00304285Y00363712D01*
X00305406D01*
X00306692Y00364245D01*
X00306692D01*
X00307676Y00365230D01*
X00307677Y00365230D01*
X00307781Y00365481D01*
X00308209Y00366516D01*
Y00367648D01*
X00309282Y00368721D01*
X00309514Y00369068D01*
X00310670Y00369298D01*
X00311662Y00369961D01*
X00312325Y00370953D01*
X00312558Y00372124D01*
Y00375124D01*
X00312325Y00376295D01*
X00311662Y00377287D01*
X00310670Y00377950D01*
X00309499Y00378183D01*
D02*
G37*
%LPD*%
G36*
X00399829Y00332691D02*
X00398708Y00327448D01*
X00397271Y00326826D01*
X00396101Y00327059D01*
X00393101D01*
X00391930Y00326826D01*
X00390938Y00326163D01*
X00390275Y00325171D01*
X00390042Y00324000D01*
Y00321000D01*
X00387364Y00319750D01*
X00385745Y00319535D01*
X00380517Y00324764D01*
Y00345640D01*
X00384826Y00347678D01*
X00384841Y00347679D01*
X00399829Y00332691D01*
D02*
G37*
G36*
X00358534Y00349718D02*
X00359237Y00349248D01*
X00360066Y00349083D01*
X00373452D01*
X00376183Y00346353D01*
Y00323866D01*
X00376348Y00323037D01*
X00376818Y00322334D01*
X00383684Y00315468D01*
X00384387Y00314998D01*
X00385216Y00314833D01*
X00406453D01*
X00413943Y00307343D01*
X00414646Y00306873D01*
X00415475Y00306708D01*
X00416104D01*
X00418842Y00303478D01*
X00418264Y00300330D01*
X00417818Y00300032D01*
X00397503Y00279717D01*
X00362547D01*
X00344067Y00298197D01*
Y00303041D01*
X00347054Y00306674D01*
X00348446Y00306674D01*
X00349733Y00307207D01*
X00350836Y00306511D01*
X00351829Y00305848D01*
X00352999Y00305615D01*
X00355999D01*
X00357170Y00305848D01*
X00358162Y00306511D01*
X00359836D01*
X00360829Y00305848D01*
X00361999Y00305615D01*
X00364999D01*
X00366170Y00305848D01*
X00367162Y00306511D01*
X00367825Y00307503D01*
X00368058Y00308674D01*
Y00311674D01*
X00367825Y00312845D01*
X00367162Y00313837D01*
X00366170Y00314500D01*
X00364999Y00314733D01*
X00361999D01*
X00360829Y00314500D01*
X00359836Y00313837D01*
X00358162D01*
X00357170Y00314500D01*
X00355999Y00314733D01*
X00352999D01*
X00351829Y00314500D01*
X00350836Y00313837D01*
X00349733Y00313141D01*
X00348446Y00313674D01*
X00347054Y00313674D01*
X00344067Y00317307D01*
Y00319952D01*
X00346054Y00324000D01*
X00347446D01*
X00348733Y00324533D01*
X00350837Y00324571D01*
X00351829Y00323909D01*
X00353000Y00323676D01*
X00356000D01*
X00357170Y00323909D01*
X00358163Y00324571D01*
X00358826Y00325564D01*
X00359059Y00326734D01*
Y00329734D01*
X00358826Y00330905D01*
X00358163Y00331897D01*
X00357170Y00332560D01*
X00356000Y00332793D01*
X00353000D01*
X00351829Y00332560D01*
X00350837Y00331897D01*
X00350191Y00331458D01*
X00345383Y00332365D01*
X00344067Y00335048D01*
Y00343449D01*
X00349382Y00348765D01*
X00349852Y00349468D01*
X00350017Y00350297D01*
Y00351872D01*
X00354517Y00353736D01*
X00358534Y00349718D01*
D02*
G37*
%LPC*%
G36*
X00399499Y00303933D02*
X00396499D01*
X00395329Y00303700D01*
X00394336Y00303037D01*
X00393162D01*
X00392170Y00303700D01*
X00390999Y00303933D01*
X00387999D01*
X00386829Y00303700D01*
X00385836Y00303037D01*
X00385205Y00302092D01*
X00384952Y00302045D01*
X00380848D01*
X00380594Y00302092D01*
X00379963Y00303037D01*
X00378970Y00303700D01*
X00377800Y00303933D01*
X00374800D01*
X00373629Y00303700D01*
X00372637Y00303037D01*
X00371974Y00302045D01*
X00371741Y00300874D01*
Y00300858D01*
X00371519Y00297719D01*
X00370054Y00296700D01*
X00368767Y00296167D01*
X00368741Y00296141D01*
X00366025Y00295559D01*
X00363309Y00296141D01*
X00363283Y00296167D01*
X00361996Y00296700D01*
X00360604D01*
X00359317Y00296167D01*
X00358333Y00295183D01*
X00357800Y00293896D01*
Y00292504D01*
X00358333Y00291217D01*
X00359317Y00290233D01*
X00360604Y00289700D01*
X00361996D01*
X00363283Y00290233D01*
X00363309Y00290259D01*
X00366025Y00290841D01*
X00368741Y00290259D01*
X00368767Y00290233D01*
X00370054Y00289700D01*
X00371446D01*
X00372733Y00290233D01*
X00373500Y00291000D01*
X00374267Y00290233D01*
X00375554Y00289700D01*
X00376946D01*
X00378233Y00290233D01*
X00379217Y00291217D01*
X00379750Y00292504D01*
Y00293896D01*
X00383458Y00296703D01*
X00384413D01*
X00387750Y00293363D01*
X00387750Y00292504D01*
X00387750Y00292504D01*
X00388283Y00291217D01*
X00388283Y00291217D01*
X00388889Y00290611D01*
X00389267Y00290233D01*
X00389267Y00290233D01*
X00389268Y00290233D01*
X00390554Y00289700D01*
X00391946D01*
X00391946Y00289700D01*
X00393232Y00290233D01*
X00393233D01*
X00394217Y00291217D01*
X00394750Y00292504D01*
X00396015Y00294176D01*
X00398908Y00294815D01*
X00399499D01*
X00400670Y00295048D01*
X00401662Y00295711D01*
X00402325Y00296703D01*
X00402558Y00297874D01*
Y00300874D01*
X00402325Y00302045D01*
X00401662Y00303037D01*
X00400670Y00303700D01*
X00399499Y00303933D01*
D02*
G37*
%LPD*%
D21*
X00389924Y00369201D02*
D03*
X00399924Y00360200D02*
D03*
Y00351950D02*
D03*
X00409576Y00360199D02*
D03*
X00399576Y00369200D02*
D03*
X00409576Y00351949D02*
D03*
D34*
X00308000Y00383276D02*
D03*
X00307999Y00373624D02*
D03*
X00354500Y00319826D02*
D03*
X00354499Y00310174D02*
D03*
X00443599Y00331924D02*
D03*
X00443600Y00341576D02*
D03*
X00370750Y00361124D02*
D03*
X00394602Y00332152D02*
D03*
X00398000Y00309026D02*
D03*
X00389500D02*
D03*
X00376301D02*
D03*
X00332250Y00389202D02*
D03*
X00361750Y00361124D02*
D03*
X00298580Y00387874D02*
D03*
X00354501Y00337886D02*
D03*
X00363500Y00319826D02*
D03*
X00332249Y00379550D02*
D03*
X00376300Y00299374D02*
D03*
X00354500Y00328234D02*
D03*
X00389499Y00299374D02*
D03*
X00298581Y00397526D02*
D03*
X00370751Y00370776D02*
D03*
X00361751D02*
D03*
X00363499Y00310174D02*
D03*
X00397999Y00299374D02*
D03*
X00394601Y00322500D02*
D03*
D76*
X00476325Y00413775D02*
Y00422475D01*
X00476000Y00413450D02*
X00476325Y00413775D01*
Y00422475D02*
X00476650Y00422800D01*
X00471000Y00413450D02*
Y00423165D01*
X00486400Y00393300D02*
X00491900Y00398800D01*
X00486400Y00347050D02*
Y00393300D01*
X00481650Y00342300D02*
X00486400Y00347050D01*
X00429600Y00330500D02*
X00435649Y00336549D01*
X00446394D01*
X00418600Y00330500D02*
X00429600D01*
X00417987Y00353387D02*
X00425400Y00360800D01*
X00446394Y00336549D02*
X00451400Y00331543D01*
X00426059Y00308875D02*
X00427734Y00310550D01*
X00447250D01*
X00451750Y00315050D01*
X00415475Y00308875D02*
X00426059D01*
X00453400Y00325050D02*
X00463650D01*
X00451400Y00327050D02*
Y00331543D01*
Y00327050D02*
X00453400Y00325050D01*
X00429150Y00269050D02*
X00460900D01*
X00481650Y00289800D01*
X00447850Y00298500D02*
X00459300Y00309950D01*
X00341900Y00297300D02*
Y00344347D01*
Y00297300D02*
X00361650Y00277550D01*
X00341900Y00344347D02*
X00347850Y00350297D01*
X00361650Y00277550D02*
X00398400D01*
X00419350Y00298500D01*
X00407350Y00317000D02*
X00415475Y00308875D01*
X00419100Y00322500D02*
X00424350Y00317250D01*
X00413084Y00322500D02*
X00419100D01*
X00385216Y00317000D02*
X00407350D01*
X00424350Y00313000D02*
Y00317250D01*
X00411600Y00337500D02*
X00418600Y00330500D01*
X00481650Y00289800D02*
Y00342300D01*
X00411100Y00345250D02*
X00417987Y00352137D01*
X00399350Y00345250D02*
X00411100D01*
X00417987Y00352137D02*
Y00353387D01*
X00309100Y00418000D02*
X00338600D01*
X00306600Y00415500D02*
X00309100Y00418000D01*
X00401266Y00337500D02*
X00411600D01*
X00383850Y00354916D02*
X00401266Y00337500D01*
X00379350Y00356234D02*
X00413084Y00322500D01*
X00304709Y00367212D02*
X00307750Y00370253D01*
Y00373650D01*
X00332362Y00379625D02*
X00339175D01*
X00332249Y00379512D02*
X00332362Y00379625D01*
X00339175D02*
X00339250Y00379700D01*
X00419350Y00298500D02*
X00447850D01*
X00298283Y00405683D02*
X00298432Y00405533D01*
Y00397675D02*
X00298581Y00397526D01*
X00298432Y00397675D02*
Y00405533D01*
X00290868Y00387874D02*
X00298342D01*
X00451750Y00315050D02*
X00463450D01*
X00360066Y00351250D02*
X00374350D01*
X00353350Y00357966D02*
Y00377500D01*
Y00357966D02*
X00360066Y00351250D01*
X00374350D02*
X00378350Y00347250D01*
X00347850Y00350297D02*
Y00378250D01*
X00383850Y00354916D02*
Y00360000D01*
X00379350Y00356234D02*
Y00356500D01*
X00378350Y00323866D02*
X00385216Y00317000D01*
X00378350Y00323866D02*
Y00347250D01*
X00306600Y00412500D02*
Y00415500D01*
X00363499Y00310174D02*
X00363499Y00310174D01*
X00307750Y00373650D02*
X00308000Y00373900D01*
D77*
X00457900Y00273550D02*
X00473650Y00289300D01*
Y00388300D02*
X00491000Y00405650D01*
Y00413450D01*
X00473650Y00289300D02*
Y00388300D01*
X00456000Y00279150D02*
X00469650Y00292800D01*
Y00392700D02*
X00481000Y00404050D01*
X00469650Y00292800D02*
Y00392700D01*
X00481000Y00404050D02*
Y00413450D01*
X00496398D02*
X00531930D01*
X00425050Y00279150D02*
X00436250D01*
X00456000D01*
X00496000Y00413450D02*
X00496398Y00413052D01*
X00423469Y00273550D02*
X00457900D01*
X00495350Y00317250D02*
X00508250D01*
X00419800Y00277219D02*
Y00292350D01*
Y00277219D02*
X00423469Y00273550D01*
X00419800Y00292350D02*
X00435750D01*
X00436250Y00291850D01*
X00487350Y00304500D02*
X00508200D01*
X00508250Y00304550D01*
D78*
X00485839Y00423165D02*
X00485919Y00423085D01*
X00486000Y00413450D02*
Y00423165D01*
X00354525Y00344075D02*
X00354550Y00344100D01*
X00354501Y00337886D02*
Y00344075D01*
Y00337177D02*
Y00337886D01*
X00332250Y00389202D02*
X00340248D01*
X00354501Y00337152D02*
X00354525Y00337177D01*
X00508250Y00279150D02*
X00519500D01*
X00389500Y00309026D02*
X00398000D01*
X00384026D02*
X00389500D01*
X00376301D02*
Y00314500D01*
X00361750Y00355650D02*
Y00361124D01*
X00370750Y00355650D02*
Y00361124D01*
X00389924Y00360426D02*
Y00369201D01*
X00466000Y00397100D02*
Y00413450D01*
X00456550D02*
X00461000D01*
D79*
X00347051Y00319883D02*
X00347079Y00319854D01*
X00354472D01*
X00354500Y00319826D01*
X00363500D01*
X00376300Y00293250D02*
Y00299374D01*
X00396300Y00298523D02*
Y00300700D01*
X00415594Y00362450D02*
X00416000D01*
X00414939Y00361795D02*
X00415594Y00362450D01*
X00411172Y00361795D02*
X00414939D01*
X00394601Y00322500D02*
X00400850D01*
X00409576Y00360199D02*
X00411172Y00361795D01*
X00409576Y00351949D02*
Y00360199D01*
X00391300Y00293250D02*
Y00300700D01*
X00399576Y00369200D02*
X00405500D01*
X00347750Y00310174D02*
X00363499D01*
X00346750Y00327500D02*
X00352999D01*
X00366250Y00378503D02*
Y00379450D01*
X00363346Y00372372D02*
Y00375599D01*
X00366250Y00378503D01*
X00369155Y00372372D02*
Y00375598D01*
Y00372372D02*
X00370751Y00370776D01*
X00366250Y00378503D02*
X00369155Y00375598D01*
X00361751Y00370776D02*
X00363346Y00372372D01*
D80*
X00425250Y00304700D02*
X00436100D01*
X00508350Y00291950D02*
X00519750D01*
D81*
X00476650Y00422800D02*
D03*
X00486000Y00423165D02*
D03*
X00471000D02*
D03*
X00491900Y00398800D02*
D03*
X00477955Y00375039D02*
D03*
X00347051Y00319883D02*
D03*
X00434151Y00340392D02*
D03*
X00428350Y00351625D02*
D03*
X00425400Y00360800D02*
D03*
X00463650Y00334950D02*
D03*
X00430226Y00314675D02*
D03*
X00459300Y00329950D02*
D03*
X00531930Y00413450D02*
D03*
X00527379Y00258550D02*
D03*
X00533414D02*
D03*
X00527519Y00429450D02*
D03*
X00533484D02*
D03*
X00376250Y00293200D02*
D03*
X00459300Y00289950D02*
D03*
X00429150Y00269050D02*
D03*
X00396300Y00298523D02*
D03*
X00459300Y00299950D02*
D03*
X00463650Y00295050D02*
D03*
X00425050Y00279150D02*
D03*
X00361300Y00293200D02*
D03*
X00370750Y00293200D02*
D03*
X00415600Y00317500D02*
D03*
Y00327500D02*
D03*
X00463650Y00325050D02*
D03*
X00459300Y00309950D02*
D03*
X00463650Y00315050D02*
D03*
Y00305050D02*
D03*
X00440130Y00363320D02*
D03*
X00480500Y00363700D02*
D03*
X00416000Y00362450D02*
D03*
X00317770Y00307891D02*
D03*
X00312781Y00306209D02*
D03*
X00307503Y00308123D02*
D03*
X00226301Y00273546D02*
D03*
X00220906Y00274800D02*
D03*
X00221345Y00281638D02*
D03*
X00221839Y00312617D02*
D03*
X00220237Y00307748D02*
D03*
X00221198Y00302143D02*
D03*
X00283900Y00307050D02*
D03*
X00290846Y00309304D02*
D03*
X00322733Y00333628D02*
D03*
X00273406Y00285690D02*
D03*
X00320790Y00311372D02*
D03*
X00272950Y00312741D02*
D03*
X00236844Y00354912D02*
D03*
X00258810Y00335312D02*
D03*
X00237593Y00360865D02*
D03*
X00225372Y00298780D02*
D03*
X00328733Y00333628D02*
D03*
X00250183Y00343644D02*
D03*
X00304734Y00333628D02*
D03*
X00231975Y00327190D02*
D03*
X00228527Y00322279D02*
D03*
X00310733Y00333690D02*
D03*
X00280753Y00333628D02*
D03*
X00264413Y00333166D02*
D03*
X00225554Y00292783D02*
D03*
X00254357Y00339334D02*
D03*
X00247295Y00268323D02*
D03*
X00302790Y00311431D02*
D03*
X00326790Y00311372D02*
D03*
X00252575Y00292106D02*
D03*
X00225372Y00286786D02*
D03*
X00255196Y00312184D02*
D03*
X00259048Y00266382D02*
D03*
X00247628Y00301244D02*
D03*
X00292752Y00333628D02*
D03*
X00273569Y00279693D02*
D03*
X00235295Y00268258D02*
D03*
X00241295Y00268323D02*
D03*
X00266952Y00312890D02*
D03*
X00273469Y00273694D02*
D03*
X00286753Y00333693D02*
D03*
X00247693Y00307244D02*
D03*
X00278792Y00311372D02*
D03*
X00253053Y00266638D02*
D03*
X00247463Y00295247D02*
D03*
X00218309Y00338493D02*
D03*
X00221875Y00333668D02*
D03*
X00239936Y00349770D02*
D03*
X00226288Y00316713D02*
D03*
X00261143Y00311387D02*
D03*
X00229566Y00270040D02*
D03*
X00316733Y00333628D02*
D03*
X00249257Y00313036D02*
D03*
X00237582Y00366865D02*
D03*
X00296790Y00311449D02*
D03*
X00258561Y00292520D02*
D03*
X00245369Y00347225D02*
D03*
X00226891Y00330376D02*
D03*
X00274781Y00333045D02*
D03*
X00298743Y00333292D02*
D03*
X00340248Y00389202D02*
D03*
X00326750Y00349150D02*
D03*
X00318801Y00349324D02*
D03*
X00311000Y00349150D02*
D03*
X00334049Y00413083D02*
D03*
X00498350Y00351500D02*
D03*
X00425500Y00335450D02*
D03*
X00424350Y00313000D02*
D03*
X00338500Y00379550D02*
D03*
X00419800Y00292350D02*
D03*
X00354501Y00344100D02*
D03*
X00298283Y00405683D02*
D03*
X00290630Y00387874D02*
D03*
X00480500Y00270950D02*
D03*
X00355900Y00389450D02*
D03*
X00314150Y00274550D02*
D03*
X00412850Y00412000D02*
D03*
X00401300Y00413700D02*
D03*
X00386300D02*
D03*
X00466000Y00397100D02*
D03*
X00519500Y00279150D02*
D03*
X00384026Y00309026D02*
D03*
X00376301Y00314500D02*
D03*
X00361750Y00355650D02*
D03*
X00370750D02*
D03*
X00389924Y00360426D02*
D03*
X00520300Y00373700D02*
D03*
X00336850Y00296500D02*
D03*
X00347850Y00378250D02*
D03*
X00353350Y00377500D02*
D03*
X00399350Y00345250D02*
D03*
X00436851Y00258550D02*
D03*
X00430816D02*
D03*
X00442886D02*
D03*
X00479794Y00429450D02*
D03*
X00473829D02*
D03*
X00456550Y00413450D02*
D03*
X00383100Y00324950D02*
D03*
Y00334950D02*
D03*
Y00344950D02*
D03*
X00379350Y00356500D02*
D03*
X00383850Y00360000D02*
D03*
X00306600Y00412500D02*
D03*
X00338600Y00418000D02*
D03*
X00487350Y00304500D02*
D03*
X00495350Y00317250D02*
D03*
X00400850Y00322500D02*
D03*
X00425250Y00304700D02*
D03*
X00418500Y00387600D02*
D03*
X00519750Y00291950D02*
D03*
X00321800Y00384550D02*
D03*
X00311800Y00384550D02*
D03*
X00311800Y00394550D02*
D03*
X00321800Y00394550D02*
D03*
X00503656Y00429450D02*
D03*
X00497691D02*
D03*
X00509622D02*
D03*
X00485760D02*
D03*
X00491725D02*
D03*
X00539450Y00429450D02*
D03*
X00539450Y00423346D02*
D03*
X00515587Y00429450D02*
D03*
X00521553D02*
D03*
X00455932D02*
D03*
X00461898D02*
D03*
X00444001D02*
D03*
X00449966D02*
D03*
X00467863D02*
D03*
X00539450Y00380621D02*
D03*
Y00386725D02*
D03*
Y00374518D02*
D03*
Y00398932D02*
D03*
Y00392828D02*
D03*
Y00356207D02*
D03*
Y00350103D02*
D03*
Y00368414D02*
D03*
Y00362311D02*
D03*
Y00411139D02*
D03*
Y00405036D02*
D03*
Y00417243D02*
D03*
X00414173Y00429450D02*
D03*
X00408208D02*
D03*
X00420139D02*
D03*
X00396276D02*
D03*
X00402242D02*
D03*
X00432070D02*
D03*
X00438035D02*
D03*
X00426104D02*
D03*
X00378380D02*
D03*
X00384345D02*
D03*
X00366449D02*
D03*
X00372414D02*
D03*
X00390311D02*
D03*
X00364500Y00344950D02*
D03*
X00373800D02*
D03*
X00539450Y00313482D02*
D03*
Y00319586D02*
D03*
Y00307379D02*
D03*
Y00331793D02*
D03*
Y00325689D02*
D03*
Y00289068D02*
D03*
Y00282964D02*
D03*
Y00301275D02*
D03*
Y00295171D02*
D03*
Y00344000D02*
D03*
Y00337896D02*
D03*
Y00270757D02*
D03*
Y00276861D02*
D03*
Y00264654D02*
D03*
X00497203Y00258550D02*
D03*
X00503238D02*
D03*
X00521343D02*
D03*
X00539449D02*
D03*
X00509273D02*
D03*
X00515308D02*
D03*
X00460992D02*
D03*
X00467027D02*
D03*
X00448922D02*
D03*
X00454957D02*
D03*
X00485132D02*
D03*
X00491168D02*
D03*
X00473062D02*
D03*
X00479097D02*
D03*
X00373800Y00334950D02*
D03*
X00364500D02*
D03*
Y00324950D02*
D03*
X00373800D02*
D03*
X00412710Y00258550D02*
D03*
X00418746D02*
D03*
X00400640D02*
D03*
X00406675D02*
D03*
X00424781D02*
D03*
X00364429D02*
D03*
X00370464D02*
D03*
X00388570D02*
D03*
X00394605D02*
D03*
X00376499D02*
D03*
X00382535D02*
D03*
X00354518Y00429450D02*
D03*
X00348552D02*
D03*
X00360483D02*
D03*
X00336621D02*
D03*
X00342587D02*
D03*
X00338500Y00399450D02*
D03*
X00324690Y00429450D02*
D03*
X00330655D02*
D03*
X00312759D02*
D03*
X00318724D02*
D03*
X00316800Y00389550D02*
D03*
X00300828Y00429450D02*
D03*
X00294862D02*
D03*
X00306793D02*
D03*
X00282931D02*
D03*
X00288897D02*
D03*
X00276966D02*
D03*
X00271000Y00416683D02*
D03*
Y00429450D02*
D03*
Y00423067D02*
D03*
Y00397533D02*
D03*
Y00391150D02*
D03*
Y00410300D02*
D03*
Y00403917D02*
D03*
Y00384767D02*
D03*
Y00378383D02*
D03*
X00265000Y00372000D02*
D03*
X00271000D02*
D03*
X00253000D02*
D03*
X00259000D02*
D03*
X00241000D02*
D03*
X00247000D02*
D03*
X00235000D02*
D03*
X00213550Y00372000D02*
D03*
Y00353091D02*
D03*
Y00346789D02*
D03*
Y00365697D02*
D03*
Y00359394D02*
D03*
X00328218Y00258550D02*
D03*
X00334253D02*
D03*
X00322183D02*
D03*
X00352359D02*
D03*
X00358394D02*
D03*
X00340289D02*
D03*
X00346324D02*
D03*
X00292007D02*
D03*
X00285972D02*
D03*
X00310113D02*
D03*
X00316148D02*
D03*
X00298042D02*
D03*
X00304077D02*
D03*
X00213550Y00290064D02*
D03*
Y00283761D02*
D03*
Y00327880D02*
D03*
Y00321578D02*
D03*
Y00340486D02*
D03*
Y00334183D02*
D03*
Y00302669D02*
D03*
Y00296367D02*
D03*
Y00315275D02*
D03*
Y00308972D02*
D03*
X00249761Y00258550D02*
D03*
X00255796D02*
D03*
X00237691D02*
D03*
X00243726D02*
D03*
X00273902D02*
D03*
X00279937D02*
D03*
X00261831D02*
D03*
X00267866D02*
D03*
X00213550Y00264853D02*
D03*
Y00277458D02*
D03*
Y00271155D02*
D03*
X00225620Y00258550D02*
D03*
X00231656D02*
D03*
X00213550D02*
D03*
X00219585D02*
D03*
X00391250Y00293200D02*
D03*
X00405500Y00369200D02*
D03*
X00347750Y00310174D02*
D03*
X00346750Y00327500D02*
D03*
X00304709Y00367212D02*
D03*
X00366250Y00379450D02*
D03*
D82*
X00441700Y00394850D02*
D03*
X00515300D02*
D03*
D83*
X00496000Y00413450D02*
D03*
X00491000D02*
D03*
X00486000D02*
D03*
X00481000D02*
D03*
X00476000D02*
D03*
X00471000D02*
D03*
X00466000D02*
D03*
X00461000D02*
D03*
D84*
X00508250Y00279150D02*
D03*
X00436250Y00317250D02*
D03*
Y00304550D02*
D03*
Y00291850D02*
D03*
Y00279150D02*
D03*
X00508250Y00291850D02*
D03*
Y00304550D02*
D03*
Y00317250D02*
D03*
D85*
X00436496Y00317496D02*
Y00324821D01*
X00443599Y00331924D01*
X00436250Y00317250D02*
X00436496Y00317496D01*
M02*
