G04*
G04 #@! TF.GenerationSoftware,Altium Limited,Altium Designer,23.3.1 (30)*
G04*
G04 Layer_Color=16711935*
%FSAX44Y44*%
%MOMM*%
G71*
G04*
G04 #@! TF.SameCoordinates,E4202109-5C2D-4CF9-8B46-EFF2A95DF25D*
G04*
G04*
G04 #@! TF.FilePolarity,Negative*
G04*
G01*
G75*
G04:AMPARAMS|DCode=63|XSize=0.7mm|YSize=0.7mm|CornerRadius=0.2mm|HoleSize=0mm|Usage=FLASHONLY|Rotation=90.000|XOffset=0mm|YOffset=0mm|HoleType=Round|Shape=RoundedRectangle|*
%AMROUNDEDRECTD63*
21,1,0.7000,0.3000,0,0,90.0*
21,1,0.3000,0.7000,0,0,90.0*
1,1,0.4000,0.1500,0.1500*
1,1,0.4000,0.1500,-0.1500*
1,1,0.4000,-0.1500,-0.1500*
1,1,0.4000,-0.1500,0.1500*
%
%ADD63ROUNDEDRECTD63*%
G04:AMPARAMS|DCode=65|XSize=0.7mm|YSize=0.7mm|CornerRadius=0.2mm|HoleSize=0mm|Usage=FLASHONLY|Rotation=180.000|XOffset=0mm|YOffset=0mm|HoleType=Round|Shape=RoundedRectangle|*
%AMROUNDEDRECTD65*
21,1,0.7000,0.3000,0,0,180.0*
21,1,0.3000,0.7000,0,0,180.0*
1,1,0.4000,-0.1500,0.1500*
1,1,0.4000,0.1500,0.1500*
1,1,0.4000,0.1500,-0.1500*
1,1,0.4000,-0.1500,-0.1500*
%
%ADD65ROUNDEDRECTD65*%
%ADD86R,2.7500X3.0500*%
%ADD87R,0.3500X1.2500*%
%ADD88R,1.6500X0.6500*%
G36*
X00269000Y00434000D02*
X00544150D01*
Y00254050D01*
X00209000D01*
Y00374000D01*
X00208998D01*
Y00434001D01*
X00269000D01*
Y00434000D01*
D02*
G37*
%LPC*%
G36*
X00535917Y00426050D02*
X00274600D01*
Y00368400D01*
X00239000D01*
Y00374000D01*
X00217250Y00374000D01*
Y00262250D01*
X00535917D01*
Y00426050D01*
D02*
G37*
%LPD*%
D63*
X00308000Y00383276D02*
D03*
X00307999Y00373624D02*
D03*
X00354500Y00319826D02*
D03*
X00354499Y00310174D02*
D03*
X00443599Y00331924D02*
D03*
X00443600Y00341576D02*
D03*
X00370750Y00361124D02*
D03*
X00394602Y00332152D02*
D03*
X00398000Y00309026D02*
D03*
X00389500D02*
D03*
X00376301D02*
D03*
X00332250Y00389202D02*
D03*
X00361750Y00361124D02*
D03*
X00298580Y00387874D02*
D03*
X00354501Y00337886D02*
D03*
X00363500Y00319826D02*
D03*
X00332249Y00379550D02*
D03*
X00376300Y00299374D02*
D03*
X00354500Y00328234D02*
D03*
X00389499Y00299374D02*
D03*
X00298581Y00397526D02*
D03*
X00370751Y00370776D02*
D03*
X00361751D02*
D03*
X00363499Y00310174D02*
D03*
X00397999Y00299374D02*
D03*
X00394601Y00322500D02*
D03*
D65*
X00389924Y00369201D02*
D03*
X00399924Y00360200D02*
D03*
Y00351950D02*
D03*
X00409576Y00360199D02*
D03*
X00399576Y00369200D02*
D03*
X00409576Y00351949D02*
D03*
D86*
X00441700Y00394850D02*
D03*
X00515300D02*
D03*
D87*
X00496000Y00413450D02*
D03*
X00491000D02*
D03*
X00486000D02*
D03*
X00481000D02*
D03*
X00476000D02*
D03*
X00471000D02*
D03*
X00466000D02*
D03*
X00461000D02*
D03*
D88*
X00508250Y00279150D02*
D03*
X00436250Y00317250D02*
D03*
Y00304550D02*
D03*
Y00291850D02*
D03*
Y00279150D02*
D03*
X00508250Y00291850D02*
D03*
Y00304550D02*
D03*
Y00317250D02*
D03*
M02*
