G04*
G04 #@! TF.GenerationSoftware,Altium Limited,Altium Designer,23.3.1 (30)*
G04*
G04 Layer_Physical_Order=2*
G04 Layer_Color=16711680*
%FSAX44Y44*%
%MOMM*%
G71*
G04*
G04 #@! TF.SameCoordinates,7327C3A3-A75D-4357-90E6-FA600F46672C*
G04*
G04*
G04 #@! TF.FilePolarity,Positive*
G04*
G01*
G75*
%ADD214C,0.3000*%
%ADD215R,1.5300X1.5300*%
%ADD216C,1.5300*%
%ADD217O,1.8000X2.4000*%
G04:AMPARAMS|DCode=218|XSize=1.8mm|YSize=2.4mm|CornerRadius=0mm|HoleSize=0mm|Usage=FLASHONLY|Rotation=216.021|XOffset=0mm|YOffset=0mm|HoleType=Round|Shape=Round|*
%AMOVALD218*
21,1,0.6000,1.8000,0.0000,0.0000,306.021*
1,1,1.8000,-0.1764,0.2426*
1,1,1.8000,0.1764,-0.2426*
%
%ADD218OVALD218*%

G04:AMPARAMS|DCode=219|XSize=1.8mm|YSize=2.4mm|CornerRadius=0mm|HoleSize=0mm|Usage=FLASHONLY|Rotation=71.962|XOffset=0mm|YOffset=0mm|HoleType=Round|Shape=Round|*
%AMOVALD219*
21,1,0.6000,1.8000,0.0000,0.0000,161.962*
1,1,1.8000,0.2853,-0.0929*
1,1,1.8000,-0.2853,0.0929*
%
%ADD219OVALD219*%

G04:AMPARAMS|DCode=220|XSize=1.8mm|YSize=2.4mm|CornerRadius=0mm|HoleSize=0mm|Usage=FLASHONLY|Rotation=287.828|XOffset=0mm|YOffset=0mm|HoleType=Round|Shape=Round|*
%AMOVALD220*
21,1,0.6000,1.8000,0.0000,0.0000,17.828*
1,1,1.8000,-0.2856,-0.0919*
1,1,1.8000,0.2856,0.0919*
%
%ADD220OVALD220*%

G04:AMPARAMS|DCode=221|XSize=1.8mm|YSize=2.4mm|CornerRadius=0mm|HoleSize=0mm|Usage=FLASHONLY|Rotation=143.903|XOffset=0mm|YOffset=0mm|HoleType=Round|Shape=Round|*
%AMOVALD221*
21,1,0.6000,1.8000,0.0000,0.0000,233.903*
1,1,1.8000,0.1767,0.2424*
1,1,1.8000,-0.1767,-0.2424*
%
%ADD221OVALD221*%

G04:AMPARAMS|DCode=222|XSize=1.8mm|YSize=2.4mm|CornerRadius=0mm|HoleSize=0mm|Usage=FLASHONLY|Rotation=215.897|XOffset=0mm|YOffset=0mm|HoleType=Round|Shape=Round|*
%AMOVALD222*
21,1,0.6000,1.8000,0.0000,0.0000,305.897*
1,1,1.8000,-0.1759,0.2430*
1,1,1.8000,0.1759,-0.2430*
%
%ADD222OVALD222*%

G04:AMPARAMS|DCode=223|XSize=1.8mm|YSize=2.4mm|CornerRadius=0mm|HoleSize=0mm|Usage=FLASHONLY|Rotation=71.912|XOffset=0mm|YOffset=0mm|HoleType=Round|Shape=Round|*
%AMOVALD223*
21,1,0.6000,1.8000,0.0000,0.0000,161.912*
1,1,1.8000,0.2852,-0.0931*
1,1,1.8000,-0.2852,0.0931*
%
%ADD223OVALD223*%

G04:AMPARAMS|DCode=224|XSize=1.8mm|YSize=2.4mm|CornerRadius=0mm|HoleSize=0mm|Usage=FLASHONLY|Rotation=287.883|XOffset=0mm|YOffset=0mm|HoleType=Round|Shape=Round|*
%AMOVALD224*
21,1,0.6000,1.8000,0.0000,0.0000,17.883*
1,1,1.8000,-0.2855,-0.0921*
1,1,1.8000,0.2855,0.0921*
%
%ADD224OVALD224*%

G04:AMPARAMS|DCode=225|XSize=1.8mm|YSize=2.4mm|CornerRadius=0mm|HoleSize=0mm|Usage=FLASHONLY|Rotation=143.903|XOffset=0mm|YOffset=0mm|HoleType=Round|Shape=Round|*
%AMOVALD225*
21,1,0.6000,1.8000,0.0000,0.0000,233.903*
1,1,1.8000,0.1767,0.2424*
1,1,1.8000,-0.1767,-0.2424*
%
%ADD225OVALD225*%

%ADD226C,5.0000*%
%ADD227R,1.5600X1.5600*%
%ADD228C,1.5600*%
%ADD229C,0.6000*%
G36*
X00667009Y01256547D02*
X00691577Y01254614D01*
X00716049Y01251717D01*
X00740388Y01247862D01*
X00764558Y01243055D01*
X00788520Y01237302D01*
X00812238Y01230613D01*
X00835676Y01222997D01*
X00858795Y01214468D01*
X00881562Y01205038D01*
X00903942Y01194720D01*
X00925899Y01183533D01*
X00947400Y01171491D01*
X00968412Y01158615D01*
X00988902Y01144925D01*
X01008838Y01130440D01*
X01028191Y01115183D01*
X01046930Y01099179D01*
X01065026Y01082451D01*
X01082451Y01065026D01*
X01099179Y01046930D01*
X01115183Y01028191D01*
X01130440Y01008838D01*
X01144924Y00988902D01*
X01158616Y00968411D01*
X01171491Y00947400D01*
X01183533Y00925899D01*
X01194720Y00903942D01*
X01205038Y00881562D01*
X01214468Y00858795D01*
X01222998Y00835675D01*
X01230613Y00812238D01*
X01237302Y00788520D01*
X01243055Y00764558D01*
X01247862Y00740388D01*
X01251717Y00716048D01*
X01254614Y00691577D01*
X01256547Y00667009D01*
X01257515Y00642385D01*
Y00630064D01*
Y00617742D01*
X01256547Y00593118D01*
X01254614Y00568550D01*
X01251717Y00544078D01*
X01247862Y00519739D01*
X01243055Y00495569D01*
X01237302Y00471607D01*
X01230613Y00447889D01*
X01222997Y00424451D01*
X01214468Y00401332D01*
X01205038Y00378565D01*
X01194720Y00356185D01*
X01183533Y00334228D01*
X01171491Y00312727D01*
X01158615Y00291715D01*
X01144925Y00271225D01*
X01130440Y00251289D01*
X01115183Y00231936D01*
X01099179Y00213197D01*
X01082451Y00195101D01*
X01065026Y00177676D01*
X01046930Y00160948D01*
X01028191Y00144944D01*
X01008838Y00129687D01*
X00988902Y00115203D01*
X00968411Y00101511D01*
X00947400Y00088636D01*
X00925899Y00076594D01*
X00903942Y00065407D01*
X00881562Y00055089D01*
X00858795Y00045659D01*
X00835675Y00037129D01*
X00812238Y00029514D01*
X00788520Y00022825D01*
X00764558Y00017072D01*
X00740388Y00012265D01*
X00716048Y00008410D01*
X00691577Y00005513D01*
X00667009Y00003580D01*
X00642385Y00002612D01*
X00630064Y00002612D01*
X00617742D01*
X00593118Y00003580D01*
X00568550Y00005513D01*
X00544078Y00008410D01*
X00519739Y00012265D01*
X00495569Y00017072D01*
X00471607Y00022825D01*
X00447889Y00029514D01*
X00424451Y00037130D01*
X00401332Y00045659D01*
X00378565Y00055089D01*
X00356185Y00065407D01*
X00334228Y00076594D01*
X00312727Y00088636D01*
X00291715Y00101511D01*
X00271225Y00115202D01*
X00251289Y00129687D01*
X00231936Y00144944D01*
X00213197Y00160948D01*
X00195101Y00177676D01*
X00177676Y00195101D01*
X00160948Y00213197D01*
X00144944Y00231936D01*
X00129687Y00251289D01*
X00115203Y00271225D01*
X00101511Y00291716D01*
X00088636Y00312727D01*
X00076594Y00334228D01*
X00065407Y00356185D01*
X00055089Y00378565D01*
X00045659Y00401332D01*
X00037129Y00424452D01*
X00029514Y00447889D01*
X00022825Y00471607D01*
X00017072Y00495569D01*
X00012265Y00519739D01*
X00008410Y00544079D01*
X00005513Y00568550D01*
X00003580Y00593118D01*
X00002612Y00617742D01*
X00002612Y00630064D01*
Y00642385D01*
X00003580Y00667009D01*
X00005513Y00691577D01*
X00008410Y00716049D01*
X00012265Y00740388D01*
X00017072Y00764558D01*
X00022825Y00788520D01*
X00029514Y00812238D01*
X00037130Y00835676D01*
X00045659Y00858795D01*
X00055089Y00881562D01*
X00065407Y00903942D01*
X00076594Y00925899D01*
X00088636Y00947400D01*
X00101511Y00968412D01*
X00115202Y00988902D01*
X00129687Y01008838D01*
X00144944Y01028191D01*
X00160948Y01046930D01*
X00177676Y01065026D01*
X00195101Y01082451D01*
X00213197Y01099179D01*
X00231936Y01115183D01*
X00251289Y01130440D01*
X00271225Y01144924D01*
X00291716Y01158616D01*
X00312727Y01171491D01*
X00334228Y01183533D01*
X00356185Y01194720D01*
X00378565Y01205038D01*
X00401332Y01214468D01*
X00424452Y01222998D01*
X00447889Y01230613D01*
X00471607Y01237302D01*
X00495569Y01243055D01*
X00519739Y01247862D01*
X00544079Y01251717D01*
X00568550Y01254614D01*
X00593118Y01256547D01*
X00617742Y01257515D01*
X00642385D01*
X00667009Y01256547D01*
D02*
G37*
%LPC*%
G36*
X00644870Y01199225D02*
X00644447Y01199169D01*
X00635870D01*
X00635090Y01199014D01*
X00634428Y01198572D01*
X00634240Y01198291D01*
X00632510Y01197362D01*
X00630971Y01196858D01*
X00628831Y01196654D01*
X00627417Y01197739D01*
X00624742Y01198847D01*
X00621870Y01199225D01*
X00618998Y01198847D01*
X00616323Y01197739D01*
X00614025Y01195975D01*
X00613319Y01195056D01*
X00611868Y01194643D01*
X00608872D01*
X00607421Y01195056D01*
X00606715Y01195975D01*
X00604417Y01197739D01*
X00601741Y01198847D01*
X00598870Y01199225D01*
X00595998Y01198847D01*
X00593322Y01197739D01*
X00591025Y01195975D01*
X00589262Y01193678D01*
X00588153Y01191002D01*
X00587775Y01188130D01*
Y01182130D01*
X00588153Y01179259D01*
X00589262Y01176583D01*
X00591025Y01174285D01*
X00593322Y01172522D01*
X00595998Y01171413D01*
X00598870Y01171035D01*
X00601741Y01171413D01*
X00604417Y01172522D01*
X00606715Y01174285D01*
X00607421Y01175204D01*
X00608872Y01175618D01*
X00611868D01*
X00613319Y01175204D01*
X00614025Y01174285D01*
X00616323Y01172522D01*
X00618998Y01171413D01*
X00621870Y01171035D01*
X00624742Y01171413D01*
X00626193Y01172014D01*
X00630607Y01170755D01*
X00631855Y01169624D01*
X00631730Y01167163D01*
X00618804Y01154237D01*
X00618362Y01153576D01*
X00618207Y01152795D01*
Y01068314D01*
X00618207Y01068314D01*
X00618362Y01067533D01*
X00618804Y01066872D01*
X00618804Y01066872D01*
X00626522Y01059154D01*
X00627184Y01058712D01*
X00627964Y01058556D01*
X00657964D01*
X00658745Y01058712D01*
X00659406Y01059154D01*
X00659848Y01059815D01*
X00660004Y01060595D01*
Y01125419D01*
X00659848Y01126199D01*
X00659406Y01126861D01*
X00658745Y01127303D01*
X00657964Y01127458D01*
X00645091D01*
X00641285Y01131264D01*
X00641285Y01137574D01*
X00655312Y01151601D01*
X00655754Y01152262D01*
X00655909Y01153043D01*
X00655909Y01181707D01*
X00655965Y01182130D01*
Y01188130D01*
X00655909Y01188553D01*
X00655909Y01197130D01*
X00655909Y01197130D01*
X00655754Y01197911D01*
X00655312Y01198572D01*
X00654650Y01199014D01*
X00653870Y01199169D01*
X00653870Y01199169D01*
X00651754Y01199169D01*
X00645293D01*
X00644870Y01199225D01*
D02*
G37*
G36*
X00526532Y01215490D02*
X00521810D01*
X00517146Y01214751D01*
X00512655Y01213292D01*
X00508448Y01211148D01*
X00504627Y01208373D01*
X00501288Y01205034D01*
X00498513Y01201214D01*
X00496369Y01197006D01*
X00494910Y01192515D01*
X00494171Y01187851D01*
Y01183129D01*
X00494910Y01178465D01*
X00496369Y01173974D01*
X00498513Y01169767D01*
X00501288Y01165946D01*
X00504627Y01162607D01*
X00508448Y01159832D01*
X00512655Y01157688D01*
X00517146Y01156229D01*
X00521810Y01155490D01*
X00526532D01*
X00531196Y01156229D01*
X00535687Y01157688D01*
X00539894Y01159832D01*
X00543715Y01162607D01*
X00547054Y01165946D01*
X00549829Y01169767D01*
X00551973Y01173974D01*
X00553432Y01178465D01*
X00554171Y01183129D01*
Y01187851D01*
X00553432Y01192515D01*
X00551973Y01197006D01*
X00549829Y01201214D01*
X00547054Y01205034D01*
X00543715Y01208373D01*
X00539894Y01211148D01*
X00535687Y01213292D01*
X00531196Y01214751D01*
X00526532Y01215490D01*
D02*
G37*
G36*
X00721527Y01215064D02*
X00716805D01*
X00712141Y01214325D01*
X00707650Y01212866D01*
X00703443Y01210723D01*
X00699622Y01207947D01*
X00696283Y01204608D01*
X00693508Y01200788D01*
X00691364Y01196580D01*
X00689905Y01192089D01*
X00689166Y01187425D01*
Y01182703D01*
X00689905Y01178039D01*
X00691364Y01173548D01*
X00693508Y01169341D01*
X00696283Y01165520D01*
X00699622Y01162181D01*
X00703443Y01159406D01*
X00707650Y01157262D01*
X00712141Y01155803D01*
X00716805Y01155064D01*
X00721527D01*
X00726191Y01155803D01*
X00730682Y01157262D01*
X00734890Y01159406D01*
X00738710Y01162181D01*
X00742049Y01165520D01*
X00744825Y01169341D01*
X00746968Y01173548D01*
X00748428Y01178039D01*
X00749166Y01182703D01*
Y01187425D01*
X00748428Y01192089D01*
X00746968Y01196580D01*
X00744825Y01200788D01*
X00742049Y01204608D01*
X00738710Y01207947D01*
X00734890Y01210723D01*
X00730682Y01212866D01*
X00726191Y01214325D01*
X00721527Y01215064D01*
D02*
G37*
G36*
X00402652Y01175631D02*
X00397930D01*
X00393266Y01174892D01*
X00388775Y01173433D01*
X00384567Y01171289D01*
X00380747Y01168514D01*
X00377408Y01165175D01*
X00374632Y01161354D01*
X00372489Y01157147D01*
X00371029Y01152656D01*
X00370291Y01147992D01*
Y01143270D01*
X00371029Y01138606D01*
X00372489Y01134115D01*
X00374632Y01129908D01*
X00377408Y01126087D01*
X00380747Y01122748D01*
X00384567Y01119973D01*
X00388775Y01117829D01*
X00393266Y01116370D01*
X00397930Y01115631D01*
X00402652D01*
X00407316Y01116370D01*
X00411807Y01117829D01*
X00416014Y01119973D01*
X00419834Y01122748D01*
X00423173Y01126087D01*
X00425949Y01129908D01*
X00428093Y01134115D01*
X00429552Y01138606D01*
X00430291Y01143270D01*
Y01147992D01*
X00429552Y01152656D01*
X00428093Y01157147D01*
X00425949Y01161354D01*
X00423173Y01165175D01*
X00419834Y01168514D01*
X00416014Y01171289D01*
X00411807Y01173433D01*
X00407316Y01174892D01*
X00402652Y01175631D01*
D02*
G37*
G36*
X00952323Y01103543D02*
X00951576Y01103269D01*
X00951576Y01103269D01*
X00950991Y01102729D01*
X00950991D01*
X00949744Y01101020D01*
X00893232Y01023514D01*
X00893232Y01023514D01*
X00892898Y01022792D01*
X00892865Y01021997D01*
X00901630Y00966045D01*
X00901904Y00965298D01*
X00902443Y00964713D01*
X00902444Y00964712D01*
X00924974Y00948285D01*
X00926684Y00947038D01*
X00926684Y00947038D01*
X00927406Y00946704D01*
X00928201Y00946671D01*
X00928948Y00946945D01*
X00929533Y00947484D01*
X00929533D01*
X00930780Y00949194D01*
X00958402Y00987077D01*
X00958402Y00987077D01*
X00958736Y00987799D01*
X00958769Y00988594D01*
X00955486Y01009552D01*
X00948227Y01055891D01*
X00954658Y01064711D01*
X00960151Y01063758D01*
X00960180Y01063658D01*
X00961689Y01061186D01*
X00963787Y01059188D01*
X00966330Y01057802D01*
X00969145Y01057121D01*
X00972040Y01057192D01*
X00973152Y01057519D01*
X00974568Y01056998D01*
X00976989Y01055233D01*
X00977918Y01054044D01*
X00977946Y01052886D01*
X00978764Y01050107D01*
X00980274Y01047635D01*
X00982371Y01045638D01*
X00984914Y01044252D01*
X00987729Y01043571D01*
X00990625Y01043642D01*
X00993403Y01044460D01*
X00995875Y01045969D01*
X00997873Y01048066D01*
X01001408Y01052915D01*
X01002794Y01055458D01*
X01003475Y01058273D01*
X01003404Y01061168D01*
X01002586Y01063947D01*
X01001077Y01066419D01*
X00998979Y01068416D01*
X00996436Y01069802D01*
X00993621Y01070483D01*
X00990725Y01070412D01*
X00989614Y01070085D01*
X00988197Y01070606D01*
X00985777Y01072371D01*
X00984848Y01073560D01*
X00984819Y01074719D01*
X00984001Y01077497D01*
X00982492Y01079969D01*
X00980395Y01081966D01*
X00977852Y01083353D01*
X00975036Y01084034D01*
X00974932Y01084031D01*
X00973184Y01085935D01*
X00971977Y01088210D01*
X00971833Y01088879D01*
X00971850Y01089304D01*
X00971576Y01090051D01*
X00971037Y01090637D01*
Y01090637D01*
X00969327Y01091883D01*
X00955549Y01101929D01*
X00953840Y01103176D01*
X00953840Y01103176D01*
X00953839D01*
X00953118Y01103510D01*
X00952323Y01103543D01*
D02*
G37*
G36*
X00336890Y01115257D02*
X00334074Y01114580D01*
X00331529Y01113197D01*
X00329429Y01111202D01*
X00327917Y01108732D01*
X00327095Y01105955D01*
X00327065Y01104796D01*
X00326134Y01103608D01*
X00323711Y01101847D01*
X00322294Y01101327D01*
X00321183Y01101656D01*
X00318288Y01101731D01*
X00315472Y01101054D01*
X00312927Y01099671D01*
X00310827Y01097676D01*
X00309314Y01095206D01*
X00309285Y01095106D01*
X00306936Y01094027D01*
X00304401Y01093577D01*
X00303719Y01093645D01*
X00303320Y01093792D01*
X00302525Y01093761D01*
X00301802Y01093427D01*
X00286300Y01082156D01*
X00284588Y01080911D01*
Y01080911D01*
X00284048Y01080327D01*
X00283773Y01079580D01*
X00283805Y01078785D01*
X00284138Y01078063D01*
X00284138Y01078063D01*
X00285383Y01076351D01*
X00341791Y00998771D01*
X00342376Y00998231D01*
X00343122Y00997956D01*
X00343122D01*
X00399063Y00989117D01*
X00399063Y00989117D01*
X00399858Y00989148D01*
X00400581Y00989482D01*
X00424845Y01007124D01*
X00425385Y01007708D01*
X00425660Y01008455D01*
X00425628Y01009250D01*
X00425295Y01009973D01*
X00396479Y01049604D01*
X00395895Y01050144D01*
X00395148Y01050419D01*
X00395148D01*
X00374195Y01053729D01*
X00327865Y01061050D01*
X00321446Y01069879D01*
X00324040Y01074813D01*
X00324144Y01074811D01*
X00326960Y01075488D01*
X00329505Y01076871D01*
X00331605Y01078865D01*
X00333117Y01081335D01*
X00333939Y01084113D01*
X00333969Y01085271D01*
X00334900Y01086459D01*
X00337323Y01088221D01*
X00338740Y01088740D01*
X00339851Y01088411D01*
X00342746Y01088336D01*
X00345562Y01089014D01*
X00348107Y01090397D01*
X00350207Y01092391D01*
X00351720Y01094861D01*
X00352542Y01097639D01*
X00352616Y01100534D01*
X00351939Y01103350D01*
X00350556Y01105895D01*
X00347028Y01110748D01*
X00345033Y01112848D01*
X00342563Y01114360D01*
X00339786Y01115182D01*
X00336890Y01115257D01*
D02*
G37*
G36*
X00896008Y01158282D02*
X00891285D01*
X00886621Y01157543D01*
X00882130Y01156084D01*
X00877923Y01153940D01*
X00874103Y01151164D01*
X00870764Y01147825D01*
X00867988Y01144005D01*
X00865844Y01139798D01*
X00864385Y01135307D01*
X00863646Y01130643D01*
Y01125921D01*
X00864385Y01121257D01*
X00865844Y01116766D01*
X00867988Y01112558D01*
X00870764Y01108738D01*
X00874103Y01105399D01*
X00877923Y01102623D01*
X00882130Y01100480D01*
X00886621Y01099020D01*
X00891285Y01098282D01*
X00896008D01*
X00900671Y01099020D01*
X00905162Y01100480D01*
X00909370Y01102623D01*
X00913190Y01105399D01*
X00916529Y01108738D01*
X00919305Y01112558D01*
X00921449Y01116766D01*
X00922908Y01121257D01*
X00923646Y01125921D01*
Y01130643D01*
X00922908Y01135307D01*
X00921449Y01139798D01*
X00919305Y01144005D01*
X00916529Y01147825D01*
X00913190Y01151164D01*
X00909370Y01153940D01*
X00905162Y01156084D01*
X00900671Y01157543D01*
X00896008Y01158282D01*
D02*
G37*
G36*
X00245145Y01061171D02*
X00240422D01*
X00235759Y01060432D01*
X00231268Y01058973D01*
X00227060Y01056830D01*
X00223240Y01054054D01*
X00219901Y01050715D01*
X00217125Y01046895D01*
X00214981Y01042687D01*
X00213522Y01038196D01*
X00212784Y01033532D01*
Y01028810D01*
X00213522Y01024146D01*
X00214981Y01019655D01*
X00217125Y01015448D01*
X00219901Y01011628D01*
X00223240Y01008288D01*
X00227060Y01005513D01*
X00231268Y01003369D01*
X00235759Y01001910D01*
X00240422Y01001171D01*
X00245145D01*
X00249809Y01001910D01*
X00254300Y01003369D01*
X00258507Y01005513D01*
X00262327Y01008288D01*
X00265666Y01011628D01*
X00268442Y01015448D01*
X00270586Y01019655D01*
X00272045Y01024146D01*
X00272784Y01028810D01*
Y01033532D01*
X00272045Y01038196D01*
X00270586Y01042687D01*
X00268442Y01046895D01*
X00265666Y01050715D01*
X00262327Y01054054D01*
X00258507Y01056830D01*
X00254300Y01058973D01*
X00249809Y01060432D01*
X00245145Y01061171D01*
D02*
G37*
G36*
X01053513Y01043320D02*
X01048791D01*
X01044127Y01042581D01*
X01039636Y01041122D01*
X01035429Y01038978D01*
X01031609Y01036202D01*
X01028269Y01032863D01*
X01025494Y01029043D01*
X01023350Y01024836D01*
X01021891Y01020345D01*
X01021152Y01015681D01*
Y01010959D01*
X01021891Y01006295D01*
X01023350Y01001804D01*
X01025494Y00997596D01*
X01028269Y00993776D01*
X01031609Y00990437D01*
X01035429Y00987661D01*
X01039636Y00985518D01*
X01044127Y00984058D01*
X01048791Y00983320D01*
X01053513D01*
X01058177Y00984058D01*
X01062668Y00985518D01*
X01066876Y00987661D01*
X01070696Y00990437D01*
X01074035Y00993776D01*
X01076810Y00997596D01*
X01078954Y01001804D01*
X01080413Y01006295D01*
X01081152Y01010959D01*
Y01015681D01*
X01080413Y01020345D01*
X01078954Y01024836D01*
X01076810Y01029043D01*
X01074035Y01032863D01*
X01070696Y01036202D01*
X01066876Y01038978D01*
X01062668Y01041122D01*
X01058177Y01042581D01*
X01053513Y01043320D01*
D02*
G37*
G36*
X01129563Y00937387D02*
X01124841D01*
X01120177Y00936648D01*
X01115686Y00935189D01*
X01111479Y00933045D01*
X01107658Y00930270D01*
X01104319Y00926931D01*
X01101544Y00923110D01*
X01099400Y00918903D01*
X01097941Y00914412D01*
X01097202Y00909748D01*
Y00905026D01*
X01097941Y00900362D01*
X01099400Y00895871D01*
X01101544Y00891664D01*
X01104319Y00887843D01*
X01107658Y00884504D01*
X01111479Y00881729D01*
X01115686Y00879585D01*
X01120177Y00878126D01*
X01124841Y00877387D01*
X01129563D01*
X01134227Y00878126D01*
X01138718Y00879585D01*
X01142925Y00881729D01*
X01146746Y00884504D01*
X01150085Y00887843D01*
X01152860Y00891664D01*
X01155004Y00895871D01*
X01156463Y00900362D01*
X01157202Y00905026D01*
Y00909748D01*
X01156463Y00914412D01*
X01155004Y00918903D01*
X01152860Y00923110D01*
X01150085Y00926931D01*
X01146746Y00930270D01*
X01142925Y00933045D01*
X01138718Y00935189D01*
X01134227Y00936648D01*
X01129563Y00937387D01*
D02*
G37*
G36*
X00136187Y00913228D02*
X00131465D01*
X00126801Y00912490D01*
X00122310Y00911031D01*
X00118103Y00908887D01*
X00114283Y00906111D01*
X00110943Y00902772D01*
X00108168Y00898952D01*
X00106024Y00894744D01*
X00104565Y00890253D01*
X00103826Y00885590D01*
Y00880867D01*
X00104565Y00876203D01*
X00106024Y00871712D01*
X00108168Y00867505D01*
X00110943Y00863685D01*
X00114283Y00860346D01*
X00118103Y00857570D01*
X00122310Y00855426D01*
X00126801Y00853967D01*
X00131465Y00853228D01*
X00136187D01*
X00140851Y00853967D01*
X00145342Y00855426D01*
X00149550Y00857570D01*
X00153370Y00860346D01*
X00156709Y00863685D01*
X00159484Y00867505D01*
X00161628Y00871712D01*
X00163087Y00876203D01*
X00163826Y00880867D01*
Y00885590D01*
X00163087Y00890253D01*
X00161628Y00894744D01*
X00159484Y00898952D01*
X00156709Y00902772D01*
X00153370Y00906111D01*
X00149550Y00908887D01*
X00145342Y00911031D01*
X00140851Y00912490D01*
X00136187Y00913228D01*
D02*
G37*
G36*
X00458046Y00840819D02*
X00438446D01*
Y00821219D01*
X00458046D01*
Y00840819D01*
D02*
G37*
G36*
X01152364Y00848484D02*
X01149515Y00847962D01*
X01143804Y00846120D01*
X01141188Y00844878D01*
X01138981Y00843002D01*
X01137336Y00840618D01*
X01136364Y00837890D01*
X01136131Y00835003D01*
X01136653Y00832154D01*
X01137894Y00829538D01*
X01139771Y00827331D01*
X01142154Y00825686D01*
X01143246Y00825297D01*
X01144085Y00824042D01*
X01145005Y00821191D01*
X01145057Y00819683D01*
X01144399Y00818729D01*
X01143426Y00816001D01*
X01143193Y00813114D01*
X01143715Y00810265D01*
X01144957Y00807649D01*
X01145974Y00806452D01*
X01146132Y00801864D01*
X01145438Y00800330D01*
X01143058Y00799693D01*
X01126788Y00808025D01*
X01126787Y00808025D01*
X01126022Y00808242D01*
X01125232Y00808150D01*
X01125232Y00808150D01*
X01044832Y00782208D01*
X01044832Y00782208D01*
X01044137Y00781821D01*
X01043643Y00781197D01*
X01043643Y00781197D01*
X01038668Y00771482D01*
X01038450Y00770716D01*
X01038542Y00769926D01*
X01038542Y00769926D01*
X01047093Y00743425D01*
X01047754Y00741376D01*
Y00741376D01*
X01047754Y00741375D01*
X01048142Y00740680D01*
X01048142D01*
X01048765Y00740187D01*
X01049531Y00739969D01*
X01049531Y00739969D01*
X01050321Y00740061D01*
X01050321Y00740061D01*
X01052335Y00740711D01*
X01112013Y00759967D01*
X01112708Y00760354D01*
X01113202Y00760978D01*
X01113419Y00761743D01*
X01113327Y00762533D01*
X01109374Y00774785D01*
X01111827Y00779575D01*
X01117833Y00781513D01*
X01135489Y00772471D01*
X01136254Y00772254D01*
X01137045Y00772346D01*
X01137045Y00772346D01*
X01164324Y00781148D01*
X01164744Y00781225D01*
X01170454Y00783067D01*
X01170839Y00783250D01*
X01176952Y00785222D01*
X01179002Y00785884D01*
X01179002Y00785884D01*
X01179002Y00785884D01*
X01179697Y00786271D01*
Y00786271D01*
X01180191Y00786895D01*
X01180408Y00787660D01*
X01180408Y00787660D01*
X01180316Y00788451D01*
X01180316Y00788451D01*
X01179667Y00790464D01*
Y00790465D01*
X01179660Y00790484D01*
X01177683Y00796613D01*
X01177606Y00797033D01*
X01177423Y00797419D01*
X01174789Y00805581D01*
X01174402Y00806276D01*
X01173778Y00806770D01*
X01173453Y00806862D01*
X01172037Y00808224D01*
X01171085Y00809534D01*
X01170234Y00811508D01*
X01170832Y00813186D01*
X01171065Y00816073D01*
X01170543Y00818922D01*
X01169302Y00821538D01*
X01167425Y00823745D01*
X01165041Y00825390D01*
X01163950Y00825779D01*
X01163111Y00827034D01*
X01162191Y00829884D01*
X01162139Y00831393D01*
X01162797Y00832346D01*
X01163769Y00835075D01*
X01164002Y00837962D01*
X01163480Y00840811D01*
X01162239Y00843427D01*
X01160362Y00845633D01*
X01157979Y00847279D01*
X01155250Y00848251D01*
X01152364Y00848484D01*
D02*
G37*
G36*
X00703537Y00815419D02*
X00700956D01*
X00698464Y00814751D01*
X00696229Y00813461D01*
X00694404Y00811636D01*
X00693114Y00809402D01*
X00692446Y00806909D01*
Y00804329D01*
X00693114Y00801836D01*
X00694404Y00799602D01*
X00696229Y00797777D01*
X00698464Y00796487D01*
X00700956Y00795819D01*
X00703537D01*
X00706029Y00796487D01*
X00708264Y00797777D01*
X00710088Y00799602D01*
X00711378Y00801836D01*
X00712046Y00804329D01*
Y00806909D01*
X00711378Y00809402D01*
X00710088Y00811636D01*
X00708264Y00813461D01*
X00706029Y00814751D01*
X00703537Y00815419D01*
D02*
G37*
G36*
X00449537D02*
X00446956D01*
X00444464Y00814751D01*
X00442229Y00813461D01*
X00440404Y00811636D01*
X00439114Y00809402D01*
X00438446Y00806909D01*
Y00804329D01*
X00439114Y00801836D01*
X00440404Y00799602D01*
X00442229Y00797777D01*
X00444464Y00796487D01*
X00446956Y00795819D01*
X00449537D01*
X00452029Y00796487D01*
X00454264Y00797777D01*
X00456088Y00799602D01*
X00457378Y00801836D01*
X00458046Y00804329D01*
Y00806909D01*
X00457378Y00809402D01*
X00456088Y00811636D01*
X00454264Y00813461D01*
X00452029Y00814751D01*
X00449537Y00815419D01*
D02*
G37*
G36*
X00703537Y00790019D02*
X00700956D01*
X00698464Y00789351D01*
X00696229Y00788061D01*
X00694404Y00786236D01*
X00693114Y00784002D01*
X00692446Y00781509D01*
Y00778929D01*
X00693114Y00776436D01*
X00694404Y00774202D01*
X00696229Y00772377D01*
X00698464Y00771087D01*
X00700956Y00770419D01*
X00703537D01*
X00706029Y00771087D01*
X00708264Y00772377D01*
X00710088Y00774202D01*
X00711378Y00776436D01*
X00712046Y00778929D01*
Y00781509D01*
X00711378Y00784002D01*
X00710088Y00786236D01*
X00708264Y00788061D01*
X00706029Y00789351D01*
X00703537Y00790019D01*
D02*
G37*
G36*
X00449537D02*
X00446956D01*
X00444464Y00789351D01*
X00442229Y00788061D01*
X00440404Y00786236D01*
X00439114Y00784002D01*
X00438446Y00781509D01*
Y00778929D01*
X00439114Y00776436D01*
X00440404Y00774202D01*
X00442229Y00772377D01*
X00444464Y00771087D01*
X00446956Y00770419D01*
X00449537D01*
X00452029Y00771087D01*
X00454264Y00772377D01*
X00456088Y00774202D01*
X00457378Y00776436D01*
X00458046Y00778929D01*
Y00781509D01*
X00457378Y00784002D01*
X00456088Y00786236D01*
X00454264Y00788061D01*
X00452029Y00789351D01*
X00449537Y00790019D01*
D02*
G37*
G36*
X00102419Y00826741D02*
X00101653Y00826526D01*
X00101028Y00826034D01*
X00101028Y00826034D01*
X00100639Y00825340D01*
X00100639Y00825340D01*
X00099984Y00823328D01*
X00097983Y00817186D01*
X00097799Y00816799D01*
X00097720Y00816378D01*
X00095065Y00808224D01*
X00095065Y00808224D01*
X00095065Y00808224D01*
X00094971Y00807434D01*
X00095187Y00806668D01*
X00095395Y00806403D01*
X00095743Y00804470D01*
X00095746Y00802850D01*
X00095277Y00800752D01*
X00093808Y00799744D01*
X00091926Y00797543D01*
X00090677Y00794930D01*
X00090147Y00792082D01*
X00090373Y00789195D01*
X00091338Y00786464D01*
X00091993Y00785509D01*
X00091937Y00784000D01*
X00091009Y00781152D01*
X00090167Y00779900D01*
X00089074Y00779514D01*
X00086686Y00777875D01*
X00084804Y00775674D01*
X00083555Y00773060D01*
X00083025Y00770213D01*
X00083251Y00767325D01*
X00084216Y00764594D01*
X00085855Y00762206D01*
X00088056Y00760324D01*
X00090669Y00759075D01*
X00096374Y00757217D01*
X00099222Y00756687D01*
X00102109Y00756913D01*
X00104840Y00757878D01*
X00107228Y00759517D01*
X00109111Y00761718D01*
X00110359Y00764331D01*
X00110889Y00767179D01*
X00110664Y00770066D01*
X00109699Y00772797D01*
X00109043Y00773753D01*
X00109100Y00775261D01*
X00110027Y00778109D01*
X00110870Y00779361D01*
X00111962Y00779747D01*
X00114350Y00781386D01*
X00116233Y00783588D01*
X00117481Y00786201D01*
X00118011Y00789048D01*
X00117889Y00790615D01*
X00120453Y00794422D01*
X00121915Y00795258D01*
X00124216Y00794378D01*
X00132504Y00778084D01*
X00132997Y00777459D01*
X00133691Y00777070D01*
X00133691Y00777070D01*
X00214020Y00750911D01*
X00214020Y00750910D01*
X00214810Y00750816D01*
X00215576Y00751032D01*
X00225305Y00755981D01*
X00225930Y00756473D01*
X00226319Y00757167D01*
X00226319Y00757167D01*
X00234953Y00783680D01*
X00235609Y00785692D01*
X00235609Y00785693D01*
X00235609Y00785693D01*
X00235703Y00786483D01*
X00235487Y00787249D01*
X00234995Y00787874D01*
X00234995Y00787874D01*
X00234301Y00788263D01*
X00234301Y00788263D01*
X00232289Y00788918D01*
X00232289Y00788918D01*
X00232236Y00788936D01*
X00172664Y00808335D01*
X00171873Y00808429D01*
X00171108Y00808214D01*
X00170482Y00807722D01*
X00170093Y00807028D01*
X00166107Y00794787D01*
X00161310Y00792347D01*
X00155310Y00794301D01*
X00146316Y00811981D01*
X00146316Y00811981D01*
X00145824Y00812607D01*
X00145130Y00812996D01*
X00145130Y00812996D01*
X00117874Y00821872D01*
X00117489Y00822056D01*
X00111784Y00823913D01*
X00111364Y00823992D01*
X00103209Y00826647D01*
X00103209Y00826647D01*
X00103209Y00826647D01*
X00102419Y00826741D01*
D02*
G37*
G36*
X00703537Y00764619D02*
X00700956D01*
X00698464Y00763951D01*
X00696229Y00762661D01*
X00694404Y00760836D01*
X00693114Y00758602D01*
X00692446Y00756109D01*
Y00753529D01*
X00693114Y00751036D01*
X00694404Y00748802D01*
X00696229Y00746977D01*
X00698464Y00745687D01*
X00700956Y00745019D01*
X00703537D01*
X00706029Y00745687D01*
X00708264Y00746977D01*
X00710088Y00748802D01*
X00711378Y00751036D01*
X00712046Y00753529D01*
Y00756109D01*
X00711378Y00758602D01*
X00710088Y00760836D01*
X00708264Y00762661D01*
X00706029Y00763951D01*
X00703537Y00764619D01*
D02*
G37*
G36*
X00449537D02*
X00446956D01*
X00444464Y00763951D01*
X00442229Y00762661D01*
X00440404Y00760836D01*
X00439114Y00758602D01*
X00438446Y00756109D01*
Y00753529D01*
X00439114Y00751036D01*
X00440404Y00748802D01*
X00442229Y00746977D01*
X00444464Y00745687D01*
X00446956Y00745019D01*
X00449537D01*
X00452029Y00745687D01*
X00454264Y00746977D01*
X00456088Y00748802D01*
X00457378Y00751036D01*
X00458046Y00753529D01*
Y00756109D01*
X00457378Y00758602D01*
X00456088Y00760836D01*
X00454264Y00762661D01*
X00452029Y00763951D01*
X00449537Y00764619D01*
D02*
G37*
G36*
X00888646Y00757957D02*
X00869346D01*
Y00738657D01*
X00888646D01*
Y00757957D01*
D02*
G37*
G36*
X00703537Y00739219D02*
X00700956D01*
X00698464Y00738551D01*
X00696229Y00737261D01*
X00694404Y00735436D01*
X00693114Y00733202D01*
X00692446Y00730709D01*
Y00728129D01*
X00693114Y00725636D01*
X00694404Y00723402D01*
X00696229Y00721577D01*
X00698464Y00720287D01*
X00700956Y00719619D01*
X00703537D01*
X00706029Y00720287D01*
X00708264Y00721577D01*
X00710088Y00723402D01*
X00711378Y00725636D01*
X00712046Y00728129D01*
Y00730709D01*
X00711378Y00733202D01*
X00710088Y00735436D01*
X00708264Y00737261D01*
X00706029Y00738551D01*
X00703537Y00739219D01*
D02*
G37*
G36*
X00449537D02*
X00446956D01*
X00444464Y00738551D01*
X00442229Y00737261D01*
X00440404Y00735436D01*
X00439114Y00733202D01*
X00438446Y00730709D01*
Y00728129D01*
X00439114Y00725636D01*
X00440404Y00723402D01*
X00442229Y00721577D01*
X00444464Y00720287D01*
X00446956Y00719619D01*
X00449537D01*
X00452029Y00720287D01*
X00454264Y00721577D01*
X00456088Y00723402D01*
X00457378Y00725636D01*
X00458046Y00728129D01*
Y00730709D01*
X00457378Y00733202D01*
X00456088Y00735436D01*
X00454264Y00737261D01*
X00452029Y00738551D01*
X00449537Y00739219D01*
D02*
G37*
G36*
X00928146Y00733369D02*
X00908846D01*
Y00714069D01*
X00928146D01*
Y00733369D01*
D02*
G37*
G36*
X00880267Y00732557D02*
X00877726D01*
X00875272Y00731899D01*
X00873071Y00730629D01*
X00871274Y00728832D01*
X00870004Y00726632D01*
X00869346Y00724177D01*
Y00721637D01*
X00870004Y00719182D01*
X00871274Y00716982D01*
X00873071Y00715185D01*
X00875272Y00713915D01*
X00877726Y00713257D01*
X00880267D01*
X00882721Y00713915D01*
X00884921Y00715185D01*
X00886718Y00716982D01*
X00887989Y00719182D01*
X00888646Y00721637D01*
Y00724177D01*
X00887989Y00726632D01*
X00886718Y00728832D01*
X00884921Y00730629D01*
X00882721Y00731899D01*
X00880267Y00732557D01*
D02*
G37*
G36*
X00703537Y00713819D02*
X00700956D01*
X00698464Y00713151D01*
X00696229Y00711861D01*
X00694404Y00710036D01*
X00693114Y00707802D01*
X00692446Y00705309D01*
Y00702729D01*
X00693114Y00700236D01*
X00694404Y00698002D01*
X00696229Y00696177D01*
X00698464Y00694887D01*
X00700956Y00694219D01*
X00703537D01*
X00706029Y00694887D01*
X00708264Y00696177D01*
X00710088Y00698002D01*
X00711378Y00700236D01*
X00712046Y00702729D01*
Y00705309D01*
X00711378Y00707802D01*
X00710088Y00710036D01*
X00708264Y00711861D01*
X00706029Y00713151D01*
X00703537Y00713819D01*
D02*
G37*
G36*
X00449537D02*
X00446956D01*
X00444464Y00713151D01*
X00442229Y00711861D01*
X00440404Y00710036D01*
X00439114Y00707802D01*
X00438446Y00705309D01*
Y00702729D01*
X00439114Y00700236D01*
X00440404Y00698002D01*
X00442229Y00696177D01*
X00444464Y00694887D01*
X00446956Y00694219D01*
X00449537D01*
X00452029Y00694887D01*
X00454264Y00696177D01*
X00456088Y00698002D01*
X00457378Y00700236D01*
X00458046Y00702729D01*
Y00705309D01*
X00457378Y00707802D01*
X00456088Y00710036D01*
X00454264Y00711861D01*
X00452029Y00713151D01*
X00449537Y00713819D01*
D02*
G37*
G36*
X01189417Y00751800D02*
X01184695D01*
X01180031Y00751061D01*
X01175540Y00749602D01*
X01171333Y00747458D01*
X01167513Y00744683D01*
X01164174Y00741344D01*
X01161398Y00737524D01*
X01159254Y00733316D01*
X01157795Y00728825D01*
X01157056Y00724161D01*
Y00719439D01*
X01157795Y00714775D01*
X01159254Y00710284D01*
X01161398Y00706077D01*
X01164174Y00702256D01*
X01167513Y00698917D01*
X01171333Y00696142D01*
X01175540Y00693998D01*
X01180031Y00692539D01*
X01184695Y00691800D01*
X01189417D01*
X01194081Y00692539D01*
X01198572Y00693998D01*
X01202780Y00696142D01*
X01206600Y00698917D01*
X01209939Y00702256D01*
X01212715Y00706077D01*
X01214858Y00710284D01*
X01216318Y00714775D01*
X01217056Y00719439D01*
Y00724161D01*
X01216318Y00728825D01*
X01214858Y00733316D01*
X01212715Y00737524D01*
X01209939Y00741344D01*
X01206600Y00744683D01*
X01202780Y00747458D01*
X01198572Y00749602D01*
X01194081Y00751061D01*
X01189417Y00751800D01*
D02*
G37*
G36*
X00449537Y00688419D02*
X00446956D01*
X00444464Y00687751D01*
X00442229Y00686461D01*
X00440404Y00684636D01*
X00439114Y00682402D01*
X00438446Y00679909D01*
Y00677329D01*
X00439114Y00674836D01*
X00440404Y00672602D01*
X00442229Y00670777D01*
X00444464Y00669487D01*
X00446956Y00668819D01*
X00449537D01*
X00452029Y00669487D01*
X00454264Y00670777D01*
X00456088Y00672602D01*
X00457378Y00674836D01*
X00458046Y00677329D01*
Y00679909D01*
X00457378Y00682402D01*
X00456088Y00684636D01*
X00454264Y00686461D01*
X00452029Y00687751D01*
X00449537Y00688419D01*
D02*
G37*
G36*
X00075707Y00727905D02*
X00070985D01*
X00066321Y00727166D01*
X00061830Y00725707D01*
X00057623Y00723563D01*
X00053803Y00720787D01*
X00050464Y00717448D01*
X00047688Y00713628D01*
X00045544Y00709420D01*
X00044085Y00704930D01*
X00043346Y00700266D01*
Y00695543D01*
X00044085Y00690880D01*
X00045544Y00686388D01*
X00047688Y00682181D01*
X00050464Y00678361D01*
X00053803Y00675022D01*
X00057623Y00672246D01*
X00061830Y00670102D01*
X00066321Y00668643D01*
X00070985Y00667905D01*
X00075707D01*
X00080371Y00668643D01*
X00084862Y00670102D01*
X00089070Y00672246D01*
X00092890Y00675022D01*
X00096229Y00678361D01*
X00099005Y00682181D01*
X00101148Y00686388D01*
X00102607Y00690880D01*
X00103346Y00695543D01*
Y00700266D01*
X00102607Y00704930D01*
X00101148Y00709420D01*
X00099005Y00713628D01*
X00096229Y00717448D01*
X00092890Y00720787D01*
X00089070Y00723563D01*
X00084862Y00725707D01*
X00080371Y00727166D01*
X00075707Y00727905D01*
D02*
G37*
G36*
X00703537Y00663019D02*
X00700956D01*
X00698464Y00662351D01*
X00696229Y00661061D01*
X00694404Y00659236D01*
X00693114Y00657002D01*
X00692446Y00654509D01*
Y00651929D01*
X00693114Y00649436D01*
X00694404Y00647202D01*
X00696229Y00645377D01*
X00698464Y00644087D01*
X00700956Y00643419D01*
X00703537D01*
X00706029Y00644087D01*
X00708264Y00645377D01*
X00710088Y00647202D01*
X00711378Y00649436D01*
X00712046Y00651929D01*
Y00654509D01*
X00711378Y00657002D01*
X00710088Y00659236D01*
X00708264Y00661061D01*
X00706029Y00662351D01*
X00703537Y00663019D01*
D02*
G37*
G36*
X00449537D02*
X00446956D01*
X00444464Y00662351D01*
X00442229Y00661061D01*
X00440404Y00659236D01*
X00439114Y00657002D01*
X00438446Y00654509D01*
Y00651929D01*
X00439114Y00649436D01*
X00440404Y00647202D01*
X00442229Y00645377D01*
X00444464Y00644087D01*
X00446956Y00643419D01*
X00449537D01*
X00452029Y00644087D01*
X00454264Y00645377D01*
X00456088Y00647202D01*
X00457378Y00649436D01*
X00458046Y00651929D01*
Y00654509D01*
X00457378Y00657002D01*
X00456088Y00659236D01*
X00454264Y00661061D01*
X00452029Y00662351D01*
X00449537Y00663019D01*
D02*
G37*
G36*
X00703537Y00637619D02*
X00700956D01*
X00698464Y00636951D01*
X00696229Y00635661D01*
X00694404Y00633836D01*
X00693114Y00631602D01*
X00692446Y00629109D01*
Y00626529D01*
X00693114Y00624036D01*
X00694404Y00621802D01*
X00696229Y00619977D01*
X00698464Y00618687D01*
X00700956Y00618019D01*
X00703537D01*
X00706029Y00618687D01*
X00708264Y00619977D01*
X00710088Y00621802D01*
X00711378Y00624036D01*
X00712046Y00626529D01*
Y00629109D01*
X00711378Y00631602D01*
X00710088Y00633836D01*
X00708264Y00635661D01*
X00706029Y00636951D01*
X00703537Y00637619D01*
D02*
G37*
G36*
X00449537D02*
X00446956D01*
X00444464Y00636951D01*
X00442229Y00635661D01*
X00440404Y00633836D01*
X00439114Y00631602D01*
X00438446Y00629109D01*
Y00626529D01*
X00439114Y00624036D01*
X00440404Y00621802D01*
X00442229Y00619977D01*
X00444464Y00618687D01*
X00446956Y00618019D01*
X00449537D01*
X00452029Y00618687D01*
X00454264Y00619977D01*
X00456088Y00621802D01*
X00457378Y00624036D01*
X00458046Y00626529D01*
Y00629109D01*
X00457378Y00631602D01*
X00456088Y00633836D01*
X00454264Y00635661D01*
X00452029Y00636951D01*
X00449537Y00637619D01*
D02*
G37*
G36*
X00975241Y00614169D02*
X00973252D01*
X00971414Y00613408D01*
X00970007Y00612001D01*
X00969866Y00611659D01*
X00964636D01*
X00964624Y00611665D01*
X00964485Y00612001D01*
X00963079Y00613408D01*
X00961241Y00614169D01*
X00959252D01*
X00957414Y00613408D01*
X00956744Y00612738D01*
X00919860D01*
X00918495Y00612466D01*
X00917337Y00611692D01*
X00911064Y00605419D01*
X00910116D01*
X00908278Y00604658D01*
X00907713Y00604092D01*
X00904760Y00603602D01*
X00901808Y00604092D01*
X00901243Y00604658D01*
X00899405Y00605419D01*
X00897416D01*
X00895578Y00604658D01*
X00894172Y00603251D01*
X00893410Y00601414D01*
Y00599425D01*
X00894172Y00597587D01*
X00895578Y00596180D01*
X00897416Y00595419D01*
X00898364D01*
X00901887Y00591896D01*
X00903045Y00591122D01*
X00904410Y00590850D01*
X00917746D01*
X00919112Y00591122D01*
X00920270Y00591896D01*
X00926724Y00598350D01*
X00966996D01*
X00968362Y00598622D01*
X00969520Y00599396D01*
X00974293Y00604169D01*
X00975241D01*
X00977079Y00604930D01*
X00978485Y00606337D01*
X00979246Y00608175D01*
Y00610164D01*
X00978485Y00612001D01*
X00977079Y00613408D01*
X00975241Y00614169D01*
D02*
G37*
G36*
X00703537Y00612219D02*
X00700956D01*
X00698464Y00611551D01*
X00696229Y00610261D01*
X00694404Y00608436D01*
X00693114Y00606202D01*
X00692446Y00603709D01*
Y00601129D01*
X00693114Y00598636D01*
X00694404Y00596402D01*
X00696229Y00594577D01*
X00698464Y00593287D01*
X00700956Y00592619D01*
X00703537D01*
X00706029Y00593287D01*
X00708264Y00594577D01*
X00710088Y00596402D01*
X00711378Y00598636D01*
X00712046Y00601129D01*
Y00603709D01*
X00711378Y00606202D01*
X00710088Y00608436D01*
X00708264Y00610261D01*
X00706029Y00611551D01*
X00703537Y00612219D01*
D02*
G37*
G36*
X00449537D02*
X00446956D01*
X00444464Y00611551D01*
X00442229Y00610261D01*
X00440404Y00608436D01*
X00439114Y00606202D01*
X00438446Y00603709D01*
Y00601129D01*
X00439114Y00598636D01*
X00440404Y00596402D01*
X00442229Y00594577D01*
X00444464Y00593287D01*
X00446956Y00592619D01*
X00449537D01*
X00452029Y00593287D01*
X00454264Y00594577D01*
X00456088Y00596402D01*
X00457378Y00598636D01*
X00458046Y00601129D01*
Y00603709D01*
X00457378Y00606202D01*
X00456088Y00608436D01*
X00454264Y00610261D01*
X00452029Y00611551D01*
X00449537Y00612219D01*
D02*
G37*
G36*
X00856896Y00600269D02*
X00837596D01*
Y00580969D01*
X00856896D01*
Y00600269D01*
D02*
G37*
G36*
X00703537Y00586819D02*
X00700956D01*
X00698464Y00586151D01*
X00696229Y00584861D01*
X00694404Y00583036D01*
X00693114Y00580802D01*
X00692446Y00578309D01*
Y00575729D01*
X00693114Y00573236D01*
X00694404Y00571002D01*
X00696229Y00569177D01*
X00698464Y00567887D01*
X00700956Y00567219D01*
X00703537D01*
X00706029Y00567887D01*
X00708264Y00569177D01*
X00710088Y00571002D01*
X00711378Y00573236D01*
X00712046Y00575729D01*
Y00578309D01*
X00711378Y00580802D01*
X00710088Y00583036D01*
X00708264Y00584861D01*
X00706029Y00586151D01*
X00703537Y00586819D01*
D02*
G37*
G36*
X00449537D02*
X00446956D01*
X00444464Y00586151D01*
X00442229Y00584861D01*
X00440404Y00583036D01*
X00439114Y00580802D01*
X00438446Y00578309D01*
Y00575729D01*
X00439114Y00573236D01*
X00440404Y00571002D01*
X00442229Y00569177D01*
X00444464Y00567887D01*
X00446956Y00567219D01*
X00449537D01*
X00452029Y00567887D01*
X00454264Y00569177D01*
X00456088Y00571002D01*
X00457378Y00573236D01*
X00458046Y00575729D01*
Y00578309D01*
X00457378Y00580802D01*
X00456088Y00583036D01*
X00454264Y00584861D01*
X00452029Y00586151D01*
X00449537Y00586819D01*
D02*
G37*
G36*
X00848517Y00574869D02*
X00845976D01*
X00843521Y00574211D01*
X00841321Y00572941D01*
X00839524Y00571144D01*
X00838254Y00568944D01*
X00837596Y00566489D01*
Y00563949D01*
X00838254Y00561494D01*
X00839524Y00559294D01*
X00841321Y00557497D01*
X00843521Y00556227D01*
X00845976Y00555569D01*
X00848517D01*
X00850971Y00556227D01*
X00853171Y00557497D01*
X00854968Y00559294D01*
X00856239Y00561494D01*
X00856896Y00563949D01*
Y00566489D01*
X00856239Y00568944D01*
X00854968Y00571144D01*
X00853171Y00572941D01*
X00850971Y00574211D01*
X00848517Y00574869D01*
D02*
G37*
G36*
X00703537Y00561419D02*
X00700956D01*
X00698464Y00560751D01*
X00696229Y00559461D01*
X00694404Y00557636D01*
X00693114Y00555402D01*
X00692446Y00552909D01*
Y00550329D01*
X00693114Y00547836D01*
X00694404Y00545602D01*
X00696229Y00543777D01*
X00698464Y00542487D01*
X00700956Y00541819D01*
X00703537D01*
X00706029Y00542487D01*
X00708264Y00543777D01*
X00710088Y00545602D01*
X00711378Y00547836D01*
X00712046Y00550329D01*
Y00552909D01*
X00711378Y00555402D01*
X00710088Y00557636D01*
X00708264Y00559461D01*
X00706029Y00560751D01*
X00703537Y00561419D01*
D02*
G37*
G36*
X00449537D02*
X00446956D01*
X00444464Y00560751D01*
X00442229Y00559461D01*
X00440404Y00557636D01*
X00439114Y00555402D01*
X00438446Y00552909D01*
Y00550329D01*
X00439114Y00547836D01*
X00440404Y00545602D01*
X00442229Y00543777D01*
X00444464Y00542487D01*
X00446956Y00541819D01*
X00449537D01*
X00452029Y00542487D01*
X00454264Y00543777D01*
X00456088Y00545602D01*
X00457378Y00547836D01*
X00458046Y00550329D01*
Y00552909D01*
X00457378Y00555402D01*
X00456088Y00557636D01*
X00454264Y00559461D01*
X00452029Y00560751D01*
X00449537Y00561419D01*
D02*
G37*
G36*
X00075700Y00597501D02*
X00070978D01*
X00066314Y00596762D01*
X00061823Y00595303D01*
X00057616Y00593159D01*
X00053796Y00590383D01*
X00050457Y00587044D01*
X00047681Y00583224D01*
X00045537Y00579017D01*
X00044078Y00574526D01*
X00043339Y00569862D01*
Y00565140D01*
X00044078Y00560476D01*
X00045537Y00555985D01*
X00047681Y00551777D01*
X00050457Y00547957D01*
X00053796Y00544618D01*
X00057616Y00541842D01*
X00061823Y00539699D01*
X00066314Y00538239D01*
X00070978Y00537501D01*
X00075700D01*
X00080364Y00538239D01*
X00084855Y00539699D01*
X00089063Y00541842D01*
X00092883Y00544618D01*
X00096222Y00547957D01*
X00098998Y00551777D01*
X00101142Y00555985D01*
X00102601Y00560476D01*
X00103339Y00565140D01*
Y00569862D01*
X00102601Y00574526D01*
X00101142Y00579017D01*
X00098998Y00583224D01*
X00096222Y00587044D01*
X00092883Y00590383D01*
X00089063Y00593159D01*
X00084855Y00595303D01*
X00080364Y00596762D01*
X00075700Y00597501D01*
D02*
G37*
G36*
X00703537Y00536019D02*
X00700956D01*
X00698464Y00535351D01*
X00696229Y00534061D01*
X00694404Y00532236D01*
X00693114Y00530002D01*
X00692446Y00527509D01*
Y00524929D01*
X00693114Y00522436D01*
X00694404Y00520202D01*
X00696229Y00518377D01*
X00698464Y00517087D01*
X00700956Y00516419D01*
X00703537D01*
X00706029Y00517087D01*
X00708264Y00518377D01*
X00710088Y00520202D01*
X00711378Y00522436D01*
X00712046Y00524929D01*
Y00527509D01*
X00711378Y00530002D01*
X00710088Y00532236D01*
X00708264Y00534061D01*
X00706029Y00535351D01*
X00703537Y00536019D01*
D02*
G37*
G36*
X00449537D02*
X00446956D01*
X00444464Y00535351D01*
X00442229Y00534061D01*
X00440404Y00532236D01*
X00439114Y00530002D01*
X00438446Y00527509D01*
Y00524929D01*
X00439114Y00522436D01*
X00440404Y00520202D01*
X00442229Y00518377D01*
X00444464Y00517087D01*
X00446956Y00516419D01*
X00449537D01*
X00452029Y00517087D01*
X00454264Y00518377D01*
X00456088Y00520202D01*
X00457378Y00522436D01*
X00458046Y00524929D01*
Y00527509D01*
X00457378Y00530002D01*
X00456088Y00532236D01*
X00454264Y00534061D01*
X00452029Y00535351D01*
X00449537Y00536019D01*
D02*
G37*
G36*
X01189476Y00568740D02*
X01184753D01*
X01180089Y00568001D01*
X01175599Y00566542D01*
X01171391Y00564398D01*
X01167571Y00561623D01*
X01164232Y00558284D01*
X01161456Y00554463D01*
X01159313Y00550256D01*
X01157853Y00545765D01*
X01157115Y00541101D01*
Y00536379D01*
X01157853Y00531715D01*
X01159313Y00527224D01*
X01161456Y00523017D01*
X01164232Y00519196D01*
X01167571Y00515857D01*
X01171391Y00513082D01*
X01175599Y00510938D01*
X01180089Y00509479D01*
X01184753Y00508740D01*
X01189476D01*
X01194139Y00509479D01*
X01198631Y00510938D01*
X01202838Y00513082D01*
X01206658Y00515857D01*
X01209997Y00519196D01*
X01212773Y00523017D01*
X01214917Y00527224D01*
X01216376Y00531715D01*
X01217114Y00536379D01*
Y00541101D01*
X01216376Y00545765D01*
X01214917Y00550256D01*
X01212773Y00554463D01*
X01209997Y00558284D01*
X01206658Y00561623D01*
X01202838Y00564398D01*
X01198631Y00566542D01*
X01194139Y00568001D01*
X01189476Y00568740D01*
D02*
G37*
G36*
X00703537Y00510619D02*
X00700956D01*
X00698464Y00509951D01*
X00696229Y00508661D01*
X00694404Y00506836D01*
X00693114Y00504602D01*
X00692446Y00502109D01*
Y00499529D01*
X00693114Y00497036D01*
X00694404Y00494802D01*
X00696229Y00492977D01*
X00698464Y00491687D01*
X00700956Y00491019D01*
X00703537D01*
X00706029Y00491687D01*
X00708264Y00492977D01*
X00710088Y00494802D01*
X00711378Y00497036D01*
X00712046Y00499529D01*
Y00502109D01*
X00711378Y00504602D01*
X00710088Y00506836D01*
X00708264Y00508661D01*
X00706029Y00509951D01*
X00703537Y00510619D01*
D02*
G37*
G36*
X00211341Y00548897D02*
X00210550Y00548806D01*
X00163903Y00533805D01*
X00163903Y00533804D01*
X00163208Y00533418D01*
X00162713Y00532794D01*
X00153026Y00513922D01*
X00131607Y00472195D01*
X00121215Y00468853D01*
X00117337Y00472858D01*
X00117372Y00472956D01*
X00117608Y00475842D01*
X00117089Y00478692D01*
X00115850Y00481310D01*
X00113975Y00483518D01*
X00111593Y00485165D01*
X00110502Y00485555D01*
X00109664Y00486811D01*
X00108747Y00489662D01*
X00108696Y00491171D01*
X00109355Y00492124D01*
X00110330Y00494851D01*
X00110566Y00497738D01*
X00110047Y00500587D01*
X00108808Y00503205D01*
X00106933Y00505413D01*
X00104551Y00507061D01*
X00101824Y00508036D01*
X00098937Y00508272D01*
X00096088Y00507752D01*
X00090376Y00505915D01*
X00087758Y00504676D01*
X00085550Y00502802D01*
X00083902Y00500420D01*
X00082927Y00497693D01*
X00082691Y00494806D01*
X00083211Y00491956D01*
X00084450Y00489338D01*
X00086324Y00487131D01*
X00088706Y00485483D01*
X00089797Y00485093D01*
X00090635Y00483838D01*
X00091552Y00480986D01*
X00091603Y00479477D01*
X00090944Y00478524D01*
X00089969Y00475797D01*
X00089733Y00472910D01*
X00090253Y00470061D01*
X00091492Y00467443D01*
X00093366Y00465235D01*
X00093451Y00465176D01*
X00093743Y00462607D01*
X00093380Y00460058D01*
X00093102Y00459432D01*
X00092837Y00459099D01*
X00092619Y00458334D01*
X00092710Y00457543D01*
X00092710Y00457543D01*
X00092710Y00457543D01*
X00098567Y00439332D01*
X00099226Y00437282D01*
X00099227Y00437282D01*
X00099613Y00436586D01*
X00099613Y00436586D01*
X00100237Y00436092D01*
X00101002Y00435874D01*
X00101792Y00435965D01*
X00101792Y00435965D01*
X00103806Y00436613D01*
X00195120Y00465980D01*
X00195816Y00466366D01*
X00196310Y00466990D01*
X00222173Y00517374D01*
X00222392Y00518140D01*
X00222300Y00518930D01*
X00213116Y00547489D01*
X00212729Y00548185D01*
X00212106Y00548679D01*
X00211341Y00548897D01*
D02*
G37*
G36*
X00703537Y00485219D02*
X00700956D01*
X00698464Y00484551D01*
X00696229Y00483261D01*
X00694404Y00481436D01*
X00693114Y00479202D01*
X00692446Y00476709D01*
Y00474129D01*
X00693114Y00471636D01*
X00694404Y00469402D01*
X00696229Y00467577D01*
X00698464Y00466287D01*
X00700956Y00465619D01*
X00703537D01*
X00706029Y00466287D01*
X00708264Y00467577D01*
X00710088Y00469402D01*
X00711378Y00471636D01*
X00712046Y00474129D01*
Y00476709D01*
X00711378Y00479202D01*
X00710088Y00481436D01*
X00708264Y00483261D01*
X00706029Y00484551D01*
X00703537Y00485219D01*
D02*
G37*
G36*
X00449537D02*
X00446956D01*
X00444464Y00484551D01*
X00442229Y00483261D01*
X00440404Y00481436D01*
X00439114Y00479202D01*
X00438446Y00476709D01*
Y00474129D01*
X00439114Y00471636D01*
X00440404Y00469402D01*
X00442229Y00467577D01*
X00444464Y00466287D01*
X00446956Y00465619D01*
X00449537D01*
X00452029Y00466287D01*
X00454264Y00467577D01*
X00456088Y00469402D01*
X00457378Y00471636D01*
X00458046Y00474129D01*
Y00476709D01*
X00457378Y00479202D01*
X00456088Y00481436D01*
X00454264Y00483261D01*
X00452029Y00484551D01*
X00449537Y00485219D01*
D02*
G37*
G36*
X00703537Y00459819D02*
X00700956D01*
X00698464Y00459151D01*
X00696229Y00457861D01*
X00694404Y00456036D01*
X00693114Y00453802D01*
X00692446Y00451309D01*
Y00448729D01*
X00693114Y00446236D01*
X00694404Y00444002D01*
X00696229Y00442177D01*
X00698464Y00440887D01*
X00700956Y00440219D01*
X00703537D01*
X00706029Y00440887D01*
X00708264Y00442177D01*
X00710088Y00444002D01*
X00711378Y00446236D01*
X00712046Y00448729D01*
Y00451309D01*
X00711378Y00453802D01*
X00710088Y00456036D01*
X00708264Y00457861D01*
X00706029Y00459151D01*
X00703537Y00459819D01*
D02*
G37*
G36*
X00449537D02*
X00446956D01*
X00444464Y00459151D01*
X00442229Y00457861D01*
X00440404Y00456036D01*
X00439114Y00453802D01*
X00438446Y00451309D01*
Y00448729D01*
X00439114Y00446236D01*
X00440404Y00444002D01*
X00442229Y00442177D01*
X00444464Y00440887D01*
X00446956Y00440219D01*
X00449537D01*
X00452029Y00440887D01*
X00454264Y00442177D01*
X00456088Y00444002D01*
X00457378Y00446236D01*
X00458046Y00448729D01*
Y00451309D01*
X00457378Y00453802D01*
X00456088Y00456036D01*
X00454264Y00457861D01*
X00452029Y00459151D01*
X00449537Y00459819D01*
D02*
G37*
G36*
X00703537Y00434419D02*
X00700956D01*
X00698464Y00433751D01*
X00696229Y00432461D01*
X00694404Y00430636D01*
X00693114Y00428402D01*
X00692446Y00425909D01*
Y00423329D01*
X00693114Y00420836D01*
X00694404Y00418602D01*
X00696229Y00416777D01*
X00698464Y00415487D01*
X00700956Y00414819D01*
X00703537D01*
X00706029Y00415487D01*
X00708264Y00416777D01*
X00710088Y00418602D01*
X00711378Y00420836D01*
X00712046Y00423329D01*
Y00425909D01*
X00711378Y00428402D01*
X00710088Y00430636D01*
X00708264Y00432461D01*
X00706029Y00433751D01*
X00703537Y00434419D01*
D02*
G37*
G36*
X00449537D02*
X00446956D01*
X00444464Y00433751D01*
X00442229Y00432461D01*
X00440404Y00430636D01*
X00439114Y00428402D01*
X00438446Y00425909D01*
Y00423329D01*
X00439114Y00420836D01*
X00440404Y00418602D01*
X00442229Y00416777D01*
X00444464Y00415487D01*
X00446956Y00414819D01*
X00449537D01*
X00452029Y00415487D01*
X00454264Y00416777D01*
X00456088Y00418602D01*
X00457378Y00420836D01*
X00458046Y00423329D01*
Y00425909D01*
X00457378Y00428402D01*
X00456088Y00430636D01*
X00454264Y00432461D01*
X00452029Y00433751D01*
X00449537Y00434419D01*
D02*
G37*
G36*
X01086476Y00506618D02*
X01085710Y00506404D01*
X01085710Y00506404D01*
X01035209Y00480769D01*
X01034583Y00480278D01*
X01034193Y00479584D01*
X01024879Y00451067D01*
X01024784Y00450277D01*
X01024999Y00449511D01*
X01025490Y00448885D01*
X01026184Y00448495D01*
X01072763Y00433282D01*
X01072763Y00433282D01*
X01073553Y00433187D01*
X01074319Y00433402D01*
X01074319Y00433402D01*
X01093235Y00443003D01*
X01093235Y00443004D01*
X01135059Y00464233D01*
X01145435Y00460844D01*
X01146227Y00455326D01*
X01146141Y00455267D01*
X01144257Y00453067D01*
X01143006Y00450455D01*
X01142474Y00447608D01*
X01142696Y00444720D01*
X01143659Y00441989D01*
X01144314Y00441033D01*
X01144256Y00439524D01*
X01143326Y00436677D01*
X01142482Y00435425D01*
X01141390Y00435040D01*
X01139000Y00433404D01*
X01137116Y00431204D01*
X01135865Y00428592D01*
X01135333Y00425745D01*
X01135555Y00422857D01*
X01136518Y00420125D01*
X01138155Y00417736D01*
X01140355Y00415851D01*
X01142967Y00414600D01*
X01148670Y00412738D01*
X01151517Y00412205D01*
X01154405Y00412428D01*
X01157137Y00413391D01*
X01159526Y00415028D01*
X01161411Y00417227D01*
X01162662Y00419840D01*
X01163194Y00422687D01*
X01162971Y00425574D01*
X01162008Y00428306D01*
X01161354Y00429262D01*
X01161411Y00430770D01*
X01162341Y00433618D01*
X01163185Y00434869D01*
X01164278Y00435254D01*
X01166667Y00436891D01*
X01168552Y00439091D01*
X01169802Y00441703D01*
X01170335Y00444550D01*
X01170112Y00447438D01*
X01170077Y00447536D01*
X01171348Y00449787D01*
X01173137Y00451638D01*
X01173729Y00451982D01*
X01174139Y00452097D01*
X01174765Y00452589D01*
X01175155Y00453283D01*
X01181106Y00471503D01*
X01181763Y00473514D01*
X01181763Y00473514D01*
X01181858Y00474304D01*
X01181643Y00475070D01*
X01181151Y00475696D01*
X01180458Y00476086D01*
X01180458Y00476086D01*
X01178446Y00476743D01*
X01087266Y00506524D01*
X01087266Y00506524D01*
X01086476Y00506618D01*
D02*
G37*
G36*
X00703537Y00409019D02*
X00700956D01*
X00698464Y00408351D01*
X00696229Y00407061D01*
X00694404Y00405236D01*
X00693114Y00403002D01*
X00692446Y00400509D01*
Y00397929D01*
X00693114Y00395436D01*
X00694404Y00393202D01*
X00696229Y00391377D01*
X00698464Y00390087D01*
X00700956Y00389419D01*
X00703537D01*
X00706029Y00390087D01*
X00708264Y00391377D01*
X00710088Y00393202D01*
X00711378Y00395436D01*
X00712046Y00397929D01*
Y00400509D01*
X00711378Y00403002D01*
X00710088Y00405236D01*
X00708264Y00407061D01*
X00706029Y00408351D01*
X00703537Y00409019D01*
D02*
G37*
G36*
X00449537D02*
X00446956D01*
X00444464Y00408351D01*
X00442229Y00407061D01*
X00440404Y00405236D01*
X00439114Y00403002D01*
X00438446Y00400509D01*
Y00397929D01*
X00439114Y00395436D01*
X00440404Y00393202D01*
X00442229Y00391377D01*
X00444464Y00390087D01*
X00446956Y00389419D01*
X00449537D01*
X00452029Y00390087D01*
X00454264Y00391377D01*
X00456088Y00393202D01*
X00457378Y00395436D01*
X00458046Y00397929D01*
Y00400509D01*
X00457378Y00403002D01*
X00456088Y00405236D01*
X00454264Y00407061D01*
X00452029Y00408351D01*
X00449537Y00409019D01*
D02*
G37*
G36*
X00703537Y00383619D02*
X00700956D01*
X00698464Y00382951D01*
X00696229Y00381661D01*
X00694404Y00379836D01*
X00693114Y00377602D01*
X00692446Y00375109D01*
Y00372529D01*
X00693114Y00370036D01*
X00694404Y00367802D01*
X00696229Y00365977D01*
X00698464Y00364687D01*
X00700956Y00364019D01*
X00703537D01*
X00706029Y00364687D01*
X00708264Y00365977D01*
X00710088Y00367802D01*
X00711378Y00370036D01*
X00712046Y00372529D01*
Y00375109D01*
X00711378Y00377602D01*
X00710088Y00379836D01*
X00708264Y00381661D01*
X00706029Y00382951D01*
X00703537Y00383619D01*
D02*
G37*
G36*
X00449537D02*
X00446956D01*
X00444464Y00382951D01*
X00442229Y00381661D01*
X00440404Y00379836D01*
X00439114Y00377602D01*
X00438446Y00375109D01*
Y00372529D01*
X00439114Y00370036D01*
X00440404Y00367802D01*
X00442229Y00365977D01*
X00444464Y00364687D01*
X00446956Y00364019D01*
X00449537D01*
X00452029Y00364687D01*
X00454264Y00365977D01*
X00456088Y00367802D01*
X00457378Y00370036D01*
X00458046Y00372529D01*
Y00375109D01*
X00457378Y00377602D01*
X00456088Y00379836D01*
X00454264Y00381661D01*
X00452029Y00382951D01*
X00449537Y00383619D01*
D02*
G37*
G36*
X00135554Y00411302D02*
X00130831D01*
X00126168Y00410563D01*
X00121677Y00409104D01*
X00117469Y00406960D01*
X00113649Y00404185D01*
X00110310Y00400846D01*
X00107534Y00397025D01*
X00105391Y00392818D01*
X00103931Y00388327D01*
X00103193Y00383663D01*
Y00378941D01*
X00103931Y00374277D01*
X00105391Y00369786D01*
X00107534Y00365579D01*
X00110310Y00361758D01*
X00113649Y00358419D01*
X00117469Y00355644D01*
X00121677Y00353500D01*
X00126168Y00352041D01*
X00130831Y00351302D01*
X00135554D01*
X00140218Y00352041D01*
X00144709Y00353500D01*
X00148916Y00355644D01*
X00152736Y00358419D01*
X00156075Y00361758D01*
X00158851Y00365579D01*
X00160995Y00369786D01*
X00162454Y00374277D01*
X00163193Y00378941D01*
Y00383663D01*
X00162454Y00388327D01*
X00160995Y00392818D01*
X00158851Y00397025D01*
X00156075Y00400846D01*
X00152736Y00404185D01*
X00148916Y00406960D01*
X00144709Y00409104D01*
X00140218Y00410563D01*
X00135554Y00411302D01*
D02*
G37*
G36*
X01128817Y00383416D02*
X01124094D01*
X01119430Y00382678D01*
X01114939Y00381218D01*
X01110732Y00379075D01*
X01106912Y00376299D01*
X01103573Y00372960D01*
X01100797Y00369140D01*
X01098653Y00364932D01*
X01097194Y00360441D01*
X01096455Y00355778D01*
Y00351055D01*
X01097194Y00346391D01*
X01098653Y00341900D01*
X01100797Y00337693D01*
X01103573Y00333873D01*
X01106912Y00330534D01*
X01110732Y00327758D01*
X01114939Y00325614D01*
X01119430Y00324155D01*
X01124094Y00323416D01*
X01128817D01*
X01133480Y00324155D01*
X01137971Y00325614D01*
X01142179Y00327758D01*
X01145999Y00330534D01*
X01149338Y00333873D01*
X01152114Y00337693D01*
X01154258Y00341900D01*
X01155717Y00346391D01*
X01156455Y00351055D01*
Y00355778D01*
X01155717Y00360441D01*
X01154258Y00364932D01*
X01152114Y00369140D01*
X01149338Y00372960D01*
X01145999Y00376299D01*
X01142179Y00379075D01*
X01137971Y00381218D01*
X01133480Y00382678D01*
X01128817Y00383416D01*
D02*
G37*
G36*
X01051432Y00277924D02*
X01046710D01*
X01042046Y00277185D01*
X01037555Y00275726D01*
X01033347Y00273582D01*
X01029527Y00270807D01*
X01026188Y00267468D01*
X01023412Y00263648D01*
X01021268Y00259440D01*
X01019809Y00254949D01*
X01019071Y00250285D01*
Y00245563D01*
X01019809Y00240899D01*
X01021268Y00236408D01*
X01023412Y00232201D01*
X01026188Y00228381D01*
X01029527Y00225042D01*
X01033347Y00222266D01*
X01037555Y00220122D01*
X01042046Y00218663D01*
X01046710Y00217924D01*
X01051432D01*
X01056096Y00218663D01*
X01060587Y00220122D01*
X01064794Y00222266D01*
X01068614Y00225042D01*
X01071953Y00228381D01*
X01074729Y00232201D01*
X01076873Y00236408D01*
X01078332Y00240899D01*
X01079071Y00245563D01*
Y00250285D01*
X01078332Y00254949D01*
X01076873Y00259440D01*
X01074729Y00263648D01*
X01071953Y00267468D01*
X01068614Y00270807D01*
X01064794Y00273582D01*
X01060587Y00275726D01*
X01056096Y00277185D01*
X01051432Y00277924D01*
D02*
G37*
G36*
X00242607Y00263419D02*
X00237885D01*
X00233221Y00262680D01*
X00228730Y00261221D01*
X00224523Y00259077D01*
X00220703Y00256302D01*
X00217364Y00252963D01*
X00214588Y00249142D01*
X00212444Y00244935D01*
X00210985Y00240444D01*
X00210246Y00235780D01*
Y00231058D01*
X00210985Y00226394D01*
X00212444Y00221903D01*
X00214588Y00217696D01*
X00217364Y00213875D01*
X00220703Y00210536D01*
X00224523Y00207761D01*
X00228730Y00205617D01*
X00233221Y00204158D01*
X00237885Y00203419D01*
X00242607D01*
X00247271Y00204158D01*
X00251762Y00205617D01*
X00255970Y00207761D01*
X00259790Y00210536D01*
X00263129Y00213875D01*
X00265905Y00217696D01*
X00268048Y00221903D01*
X00269508Y00226394D01*
X00270246Y00231058D01*
Y00235780D01*
X00269508Y00240444D01*
X00268048Y00244935D01*
X00265905Y00249142D01*
X00263129Y00252963D01*
X00259790Y00256302D01*
X00255970Y00259077D01*
X00251762Y00261221D01*
X00247271Y00262680D01*
X00242607Y00263419D01*
D02*
G37*
G36*
X00892514Y00290347D02*
X00891719Y00290317D01*
X00890996Y00289985D01*
X00890996Y00289985D01*
X00866693Y00272395D01*
X00866152Y00271812D01*
X00865876Y00271066D01*
X00865905Y00270271D01*
X00866237Y00269548D01*
X00904245Y00217036D01*
X00904828Y00216495D01*
X00905574Y00216218D01*
X00906370Y00216248D01*
X00907093Y00216580D01*
X00917521Y00224128D01*
X00922835Y00223277D01*
X00926535Y00218164D01*
X00923397Y00198578D01*
X00923397Y00198578D01*
X00923427Y00197783D01*
X00923759Y00197060D01*
X00923759Y00197059D01*
X00940565Y00173839D01*
X00940768Y00173464D01*
X00944286Y00168603D01*
X00944580Y00168293D01*
X00948367Y00163060D01*
X00949608Y00161346D01*
X00949608Y00161346D01*
X00949608Y00161345D01*
X00950192Y00160805D01*
X00950938Y00160528D01*
X00951732Y00160557D01*
X00951733Y00160557D01*
X00952456Y00160889D01*
X00952456Y00160889D01*
X00954170Y00162130D01*
X00959402Y00165917D01*
X00959779Y00166121D01*
X00960090Y00166415D01*
X00967037Y00171443D01*
X00967578Y00172027D01*
X00967855Y00172773D01*
X00967842Y00173110D01*
X00968700Y00174878D01*
X00969651Y00176189D01*
X00971265Y00177608D01*
X00973046Y00177558D01*
X00975863Y00178229D01*
X00978411Y00179607D01*
X00980515Y00181597D01*
X00982033Y00184063D01*
X00982861Y00186839D01*
X00982893Y00187997D01*
X00983827Y00189183D01*
X00986253Y00190940D01*
X00987672Y00191456D01*
X00988782Y00191125D01*
X00991677Y00191044D01*
X00994495Y00191715D01*
X00997043Y00193092D01*
X00999147Y00195082D01*
X01000665Y00197549D01*
X01001492Y00200325D01*
X01001573Y00203220D01*
X01000902Y00206038D01*
X00999525Y00208585D01*
X00996007Y00213446D01*
X00994017Y00215550D01*
X00991550Y00217068D01*
X00988774Y00217896D01*
X00985879Y00217977D01*
X00983062Y00217306D01*
X00980514Y00215928D01*
X00978409Y00213938D01*
X00976892Y00211471D01*
X00976064Y00208696D01*
X00976032Y00207538D01*
X00975098Y00206352D01*
X00972672Y00204595D01*
X00971253Y00204079D01*
X00970143Y00204410D01*
X00967248Y00204491D01*
X00964430Y00203820D01*
X00961882Y00202442D01*
X00959778Y00200452D01*
X00958955Y00199115D01*
X00954640Y00197546D01*
X00952967Y00197731D01*
X00951625Y00199798D01*
X00954517Y00217847D01*
X00954517Y00217847D01*
X00954487Y00218643D01*
X00954155Y00219366D01*
X00954155Y00219366D01*
X00904621Y00287802D01*
X00904621Y00287802D01*
X00904037Y00288343D01*
X00903291Y00288620D01*
X00892514Y00290347D01*
D02*
G37*
G36*
X00363215Y00300081D02*
X00362468Y00299807D01*
X00361883Y00299268D01*
X00361883D01*
X00360637Y00297558D01*
X00324939Y00248599D01*
X00323692Y00246889D01*
X00323692Y00246889D01*
X00323358Y00246167D01*
X00323325Y00245372D01*
X00323600Y00244625D01*
X00324138Y00244040D01*
Y00244040D01*
X00325849Y00242793D01*
X00334541Y00236455D01*
X00335373Y00231138D01*
X00331656Y00226039D01*
X00312058Y00222969D01*
X00311311Y00222695D01*
X00310726Y00222156D01*
X00310726Y00222156D01*
X00293838Y00198995D01*
X00293544Y00198685D01*
X00290009Y00193837D01*
X00289805Y00193463D01*
X00284752Y00186532D01*
X00284417Y00185811D01*
X00284385Y00185016D01*
X00284659Y00184269D01*
X00285198Y00183683D01*
X00292127Y00178632D01*
X00292437Y00178336D01*
X00292814Y00178130D01*
X00298033Y00174325D01*
X00299743Y00173079D01*
X00299743D01*
X00300464Y00172744D01*
X00301259Y00172712D01*
X00301576Y00172828D01*
X00303942Y00172501D01*
X00304661Y00172298D01*
X00306912Y00170964D01*
X00307415Y00169255D01*
X00308924Y00166783D01*
X00311022Y00164785D01*
X00313565Y00163399D01*
X00316380Y00162718D01*
X00319276Y00162789D01*
X00320387Y00163116D01*
X00321804Y00162595D01*
X00324224Y00160830D01*
X00325154Y00159641D01*
X00325182Y00158483D01*
X00326000Y00155704D01*
X00327509Y00153232D01*
X00329607Y00151235D01*
X00332150Y00149849D01*
X00334965Y00149168D01*
X00337860Y00149239D01*
X00340639Y00150056D01*
X00343111Y00151566D01*
X00345108Y00153663D01*
X00348643Y00158511D01*
X00350029Y00161054D01*
X00350710Y00163870D01*
X00350639Y00166765D01*
X00349821Y00169544D01*
X00348312Y00172016D01*
X00346214Y00174013D01*
X00343671Y00175399D01*
X00340856Y00176080D01*
X00337961Y00176009D01*
X00336849Y00175682D01*
X00335433Y00176203D01*
X00333012Y00177968D01*
X00332083Y00179157D01*
X00332055Y00180316D01*
X00331237Y00183094D01*
X00329728Y00185566D01*
X00327630Y00187563D01*
X00325087Y00188950D01*
X00323560Y00189319D01*
X00320735Y00192937D01*
X00320393Y00194586D01*
X00321944Y00196501D01*
X00340004Y00199330D01*
X00340751Y00199604D01*
X00341336Y00200144D01*
X00341336Y00200144D01*
X00391109Y00268407D01*
X00391109Y00268407D01*
X00391443Y00269129D01*
X00391475Y00269924D01*
X00389786Y00280707D01*
X00389512Y00281454D01*
X00388973Y00282039D01*
X00388973Y00282039D01*
X00366442Y00298467D01*
X00364733Y00299714D01*
X00364732Y00299714D01*
X00364010Y00300048D01*
X00363215Y00300081D01*
D02*
G37*
G36*
X00893429Y00163651D02*
X00888707D01*
X00884043Y00162913D01*
X00879552Y00161453D01*
X00875344Y00159310D01*
X00871524Y00156534D01*
X00868185Y00153195D01*
X00865409Y00149375D01*
X00863266Y00145167D01*
X00861806Y00140676D01*
X00861068Y00136012D01*
Y00131290D01*
X00861806Y00126626D01*
X00863266Y00122135D01*
X00865409Y00117928D01*
X00868185Y00114108D01*
X00871524Y00110768D01*
X00875344Y00107993D01*
X00879552Y00105849D01*
X00884043Y00104390D01*
X00888707Y00103651D01*
X00893429D01*
X00898093Y00104390D01*
X00902584Y00105849D01*
X00906791Y00107993D01*
X00910611Y00110768D01*
X00913950Y00114108D01*
X00916726Y00117928D01*
X00918870Y00122135D01*
X00920329Y00126626D01*
X00921068Y00131290D01*
Y00136012D01*
X00920329Y00140676D01*
X00918870Y00145167D01*
X00916726Y00149375D01*
X00913950Y00153195D01*
X00910611Y00156534D01*
X00906791Y00159310D01*
X00902584Y00161453D01*
X00898093Y00162913D01*
X00893429Y00163651D01*
D02*
G37*
G36*
X00613246Y00204458D02*
X00583246D01*
X00582466Y00204303D01*
X00581804Y00203861D01*
X00581362Y00203199D01*
X00581207Y00202419D01*
Y00153419D01*
X00581207Y00153419D01*
X00581362Y00152639D01*
X00581804Y00151977D01*
X00581804Y00151977D01*
X00596804Y00136977D01*
X00596804Y00136977D01*
X00629971Y00103811D01*
Y00092895D01*
X00624971Y00090430D01*
X00624888Y00090493D01*
X00622212Y00091601D01*
X00619341Y00091979D01*
X00616469Y00091601D01*
X00613793Y00090493D01*
X00611495Y00088730D01*
X00610790Y00087810D01*
X00609338Y00087397D01*
X00606343D01*
X00604891Y00087810D01*
X00604186Y00088730D01*
X00601888Y00090493D01*
X00599212Y00091601D01*
X00596341Y00091979D01*
X00593469Y00091601D01*
X00590793Y00090493D01*
X00588495Y00088730D01*
X00586732Y00086432D01*
X00585624Y00083756D01*
X00585246Y00080885D01*
Y00074884D01*
X00585624Y00072013D01*
X00586732Y00069337D01*
X00588495Y00067039D01*
X00590793Y00065276D01*
X00593469Y00064168D01*
X00596341Y00063790D01*
X00599212Y00064168D01*
X00601888Y00065276D01*
X00604186Y00067039D01*
X00604891Y00067958D01*
X00606343Y00068372D01*
X00609338D01*
X00610790Y00067958D01*
X00611495Y00067039D01*
X00613793Y00065276D01*
X00616469Y00064168D01*
X00619341Y00063790D01*
X00622212Y00064168D01*
X00624888Y00065276D01*
X00624971Y00065339D01*
X00627505Y00064831D01*
X00629821Y00063704D01*
X00630331Y00063248D01*
X00630568Y00062894D01*
X00631229Y00062452D01*
X00632010Y00062297D01*
X00651177D01*
X00653293Y00062297D01*
X00653293Y00062297D01*
X00654074Y00062452D01*
X00654735Y00062894D01*
X00655177Y00063556D01*
X00655332Y00064336D01*
X00655332Y00064336D01*
X00655332Y00066452D01*
X00655332Y00162372D01*
X00655177Y00163152D01*
X00654735Y00163814D01*
X00614688Y00203861D01*
X00614027Y00204303D01*
X00613246Y00204458D01*
D02*
G37*
G36*
X00400113Y00148457D02*
X00395391D01*
X00390727Y00147718D01*
X00386236Y00146259D01*
X00382029Y00144115D01*
X00378208Y00141340D01*
X00374869Y00138001D01*
X00372094Y00134180D01*
X00369950Y00129973D01*
X00368491Y00125482D01*
X00367752Y00120818D01*
Y00116096D01*
X00368491Y00111432D01*
X00369950Y00106941D01*
X00372094Y00102733D01*
X00374869Y00098913D01*
X00378208Y00095574D01*
X00382029Y00092799D01*
X00386236Y00090655D01*
X00390727Y00089196D01*
X00395391Y00088457D01*
X00400113D01*
X00404777Y00089196D01*
X00409268Y00090655D01*
X00413475Y00092799D01*
X00417296Y00095574D01*
X00420635Y00098913D01*
X00423410Y00102733D01*
X00425554Y00106941D01*
X00427013Y00111432D01*
X00427752Y00116096D01*
Y00120818D01*
X00427013Y00125482D01*
X00425554Y00129973D01*
X00423410Y00134180D01*
X00420635Y00138001D01*
X00417296Y00141340D01*
X00413475Y00144115D01*
X00409268Y00146259D01*
X00404777Y00147718D01*
X00400113Y00148457D01*
D02*
G37*
G36*
X00524495Y00107885D02*
X00519773D01*
X00515109Y00107146D01*
X00510618Y00105687D01*
X00506410Y00103543D01*
X00502590Y00100768D01*
X00499251Y00097429D01*
X00496476Y00093609D01*
X00494332Y00089401D01*
X00492873Y00084910D01*
X00492134Y00080246D01*
Y00075524D01*
X00492873Y00070860D01*
X00494332Y00066369D01*
X00496476Y00062162D01*
X00499251Y00058341D01*
X00502590Y00055002D01*
X00506410Y00052227D01*
X00510618Y00050083D01*
X00515109Y00048624D01*
X00519773Y00047885D01*
X00524495D01*
X00529159Y00048624D01*
X00533650Y00050083D01*
X00537857Y00052227D01*
X00541678Y00055002D01*
X00545017Y00058341D01*
X00547792Y00062162D01*
X00549936Y00066369D01*
X00551395Y00070860D01*
X00552134Y00075524D01*
Y00080246D01*
X00551395Y00084910D01*
X00549936Y00089401D01*
X00547792Y00093609D01*
X00545017Y00097429D01*
X00541678Y00100768D01*
X00537857Y00103543D01*
X00533650Y00105687D01*
X00529159Y00107146D01*
X00524495Y00107885D01*
D02*
G37*
G36*
X00719401Y00107524D02*
X00714678D01*
X00710015Y00106786D01*
X00705524Y00105327D01*
X00701316Y00103183D01*
X00697496Y00100407D01*
X00694157Y00097068D01*
X00691381Y00093248D01*
X00689238Y00089041D01*
X00687778Y00084550D01*
X00687040Y00079886D01*
Y00075163D01*
X00687778Y00070500D01*
X00689238Y00066009D01*
X00691381Y00061801D01*
X00694157Y00057981D01*
X00697496Y00054642D01*
X00701316Y00051866D01*
X00705524Y00049722D01*
X00710015Y00048263D01*
X00714678Y00047525D01*
X00719401D01*
X00724065Y00048263D01*
X00728556Y00049722D01*
X00732763Y00051866D01*
X00736583Y00054642D01*
X00739922Y00057981D01*
X00742698Y00061801D01*
X00744842Y00066009D01*
X00746301Y00070500D01*
X00747040Y00075163D01*
Y00079886D01*
X00746301Y00084550D01*
X00744842Y00089041D01*
X00742698Y00093248D01*
X00739922Y00097068D01*
X00736583Y00100407D01*
X00732763Y00103183D01*
X00728556Y00105327D01*
X00724065Y00106786D01*
X00719401Y00107524D01*
D02*
G37*
%LPD*%
G36*
X00653870Y01153043D02*
X00639246Y01138419D01*
X00639246Y01130419D01*
X00644246Y01125419D01*
X00657964D01*
Y01060595D01*
X00627964D01*
X00620246Y01068314D01*
Y01152795D01*
X00635870Y01168419D01*
X00635870Y01197130D01*
X00653870D01*
X00653870Y01153043D01*
D02*
G37*
G36*
X00969836Y01088989D02*
X00946081Y01056410D01*
X00953471Y01009236D01*
X00956754Y00988279D01*
X00927886Y00948686D01*
X00903645Y00966360D01*
X00894880Y01022313D01*
X00952638Y01101528D01*
X00969836Y01088989D01*
D02*
G37*
G36*
X00326713Y01059168D02*
X00373876Y01051715D01*
X00394830Y01048405D01*
X00423646Y01008773D01*
X00399382Y00991131D01*
X00343441Y00999970D01*
X00285788Y01079262D01*
X00303002Y01091778D01*
X00326713Y01059168D01*
D02*
G37*
G36*
X01145525Y00796139D02*
X01172848Y00804955D01*
X01178376Y00787824D01*
X01136418Y00774286D01*
X01118011Y00783713D01*
X01110397Y00781256D01*
X01107174Y00774963D01*
X01111387Y00761907D01*
X01049695Y00742002D01*
X01040483Y00770552D01*
X01045458Y00780267D01*
X01125858Y00806210D01*
X01145525Y00796139D01*
D02*
G37*
G36*
X00144498Y00811057D02*
X00153875Y00792624D01*
X00161482Y00790146D01*
X00167784Y00793353D01*
X00172032Y00806396D01*
X00233670Y00786324D01*
X00224380Y00757798D01*
X00214652Y00752850D01*
X00134322Y00779009D01*
X00124304Y00798703D01*
X00097004Y00807593D01*
X00102578Y00824708D01*
X00144498Y00811057D01*
D02*
G37*
G36*
X00220359Y00518306D02*
X00194496Y00467921D01*
X00101168Y00437906D01*
X00094652Y00458167D01*
X00133035Y00470512D01*
X00154840Y00512991D01*
X00164527Y00531863D01*
X00211174Y00546865D01*
X00220359Y00518306D01*
D02*
G37*
G36*
X01179824Y00474147D02*
X01173216Y00453916D01*
X01134889Y00466434D01*
X01092312Y00444822D01*
X01073396Y00435220D01*
X01026817Y00450434D01*
X01036132Y00478951D01*
X01086633Y00504585D01*
X01179824Y00474147D01*
D02*
G37*
G36*
X00902969Y00286607D02*
X00952503Y00218170D01*
X00949007Y00196353D01*
X00965842Y00173095D01*
X00951260Y00162541D01*
X00925410Y00198255D01*
X00928682Y00218676D01*
X00923992Y00225156D01*
X00917010Y00226275D01*
X00905897Y00218232D01*
X00867889Y00270744D01*
X00892191Y00288333D01*
X00902969Y00286607D01*
D02*
G37*
G36*
X00387772Y00280392D02*
X00389461Y00269608D01*
X00339688Y00201345D01*
X00317859Y00197925D01*
X00300944Y00174726D01*
X00286399Y00185331D01*
X00312374Y00220955D01*
X00332806Y00224155D01*
X00337519Y00230620D01*
X00336424Y00237605D01*
X00325340Y00245687D01*
X00363531Y00298066D01*
X00387772Y00280392D01*
D02*
G37*
G36*
X00653293Y00162372D02*
X00653293Y00064336D01*
X00632010D01*
Y00104656D01*
X00598246Y00138419D01*
X00583246Y00153419D01*
Y00202419D01*
X00613246D01*
X00653293Y00162372D01*
D02*
G37*
D214*
X00911110Y00600419D02*
X00919860Y00609169D01*
X00960246D01*
X00898410Y00600419D02*
X00904410Y00594419D01*
X00917746D01*
X00925246Y00601919D01*
X00966996D02*
X00974246Y00609169D01*
X00925246Y00601919D02*
X00966996D01*
D215*
X00847246Y00590619D02*
D03*
X00918496Y00723719D02*
D03*
X00878996Y00748307D02*
D03*
D216*
X00847246Y00565219D02*
D03*
X00918496Y00749119D02*
D03*
X00878996Y00722907D02*
D03*
D217*
X00621870Y01185130D02*
D03*
X00598870D02*
D03*
X00644870D02*
D03*
X00619341Y00077884D02*
D03*
X00596341D02*
D03*
X00642341D02*
D03*
D218*
X00302614Y01074745D02*
D03*
X00339818Y01101797D02*
D03*
X00321216Y01088271D02*
D03*
D219*
X00111201Y00812435D02*
D03*
X00096957Y00768696D02*
D03*
X00104079Y00790565D02*
D03*
D220*
X00110712Y00452481D02*
D03*
X00096629Y00496272D02*
D03*
X00103671Y00474376D02*
D03*
D221*
X00319326Y00176174D02*
D03*
X00337910Y00162624D02*
D03*
X00300741Y00189725D02*
D03*
D222*
X00970147Y00191025D02*
D03*
X00988778Y00204510D02*
D03*
X00951515Y00177539D02*
D03*
D223*
X01156404Y00446079D02*
D03*
X01149263Y00424216D02*
D03*
X01163545Y00467942D02*
D03*
D224*
X01157129Y00814594D02*
D03*
X01150066Y00836482D02*
D03*
X01164192Y00792705D02*
D03*
D225*
X00972091Y01070577D02*
D03*
X00990675Y01057027D02*
D03*
X00953506Y01084128D02*
D03*
D226*
X00073346Y00697905D02*
D03*
X00073339Y00567501D02*
D03*
X00133826Y00883228D02*
D03*
X00242784Y01031171D02*
D03*
X00400291Y01145631D02*
D03*
X00524171Y01185490D02*
D03*
X00719166Y01185064D02*
D03*
X00893646Y01128282D02*
D03*
X01051152Y01013320D02*
D03*
X01127202Y00907387D02*
D03*
X01187056Y00721800D02*
D03*
X01187114Y00538740D02*
D03*
X01126455Y00353416D02*
D03*
X01049071Y00247924D02*
D03*
X00891068Y00133651D02*
D03*
X00717040Y00077525D02*
D03*
X00522134Y00077885D02*
D03*
X00397752Y00118457D02*
D03*
X00240246Y00233419D02*
D03*
X00133193Y00381302D02*
D03*
D227*
X00448246Y00831019D02*
D03*
D228*
Y00805619D02*
D03*
Y00373819D02*
D03*
Y00780219D02*
D03*
Y00754819D02*
D03*
Y00729419D02*
D03*
Y00704019D02*
D03*
Y00678619D02*
D03*
Y00653219D02*
D03*
Y00627819D02*
D03*
Y00602419D02*
D03*
Y00577019D02*
D03*
Y00551619D02*
D03*
Y00526219D02*
D03*
Y00500819D02*
D03*
Y00475419D02*
D03*
Y00450019D02*
D03*
Y00424619D02*
D03*
Y00399219D02*
D03*
X00702246Y00831019D02*
D03*
Y00805619D02*
D03*
Y00780219D02*
D03*
Y00754819D02*
D03*
Y00729419D02*
D03*
Y00704019D02*
D03*
Y00678619D02*
D03*
Y00653219D02*
D03*
Y00627819D02*
D03*
Y00602419D02*
D03*
Y00577019D02*
D03*
Y00551619D02*
D03*
Y00526219D02*
D03*
Y00500819D02*
D03*
Y00475419D02*
D03*
Y00450019D02*
D03*
Y00424619D02*
D03*
Y00399219D02*
D03*
Y00373819D02*
D03*
D229*
X00915760Y00632372D02*
D03*
X00904760Y00639372D02*
D03*
X00915760Y00647372D02*
D03*
X00893260D02*
D03*
Y00632372D02*
D03*
X00869010Y00644872D02*
D03*
X00790707Y00754307D02*
D03*
X00800707D02*
D03*
X00790169Y00900419D02*
D03*
Y00890419D02*
D03*
Y00880419D02*
D03*
X00800169Y00900419D02*
D03*
Y00890419D02*
D03*
Y00880419D02*
D03*
Y00870419D02*
D03*
X00790169D02*
D03*
X00780707Y00754307D02*
D03*
X00770707D02*
D03*
X00812407Y00728307D02*
D03*
X00822407D02*
D03*
X00842407D02*
D03*
X00832407D02*
D03*
X00812407Y00718307D02*
D03*
X00822407D02*
D03*
X00832407D02*
D03*
X00640914Y00201569D02*
D03*
X00665164Y00189069D02*
D03*
X00707364Y00240819D02*
D03*
X00704364Y00220819D02*
D03*
X00687664Y00189069D02*
D03*
X00676664Y00196069D02*
D03*
X00687664Y00204069D02*
D03*
X00665164D02*
D03*
X00670314Y00251169D02*
D03*
X00596746Y00127634D02*
D03*
X00542246Y00147104D02*
D03*
Y00157104D02*
D03*
X00610246Y00197419D02*
D03*
Y00187419D02*
D03*
X00600246D02*
D03*
X00590246D02*
D03*
X00600246Y00197419D02*
D03*
X00590246D02*
D03*
X00600297Y01061445D02*
D03*
X00576047Y01073946D02*
D03*
X00533847Y01022196D02*
D03*
X00536847Y01042196D02*
D03*
X00553547Y01073946D02*
D03*
X00564547Y01066946D02*
D03*
X00553547Y01058946D02*
D03*
X00576047D02*
D03*
X00570897Y01011845D02*
D03*
X00644464Y01135380D02*
D03*
X00698964Y01115911D02*
D03*
Y01105911D02*
D03*
X00630964Y01065596D02*
D03*
Y01075596D02*
D03*
X00640964D02*
D03*
X00650964D02*
D03*
X00640964Y01065596D02*
D03*
X00650964D02*
D03*
X00215005Y00731754D02*
D03*
X00195610Y00712566D02*
D03*
X00231750Y00656416D02*
D03*
X00213661Y00665462D02*
D03*
X00188643Y00691172D02*
D03*
X00198705Y00699464D02*
D03*
X00202906Y00686527D02*
D03*
X00209873Y00707922D02*
D03*
X00253063Y00688440D02*
D03*
X00158380Y00796644D02*
D03*
X00193769Y00842437D02*
D03*
X00203277Y00839341D02*
D03*
X00220555Y00762199D02*
D03*
X00211046Y00765296D02*
D03*
X00214143Y00774804D02*
D03*
X00217239Y00784313D02*
D03*
X00223651Y00771708D02*
D03*
X00226748Y00781216D02*
D03*
X00430158Y01069536D02*
D03*
X00424277Y01077624D02*
D03*
X00368747Y01061320D02*
D03*
X00336506Y00922664D02*
D03*
X00345841Y00904724D02*
D03*
X00381894Y00918141D02*
D03*
X00415044Y01008701D02*
D03*
X00406956Y01002820D02*
D03*
X00409163Y01016789D02*
D03*
X00401075Y01010908D02*
D03*
X00392987Y01005027D02*
D03*
X00398868Y00996939D02*
D03*
X00358361Y00959265D02*
D03*
X00340163Y00946033D02*
D03*
X00344355Y00958972D02*
D03*
X00349540Y00971397D02*
D03*
X00376504Y00975547D02*
D03*
X00331342Y00958165D02*
D03*
X00876491Y00270798D02*
D03*
X00884592Y00276661D02*
D03*
X00882355Y00262697D02*
D03*
X00890455Y00268560D02*
D03*
X00898556Y00274423D02*
D03*
X00892693Y00282524D02*
D03*
X00861246Y00209995D02*
D03*
X00867109Y00201895D02*
D03*
X00922674Y00218078D02*
D03*
X00915102Y00303867D02*
D03*
X00933281Y00320111D02*
D03*
X00951507Y00333303D02*
D03*
X00947287Y00320373D02*
D03*
X00960302Y00321152D02*
D03*
X00955215Y00356664D02*
D03*
X00945918Y00374624D02*
D03*
X00909837Y00361285D02*
D03*
X00942076Y00307960D02*
D03*
X00297813Y00277526D02*
D03*
X00330379Y00229685D02*
D03*
X00303705Y00285606D02*
D03*
X00368430Y00275930D02*
D03*
X00376510Y00270039D02*
D03*
X00360350Y00281822D02*
D03*
X00382402Y00278119D02*
D03*
X00374322Y00284010D02*
D03*
X00366241Y00289902D02*
D03*
X00430694Y00251137D02*
D03*
X00409627Y00263404D02*
D03*
X00462605Y00286161D02*
D03*
X00435273Y00237898D02*
D03*
X00440037Y00225761D02*
D03*
X00448875Y00237881D02*
D03*
X00472237Y00241577D02*
D03*
X00486444Y00255970D02*
D03*
X00421857Y00239017D02*
D03*
X01037245Y00824061D02*
D03*
X00976564Y00809893D02*
D03*
X00975037Y00848331D02*
D03*
X00994992Y00851617D02*
D03*
X01030336Y00845474D02*
D03*
X01027052Y00832856D02*
D03*
X01016061Y00840868D02*
D03*
X01022970Y00819455D02*
D03*
X01032796Y00797144D02*
D03*
X01116721Y00777814D02*
D03*
X01114928Y00719968D02*
D03*
X01105411Y00716898D02*
D03*
X01046162Y00769233D02*
D03*
X01055679Y00772303D02*
D03*
X01058750Y00762786D02*
D03*
X01061821Y00753270D02*
D03*
X01049233Y00759716D02*
D03*
X01052304Y00750199D02*
D03*
X00208558Y00538670D02*
D03*
X00211619Y00529151D02*
D03*
X00199038Y00535609D02*
D03*
X00202099Y00526089D02*
D03*
X00205161Y00516569D02*
D03*
X00214681Y00519631D02*
D03*
X00155483Y00572023D02*
D03*
X00145963Y00568961D02*
D03*
X00144114Y00511117D02*
D03*
X00237825Y00469386D02*
D03*
X00244714Y00447967D02*
D03*
X00233730Y00455989D02*
D03*
X00230434Y00443374D02*
D03*
X00265772Y00437197D02*
D03*
X00285730Y00440464D02*
D03*
X00223545Y00464794D02*
D03*
X00228021Y00491706D02*
D03*
X01033744Y00455535D02*
D03*
X01036848Y00465041D02*
D03*
X01043249Y00452430D02*
D03*
X01046354Y00461936D02*
D03*
X01049459Y00471442D02*
D03*
X01039953Y00474547D02*
D03*
X01057163Y00397391D02*
D03*
X01066669Y00394286D02*
D03*
X01102098Y00440047D02*
D03*
X01007509Y00548334D02*
D03*
X01050682Y00528815D02*
D03*
X01057668Y00550203D02*
D03*
X01061858Y00537263D02*
D03*
X01071927Y00545546D02*
D03*
X01046931Y00571278D02*
D03*
X01028851Y00580340D02*
D03*
X01064941Y00524158D02*
D03*
X01045530Y00504987D02*
D03*
X00881790Y00983347D02*
D03*
X00869560Y01007735D02*
D03*
X00804972Y00990782D02*
D03*
X00819180Y01005175D02*
D03*
X00851379Y01020991D02*
D03*
X00856143Y01008854D02*
D03*
X00842542Y01008870D02*
D03*
X00860722Y00995614D02*
D03*
X00828812Y00960591D02*
D03*
X00961037Y01017067D02*
D03*
X00993603Y00969226D02*
D03*
X00987712Y00961146D02*
D03*
X00909015Y00968633D02*
D03*
X00914906Y00976713D02*
D03*
X00922986Y00970822D02*
D03*
X00931067Y00964930D02*
D03*
X00917095Y00962741D02*
D03*
X00925175Y00956850D02*
D03*
X00898410Y00600419D02*
D03*
X00911110D02*
D03*
X00904246Y00588419D02*
D03*
X00968246Y00569187D02*
D03*
Y00579187D02*
D03*
X00960246Y00609169D02*
D03*
X00974246D02*
D03*
M02*
