M48
;Layer_Color=9474304
;FILE_FORMAT=4:4
METRIC
;TYPE=PLATED
T1F00S00C0.3000
T2F00S00C1.0200
T3F00S00C1.0400
T4F00S00C1.2000
T5F00S00C2.5000
%
T01
X00330379Y00229685
X00297813Y00277526
X00303705Y00285606
X00360350Y00281822
X00366241Y00289902
X00374322Y00284010
X00368430Y00275930
X00376510Y00270039
X00382402Y00278119
X00409627Y00263404
X00430694Y00251137
X00435273Y00237898
X00448875Y00237881
X00440037Y00225761
X00421857Y00239017
X00472237Y00241577
X00486444Y00255970
X00462605Y00286161
X00542246Y00157104
Y00147104
X00596746Y00127634
X00600246Y00187419
X00610246
Y00197419
X00600246
X00590246
Y00187419
X00640914Y00201569
X00665164Y00204069
Y00189069
X00676664Y00196069
X00687664Y00189069
Y00204069
X00704364Y00220819
X00707364Y00240819
X00670314Y00251169
X00882355Y00262697
X00876491Y00270798
X00884592Y00276661
X00890455Y00268560
X00898556Y00274423
X00892693Y00282524
X00915102Y00303867
X00942076Y00307960
X00947287Y00320373
X00960302Y00321152
X00951507Y00333303
X00955215Y00356664
X00945918Y00374624
X00909837Y00361285
X00933281Y00320111
X00922674Y00218078
X00861246Y00209995
X00867109Y00201895
X01066669Y00394286
X01057163Y00397391
X01043249Y00452430
X01033744Y00455535
X01036848Y00465041
X01046354Y00461936
X01049459Y00471442
X01039953Y00474547
X01045530Y00504987
X01050682Y00528815
X01064941Y00524158
X01061858Y00537263
X01057668Y00550203
X01071927Y00545546
X01046931Y00571278
X01028851Y00580340
X01007509Y00548334
X00968246Y00569187
Y00579187
X00974246Y00609169
X00960246
X00911110Y00600419
X00898410
X00904246Y00588419
X00904760Y00639372
X00915760Y00632372
Y00647372
X00893260
Y00632372
X00869010Y00644872
X00842407Y00728307
X00832407
X00822407
X00812407
Y00718307
X00822407
X00832407
X00800707Y00754307
X01049233Y00759716
X01046162Y00769233
X01055679Y00772303
X01058750Y00762786
X01061821Y00753270
X01052304Y00750199
X01105411Y00716898
X01114928Y00719968
X01116721Y00777814
X01102098Y00440047
X00790707Y00754307
X00780707
X00770707
X00220555Y00762199
X00211046Y00765296
X00214143Y00774804
X00217239Y00784313
X00226748Y00781216
X00223651Y00771708
X00215005Y00731754
X00209873Y00707922
X00195610Y00712566
X00198705Y00699464
X00202906Y00686527
X00188643Y00691172
X00213661Y00665462
X00231750Y00656416
X00253063Y00688440
X00208558Y00538670
X00211619Y00529151
X00202099Y00526089
X00199038Y00535609
X00205161Y00516569
X00214681Y00519631
X00228021Y00491706
X00223545Y00464794
X00237825Y00469386
X00233730Y00455989
X00230434Y00443374
X00244714Y00447967
X00265772Y00437197
X00285730Y00440464
X00144114Y00511117
X00145963Y00568961
X00155483Y00572023
X00158380Y00796644
X00193769Y00842437
X00203277Y00839341
X00345841Y00904724
X00336506Y00922664
X00340163Y00946033
X00344355Y00958972
X00331342Y00958165
X00358361Y00959265
X00349540Y00971397
X00376504Y00975547
X00392987Y01005027
X00368747Y01061320
X00381894Y00918141
X00398868Y00996939
X00406956Y01002820
X00415044Y01008701
X00409163Y01016789
X00401075Y01010908
X00430158Y01069536
X00424277Y01077624
X00553547Y01073946
Y01058946
X00564547Y01066946
X00576047Y01073946
Y01058946
X00600297Y01061445
X00630964Y01065596
Y01075596
X00640964
X00650964
Y01065596
X00640964
X00644464Y01135380
X00698964Y01115911
Y01105911
X00570897Y01011845
X00533847Y01022196
X00536847Y01042196
X00790169Y00900419
Y00890419
Y00880419
Y00870419
X00800169
Y00880419
Y00890419
Y00900419
X00828812Y00960591
X00804972Y00990782
X00819180Y01005175
X00842542Y01008870
X00856143Y01008854
X00869560Y01007735
X00860722Y00995614
X00881790Y00983347
X00914906Y00976713
X00909015Y00968633
X00917095Y00962741
X00922986Y00970822
X00931067Y00964930
X00925175Y00956850
X00987712Y00961146
X00993603Y00969226
X00961037Y01017067
X00851379Y01020991
X00975037Y00848331
X00994992Y00851617
X01016061Y00840868
X01030336Y00845474
X01027052Y00832856
X01022970Y00819455
X01037245Y00824061
X01032796Y00797144
X00976564Y00809893
T02
X00847246Y00565219
Y00590619
X00878996Y00722907
Y00748307
X00918496Y00749119
Y00723719
T03
X00448246Y00373819
X00702246
Y00399219
Y00424619
Y00450019
Y00475419
Y00500819
Y00526219
Y00551619
Y00577019
Y00602419
Y00627819
Y00653219
Y00678619
Y00704019
Y00729419
Y00754819
Y00780219
X00448246
Y00754819
Y00729419
Y00704019
Y00678619
Y00653219
Y00627819
Y00602419
Y00577019
Y00551619
Y00526219
Y00500819
Y00475419
Y00450019
Y00424619
Y00399219
Y00805619
Y00831019
X00702246
Y00805619
T04
X00300741Y00189725
X00319326Y00176174
X00337910Y00162624
X00596341Y00077884
X00619341
X00642341
X00951515Y00177539
X00970147Y00191025
X00988778Y00204510
X01149263Y00424216
X01156404Y00446079
X01163545Y00467942
X01164192Y00792705
X00104079Y00790565
X00096957Y00768696
X00096629Y00496272
X00103671Y00474376
X00110712Y00452481
X00111201Y00812435
X00302614Y01074745
X00321216Y01088271
X00339818Y01101797
X00598870Y01185130
X00621870
X00644870
X00953506Y01084128
X00972091Y01070577
X00990675Y01057027
X01150066Y00836482
X01157129Y00814594
T05
X00240246Y00233419
X00133193Y00381302
X00397752Y00118457
X00522134Y00077885
X00717040Y00077525
X00891068Y00133651
X01049071Y00247924
X01126455Y00353416
X01187114Y00538740
X01187056Y00721800
X00073346Y00697905
X00073339Y00567501
X00133826Y00883228
X00242784Y01031171
X00400291Y01145631
X00524171Y01185490
X00719166Y01185064
X00893646Y01128282
X01051152Y01013320
X01127202Y00907387
M30
