G04*
G04 #@! TF.GenerationSoftware,Altium Limited,Altium Designer,23.3.1 (30)*
G04*
G04 Layer_Physical_Order=1*
G04 Layer_Color=255*
%FSAX44Y44*%
%MOMM*%
G71*
G04*
G04 #@! TF.SameCoordinates,7327C3A3-A75D-4357-90E6-FA600F46672C*
G04*
G04*
G04 #@! TF.FilePolarity,Positive*
G04*
G01*
G75*
G04:AMPARAMS|DCode=16|XSize=1.97mm|YSize=0.6mm|CornerRadius=0.075mm|HoleSize=0mm|Usage=FLASHONLY|Rotation=270.000|XOffset=0mm|YOffset=0mm|HoleType=Round|Shape=RoundedRectangle|*
%AMROUNDEDRECTD16*
21,1,1.9700,0.4500,0,0,270.0*
21,1,1.8200,0.6000,0,0,270.0*
1,1,0.1500,-0.2250,-0.9100*
1,1,0.1500,-0.2250,0.9100*
1,1,0.1500,0.2250,0.9100*
1,1,0.1500,0.2250,-0.9100*
%
%ADD16ROUNDEDRECTD16*%
G04:AMPARAMS|DCode=17|XSize=1.97mm|YSize=0.6mm|CornerRadius=0.075mm|HoleSize=0mm|Usage=FLASHONLY|Rotation=53.903|XOffset=0mm|YOffset=0mm|HoleType=Round|Shape=RoundedRectangle|*
%AMROUNDEDRECTD17*
21,1,1.9700,0.4500,0,0,53.903*
21,1,1.8200,0.6000,0,0,53.903*
1,1,0.1500,0.7179,0.6027*
1,1,0.1500,-0.3543,-0.8679*
1,1,0.1500,-0.7179,-0.6027*
1,1,0.1500,0.3543,0.8679*
%
%ADD17ROUNDEDRECTD17*%
G04:AMPARAMS|DCode=18|XSize=1.97mm|YSize=0.6mm|CornerRadius=0.075mm|HoleSize=0mm|Usage=FLASHONLY|Rotation=17.883|XOffset=0mm|YOffset=0mm|HoleType=Round|Shape=RoundedRectangle|*
%AMROUNDEDRECTD18*
21,1,1.9700,0.4500,0,0,17.883*
21,1,1.8200,0.6000,0,0,17.883*
1,1,0.1500,0.9351,0.0653*
1,1,0.1500,-0.7969,-0.4936*
1,1,0.1500,-0.9351,-0.0653*
1,1,0.1500,0.7969,0.4936*
%
%ADD18ROUNDEDRECTD18*%
G04:AMPARAMS|DCode=19|XSize=1.97mm|YSize=0.6mm|CornerRadius=0.075mm|HoleSize=0mm|Usage=FLASHONLY|Rotation=341.912|XOffset=0mm|YOffset=0mm|HoleType=Round|Shape=RoundedRectangle|*
%AMROUNDEDRECTD19*
21,1,1.9700,0.4500,0,0,341.912*
21,1,1.8200,0.6000,0,0,341.912*
1,1,0.1500,0.7952,-0.4964*
1,1,0.1500,-0.9349,0.0687*
1,1,0.1500,-0.7952,0.4964*
1,1,0.1500,0.9349,-0.0687*
%
%ADD19ROUNDEDRECTD19*%
G04:AMPARAMS|DCode=20|XSize=1.97mm|YSize=0.6mm|CornerRadius=0.075mm|HoleSize=0mm|Usage=FLASHONLY|Rotation=305.897|XOffset=0mm|YOffset=0mm|HoleType=Round|Shape=RoundedRectangle|*
%AMROUNDEDRECTD20*
21,1,1.9700,0.4500,0,0,305.897*
21,1,1.8200,0.6000,0,0,305.897*
1,1,0.1500,0.3513,-0.8691*
1,1,0.1500,-0.7158,0.6052*
1,1,0.1500,-0.3513,0.8691*
1,1,0.1500,0.7158,-0.6052*
%
%ADD20ROUNDEDRECTD20*%
G04:AMPARAMS|DCode=21|XSize=1.97mm|YSize=0.6mm|CornerRadius=0.075mm|HoleSize=0mm|Usage=FLASHONLY|Rotation=197.828|XOffset=0mm|YOffset=0mm|HoleType=Round|Shape=RoundedRectangle|*
%AMROUNDEDRECTD21*
21,1,1.9700,0.4500,0,0,197.828*
21,1,1.8200,0.6000,0,0,197.828*
1,1,0.1500,-0.9352,-0.0644*
1,1,0.1500,0.7974,0.4928*
1,1,0.1500,0.9352,0.0644*
1,1,0.1500,-0.7974,-0.4928*
%
%ADD21ROUNDEDRECTD21*%
G04:AMPARAMS|DCode=22|XSize=1.97mm|YSize=0.6mm|CornerRadius=0.075mm|HoleSize=0mm|Usage=FLASHONLY|Rotation=161.962|XOffset=0mm|YOffset=0mm|HoleType=Round|Shape=RoundedRectangle|*
%AMROUNDEDRECTD22*
21,1,1.9700,0.4500,0,0,161.962*
21,1,1.8200,0.6000,0,0,161.962*
1,1,0.1500,-0.7956,0.4957*
1,1,0.1500,0.9349,-0.0678*
1,1,0.1500,0.7956,-0.4957*
1,1,0.1500,-0.9349,0.0678*
%
%ADD22ROUNDEDRECTD22*%
G04:AMPARAMS|DCode=23|XSize=1.97mm|YSize=0.6mm|CornerRadius=0.075mm|HoleSize=0mm|Usage=FLASHONLY|Rotation=126.021|XOffset=0mm|YOffset=0mm|HoleType=Round|Shape=RoundedRectangle|*
%AMROUNDEDRECTD23*
21,1,1.9700,0.4500,0,0,126.021*
21,1,1.8200,0.6000,0,0,126.021*
1,1,0.1500,-0.3532,0.8683*
1,1,0.1500,0.7171,-0.6037*
1,1,0.1500,0.3532,-0.8683*
1,1,0.1500,-0.7171,0.6037*
%
%ADD23ROUNDEDRECTD23*%
%ADD24R,1.4800X1.4400*%
%ADD25R,0.8000X0.8000*%
G04:AMPARAMS|DCode=26|XSize=0.9mm|YSize=0.9mm|CornerRadius=0.225mm|HoleSize=0mm|Usage=FLASHONLY|Rotation=90.000|XOffset=0mm|YOffset=0mm|HoleType=Round|Shape=RoundedRectangle|*
%AMROUNDEDRECTD26*
21,1,0.9000,0.4500,0,0,90.0*
21,1,0.4500,0.9000,0,0,90.0*
1,1,0.4500,0.2250,0.2250*
1,1,0.4500,0.2250,-0.2250*
1,1,0.4500,-0.2250,-0.2250*
1,1,0.4500,-0.2250,0.2250*
%
%ADD26ROUNDEDRECTD26*%
G04:AMPARAMS|DCode=27|XSize=0.9mm|YSize=0.9mm|CornerRadius=0.225mm|HoleSize=0mm|Usage=FLASHONLY|Rotation=216.021|XOffset=0mm|YOffset=0mm|HoleType=Round|Shape=RoundedRectangle|*
%AMROUNDEDRECTD27*
21,1,0.9000,0.4500,0,0,216.021*
21,1,0.4500,0.9000,0,0,216.021*
1,1,0.4500,-0.3143,0.0497*
1,1,0.4500,0.0497,0.3143*
1,1,0.4500,0.3143,-0.0497*
1,1,0.4500,-0.0497,-0.3143*
%
%ADD27ROUNDEDRECTD27*%
%ADD28P,1.1314X4X261.021*%
%ADD29R,0.8000X0.8000*%
G04:AMPARAMS|DCode=30|XSize=0.9mm|YSize=0.9mm|CornerRadius=0.225mm|HoleSize=0mm|Usage=FLASHONLY|Rotation=180.000|XOffset=0mm|YOffset=0mm|HoleType=Round|Shape=RoundedRectangle|*
%AMROUNDEDRECTD30*
21,1,0.9000,0.4500,0,0,180.0*
21,1,0.4500,0.9000,0,0,180.0*
1,1,0.4500,-0.2250,0.2250*
1,1,0.4500,0.2250,0.2250*
1,1,0.4500,0.2250,-0.2250*
1,1,0.4500,-0.2250,-0.2250*
%
%ADD30ROUNDEDRECTD30*%
%ADD31P,1.1314X4X188.903*%
G04:AMPARAMS|DCode=32|XSize=0.9mm|YSize=0.9mm|CornerRadius=0.225mm|HoleSize=0mm|Usage=FLASHONLY|Rotation=143.903|XOffset=0mm|YOffset=0mm|HoleType=Round|Shape=RoundedRectangle|*
%AMROUNDEDRECTD32*
21,1,0.9000,0.4500,0,0,143.903*
21,1,0.4500,0.9000,0,0,143.903*
1,1,0.4500,-0.0493,0.3144*
1,1,0.4500,0.3144,0.0493*
1,1,0.4500,0.0493,-0.3144*
1,1,0.4500,-0.3144,-0.0493*
%
%ADD32ROUNDEDRECTD32*%
%ADD33P,1.1314X4X152.883*%
G04:AMPARAMS|DCode=34|XSize=0.9mm|YSize=0.9mm|CornerRadius=0.225mm|HoleSize=0mm|Usage=FLASHONLY|Rotation=107.883|XOffset=0mm|YOffset=0mm|HoleType=Round|Shape=RoundedRectangle|*
%AMROUNDEDRECTD34*
21,1,0.9000,0.4500,0,0,107.883*
21,1,0.4500,0.9000,0,0,107.883*
1,1,0.4500,0.1450,0.2832*
1,1,0.4500,0.2832,-0.1450*
1,1,0.4500,-0.1450,-0.2832*
1,1,0.4500,-0.2832,0.1450*
%
%ADD34ROUNDEDRECTD34*%
%ADD35P,1.1314X4X116.912*%
G04:AMPARAMS|DCode=36|XSize=0.9mm|YSize=0.9mm|CornerRadius=0.225mm|HoleSize=0mm|Usage=FLASHONLY|Rotation=71.912|XOffset=0mm|YOffset=0mm|HoleType=Round|Shape=RoundedRectangle|*
%AMROUNDEDRECTD36*
21,1,0.9000,0.4500,0,0,71.912*
21,1,0.4500,0.9000,0,0,71.912*
1,1,0.4500,0.2837,0.1440*
1,1,0.4500,0.1440,-0.2837*
1,1,0.4500,-0.2837,-0.1440*
1,1,0.4500,-0.1440,0.2837*
%
%ADD36ROUNDEDRECTD36*%
%ADD37P,1.1314X4X80.897*%
G04:AMPARAMS|DCode=38|XSize=0.9mm|YSize=0.9mm|CornerRadius=0.225mm|HoleSize=0mm|Usage=FLASHONLY|Rotation=35.897|XOffset=0mm|YOffset=0mm|HoleType=Round|Shape=RoundedRectangle|*
%AMROUNDEDRECTD38*
21,1,0.9000,0.4500,0,0,35.897*
21,1,0.4500,0.9000,0,0,35.897*
1,1,0.4500,0.3142,-0.0503*
1,1,0.4500,-0.0503,-0.3142*
1,1,0.4500,-0.3142,0.0503*
1,1,0.4500,0.0503,0.3142*
%
%ADD38ROUNDEDRECTD38*%
%ADD39P,1.1314X4X332.828*%
G04:AMPARAMS|DCode=40|XSize=0.9mm|YSize=0.9mm|CornerRadius=0.225mm|HoleSize=0mm|Usage=FLASHONLY|Rotation=287.828|XOffset=0mm|YOffset=0mm|HoleType=Round|Shape=RoundedRectangle|*
%AMROUNDEDRECTD40*
21,1,0.9000,0.4500,0,0,287.828*
21,1,0.4500,0.9000,0,0,287.828*
1,1,0.4500,-0.1453,-0.2831*
1,1,0.4500,-0.2831,0.1453*
1,1,0.4500,0.1453,0.2831*
1,1,0.4500,0.2831,-0.1453*
%
%ADD40ROUNDEDRECTD40*%
%ADD41P,1.1314X4X296.962*%
G04:AMPARAMS|DCode=42|XSize=0.9mm|YSize=0.9mm|CornerRadius=0.225mm|HoleSize=0mm|Usage=FLASHONLY|Rotation=251.962|XOffset=0mm|YOffset=0mm|HoleType=Round|Shape=RoundedRectangle|*
%AMROUNDEDRECTD42*
21,1,0.9000,0.4500,0,0,251.962*
21,1,0.4500,0.9000,0,0,251.962*
1,1,0.4500,-0.2836,-0.1443*
1,1,0.4500,-0.1443,0.2836*
1,1,0.4500,0.2836,0.1443*
1,1,0.4500,0.1443,-0.2836*
%
%ADD42ROUNDEDRECTD42*%
G04:AMPARAMS|DCode=43|XSize=1.37mm|YSize=0.59mm|CornerRadius=0.1475mm|HoleSize=0mm|Usage=FLASHONLY|Rotation=0.000|XOffset=0mm|YOffset=0mm|HoleType=Round|Shape=RoundedRectangle|*
%AMROUNDEDRECTD43*
21,1,1.3700,0.2950,0,0,0.0*
21,1,1.0750,0.5900,0,0,0.0*
1,1,0.2950,0.5375,-0.1475*
1,1,0.2950,-0.5375,-0.1475*
1,1,0.2950,-0.5375,0.1475*
1,1,0.2950,0.5375,0.1475*
%
%ADD43ROUNDEDRECTD43*%
%ADD44R,2.7000X3.6000*%
G04:AMPARAMS|DCode=45|XSize=0.55mm|YSize=1.2mm|CornerRadius=0mm|HoleSize=0mm|Usage=FLASHONLY|Rotation=197.828|XOffset=0mm|YOffset=0mm|HoleType=Round|Shape=Rectangle|*
%AMROTATEDRECTD45*
4,1,4,0.0781,0.6554,0.4455,-0.4870,-0.0781,-0.6554,-0.4455,0.4870,0.0781,0.6554,0.0*
%
%ADD45ROTATEDRECTD45*%

G04:AMPARAMS|DCode=46|XSize=0.9mm|YSize=0.85mm|CornerRadius=0.2125mm|HoleSize=0mm|Usage=FLASHONLY|Rotation=197.828|XOffset=0mm|YOffset=0mm|HoleType=Round|Shape=RoundedRectangle|*
%AMROUNDEDRECTD46*
21,1,0.9000,0.4250,0,0,197.828*
21,1,0.4750,0.8500,0,0,197.828*
1,1,0.4250,-0.2912,0.1296*
1,1,0.4250,0.1610,0.2750*
1,1,0.4250,0.2912,-0.1296*
1,1,0.4250,-0.1610,-0.2750*
%
%ADD46ROUNDEDRECTD46*%
G04:AMPARAMS|DCode=47|XSize=0.9mm|YSize=0.85mm|CornerRadius=0.2125mm|HoleSize=0mm|Usage=FLASHONLY|Rotation=107.828|XOffset=0mm|YOffset=0mm|HoleType=Round|Shape=RoundedRectangle|*
%AMROUNDEDRECTD47*
21,1,0.9000,0.4250,0,0,107.828*
21,1,0.4750,0.8500,0,0,107.828*
1,1,0.4250,0.1296,0.2912*
1,1,0.4250,0.2750,-0.1610*
1,1,0.4250,-0.1296,-0.2912*
1,1,0.4250,-0.2750,0.1610*
%
%ADD47ROUNDEDRECTD47*%
G04:AMPARAMS|DCode=48|XSize=0.38mm|YSize=1.56mm|CornerRadius=0mm|HoleSize=0mm|Usage=FLASHONLY|Rotation=287.828|XOffset=0mm|YOffset=0mm|HoleType=Round|Shape=Rectangle|*
%AMROTATEDRECTD48*
4,1,4,-0.8007,-0.0579,0.6844,0.4197,0.8007,0.0579,-0.6844,-0.4197,-0.8007,-0.0579,0.0*
%
%ADD48ROTATEDRECTD48*%

G04:AMPARAMS|DCode=49|XSize=0.95mm|YSize=0.95mm|CornerRadius=0.2375mm|HoleSize=0mm|Usage=FLASHONLY|Rotation=287.828|XOffset=0mm|YOffset=0mm|HoleType=Round|Shape=RoundedRectangle|*
%AMROUNDEDRECTD49*
21,1,0.9500,0.4750,0,0,287.828*
21,1,0.4750,0.9500,0,0,287.828*
1,1,0.4750,-0.1534,-0.2988*
1,1,0.4750,-0.2988,0.1534*
1,1,0.4750,0.1534,0.2988*
1,1,0.4750,0.2988,-0.1534*
%
%ADD49ROUNDEDRECTD49*%
G04:AMPARAMS|DCode=50|XSize=0.95mm|YSize=0.95mm|CornerRadius=0.2375mm|HoleSize=0mm|Usage=FLASHONLY|Rotation=197.828|XOffset=0mm|YOffset=0mm|HoleType=Round|Shape=RoundedRectangle|*
%AMROUNDEDRECTD50*
21,1,0.9500,0.4750,0,0,197.828*
21,1,0.4750,0.9500,0,0,197.828*
1,1,0.4750,-0.2988,0.1534*
1,1,0.4750,0.1534,0.2988*
1,1,0.4750,0.2988,-0.1534*
1,1,0.4750,-0.1534,-0.2988*
%
%ADD50ROUNDEDRECTD50*%
G04:AMPARAMS|DCode=51|XSize=0.38mm|YSize=1.56mm|CornerRadius=0mm|HoleSize=0mm|Usage=FLASHONLY|Rotation=323.903|XOffset=0mm|YOffset=0mm|HoleType=Round|Shape=Rectangle|*
%AMROTATEDRECTD51*
4,1,4,-0.6131,-0.5183,0.3060,0.7422,0.6131,0.5183,-0.3060,-0.7422,-0.6131,-0.5183,0.0*
%
%ADD51ROTATEDRECTD51*%

G04:AMPARAMS|DCode=52|XSize=0.9mm|YSize=0.85mm|CornerRadius=0.2125mm|HoleSize=0mm|Usage=FLASHONLY|Rotation=233.903|XOffset=0mm|YOffset=0mm|HoleType=Round|Shape=RoundedRectangle|*
%AMROUNDEDRECTD52*
21,1,0.9000,0.4250,0,0,233.903*
21,1,0.4750,0.8500,0,0,233.903*
1,1,0.4250,-0.3116,-0.0667*
1,1,0.4250,-0.0318,0.3171*
1,1,0.4250,0.3116,0.0667*
1,1,0.4250,0.0318,-0.3171*
%
%ADD52ROUNDEDRECTD52*%
G04:AMPARAMS|DCode=53|XSize=0.9mm|YSize=0.85mm|CornerRadius=0.2125mm|HoleSize=0mm|Usage=FLASHONLY|Rotation=143.903|XOffset=0mm|YOffset=0mm|HoleType=Round|Shape=RoundedRectangle|*
%AMROUNDEDRECTD53*
21,1,0.9000,0.4250,0,0,143.903*
21,1,0.4750,0.8500,0,0,143.903*
1,1,0.4250,-0.0667,0.3116*
1,1,0.4250,0.3171,0.0318*
1,1,0.4250,0.0667,-0.3116*
1,1,0.4250,-0.3171,-0.0318*
%
%ADD53ROUNDEDRECTD53*%
G04:AMPARAMS|DCode=54|XSize=0.55mm|YSize=1.2mm|CornerRadius=0mm|HoleSize=0mm|Usage=FLASHONLY|Rotation=233.903|XOffset=0mm|YOffset=0mm|HoleType=Round|Shape=Rectangle|*
%AMROTATEDRECTD54*
4,1,4,-0.3228,0.5757,0.6468,-0.1313,0.3228,-0.5757,-0.6468,0.1313,-0.3228,0.5757,0.0*
%
%ADD54ROTATEDRECTD54*%

G04:AMPARAMS|DCode=55|XSize=0.95mm|YSize=0.95mm|CornerRadius=0.2375mm|HoleSize=0mm|Usage=FLASHONLY|Rotation=233.903|XOffset=0mm|YOffset=0mm|HoleType=Round|Shape=RoundedRectangle|*
%AMROUNDEDRECTD55*
21,1,0.9500,0.4750,0,0,233.903*
21,1,0.4750,0.9500,0,0,233.903*
1,1,0.4750,-0.3318,-0.0520*
1,1,0.4750,-0.0520,0.3318*
1,1,0.4750,0.3318,0.0520*
1,1,0.4750,0.0520,-0.3318*
%
%ADD55ROUNDEDRECTD55*%
G04:AMPARAMS|DCode=56|XSize=0.95mm|YSize=0.95mm|CornerRadius=0.2375mm|HoleSize=0mm|Usage=FLASHONLY|Rotation=323.903|XOffset=0mm|YOffset=0mm|HoleType=Round|Shape=RoundedRectangle|*
%AMROUNDEDRECTD56*
21,1,0.9500,0.4750,0,0,323.903*
21,1,0.4750,0.9500,0,0,323.903*
1,1,0.4750,0.0520,-0.3318*
1,1,0.4750,-0.3318,-0.0520*
1,1,0.4750,-0.0520,0.3318*
1,1,0.4750,0.3318,0.0520*
%
%ADD56ROUNDEDRECTD56*%
G04:AMPARAMS|DCode=57|XSize=0.95mm|YSize=0.95mm|CornerRadius=0.2375mm|HoleSize=0mm|Usage=FLASHONLY|Rotation=323.903|XOffset=0mm|YOffset=0mm|HoleType=Round|Shape=RoundedRectangle|*
%AMROUNDEDRECTD57*
21,1,0.9500,0.4750,0,0,323.903*
21,1,0.4750,0.9500,0,0,323.903*
1,1,0.4750,0.0520,-0.3318*
1,1,0.4750,-0.3318,-0.0520*
1,1,0.4750,-0.0520,0.3318*
1,1,0.4750,0.3318,0.0520*
%
%ADD57ROUNDEDRECTD57*%
G04:AMPARAMS|DCode=58|XSize=0.38mm|YSize=1.56mm|CornerRadius=0mm|HoleSize=0mm|Usage=FLASHONLY|Rotation=35.897|XOffset=0mm|YOffset=0mm|HoleType=Round|Shape=Rectangle|*
%AMROTATEDRECTD58*
4,1,4,0.3034,-0.7433,-0.6113,0.5204,-0.3034,0.7433,0.6113,-0.5204,0.3034,-0.7433,0.0*
%
%ADD58ROTATEDRECTD58*%

G04:AMPARAMS|DCode=59|XSize=0.55mm|YSize=1.2mm|CornerRadius=0mm|HoleSize=0mm|Usage=FLASHONLY|Rotation=305.897|XOffset=0mm|YOffset=0mm|HoleType=Round|Shape=Rectangle|*
%AMROTATEDRECTD59*
4,1,4,-0.6473,-0.1290,0.3248,0.5746,0.6473,0.1290,-0.3248,-0.5746,-0.6473,-0.1290,0.0*
%
%ADD59ROTATEDRECTD59*%

G04:AMPARAMS|DCode=60|XSize=0.95mm|YSize=0.95mm|CornerRadius=0.2375mm|HoleSize=0mm|Usage=FLASHONLY|Rotation=305.897|XOffset=0mm|YOffset=0mm|HoleType=Round|Shape=RoundedRectangle|*
%AMROUNDEDRECTD60*
21,1,0.9500,0.4750,0,0,305.897*
21,1,0.4750,0.9500,0,0,305.897*
1,1,0.4750,-0.0531,-0.3317*
1,1,0.4750,-0.3317,0.0531*
1,1,0.4750,0.0531,0.3317*
1,1,0.4750,0.3317,-0.0531*
%
%ADD60ROUNDEDRECTD60*%
G04:AMPARAMS|DCode=61|XSize=0.9mm|YSize=0.85mm|CornerRadius=0.2125mm|HoleSize=0mm|Usage=FLASHONLY|Rotation=305.897|XOffset=0mm|YOffset=0mm|HoleType=Round|Shape=RoundedRectangle|*
%AMROUNDEDRECTD61*
21,1,0.9000,0.4250,0,0,305.897*
21,1,0.4750,0.8500,0,0,305.897*
1,1,0.4250,-0.0329,-0.3170*
1,1,0.4250,-0.3114,0.0678*
1,1,0.4250,0.0329,0.3170*
1,1,0.4250,0.3114,-0.0678*
%
%ADD61ROUNDEDRECTD61*%
G04:AMPARAMS|DCode=62|XSize=0.95mm|YSize=0.95mm|CornerRadius=0.2375mm|HoleSize=0mm|Usage=FLASHONLY|Rotation=35.897|XOffset=0mm|YOffset=0mm|HoleType=Round|Shape=RoundedRectangle|*
%AMROUNDEDRECTD62*
21,1,0.9500,0.4750,0,0,35.897*
21,1,0.4750,0.9500,0,0,35.897*
1,1,0.4750,0.3317,-0.0531*
1,1,0.4750,-0.0531,-0.3317*
1,1,0.4750,-0.3317,0.0531*
1,1,0.4750,0.0531,0.3317*
%
%ADD62ROUNDEDRECTD62*%
G04:AMPARAMS|DCode=63|XSize=0.9mm|YSize=0.85mm|CornerRadius=0.2125mm|HoleSize=0mm|Usage=FLASHONLY|Rotation=215.897|XOffset=0mm|YOffset=0mm|HoleType=Round|Shape=RoundedRectangle|*
%AMROUNDEDRECTD63*
21,1,0.9000,0.4250,0,0,215.897*
21,1,0.4750,0.8500,0,0,215.897*
1,1,0.4250,-0.3170,0.0329*
1,1,0.4250,0.0678,0.3114*
1,1,0.4250,0.3170,-0.0329*
1,1,0.4250,-0.0678,-0.3114*
%
%ADD63ROUNDEDRECTD63*%
G04:AMPARAMS|DCode=64|XSize=0.95mm|YSize=0.95mm|CornerRadius=0.2375mm|HoleSize=0mm|Usage=FLASHONLY|Rotation=35.897|XOffset=0mm|YOffset=0mm|HoleType=Round|Shape=RoundedRectangle|*
%AMROUNDEDRECTD64*
21,1,0.9500,0.4750,0,0,35.897*
21,1,0.4750,0.9500,0,0,35.897*
1,1,0.4750,0.3317,-0.0531*
1,1,0.4750,-0.0531,-0.3317*
1,1,0.4750,-0.3317,0.0531*
1,1,0.4750,0.0531,0.3317*
%
%ADD64ROUNDEDRECTD64*%
G04:AMPARAMS|DCode=65|XSize=0.95mm|YSize=0.95mm|CornerRadius=0.2375mm|HoleSize=0mm|Usage=FLASHONLY|Rotation=126.021|XOffset=0mm|YOffset=0mm|HoleType=Round|Shape=RoundedRectangle|*
%AMROUNDEDRECTD65*
21,1,0.9500,0.4750,0,0,126.021*
21,1,0.4750,0.9500,0,0,126.021*
1,1,0.4750,0.0524,0.3318*
1,1,0.4750,0.3318,-0.0524*
1,1,0.4750,-0.0524,-0.3318*
1,1,0.4750,-0.3318,0.0524*
%
%ADD65ROUNDEDRECTD65*%
G04:AMPARAMS|DCode=66|XSize=0.9mm|YSize=0.85mm|CornerRadius=0.2125mm|HoleSize=0mm|Usage=FLASHONLY|Rotation=126.021|XOffset=0mm|YOffset=0mm|HoleType=Round|Shape=RoundedRectangle|*
%AMROUNDEDRECTD66*
21,1,0.9000,0.4250,0,0,126.021*
21,1,0.4750,0.8500,0,0,126.021*
1,1,0.4250,0.0322,0.3171*
1,1,0.4250,0.3115,-0.0671*
1,1,0.4250,-0.0322,-0.3171*
1,1,0.4250,-0.3115,0.0671*
%
%ADD66ROUNDEDRECTD66*%
G04:AMPARAMS|DCode=67|XSize=0.95mm|YSize=0.95mm|CornerRadius=0.2375mm|HoleSize=0mm|Usage=FLASHONLY|Rotation=216.021|XOffset=0mm|YOffset=0mm|HoleType=Round|Shape=RoundedRectangle|*
%AMROUNDEDRECTD67*
21,1,0.9500,0.4750,0,0,216.021*
21,1,0.4750,0.9500,0,0,216.021*
1,1,0.4750,-0.3318,0.0524*
1,1,0.4750,0.0524,0.3318*
1,1,0.4750,0.3318,-0.0524*
1,1,0.4750,-0.0524,-0.3318*
%
%ADD67ROUNDEDRECTD67*%
G04:AMPARAMS|DCode=68|XSize=0.55mm|YSize=1.2mm|CornerRadius=0mm|HoleSize=0mm|Usage=FLASHONLY|Rotation=126.021|XOffset=0mm|YOffset=0mm|HoleType=Round|Shape=Rectangle|*
%AMROTATEDRECTD68*
4,1,4,0.6470,0.1304,-0.3236,-0.5753,-0.6470,-0.1304,0.3236,0.5753,0.6470,0.1304,0.0*
%
%ADD68ROTATEDRECTD68*%

G04:AMPARAMS|DCode=69|XSize=0.9mm|YSize=0.85mm|CornerRadius=0.2125mm|HoleSize=0mm|Usage=FLASHONLY|Rotation=36.021|XOffset=0mm|YOffset=0mm|HoleType=Round|Shape=RoundedRectangle|*
%AMROUNDEDRECTD69*
21,1,0.9000,0.4250,0,0,36.021*
21,1,0.4750,0.8500,0,0,36.021*
1,1,0.4250,0.3171,-0.0322*
1,1,0.4250,-0.0671,-0.3115*
1,1,0.4250,-0.3171,0.0322*
1,1,0.4250,0.0671,0.3115*
%
%ADD69ROUNDEDRECTD69*%
G04:AMPARAMS|DCode=70|XSize=0.38mm|YSize=1.56mm|CornerRadius=0mm|HoleSize=0mm|Usage=FLASHONLY|Rotation=216.021|XOffset=0mm|YOffset=0mm|HoleType=Round|Shape=Rectangle|*
%AMROTATEDRECTD70*
4,1,4,-0.3050,0.7426,0.6124,-0.5191,0.3050,-0.7426,-0.6124,0.5191,-0.3050,0.7426,0.0*
%
%ADD70ROTATEDRECTD70*%

%ADD71R,0.3800X1.5600*%
%ADD72R,1.2000X0.5500*%
G04:AMPARAMS|DCode=73|XSize=0.9mm|YSize=0.85mm|CornerRadius=0.2125mm|HoleSize=0mm|Usage=FLASHONLY|Rotation=270.000|XOffset=0mm|YOffset=0mm|HoleType=Round|Shape=RoundedRectangle|*
%AMROUNDEDRECTD73*
21,1,0.9000,0.4250,0,0,270.0*
21,1,0.4750,0.8500,0,0,270.0*
1,1,0.4250,-0.2125,-0.2375*
1,1,0.4250,-0.2125,0.2375*
1,1,0.4250,0.2125,0.2375*
1,1,0.4250,0.2125,-0.2375*
%
%ADD73ROUNDEDRECTD73*%
G04:AMPARAMS|DCode=74|XSize=0.95mm|YSize=0.95mm|CornerRadius=0.2375mm|HoleSize=0mm|Usage=FLASHONLY|Rotation=270.000|XOffset=0mm|YOffset=0mm|HoleType=Round|Shape=RoundedRectangle|*
%AMROUNDEDRECTD74*
21,1,0.9500,0.4750,0,0,270.0*
21,1,0.4750,0.9500,0,0,270.0*
1,1,0.4750,-0.2375,-0.2375*
1,1,0.4750,-0.2375,0.2375*
1,1,0.4750,0.2375,0.2375*
1,1,0.4750,0.2375,-0.2375*
%
%ADD74ROUNDEDRECTD74*%
G04:AMPARAMS|DCode=75|XSize=0.95mm|YSize=0.95mm|CornerRadius=0.2375mm|HoleSize=0mm|Usage=FLASHONLY|Rotation=0.000|XOffset=0mm|YOffset=0mm|HoleType=Round|Shape=RoundedRectangle|*
%AMROUNDEDRECTD75*
21,1,0.9500,0.4750,0,0,0.0*
21,1,0.4750,0.9500,0,0,0.0*
1,1,0.4750,0.2375,-0.2375*
1,1,0.4750,-0.2375,-0.2375*
1,1,0.4750,-0.2375,0.2375*
1,1,0.4750,0.2375,0.2375*
%
%ADD75ROUNDEDRECTD75*%
G04:AMPARAMS|DCode=76|XSize=0.9mm|YSize=0.85mm|CornerRadius=0.2125mm|HoleSize=0mm|Usage=FLASHONLY|Rotation=180.000|XOffset=0mm|YOffset=0mm|HoleType=Round|Shape=RoundedRectangle|*
%AMROUNDEDRECTD76*
21,1,0.9000,0.4250,0,0,180.0*
21,1,0.4750,0.8500,0,0,180.0*
1,1,0.4250,-0.2375,0.2125*
1,1,0.4250,0.2375,0.2125*
1,1,0.4250,0.2375,-0.2125*
1,1,0.4250,-0.2375,-0.2125*
%
%ADD76ROUNDEDRECTD76*%
G04:AMPARAMS|DCode=77|XSize=0.38mm|YSize=1.56mm|CornerRadius=0mm|HoleSize=0mm|Usage=FLASHONLY|Rotation=107.883|XOffset=0mm|YOffset=0mm|HoleType=Round|Shape=Rectangle|*
%AMROTATEDRECTD77*
4,1,4,0.8007,0.0587,-0.6840,-0.4203,-0.8007,-0.0587,0.6840,0.4203,0.8007,0.0587,0.0*
%
%ADD77ROTATEDRECTD77*%

G04:AMPARAMS|DCode=78|XSize=0.38mm|YSize=1.56mm|CornerRadius=0mm|HoleSize=0mm|Usage=FLASHONLY|Rotation=71.912|XOffset=0mm|YOffset=0mm|HoleType=Round|Shape=Rectangle|*
%AMROTATEDRECTD78*
4,1,4,0.6825,-0.4228,-0.8005,0.0616,-0.6825,0.4228,0.8005,-0.0616,0.6825,-0.4228,0.0*
%
%ADD78ROTATEDRECTD78*%

G04:AMPARAMS|DCode=79|XSize=0.38mm|YSize=1.56mm|CornerRadius=0mm|HoleSize=0mm|Usage=FLASHONLY|Rotation=251.962|XOffset=0mm|YOffset=0mm|HoleType=Round|Shape=Rectangle|*
%AMROTATEDRECTD79*
4,1,4,-0.6828,0.4222,0.8005,-0.0609,0.6828,-0.4222,-0.8005,0.0609,-0.6828,0.4222,0.0*
%
%ADD79ROTATEDRECTD79*%

%ADD80R,1.0000X1.2500*%
G04:AMPARAMS|DCode=81|XSize=0.95mm|YSize=0.95mm|CornerRadius=0.2375mm|HoleSize=0mm|Usage=FLASHONLY|Rotation=17.883|XOffset=0mm|YOffset=0mm|HoleType=Round|Shape=RoundedRectangle|*
%AMROUNDEDRECTD81*
21,1,0.9500,0.4750,0,0,17.883*
21,1,0.4750,0.9500,0,0,17.883*
1,1,0.4750,0.2990,-0.1531*
1,1,0.4750,-0.1531,-0.2990*
1,1,0.4750,-0.2990,0.1531*
1,1,0.4750,0.1531,0.2990*
%
%ADD81ROUNDEDRECTD81*%
G04:AMPARAMS|DCode=82|XSize=0.9mm|YSize=0.85mm|CornerRadius=0.2125mm|HoleSize=0mm|Usage=FLASHONLY|Rotation=17.883|XOffset=0mm|YOffset=0mm|HoleType=Round|Shape=RoundedRectangle|*
%AMROUNDEDRECTD82*
21,1,0.9000,0.4250,0,0,17.883*
21,1,0.4750,0.8500,0,0,17.883*
1,1,0.4250,0.2913,-0.1293*
1,1,0.4250,-0.1608,-0.2752*
1,1,0.4250,-0.2913,0.1293*
1,1,0.4250,0.1608,0.2752*
%
%ADD82ROUNDEDRECTD82*%
G04:AMPARAMS|DCode=83|XSize=0.55mm|YSize=1.2mm|CornerRadius=0mm|HoleSize=0mm|Usage=FLASHONLY|Rotation=17.883|XOffset=0mm|YOffset=0mm|HoleType=Round|Shape=Rectangle|*
%AMROTATEDRECTD83*
4,1,4,-0.0775,-0.6555,-0.4460,0.4866,0.0775,0.6555,0.4460,-0.4866,-0.0775,-0.6555,0.0*
%
%ADD83ROTATEDRECTD83*%

G04:AMPARAMS|DCode=84|XSize=0.95mm|YSize=0.95mm|CornerRadius=0.2375mm|HoleSize=0mm|Usage=FLASHONLY|Rotation=107.883|XOffset=0mm|YOffset=0mm|HoleType=Round|Shape=RoundedRectangle|*
%AMROUNDEDRECTD84*
21,1,0.9500,0.4750,0,0,107.883*
21,1,0.4750,0.9500,0,0,107.883*
1,1,0.4750,0.1531,0.2990*
1,1,0.4750,0.2990,-0.1531*
1,1,0.4750,-0.1531,-0.2990*
1,1,0.4750,-0.2990,0.1531*
%
%ADD84ROUNDEDRECTD84*%
G04:AMPARAMS|DCode=85|XSize=0.9mm|YSize=0.85mm|CornerRadius=0.2125mm|HoleSize=0mm|Usage=FLASHONLY|Rotation=287.883|XOffset=0mm|YOffset=0mm|HoleType=Round|Shape=RoundedRectangle|*
%AMROUNDEDRECTD85*
21,1,0.9000,0.4250,0,0,287.883*
21,1,0.4750,0.8500,0,0,287.883*
1,1,0.4250,-0.1293,-0.2913*
1,1,0.4250,-0.2752,0.1608*
1,1,0.4250,0.1293,0.2913*
1,1,0.4250,0.2752,-0.1608*
%
%ADD85ROUNDEDRECTD85*%
G04:AMPARAMS|DCode=86|XSize=0.95mm|YSize=0.95mm|CornerRadius=0.2375mm|HoleSize=0mm|Usage=FLASHONLY|Rotation=107.883|XOffset=0mm|YOffset=0mm|HoleType=Round|Shape=RoundedRectangle|*
%AMROUNDEDRECTD86*
21,1,0.9500,0.4750,0,0,107.883*
21,1,0.4750,0.9500,0,0,107.883*
1,1,0.4750,0.1531,0.2990*
1,1,0.4750,0.2990,-0.1531*
1,1,0.4750,-0.1531,-0.2990*
1,1,0.4750,-0.2990,0.1531*
%
%ADD86ROUNDEDRECTD86*%
G04:AMPARAMS|DCode=87|XSize=0.95mm|YSize=0.95mm|CornerRadius=0.2375mm|HoleSize=0mm|Usage=FLASHONLY|Rotation=251.962|XOffset=0mm|YOffset=0mm|HoleType=Round|Shape=RoundedRectangle|*
%AMROUNDEDRECTD87*
21,1,0.9500,0.4750,0,0,251.962*
21,1,0.4750,0.9500,0,0,251.962*
1,1,0.4750,-0.2994,-0.1523*
1,1,0.4750,-0.1523,0.2994*
1,1,0.4750,0.2994,0.1523*
1,1,0.4750,0.1523,-0.2994*
%
%ADD87ROUNDEDRECTD87*%
G04:AMPARAMS|DCode=88|XSize=0.55mm|YSize=1.2mm|CornerRadius=0mm|HoleSize=0mm|Usage=FLASHONLY|Rotation=161.962|XOffset=0mm|YOffset=0mm|HoleType=Round|Shape=Rectangle|*
%AMROTATEDRECTD88*
4,1,4,0.4473,0.4854,0.0757,-0.6557,-0.4473,-0.4854,-0.0757,0.6557,0.4473,0.4854,0.0*
%
%ADD88ROTATEDRECTD88*%

G04:AMPARAMS|DCode=89|XSize=0.9mm|YSize=0.85mm|CornerRadius=0.2125mm|HoleSize=0mm|Usage=FLASHONLY|Rotation=161.962|XOffset=0mm|YOffset=0mm|HoleType=Round|Shape=RoundedRectangle|*
%AMROUNDEDRECTD89*
21,1,0.9000,0.4250,0,0,161.962*
21,1,0.4750,0.8500,0,0,161.962*
1,1,0.4250,-0.1600,0.2756*
1,1,0.4250,0.2916,0.1285*
1,1,0.4250,0.1600,-0.2756*
1,1,0.4250,-0.2916,-0.1285*
%
%ADD89ROUNDEDRECTD89*%
G04:AMPARAMS|DCode=90|XSize=0.9mm|YSize=0.85mm|CornerRadius=0.2125mm|HoleSize=0mm|Usage=FLASHONLY|Rotation=71.962|XOffset=0mm|YOffset=0mm|HoleType=Round|Shape=RoundedRectangle|*
%AMROUNDEDRECTD90*
21,1,0.9000,0.4250,0,0,71.962*
21,1,0.4750,0.8500,0,0,71.962*
1,1,0.4250,0.2756,0.1600*
1,1,0.4250,0.1285,-0.2916*
1,1,0.4250,-0.2756,-0.1600*
1,1,0.4250,-0.1285,0.2916*
%
%ADD90ROUNDEDRECTD90*%
G04:AMPARAMS|DCode=91|XSize=0.95mm|YSize=0.95mm|CornerRadius=0.2375mm|HoleSize=0mm|Usage=FLASHONLY|Rotation=161.962|XOffset=0mm|YOffset=0mm|HoleType=Round|Shape=RoundedRectangle|*
%AMROUNDEDRECTD91*
21,1,0.9500,0.4750,0,0,161.962*
21,1,0.4750,0.9500,0,0,161.962*
1,1,0.4750,-0.1523,0.2994*
1,1,0.4750,0.2994,0.1523*
1,1,0.4750,0.1523,-0.2994*
1,1,0.4750,-0.2994,-0.1523*
%
%ADD91ROUNDEDRECTD91*%
G04:AMPARAMS|DCode=92|XSize=0.9mm|YSize=0.85mm|CornerRadius=0.2125mm|HoleSize=0mm|Usage=FLASHONLY|Rotation=341.912|XOffset=0mm|YOffset=0mm|HoleType=Round|Shape=RoundedRectangle|*
%AMROUNDEDRECTD92*
21,1,0.9000,0.4250,0,0,341.912*
21,1,0.4750,0.8500,0,0,341.912*
1,1,0.4250,0.1598,-0.2757*
1,1,0.4250,-0.2917,-0.1283*
1,1,0.4250,-0.1598,0.2757*
1,1,0.4250,0.2917,0.1283*
%
%ADD92ROUNDEDRECTD92*%
G04:AMPARAMS|DCode=93|XSize=0.55mm|YSize=1.2mm|CornerRadius=0mm|HoleSize=0mm|Usage=FLASHONLY|Rotation=341.912|XOffset=0mm|YOffset=0mm|HoleType=Round|Shape=Rectangle|*
%AMROTATEDRECTD93*
4,1,4,-0.4477,-0.4850,-0.0751,0.6557,0.4477,0.4850,0.0751,-0.6557,-0.4477,-0.4850,0.0*
%
%ADD93ROTATEDRECTD93*%

G04:AMPARAMS|DCode=94|XSize=0.95mm|YSize=0.95mm|CornerRadius=0.2375mm|HoleSize=0mm|Usage=FLASHONLY|Rotation=341.912|XOffset=0mm|YOffset=0mm|HoleType=Round|Shape=RoundedRectangle|*
%AMROUNDEDRECTD94*
21,1,0.9500,0.4750,0,0,341.912*
21,1,0.4750,0.9500,0,0,341.912*
1,1,0.4750,0.1520,-0.2995*
1,1,0.4750,-0.2995,-0.1520*
1,1,0.4750,-0.1520,0.2995*
1,1,0.4750,0.2995,0.1520*
%
%ADD94ROUNDEDRECTD94*%
G04:AMPARAMS|DCode=95|XSize=0.95mm|YSize=0.95mm|CornerRadius=0.2375mm|HoleSize=0mm|Usage=FLASHONLY|Rotation=71.912|XOffset=0mm|YOffset=0mm|HoleType=Round|Shape=RoundedRectangle|*
%AMROUNDEDRECTD95*
21,1,0.9500,0.4750,0,0,71.912*
21,1,0.4750,0.9500,0,0,71.912*
1,1,0.4750,0.2995,0.1520*
1,1,0.4750,0.1520,-0.2995*
1,1,0.4750,-0.2995,-0.1520*
1,1,0.4750,-0.1520,0.2995*
%
%ADD95ROUNDEDRECTD95*%
G04:AMPARAMS|DCode=96|XSize=0.95mm|YSize=0.95mm|CornerRadius=0.2375mm|HoleSize=0mm|Usage=FLASHONLY|Rotation=71.912|XOffset=0mm|YOffset=0mm|HoleType=Round|Shape=RoundedRectangle|*
%AMROUNDEDRECTD96*
21,1,0.9500,0.4750,0,0,71.912*
21,1,0.4750,0.9500,0,0,71.912*
1,1,0.4750,0.2995,0.1520*
1,1,0.4750,0.1520,-0.2995*
1,1,0.4750,-0.2995,-0.1520*
1,1,0.4750,-0.1520,0.2995*
%
%ADD96ROUNDEDRECTD96*%
G04:AMPARAMS|DCode=97|XSize=0.9mm|YSize=0.85mm|CornerRadius=0.2125mm|HoleSize=0mm|Usage=FLASHONLY|Rotation=251.912|XOffset=0mm|YOffset=0mm|HoleType=Round|Shape=RoundedRectangle|*
%AMROUNDEDRECTD97*
21,1,0.9000,0.4250,0,0,251.912*
21,1,0.4750,0.8500,0,0,251.912*
1,1,0.4250,-0.2757,-0.1598*
1,1,0.4250,-0.1283,0.2917*
1,1,0.4250,0.2757,0.1598*
1,1,0.4250,0.1283,-0.2917*
%
%ADD97ROUNDEDRECTD97*%
%ADD98R,1.2500X1.0000*%
%ADD204R,3.3020X2.4130*%
G04:AMPARAMS|DCode=205|XSize=2.413mm|YSize=3.302mm|CornerRadius=0mm|HoleSize=0mm|Usage=FLASHONLY|Rotation=53.903|XOffset=0mm|YOffset=0mm|HoleType=Round|Shape=Rectangle|*
%AMROTATEDRECTD205*
4,1,4,0.6232,-1.9476,-2.0449,-0.0022,-0.6232,1.9476,2.0449,0.0022,0.6232,-1.9476,0.0*
%
%ADD205ROTATEDRECTD205*%

G04:AMPARAMS|DCode=206|XSize=2.413mm|YSize=3.302mm|CornerRadius=0mm|HoleSize=0mm|Usage=FLASHONLY|Rotation=17.883|XOffset=0mm|YOffset=0mm|HoleType=Round|Shape=Rectangle|*
%AMROTATEDRECTD206*
4,1,4,-0.6412,-1.9417,-1.6552,1.2008,0.6412,1.9417,1.6552,-1.2008,-0.6412,-1.9417,0.0*
%
%ADD206ROTATEDRECTD206*%

G04:AMPARAMS|DCode=207|XSize=2.413mm|YSize=3.302mm|CornerRadius=0mm|HoleSize=0mm|Usage=FLASHONLY|Rotation=341.912|XOffset=0mm|YOffset=0mm|HoleType=Round|Shape=Rectangle|*
%AMROTATEDRECTD207*
4,1,4,-1.6595,-1.1948,-0.6343,1.9440,1.6595,1.1948,0.6343,-1.9440,-1.6595,-1.1948,0.0*
%
%ADD207ROTATEDRECTD207*%

G04:AMPARAMS|DCode=208|XSize=2.413mm|YSize=3.302mm|CornerRadius=0mm|HoleSize=0mm|Usage=FLASHONLY|Rotation=305.897|XOffset=0mm|YOffset=0mm|HoleType=Round|Shape=Rectangle|*
%AMROTATEDRECTD208*
4,1,4,-2.0448,0.0093,0.6300,1.9454,2.0448,-0.0093,-0.6300,-1.9454,-2.0448,0.0093,0.0*
%
%ADD208ROTATEDRECTD208*%

G04:AMPARAMS|DCode=209|XSize=2.413mm|YSize=3.302mm|CornerRadius=0mm|HoleSize=0mm|Usage=FLASHONLY|Rotation=197.828|XOffset=0mm|YOffset=0mm|HoleType=Round|Shape=Rectangle|*
%AMROTATEDRECTD209*
4,1,4,0.6431,1.9411,1.6540,-1.2023,-0.6431,-1.9411,-1.6540,1.2023,0.6431,1.9411,0.0*
%
%ADD209ROTATEDRECTD209*%

G04:AMPARAMS|DCode=210|XSize=2.413mm|YSize=3.302mm|CornerRadius=0mm|HoleSize=0mm|Usage=FLASHONLY|Rotation=161.962|XOffset=0mm|YOffset=0mm|HoleType=Round|Shape=Rectangle|*
%AMROTATEDRECTD210*
4,1,4,1.6584,1.1963,0.6360,-1.9435,-1.6584,-1.1963,-0.6360,1.9435,1.6584,1.1963,0.0*
%
%ADD210ROTATEDRECTD210*%

G04:AMPARAMS|DCode=211|XSize=2.413mm|YSize=3.302mm|CornerRadius=0mm|HoleSize=0mm|Usage=FLASHONLY|Rotation=126.021|XOffset=0mm|YOffset=0mm|HoleType=Round|Shape=Rectangle|*
%AMROTATEDRECTD211*
4,1,4,2.0448,-0.0049,-0.6258,-1.9467,-2.0448,0.0049,0.6258,1.9467,2.0448,-0.0049,0.0*
%
%ADD211ROTATEDRECTD211*%

%ADD212C,0.5000*%
%ADD213C,0.4000*%
%ADD214C,0.3000*%
%ADD215R,1.5300X1.5300*%
%ADD216C,1.5300*%
%ADD217O,1.8000X2.4000*%
G04:AMPARAMS|DCode=218|XSize=1.8mm|YSize=2.4mm|CornerRadius=0mm|HoleSize=0mm|Usage=FLASHONLY|Rotation=216.021|XOffset=0mm|YOffset=0mm|HoleType=Round|Shape=Round|*
%AMOVALD218*
21,1,0.6000,1.8000,0.0000,0.0000,306.021*
1,1,1.8000,-0.1764,0.2426*
1,1,1.8000,0.1764,-0.2426*
%
%ADD218OVALD218*%

G04:AMPARAMS|DCode=219|XSize=1.8mm|YSize=2.4mm|CornerRadius=0mm|HoleSize=0mm|Usage=FLASHONLY|Rotation=71.962|XOffset=0mm|YOffset=0mm|HoleType=Round|Shape=Round|*
%AMOVALD219*
21,1,0.6000,1.8000,0.0000,0.0000,161.962*
1,1,1.8000,0.2853,-0.0929*
1,1,1.8000,-0.2853,0.0929*
%
%ADD219OVALD219*%

G04:AMPARAMS|DCode=220|XSize=1.8mm|YSize=2.4mm|CornerRadius=0mm|HoleSize=0mm|Usage=FLASHONLY|Rotation=287.828|XOffset=0mm|YOffset=0mm|HoleType=Round|Shape=Round|*
%AMOVALD220*
21,1,0.6000,1.8000,0.0000,0.0000,17.828*
1,1,1.8000,-0.2856,-0.0919*
1,1,1.8000,0.2856,0.0919*
%
%ADD220OVALD220*%

G04:AMPARAMS|DCode=221|XSize=1.8mm|YSize=2.4mm|CornerRadius=0mm|HoleSize=0mm|Usage=FLASHONLY|Rotation=143.903|XOffset=0mm|YOffset=0mm|HoleType=Round|Shape=Round|*
%AMOVALD221*
21,1,0.6000,1.8000,0.0000,0.0000,233.903*
1,1,1.8000,0.1767,0.2424*
1,1,1.8000,-0.1767,-0.2424*
%
%ADD221OVALD221*%

G04:AMPARAMS|DCode=222|XSize=1.8mm|YSize=2.4mm|CornerRadius=0mm|HoleSize=0mm|Usage=FLASHONLY|Rotation=215.897|XOffset=0mm|YOffset=0mm|HoleType=Round|Shape=Round|*
%AMOVALD222*
21,1,0.6000,1.8000,0.0000,0.0000,305.897*
1,1,1.8000,-0.1759,0.2430*
1,1,1.8000,0.1759,-0.2430*
%
%ADD222OVALD222*%

G04:AMPARAMS|DCode=223|XSize=1.8mm|YSize=2.4mm|CornerRadius=0mm|HoleSize=0mm|Usage=FLASHONLY|Rotation=71.912|XOffset=0mm|YOffset=0mm|HoleType=Round|Shape=Round|*
%AMOVALD223*
21,1,0.6000,1.8000,0.0000,0.0000,161.912*
1,1,1.8000,0.2852,-0.0931*
1,1,1.8000,-0.2852,0.0931*
%
%ADD223OVALD223*%

G04:AMPARAMS|DCode=224|XSize=1.8mm|YSize=2.4mm|CornerRadius=0mm|HoleSize=0mm|Usage=FLASHONLY|Rotation=287.883|XOffset=0mm|YOffset=0mm|HoleType=Round|Shape=Round|*
%AMOVALD224*
21,1,0.6000,1.8000,0.0000,0.0000,17.883*
1,1,1.8000,-0.2855,-0.0921*
1,1,1.8000,0.2855,0.0921*
%
%ADD224OVALD224*%

G04:AMPARAMS|DCode=225|XSize=1.8mm|YSize=2.4mm|CornerRadius=0mm|HoleSize=0mm|Usage=FLASHONLY|Rotation=143.903|XOffset=0mm|YOffset=0mm|HoleType=Round|Shape=Round|*
%AMOVALD225*
21,1,0.6000,1.8000,0.0000,0.0000,233.903*
1,1,1.8000,0.1767,0.2424*
1,1,1.8000,-0.1767,-0.2424*
%
%ADD225OVALD225*%

%ADD226C,5.0000*%
%ADD227R,1.5600X1.5600*%
%ADD228C,1.5600*%
%ADD229C,0.6000*%
G36*
X00667009Y01256547D02*
X00691577Y01254614D01*
X00716049Y01251717D01*
X00740388Y01247862D01*
X00764558Y01243055D01*
X00788520Y01237302D01*
X00812238Y01230613D01*
X00835676Y01222997D01*
X00858795Y01214468D01*
X00881562Y01205038D01*
X00903942Y01194720D01*
X00925899Y01183533D01*
X00947400Y01171491D01*
X00968412Y01158615D01*
X00988902Y01144925D01*
X01008838Y01130440D01*
X01028191Y01115183D01*
X01046930Y01099179D01*
X01065026Y01082451D01*
X01082451Y01065026D01*
X01099179Y01046930D01*
X01115183Y01028191D01*
X01130440Y01008838D01*
X01144924Y00988902D01*
X01158616Y00968411D01*
X01171491Y00947400D01*
X01183533Y00925899D01*
X01194720Y00903942D01*
X01205038Y00881562D01*
X01214468Y00858795D01*
X01222998Y00835675D01*
X01230613Y00812238D01*
X01237302Y00788520D01*
X01243055Y00764558D01*
X01247862Y00740388D01*
X01251717Y00716048D01*
X01254614Y00691577D01*
X01256547Y00667009D01*
X01257515Y00642385D01*
Y00630064D01*
Y00617742D01*
X01256547Y00593118D01*
X01254614Y00568550D01*
X01251717Y00544078D01*
X01247862Y00519739D01*
X01243055Y00495569D01*
X01237302Y00471607D01*
X01230613Y00447889D01*
X01222997Y00424451D01*
X01214468Y00401332D01*
X01205038Y00378565D01*
X01194720Y00356185D01*
X01183533Y00334228D01*
X01171491Y00312727D01*
X01158615Y00291715D01*
X01144925Y00271225D01*
X01130440Y00251289D01*
X01115183Y00231936D01*
X01099179Y00213197D01*
X01082451Y00195101D01*
X01065026Y00177676D01*
X01046930Y00160948D01*
X01028191Y00144944D01*
X01008838Y00129687D01*
X00988902Y00115203D01*
X00968411Y00101511D01*
X00947400Y00088636D01*
X00925899Y00076594D01*
X00903942Y00065407D01*
X00881562Y00055089D01*
X00858795Y00045659D01*
X00835675Y00037129D01*
X00812238Y00029514D01*
X00788520Y00022825D01*
X00764558Y00017072D01*
X00740388Y00012265D01*
X00716048Y00008410D01*
X00691577Y00005513D01*
X00667009Y00003580D01*
X00642385Y00002612D01*
X00630064Y00002612D01*
X00617742D01*
X00593118Y00003580D01*
X00568550Y00005513D01*
X00544078Y00008410D01*
X00519739Y00012265D01*
X00495569Y00017072D01*
X00471607Y00022825D01*
X00447889Y00029514D01*
X00424451Y00037130D01*
X00401332Y00045659D01*
X00378565Y00055089D01*
X00356185Y00065407D01*
X00334228Y00076594D01*
X00312727Y00088636D01*
X00291715Y00101511D01*
X00271225Y00115202D01*
X00251289Y00129687D01*
X00231936Y00144944D01*
X00213197Y00160948D01*
X00195101Y00177676D01*
X00177676Y00195101D01*
X00160948Y00213197D01*
X00144944Y00231936D01*
X00129687Y00251289D01*
X00115203Y00271225D01*
X00101511Y00291716D01*
X00088636Y00312727D01*
X00076594Y00334228D01*
X00065407Y00356185D01*
X00055089Y00378565D01*
X00045659Y00401332D01*
X00037129Y00424452D01*
X00029514Y00447889D01*
X00022825Y00471607D01*
X00017072Y00495569D01*
X00012265Y00519739D01*
X00008410Y00544079D01*
X00005513Y00568550D01*
X00003580Y00593118D01*
X00002612Y00617742D01*
X00002612Y00630064D01*
Y00642385D01*
X00003580Y00667009D01*
X00005513Y00691577D01*
X00008410Y00716049D01*
X00012265Y00740388D01*
X00017072Y00764558D01*
X00022825Y00788520D01*
X00029514Y00812238D01*
X00037130Y00835676D01*
X00045659Y00858795D01*
X00055089Y00881562D01*
X00065407Y00903942D01*
X00076594Y00925899D01*
X00088636Y00947400D01*
X00101511Y00968412D01*
X00115202Y00988902D01*
X00129687Y01008838D01*
X00144944Y01028191D01*
X00160948Y01046930D01*
X00177676Y01065026D01*
X00195101Y01082451D01*
X00213197Y01099179D01*
X00231936Y01115183D01*
X00251289Y01130440D01*
X00271225Y01144924D01*
X00291716Y01158616D01*
X00312727Y01171491D01*
X00334228Y01183533D01*
X00356185Y01194720D01*
X00378565Y01205038D01*
X00401332Y01214468D01*
X00424452Y01222998D01*
X00447889Y01230613D01*
X00471607Y01237302D01*
X00495569Y01243055D01*
X00519739Y01247862D01*
X00544079Y01251717D01*
X00568550Y01254614D01*
X00593118Y01256547D01*
X00617742Y01257515D01*
X00642385D01*
X00667009Y01256547D01*
D02*
G37*
%LPC*%
G36*
X00632780Y01201635D02*
X00580597D01*
X00579816Y01201479D01*
X00579155Y01201038D01*
X00578713Y01200376D01*
X00578558Y01199595D01*
Y01145228D01*
Y01134640D01*
X00577335Y01133497D01*
X00573558Y01131382D01*
X00573147Y01131464D01*
X00568647D01*
X00566988Y01131134D01*
X00566905Y01131078D01*
X00565263Y01130195D01*
X00562030D01*
X00560389Y01131078D01*
X00560305Y01131134D01*
X00558647Y01131464D01*
X00554147D01*
X00553062Y01131248D01*
X00548214Y01130881D01*
Y01130881D01*
X00536214D01*
Y01121466D01*
X00535585Y01118579D01*
X00532043Y01116880D01*
X00523214D01*
Y01104881D01*
X00535214D01*
X00535214Y01104881D01*
X00540085Y01104568D01*
X00541447Y01104297D01*
X00545947D01*
X00547605Y01104627D01*
X00547689Y01104683D01*
X00548159Y01104936D01*
X00549287Y01105087D01*
X00551010Y01103954D01*
X00553356Y01101869D01*
X00553143Y01100796D01*
Y01082596D01*
X00548360Y01081011D01*
X00546037D01*
Y01055271D01*
X00546037Y01054099D01*
X00545500Y01054099D01*
X00543247D01*
X00542174Y01053886D01*
X00541264Y01053278D01*
X00540656Y01052368D01*
X00540443Y01051296D01*
X00537841Y01047196D01*
X00535852D01*
X00534015Y01046434D01*
X00532608Y01045028D01*
X00531847Y01043190D01*
Y01041201D01*
X00532608Y01039363D01*
X00534015Y01037957D01*
X00535852Y01037196D01*
X00537841D01*
X00540443Y01033096D01*
X00540443Y01033095D01*
X00539524Y01030215D01*
X00538084Y01027918D01*
X00537940Y01027773D01*
X00537598Y01027544D01*
X00537089Y01026784D01*
X00535836D01*
X00534841Y01027196D01*
X00532852D01*
X00531015Y01026434D01*
X00529608Y01025028D01*
X00528847Y01023190D01*
Y01021201D01*
X00529608Y01019363D01*
X00531015Y01017957D01*
X00532852Y01017196D01*
X00534841D01*
X00535836Y01017607D01*
X00537089D01*
X00537598Y01016847D01*
X00538962Y01015935D01*
X00540572Y01015615D01*
X00544822D01*
X00546431Y01015935D01*
X00547620Y01016729D01*
X00547981Y01016847D01*
X00552912D01*
X00553273Y01016729D01*
X00554462Y01015935D01*
X00556072Y01015615D01*
X00560322D01*
X00561309Y01015811D01*
X00562604Y01015410D01*
X00564622Y01013835D01*
X00565897Y01012571D01*
Y01010851D01*
X00566658Y01009013D01*
X00568064Y01007607D01*
X00569902Y01006845D01*
X00571891D01*
X00573729Y01007607D01*
X00575136Y01009013D01*
X00575897Y01010851D01*
Y01012840D01*
X00575485Y01013834D01*
Y01016038D01*
X00576426Y01016666D01*
X00577393Y01018113D01*
X00577732Y01019820D01*
Y01024570D01*
X00577393Y01026278D01*
X00577239Y01026509D01*
X00575397Y01030529D01*
X00575737Y01032023D01*
X00575951Y01033096D01*
Y01051295D01*
X00580733Y01052880D01*
X00583057D01*
Y01079142D01*
X00583057Y01079142D01*
X00583057D01*
X00587782Y01079806D01*
X00590546D01*
X00591915Y01078070D01*
X00593627Y01074806D01*
X00593461Y01073970D01*
Y01069221D01*
X00593801Y01067514D01*
X00594767Y01066066D01*
X00595709Y01065437D01*
Y01063434D01*
X00595297Y01062440D01*
Y01060451D01*
X00596058Y01058613D01*
X00597464Y01057207D01*
X00599302Y01056445D01*
X00601291D01*
X00603129Y01057207D01*
X00604535Y01058613D01*
X00605297Y01060451D01*
Y01062440D01*
X00604885Y01063434D01*
Y01065437D01*
X00605826Y01066066D01*
X00606793Y01067514D01*
X00607132Y01069221D01*
Y01073970D01*
X00606966Y01074806D01*
X00608679Y01078070D01*
X00610048Y01079806D01*
X00621623D01*
X00622925Y01074967D01*
Y01059881D01*
X00623080Y01059100D01*
X00623522Y01058439D01*
X00623522Y01058438D01*
X00638522Y01043439D01*
X00639184Y01042997D01*
X00639964Y01042841D01*
X00696964D01*
X00696964Y01042841D01*
X00697745Y01042997D01*
X00698406Y01043439D01*
X00698406Y01043439D01*
X00705656Y01050689D01*
X00706098Y01051350D01*
X00706254Y01052131D01*
Y01062996D01*
X00712614D01*
Y01071899D01*
X00712793Y01072796D01*
Y01130396D01*
X00712614Y01131292D01*
Y01140195D01*
X00704411D01*
X00704214Y01140235D01*
X00693714D01*
X00693517Y01140195D01*
X00691412D01*
X00691214Y01140235D01*
X00686122D01*
X00685925Y01140195D01*
X00685314D01*
Y01140061D01*
X00684680Y01139638D01*
X00671295Y01126253D01*
X00666295Y01128255D01*
X00665975Y01129865D01*
X00665063Y01131229D01*
X00663699Y01132141D01*
X00662089Y01132461D01*
X00657839D01*
X00656230Y01132141D01*
X00655041Y01131347D01*
X00654680Y01131229D01*
X00653911D01*
X00652807Y01131721D01*
X00652752Y01131764D01*
X00649464Y01136112D01*
Y01136375D01*
X00648703Y01138213D01*
X00647297Y01139619D01*
X00645459Y01140380D01*
X00643470D01*
X00641632Y01139619D01*
X00640226Y01138213D01*
X00640215Y01138201D01*
X00634842Y01139354D01*
X00634819Y01139457D01*
Y01169675D01*
X00637876Y01171607D01*
X00639819Y01172316D01*
X00641998Y01171413D01*
X00644870Y01171035D01*
X00647741Y01171413D01*
X00650417Y01172522D01*
X00652715Y01174285D01*
X00654478Y01176583D01*
X00655587Y01179259D01*
X00655965Y01182130D01*
Y01188130D01*
X00655587Y01191002D01*
X00654478Y01193678D01*
X00652715Y01195975D01*
X00650417Y01197739D01*
X00647741Y01198847D01*
X00644870Y01199225D01*
X00641998Y01198847D01*
X00639819Y01197944D01*
X00637150Y01198826D01*
X00634669Y01200372D01*
X00634624Y01200436D01*
X00634222Y01201038D01*
X00633560Y01201479D01*
X00632780Y01201635D01*
D02*
G37*
G36*
X00526532Y01215490D02*
X00521810D01*
X00517146Y01214751D01*
X00512655Y01213292D01*
X00508448Y01211148D01*
X00504627Y01208373D01*
X00501288Y01205034D01*
X00498513Y01201214D01*
X00496369Y01197006D01*
X00494910Y01192515D01*
X00494171Y01187851D01*
Y01183129D01*
X00494910Y01178465D01*
X00496369Y01173974D01*
X00498513Y01169767D01*
X00501288Y01165946D01*
X00504627Y01162607D01*
X00508448Y01159832D01*
X00512655Y01157688D01*
X00517146Y01156229D01*
X00521810Y01155490D01*
X00526532D01*
X00531196Y01156229D01*
X00535687Y01157688D01*
X00539894Y01159832D01*
X00543715Y01162607D01*
X00547054Y01165946D01*
X00549829Y01169767D01*
X00551973Y01173974D01*
X00553432Y01178465D01*
X00554171Y01183129D01*
Y01187851D01*
X00553432Y01192515D01*
X00551973Y01197006D01*
X00549829Y01201214D01*
X00547054Y01205034D01*
X00543715Y01208373D01*
X00539894Y01211148D01*
X00535687Y01213292D01*
X00531196Y01214751D01*
X00526532Y01215490D01*
D02*
G37*
G36*
X00721527Y01215064D02*
X00716805D01*
X00712141Y01214325D01*
X00707650Y01212866D01*
X00703443Y01210723D01*
X00699622Y01207947D01*
X00696283Y01204608D01*
X00693508Y01200788D01*
X00691364Y01196580D01*
X00689905Y01192089D01*
X00689166Y01187425D01*
Y01182703D01*
X00689905Y01178039D01*
X00691364Y01173548D01*
X00693508Y01169341D01*
X00696283Y01165520D01*
X00699622Y01162181D01*
X00703443Y01159406D01*
X00707650Y01157262D01*
X00712141Y01155803D01*
X00716805Y01155064D01*
X00721527D01*
X00726191Y01155803D01*
X00730682Y01157262D01*
X00734890Y01159406D01*
X00738710Y01162181D01*
X00742049Y01165520D01*
X00744825Y01169341D01*
X00746968Y01173548D01*
X00748428Y01178039D01*
X00749166Y01182703D01*
Y01187425D01*
X00748428Y01192089D01*
X00746968Y01196580D01*
X00744825Y01200788D01*
X00742049Y01204608D01*
X00738710Y01207947D01*
X00734890Y01210723D01*
X00730682Y01212866D01*
X00726191Y01214325D01*
X00721527Y01215064D01*
D02*
G37*
G36*
X00402652Y01175631D02*
X00397930D01*
X00393266Y01174892D01*
X00388775Y01173433D01*
X00384567Y01171289D01*
X00380747Y01168514D01*
X00377408Y01165175D01*
X00374632Y01161354D01*
X00372489Y01157147D01*
X00371029Y01152656D01*
X00370291Y01147992D01*
Y01143270D01*
X00371029Y01138606D01*
X00372489Y01134115D01*
X00374632Y01129908D01*
X00377408Y01126087D01*
X00380747Y01122748D01*
X00384567Y01119973D01*
X00388775Y01117829D01*
X00393266Y01116370D01*
X00397930Y01115631D01*
X00402652D01*
X00407316Y01116370D01*
X00411807Y01117829D01*
X00416014Y01119973D01*
X00419834Y01122748D01*
X00423173Y01126087D01*
X00425949Y01129908D01*
X00428093Y01134115D01*
X00429552Y01138606D01*
X00430291Y01143270D01*
Y01147992D01*
X00429552Y01152656D01*
X00428093Y01157147D01*
X00425949Y01161354D01*
X00423173Y01165175D01*
X00419834Y01168514D01*
X00416014Y01171289D01*
X00411807Y01173433D01*
X00407316Y01174892D01*
X00402652Y01175631D01*
D02*
G37*
G36*
X00896008Y01158282D02*
X00891285D01*
X00886621Y01157543D01*
X00882130Y01156084D01*
X00877923Y01153940D01*
X00874103Y01151164D01*
X00870764Y01147825D01*
X00867988Y01144005D01*
X00865844Y01139798D01*
X00864385Y01135307D01*
X00863646Y01130643D01*
Y01125921D01*
X00864385Y01121257D01*
X00865844Y01116766D01*
X00867988Y01112558D01*
X00870764Y01108738D01*
X00874103Y01105399D01*
X00877923Y01102623D01*
X00882130Y01100480D01*
X00886621Y01099020D01*
X00891285Y01098282D01*
X00896008D01*
X00900671Y01099020D01*
X00905162Y01100480D01*
X00909370Y01102623D01*
X00913190Y01105399D01*
X00916529Y01108738D01*
X00919305Y01112558D01*
X00921449Y01116766D01*
X00922908Y01121257D01*
X00923646Y01125921D01*
Y01130643D01*
X00922908Y01135307D01*
X00921449Y01139798D01*
X00919305Y01144005D01*
X00916529Y01147825D01*
X00913190Y01151164D01*
X00909370Y01153940D01*
X00905162Y01156084D01*
X00900671Y01157543D01*
X00896008Y01158282D01*
D02*
G37*
G36*
X00956452Y01097584D02*
X00953556Y01097513D01*
X00950778Y01096695D01*
X00948306Y01095186D01*
X00946309Y01093089D01*
X00942774Y01088240D01*
X00941387Y01085697D01*
X00940706Y01082882D01*
X00940777Y01079987D01*
X00941595Y01077208D01*
X00943104Y01074736D01*
X00943639Y01074227D01*
X00942210Y01068942D01*
X00914917Y01064666D01*
X00914170Y01064392D01*
X00913585Y01063853D01*
X00913585Y01063853D01*
X00907347Y01055298D01*
X00905685Y01055095D01*
X00901387Y01055611D01*
X00901103Y01055919D01*
X00897467Y01058570D01*
X00895933Y01059281D01*
X00895832Y01059285D01*
X00895304Y01059358D01*
X00892832Y01060699D01*
X00890798Y01062643D01*
X00890567Y01063124D01*
X00890533Y01063219D01*
X00889387Y01064462D01*
X00885751Y01067113D01*
X00884747Y01067578D01*
X00880614Y01070137D01*
X00880614Y01070137D01*
X00870918Y01077207D01*
X00865371Y01069600D01*
X00863161Y01067638D01*
X00859299Y01068352D01*
X00852165Y01073554D01*
X00845095Y01063857D01*
X00854792Y01056787D01*
D01*
X00858543Y01053665D01*
X00859484Y01052644D01*
X00863120Y01049993D01*
X00864654Y01049283D01*
X00864755Y01049279D01*
X00865284Y01049206D01*
X00866284Y01048663D01*
X00867009Y01046733D01*
X00867676Y01043665D01*
X00866871Y01042924D01*
X00858161Y01030977D01*
X00851969Y01029557D01*
X00851351Y01029755D01*
X00849473Y01031124D01*
X00834309Y01010326D01*
X00833618Y01009379D01*
X00833185Y01009696D01*
X00831364Y01011023D01*
X00830371Y01011483D01*
X00829278Y01011527D01*
X00828251Y01011151D01*
X00827500Y01010458D01*
X00827364Y01010377D01*
X00822012Y01009414D01*
X00820174Y01010175D01*
X00818185D01*
X00816347Y01009414D01*
X00814941Y01008007D01*
X00814180Y01006170D01*
Y01004180D01*
X00814941Y01002343D01*
X00816347Y01000936D01*
X00816718Y00995786D01*
X00816687Y00995672D01*
X00816357Y00995388D01*
X00814346Y00993942D01*
X00811768Y00992909D01*
X00811566Y00992877D01*
X00811155Y00992894D01*
X00810296Y00992579D01*
X00809356Y00993264D01*
X00809211Y00993614D01*
X00807805Y00995021D01*
X00805967Y00995782D01*
X00803978D01*
X00802140Y00995021D01*
X00800734Y00993614D01*
X00799972Y00991777D01*
Y00989787D01*
X00800734Y00987950D01*
X00802140Y00986543D01*
X00803978Y00985782D01*
X00804852Y00984250D01*
X00805417Y00982709D01*
X00806529Y00981503D01*
X00809963Y00978999D01*
X00811452Y00978309D01*
X00812881Y00978251D01*
X00813242Y00978132D01*
X00817226Y00975228D01*
X00817449Y00974920D01*
X00817942Y00973577D01*
X00819053Y00972371D01*
X00822488Y00969867D01*
X00823401Y00969444D01*
X00824396Y00968109D01*
X00824648Y00967586D01*
X00825270Y00964120D01*
X00824573Y00963423D01*
X00823812Y00961585D01*
Y00959596D01*
X00824573Y00957758D01*
X00825980Y00956352D01*
X00827817Y00955591D01*
X00829806D01*
X00831644Y00956352D01*
X00833051Y00957758D01*
X00833812Y00959596D01*
X00836120Y00961229D01*
X00837754Y00961828D01*
X00839034Y00963008D01*
X00841832Y00966846D01*
X00842563Y00968425D01*
X00842635Y00970164D01*
X00843400Y00972987D01*
X00844610Y00974043D01*
X00845415Y00974784D01*
X00854126Y00986730D01*
X00860317Y00988151D01*
X00860936Y00987953D01*
X00862813Y00986584D01*
X00878286Y01007804D01*
X00882387Y01005635D01*
X00884728Y01003928D01*
X00884811Y01001718D01*
X00884272Y00998073D01*
X00883645Y00997495D01*
X00880847Y00993657D01*
X00880116Y00992078D01*
X00880044Y00990339D01*
X00880434Y00989276D01*
X00879308Y00987731D01*
X00878957Y00987586D01*
X00877551Y00986180D01*
X00876790Y00984342D01*
Y00982353D01*
X00877551Y00980515D01*
X00878957Y00979109D01*
X00880795Y00978347D01*
X00882784D01*
X00884622Y00979109D01*
X00886028Y00980515D01*
X00886790Y00982353D01*
X00888980Y00983824D01*
X00890614Y00984423D01*
X00891894Y00985603D01*
X00894692Y00989441D01*
X00895050Y00990214D01*
X00898356Y00991842D01*
X00900486Y00992439D01*
X00906851Y00987798D01*
X00908225Y00981423D01*
X00908040Y00980942D01*
X00899152Y00968751D01*
X00899152Y00968751D01*
X00898818Y00968029D01*
X00898785Y00967234D01*
X00902068Y00946277D01*
X00902342Y00945530D01*
X00902881Y00944945D01*
X00902881Y00944945D01*
X00948938Y00911363D01*
X00948938Y00911363D01*
X00949660Y00911029D01*
X00950455Y00910996D01*
X00960585Y00912583D01*
X00961332Y00912857D01*
X00961917Y00913396D01*
X00961917Y00913396D01*
X00968318Y00922175D01*
X00973458Y00918428D01*
X00978703Y00925622D01*
X00979376Y00926241D01*
X01013311Y00972783D01*
X01013695Y00973613D01*
X01018940Y00980807D01*
X01013688Y00984636D01*
X01013688Y00984636D01*
X01012176Y00985787D01*
X01009864Y00987474D01*
X01005989Y00990298D01*
X01003692Y00991973D01*
X01003071Y00992407D01*
X01002134Y00993061D01*
X01001672Y00993446D01*
X00999632Y00994934D01*
X00999630Y00994935D01*
X00997557Y00996447D01*
X00997557Y00996447D01*
X00996881Y00996891D01*
X00996803Y00996782D01*
X00996040Y00996814D01*
X00977339Y00993884D01*
X00974479Y00998448D01*
X00975169Y00999937D01*
X00975236Y01001577D01*
X00974670Y01003118D01*
X00973559Y01004324D01*
X00970125Y01006828D01*
X00968635Y01007518D01*
X00967206Y01007576D01*
X00966846Y01007694D01*
X00966225Y01008147D01*
X00965610Y01009178D01*
X00965276Y01014235D01*
X00966037Y01016072D01*
Y01018062D01*
X00965629Y01019046D01*
X00966755Y01022566D01*
X00967799Y01024447D01*
X00984769Y01027105D01*
X00985516Y01027380D01*
X00986102Y01027919D01*
X01008821Y01059079D01*
X01010068Y01060789D01*
X01010068Y01060789D01*
X01010403Y01061511D01*
X01010435Y01062306D01*
X01010161Y01063053D01*
X01009622Y01063638D01*
Y01063638D01*
X01007912Y01064885D01*
X00973150Y01090231D01*
X00972428Y01090565D01*
X00971633Y01090598D01*
X00970886Y01090324D01*
X00970851Y01090292D01*
X00967760Y01090442D01*
X00965417Y01091048D01*
X00963908Y01093520D01*
X00961810Y01095517D01*
X00959267Y01096903D01*
X00956452Y01097584D01*
D02*
G37*
G36*
X00245145Y01061171D02*
X00240422D01*
X00235759Y01060432D01*
X00231268Y01058973D01*
X00227060Y01056830D01*
X00223240Y01054054D01*
X00219901Y01050715D01*
X00217125Y01046895D01*
X00214981Y01042687D01*
X00213522Y01038196D01*
X00212784Y01033532D01*
Y01028810D01*
X00213522Y01024146D01*
X00214981Y01019655D01*
X00217125Y01015448D01*
X00219901Y01011628D01*
X00223240Y01008288D01*
X00227060Y01005513D01*
X00231268Y01003369D01*
X00235759Y01001910D01*
X00240422Y01001171D01*
X00245145D01*
X00249809Y01001910D01*
X00254300Y01003369D01*
X00258507Y01005513D01*
X00262327Y01008288D01*
X00265666Y01011628D01*
X00268442Y01015448D01*
X00270586Y01019655D01*
X00272045Y01024146D01*
X00272784Y01028810D01*
Y01033532D01*
X00272045Y01038196D01*
X00270586Y01042687D01*
X00268442Y01046895D01*
X00265666Y01050715D01*
X00262327Y01054054D01*
X00258507Y01056830D01*
X00254300Y01058973D01*
X00249809Y01060432D01*
X00245145Y01061171D01*
D02*
G37*
G36*
X00340862Y01122223D02*
X00340067Y01122191D01*
X00339344Y01121858D01*
X00304549Y01096558D01*
X00302837Y01095314D01*
Y01095314D01*
X00302297Y01094729D01*
X00302022Y01093983D01*
X00302054Y01093188D01*
X00302073Y01093145D01*
X00300982Y01090249D01*
X00299685Y01088205D01*
X00296869Y01087528D01*
X00294324Y01086145D01*
X00292224Y01084150D01*
X00290712Y01081680D01*
X00289890Y01078903D01*
X00289816Y01076007D01*
X00290493Y01073191D01*
X00291876Y01070646D01*
X00295404Y01065794D01*
X00297399Y01063693D01*
X00299869Y01062181D01*
X00302646Y01061359D01*
X00305542Y01061285D01*
X00308358Y01061962D01*
X00309007Y01062315D01*
X00313597Y01059332D01*
X00309286Y01032044D01*
X00309286Y01032044D01*
X00309317Y01031249D01*
X00309651Y01030527D01*
X00315877Y01021963D01*
X00315560Y01020320D01*
X00313749Y01016387D01*
X00313369Y01016212D01*
X00309729Y01013566D01*
X00308582Y01012324D01*
X00308547Y01012229D01*
X00308316Y01011748D01*
X00306280Y01009808D01*
X00303806Y01008469D01*
X00303277Y01008397D01*
X00303176Y01008393D01*
X00301641Y01007685D01*
X00298001Y01005038D01*
X00297251Y01004226D01*
X00293546Y01001078D01*
X00293546D01*
X00293546Y01001078D01*
X00289704Y00998284D01*
X00283841Y00994021D01*
X00289377Y00986407D01*
X00290566Y00983701D01*
X00288700Y00980245D01*
X00281560Y00975053D01*
X00288617Y00965347D01*
X00298322Y00972404D01*
X00298322Y00972404D01*
X00302445Y00975016D01*
X00303706Y00975597D01*
X00307346Y00978244D01*
X00308493Y00979486D01*
X00308528Y00979580D01*
X00308759Y00980061D01*
X00309583Y00980847D01*
X00311642Y00980944D01*
X00314767Y00980637D01*
X00315225Y00979643D01*
X00325928Y00964923D01*
X00322992Y00960829D01*
X00321113Y00959462D01*
X00336176Y00938745D01*
X00334702Y00936443D01*
X00333940Y00935252D01*
X00333754Y00934748D01*
X00333562Y00934226D01*
X00333605Y00933133D01*
X00333997Y00932284D01*
X00334057Y00932059D01*
X00333674Y00926903D01*
X00332267Y00925497D01*
X00331506Y00923659D01*
Y00921670D01*
X00332267Y00919832D01*
X00333674Y00918426D01*
X00335512Y00917664D01*
X00337501D01*
X00339339Y00918426D01*
X00344690Y00917449D01*
X00344773Y00917399D01*
X00345717Y00914548D01*
X00345904Y00911845D01*
X00345872Y00911642D01*
X00345730Y00911256D01*
X00344847Y00909724D01*
X00343009Y00908963D01*
X00341603Y00907556D01*
X00340842Y00905719D01*
Y00903729D01*
X00341603Y00901892D01*
X00343009Y00900485D01*
X00344847Y00899724D01*
X00346836D01*
X00348674Y00900485D01*
X00350080Y00901892D01*
X00350224Y00902237D01*
X00351162Y00902920D01*
X00352021Y00902604D01*
X00353661Y00902669D01*
X00355151Y00903356D01*
X00358588Y00905856D01*
X00359702Y00907061D01*
X00360196Y00908403D01*
X00360419Y00908710D01*
X00364407Y00911610D01*
X00364768Y00911727D01*
X00366197Y00911784D01*
X00367687Y00912472D01*
X00371125Y00914971D01*
X00371807Y00915710D01*
X00373227Y00916194D01*
X00377439Y00915831D01*
X00377655Y00915309D01*
X00379062Y00913903D01*
X00380900Y00913141D01*
X00382889D01*
X00384727Y00913903D01*
X00386133Y00915309D01*
X00386894Y00917147D01*
Y00919136D01*
X00386133Y00920974D01*
X00384727Y00922380D01*
X00384381Y00922523D01*
X00383140Y00924230D01*
X00383531Y00925292D01*
X00383462Y00927031D01*
X00382733Y00928612D01*
X00379940Y00932453D01*
X00378661Y00933634D01*
X00377028Y00934236D01*
X00373943Y00937307D01*
X00373485Y00938300D01*
X00362782Y00953021D01*
X00365718Y00957115D01*
X00367597Y00958482D01*
X00354947Y00975880D01*
X00352153Y00979722D01*
X00355802Y00983196D01*
X00357820Y00984663D01*
X00359949Y00984064D01*
X00363253Y00982432D01*
X00363610Y00981658D01*
X00366403Y00977816D01*
X00367682Y00976635D01*
X00369315Y00976033D01*
X00371504Y00974553D01*
X00372265Y00972715D01*
X00373672Y00971309D01*
X00375510Y00970547D01*
X00377499D01*
X00379337Y00971309D01*
X00380743Y00972715D01*
X00381504Y00974553D01*
Y00976542D01*
X00380743Y00978380D01*
X00379337Y00979786D01*
X00378991Y00979929D01*
X00377868Y00981474D01*
X00378259Y00982536D01*
X00378190Y00984276D01*
X00377461Y00985856D01*
X00374667Y00989698D01*
X00374041Y00990276D01*
X00373507Y00993922D01*
X00373593Y00996132D01*
X00379964Y01000765D01*
X00386453Y01000115D01*
X00386854Y00999791D01*
X00395726Y00987589D01*
X00396311Y00987049D01*
X00397057Y00986774D01*
X00397058D01*
X00418011Y00983463D01*
X00418011Y00983463D01*
X00418806Y00983495D01*
X00419528Y00983828D01*
X00465630Y01017349D01*
X00465630Y01017349D01*
X00466170Y01017933D01*
X00466445Y01018680D01*
Y01018680D01*
X00468045Y01028807D01*
X00468045Y01028807D01*
X00468013Y01029602D01*
X00467680Y01030325D01*
X00461291Y01039112D01*
X00466435Y01042853D01*
X00461199Y01050054D01*
X00460816Y01050884D01*
X00426943Y01097471D01*
X00426271Y01098092D01*
X00421035Y01105293D01*
X00414727Y01100705D01*
X00414727Y01100705D01*
X00414218Y01100384D01*
X00410869Y01097949D01*
X00408040Y01095892D01*
X00405726Y01094210D01*
X00404212Y01093061D01*
X00403704Y01092739D01*
X00399585Y01089744D01*
X00399449Y01089597D01*
X00398955Y01089238D01*
X00399034Y01089129D01*
X00398770Y01088413D01*
Y01088413D01*
X00395816Y01069717D01*
X00390594Y01068396D01*
X00389389Y01069510D01*
X00387849Y01070077D01*
X00386209Y01070012D01*
X00384719Y01069324D01*
X00381282Y01066825D01*
X00380168Y01065620D01*
X00379674Y01064278D01*
X00379450Y01063970D01*
X00378367Y01063182D01*
X00372986Y01064153D01*
X00371580Y01065559D01*
X00369742Y01066320D01*
X00368277D01*
X00367388Y01066657D01*
X00363792Y01069969D01*
X00366481Y01086988D01*
X00366481Y01086989D01*
X00366449Y01087784D01*
X00366116Y01088506D01*
X00342193Y01121408D01*
X00341609Y01121948D01*
X00340862Y01122223D01*
D02*
G37*
G36*
X01053513Y01043320D02*
X01048791D01*
X01044127Y01042581D01*
X01039636Y01041122D01*
X01035429Y01038978D01*
X01031609Y01036202D01*
X01028269Y01032863D01*
X01025494Y01029043D01*
X01023350Y01024836D01*
X01021891Y01020345D01*
X01021152Y01015681D01*
Y01010959D01*
X01021891Y01006295D01*
X01023350Y01001804D01*
X01025494Y00997596D01*
X01028269Y00993776D01*
X01031609Y00990437D01*
X01035429Y00987661D01*
X01039636Y00985518D01*
X01044127Y00984058D01*
X01048791Y00983320D01*
X01053513D01*
X01058177Y00984058D01*
X01062668Y00985518D01*
X01066876Y00987661D01*
X01070696Y00990437D01*
X01074035Y00993776D01*
X01076810Y00997596D01*
X01078954Y01001804D01*
X01080413Y01006295D01*
X01081152Y01010959D01*
Y01015681D01*
X01080413Y01020345D01*
X01078954Y01024836D01*
X01076810Y01029043D01*
X01074035Y01032863D01*
X01070696Y01036202D01*
X01066876Y01038978D01*
X01062668Y01041122D01*
X01058177Y01042581D01*
X01053513Y01043320D01*
D02*
G37*
G36*
X01129563Y00937387D02*
X01124841D01*
X01120177Y00936648D01*
X01115686Y00935189D01*
X01111479Y00933045D01*
X01107658Y00930270D01*
X01104319Y00926931D01*
X01101544Y00923110D01*
X01099400Y00918903D01*
X01097941Y00914412D01*
X01097202Y00909748D01*
Y00905026D01*
X01097941Y00900362D01*
X01099400Y00895871D01*
X01101544Y00891664D01*
X01104319Y00887843D01*
X01107658Y00884504D01*
X01111479Y00881729D01*
X01115686Y00879585D01*
X01120177Y00878126D01*
X01124841Y00877387D01*
X01129563D01*
X01134227Y00878126D01*
X01138718Y00879585D01*
X01142925Y00881729D01*
X01146746Y00884504D01*
X01150085Y00887843D01*
X01152860Y00891664D01*
X01155004Y00895871D01*
X01156463Y00900362D01*
X01157202Y00905026D01*
Y00909748D01*
X01156463Y00914412D01*
X01155004Y00918903D01*
X01152860Y00923110D01*
X01150085Y00926931D01*
X01146746Y00930270D01*
X01142925Y00933045D01*
X01138718Y00935189D01*
X01134227Y00936648D01*
X01129563Y00937387D01*
D02*
G37*
G36*
X00810169Y00910458D02*
X00767169D01*
X00766388Y00910303D01*
X00765727Y00909861D01*
X00765285Y00909199D01*
X00765129Y00908419D01*
Y00859419D01*
X00765285Y00858639D01*
X00765727Y00857977D01*
X00766388Y00857535D01*
X00767169Y00857380D01*
X00810169D01*
X00810949Y00857535D01*
X00811611Y00857977D01*
X00812053Y00858639D01*
X00812208Y00859419D01*
Y00908419D01*
X00812053Y00909199D01*
X00811611Y00909861D01*
X00810949Y00910303D01*
X00810169Y00910458D01*
D02*
G37*
G36*
X00136187Y00913228D02*
X00131465D01*
X00126801Y00912490D01*
X00122310Y00911031D01*
X00118103Y00908887D01*
X00114283Y00906111D01*
X00110943Y00902772D01*
X00108168Y00898952D01*
X00106024Y00894744D01*
X00104565Y00890253D01*
X00103826Y00885590D01*
Y00880867D01*
X00104565Y00876203D01*
X00106024Y00871712D01*
X00108168Y00867505D01*
X00110943Y00863685D01*
X00114283Y00860346D01*
X00118103Y00857570D01*
X00122310Y00855426D01*
X00126801Y00853967D01*
X00131465Y00853228D01*
X00136187D01*
X00140851Y00853967D01*
X00145342Y00855426D01*
X00149550Y00857570D01*
X00153370Y00860346D01*
X00156709Y00863685D01*
X00159484Y00867505D01*
X00161628Y00871712D01*
X00163087Y00876203D01*
X00163826Y00880867D01*
Y00885590D01*
X00163087Y00890253D01*
X00161628Y00894744D01*
X00159484Y00898952D01*
X00156709Y00902772D01*
X00153370Y00906111D01*
X00149550Y00908887D01*
X00145342Y00911031D01*
X00140851Y00912490D01*
X00136187Y00913228D01*
D02*
G37*
G36*
X01061882Y00887525D02*
X01050462Y00883840D01*
X01054147Y00872420D01*
X01054147Y00872420D01*
X01055345Y00867689D01*
X01055506Y00866310D01*
X01056888Y00862027D01*
X01057711Y00860550D01*
X01057790Y00860488D01*
X01058175Y00860118D01*
X01058665Y00859090D01*
X01058116Y00857103D01*
X01056851Y00854230D01*
X01055765Y00854103D01*
X01038444Y00848514D01*
X01035467Y00852579D01*
X01034754Y00854790D01*
X01013689Y00847994D01*
X01008286Y00849182D01*
X01007753Y00850138D01*
X01006896Y00850817D01*
X01005843Y00851116D01*
X01004972Y00851014D01*
X01004663Y00851021D01*
X00999992Y00852612D01*
X00999231Y00854450D01*
X00997824Y00855856D01*
X00995986Y00856617D01*
X00993997D01*
X00992160Y00855856D01*
X00990753Y00854450D01*
X00989992Y00852612D01*
Y00850623D01*
X00987644Y00845613D01*
X00987436Y00845401D01*
X00987436Y00845401D01*
X00984412Y00845391D01*
X00981785Y00846055D01*
X00981602Y00846148D01*
X00981279Y00846404D01*
X00980399Y00846654D01*
X00980037Y00847776D01*
Y00849325D01*
X00979276Y00851163D01*
X00977869Y00852570D01*
X00976031Y00853331D01*
X00974042D01*
X00972205Y00852570D01*
X00970798Y00851163D01*
X00970037Y00849325D01*
Y00847336D01*
X00970798Y00845499D01*
X00971288Y00845009D01*
X00971666Y00843836D01*
X00971098Y00843119D01*
X00970650Y00841540D01*
X00970839Y00839910D01*
X00972144Y00835865D01*
X00972943Y00834432D01*
X00974064Y00833544D01*
X00974287Y00833237D01*
X00975801Y00828544D01*
X00975800Y00828165D01*
X00975409Y00826789D01*
X00975599Y00825159D01*
X00976904Y00821114D01*
X00977394Y00820235D01*
X00977406Y00819184D01*
X00975570Y00814893D01*
X00973732Y00814132D01*
X00972325Y00812725D01*
X00971564Y00810887D01*
Y00808898D01*
X00972325Y00807060D01*
X00973732Y00805654D01*
X00975570Y00804893D01*
X00977559D01*
X00979396Y00805654D01*
X00979886Y00806143D01*
X00981963Y00806814D01*
X00982850Y00806111D01*
X00984524Y00805635D01*
X00986253Y00805836D01*
X00990773Y00807295D01*
X00992294Y00808142D01*
X00992466Y00808360D01*
X00995726Y00811347D01*
X00997253Y00811482D01*
X00998339Y00811609D01*
X00998339Y00811609D01*
X00999324Y00811926D01*
X01015660Y00817197D01*
X01018637Y00813132D01*
X01019351Y00810921D01*
X01041346Y00818018D01*
X01045608Y00815062D01*
X01045707Y00809884D01*
X01043463Y00807594D01*
X01042617Y00807496D01*
X01038096Y00806037D01*
X01036576Y00805190D01*
X01035495Y00803825D01*
X01035186Y00802737D01*
X01033350Y00802144D01*
X01031801D01*
X01029963Y00801383D01*
X01028557Y00799976D01*
X01027796Y00798139D01*
Y00796150D01*
X01028557Y00794312D01*
X01029963Y00792905D01*
X01031801Y00792144D01*
X01033790D01*
X01035628Y00792905D01*
X01036117Y00793395D01*
X01038004Y00794004D01*
X01038891Y00793301D01*
X01040565Y00792825D01*
X01042294Y00793026D01*
X01046815Y00794485D01*
X01047559Y00794900D01*
X01051190Y00794272D01*
X01053264Y00793503D01*
X01055683Y00786006D01*
X01053046Y00780042D01*
X01052613Y00779761D01*
X01038255Y00775128D01*
X01037560Y00774741D01*
X01037066Y00774117D01*
X01037066Y00774117D01*
X01027397Y00755236D01*
X01027179Y00754471D01*
X01027271Y00753680D01*
X01027271Y00753680D01*
X01044774Y00699434D01*
X01044774Y00699434D01*
X01045162Y00698739D01*
X01045786Y00698245D01*
X01045786Y00698245D01*
X01054912Y00693572D01*
X01054912Y00693572D01*
X01055677Y00693354D01*
X01056467Y00693446D01*
X01056467Y00693446D01*
X01066807Y00696783D01*
X01068761Y00690729D01*
X01077234Y00693463D01*
X01078142Y00693569D01*
X01132959Y00711256D01*
X01133758Y00711701D01*
X01142231Y00714435D01*
X01139712Y00722242D01*
X01139689Y00722441D01*
X01137303Y00729835D01*
X01136464Y00732434D01*
X01135844Y00734230D01*
X01135697Y00734813D01*
X01134933Y00737179D01*
X01134932Y00737184D01*
X01134133Y00739660D01*
Y00739660D01*
X01133848Y00740416D01*
X01133720Y00740375D01*
X01133122Y00740849D01*
X01133122Y00740849D01*
X01116274Y00749477D01*
X01116644Y00754850D01*
X01118078Y00755649D01*
X01119096Y00756936D01*
X01119545Y00758514D01*
X01119355Y00760144D01*
X01118050Y00764189D01*
X01117251Y00765622D01*
X01116130Y00766510D01*
X01115908Y00766817D01*
X01115497Y00768092D01*
X01117716Y00772814D01*
X01119554Y00773575D01*
X01120960Y00774982D01*
X01121721Y00776820D01*
Y00778809D01*
X01120960Y00780646D01*
X01119554Y00782053D01*
X01117716Y00782814D01*
X01117233Y00783054D01*
X01116694Y00787748D01*
X01117120Y00788006D01*
X01117635Y00788244D01*
X01146397Y00797524D01*
X01149174Y00795208D01*
X01150446Y00793577D01*
X01150256Y00791226D01*
X01150778Y00788377D01*
X01152020Y00785760D01*
X01153896Y00783554D01*
X01156280Y00781908D01*
X01159008Y00780936D01*
X01161895Y00780703D01*
X01164744Y00781225D01*
X01170454Y00783067D01*
X01173071Y00784309D01*
X01175277Y00786185D01*
X01176922Y00788569D01*
X01177895Y00791297D01*
X01178128Y00794184D01*
X01177606Y00797033D01*
X01176364Y00799650D01*
X01174836Y00801447D01*
X01174855Y00804257D01*
X01175565Y00807093D01*
X01175612Y00807156D01*
X01176061Y00807723D01*
X01176278Y00808488D01*
X01176278Y00808489D01*
X01176186Y00809279D01*
X01176187Y00809279D01*
X01175525Y00811329D01*
X01160812Y00856927D01*
X01160162Y00858941D01*
X01160162Y00858941D01*
X01159775Y00859636D01*
X01159151Y00860130D01*
X01158386Y00860347D01*
X01157596Y00860255D01*
X01157596Y00860255D01*
X01155582Y00859605D01*
X01105855Y00843560D01*
X01095778Y00840309D01*
X01094315Y00841122D01*
X01091142Y00844067D01*
X01091094Y00844483D01*
X01089712Y00848766D01*
X01088889Y00850243D01*
X01088810Y00850305D01*
X01088425Y00850675D01*
X01087215Y00853214D01*
X01086713Y00855982D01*
X01086809Y00856506D01*
X01086837Y00856603D01*
X01086641Y00858283D01*
X01085260Y00862565D01*
X01084721Y00863531D01*
X01082883Y00868032D01*
D01*
X01081460Y00872442D01*
X01079198Y00879452D01*
X01070238Y00876561D01*
X01067297Y00876274D01*
X01064593Y00879123D01*
X01061882Y00887525D01*
D02*
G37*
G36*
X00703537Y00840819D02*
X00700956D01*
X00698464Y00840151D01*
X00696229Y00838861D01*
X00694404Y00837036D01*
X00693114Y00834802D01*
X00692446Y00832309D01*
Y00829729D01*
X00693114Y00827236D01*
X00694404Y00825002D01*
X00696229Y00823177D01*
X00698464Y00821887D01*
X00700956Y00821219D01*
X00703537D01*
X00706029Y00821887D01*
X00708264Y00823177D01*
X00710088Y00825002D01*
X00711378Y00827236D01*
X00712046Y00829729D01*
Y00832309D01*
X00711378Y00834802D01*
X00710088Y00837036D01*
X00708264Y00838861D01*
X00706029Y00840151D01*
X00703537Y00840819D01*
D02*
G37*
G36*
X00458046D02*
X00438446D01*
Y00821219D01*
X00458046D01*
Y00840819D01*
D02*
G37*
G36*
X00174904Y00862936D02*
X00173924Y00859925D01*
X00172489Y00855519D01*
X00172266Y00854961D01*
X00171018Y00851129D01*
X00169862Y00847579D01*
X00169014Y00844977D01*
X00168796Y00844257D01*
X00168463Y00843158D01*
X00168240Y00842600D01*
X00167471Y00840238D01*
X00167471Y00840236D01*
X00166663Y00837758D01*
X00166663Y00837757D01*
X00166451Y00836978D01*
X00166578Y00836936D01*
X00166785Y00836201D01*
X00175367Y00819330D01*
X00171915Y00815196D01*
X00170285Y00815390D01*
X00168706Y00814946D01*
X00167416Y00813931D01*
X00166613Y00812499D01*
X00165297Y00808458D01*
X00165103Y00806829D01*
X00165491Y00805452D01*
X00165490Y00805072D01*
X00165147Y00804019D01*
X00164344Y00803379D01*
X00159375Y00801644D01*
X00157386D01*
X00155548Y00800883D01*
X00154141Y00799477D01*
X00153380Y00797639D01*
Y00795650D01*
X00154141Y00793812D01*
X00154142Y00793811D01*
X00154181Y00793772D01*
X00154839Y00792758D01*
X00155014Y00792488D01*
X00151507Y00788788D01*
X00151407Y00788771D01*
X00122784Y00798092D01*
X00121894Y00801598D01*
X00121821Y00803664D01*
X00123355Y00805457D01*
X00124603Y00808071D01*
X00125133Y00810918D01*
X00124908Y00813806D01*
X00123942Y00816536D01*
X00122303Y00818925D01*
X00120102Y00820807D01*
X00117489Y00822056D01*
X00111784Y00823913D01*
X00108936Y00824443D01*
X00106049Y00824218D01*
X00103318Y00823253D01*
X00100930Y00821614D01*
X00099047Y00819413D01*
X00097799Y00816799D01*
X00097269Y00813952D01*
X00097453Y00811600D01*
X00095788Y00809335D01*
X00093549Y00807456D01*
X00093475Y00807432D01*
X00092778Y00807236D01*
X00092153Y00806744D01*
X00091764Y00806050D01*
X00075606Y00756431D01*
X00075512Y00755641D01*
X00075727Y00754875D01*
X00076219Y00754250D01*
X00076913Y00753861D01*
X00128609Y00737026D01*
X00138676Y00733748D01*
X00139384Y00732231D01*
X00140226Y00727984D01*
X00140021Y00727619D01*
X00138628Y00723340D01*
X00138428Y00721661D01*
X00138455Y00721564D01*
X00138550Y00721039D01*
X00138040Y00718273D01*
X00136823Y00715737D01*
X00136437Y00715369D01*
X00136358Y00715306D01*
X00135531Y00713832D01*
X00134138Y00709553D01*
X00134007Y00708455D01*
X00132855Y00703732D01*
X00132855Y00703732D01*
X00129139Y00692321D01*
X00138091Y00689406D01*
X00140642Y00687913D01*
X00141160Y00684020D01*
X00138426Y00675625D01*
X00149836Y00671909D01*
X00153552Y00683320D01*
X00153552D01*
X00155357Y00687854D01*
X00156036Y00689065D01*
X00157430Y00693344D01*
X00157630Y00695023D01*
X00157602Y00695120D01*
X00157507Y00695645D01*
X00157714Y00696765D01*
X00159324Y00698052D01*
X00162034Y00699637D01*
X00162988Y00699102D01*
X00177046Y00694524D01*
X00180316Y00689078D01*
X00180319Y00688428D01*
X00179600Y00686219D01*
X00203956Y00678287D01*
X00205188Y00677886D01*
X00205022Y00677375D01*
X00204324Y00675233D01*
X00204195Y00674147D01*
X00204491Y00673093D01*
X00205168Y00672234D01*
X00206122Y00671699D01*
X00206334Y00671480D01*
X00208662Y00666456D01*
Y00664467D01*
X00209423Y00662629D01*
X00210829Y00661223D01*
X00212667Y00660462D01*
X00214656D01*
X00216494Y00661223D01*
X00217900Y00662629D01*
X00218661Y00664467D01*
X00223334Y00666032D01*
X00223475Y00666034D01*
X00223842Y00665812D01*
X00225840Y00664348D01*
X00227620Y00662218D01*
X00227714Y00662035D01*
X00227825Y00661639D01*
X00228391Y00660920D01*
X00228009Y00659746D01*
X00227511Y00659248D01*
X00226750Y00657411D01*
Y00655422D01*
X00227511Y00653584D01*
X00228917Y00652177D01*
X00230755Y00651416D01*
X00232744D01*
X00234582Y00652177D01*
X00235989Y00653584D01*
X00236750Y00655422D01*
Y00656952D01*
X00237116Y00658079D01*
X00237997Y00658326D01*
X00239287Y00659342D01*
X00240089Y00660773D01*
X00241405Y00664814D01*
X00241599Y00666443D01*
X00241212Y00667820D01*
X00241213Y00668200D01*
X00242739Y00672888D01*
X00242962Y00673195D01*
X00244086Y00674080D01*
X00244889Y00675511D01*
X00246205Y00679552D01*
X00246324Y00680551D01*
X00246997Y00681504D01*
X00248544Y00682794D01*
X00250811Y00683961D01*
X00252069Y00683440D01*
X00254058D01*
X00255896Y00684201D01*
X00257302Y00685608D01*
X00258063Y00687446D01*
Y00689435D01*
X00257302Y00691273D01*
X00255896Y00692679D01*
X00254058Y00693440D01*
X00252527D01*
X00250498Y00694101D01*
X00250192Y00695190D01*
X00249115Y00696558D01*
X00247597Y00697409D01*
X00243081Y00698880D01*
X00241352Y00699086D01*
X00241085Y00699011D01*
X00236692Y00698504D01*
X00235377Y00699290D01*
X00234423Y00699826D01*
X00220364Y00704404D01*
X00217094Y00709850D01*
X00217091Y00710500D01*
X00217810Y00712709D01*
X00192222Y00721042D01*
X00192280Y00721220D01*
X00193086Y00723695D01*
X00193095Y00723770D01*
X00194527Y00728168D01*
X00196602Y00728932D01*
X00200236Y00729549D01*
X00200979Y00729132D01*
X00205495Y00727662D01*
X00207224Y00727456D01*
X00208899Y00727927D01*
X00209788Y00728627D01*
X00211675Y00728013D01*
X00212173Y00727515D01*
X00214010Y00726754D01*
X00215999D01*
X00217837Y00727515D01*
X00219244Y00728922D01*
X00220005Y00730759D01*
Y00732748D01*
X00219244Y00734586D01*
X00217837Y00735993D01*
X00215999Y00736754D01*
X00214468D01*
X00212630Y00737353D01*
X00212323Y00738442D01*
X00211247Y00739810D01*
X00209729Y00740661D01*
X00205212Y00742132D01*
X00204366Y00742233D01*
X00201793Y00744871D01*
X00200566Y00746711D01*
X00204150Y00757717D01*
X00204150Y00757717D01*
X00209154Y00757457D01*
X00223500Y00752785D01*
X00223500Y00752785D01*
X00224290Y00752691D01*
X00225056Y00752907D01*
X00243963Y00762525D01*
X00244588Y00763017D01*
X00244978Y00763711D01*
X00244978Y00763711D01*
X00262628Y00817909D01*
X00262628Y00817910D01*
X00262722Y00818700D01*
X00262506Y00819466D01*
X00257857Y00828604D01*
X00257365Y00829229D01*
X00256671Y00829619D01*
X00256671D01*
X00246340Y00832983D01*
X00248310Y00839031D01*
X00239844Y00841788D01*
X00239047Y00842235D01*
X00184278Y00860071D01*
X00183370Y00860179D01*
X00174904Y00862936D01*
D02*
G37*
G36*
X00703537Y00815419D02*
X00700956D01*
X00698464Y00814751D01*
X00696229Y00813461D01*
X00694404Y00811636D01*
X00693114Y00809402D01*
X00692446Y00806909D01*
Y00804329D01*
X00693114Y00801836D01*
X00694404Y00799602D01*
X00696229Y00797777D01*
X00698464Y00796487D01*
X00700956Y00795819D01*
X00703537D01*
X00706029Y00796487D01*
X00708264Y00797777D01*
X00710088Y00799602D01*
X00711378Y00801836D01*
X00712046Y00804329D01*
Y00806909D01*
X00711378Y00809402D01*
X00710088Y00811636D01*
X00708264Y00813461D01*
X00706029Y00814751D01*
X00703537Y00815419D01*
D02*
G37*
G36*
X00449537D02*
X00446956D01*
X00444464Y00814751D01*
X00442229Y00813461D01*
X00440404Y00811636D01*
X00439114Y00809402D01*
X00438446Y00806909D01*
Y00804329D01*
X00439114Y00801836D01*
X00440404Y00799602D01*
X00442229Y00797777D01*
X00444464Y00796487D01*
X00446956Y00795819D01*
X00449537D01*
X00452029Y00796487D01*
X00454264Y00797777D01*
X00456088Y00799602D01*
X00457378Y00801836D01*
X00458046Y00804329D01*
Y00806909D01*
X00457378Y00809402D01*
X00456088Y00811636D01*
X00454264Y00813461D01*
X00452029Y00814751D01*
X00449537Y00815419D01*
D02*
G37*
G36*
X00703537Y00790019D02*
X00700956D01*
X00698464Y00789351D01*
X00696229Y00788061D01*
X00694404Y00786236D01*
X00693114Y00784002D01*
X00692446Y00781509D01*
Y00778929D01*
X00693114Y00776436D01*
X00694404Y00774202D01*
X00696229Y00772377D01*
X00698464Y00771087D01*
X00700956Y00770419D01*
X00703537D01*
X00706029Y00771087D01*
X00708264Y00772377D01*
X00710088Y00774202D01*
X00711378Y00776436D01*
X00712046Y00778929D01*
Y00781509D01*
X00711378Y00784002D01*
X00710088Y00786236D01*
X00708264Y00788061D01*
X00706029Y00789351D01*
X00703537Y00790019D01*
D02*
G37*
G36*
X00449537D02*
X00446956D01*
X00444464Y00789351D01*
X00442229Y00788061D01*
X00440404Y00786236D01*
X00439114Y00784002D01*
X00438446Y00781509D01*
Y00778929D01*
X00439114Y00776436D01*
X00440404Y00774202D01*
X00442229Y00772377D01*
X00444464Y00771087D01*
X00446956Y00770419D01*
X00449537D01*
X00452029Y00771087D01*
X00454264Y00772377D01*
X00456088Y00774202D01*
X00457378Y00776436D01*
X00458046Y00778929D01*
Y00781509D01*
X00457378Y00784002D01*
X00456088Y00786236D01*
X00454264Y00788061D01*
X00452029Y00789351D01*
X00449537Y00790019D01*
D02*
G37*
G36*
X00703537Y00764619D02*
X00700956D01*
X00698464Y00763951D01*
X00696229Y00762661D01*
X00694404Y00760836D01*
X00693114Y00758602D01*
X00692446Y00756109D01*
Y00753529D01*
X00693114Y00751036D01*
X00694404Y00748802D01*
X00696229Y00746977D01*
X00698464Y00745687D01*
X00700956Y00745019D01*
X00703537D01*
X00706029Y00745687D01*
X00708264Y00746977D01*
X00710088Y00748802D01*
X00711378Y00751036D01*
X00712046Y00753529D01*
Y00756109D01*
X00711378Y00758602D01*
X00710088Y00760836D01*
X00708264Y00762661D01*
X00706029Y00763951D01*
X00703537Y00764619D01*
D02*
G37*
G36*
X00449537D02*
X00446956D01*
X00444464Y00763951D01*
X00442229Y00762661D01*
X00440404Y00760836D01*
X00439114Y00758602D01*
X00438446Y00756109D01*
Y00753529D01*
X00439114Y00751036D01*
X00440404Y00748802D01*
X00442229Y00746977D01*
X00444464Y00745687D01*
X00446956Y00745019D01*
X00449537D01*
X00452029Y00745687D01*
X00454264Y00746977D01*
X00456088Y00748802D01*
X00457378Y00751036D01*
X00458046Y00753529D01*
Y00756109D01*
X00457378Y00758602D01*
X00456088Y00760836D01*
X00454264Y00762661D01*
X00452029Y00763951D01*
X00449537Y00764619D01*
D02*
G37*
G36*
X00890707Y00851346D02*
X00845707D01*
X00844927Y00851191D01*
X00844266Y00850749D01*
X00843823Y00850087D01*
X00843668Y00849307D01*
Y00773548D01*
X00841782Y00768825D01*
X00831032D01*
X00829677Y00768555D01*
X00828527Y00767787D01*
X00827759Y00766638D01*
X00827489Y00765282D01*
Y00762332D01*
X00827759Y00760976D01*
X00828115Y00758699D01*
X00827673Y00758037D01*
X00827518Y00757257D01*
Y00755927D01*
X00827489Y00755782D01*
Y00752832D01*
X00827518Y00752687D01*
Y00746427D01*
X00827489Y00746282D01*
Y00743332D01*
X00826078Y00741394D01*
X00824529Y00740707D01*
X00824362Y00740774D01*
X00822369Y00742724D01*
X00822344Y00742759D01*
X00821926Y00743514D01*
Y00746282D01*
X00821897Y00746427D01*
Y00747757D01*
X00821741Y00748537D01*
X00821414Y00749557D01*
X00821741Y00750577D01*
X00821897Y00751357D01*
Y00752687D01*
X00821926Y00752832D01*
Y00755782D01*
X00821897Y00755927D01*
Y00757257D01*
X00821741Y00758037D01*
X00821414Y00759057D01*
X00821741Y00760077D01*
X00821897Y00760857D01*
Y00762187D01*
X00821926Y00762332D01*
Y00765282D01*
X00821897Y00765427D01*
Y00848307D01*
X00821741Y00849087D01*
X00821299Y00849749D01*
X00820638Y00850191D01*
X00819857Y00850346D01*
X00743246D01*
X00742466Y00850191D01*
X00741804Y00849749D01*
X00741362Y00849087D01*
X00741207Y00848307D01*
Y00760857D01*
X00741362Y00760077D01*
X00741804Y00759415D01*
X00742466Y00758973D01*
X00743246Y00758818D01*
X00754420D01*
X00759207Y00757257D01*
Y00751357D01*
X00759362Y00750577D01*
X00759804Y00749915D01*
X00760466Y00749473D01*
X00761246Y00749318D01*
X00769381D01*
X00770075Y00749181D01*
X00771456Y00748701D01*
X00773314Y00746566D01*
X00774127Y00745184D01*
Y00740882D01*
X00774168Y00740673D01*
Y00739257D01*
X00774324Y00738477D01*
X00774765Y00737815D01*
X00775427Y00737373D01*
X00776207Y00737218D01*
X00776392D01*
X00776723Y00736996D01*
X00778333Y00736676D01*
X00782582D01*
X00783871Y00735874D01*
X00786203Y00733442D01*
X00786587Y00732763D01*
X00786588Y00732218D01*
Y00713419D01*
X00786743Y00712639D01*
X00787185Y00711977D01*
X00787846Y00711535D01*
X00788627Y00711380D01*
X00828385D01*
X00829480Y00709453D01*
X00830683Y00706380D01*
X00830668Y00706307D01*
Y00655022D01*
X00830824Y00654242D01*
X00831265Y00653580D01*
X00831927Y00653138D01*
X00832708Y00652983D01*
X00863455D01*
X00865050Y00647983D01*
X00864772Y00647704D01*
X00864010Y00645867D01*
Y00643877D01*
X00864422Y00642883D01*
Y00640880D01*
X00863481Y00640251D01*
X00862514Y00638804D01*
X00862175Y00637097D01*
Y00632347D01*
X00858080Y00628961D01*
X00834707D01*
X00833927Y00628806D01*
X00833266Y00628364D01*
X00832823Y00627702D01*
X00832668Y00626922D01*
Y00581303D01*
X00832823Y00580523D01*
X00833266Y00579861D01*
X00834291Y00577845D01*
X00834763Y00575809D01*
X00834787Y00574264D01*
X00834786Y00574257D01*
Y00507419D01*
X00834941Y00506639D01*
X00835383Y00505977D01*
X00836045Y00505535D01*
X00836825Y00505380D01*
X00973496D01*
X00974277Y00505535D01*
X00974938Y00505977D01*
X00975380Y00506639D01*
X00975536Y00507419D01*
Y00526272D01*
X00981896D01*
Y00535175D01*
X00982075Y00536072D01*
Y00593672D01*
X00981896Y00594569D01*
X00981896Y00603472D01*
X00979246Y00608175D01*
X00979246Y00608472D01*
Y00610164D01*
X00978504Y00612034D01*
X00979560Y00613855D01*
X00980500Y00615261D01*
X00980829Y00616919D01*
Y00621419D01*
X00980500Y00623077D01*
X00980444Y00623161D01*
X00979560Y00624803D01*
Y00628035D01*
X00980444Y00629677D01*
X00980500Y00629761D01*
X00980829Y00631419D01*
Y00635919D01*
X00980739Y00636373D01*
X00980246Y00641169D01*
X00980246Y00641169D01*
Y00653169D01*
X00971246D01*
X00968246Y00653169D01*
X00963246Y00653169D01*
X00954246Y00653169D01*
X00952747Y00657548D01*
X00952747Y00710208D01*
X00952591Y00710988D01*
X00952149Y00711650D01*
X00952149Y00711650D01*
X00930050Y00733749D01*
X00929389Y00734191D01*
X00928608Y00734346D01*
X00895320Y00734346D01*
X00894715Y00735027D01*
X00894629Y00735171D01*
X00892745Y00739346D01*
X00892747Y00739357D01*
Y00849307D01*
X00892591Y00850087D01*
X00892149Y00850749D01*
X00891488Y00851191D01*
X00890707Y00851346D01*
D02*
G37*
G36*
X00919767Y00758769D02*
X00917226D01*
X00914771Y00758111D01*
X00912571Y00756841D01*
X00910774Y00755044D01*
X00909504Y00752844D01*
X00908846Y00750389D01*
Y00747849D01*
X00909504Y00745394D01*
X00910774Y00743194D01*
X00912571Y00741397D01*
X00914771Y00740127D01*
X00917226Y00739469D01*
X00919767D01*
X00922221Y00740127D01*
X00924421Y00741397D01*
X00926218Y00743194D01*
X00927489Y00745394D01*
X00928146Y00747849D01*
Y00750389D01*
X00927489Y00752844D01*
X00926218Y00755044D01*
X00924421Y00756841D01*
X00922221Y00758111D01*
X00919767Y00758769D01*
D02*
G37*
G36*
X00703537Y00739219D02*
X00700956D01*
X00698464Y00738551D01*
X00696229Y00737261D01*
X00694404Y00735436D01*
X00693114Y00733202D01*
X00692446Y00730709D01*
Y00728129D01*
X00693114Y00725636D01*
X00694404Y00723402D01*
X00696229Y00721577D01*
X00698464Y00720287D01*
X00700956Y00719619D01*
X00703537D01*
X00706029Y00720287D01*
X00708264Y00721577D01*
X00710088Y00723402D01*
X00711378Y00725636D01*
X00712046Y00728129D01*
Y00730709D01*
X00711378Y00733202D01*
X00710088Y00735436D01*
X00708264Y00737261D01*
X00706029Y00738551D01*
X00703537Y00739219D01*
D02*
G37*
G36*
X00449537D02*
X00446956D01*
X00444464Y00738551D01*
X00442229Y00737261D01*
X00440404Y00735436D01*
X00439114Y00733202D01*
X00438446Y00730709D01*
Y00728129D01*
X00439114Y00725636D01*
X00440404Y00723402D01*
X00442229Y00721577D01*
X00444464Y00720287D01*
X00446956Y00719619D01*
X00449537D01*
X00452029Y00720287D01*
X00454264Y00721577D01*
X00456088Y00723402D01*
X00457378Y00725636D01*
X00458046Y00728129D01*
Y00730709D01*
X00457378Y00733202D01*
X00456088Y00735436D01*
X00454264Y00737261D01*
X00452029Y00738551D01*
X00449537Y00739219D01*
D02*
G37*
G36*
X00703537Y00713819D02*
X00700956D01*
X00698464Y00713151D01*
X00696229Y00711861D01*
X00694404Y00710036D01*
X00693114Y00707802D01*
X00692446Y00705309D01*
Y00702729D01*
X00693114Y00700236D01*
X00694404Y00698002D01*
X00696229Y00696177D01*
X00698464Y00694887D01*
X00700956Y00694219D01*
X00703537D01*
X00706029Y00694887D01*
X00708264Y00696177D01*
X00710088Y00698002D01*
X00711378Y00700236D01*
X00712046Y00702729D01*
Y00705309D01*
X00711378Y00707802D01*
X00710088Y00710036D01*
X00708264Y00711861D01*
X00706029Y00713151D01*
X00703537Y00713819D01*
D02*
G37*
G36*
X00449537D02*
X00446956D01*
X00444464Y00713151D01*
X00442229Y00711861D01*
X00440404Y00710036D01*
X00439114Y00707802D01*
X00438446Y00705309D01*
Y00702729D01*
X00439114Y00700236D01*
X00440404Y00698002D01*
X00442229Y00696177D01*
X00444464Y00694887D01*
X00446956Y00694219D01*
X00449537D01*
X00452029Y00694887D01*
X00454264Y00696177D01*
X00456088Y00698002D01*
X00457378Y00700236D01*
X00458046Y00702729D01*
Y00705309D01*
X00457378Y00707802D01*
X00456088Y00710036D01*
X00454264Y00711861D01*
X00452029Y00713151D01*
X00449537Y00713819D01*
D02*
G37*
G36*
X01189417Y00751800D02*
X01184695D01*
X01180031Y00751061D01*
X01175540Y00749602D01*
X01171333Y00747458D01*
X01167513Y00744683D01*
X01164174Y00741344D01*
X01161398Y00737524D01*
X01159254Y00733316D01*
X01157795Y00728825D01*
X01157056Y00724161D01*
Y00719439D01*
X01157795Y00714775D01*
X01159254Y00710284D01*
X01161398Y00706077D01*
X01164174Y00702256D01*
X01167513Y00698917D01*
X01171333Y00696142D01*
X01175540Y00693998D01*
X01180031Y00692539D01*
X01184695Y00691800D01*
X01189417D01*
X01194081Y00692539D01*
X01198572Y00693998D01*
X01202780Y00696142D01*
X01206600Y00698917D01*
X01209939Y00702256D01*
X01212715Y00706077D01*
X01214858Y00710284D01*
X01216318Y00714775D01*
X01217056Y00719439D01*
Y00724161D01*
X01216318Y00728825D01*
X01214858Y00733316D01*
X01212715Y00737524D01*
X01209939Y00741344D01*
X01206600Y00744683D01*
X01202780Y00747458D01*
X01198572Y00749602D01*
X01194081Y00751061D01*
X01189417Y00751800D01*
D02*
G37*
G36*
X00703537Y00688419D02*
X00700956D01*
X00698464Y00687751D01*
X00696229Y00686461D01*
X00694404Y00684636D01*
X00693114Y00682402D01*
X00692446Y00679909D01*
Y00677329D01*
X00693114Y00674836D01*
X00694404Y00672602D01*
X00696229Y00670777D01*
X00698464Y00669487D01*
X00700956Y00668819D01*
X00703537D01*
X00706029Y00669487D01*
X00708264Y00670777D01*
X00710088Y00672602D01*
X00711378Y00674836D01*
X00712046Y00677329D01*
Y00679909D01*
X00711378Y00682402D01*
X00710088Y00684636D01*
X00708264Y00686461D01*
X00706029Y00687751D01*
X00703537Y00688419D01*
D02*
G37*
G36*
X00449537D02*
X00446956D01*
X00444464Y00687751D01*
X00442229Y00686461D01*
X00440404Y00684636D01*
X00439114Y00682402D01*
X00438446Y00679909D01*
Y00677329D01*
X00439114Y00674836D01*
X00440404Y00672602D01*
X00442229Y00670777D01*
X00444464Y00669487D01*
X00446956Y00668819D01*
X00449537D01*
X00452029Y00669487D01*
X00454264Y00670777D01*
X00456088Y00672602D01*
X00457378Y00674836D01*
X00458046Y00677329D01*
Y00679909D01*
X00457378Y00682402D01*
X00456088Y00684636D01*
X00454264Y00686461D01*
X00452029Y00687751D01*
X00449537Y00688419D01*
D02*
G37*
G36*
X00075707Y00727905D02*
X00070985D01*
X00066321Y00727166D01*
X00061830Y00725707D01*
X00057623Y00723563D01*
X00053803Y00720787D01*
X00050464Y00717448D01*
X00047688Y00713628D01*
X00045544Y00709420D01*
X00044085Y00704930D01*
X00043346Y00700266D01*
Y00695543D01*
X00044085Y00690880D01*
X00045544Y00686388D01*
X00047688Y00682181D01*
X00050464Y00678361D01*
X00053803Y00675022D01*
X00057623Y00672246D01*
X00061830Y00670102D01*
X00066321Y00668643D01*
X00070985Y00667905D01*
X00075707D01*
X00080371Y00668643D01*
X00084862Y00670102D01*
X00089070Y00672246D01*
X00092890Y00675022D01*
X00096229Y00678361D01*
X00099005Y00682181D01*
X00101148Y00686388D01*
X00102607Y00690880D01*
X00103346Y00695543D01*
Y00700266D01*
X00102607Y00704930D01*
X00101148Y00709420D01*
X00099005Y00713628D01*
X00096229Y00717448D01*
X00092890Y00720787D01*
X00089070Y00723563D01*
X00084862Y00725707D01*
X00080371Y00727166D01*
X00075707Y00727905D01*
D02*
G37*
G36*
X00703537Y00663019D02*
X00700956D01*
X00698464Y00662351D01*
X00696229Y00661061D01*
X00694404Y00659236D01*
X00693114Y00657002D01*
X00692446Y00654509D01*
Y00651929D01*
X00693114Y00649436D01*
X00694404Y00647202D01*
X00696229Y00645377D01*
X00698464Y00644087D01*
X00700956Y00643419D01*
X00703537D01*
X00706029Y00644087D01*
X00708264Y00645377D01*
X00710088Y00647202D01*
X00711378Y00649436D01*
X00712046Y00651929D01*
Y00654509D01*
X00711378Y00657002D01*
X00710088Y00659236D01*
X00708264Y00661061D01*
X00706029Y00662351D01*
X00703537Y00663019D01*
D02*
G37*
G36*
X00449537D02*
X00446956D01*
X00444464Y00662351D01*
X00442229Y00661061D01*
X00440404Y00659236D01*
X00439114Y00657002D01*
X00438446Y00654509D01*
Y00651929D01*
X00439114Y00649436D01*
X00440404Y00647202D01*
X00442229Y00645377D01*
X00444464Y00644087D01*
X00446956Y00643419D01*
X00449537D01*
X00452029Y00644087D01*
X00454264Y00645377D01*
X00456088Y00647202D01*
X00457378Y00649436D01*
X00458046Y00651929D01*
Y00654509D01*
X00457378Y00657002D01*
X00456088Y00659236D01*
X00454264Y00661061D01*
X00452029Y00662351D01*
X00449537Y00663019D01*
D02*
G37*
G36*
X00703537Y00637619D02*
X00700956D01*
X00698464Y00636951D01*
X00696229Y00635661D01*
X00694404Y00633836D01*
X00693114Y00631602D01*
X00692446Y00629109D01*
Y00626529D01*
X00693114Y00624036D01*
X00694404Y00621802D01*
X00696229Y00619977D01*
X00698464Y00618687D01*
X00700956Y00618019D01*
X00703537D01*
X00706029Y00618687D01*
X00708264Y00619977D01*
X00710088Y00621802D01*
X00711378Y00624036D01*
X00712046Y00626529D01*
Y00629109D01*
X00711378Y00631602D01*
X00710088Y00633836D01*
X00708264Y00635661D01*
X00706029Y00636951D01*
X00703537Y00637619D01*
D02*
G37*
G36*
X00449537D02*
X00446956D01*
X00444464Y00636951D01*
X00442229Y00635661D01*
X00440404Y00633836D01*
X00439114Y00631602D01*
X00438446Y00629109D01*
Y00626529D01*
X00439114Y00624036D01*
X00440404Y00621802D01*
X00442229Y00619977D01*
X00444464Y00618687D01*
X00446956Y00618019D01*
X00449537D01*
X00452029Y00618687D01*
X00454264Y00619977D01*
X00456088Y00621802D01*
X00457378Y00624036D01*
X00458046Y00626529D01*
Y00629109D01*
X00457378Y00631602D01*
X00456088Y00633836D01*
X00454264Y00635661D01*
X00452029Y00636951D01*
X00449537Y00637619D01*
D02*
G37*
G36*
X00703537Y00612219D02*
X00700956D01*
X00698464Y00611551D01*
X00696229Y00610261D01*
X00694404Y00608436D01*
X00693114Y00606202D01*
X00692446Y00603709D01*
Y00601129D01*
X00693114Y00598636D01*
X00694404Y00596402D01*
X00696229Y00594577D01*
X00698464Y00593287D01*
X00700956Y00592619D01*
X00703537D01*
X00706029Y00593287D01*
X00708264Y00594577D01*
X00710088Y00596402D01*
X00711378Y00598636D01*
X00712046Y00601129D01*
Y00603709D01*
X00711378Y00606202D01*
X00710088Y00608436D01*
X00708264Y00610261D01*
X00706029Y00611551D01*
X00703537Y00612219D01*
D02*
G37*
G36*
X00449537D02*
X00446956D01*
X00444464Y00611551D01*
X00442229Y00610261D01*
X00440404Y00608436D01*
X00439114Y00606202D01*
X00438446Y00603709D01*
Y00601129D01*
X00439114Y00598636D01*
X00440404Y00596402D01*
X00442229Y00594577D01*
X00444464Y00593287D01*
X00446956Y00592619D01*
X00449537D01*
X00452029Y00593287D01*
X00454264Y00594577D01*
X00456088Y00596402D01*
X00457378Y00598636D01*
X00458046Y00601129D01*
Y00603709D01*
X00457378Y00606202D01*
X00456088Y00608436D01*
X00454264Y00610261D01*
X00452029Y00611551D01*
X00449537Y00612219D01*
D02*
G37*
G36*
X00703537Y00586819D02*
X00700956D01*
X00698464Y00586151D01*
X00696229Y00584861D01*
X00694404Y00583036D01*
X00693114Y00580802D01*
X00692446Y00578309D01*
Y00575729D01*
X00693114Y00573236D01*
X00694404Y00571002D01*
X00696229Y00569177D01*
X00698464Y00567887D01*
X00700956Y00567219D01*
X00703537D01*
X00706029Y00567887D01*
X00708264Y00569177D01*
X00710088Y00571002D01*
X00711378Y00573236D01*
X00712046Y00575729D01*
Y00578309D01*
X00711378Y00580802D01*
X00710088Y00583036D01*
X00708264Y00584861D01*
X00706029Y00586151D01*
X00703537Y00586819D01*
D02*
G37*
G36*
X00449537D02*
X00446956D01*
X00444464Y00586151D01*
X00442229Y00584861D01*
X00440404Y00583036D01*
X00439114Y00580802D01*
X00438446Y00578309D01*
Y00575729D01*
X00439114Y00573236D01*
X00440404Y00571002D01*
X00442229Y00569177D01*
X00444464Y00567887D01*
X00446956Y00567219D01*
X00449537D01*
X00452029Y00567887D01*
X00454264Y00569177D01*
X00456088Y00571002D01*
X00457378Y00573236D01*
X00458046Y00575729D01*
Y00578309D01*
X00457378Y00580802D01*
X00456088Y00583036D01*
X00454264Y00584861D01*
X00452029Y00586151D01*
X00449537Y00586819D01*
D02*
G37*
G36*
X01029845Y00585340D02*
X01027856D01*
X01026018Y00584579D01*
X01024612Y00583172D01*
X01023851Y00581334D01*
Y00579809D01*
X01023483Y00578682D01*
X01022601Y00578435D01*
X01021311Y00577421D01*
X01020507Y00575990D01*
X01019188Y00571950D01*
X01018992Y00570321D01*
X01019378Y00568944D01*
X01019378Y00568564D01*
X01017847Y00563877D01*
X01017623Y00563571D01*
X01016499Y00562687D01*
X01015695Y00561256D01*
X01014375Y00557216D01*
X01014255Y00556217D01*
X01013582Y00555266D01*
X01012025Y00553972D01*
X01009765Y00552812D01*
X01008503Y00553334D01*
X01006514D01*
X01004677Y00552573D01*
X01003270Y00551166D01*
X01002509Y00549329D01*
Y00547340D01*
X01003270Y00545502D01*
X01004677Y00544095D01*
X01006514Y00543334D01*
X01008040D01*
X01010069Y00542671D01*
X01010375Y00541581D01*
X01011450Y00540213D01*
X01012968Y00539360D01*
X01017483Y00537885D01*
X01019211Y00537678D01*
X01019479Y00537753D01*
X01023872Y00538256D01*
X01025186Y00537468D01*
X01026140Y00536932D01*
X01043440Y00531282D01*
X01043462Y00526243D01*
X01042741Y00524035D01*
X01068322Y00515679D01*
X01068263Y00515501D01*
X01067456Y00513027D01*
X01067447Y00512953D01*
X01066011Y00508556D01*
X01063935Y00507794D01*
X01060301Y00507179D01*
X01059558Y00507597D01*
X01055043Y00509071D01*
X01053315Y00509279D01*
X01051639Y00508809D01*
X01050749Y00508109D01*
X01048863Y00508725D01*
X01048362Y00509226D01*
X01046524Y00509987D01*
X01044535D01*
X01042697Y00509226D01*
X01041291Y00507820D01*
X01040530Y00505982D01*
Y00503993D01*
X01041291Y00502155D01*
X01042697Y00500749D01*
X01044535Y00499987D01*
X01046060D01*
X01047900Y00499387D01*
X01048205Y00498297D01*
X01049281Y00496928D01*
X01050798Y00496076D01*
X01055313Y00494601D01*
X01056160Y00494499D01*
X01058730Y00491858D01*
X01059956Y00490018D01*
X01056362Y00479015D01*
X01051358Y00479279D01*
X01037017Y00483963D01*
X01037016Y00483963D01*
X01036227Y00484058D01*
X01035460Y00483843D01*
X01016544Y00474242D01*
X01015919Y00473750D01*
X01015529Y00473056D01*
X00997832Y00418873D01*
X00997832Y00418873D01*
X00997737Y00418083D01*
X00997952Y00417317D01*
X01002593Y00408174D01*
X01003084Y00407549D01*
X01003778Y00407159D01*
X01014106Y00403786D01*
X01012131Y00397739D01*
X01020594Y00394975D01*
X01021391Y00394527D01*
X01076145Y00376643D01*
X01077053Y00376535D01*
X01085516Y00373770D01*
X01087534Y00379949D01*
X01087534Y00379949D01*
X01088161Y00381743D01*
X01089009Y00384338D01*
X01090168Y00387887D01*
X01091421Y00391724D01*
X01091570Y00392307D01*
X01091948Y00393388D01*
X01092197Y00394101D01*
X01092817Y00395999D01*
X01092818Y00396001D01*
X01093779Y00398941D01*
X01093779Y00398941D01*
X01093992Y00399721D01*
X01093865Y00399763D01*
X01093659Y00400498D01*
X01085091Y00417376D01*
X01088547Y00421508D01*
X01090176Y00421312D01*
X01091757Y00421755D01*
X01093047Y00422769D01*
X01093851Y00424200D01*
X01095170Y00428240D01*
X01095366Y00429869D01*
X01094980Y00431246D01*
X01094980Y00431626D01*
X01095219Y00432356D01*
X01095964Y00433187D01*
X01096130Y00433318D01*
X01101103Y00435047D01*
X01103092D01*
X01104930Y00435809D01*
X01105404Y00436283D01*
X01109608Y00436333D01*
X01111205Y00435902D01*
X01118982Y00420581D01*
X01119473Y00419956D01*
X01120167Y00419566D01*
X01120167D01*
X01156825Y00407593D01*
X01158836Y00406936D01*
X01158837Y00406936D01*
X01158837Y00406936D01*
X01159626Y00406841D01*
X01160393Y00407056D01*
X01161018Y00407547D01*
X01161018Y00407547D01*
X01161408Y00408241D01*
X01161408Y00408241D01*
X01162065Y00410252D01*
X01175422Y00451147D01*
X01175422Y00451148D01*
X01175422Y00451148D01*
X01175517Y00451938D01*
X01175302Y00452704D01*
X01174810Y00453329D01*
X01174810Y00453329D01*
X01174769Y00453353D01*
X01173956Y00456339D01*
X01173808Y00458755D01*
X01175692Y00460954D01*
X01176943Y00463566D01*
X01177476Y00466413D01*
X01177253Y00469301D01*
X01176290Y00472033D01*
X01174653Y00474422D01*
X01172454Y00476307D01*
X01169841Y00477558D01*
X01164138Y00479420D01*
X01161291Y00479953D01*
X01158403Y00479730D01*
X01155671Y00478767D01*
X01153282Y00477130D01*
X01151397Y00474931D01*
X01151078Y00474265D01*
X01145611Y00473990D01*
X01133107Y00498624D01*
X01132615Y00499250D01*
X01131921Y00499640D01*
X01121857Y00502927D01*
X01121150Y00504444D01*
X01120312Y00508691D01*
X01120517Y00509057D01*
X01121914Y00513334D01*
X01122116Y00515013D01*
X01122088Y00515110D01*
X01121994Y00515635D01*
X01122506Y00518401D01*
X01123725Y00520936D01*
X01124111Y00521304D01*
X01124191Y00521366D01*
X01125019Y00522840D01*
X01126416Y00527118D01*
X01126548Y00528216D01*
X01127704Y00532938D01*
X01127704Y00532938D01*
X01131429Y00544345D01*
X01122480Y00547268D01*
X01119931Y00548763D01*
X01119417Y00552657D01*
X01122158Y00561049D01*
X01110751Y00564775D01*
X01107025Y00553368D01*
X01107025D01*
X01105216Y00548835D01*
X01104535Y00547625D01*
X01103138Y00543347D01*
X01102937Y00541668D01*
X01102964Y00541571D01*
X01103058Y00541046D01*
X01102851Y00539926D01*
X01101240Y00538641D01*
X01098529Y00537058D01*
X01097575Y00537594D01*
X01080275Y00543244D01*
X01080253Y00548283D01*
X01080974Y00550491D01*
X01056507Y00558483D01*
X01055393Y00558847D01*
X01055560Y00559357D01*
X01056259Y00561499D01*
X01056390Y00562585D01*
X01056094Y00563638D01*
X01055418Y00564499D01*
X01054465Y00565035D01*
X01054252Y00565255D01*
X01051931Y00570284D01*
Y00572273D01*
X01051170Y00574111D01*
X01049763Y00575517D01*
X01047925Y00576278D01*
X01045936D01*
X01044099Y00575517D01*
X01042692Y00574111D01*
X01041931Y00572273D01*
X01037258Y00570717D01*
X01037124Y00570714D01*
X01034711Y00572454D01*
X01032975Y00574535D01*
X01032882Y00574717D01*
X01032771Y00575113D01*
X01032205Y00575833D01*
X01032589Y00577007D01*
X01033090Y00577507D01*
X01033851Y00579345D01*
Y00581334D01*
X01033090Y00583172D01*
X01031683Y00584579D01*
X01029845Y00585340D01*
D02*
G37*
G36*
X00703537Y00561419D02*
X00700956D01*
X00698464Y00560751D01*
X00696229Y00559461D01*
X00694404Y00557636D01*
X00693114Y00555402D01*
X00692446Y00552909D01*
Y00550329D01*
X00693114Y00547836D01*
X00694404Y00545602D01*
X00696229Y00543777D01*
X00698464Y00542487D01*
X00700956Y00541819D01*
X00703537D01*
X00706029Y00542487D01*
X00708264Y00543777D01*
X00710088Y00545602D01*
X00711378Y00547836D01*
X00712046Y00550329D01*
Y00552909D01*
X00711378Y00555402D01*
X00710088Y00557636D01*
X00708264Y00559461D01*
X00706029Y00560751D01*
X00703537Y00561419D01*
D02*
G37*
G36*
X00449537D02*
X00446956D01*
X00444464Y00560751D01*
X00442229Y00559461D01*
X00440404Y00557636D01*
X00439114Y00555402D01*
X00438446Y00552909D01*
Y00550329D01*
X00439114Y00547836D01*
X00440404Y00545602D01*
X00442229Y00543777D01*
X00444464Y00542487D01*
X00446956Y00541819D01*
X00449537D01*
X00452029Y00542487D01*
X00454264Y00543777D01*
X00456088Y00545602D01*
X00457378Y00547836D01*
X00458046Y00550329D01*
Y00552909D01*
X00457378Y00555402D01*
X00456088Y00557636D01*
X00454264Y00559461D01*
X00452029Y00560751D01*
X00449537Y00561419D01*
D02*
G37*
G36*
X00075700Y00597501D02*
X00070978D01*
X00066314Y00596762D01*
X00061823Y00595303D01*
X00057616Y00593159D01*
X00053796Y00590383D01*
X00050457Y00587044D01*
X00047681Y00583224D01*
X00045537Y00579017D01*
X00044078Y00574526D01*
X00043339Y00569862D01*
Y00565140D01*
X00044078Y00560476D01*
X00045537Y00555985D01*
X00047681Y00551777D01*
X00050457Y00547957D01*
X00053796Y00544618D01*
X00057616Y00541842D01*
X00061823Y00539699D01*
X00066314Y00538239D01*
X00070978Y00537501D01*
X00075700D01*
X00080364Y00538239D01*
X00084855Y00539699D01*
X00089063Y00541842D01*
X00092883Y00544618D01*
X00096222Y00547957D01*
X00098998Y00551777D01*
X00101142Y00555985D01*
X00102601Y00560476D01*
X00103339Y00565140D01*
Y00569862D01*
X00102601Y00574526D01*
X00101142Y00579017D01*
X00098998Y00583224D01*
X00096222Y00587044D01*
X00092883Y00590383D01*
X00089063Y00593159D01*
X00084855Y00595303D01*
X00080364Y00596762D01*
X00075700Y00597501D01*
D02*
G37*
G36*
X00703537Y00536019D02*
X00700956D01*
X00698464Y00535351D01*
X00696229Y00534061D01*
X00694404Y00532236D01*
X00693114Y00530002D01*
X00692446Y00527509D01*
Y00524929D01*
X00693114Y00522436D01*
X00694404Y00520202D01*
X00696229Y00518377D01*
X00698464Y00517087D01*
X00700956Y00516419D01*
X00703537D01*
X00706029Y00517087D01*
X00708264Y00518377D01*
X00710088Y00520202D01*
X00711378Y00522436D01*
X00712046Y00524929D01*
Y00527509D01*
X00711378Y00530002D01*
X00710088Y00532236D01*
X00708264Y00534061D01*
X00706029Y00535351D01*
X00703537Y00536019D01*
D02*
G37*
G36*
X00449537D02*
X00446956D01*
X00444464Y00535351D01*
X00442229Y00534061D01*
X00440404Y00532236D01*
X00439114Y00530002D01*
X00438446Y00527509D01*
Y00524929D01*
X00439114Y00522436D01*
X00440404Y00520202D01*
X00442229Y00518377D01*
X00444464Y00517087D01*
X00446956Y00516419D01*
X00449537D01*
X00452029Y00517087D01*
X00454264Y00518377D01*
X00456088Y00520202D01*
X00457378Y00522436D01*
X00458046Y00524929D01*
Y00527509D01*
X00457378Y00530002D01*
X00456088Y00532236D01*
X00454264Y00534061D01*
X00452029Y00535351D01*
X00449537Y00536019D01*
D02*
G37*
G36*
X00192158Y00598156D02*
X00183682Y00595430D01*
X00182774Y00595325D01*
X00127940Y00577691D01*
X00127141Y00577246D01*
X00118665Y00574520D01*
X00121053Y00567095D01*
X00121053Y00567095D01*
X00121200Y00566512D01*
X00122436Y00562668D01*
X00123578Y00559116D01*
X00124414Y00556516D01*
X00125033Y00554719D01*
X00125180Y00554136D01*
X00125941Y00551769D01*
X00125942Y00551765D01*
X00126739Y00549288D01*
X00127023Y00548531D01*
X00127151Y00548572D01*
X00127749Y00548098D01*
X00144589Y00539454D01*
X00144213Y00534081D01*
X00142779Y00533283D01*
X00141759Y00531998D01*
X00141309Y00530420D01*
X00141497Y00528789D01*
X00142798Y00524744D01*
X00143595Y00523309D01*
X00144716Y00522421D01*
X00144938Y00522113D01*
X00145348Y00520838D01*
X00143119Y00516117D01*
X00141281Y00515356D01*
X00139875Y00513949D01*
X00139173Y00512254D01*
X00139091Y00512096D01*
X00134729Y00509091D01*
X00134494Y00509036D01*
X00119021Y00516978D01*
X00118256Y00517197D01*
X00117466Y00517105D01*
X00080754Y00505299D01*
X00078739Y00504651D01*
X00078739Y00504651D01*
X00078044Y00504264D01*
X00077549Y00503641D01*
X00077331Y00502876D01*
X00077331Y00502876D01*
X00077422Y00502085D01*
X00077422Y00502085D01*
X00078070Y00500071D01*
X00090582Y00461166D01*
X00091242Y00459115D01*
X00091242D01*
X00091628Y00458420D01*
X00092252Y00457925D01*
X00093017Y00457707D01*
X00093063Y00457713D01*
X00095394Y00455868D01*
X00097011Y00453902D01*
X00096775Y00451015D01*
X00097294Y00448165D01*
X00098533Y00445547D01*
X00100408Y00443339D01*
X00102790Y00441692D01*
X00105517Y00440717D01*
X00108404Y00440481D01*
X00111253Y00441000D01*
X00116965Y00442837D01*
X00119583Y00444076D01*
X00121791Y00445951D01*
X00123439Y00448333D01*
X00124414Y00451060D01*
X00124650Y00453947D01*
X00124517Y00454673D01*
X00128784Y00458103D01*
X00153362Y00445487D01*
X00154127Y00445269D01*
X00154917Y00445360D01*
X00164997Y00448602D01*
X00166459Y00447787D01*
X00169629Y00444839D01*
X00169677Y00444423D01*
X00171055Y00440139D01*
X00171877Y00438662D01*
X00171955Y00438599D01*
X00172340Y00438229D01*
X00173548Y00435689D01*
X00174047Y00432921D01*
X00173950Y00432396D01*
X00173923Y00432299D01*
X00174116Y00430620D01*
X00175494Y00426336D01*
X00176032Y00425369D01*
X00177866Y00420867D01*
D01*
X00179285Y00416455D01*
X00181540Y00409443D01*
X00190502Y00412325D01*
X00193444Y00412610D01*
X00196144Y00409758D01*
X00198847Y00401353D01*
X00210271Y00405027D01*
X00206597Y00416451D01*
X00206597Y00416451D01*
X00205403Y00421184D01*
X00205244Y00422563D01*
X00203867Y00426847D01*
X00203045Y00428324D01*
X00202966Y00428387D01*
X00202581Y00428757D01*
X00202346Y00429252D01*
X00203856Y00434619D01*
X00203910Y00434644D01*
X00204997Y00434769D01*
X00219072Y00439296D01*
X00224913Y00436798D01*
X00225296Y00436274D01*
X00226007Y00434062D01*
X00245980Y00440485D01*
X00247078Y00440838D01*
X00252481Y00439645D01*
X00253012Y00438689D01*
X00253869Y00438009D01*
X00253869Y00438009D01*
X00254921Y00437709D01*
X00255794Y00437809D01*
X00256101Y00437803D01*
X00256641Y00437618D01*
X00260772Y00436202D01*
X00261533Y00434365D01*
X00262940Y00432958D01*
X00264778Y00432197D01*
X00266767D01*
X00268605Y00432958D01*
X00270011Y00434365D01*
X00270772Y00436202D01*
Y00438191D01*
X00273128Y00443197D01*
X00273334Y00443406D01*
X00273335Y00443406D01*
X00276358Y00443413D01*
X00278985Y00442746D01*
X00279167Y00442653D01*
X00279490Y00442397D01*
X00280370Y00442146D01*
X00280730Y00441025D01*
Y00439470D01*
X00281492Y00437632D01*
X00282898Y00436225D01*
X00284736Y00435464D01*
X00286725D01*
X00288563Y00436225D01*
X00289969Y00437632D01*
X00290730Y00439470D01*
Y00441459D01*
X00289969Y00443296D01*
X00289483Y00443783D01*
X00289105Y00444956D01*
X00289674Y00445673D01*
X00290124Y00447251D01*
X00289936Y00448881D01*
X00288635Y00452927D01*
X00287838Y00454361D01*
X00286717Y00455250D01*
X00286495Y00455558D01*
X00284985Y00460252D01*
X00284986Y00460631D01*
X00285379Y00462006D01*
X00285191Y00463637D01*
X00283890Y00467683D01*
X00283092Y00469117D01*
X00283092Y00469117D01*
X00281806Y00470137D01*
X00281821Y00473838D01*
X00281821Y00473838D01*
X00281622Y00475567D01*
X00280167Y00480089D01*
X00279322Y00481610D01*
X00277958Y00482691D01*
X00276284Y00483169D01*
X00274555Y00482970D01*
X00270033Y00481515D01*
X00268512Y00480670D01*
X00267431Y00479306D01*
X00263550Y00477334D01*
X00262463Y00477209D01*
X00248388Y00472682D01*
X00242547Y00475180D01*
X00242164Y00475705D01*
X00241453Y00477916D01*
X00219450Y00470840D01*
X00215191Y00473801D01*
X00215097Y00478979D01*
X00217344Y00481267D01*
X00218190Y00481364D01*
X00222712Y00482819D01*
X00224233Y00483665D01*
X00225315Y00485028D01*
X00225625Y00486116D01*
X00227460Y00486706D01*
X00229015D01*
X00230853Y00487468D01*
X00232260Y00488874D01*
X00233021Y00490712D01*
Y00492701D01*
X00232260Y00494539D01*
X00230853Y00495945D01*
X00229015Y00496706D01*
X00227026D01*
X00225189Y00495945D01*
X00224702Y00495459D01*
X00222816Y00494852D01*
X00221929Y00495555D01*
X00220255Y00496033D01*
X00218526Y00495834D01*
X00214004Y00494379D01*
X00213260Y00493965D01*
X00209629Y00494596D01*
X00207556Y00495368D01*
X00204013Y00506387D01*
X00208220Y00509108D01*
X00222583Y00513727D01*
X00223278Y00514114D01*
X00223773Y00514737D01*
X00233460Y00533609D01*
X00233460Y00533609D01*
X00233678Y00534375D01*
X00233587Y00535165D01*
X00216136Y00589428D01*
X00215749Y00590123D01*
X00215126Y00590618D01*
X00206004Y00595300D01*
X00205239Y00595518D01*
X00204449Y00595427D01*
X00194105Y00592100D01*
X00192158Y00598156D01*
D02*
G37*
G36*
X01189476Y00568740D02*
X01184753D01*
X01180089Y00568001D01*
X01175599Y00566542D01*
X01171391Y00564398D01*
X01167571Y00561623D01*
X01164232Y00558284D01*
X01161456Y00554463D01*
X01159313Y00550256D01*
X01157853Y00545765D01*
X01157115Y00541101D01*
Y00536379D01*
X01157853Y00531715D01*
X01159313Y00527224D01*
X01161456Y00523017D01*
X01164232Y00519196D01*
X01167571Y00515857D01*
X01171391Y00513082D01*
X01175599Y00510938D01*
X01180089Y00509479D01*
X01184753Y00508740D01*
X01189476D01*
X01194139Y00509479D01*
X01198631Y00510938D01*
X01202838Y00513082D01*
X01206658Y00515857D01*
X01209997Y00519196D01*
X01212773Y00523017D01*
X01214917Y00527224D01*
X01216376Y00531715D01*
X01217114Y00536379D01*
Y00541101D01*
X01216376Y00545765D01*
X01214917Y00550256D01*
X01212773Y00554463D01*
X01209997Y00558284D01*
X01206658Y00561623D01*
X01202838Y00564398D01*
X01198631Y00566542D01*
X01194139Y00568001D01*
X01189476Y00568740D01*
D02*
G37*
G36*
X00703537Y00510619D02*
X00700956D01*
X00698464Y00509951D01*
X00696229Y00508661D01*
X00694404Y00506836D01*
X00693114Y00504602D01*
X00692446Y00502109D01*
Y00499529D01*
X00693114Y00497036D01*
X00694404Y00494802D01*
X00696229Y00492977D01*
X00698464Y00491687D01*
X00700956Y00491019D01*
X00703537D01*
X00706029Y00491687D01*
X00708264Y00492977D01*
X00710088Y00494802D01*
X00711378Y00497036D01*
X00712046Y00499529D01*
Y00502109D01*
X00711378Y00504602D01*
X00710088Y00506836D01*
X00708264Y00508661D01*
X00706029Y00509951D01*
X00703537Y00510619D01*
D02*
G37*
G36*
X00449537D02*
X00446956D01*
X00444464Y00509951D01*
X00442229Y00508661D01*
X00440404Y00506836D01*
X00439114Y00504602D01*
X00438446Y00502109D01*
Y00499529D01*
X00439114Y00497036D01*
X00440404Y00494802D01*
X00442229Y00492977D01*
X00444464Y00491687D01*
X00446956Y00491019D01*
X00449537D01*
X00452029Y00491687D01*
X00454264Y00492977D01*
X00456088Y00494802D01*
X00457378Y00497036D01*
X00458046Y00499529D01*
Y00502109D01*
X00457378Y00504602D01*
X00456088Y00506836D01*
X00454264Y00508661D01*
X00452029Y00509951D01*
X00449537Y00510619D01*
D02*
G37*
G36*
X00703537Y00485219D02*
X00700956D01*
X00698464Y00484551D01*
X00696229Y00483261D01*
X00694404Y00481436D01*
X00693114Y00479202D01*
X00692446Y00476709D01*
Y00474129D01*
X00693114Y00471636D01*
X00694404Y00469402D01*
X00696229Y00467577D01*
X00698464Y00466287D01*
X00700956Y00465619D01*
X00703537D01*
X00706029Y00466287D01*
X00708264Y00467577D01*
X00710088Y00469402D01*
X00711378Y00471636D01*
X00712046Y00474129D01*
Y00476709D01*
X00711378Y00479202D01*
X00710088Y00481436D01*
X00708264Y00483261D01*
X00706029Y00484551D01*
X00703537Y00485219D01*
D02*
G37*
G36*
X00449537D02*
X00446956D01*
X00444464Y00484551D01*
X00442229Y00483261D01*
X00440404Y00481436D01*
X00439114Y00479202D01*
X00438446Y00476709D01*
Y00474129D01*
X00439114Y00471636D01*
X00440404Y00469402D01*
X00442229Y00467577D01*
X00444464Y00466287D01*
X00446956Y00465619D01*
X00449537D01*
X00452029Y00466287D01*
X00454264Y00467577D01*
X00456088Y00469402D01*
X00457378Y00471636D01*
X00458046Y00474129D01*
Y00476709D01*
X00457378Y00479202D01*
X00456088Y00481436D01*
X00454264Y00483261D01*
X00452029Y00484551D01*
X00449537Y00485219D01*
D02*
G37*
G36*
X00703537Y00459819D02*
X00700956D01*
X00698464Y00459151D01*
X00696229Y00457861D01*
X00694404Y00456036D01*
X00693114Y00453802D01*
X00692446Y00451309D01*
Y00448729D01*
X00693114Y00446236D01*
X00694404Y00444002D01*
X00696229Y00442177D01*
X00698464Y00440887D01*
X00700956Y00440219D01*
X00703537D01*
X00706029Y00440887D01*
X00708264Y00442177D01*
X00710088Y00444002D01*
X00711378Y00446236D01*
X00712046Y00448729D01*
Y00451309D01*
X00711378Y00453802D01*
X00710088Y00456036D01*
X00708264Y00457861D01*
X00706029Y00459151D01*
X00703537Y00459819D01*
D02*
G37*
G36*
X00449537D02*
X00446956D01*
X00444464Y00459151D01*
X00442229Y00457861D01*
X00440404Y00456036D01*
X00439114Y00453802D01*
X00438446Y00451309D01*
Y00448729D01*
X00439114Y00446236D01*
X00440404Y00444002D01*
X00442229Y00442177D01*
X00444464Y00440887D01*
X00446956Y00440219D01*
X00449537D01*
X00452029Y00440887D01*
X00454264Y00442177D01*
X00456088Y00444002D01*
X00457378Y00446236D01*
X00458046Y00448729D01*
Y00451309D01*
X00457378Y00453802D01*
X00456088Y00456036D01*
X00454264Y00457861D01*
X00452029Y00459151D01*
X00449537Y00459819D01*
D02*
G37*
G36*
X00703537Y00434419D02*
X00700956D01*
X00698464Y00433751D01*
X00696229Y00432461D01*
X00694404Y00430636D01*
X00693114Y00428402D01*
X00692446Y00425909D01*
Y00423329D01*
X00693114Y00420836D01*
X00694404Y00418602D01*
X00696229Y00416777D01*
X00698464Y00415487D01*
X00700956Y00414819D01*
X00703537D01*
X00706029Y00415487D01*
X00708264Y00416777D01*
X00710088Y00418602D01*
X00711378Y00420836D01*
X00712046Y00423329D01*
Y00425909D01*
X00711378Y00428402D01*
X00710088Y00430636D01*
X00708264Y00432461D01*
X00706029Y00433751D01*
X00703537Y00434419D01*
D02*
G37*
G36*
X00449537D02*
X00446956D01*
X00444464Y00433751D01*
X00442229Y00432461D01*
X00440404Y00430636D01*
X00439114Y00428402D01*
X00438446Y00425909D01*
Y00423329D01*
X00439114Y00420836D01*
X00440404Y00418602D01*
X00442229Y00416777D01*
X00444464Y00415487D01*
X00446956Y00414819D01*
X00449537D01*
X00452029Y00415487D01*
X00454264Y00416777D01*
X00456088Y00418602D01*
X00457378Y00420836D01*
X00458046Y00423329D01*
Y00425909D01*
X00457378Y00428402D01*
X00456088Y00430636D01*
X00454264Y00432461D01*
X00452029Y00433751D01*
X00449537Y00434419D01*
D02*
G37*
G36*
X00703537Y00409019D02*
X00700956D01*
X00698464Y00408351D01*
X00696229Y00407061D01*
X00694404Y00405236D01*
X00693114Y00403002D01*
X00692446Y00400509D01*
Y00397929D01*
X00693114Y00395436D01*
X00694404Y00393202D01*
X00696229Y00391377D01*
X00698464Y00390087D01*
X00700956Y00389419D01*
X00703537D01*
X00706029Y00390087D01*
X00708264Y00391377D01*
X00710088Y00393202D01*
X00711378Y00395436D01*
X00712046Y00397929D01*
Y00400509D01*
X00711378Y00403002D01*
X00710088Y00405236D01*
X00708264Y00407061D01*
X00706029Y00408351D01*
X00703537Y00409019D01*
D02*
G37*
G36*
X00449537D02*
X00446956D01*
X00444464Y00408351D01*
X00442229Y00407061D01*
X00440404Y00405236D01*
X00439114Y00403002D01*
X00438446Y00400509D01*
Y00397929D01*
X00439114Y00395436D01*
X00440404Y00393202D01*
X00442229Y00391377D01*
X00444464Y00390087D01*
X00446956Y00389419D01*
X00449537D01*
X00452029Y00390087D01*
X00454264Y00391377D01*
X00456088Y00393202D01*
X00457378Y00395436D01*
X00458046Y00397929D01*
Y00400509D01*
X00457378Y00403002D01*
X00456088Y00405236D01*
X00454264Y00407061D01*
X00452029Y00408351D01*
X00449537Y00409019D01*
D02*
G37*
G36*
X00946913Y00379624D02*
X00944924D01*
X00943086Y00378863D01*
X00941680Y00377456D01*
X00941540Y00377119D01*
X00940601Y00376440D01*
X00939743Y00376758D01*
X00938103Y00376696D01*
X00936612Y00376012D01*
X00933169Y00373520D01*
X00932053Y00372317D01*
X00931556Y00370976D01*
X00931332Y00370670D01*
X00927338Y00367779D01*
X00926977Y00367662D01*
X00925547Y00367608D01*
X00924056Y00366924D01*
X00920613Y00364432D01*
X00919929Y00363694D01*
X00918486Y00363206D01*
X00914296Y00363585D01*
X00914075Y00364117D01*
X00912669Y00365524D01*
X00910831Y00366285D01*
X00908842D01*
X00907004Y00365524D01*
X00905598Y00364117D01*
X00904837Y00362279D01*
Y00360290D01*
X00905598Y00358453D01*
X00907004Y00357046D01*
X00907342Y00356906D01*
X00908578Y00355199D01*
X00908184Y00354138D01*
X00908249Y00352398D01*
X00908975Y00350817D01*
X00911760Y00346969D01*
X00913036Y00345785D01*
X00914668Y00345180D01*
X00917746Y00342102D01*
X00918202Y00341108D01*
X00928873Y00326364D01*
X00925928Y00322276D01*
X00924046Y00320914D01*
X00939444Y00299640D01*
Y00299640D01*
X00939444D01*
X00935859Y00296225D01*
X00933767Y00294711D01*
X00931639Y00295315D01*
X00928339Y00296954D01*
X00927984Y00297729D01*
X00925199Y00301577D01*
X00923923Y00302761D01*
X00922291Y00303366D01*
X00920102Y00304862D01*
X00919341Y00306700D01*
X00917935Y00308106D01*
X00916097Y00308867D01*
X00914108D01*
X00912270Y00308106D01*
X00910864Y00306700D01*
X00910102Y00304862D01*
Y00302873D01*
X00910864Y00301035D01*
X00912270Y00299628D01*
X00912608Y00299489D01*
X00913726Y00297943D01*
X00913333Y00296882D01*
X00913398Y00295143D01*
X00914124Y00293561D01*
X00916909Y00289713D01*
X00917533Y00289133D01*
X00918060Y00285486D01*
X00917969Y00283276D01*
X00911588Y00278657D01*
X00905101Y00279321D01*
X00904700Y00279646D01*
X00895854Y00291867D01*
X00895854Y00291867D01*
X00895271Y00292408D01*
X00894525Y00292685D01*
X00873579Y00296041D01*
X00872784Y00296011D01*
X00872061Y00295680D01*
X00825887Y00262259D01*
X00825886Y00262259D01*
X00825345Y00261675D01*
X00825069Y00260930D01*
X00823447Y00250806D01*
X00823447Y00250806D01*
X00823476Y00250011D01*
X00823808Y00249287D01*
X00823808Y00249287D01*
X00830179Y00240486D01*
X00825026Y00236756D01*
X00830246Y00229544D01*
X00830627Y00228713D01*
X00864400Y00182053D01*
X00865070Y00181431D01*
X00870291Y00174219D01*
X00876609Y00178792D01*
X00876609Y00178792D01*
X00877118Y00179112D01*
X00880471Y00181539D01*
X00885624Y00185269D01*
X00885624Y00185269D01*
X00887140Y00186415D01*
X00887649Y00186735D01*
X00891774Y00189720D01*
X00891775Y00189720D01*
X00892406Y00190226D01*
X00892327Y00190334D01*
X00892592Y00191050D01*
X00895587Y00209740D01*
X00900812Y00211049D01*
X00902015Y00209933D01*
X00903553Y00209363D01*
X00905193Y00209424D01*
X00906685Y00210108D01*
X00910127Y00212600D01*
X00911244Y00213803D01*
X00911741Y00215144D01*
X00911965Y00215451D01*
X00913054Y00216239D01*
X00918435Y00215245D01*
X00919842Y00213839D01*
X00921679Y00213078D01*
X00923668D01*
X00925506Y00213839D01*
X00926913Y00215245D01*
X00927674Y00217083D01*
X00927674Y00219072D01*
X00927689Y00219138D01*
X00928059Y00219345D01*
Y00219345D01*
X00931800Y00221436D01*
X00932423Y00220901D01*
X00932884Y00220422D01*
X00950595Y00195952D01*
X00949252Y00192594D01*
X00948093Y00190881D01*
X00945798Y00190334D01*
X00943251Y00188957D01*
X00941146Y00186967D01*
X00939628Y00184500D01*
X00938801Y00181724D01*
X00938720Y00178829D01*
X00939391Y00176012D01*
X00940768Y00173464D01*
X00944286Y00168603D01*
X00946276Y00166499D01*
X00948743Y00164981D01*
X00951519Y00164153D01*
X00954414Y00164072D01*
X00957232Y00164744D01*
X00959779Y00166121D01*
X00961884Y00168111D01*
X00963120Y00170120D01*
X00965798Y00170971D01*
X00968715Y00171173D01*
X00968789Y00171148D01*
X00969468Y00170896D01*
X00970263Y00170926D01*
X00970986Y00171258D01*
X01011544Y00200614D01*
X01013258Y00201854D01*
Y00201855D01*
X01013799Y00202438D01*
X01014076Y00203184D01*
X01014046Y00203979D01*
X01013714Y00204702D01*
X01013714Y00204702D01*
X01012474Y00206416D01*
X00981837Y00248744D01*
X00975629Y00257321D01*
X00975950Y00258963D01*
X00977769Y00262892D01*
X00978150Y00263066D01*
X00981795Y00265705D01*
X00982945Y00266944D01*
X00982980Y00267039D01*
X00983212Y00267519D01*
X00985253Y00269455D01*
X00987729Y00270788D01*
X00988258Y00270859D01*
X00988359Y00270863D01*
X00989896Y00271568D01*
X00993541Y00274207D01*
X00994293Y00275017D01*
X00998005Y00278157D01*
X01001852Y00280942D01*
X01007726Y00285193D01*
X01002206Y00292819D01*
X01001023Y00295528D01*
X01002896Y00298980D01*
X01010048Y00304157D01*
X01003012Y00313877D01*
X00993291Y00306841D01*
X00993291Y00306842D01*
X00989162Y00304239D01*
X00987900Y00303660D01*
X00984255Y00301021D01*
X00983105Y00299782D01*
X00983070Y00299687D01*
X00982838Y00299207D01*
X00982012Y00298423D01*
X00979952Y00298330D01*
X00976829Y00298644D01*
X00976373Y00299639D01*
X00965701Y00314382D01*
X00968646Y00318470D01*
X00970528Y00319832D01*
X00955510Y00340583D01*
X00956989Y00342881D01*
X00957754Y00344070D01*
X00957941Y00344575D01*
X00958134Y00345096D01*
X00958093Y00346189D01*
X00957701Y00347044D01*
X00957643Y00347261D01*
X00958047Y00352425D01*
X00959454Y00353831D01*
X00960215Y00355669D01*
Y00357658D01*
X00959454Y00359496D01*
X00958047Y00360902D01*
X00956209Y00361664D01*
X00954220D01*
X00952382Y00360902D01*
X00947032Y00361902D01*
X00946960Y00361946D01*
X00946044Y00364731D01*
X00945871Y00367697D01*
X00945873Y00367706D01*
X00946016Y00368092D01*
X00946913Y00369624D01*
X00948751Y00370385D01*
X00950157Y00371792D01*
X00950918Y00373630D01*
Y00375619D01*
X00950157Y00377456D01*
X00948751Y00378863D01*
X00946913Y00379624D01*
D02*
G37*
G36*
X00703537Y00383619D02*
X00700956D01*
X00698464Y00382951D01*
X00696229Y00381661D01*
X00694404Y00379836D01*
X00693114Y00377602D01*
X00692446Y00375109D01*
Y00372529D01*
X00693114Y00370036D01*
X00694404Y00367802D01*
X00696229Y00365977D01*
X00698464Y00364687D01*
X00700956Y00364019D01*
X00703537D01*
X00706029Y00364687D01*
X00708264Y00365977D01*
X00710088Y00367802D01*
X00711378Y00370036D01*
X00712046Y00372529D01*
Y00375109D01*
X00711378Y00377602D01*
X00710088Y00379836D01*
X00708264Y00381661D01*
X00706029Y00382951D01*
X00703537Y00383619D01*
D02*
G37*
G36*
X00135554Y00411302D02*
X00130831D01*
X00126168Y00410563D01*
X00121677Y00409104D01*
X00117469Y00406960D01*
X00113649Y00404185D01*
X00110310Y00400846D01*
X00107534Y00397025D01*
X00105391Y00392818D01*
X00103931Y00388327D01*
X00103193Y00383663D01*
Y00378941D01*
X00103931Y00374277D01*
X00105391Y00369786D01*
X00107534Y00365579D01*
X00110310Y00361758D01*
X00113649Y00358419D01*
X00117469Y00355644D01*
X00121677Y00353500D01*
X00126168Y00352041D01*
X00130831Y00351302D01*
X00135554D01*
X00140218Y00352041D01*
X00144709Y00353500D01*
X00148916Y00355644D01*
X00152736Y00358419D01*
X00156075Y00361758D01*
X00158851Y00365579D01*
X00160995Y00369786D01*
X00162454Y00374277D01*
X00163193Y00378941D01*
Y00383663D01*
X00162454Y00388327D01*
X00160995Y00392818D01*
X00158851Y00397025D01*
X00156075Y00400846D01*
X00152736Y00404185D01*
X00148916Y00406960D01*
X00144709Y00409104D01*
X00140218Y00410563D01*
X00135554Y00411302D01*
D02*
G37*
G36*
X00340961Y00335756D02*
X00330832Y00334169D01*
X00330085Y00333895D01*
X00329500Y00333356D01*
X00329500Y00333356D01*
X00323098Y00324577D01*
X00317959Y00328324D01*
X00312713Y00321130D01*
X00312041Y00320511D01*
X00278106Y00273969D01*
X00277722Y00273139D01*
X00272476Y00265945D01*
X00277728Y00262115D01*
X00277728Y00262115D01*
X00279240Y00260964D01*
X00281553Y00259278D01*
X00285427Y00256453D01*
X00287724Y00254778D01*
X00288345Y00254345D01*
X00289283Y00253691D01*
X00289745Y00253305D01*
X00291785Y00251818D01*
X00291786Y00251817D01*
X00293859Y00250305D01*
X00293860Y00250305D01*
X00294535Y00249861D01*
X00294614Y00249969D01*
X00295376Y00249938D01*
X00314077Y00252868D01*
X00316937Y00248304D01*
X00316248Y00246814D01*
X00316181Y00245175D01*
X00316746Y00243634D01*
X00317858Y00242427D01*
X00321292Y00239923D01*
X00322781Y00239234D01*
X00324210Y00239175D01*
X00324571Y00239057D01*
X00325192Y00238605D01*
X00325807Y00237574D01*
X00326141Y00232517D01*
X00325379Y00230679D01*
Y00228690D01*
X00326141Y00226852D01*
X00327547Y00225446D01*
X00329385Y00224685D01*
X00331374D01*
X00332962Y00225343D01*
X00333270Y00225228D01*
X00336074Y00221199D01*
X00335726Y00220646D01*
X00317968Y00196291D01*
X00314359Y00196531D01*
X00312372Y00197103D01*
X00311143Y00199116D01*
X00309045Y00201114D01*
X00306502Y00202500D01*
X00303687Y00203181D01*
X00300792Y00203110D01*
X00298013Y00202292D01*
X00295541Y00200783D01*
X00293544Y00198685D01*
X00290009Y00193837D01*
X00288623Y00191294D01*
X00287942Y00188479D01*
X00288013Y00185583D01*
X00288831Y00182805D01*
X00290340Y00180333D01*
X00292437Y00178336D01*
X00294980Y00176949D01*
X00297273Y00176395D01*
X00298910Y00174111D01*
X00300004Y00171399D01*
X00300003Y00171321D01*
X00299974Y00170598D01*
X00300248Y00169851D01*
X00300787Y00169266D01*
X00342952Y00138522D01*
X00343674Y00138188D01*
X00344469Y00138155D01*
X00345216Y00138429D01*
X00345801Y00138968D01*
X00377832Y00182899D01*
X00384070Y00191454D01*
X00385731Y00191657D01*
X00390029Y00191141D01*
X00390313Y00190833D01*
X00393949Y00188181D01*
X00395484Y00187471D01*
X00395584Y00187467D01*
X00396113Y00187394D01*
X00398585Y00186052D01*
X00400618Y00184109D01*
X00400849Y00183628D01*
X00400884Y00183533D01*
X00402029Y00182290D01*
X00405666Y00179639D01*
X00406669Y00179174D01*
X00410803Y00176615D01*
X00410803Y00176615D01*
X00420499Y00169545D01*
X00426045Y00177152D01*
X00428255Y00179114D01*
X00432118Y00178400D01*
X00439251Y00173198D01*
X00446321Y00182894D01*
X00436625Y00189964D01*
D01*
X00432873Y00193086D01*
X00431933Y00194107D01*
X00428297Y00196759D01*
X00426762Y00197469D01*
X00426662Y00197473D01*
X00426133Y00197546D01*
X00425132Y00198089D01*
X00424408Y00200019D01*
X00423740Y00203086D01*
X00424545Y00203828D01*
X00433256Y00215774D01*
X00439447Y00217195D01*
X00440066Y00216997D01*
X00441943Y00215628D01*
X00457108Y00236426D01*
X00457798Y00237373D01*
X00458232Y00237056D01*
X00460052Y00235729D01*
X00461045Y00235269D01*
X00462138Y00235224D01*
X00463165Y00235601D01*
X00463917Y00236293D01*
X00464053Y00236375D01*
X00469405Y00237338D01*
X00471242Y00236577D01*
X00473232D01*
X00475069Y00237338D01*
X00476476Y00238745D01*
X00477237Y00240582D01*
Y00242571D01*
X00476476Y00244409D01*
X00475069Y00245816D01*
X00474698Y00250966D01*
X00474729Y00251080D01*
X00475060Y00251364D01*
X00477071Y00252810D01*
X00479648Y00253842D01*
X00479851Y00253874D01*
X00480262Y00253858D01*
X00481121Y00254173D01*
X00482060Y00253488D01*
X00482205Y00253137D01*
X00483612Y00251731D01*
X00485450Y00250970D01*
X00487439D01*
X00489276Y00251731D01*
X00490683Y00253137D01*
X00491444Y00254975D01*
Y00256964D01*
X00490683Y00258802D01*
X00489276Y00260209D01*
X00487439Y00260970D01*
X00486565Y00262502D01*
X00485999Y00264042D01*
X00484887Y00265249D01*
X00481453Y00267753D01*
X00479964Y00268443D01*
X00478535Y00268501D01*
X00478175Y00268619D01*
X00474190Y00271524D01*
X00473968Y00271832D01*
X00473475Y00273174D01*
X00472363Y00274381D01*
X00468929Y00276885D01*
X00468016Y00277308D01*
X00467021Y00278643D01*
X00466768Y00279166D01*
X00466147Y00282632D01*
X00466843Y00283329D01*
X00467605Y00285166D01*
Y00287155D01*
X00466843Y00288993D01*
X00465437Y00290400D01*
X00463599Y00291161D01*
X00461610D01*
X00459772Y00290400D01*
X00458366Y00288993D01*
X00457605Y00287156D01*
X00455297Y00285523D01*
X00453663Y00284924D01*
X00452383Y00283744D01*
X00449584Y00279906D01*
X00448853Y00278327D01*
X00448782Y00276588D01*
X00448017Y00273765D01*
X00446806Y00272709D01*
X00446002Y00271968D01*
X00437291Y00260021D01*
X00431100Y00258601D01*
X00430481Y00258799D01*
X00428603Y00260168D01*
X00413131Y00238948D01*
X00409029Y00241117D01*
X00406688Y00242824D01*
X00406605Y00245033D01*
X00407144Y00248679D01*
X00407771Y00249257D01*
X00410570Y00253095D01*
X00411301Y00254674D01*
X00411372Y00256413D01*
X00410982Y00257475D01*
X00412109Y00259020D01*
X00412459Y00259165D01*
X00413866Y00260572D01*
X00414627Y00262410D01*
Y00264399D01*
X00413866Y00266237D01*
X00412459Y00267643D01*
X00410621Y00268404D01*
X00408632D01*
X00406795Y00267643D01*
X00405388Y00266237D01*
X00404627Y00264399D01*
X00402437Y00262928D01*
X00400803Y00262328D01*
X00399523Y00261149D01*
X00396724Y00257311D01*
X00396366Y00256538D01*
X00393060Y00254910D01*
X00390931Y00254313D01*
X00384565Y00258954D01*
X00383191Y00265329D01*
X00383376Y00265810D01*
X00392265Y00278000D01*
X00392265Y00278000D01*
X00392599Y00278722D01*
X00392632Y00279517D01*
X00389349Y00300475D01*
X00389075Y00301222D01*
X00388535Y00301807D01*
X00388535Y00301807D01*
X00342478Y00335389D01*
X00342478Y00335389D01*
X00341756Y00335723D01*
X00340961Y00335756D01*
D02*
G37*
G36*
X01128817Y00383416D02*
X01124094D01*
X01119430Y00382678D01*
X01114939Y00381218D01*
X01110732Y00379075D01*
X01106912Y00376299D01*
X01103573Y00372960D01*
X01100797Y00369140D01*
X01098653Y00364932D01*
X01097194Y00360441D01*
X01096455Y00355778D01*
Y00351055D01*
X01097194Y00346391D01*
X01098653Y00341900D01*
X01100797Y00337693D01*
X01103573Y00333873D01*
X01106912Y00330534D01*
X01110732Y00327758D01*
X01114939Y00325614D01*
X01119430Y00324155D01*
X01124094Y00323416D01*
X01128817D01*
X01133480Y00324155D01*
X01137971Y00325614D01*
X01142179Y00327758D01*
X01145999Y00330534D01*
X01149338Y00333873D01*
X01152114Y00337693D01*
X01154258Y00341900D01*
X01155717Y00346391D01*
X01156455Y00351055D01*
Y00355778D01*
X01155717Y00360441D01*
X01154258Y00364932D01*
X01152114Y00369140D01*
X01149338Y00372960D01*
X01145999Y00376299D01*
X01142179Y00379075D01*
X01137971Y00381218D01*
X01133480Y00382678D01*
X01128817Y00383416D01*
D02*
G37*
G36*
X00671308Y00256169D02*
X00669319D01*
X00667482Y00255408D01*
X00666075Y00254001D01*
X00665314Y00252164D01*
Y00250175D01*
X00665726Y00249180D01*
Y00246977D01*
X00664785Y00246348D01*
X00663818Y00244901D01*
X00663478Y00243194D01*
Y00238444D01*
X00663818Y00236737D01*
X00663972Y00236506D01*
X00665814Y00232486D01*
X00665473Y00230992D01*
X00665260Y00229919D01*
Y00211719D01*
X00660477Y00210134D01*
X00658154D01*
Y00183872D01*
X00658154Y00183872D01*
X00658154D01*
X00653429Y00183208D01*
X00650665D01*
X00649296Y00184945D01*
X00647583Y00188208D01*
X00647750Y00189044D01*
Y00193794D01*
X00647410Y00195501D01*
X00646443Y00196948D01*
X00645502Y00197577D01*
Y00199580D01*
X00645914Y00200575D01*
Y00202564D01*
X00645153Y00204401D01*
X00643746Y00205808D01*
X00641908Y00206569D01*
X00639919D01*
X00638082Y00205808D01*
X00636675Y00204401D01*
X00635914Y00202564D01*
Y00200575D01*
X00636326Y00199580D01*
Y00197577D01*
X00635385Y00196948D01*
X00634418Y00195501D01*
X00634078Y00193794D01*
Y00189044D01*
X00634244Y00188208D01*
X00632532Y00184945D01*
X00631163Y00183208D01*
X00619588D01*
X00618285Y00188047D01*
Y00203134D01*
X00618130Y00203915D01*
X00617688Y00204576D01*
X00617688Y00204576D01*
X00602688Y00219576D01*
X00602027Y00220018D01*
X00601246Y00220173D01*
X00544246D01*
X00544246Y00220173D01*
X00543466Y00220018D01*
X00542804Y00219576D01*
X00542804Y00219576D01*
X00535554Y00212326D01*
X00535112Y00211664D01*
X00534957Y00210884D01*
Y00200019D01*
X00528596D01*
Y00191116D01*
X00528418Y00190219D01*
Y00132619D01*
X00528596Y00131722D01*
Y00122819D01*
X00536799D01*
X00536996Y00122780D01*
X00547496D01*
X00547693Y00122819D01*
X00549799D01*
X00549996Y00122780D01*
X00555089D01*
X00555286Y00122819D01*
X00555896D01*
Y00122953D01*
X00556531Y00123377D01*
X00569916Y00136762D01*
X00574916Y00134759D01*
X00575236Y00133150D01*
X00576147Y00131785D01*
X00577512Y00130873D01*
X00579121Y00130553D01*
X00583371D01*
X00584981Y00130873D01*
X00586170Y00131668D01*
X00586531Y00131785D01*
X00587299D01*
X00588404Y00131294D01*
X00588458Y00131250D01*
X00591746Y00126903D01*
Y00126639D01*
X00592508Y00124802D01*
X00593914Y00123395D01*
X00594164Y00123292D01*
X00595659Y00118895D01*
X00595629Y00117685D01*
X00583484Y00105541D01*
X00583042Y00104879D01*
X00582887Y00104099D01*
Y00063419D01*
X00583042Y00062639D01*
X00583484Y00061977D01*
X00584146Y00061535D01*
X00584926Y00061380D01*
X00630064D01*
X00630844Y00061535D01*
X00631505Y00061977D01*
X00631948Y00062639D01*
X00631957Y00062685D01*
X00634543Y00064385D01*
X00636793Y00065276D01*
X00639469Y00064168D01*
X00642341Y00063790D01*
X00645212Y00064168D01*
X00647888Y00065276D01*
X00650186Y00067039D01*
X00651949Y00069337D01*
X00653057Y00072013D01*
X00653436Y00074884D01*
Y00080885D01*
X00653057Y00083756D01*
X00651949Y00086432D01*
X00650186Y00088730D01*
X00647888Y00090493D01*
X00645212Y00091601D01*
X00644480Y00091698D01*
X00642521Y00096810D01*
X00662056Y00116345D01*
X00662498Y00117006D01*
X00662653Y00117787D01*
Y00128375D01*
X00663876Y00129517D01*
X00667653Y00131633D01*
X00668064Y00131551D01*
X00672564D01*
X00674222Y00131881D01*
X00674306Y00131937D01*
X00675948Y00132820D01*
X00679180D01*
X00680822Y00131937D01*
X00680906Y00131881D01*
X00682564Y00131551D01*
X00687064D01*
X00688148Y00131767D01*
X00692996Y00132134D01*
Y00132134D01*
X00704996D01*
Y00141548D01*
X00705626Y00144436D01*
X00709168Y00146134D01*
X00717996D01*
Y00158134D01*
X00705996D01*
X00705996Y00158134D01*
X00701126Y00158447D01*
X00699764Y00158717D01*
X00695264D01*
X00693606Y00158387D01*
X00693522Y00158331D01*
X00693052Y00158079D01*
X00691923Y00157928D01*
X00690201Y00159060D01*
X00687854Y00161146D01*
X00688068Y00162219D01*
Y00180419D01*
X00692850Y00182004D01*
X00695174D01*
Y00207743D01*
X00695174Y00208915D01*
X00695711Y00208915D01*
X00697964D01*
X00699037Y00209129D01*
X00699947Y00209736D01*
X00700554Y00210646D01*
X00700768Y00211719D01*
X00703369Y00215819D01*
X00705358D01*
X00707196Y00216580D01*
X00708603Y00217987D01*
X00709364Y00219825D01*
Y00221814D01*
X00708603Y00223651D01*
X00707196Y00225058D01*
X00705358Y00225819D01*
X00703369D01*
X00700768Y00229919D01*
X00700768Y00229919D01*
X00701687Y00232800D01*
X00703126Y00235096D01*
X00703271Y00235242D01*
X00703613Y00235470D01*
X00704121Y00236231D01*
X00705375D01*
X00706369Y00235819D01*
X00708358D01*
X00710196Y00236580D01*
X00711603Y00237987D01*
X00712364Y00239825D01*
Y00241814D01*
X00711603Y00243651D01*
X00710196Y00245058D01*
X00708358Y00245819D01*
X00706369D01*
X00705375Y00245407D01*
X00704121D01*
X00703613Y00246168D01*
X00702248Y00247080D01*
X00700639Y00247400D01*
X00696389D01*
X00694779Y00247080D01*
X00693590Y00246285D01*
X00693229Y00246168D01*
X00688298D01*
X00687937Y00246285D01*
X00686748Y00247080D01*
X00685139Y00247400D01*
X00680889D01*
X00679902Y00247204D01*
X00678607Y00247605D01*
X00676589Y00249180D01*
X00675314Y00250443D01*
Y00252164D01*
X00674553Y00254001D01*
X00673146Y00255408D01*
X00671308Y00256169D01*
D02*
G37*
G36*
X01051432Y00277924D02*
X01046710D01*
X01042046Y00277185D01*
X01037555Y00275726D01*
X01033347Y00273582D01*
X01029527Y00270807D01*
X01026188Y00267468D01*
X01023412Y00263648D01*
X01021268Y00259440D01*
X01019809Y00254949D01*
X01019071Y00250285D01*
Y00245563D01*
X01019809Y00240899D01*
X01021268Y00236408D01*
X01023412Y00232201D01*
X01026188Y00228381D01*
X01029527Y00225042D01*
X01033347Y00222266D01*
X01037555Y00220122D01*
X01042046Y00218663D01*
X01046710Y00217924D01*
X01051432D01*
X01056096Y00218663D01*
X01060587Y00220122D01*
X01064794Y00222266D01*
X01068614Y00225042D01*
X01071953Y00228381D01*
X01074729Y00232201D01*
X01076873Y00236408D01*
X01078332Y00240899D01*
X01079071Y00245563D01*
Y00250285D01*
X01078332Y00254949D01*
X01076873Y00259440D01*
X01074729Y00263648D01*
X01071953Y00267468D01*
X01068614Y00270807D01*
X01064794Y00273582D01*
X01060587Y00275726D01*
X01056096Y00277185D01*
X01051432Y00277924D01*
D02*
G37*
G36*
X00242607Y00263419D02*
X00237885D01*
X00233221Y00262680D01*
X00228730Y00261221D01*
X00224523Y00259077D01*
X00220703Y00256302D01*
X00217364Y00252963D01*
X00214588Y00249142D01*
X00212444Y00244935D01*
X00210985Y00240444D01*
X00210246Y00235780D01*
Y00231058D01*
X00210985Y00226394D01*
X00212444Y00221903D01*
X00214588Y00217696D01*
X00217364Y00213875D01*
X00220703Y00210536D01*
X00224523Y00207761D01*
X00228730Y00205617D01*
X00233221Y00204158D01*
X00237885Y00203419D01*
X00242607D01*
X00247271Y00204158D01*
X00251762Y00205617D01*
X00255970Y00207761D01*
X00259790Y00210536D01*
X00263129Y00213875D01*
X00265905Y00217696D01*
X00268048Y00221903D01*
X00269508Y00226394D01*
X00270246Y00231058D01*
Y00235780D01*
X00269508Y00240444D01*
X00268048Y00244935D01*
X00265905Y00249142D01*
X00263129Y00252963D01*
X00259790Y00256302D01*
X00255970Y00259077D01*
X00251762Y00261221D01*
X00247271Y00262680D01*
X00242607Y00263419D01*
D02*
G37*
G36*
X00893429Y00163651D02*
X00888707D01*
X00884043Y00162913D01*
X00879552Y00161453D01*
X00875344Y00159310D01*
X00871524Y00156534D01*
X00868185Y00153195D01*
X00865409Y00149375D01*
X00863266Y00145167D01*
X00861806Y00140676D01*
X00861068Y00136012D01*
Y00131290D01*
X00861806Y00126626D01*
X00863266Y00122135D01*
X00865409Y00117928D01*
X00868185Y00114108D01*
X00871524Y00110768D01*
X00875344Y00107993D01*
X00879552Y00105849D01*
X00884043Y00104390D01*
X00888707Y00103651D01*
X00893429D01*
X00898093Y00104390D01*
X00902584Y00105849D01*
X00906791Y00107993D01*
X00910611Y00110768D01*
X00913950Y00114108D01*
X00916726Y00117928D01*
X00918870Y00122135D01*
X00920329Y00126626D01*
X00921068Y00131290D01*
Y00136012D01*
X00920329Y00140676D01*
X00918870Y00145167D01*
X00916726Y00149375D01*
X00913950Y00153195D01*
X00910611Y00156534D01*
X00906791Y00159310D01*
X00902584Y00161453D01*
X00898093Y00162913D01*
X00893429Y00163651D01*
D02*
G37*
G36*
X00400113Y00148457D02*
X00395391D01*
X00390727Y00147718D01*
X00386236Y00146259D01*
X00382029Y00144115D01*
X00378208Y00141340D01*
X00374869Y00138001D01*
X00372094Y00134180D01*
X00369950Y00129973D01*
X00368491Y00125482D01*
X00367752Y00120818D01*
Y00116096D01*
X00368491Y00111432D01*
X00369950Y00106941D01*
X00372094Y00102733D01*
X00374869Y00098913D01*
X00378208Y00095574D01*
X00382029Y00092799D01*
X00386236Y00090655D01*
X00390727Y00089196D01*
X00395391Y00088457D01*
X00400113D01*
X00404777Y00089196D01*
X00409268Y00090655D01*
X00413475Y00092799D01*
X00417296Y00095574D01*
X00420635Y00098913D01*
X00423410Y00102733D01*
X00425554Y00106941D01*
X00427013Y00111432D01*
X00427752Y00116096D01*
Y00120818D01*
X00427013Y00125482D01*
X00425554Y00129973D01*
X00423410Y00134180D01*
X00420635Y00138001D01*
X00417296Y00141340D01*
X00413475Y00144115D01*
X00409268Y00146259D01*
X00404777Y00147718D01*
X00400113Y00148457D01*
D02*
G37*
G36*
X00524495Y00107885D02*
X00519773D01*
X00515109Y00107146D01*
X00510618Y00105687D01*
X00506410Y00103543D01*
X00502590Y00100768D01*
X00499251Y00097429D01*
X00496476Y00093609D01*
X00494332Y00089401D01*
X00492873Y00084910D01*
X00492134Y00080246D01*
Y00075524D01*
X00492873Y00070860D01*
X00494332Y00066369D01*
X00496476Y00062162D01*
X00499251Y00058341D01*
X00502590Y00055002D01*
X00506410Y00052227D01*
X00510618Y00050083D01*
X00515109Y00048624D01*
X00519773Y00047885D01*
X00524495D01*
X00529159Y00048624D01*
X00533650Y00050083D01*
X00537857Y00052227D01*
X00541678Y00055002D01*
X00545017Y00058341D01*
X00547792Y00062162D01*
X00549936Y00066369D01*
X00551395Y00070860D01*
X00552134Y00075524D01*
Y00080246D01*
X00551395Y00084910D01*
X00549936Y00089401D01*
X00547792Y00093609D01*
X00545017Y00097429D01*
X00541678Y00100768D01*
X00537857Y00103543D01*
X00533650Y00105687D01*
X00529159Y00107146D01*
X00524495Y00107885D01*
D02*
G37*
G36*
X00719401Y00107524D02*
X00714678D01*
X00710015Y00106786D01*
X00705524Y00105327D01*
X00701316Y00103183D01*
X00697496Y00100407D01*
X00694157Y00097068D01*
X00691381Y00093248D01*
X00689238Y00089041D01*
X00687778Y00084550D01*
X00687040Y00079886D01*
Y00075163D01*
X00687778Y00070500D01*
X00689238Y00066009D01*
X00691381Y00061801D01*
X00694157Y00057981D01*
X00697496Y00054642D01*
X00701316Y00051866D01*
X00705524Y00049722D01*
X00710015Y00048263D01*
X00714678Y00047525D01*
X00719401D01*
X00724065Y00048263D01*
X00728556Y00049722D01*
X00732763Y00051866D01*
X00736583Y00054642D01*
X00739922Y00057981D01*
X00742698Y00061801D01*
X00744842Y00066009D01*
X00746301Y00070500D01*
X00747040Y00075163D01*
Y00079886D01*
X00746301Y00084550D01*
X00744842Y00089041D01*
X00742698Y00093248D01*
X00739922Y00097068D01*
X00736583Y00100407D01*
X00732763Y00103183D01*
X00728556Y00105327D01*
X00724065Y00106786D01*
X00719401Y00107524D01*
D02*
G37*
%LPD*%
G36*
X00691214Y01118781D02*
X00680779Y01108346D01*
X00666964D01*
Y01119038D01*
X00686122Y01138196D01*
X00691214D01*
Y01118781D01*
D02*
G37*
G36*
X00704214Y01101911D02*
X00693714D01*
Y01138196D01*
X00704214D01*
Y01101911D01*
D02*
G37*
G36*
X00652964Y01096885D02*
X00633770D01*
X00633573Y01096846D01*
X00633372D01*
X00628556D01*
X00628355D01*
X00628158Y01096885D01*
X00624964D01*
X00624767Y01096846D01*
X00611464D01*
Y01106346D01*
X00652964D01*
Y01096885D01*
D02*
G37*
G36*
X00685929Y01061880D02*
X00690599D01*
X00691714Y01062996D01*
X00693114D01*
Y01064296D01*
X00693139Y01064420D01*
X00693714Y01064996D01*
Y01081935D01*
X00704214D01*
Y01052131D01*
X00696964Y01044881D01*
X00639964D01*
X00624964Y01059881D01*
Y01094846D01*
X00628158D01*
X00628589Y01094760D01*
X00633339D01*
X00633770Y01094846D01*
X00652964D01*
X00685929Y01061880D01*
D02*
G37*
G36*
X00632780Y01135411D02*
X00607964Y01110595D01*
Y01095881D01*
X00611891Y01091954D01*
X00621623D01*
Y01081845D01*
X00580597D01*
X00580597Y01145228D01*
Y01199595D01*
X00632780D01*
Y01135411D01*
D02*
G37*
G36*
X00691214Y01084410D02*
Y01064996D01*
X00686122D01*
X00666964Y01084153D01*
Y01094846D01*
X00680779D01*
X00691214Y01084410D01*
D02*
G37*
G36*
X01008420Y01061990D02*
X00984454Y01029120D01*
X00916942Y01018544D01*
X00908273Y01006654D01*
X00909132Y01001168D01*
X00916995Y00995435D01*
X00911040Y00987267D01*
X00877890Y01011438D01*
X00915232Y01062652D01*
X00945970Y01067467D01*
X00957917Y01069338D01*
X00971949Y01088583D01*
X01008420Y01061990D01*
D02*
G37*
G36*
X00950799Y00988598D02*
X00945974Y00981980D01*
X00944199Y00981702D01*
X00929716Y00992262D01*
X00929534Y00992347D01*
X00929371Y00992465D01*
X00925318Y00995421D01*
X00925182Y00995568D01*
X00922601Y00997450D01*
X00922418Y00997534D01*
X00911669Y01005372D01*
X00917266Y01013048D01*
X00950799Y00988598D01*
D02*
G37*
G36*
X01000471Y00991799D02*
X00989032Y00976111D01*
X00974452Y00973827D01*
X00963290Y00981966D01*
X00969589Y00990606D01*
X00996356Y00994799D01*
X01000471Y00991799D01*
D02*
G37*
G36*
X01010975Y00984140D02*
X00989597Y00954821D01*
X00981113Y00961007D01*
X01002491Y00990326D01*
X01010975Y00984140D01*
D02*
G37*
G36*
X00966499Y00962919D02*
X00968783Y00948339D01*
X00957344Y00932652D01*
X00953230Y00935652D01*
X00949037Y00962418D01*
X00955336Y00971058D01*
X00966499Y00962919D01*
D02*
G37*
G36*
X00923980Y00993921D02*
X00924278Y00993597D01*
X00928116Y00990799D01*
X00928514Y00990614D01*
X00944024Y00979306D01*
X00951239Y00933248D01*
X00955012Y00930497D01*
X00956570Y00930741D01*
X00957701Y00929916D01*
X00958467Y00930967D01*
X00958561Y00931053D01*
X00959364Y00931179D01*
X00969344Y00944866D01*
X00977829Y00938680D01*
X00960269Y00914597D01*
X00950140Y00913010D01*
X00904082Y00946592D01*
X00900799Y00967550D01*
X00921399Y00995802D01*
X00923980Y00993921D01*
D02*
G37*
G36*
X00436756Y01069388D02*
X00428264Y01063213D01*
X00406925Y01092560D01*
X00415418Y01098735D01*
X00436756Y01069388D01*
D02*
G37*
G36*
X00416321Y01075387D02*
X00414017Y01060810D01*
X00402844Y01052686D01*
X00396556Y01061335D01*
X00400784Y01088095D01*
X00404903Y01091090D01*
X00416321Y01075387D01*
D02*
G37*
G36*
X00436533Y01047588D02*
X00447951Y01031886D01*
X00443832Y01028891D01*
X00417071Y01033119D01*
X00410783Y01041768D01*
X00421956Y01049892D01*
X00436533Y01047588D01*
D02*
G37*
G36*
X00466031Y01029126D02*
X00464431Y01018998D01*
X00418329Y00985478D01*
X00397376Y00988788D01*
X00376813Y01017068D01*
X00379397Y01018947D01*
X00379796Y01019130D01*
X00383638Y01021924D01*
X00383936Y01022247D01*
X00399460Y01033534D01*
X00445508Y01026258D01*
X00449285Y01029005D01*
X00449531Y01030562D01*
X00450664Y01031385D01*
X00449899Y01032437D01*
X00449846Y01032552D01*
X00449973Y01033356D01*
X00440011Y01047057D01*
X00448503Y01053231D01*
X00466031Y01029126D01*
D02*
G37*
G36*
X00398261Y01035184D02*
X00382736Y01023896D01*
X00382600Y01023748D01*
X00382438Y01023630D01*
X00382438Y01023630D01*
X00380490Y01022214D01*
X00378543Y01020798D01*
X00378542Y01020798D01*
X00378380Y01020680D01*
X00378198Y01020596D01*
X00375614Y01018717D01*
X00375478Y01018570D01*
X00364718Y01010747D01*
X00359132Y01018430D01*
X00392697Y01042836D01*
X00398261Y01035184D01*
D02*
G37*
G36*
X00364467Y01087307D02*
X00353801Y01019809D01*
X00362455Y01007908D01*
X00367940Y01007041D01*
X00375811Y01012764D01*
X00381756Y01004588D01*
X00348574Y00980462D01*
X00311300Y01031726D01*
X00316156Y01062457D01*
X00318043Y01074401D01*
X00304037Y01093664D01*
X00340544Y01120209D01*
X00364467Y01087307D01*
D02*
G37*
G36*
X00810169Y00859419D02*
X00767169D01*
Y00908419D01*
X00810169D01*
Y00859419D01*
D02*
G37*
G36*
X01174246Y00808653D02*
X01113162Y00788943D01*
X01081926Y00804940D01*
X01067922Y00800421D01*
X01065390Y00795478D01*
X01068379Y00786217D01*
X01058759Y00783113D01*
X01046161Y00822157D01*
X01106481Y00841620D01*
X01158222Y00858315D01*
X01174246Y00808653D01*
D02*
G37*
G36*
X01091699Y00760809D02*
X01083904Y00758294D01*
X01082306Y00759112D01*
X01076802Y00776170D01*
X01076704Y00776346D01*
X01075163Y00781120D01*
X01075101Y00781311D01*
X01075078Y00781511D01*
X01074097Y00784551D01*
X01074000Y00784726D01*
X01069915Y00797387D01*
X01078956Y00800304D01*
X01091699Y00760809D01*
D02*
G37*
G36*
X01132192Y00739034D02*
X01133756Y00734187D01*
X01115279Y00728225D01*
X01102144Y00734952D01*
X01097902Y00748099D01*
X01108078Y00751383D01*
X01132192Y00739034D01*
D02*
G37*
G36*
X01089296Y00730807D02*
X01082569Y00717671D01*
X01064093Y00711709D01*
X01062529Y00716556D01*
X01074878Y00740670D01*
X01085054Y00743954D01*
X01089296Y00730807D01*
D02*
G37*
G36*
X01137748Y00721815D02*
X01103216Y00710673D01*
X01099992Y00720666D01*
X01134524Y00731808D01*
X01137748Y00721815D01*
D02*
G37*
G36*
X01073138Y00780885D02*
X01073188Y00780449D01*
X01074647Y00775928D01*
X01074861Y00775544D01*
X01080755Y00757277D01*
X01059505Y00715782D01*
X01060939Y00711338D01*
X01062343Y00710619D01*
X01062773Y00709287D01*
X01064010Y00709686D01*
X01064136Y00709701D01*
X01064860Y00709330D01*
X01080981Y00714532D01*
X01084205Y00704539D01*
X01055841Y00695387D01*
X01046715Y00700060D01*
X01029212Y00754306D01*
X01038881Y00773188D01*
X01072157Y00783925D01*
X01073138Y00780885D01*
D02*
G37*
G36*
X00208706Y00843094D02*
X00205455Y00833110D01*
X00170954Y00844345D01*
X00174205Y00854329D01*
X00208706Y00843094D01*
D02*
G37*
G36*
X00188640Y00835957D02*
X00195331Y00822803D01*
X00191053Y00809667D01*
X00180886Y00812978D01*
X00168603Y00837126D01*
X00170179Y00841968D01*
X00188640Y00835957D01*
D02*
G37*
G36*
X00239782Y00819302D02*
X00238205Y00814460D01*
X00214057Y00802176D01*
X00203890Y00805487D01*
X00208167Y00818623D01*
X00221321Y00825314D01*
X00239782Y00819302D01*
D02*
G37*
G36*
X00256040Y00827680D02*
X00260689Y00818541D01*
X00243039Y00764342D01*
X00224131Y00754724D01*
X00190885Y00765551D01*
X00191874Y00768588D01*
X00192089Y00768971D01*
X00193559Y00773488D01*
X00193611Y00773924D01*
X00199555Y00792175D01*
X00241107Y00813312D01*
X00242553Y00817753D01*
X00241838Y00819158D01*
X00242272Y00820490D01*
X00241035Y00820892D01*
X00240925Y00820954D01*
X00240556Y00821679D01*
X00224449Y00826925D01*
X00227700Y00836908D01*
X00256040Y00827680D01*
D02*
G37*
G36*
X00196497Y00793171D02*
X00197616Y00792806D01*
X00197616Y00792806D01*
X00191672Y00774556D01*
X00191649Y00774356D01*
X00191586Y00774165D01*
X00191586Y00774165D01*
X00190095Y00769586D01*
X00190095Y00769586D01*
X00190033Y00769395D01*
X00189935Y00769220D01*
X00188946Y00766183D01*
X00188922Y00765983D01*
X00184803Y00753334D01*
X00175770Y00756276D01*
X00188620Y00795736D01*
X00196497Y00793171D01*
D02*
G37*
G36*
X00154733Y00785544D02*
X00170645Y00754264D01*
X00184636Y00749707D01*
X00189586Y00752225D01*
X00192600Y00761478D01*
X00202211Y00758348D01*
X00189507Y00719339D01*
X00129240Y00738965D01*
X00077545Y00755800D01*
X00093703Y00805418D01*
X00154733Y00785544D01*
D02*
G37*
G36*
X00819857Y00760857D02*
X00743246D01*
Y00848307D01*
X00819857D01*
Y00760857D01*
D02*
G37*
G36*
X00890707Y00739357D02*
X00829557D01*
Y00757257D01*
X00843084Y00757257D01*
X00845707Y00759880D01*
Y00849307D01*
X00890707D01*
Y00739357D01*
D02*
G37*
G36*
X00819857Y00751357D02*
X00761246D01*
Y00757257D01*
X00819857D01*
Y00751357D01*
D02*
G37*
G36*
Y00739257D02*
X00776207D01*
Y00747757D01*
X00819857D01*
Y00739257D01*
D02*
G37*
G36*
X00860957Y00719419D02*
X00841246D01*
X00835246Y00713419D01*
X00788627D01*
Y00733307D01*
X00860957D01*
Y00719419D01*
D02*
G37*
G36*
X00932409Y00689721D02*
Y00680283D01*
X00926810Y00674684D01*
Y00632847D01*
X00922081Y00628117D01*
X00921270Y00628453D01*
Y00627307D01*
X00888250D01*
Y00651437D01*
X00893660D01*
Y00678354D01*
X00892457Y00679557D01*
Y00689057D01*
X00903160D01*
Y00651437D01*
X00920810D01*
Y00655022D01*
Y00679535D01*
X00922381Y00681106D01*
Y00689938D01*
X00932193D01*
X00932409Y00689721D01*
D02*
G37*
G36*
X00928608Y00732307D02*
X00950707Y00710208D01*
X00950707Y00626307D01*
X00929922Y00605522D01*
X00920810D01*
Y00623502D01*
X00922615Y00625307D01*
X00923270D01*
Y00625962D01*
X00934707Y00637399D01*
Y00690307D01*
X00931707Y00693307D01*
X00892707D01*
X00888710Y00689310D01*
Y00655022D01*
X00832708D01*
Y00706307D01*
X00843707Y00717307D01*
X00863708D01*
X00868708Y00722307D01*
Y00727307D01*
X00873708Y00732307D01*
X00928608Y00732307D01*
D02*
G37*
G36*
X00960760Y00582057D02*
X00950325Y00571622D01*
X00936510D01*
Y00582315D01*
X00955668Y00601472D01*
X00960760D01*
Y00582057D01*
D02*
G37*
G36*
X00886251Y00625743D02*
Y00625307D01*
X00886686D01*
X00891024Y00620969D01*
Y00567733D01*
X00877432D01*
X00863862Y00581303D01*
X00834707Y00581303D01*
Y00626922D01*
X00885071D01*
X00886251Y00625743D01*
D02*
G37*
G36*
X00973496Y00565187D02*
X00962996D01*
Y00601472D01*
X00973496D01*
Y00565187D01*
D02*
G37*
G36*
X00908041Y00575019D02*
X00908041Y00570417D01*
X00908510Y00569947D01*
X00908510Y00569622D01*
X00910835Y00567622D01*
X00912682Y00567622D01*
X00922511Y00567622D01*
Y00562122D01*
X00910510Y00562122D01*
X00908041Y00559652D01*
Y00555043D01*
X00905150Y00552152D01*
X00896056Y00552152D01*
X00896056Y00578638D01*
X00904421Y00578638D01*
X00908041Y00575019D01*
D02*
G37*
G36*
X00960760Y00547687D02*
Y00527453D01*
X00956486D01*
X00936510Y00547429D01*
Y00558122D01*
X00950325D01*
X00960760Y00547687D01*
D02*
G37*
G36*
X00862710Y00563673D02*
X00891736D01*
Y00550429D01*
X00895035D01*
X00895276Y00550268D01*
X00896056Y00550113D01*
X00905150Y00550113D01*
X00905931Y00550268D01*
X00906172Y00550429D01*
X00908318D01*
X00910510Y00552622D01*
Y00558122D01*
X00922793D01*
X00931496Y00549419D01*
X00954596Y00526319D01*
Y00526272D01*
X00954643D01*
X00956246Y00524669D01*
X00960246D01*
X00961049Y00525472D01*
X00961541Y00525569D01*
X00962202Y00526012D01*
X00962376Y00526272D01*
X00962396D01*
Y00526302D01*
X00962644Y00526673D01*
X00962742Y00527165D01*
X00962996Y00527419D01*
Y00543872D01*
X00973496D01*
Y00507419D01*
X00836825D01*
Y00574257D01*
X00852125D01*
X00862710Y00563673D01*
D02*
G37*
G36*
X01084744Y00480431D02*
X01071859Y00440982D01*
X01063984Y00443554D01*
X01062866Y00443919D01*
X01062866Y00443920D01*
X01068825Y00462165D01*
X01068849Y00462365D01*
X01070469Y00467324D01*
X01070567Y00467499D01*
X01071559Y00470536D01*
X01071583Y00470735D01*
X01075713Y00483381D01*
X01084744Y00480431D01*
D02*
G37*
G36*
X01056580Y00431245D02*
X01052291Y00418113D01*
X01039132Y00411433D01*
X01020676Y00417461D01*
X01022258Y00422302D01*
X01046416Y00434564D01*
X01056580Y00431245D01*
D02*
G37*
G36*
X01131288Y00497701D02*
X01145370Y00469958D01*
X01150844Y00459175D01*
X01173484Y00451781D01*
X01159470Y00408874D01*
X01120800Y00421504D01*
X01089870Y00482439D01*
X01075882Y00487007D01*
X01070930Y00484494D01*
X01067909Y00475243D01*
X01058300Y00478382D01*
X01071038Y00517380D01*
X01131288Y00497701D01*
D02*
G37*
G36*
X01069620Y00471169D02*
X01068629Y00468133D01*
X01068413Y00467750D01*
X01066939Y00463234D01*
X01066886Y00462798D01*
X01060927Y00444553D01*
X01019356Y00423451D01*
X01017906Y00419012D01*
X01018620Y00417606D01*
X01018185Y00416275D01*
X01019421Y00415872D01*
X01019532Y00415810D01*
X01019900Y00415084D01*
X01036002Y00409825D01*
X01032742Y00399844D01*
X01004411Y00409097D01*
X00999770Y00418240D01*
X01017467Y00472423D01*
X01036383Y00482025D01*
X01069620Y00471169D01*
D02*
G37*
G36*
X01079577Y00423733D02*
X01091840Y00399575D01*
X01090259Y00394734D01*
X01071804Y00400761D01*
X01065124Y00413921D01*
X01069413Y00427053D01*
X01079577Y00423733D01*
D02*
G37*
G36*
X01089483Y00392357D02*
X01086223Y00382376D01*
X01051731Y00393642D01*
X01054991Y00403623D01*
X01089483Y00392357D01*
D02*
G37*
G36*
X00160898Y00568249D02*
X00126355Y00557140D01*
X00123141Y00567136D01*
X00157683Y00578245D01*
X00160898Y00568249D01*
D02*
G37*
G36*
X00198365Y00572323D02*
X00185993Y00548220D01*
X00175814Y00544947D01*
X00171584Y00558098D01*
X00178323Y00571227D01*
X00196806Y00577171D01*
X00198365Y00572323D01*
D02*
G37*
G36*
X00158732Y00553965D02*
X00162962Y00540814D01*
X00152783Y00537540D01*
X00128680Y00549912D01*
X00127121Y00554760D01*
X00145603Y00560704D01*
X00158732Y00553965D01*
D02*
G37*
G36*
X00214195Y00588804D02*
X00231646Y00534541D01*
X00221958Y00515669D01*
X00188672Y00504964D01*
X00187694Y00508004D01*
X00187644Y00508441D01*
X00186190Y00512963D01*
X00185976Y00513347D01*
X00180100Y00531619D01*
X00201389Y00573094D01*
X00199960Y00577539D01*
X00198557Y00578260D01*
X00198128Y00579592D01*
X00196890Y00579194D01*
X00196764Y00579180D01*
X00196040Y00579551D01*
X00179914Y00574365D01*
X00176700Y00584361D01*
X00205073Y00593486D01*
X00214195Y00588804D01*
D02*
G37*
G36*
X00184035Y00512722D02*
X00184133Y00512547D01*
X00185730Y00507580D01*
X00185753Y00507380D01*
X00186731Y00504339D01*
X00186829Y00504164D01*
X00186829D01*
X00186829Y00504164D01*
X00190902Y00491500D01*
X00181858Y00488591D01*
X00173438Y00514771D01*
X00169152Y00528098D01*
X00177038Y00530634D01*
X00178159Y00530995D01*
X00184035Y00512722D01*
D02*
G37*
G36*
X00178883Y00483958D02*
X00192892Y00488463D01*
X00195428Y00493404D01*
X00192448Y00502668D01*
X00202071Y00505762D01*
X00214632Y00466707D01*
X00154293Y00447301D01*
X00126614Y00461510D01*
X00115856Y00467032D01*
X00093183Y00459740D01*
X00079363Y00502710D01*
X00118090Y00515164D01*
X00178883Y00483958D01*
D02*
G37*
G36*
X00894202Y00290672D02*
X00914703Y00262347D01*
X00912116Y00260474D01*
X00911717Y00260291D01*
X00907869Y00257506D01*
X00907570Y00257184D01*
X00892021Y00245930D01*
X00845989Y00253306D01*
X00842206Y00250568D01*
X00841956Y00249011D01*
X00840822Y00248190D01*
X00841585Y00247137D01*
X00841638Y00247021D01*
X00841509Y00246218D01*
X00851441Y00232496D01*
X00842935Y00226339D01*
X00825460Y00250483D01*
X00827082Y00260607D01*
X00873256Y00294028D01*
X00894202Y00290672D01*
D02*
G37*
G36*
X00932382Y00260947D02*
X00910105Y00244823D01*
Y00244823D01*
X00898764Y00236614D01*
X00893924Y00243301D01*
X00893217Y00244278D01*
X00908766Y00255532D01*
X00908902Y00255680D01*
X00913129Y00258739D01*
X00913311Y00258823D01*
X00915899Y00260695D01*
X00916036Y00260843D01*
X00926812Y00268643D01*
X00932382Y00260947D01*
D02*
G37*
G36*
X00874411Y00246383D02*
X00880680Y00237722D01*
X00869489Y00229622D01*
X00854917Y00231957D01*
X00843534Y00247684D01*
X00847659Y00250670D01*
X00874411Y00246383D01*
D02*
G37*
G36*
X00894865Y00218124D02*
X00890579Y00191372D01*
X00886453Y00188386D01*
X00875070Y00204114D01*
X00877405Y00218686D01*
X00888596Y00226786D01*
X00894865Y00218124D01*
D02*
G37*
G36*
X00884428Y00186921D02*
X00875922Y00180764D01*
X00854648Y00210158D01*
X00863153Y00216314D01*
X00884428Y00186921D01*
D02*
G37*
G36*
X00980185Y00247548D02*
X01012062Y00203506D01*
X00969790Y00172910D01*
X00932157Y00224904D01*
X00937709Y00259556D01*
X00929081Y00271477D01*
X00923598Y00272355D01*
X00915715Y00266649D01*
X00909788Y00274838D01*
X00943022Y00298892D01*
X00980185Y00247548D01*
D02*
G37*
G36*
X00338187Y00311100D02*
X00342380Y00284334D01*
X00336080Y00275694D01*
X00324918Y00283833D01*
X00322634Y00298413D01*
X00334072Y00314100D01*
X00338187Y00311100D01*
D02*
G37*
G36*
X00310303Y00285745D02*
X00288926Y00256426D01*
X00280442Y00262612D01*
X00301819Y00291931D01*
X00310303Y00285745D01*
D02*
G37*
G36*
X00328127Y00264786D02*
X00321827Y00256146D01*
X00295061Y00251953D01*
X00290946Y00254953D01*
X00302384Y00270641D01*
X00316964Y00272924D01*
X00328127Y00264786D01*
D02*
G37*
G36*
X00387334Y00300159D02*
X00390617Y00279202D01*
X00370017Y00250949D01*
X00367436Y00252831D01*
X00367139Y00253154D01*
X00363301Y00255953D01*
X00362902Y00256137D01*
X00347393Y00267446D01*
X00340178Y00313504D01*
X00336404Y00316255D01*
X00334846Y00316011D01*
X00333715Y00316836D01*
X00332949Y00315785D01*
X00332856Y00315699D01*
X00332052Y00315573D01*
X00322072Y00301886D01*
X00313588Y00308072D01*
X00331147Y00332155D01*
X00341277Y00333741D01*
X00387334Y00300159D01*
D02*
G37*
G36*
X00361701Y00254490D02*
X00361883Y00254405D01*
X00362045Y00254287D01*
X00366099Y00251331D01*
X00366235Y00251183D01*
X00368816Y00249302D01*
X00368998Y00249217D01*
X00379747Y00241380D01*
X00374150Y00233703D01*
X00340617Y00258153D01*
X00345443Y00264772D01*
X00347217Y00265050D01*
X00361701Y00254490D01*
D02*
G37*
G36*
X00413526Y00235314D02*
X00376184Y00184100D01*
X00344153Y00140170D01*
X00301988Y00170914D01*
X00339803Y00222776D01*
X00374474Y00228207D01*
X00383144Y00240098D01*
X00382284Y00245584D01*
X00374421Y00251317D01*
X00380376Y00259485D01*
X00413526Y00235314D01*
D02*
G37*
G36*
X00616246Y00203134D02*
Y00168169D01*
X00613052D01*
X00612621Y00168255D01*
X00607871D01*
X00607440Y00168169D01*
X00588246D01*
X00555281Y00201134D01*
X00550611D01*
X00549496Y00200019D01*
X00548096D01*
Y00198719D01*
X00548072Y00198594D01*
X00547496Y00198019D01*
Y00181080D01*
X00536996D01*
Y00210884D01*
X00544246Y00218134D01*
X00601246D01*
X00616246Y00203134D01*
D02*
G37*
G36*
X00574246Y00178862D02*
Y00168169D01*
X00560432D01*
X00549996Y00178604D01*
Y00198019D01*
X00555089D01*
X00574246Y00178862D01*
D02*
G37*
G36*
X00629746Y00156669D02*
X00588246D01*
Y00166130D01*
X00607440D01*
X00607637Y00166169D01*
X00607838D01*
X00612654D01*
X00612855D01*
X00613052Y00166130D01*
X00616246D01*
X00616443Y00166169D01*
X00629746D01*
Y00156669D01*
D02*
G37*
G36*
X00574246Y00143976D02*
X00555089Y00124819D01*
X00549996D01*
Y00144234D01*
X00560432Y00154669D01*
X00574246D01*
Y00143976D01*
D02*
G37*
G36*
X00547496Y00124819D02*
X00536996D01*
Y00161104D01*
X00547496D01*
Y00124819D01*
D02*
G37*
G36*
X00660614Y00117787D02*
X00638614Y00095787D01*
X00630064Y00087236D01*
Y00063419D01*
X00584926D01*
Y00104099D01*
X00633246Y00152419D01*
Y00167134D01*
X00629320Y00171061D01*
X00619588D01*
Y00181169D01*
X00660614D01*
X00660614Y00117787D01*
D02*
G37*
D16*
X00923810Y00664122D02*
D03*
X00911110D02*
D03*
X00898410D02*
D03*
X00885710D02*
D03*
Y00614622D02*
D03*
X00898410D02*
D03*
X00911110D02*
D03*
X00923810D02*
D03*
X00695714Y00220819D02*
D03*
X00683014D02*
D03*
X00670314D02*
D03*
X00657614D02*
D03*
Y00171319D02*
D03*
X00670314D02*
D03*
X00683014D02*
D03*
X00695714D02*
D03*
X00545497Y01042196D02*
D03*
X00558197D02*
D03*
X00570897D02*
D03*
X00583597D02*
D03*
Y01091695D02*
D03*
X00570897D02*
D03*
X00558197D02*
D03*
X00545497D02*
D03*
D17*
X00826169Y01000079D02*
D03*
X00836431Y00992597D02*
D03*
X00846693Y00985114D02*
D03*
X00856954Y00977632D02*
D03*
X00886118Y01017629D02*
D03*
X00875856Y01025111D02*
D03*
X00865594Y01032594D02*
D03*
X00855332Y01040076D02*
D03*
X00465248Y00246673D02*
D03*
X00454986Y00254155D02*
D03*
X00444724Y00261637D02*
D03*
X00434462Y00269120D02*
D03*
X00405299Y00229123D02*
D03*
X00415561Y00221640D02*
D03*
X00425823Y00214158D02*
D03*
X00436085Y00206676D02*
D03*
D18*
X00997648Y00843385D02*
D03*
X01001548Y00831299D02*
D03*
X01005448Y00819212D02*
D03*
X01009348Y00807126D02*
D03*
X01056456Y00822326D02*
D03*
X01052556Y00834413D02*
D03*
X01048656Y00846499D02*
D03*
X01044756Y00858586D02*
D03*
D19*
X01044245Y00563056D02*
D03*
X01040302Y00550984D02*
D03*
X01036359Y00538911D02*
D03*
X01032416Y00526839D02*
D03*
X01079470Y00511470D02*
D03*
X01083413Y00523543D02*
D03*
X01087356Y00535615D02*
D03*
X01091299Y00547687D02*
D03*
D20*
X00948208Y00351592D02*
D03*
X00937920Y00344146D02*
D03*
X00927632Y00336699D02*
D03*
X00917344Y00329253D02*
D03*
X00946367Y00289154D02*
D03*
X00956655Y00296601D02*
D03*
X00966943Y00304047D02*
D03*
X00977231Y00311493D02*
D03*
D21*
X00263124Y00445432D02*
D03*
X00259236Y00457522D02*
D03*
X00255347Y00469612D02*
D03*
X00251459Y00481702D02*
D03*
X00204336Y00466547D02*
D03*
X00208225Y00454457D02*
D03*
X00212113Y00442367D02*
D03*
X00216001Y00430276D02*
D03*
D22*
X00216340Y00673686D02*
D03*
X00220273Y00685762D02*
D03*
X00224205Y00697838D02*
D03*
X00228138Y00709914D02*
D03*
X00181070Y00725241D02*
D03*
X00177138Y00713166D02*
D03*
X00173205Y00701090D02*
D03*
X00169273Y00689014D02*
D03*
D23*
X00343502Y00927751D02*
D03*
X00353774Y00935220D02*
D03*
X00364046Y00942689D02*
D03*
X00374318Y00950157D02*
D03*
X00345208Y00990193D02*
D03*
X00334936Y00982724D02*
D03*
X00324664Y00975256D02*
D03*
X00314392Y00967787D02*
D03*
D24*
X00755707Y00869607D02*
D03*
Y00826307D02*
D03*
X00844475Y00663022D02*
D03*
Y00619722D02*
D03*
D25*
X00974246Y00647169D02*
D03*
Y00663669D02*
D03*
X00960246Y00647169D02*
D03*
Y00663669D02*
D03*
D26*
X00974246Y00619169D02*
D03*
Y00633669D02*
D03*
X00960246Y00619169D02*
D03*
Y00633669D02*
D03*
D27*
X00313382Y00990772D02*
D03*
X00301654Y00982245D02*
D03*
X00315420Y01009564D02*
D03*
X00303693Y01001037D02*
D03*
D28*
X00292222Y00992697D02*
D03*
X00278877Y00982993D02*
D03*
X00289941Y00973728D02*
D03*
X00276596Y00964025D02*
D03*
D29*
X00529214Y01110881D02*
D03*
X00512714D02*
D03*
X00542214Y01124881D02*
D03*
X00525714D02*
D03*
X00711996Y00152134D02*
D03*
X00728496D02*
D03*
X00698996Y00138134D02*
D03*
X00715496D02*
D03*
D30*
X00570897Y01124881D02*
D03*
X00556397D02*
D03*
X00558197Y01110881D02*
D03*
X00543697D02*
D03*
X00683014Y00152134D02*
D03*
X00697514D02*
D03*
X00670314Y00138134D02*
D03*
X00684814D02*
D03*
D31*
X00853478Y01065171D02*
D03*
X00840146Y01074892D02*
D03*
X00872231Y01068824D02*
D03*
X00858898Y01078545D02*
D03*
X00451270Y00171860D02*
D03*
X00437938Y00181581D02*
D03*
X00432518Y00168207D02*
D03*
X00419186Y00177928D02*
D03*
D32*
X00876897Y01048095D02*
D03*
X00865181Y01056638D02*
D03*
X00895407Y01051926D02*
D03*
X00883690Y01060468D02*
D03*
X00426236Y00190114D02*
D03*
X00414520Y00198656D02*
D03*
X00407726Y00186284D02*
D03*
X00396010Y00194826D02*
D03*
D33*
X01058015Y00879973D02*
D03*
X01052948Y00895675D02*
D03*
X01075330Y00871900D02*
D03*
X01070264Y00887602D02*
D03*
D34*
X01066914Y00852390D02*
D03*
X01062462Y00866190D02*
D03*
X01084138Y00844603D02*
D03*
X01079685Y00858402D02*
D03*
D35*
X01114591Y00557209D02*
D03*
X01119714Y00572893D02*
D03*
X01123863Y00540504D02*
D03*
X01128986Y00556189D02*
D03*
D36*
X01105593Y00529658D02*
D03*
X01110095Y00543442D02*
D03*
X01114958Y00513239D02*
D03*
X01119460Y00527023D02*
D03*
D37*
X01015036Y00315173D02*
D03*
X01001669Y00305499D02*
D03*
X01012713Y00296210D02*
D03*
X00999347Y00286536D02*
D03*
D38*
X00989938Y00297008D02*
D03*
X00978192Y00288506D02*
D03*
X00987858Y00278220D02*
D03*
X00976112Y00269718D02*
D03*
D39*
X00202722Y00408902D02*
D03*
X00207774Y00393195D02*
D03*
X00185415Y00416992D02*
D03*
X00190466Y00401284D02*
D03*
D40*
X00193849Y00436493D02*
D03*
X00198288Y00422689D02*
D03*
X00176633Y00444297D02*
D03*
X00181072Y00430493D02*
D03*
D41*
X00136702Y00696169D02*
D03*
X00131593Y00680480D02*
D03*
X00145989Y00679472D02*
D03*
X00140880Y00663783D02*
D03*
D42*
X00145584Y00723441D02*
D03*
X00141094Y00709654D02*
D03*
X00154963Y00707030D02*
D03*
X00150473Y00693243D02*
D03*
D43*
X00813007Y00763807D02*
D03*
Y00754307D02*
D03*
Y00744807D02*
D03*
X00836407D02*
D03*
Y00754307D02*
D03*
Y00763807D02*
D03*
D44*
X00787207Y00826307D02*
D03*
X00870207D02*
D03*
D45*
X00175511Y00523841D02*
D03*
X00184555Y00526749D02*
D03*
X00166467Y00520932D02*
D03*
X00158507Y00545684D02*
D03*
X00167551Y00548592D02*
D03*
X00176595Y00551501D02*
D03*
D46*
X00153158Y00514026D02*
D03*
X00148412Y00528781D02*
D03*
X00283021Y00448889D02*
D03*
X00278275Y00463645D02*
D03*
D47*
X00184526Y00494176D02*
D03*
X00199282Y00498922D02*
D03*
D48*
X00184023Y00591443D02*
D03*
X00186013Y00585255D02*
D03*
X00188003Y00579067D02*
D03*
X00189993Y00572879D02*
D03*
X00135159Y00555244D02*
D03*
X00133169Y00561432D02*
D03*
X00131179Y00567620D02*
D03*
X00129188Y00573808D02*
D03*
D49*
X00180410Y00508609D02*
D03*
X00194689Y00513201D02*
D03*
X00204078Y00484006D02*
D03*
X00218358Y00488599D02*
D03*
D50*
X00269795Y00490015D02*
D03*
X00274387Y00475735D02*
D03*
D51*
X00281401Y00271566D02*
D03*
X00286653Y00267736D02*
D03*
X00291905Y00263907D02*
D03*
X00297157Y00260077D02*
D03*
X00331093Y00306619D02*
D03*
X00325841Y00310449D02*
D03*
X00320588Y00314278D02*
D03*
X00315336Y00318108D02*
D03*
X00976080Y00928644D02*
D03*
X00970828Y00932473D02*
D03*
X00965576Y00936303D02*
D03*
X00960324Y00940132D02*
D03*
X00994259Y00986674D02*
D03*
X00999511Y00982845D02*
D03*
X01004763Y00979015D02*
D03*
X01010015Y00975186D02*
D03*
D52*
X00479293Y00261184D02*
D03*
X00466769Y00270316D02*
D03*
X00335976Y00237361D02*
D03*
X00323452Y00246493D02*
D03*
X00955440Y01009391D02*
D03*
X00967964Y01000259D02*
D03*
X00812123Y00985568D02*
D03*
X00824648Y00976436D02*
D03*
D53*
X00373018Y00239789D02*
D03*
X00382150Y00252313D02*
D03*
X00918399Y01006963D02*
D03*
X00909267Y00994439D02*
D03*
D54*
X00348264Y00258457D02*
D03*
X00353861Y00266133D02*
D03*
X00342667Y00250780D02*
D03*
X00321659Y00266098D02*
D03*
X00327255Y00273775D02*
D03*
X00332852Y00281451D02*
D03*
X00943152Y00988295D02*
D03*
X00937556Y00980619D02*
D03*
X00948749Y00995971D02*
D03*
X00969758Y00980653D02*
D03*
X00964161Y00972977D02*
D03*
X00958564Y00965301D02*
D03*
D55*
X00444387Y00286635D02*
D03*
X00456507Y00277798D02*
D03*
X00847030Y00960117D02*
D03*
X00834910Y00968954D02*
D03*
D56*
X00394810Y00243083D02*
D03*
X00403647Y00255203D02*
D03*
X00930224Y00997722D02*
D03*
X00921387Y00985601D02*
D03*
X00896607Y01003669D02*
D03*
X00887769Y00991549D02*
D03*
D57*
X00361192Y00249030D02*
D03*
X00370030Y00261150D02*
D03*
D58*
X00867704Y00184444D02*
D03*
X00872969Y00188255D02*
D03*
X00878235Y00192066D02*
D03*
X00883500Y00195878D02*
D03*
X00849728Y00242538D02*
D03*
X00844462Y00238727D02*
D03*
X00839197Y00234916D02*
D03*
X00833931Y00231104D02*
D03*
D59*
X00874207Y00236431D02*
D03*
X00879778Y00228736D02*
D03*
X00885348Y00221040D02*
D03*
X00906410Y00236285D02*
D03*
X00895269Y00251676D02*
D03*
X00900839Y00243980D02*
D03*
D60*
X00915905Y00352901D02*
D03*
X00903754Y00344106D02*
D03*
D61*
X00926193Y00360347D02*
D03*
X00938749Y00369435D02*
D03*
X00904548Y00216685D02*
D03*
X00917104Y00225773D02*
D03*
D62*
X00921054Y00295645D02*
D03*
X00929849Y00283494D02*
D03*
D63*
X00917157Y00274307D02*
D03*
X00926245Y00261751D02*
D03*
D64*
X00905006Y00265513D02*
D03*
X00913801Y00253361D02*
D03*
D65*
X00387940Y00935334D02*
D03*
X00375808Y00926512D02*
D03*
D66*
X00352999Y00909929D02*
D03*
X00365536Y00919044D02*
D03*
X00374334Y01053637D02*
D03*
X00386870Y01062752D02*
D03*
D67*
X00377697Y01026056D02*
D03*
X00386518Y01013924D02*
D03*
X00361714Y00995889D02*
D03*
X00370535Y00983757D02*
D03*
D68*
X00390638Y01035465D02*
D03*
X00396224Y01027782D02*
D03*
X00385051Y01043149D02*
D03*
X00406080Y01058439D02*
D03*
X00411666Y01050755D02*
D03*
X00417253Y01043072D02*
D03*
D69*
X00365271Y01017639D02*
D03*
X00374386Y01005103D02*
D03*
D70*
X00457518Y01048486D02*
D03*
X00452261Y01044663D02*
D03*
X00447003Y01040841D02*
D03*
X00441746Y01037018D02*
D03*
X00407873Y01083605D02*
D03*
X00413130Y01087428D02*
D03*
X00418387Y01091250D02*
D03*
X00423644Y01095073D02*
D03*
D71*
X00532496Y00190219D02*
D03*
X00538996D02*
D03*
X00545496D02*
D03*
X00551996D02*
D03*
Y00132619D02*
D03*
X00545496D02*
D03*
X00538996D02*
D03*
X00532496D02*
D03*
X00977996Y00536072D02*
D03*
X00971496D02*
D03*
X00964996D02*
D03*
X00958496D02*
D03*
Y00593672D02*
D03*
X00964996D02*
D03*
X00971496D02*
D03*
X00977996D02*
D03*
X00708714Y01072796D02*
D03*
X00702214D02*
D03*
X00695714D02*
D03*
X00689214D02*
D03*
Y01130396D02*
D03*
X00695714D02*
D03*
X00702214D02*
D03*
X00708714D02*
D03*
D72*
X00568246Y00170919D02*
D03*
Y00161419D02*
D03*
Y00151919D02*
D03*
X00594246D02*
D03*
Y00170919D02*
D03*
Y00161419D02*
D03*
X00942511Y00555372D02*
D03*
Y00564872D02*
D03*
Y00574372D02*
D03*
X00916510D02*
D03*
Y00555372D02*
D03*
Y00564872D02*
D03*
X00646964Y01101596D02*
D03*
Y01092096D02*
D03*
Y01111096D02*
D03*
X00672964D02*
D03*
Y01101596D02*
D03*
Y01092096D02*
D03*
D73*
X00683014Y00240819D02*
D03*
X00698514D02*
D03*
X00581246Y00137134D02*
D03*
X00596746D02*
D03*
X00928996Y00588419D02*
D03*
X00913496D02*
D03*
X00911957Y00684307D02*
D03*
X00927458D02*
D03*
X00885710Y00572822D02*
D03*
X00901210D02*
D03*
X00780457Y00743257D02*
D03*
X00764957D02*
D03*
X00644464Y01125881D02*
D03*
X00659964D02*
D03*
X00542697Y01022196D02*
D03*
X00558197D02*
D03*
D74*
X00670314Y00240819D02*
D03*
X00655314D02*
D03*
X00897207Y00684307D02*
D03*
X00882207D02*
D03*
X00886210Y00557822D02*
D03*
X00901210D02*
D03*
X00585897Y01022196D02*
D03*
X00570897D02*
D03*
D75*
X00640914Y00191419D02*
D03*
Y00176419D02*
D03*
X00610246D02*
D03*
Y00161419D02*
D03*
X00869010Y00634722D02*
D03*
Y00619722D02*
D03*
X00600297Y01086596D02*
D03*
Y01071596D02*
D03*
X00630964Y01101596D02*
D03*
Y01086596D02*
D03*
D76*
X00625246Y00176419D02*
D03*
Y00160919D02*
D03*
X00795208Y00728007D02*
D03*
Y00743507D02*
D03*
X00615964Y01102095D02*
D03*
Y01086596D02*
D03*
D77*
X01076890Y00697450D02*
D03*
X01074894Y00703636D02*
D03*
X01072898Y00709822D02*
D03*
X01070902Y00716008D02*
D03*
X01125719Y00733695D02*
D03*
X01127715Y00727509D02*
D03*
X01129711Y00721323D02*
D03*
X01131707Y00715137D02*
D03*
D78*
X01022658Y00398404D02*
D03*
X01024676Y00404583D02*
D03*
X01026694Y00410761D02*
D03*
X01028712Y00416940D02*
D03*
X01083465Y00399057D02*
D03*
X01081447Y00392878D02*
D03*
X01079429Y00386699D02*
D03*
X01077411Y00380520D02*
D03*
D79*
X00237784Y00838357D02*
D03*
X00235771Y00832177D02*
D03*
X00233759Y00825996D02*
D03*
X00231746Y00819816D02*
D03*
X00176977Y00837651D02*
D03*
X00178989Y00843832D02*
D03*
X00181002Y00850013D02*
D03*
X00183015Y00856193D02*
D03*
D80*
X00755707Y00890307D02*
D03*
X00775707D02*
D03*
D81*
X00986414Y00813071D02*
D03*
X00991020Y00798796D02*
D03*
D82*
X00982514Y00825157D02*
D03*
X00977755Y00839909D02*
D03*
X01112440Y00760146D02*
D03*
X01107680Y00774897D02*
D03*
D83*
X01084279Y00737399D02*
D03*
X01093320Y00740316D02*
D03*
X01102361Y00743234D02*
D03*
X01094377Y00767978D02*
D03*
X01076295Y00762143D02*
D03*
X01085336Y00765060D02*
D03*
D84*
X01042455Y00800261D02*
D03*
X01056731Y00804867D02*
D03*
D85*
X01061542Y00789957D02*
D03*
X01076293Y00794716D02*
D03*
D86*
X01066148Y00775681D02*
D03*
X01080423Y00780287D02*
D03*
D87*
X00200587Y00768702D02*
D03*
X00186324Y00773346D02*
D03*
X00205354Y00734897D02*
D03*
X00191091Y00739541D02*
D03*
D88*
X00208363Y00810341D02*
D03*
X00199329Y00813282D02*
D03*
X00190296Y00816224D02*
D03*
X00182246Y00791502D02*
D03*
X00200312Y00785618D02*
D03*
X00191279Y00788560D02*
D03*
D89*
X00172213Y00808441D02*
D03*
X00167413Y00793703D02*
D03*
X00239290Y00679569D02*
D03*
X00234490Y00664831D02*
D03*
D90*
X00195942Y00754439D02*
D03*
X00181204Y00759239D02*
D03*
D91*
X00243222Y00691645D02*
D03*
X00247867Y00705908D02*
D03*
D92*
X01088255Y00428263D02*
D03*
X01093067Y00442997D02*
D03*
X01021291Y00557193D02*
D03*
X01026103Y00571927D02*
D03*
D93*
X01052103Y00426395D02*
D03*
X01061134Y00423445D02*
D03*
X01070164Y00420496D02*
D03*
X01078237Y00445211D02*
D03*
X01060176Y00451110D02*
D03*
X01069206Y00448160D02*
D03*
D94*
X01017347Y00545121D02*
D03*
X01012690Y00530862D02*
D03*
D95*
X01059915Y00468027D02*
D03*
X01074174Y00463370D02*
D03*
D96*
X01055178Y00501836D02*
D03*
X01069437Y00497179D02*
D03*
D97*
X01064572Y00482285D02*
D03*
X01079306Y00477473D02*
D03*
D98*
X00854707Y00728307D02*
D03*
Y00748307D02*
D03*
D204*
X00904760Y00639372D02*
D03*
X00676664Y00196069D02*
D03*
X00564547Y01066945D02*
D03*
D205*
X00856143Y01008854D02*
D03*
X00435273Y00237898D02*
D03*
D206*
X01027052Y00832856D02*
D03*
D207*
X01061858Y00537263D02*
D03*
D208*
X00947287Y00320373D02*
D03*
D209*
X00233730Y00455989D02*
D03*
D210*
X00198705Y00699464D02*
D03*
D211*
X00344355Y00958972D02*
D03*
D212*
X00239402Y00464484D02*
X00255347Y00469612D01*
X00231786Y00462034D02*
X00239402Y00464484D01*
X00261630Y00471633D02*
X00272245Y00475046D01*
X00255347Y00469612D02*
X00261630Y00471633D01*
X00272245Y00475046D02*
X00274387Y00475735D01*
X00898410Y00639372D02*
X00904760D01*
X00911110Y00664122D02*
Y00684122D01*
X00869010Y00634722D02*
Y00644872D01*
X00698514Y00240819D02*
X00707364D01*
X00695714Y00220819D02*
X00704364D01*
X00670314Y00196069D02*
Y00220819D01*
X00683014D02*
Y00240819D01*
X00670314Y00196069D02*
X00676664D01*
X00670314Y00240819D02*
Y00251169D01*
X00568246Y00161419D02*
X00568496Y00161169D01*
Y00161419D02*
X00577211D01*
X00596746Y00127634D02*
Y00137134D01*
X00581246D02*
Y00157384D01*
X00577211Y00161419D02*
X00581246Y00157384D01*
X00640914Y00191419D02*
Y00201569D01*
X00670314Y00138134D02*
Y00171319D01*
X00683014Y00152134D02*
Y00171319D01*
X00697514Y00152134D02*
X00711996D01*
X00684814Y00138134D02*
X00698996D01*
X00533847Y01022196D02*
X00542697D01*
X00536847Y01042196D02*
X00545497D01*
X00570897D02*
Y01066945D01*
X00558197Y01022196D02*
Y01042196D01*
X00564547Y01066945D02*
X00570897D01*
Y01011845D02*
Y01022196D01*
X00672714Y01101846D02*
X00672964Y01101596D01*
X00663999D02*
X00672714D01*
X00644464Y01125881D02*
Y01135380D01*
X00659964Y01105630D02*
Y01125881D01*
Y01105630D02*
X00663999Y01101596D01*
X00600297Y01061445D02*
Y01071596D01*
X00570897Y01091695D02*
Y01124881D01*
X00558197Y01091695D02*
Y01110881D01*
X00529214D02*
X00543697D01*
X00542214Y01124881D02*
X00556397D01*
X00231750Y00656416D02*
X00234490Y00664831D01*
X00213661Y00665462D02*
X00216340Y00673686D01*
X00200672Y00705502D02*
X00224205Y00697838D01*
X00220273Y00685762D02*
X00239290Y00679569D01*
X00198705Y00699464D02*
X00200672Y00705502D01*
X00243222Y00691645D02*
X00253063Y00688440D01*
X00199014Y00813122D02*
X00199329Y00813282D01*
X00196553Y00804758D02*
X00199252Y00813045D01*
X00158380Y00796644D02*
X00167413Y00793703D01*
X00172213Y00808441D02*
X00191467Y00802171D01*
X00196553Y00804758D01*
X00205354Y00734897D02*
X00215005Y00731754D01*
X00145584Y00723441D02*
X00177138Y00713166D01*
X00154963Y00707030D02*
X00173205Y00701090D01*
X00145989Y00679472D02*
X00150473Y00693243D01*
X00136702Y00696169D02*
X00141094Y00709654D01*
X00386870Y01062752D02*
X00398779Y01046374D01*
X00368747Y01061320D02*
X00374334Y01053637D01*
X00370535Y00983757D02*
X00376504Y00975547D01*
X00344355Y00958972D02*
X00349491Y00962706D01*
X00336506Y00922664D02*
X00343502Y00927751D01*
X00345841Y00904724D02*
X00352999Y00909929D01*
X00353774Y00935220D02*
X00365536Y00919044D01*
X00375808Y00926512D02*
X00381894Y00918141D01*
X00292222Y00992697D02*
X00303693Y01001037D01*
X00349491Y00962706D02*
X00364046Y00942689D01*
X00315420Y01009564D02*
X00334936Y00982724D01*
X00313382Y00990772D02*
X00324664Y00975256D01*
X00289941Y00973728D02*
X00301654Y00982245D01*
X00398779Y01046374D02*
X00404415Y01045483D01*
X00411464Y01050608D01*
X00411317Y01050811D02*
X00411666Y01050755D01*
X00989938Y00297008D02*
X01001669Y00305499D01*
X00987858Y00278220D02*
X00999347Y00286536D01*
X00926193Y00360347D02*
X00937920Y00344146D01*
X00948208Y00351592D02*
X00955215Y00356664D01*
X00909837Y00361285D02*
X00915905Y00352901D01*
X00938749Y00369435D02*
X00945918Y00374624D01*
X00915102Y00303867D02*
X00921054Y00295645D01*
X00942143Y00316650D02*
X00947287Y00320373D01*
X00887040Y00233992D02*
X00892674Y00233089D01*
X00904548Y00216685D01*
X00917104Y00225773D02*
X00922674Y00218078D01*
X00879980Y00228882D02*
X00887040Y00233992D01*
X00879778Y00228736D02*
X00880127Y00228680D01*
X00927632Y00336699D02*
X00942143Y00316650D01*
X00966943Y00304047D02*
X00978192Y00288506D01*
X00956655Y00296601D02*
X00976112Y00269718D01*
X00456507Y00277798D02*
X00462605Y00286161D01*
X00479293Y00261184D02*
X00486444Y00255970D01*
X00465248Y00246673D02*
X00472237Y00241577D01*
X00454986Y00254155D02*
X00466769Y00270316D01*
X00430142Y00241639D02*
X00435273Y00237898D01*
X00414520Y00198656D02*
X00425823Y00214158D01*
X00396010Y00194826D02*
X00415561Y00221640D01*
X00407726Y00186284D02*
X00419186Y00177928D01*
X00426236Y00190114D02*
X00437938Y00181581D01*
X00430142Y00241639D02*
X00444724Y00261637D01*
X00403647Y00255203D02*
X00409627Y00263404D01*
X00323452Y00246493D02*
X00335382Y00262855D01*
X00334499Y00268493D02*
X00335382Y00262855D01*
X00330379Y00229685D02*
X00335976Y00237361D01*
X00327457Y00273627D02*
X00334499Y00268493D01*
X00327255Y00273775D02*
X00327310Y00273425D01*
X01052556Y00834413D02*
X01084138Y00844603D01*
X01048656Y00846499D02*
X01066914Y00852390D01*
X01005448Y00819212D02*
X01029002Y00826813D01*
X01093320Y00740316D02*
X01093481Y00740631D01*
X01090567Y00748848D02*
X01093243Y00740554D01*
X01107680Y00774897D02*
X01116721Y00777814D01*
X01093168Y00753927D02*
X01112440Y00760146D01*
X01090567Y00748848D02*
X01093168Y00753927D01*
X01027052Y00832856D02*
X01029002Y00826813D01*
X01032796Y00797144D02*
X01042455Y00800261D01*
X00975037Y00848331D02*
X00977755Y00839909D01*
X00976564Y00809893D02*
X00986414Y00813071D01*
X00994992Y00851617D02*
X00997648Y00843385D01*
X00982514Y00825157D02*
X01001548Y00831299D01*
X01075330Y00871900D02*
X01079685Y00858402D01*
X01058015Y00879973D02*
X01062462Y00866190D01*
X00181072Y00430493D02*
X00185415Y00416992D01*
X00198288Y00422689D02*
X00202722Y00408902D01*
X00193849Y00436493D02*
X00212113Y00442367D01*
X00176633Y00444297D02*
X00208225Y00454457D01*
X00218358Y00488599D02*
X00228021Y00491706D01*
X00167690Y00534981D02*
X00170296Y00540058D01*
X00148412Y00528781D02*
X00167690Y00534981D01*
X00144114Y00511117D02*
X00153158Y00514026D01*
X00167627Y00548354D02*
X00170296Y00540058D01*
X00167389Y00548278D02*
X00167551Y00548592D01*
X00231786Y00462034D02*
X00233730Y00455989D01*
X00259236Y00457522D02*
X00278275Y00463645D01*
X00263124Y00445432D02*
X00265772Y00437197D01*
X00283021Y00448889D02*
X00285730Y00440464D01*
X01119460Y00527023D02*
X01123863Y00540504D01*
X01110095Y00543442D02*
X01114591Y00557209D01*
X01087356Y00535615D02*
X01105593Y00529658D01*
X01083413Y00523543D02*
X01114958Y00513239D01*
X01045530Y00504987D02*
X01055178Y00501836D01*
X01063917Y00431967D02*
X01069006Y00434550D01*
X01088255Y00428263D01*
X01093067Y00442997D02*
X01102098Y00440047D01*
X01061211Y00423683D02*
X01063917Y00431967D01*
X01061134Y00423445D02*
X01061449Y00423605D01*
X01007509Y00548334D02*
X01017347Y00545121D01*
X01059886Y00531227D02*
X01061858Y00537263D01*
X01021291Y00557193D02*
X01040302Y00550984D01*
X01036359Y00538911D02*
X01059886Y00531227D01*
X01044245Y00563056D02*
X01046931Y00571278D01*
X01026103Y00571927D02*
X01028851Y00580340D01*
X00804972Y00990782D02*
X00812123Y00985568D01*
X00819180Y01005175D02*
X00826169Y01000079D01*
X00846693Y00985114D02*
X00861274Y01005113D01*
X00824648Y00976436D02*
X00836431Y00992597D01*
X00856143Y01008854D02*
X00861274Y01005113D01*
X00828812Y00960591D02*
X00834910Y00968954D01*
X00964106Y00973326D02*
X00964161Y00972977D01*
X00956917Y00978259D02*
X00963959Y00973124D01*
X00955440Y01009391D02*
X00961037Y01017067D01*
X00956034Y00983896D02*
X00967964Y01000259D01*
X00956034Y00983896D02*
X00956917Y00978259D01*
X00881790Y00983347D02*
X00887769Y00991549D01*
X00875856Y01025111D02*
X00895407Y01051926D01*
X00865594Y01032594D02*
X00876897Y01048095D01*
X00853478Y01065171D02*
X00865181Y01056638D01*
X00872231Y01068824D02*
X00883690Y01060468D01*
X00898410Y00600419D02*
Y00614622D01*
X00911110Y00600419D02*
Y00614622D01*
X00904246Y00588419D02*
X00913496D01*
X00942463Y00564919D02*
X00942511Y00564872D01*
X00933746Y00564919D02*
X00942463D01*
X00928996Y00569669D02*
Y00588419D01*
Y00569669D02*
X00933746Y00564919D01*
D213*
X00532496Y00132619D02*
Y00190219D01*
X00708714Y01072796D02*
Y01130396D01*
X00183015Y00856193D02*
X00237784Y00838357D01*
X00423644Y01095073D02*
X00457518Y01048486D01*
X00833931Y00231104D02*
X00867704Y00184444D01*
X00281401Y00271566D02*
X00315336Y00318108D01*
X01076890Y00697450D02*
X01131707Y00715137D01*
X00129188Y00573808D02*
X00184023Y00591443D01*
X01022658Y00398404D02*
X01077411Y00380520D01*
X00976080Y00928644D02*
X01010015Y00975186D01*
X00977996Y00536072D02*
Y00593672D01*
D214*
X00960246Y00609169D02*
Y00619169D01*
Y00633669D02*
Y00647169D01*
X00974246Y00633669D02*
Y00647169D01*
Y00608669D02*
Y00609169D01*
Y00619169D01*
D215*
X00847246Y00590619D02*
D03*
X00918496Y00723719D02*
D03*
X00878996Y00748307D02*
D03*
D216*
X00847246Y00565219D02*
D03*
X00918496Y00749119D02*
D03*
X00878996Y00722907D02*
D03*
D217*
X00621870Y01185130D02*
D03*
X00598870D02*
D03*
X00644870D02*
D03*
X00619341Y00077884D02*
D03*
X00596341D02*
D03*
X00642341D02*
D03*
D218*
X00302614Y01074745D02*
D03*
X00339818Y01101797D02*
D03*
X00321216Y01088271D02*
D03*
D219*
X00111201Y00812435D02*
D03*
X00096957Y00768696D02*
D03*
X00104079Y00790565D02*
D03*
D220*
X00110712Y00452481D02*
D03*
X00096629Y00496272D02*
D03*
X00103671Y00474376D02*
D03*
D221*
X00319326Y00176174D02*
D03*
X00337910Y00162624D02*
D03*
X00300741Y00189725D02*
D03*
D222*
X00970147Y00191025D02*
D03*
X00988778Y00204510D02*
D03*
X00951515Y00177539D02*
D03*
D223*
X01156404Y00446079D02*
D03*
X01149263Y00424216D02*
D03*
X01163545Y00467942D02*
D03*
D224*
X01157129Y00814594D02*
D03*
X01150066Y00836482D02*
D03*
X01164192Y00792705D02*
D03*
D225*
X00972091Y01070577D02*
D03*
X00990675Y01057027D02*
D03*
X00953506Y01084128D02*
D03*
D226*
X00073346Y00697905D02*
D03*
X00073339Y00567501D02*
D03*
X00133826Y00883228D02*
D03*
X00242784Y01031171D02*
D03*
X00400291Y01145631D02*
D03*
X00524171Y01185490D02*
D03*
X00719166Y01185064D02*
D03*
X00893646Y01128282D02*
D03*
X01051152Y01013320D02*
D03*
X01127202Y00907387D02*
D03*
X01187056Y00721800D02*
D03*
X01187114Y00538740D02*
D03*
X01126455Y00353416D02*
D03*
X01049071Y00247924D02*
D03*
X00891068Y00133651D02*
D03*
X00717040Y00077525D02*
D03*
X00522134Y00077885D02*
D03*
X00397752Y00118457D02*
D03*
X00240246Y00233419D02*
D03*
X00133193Y00381302D02*
D03*
D227*
X00448246Y00831019D02*
D03*
D228*
Y00805619D02*
D03*
Y00373819D02*
D03*
Y00780219D02*
D03*
Y00754819D02*
D03*
Y00729419D02*
D03*
Y00704019D02*
D03*
Y00678619D02*
D03*
Y00653219D02*
D03*
Y00627819D02*
D03*
Y00602419D02*
D03*
Y00577019D02*
D03*
Y00551619D02*
D03*
Y00526219D02*
D03*
Y00500819D02*
D03*
Y00475419D02*
D03*
Y00450019D02*
D03*
Y00424619D02*
D03*
Y00399219D02*
D03*
X00702246Y00831019D02*
D03*
Y00805619D02*
D03*
Y00780219D02*
D03*
Y00754819D02*
D03*
Y00729419D02*
D03*
Y00704019D02*
D03*
Y00678619D02*
D03*
Y00653219D02*
D03*
Y00627819D02*
D03*
Y00602419D02*
D03*
Y00577019D02*
D03*
Y00551619D02*
D03*
Y00526219D02*
D03*
Y00500819D02*
D03*
Y00475419D02*
D03*
Y00450019D02*
D03*
Y00424619D02*
D03*
Y00399219D02*
D03*
Y00373819D02*
D03*
D229*
X00915760Y00632372D02*
D03*
X00904760Y00639372D02*
D03*
X00915760Y00647372D02*
D03*
X00893260D02*
D03*
Y00632372D02*
D03*
X00869010Y00644872D02*
D03*
X00790707Y00754307D02*
D03*
X00800707D02*
D03*
X00790169Y00900419D02*
D03*
Y00890419D02*
D03*
Y00880419D02*
D03*
X00800169Y00900419D02*
D03*
Y00890419D02*
D03*
Y00880419D02*
D03*
Y00870419D02*
D03*
X00790169D02*
D03*
X00780707Y00754307D02*
D03*
X00770707D02*
D03*
X00812407Y00728307D02*
D03*
X00822407D02*
D03*
X00842407D02*
D03*
X00832407D02*
D03*
X00812407Y00718307D02*
D03*
X00822407D02*
D03*
X00832407D02*
D03*
X00640914Y00201569D02*
D03*
X00665164Y00189069D02*
D03*
X00707364Y00240819D02*
D03*
X00704364Y00220819D02*
D03*
X00687664Y00189069D02*
D03*
X00676664Y00196069D02*
D03*
X00687664Y00204069D02*
D03*
X00665164D02*
D03*
X00670314Y00251169D02*
D03*
X00596746Y00127634D02*
D03*
X00542246Y00147104D02*
D03*
Y00157104D02*
D03*
X00610246Y00197419D02*
D03*
Y00187419D02*
D03*
X00600246D02*
D03*
X00590246D02*
D03*
X00600246Y00197419D02*
D03*
X00590246D02*
D03*
X00600297Y01061445D02*
D03*
X00576047Y01073946D02*
D03*
X00533847Y01022196D02*
D03*
X00536847Y01042196D02*
D03*
X00553547Y01073946D02*
D03*
X00564547Y01066946D02*
D03*
X00553547Y01058946D02*
D03*
X00576047D02*
D03*
X00570897Y01011845D02*
D03*
X00644464Y01135380D02*
D03*
X00698964Y01115911D02*
D03*
Y01105911D02*
D03*
X00630964Y01065596D02*
D03*
Y01075596D02*
D03*
X00640964D02*
D03*
X00650964D02*
D03*
X00640964Y01065596D02*
D03*
X00650964D02*
D03*
X00215005Y00731754D02*
D03*
X00195610Y00712566D02*
D03*
X00231750Y00656416D02*
D03*
X00213661Y00665462D02*
D03*
X00188643Y00691172D02*
D03*
X00198705Y00699464D02*
D03*
X00202906Y00686527D02*
D03*
X00209873Y00707922D02*
D03*
X00253063Y00688440D02*
D03*
X00158380Y00796644D02*
D03*
X00193769Y00842437D02*
D03*
X00203277Y00839341D02*
D03*
X00220555Y00762199D02*
D03*
X00211046Y00765296D02*
D03*
X00214143Y00774804D02*
D03*
X00217239Y00784313D02*
D03*
X00223651Y00771708D02*
D03*
X00226748Y00781216D02*
D03*
X00430158Y01069536D02*
D03*
X00424277Y01077624D02*
D03*
X00368747Y01061320D02*
D03*
X00336506Y00922664D02*
D03*
X00345841Y00904724D02*
D03*
X00381894Y00918141D02*
D03*
X00415044Y01008701D02*
D03*
X00406956Y01002820D02*
D03*
X00409163Y01016789D02*
D03*
X00401075Y01010908D02*
D03*
X00392987Y01005027D02*
D03*
X00398868Y00996939D02*
D03*
X00358361Y00959265D02*
D03*
X00340163Y00946033D02*
D03*
X00344355Y00958972D02*
D03*
X00349540Y00971397D02*
D03*
X00376504Y00975547D02*
D03*
X00331342Y00958165D02*
D03*
X00876491Y00270798D02*
D03*
X00884592Y00276661D02*
D03*
X00882355Y00262697D02*
D03*
X00890455Y00268560D02*
D03*
X00898556Y00274423D02*
D03*
X00892693Y00282524D02*
D03*
X00861246Y00209995D02*
D03*
X00867109Y00201895D02*
D03*
X00922674Y00218078D02*
D03*
X00915102Y00303867D02*
D03*
X00933281Y00320111D02*
D03*
X00951507Y00333303D02*
D03*
X00947287Y00320373D02*
D03*
X00960302Y00321152D02*
D03*
X00955215Y00356664D02*
D03*
X00945918Y00374624D02*
D03*
X00909837Y00361285D02*
D03*
X00942076Y00307960D02*
D03*
X00297813Y00277526D02*
D03*
X00330379Y00229685D02*
D03*
X00303705Y00285606D02*
D03*
X00368430Y00275930D02*
D03*
X00376510Y00270039D02*
D03*
X00360350Y00281822D02*
D03*
X00382402Y00278119D02*
D03*
X00374322Y00284010D02*
D03*
X00366241Y00289902D02*
D03*
X00430694Y00251137D02*
D03*
X00409627Y00263404D02*
D03*
X00462605Y00286161D02*
D03*
X00435273Y00237898D02*
D03*
X00440037Y00225761D02*
D03*
X00448875Y00237881D02*
D03*
X00472237Y00241577D02*
D03*
X00486444Y00255970D02*
D03*
X00421857Y00239017D02*
D03*
X01037245Y00824061D02*
D03*
X00976564Y00809893D02*
D03*
X00975037Y00848331D02*
D03*
X00994992Y00851617D02*
D03*
X01030336Y00845474D02*
D03*
X01027052Y00832856D02*
D03*
X01016061Y00840868D02*
D03*
X01022970Y00819455D02*
D03*
X01032796Y00797144D02*
D03*
X01116721Y00777814D02*
D03*
X01114928Y00719968D02*
D03*
X01105411Y00716898D02*
D03*
X01046162Y00769233D02*
D03*
X01055679Y00772303D02*
D03*
X01058750Y00762786D02*
D03*
X01061821Y00753270D02*
D03*
X01049233Y00759716D02*
D03*
X01052304Y00750199D02*
D03*
X00208558Y00538670D02*
D03*
X00211619Y00529151D02*
D03*
X00199038Y00535609D02*
D03*
X00202099Y00526089D02*
D03*
X00205161Y00516569D02*
D03*
X00214681Y00519631D02*
D03*
X00155483Y00572023D02*
D03*
X00145963Y00568961D02*
D03*
X00144114Y00511117D02*
D03*
X00237825Y00469386D02*
D03*
X00244714Y00447967D02*
D03*
X00233730Y00455989D02*
D03*
X00230434Y00443374D02*
D03*
X00265772Y00437197D02*
D03*
X00285730Y00440464D02*
D03*
X00223545Y00464794D02*
D03*
X00228021Y00491706D02*
D03*
X01033744Y00455535D02*
D03*
X01036848Y00465041D02*
D03*
X01043249Y00452430D02*
D03*
X01046354Y00461936D02*
D03*
X01049459Y00471442D02*
D03*
X01039953Y00474547D02*
D03*
X01057163Y00397391D02*
D03*
X01066669Y00394286D02*
D03*
X01102098Y00440047D02*
D03*
X01007509Y00548334D02*
D03*
X01050682Y00528815D02*
D03*
X01057668Y00550203D02*
D03*
X01061858Y00537263D02*
D03*
X01071927Y00545546D02*
D03*
X01046931Y00571278D02*
D03*
X01028851Y00580340D02*
D03*
X01064941Y00524158D02*
D03*
X01045530Y00504987D02*
D03*
X00881790Y00983347D02*
D03*
X00869560Y01007735D02*
D03*
X00804972Y00990782D02*
D03*
X00819180Y01005175D02*
D03*
X00851379Y01020991D02*
D03*
X00856143Y01008854D02*
D03*
X00842542Y01008870D02*
D03*
X00860722Y00995614D02*
D03*
X00828812Y00960591D02*
D03*
X00961037Y01017067D02*
D03*
X00993603Y00969226D02*
D03*
X00987712Y00961146D02*
D03*
X00909015Y00968633D02*
D03*
X00914906Y00976713D02*
D03*
X00922986Y00970822D02*
D03*
X00931067Y00964930D02*
D03*
X00917095Y00962741D02*
D03*
X00925175Y00956850D02*
D03*
X00898410Y00600419D02*
D03*
X00911110D02*
D03*
X00904246Y00588419D02*
D03*
X00968246Y00569187D02*
D03*
Y00579187D02*
D03*
X00960246Y00609169D02*
D03*
X00974246D02*
D03*
M02*
