%TF.GenerationSoftware,Altium Limited,Altium Designer,23.3.1 (30)*%
G04 Layer_Color=8388736*
%FSLAX45Y45*%
%MOMM*%
%TF.SameCoordinates,30647D46-07CB-4458-BA05-9B6BD05E8BF5*%
%TF.FilePolarity,Negative*%
%TF.FileFunction,Soldermask,Top*%
%TF.Part,Single*%
G01*
G75*
%TA.AperFunction,SMDPad,CuDef*%
%ADD47R,1.34000X2.83000*%
G04:AMPARAMS|DCode=48|XSize=1.47mm|YSize=0.69mm|CornerRadius=0.1975mm|HoleSize=0mm|Usage=FLASHONLY|Rotation=180.000|XOffset=0mm|YOffset=0mm|HoleType=Round|Shape=RoundedRectangle|*
%AMROUNDEDRECTD48*
21,1,1.47000,0.29500,0,0,180.0*
21,1,1.07500,0.69000,0,0,180.0*
1,1,0.39500,-0.53750,0.14750*
1,1,0.39500,0.53750,0.14750*
1,1,0.39500,0.53750,-0.14750*
1,1,0.39500,-0.53750,-0.14750*
%
%ADD48ROUNDEDRECTD48*%
%ADD49R,0.60000X0.80000*%
%ADD50R,0.65000X1.30000*%
%ADD51R,1.00000X1.00000*%
G04:AMPARAMS|DCode=52|XSize=1.47mm|YSize=0.69mm|CornerRadius=0.1975mm|HoleSize=0mm|Usage=FLASHONLY|Rotation=270.000|XOffset=0mm|YOffset=0mm|HoleType=Round|Shape=RoundedRectangle|*
%AMROUNDEDRECTD52*
21,1,1.47000,0.29500,0,0,270.0*
21,1,1.07500,0.69000,0,0,270.0*
1,1,0.39500,-0.14750,-0.53750*
1,1,0.39500,-0.14750,0.53750*
1,1,0.39500,0.14750,0.53750*
1,1,0.39500,0.14750,-0.53750*
%
%ADD52ROUNDEDRECTD52*%
%ADD53R,2.51300X3.40200*%
G04:AMPARAMS|DCode=54|XSize=2.07mm|YSize=0.7mm|CornerRadius=0.125mm|HoleSize=0mm|Usage=FLASHONLY|Rotation=180.000|XOffset=0mm|YOffset=0mm|HoleType=Round|Shape=RoundedRectangle|*
%AMROUNDEDRECTD54*
21,1,2.07000,0.45000,0,0,180.0*
21,1,1.82000,0.70000,0,0,180.0*
1,1,0.25000,-0.91000,0.22500*
1,1,0.25000,0.91000,0.22500*
1,1,0.25000,0.91000,-0.22500*
1,1,0.25000,-0.91000,-0.22500*
%
%ADD54ROUNDEDRECTD54*%
%ADD55R,1.20000X1.10000*%
%ADD56R,1.00000X1.00000*%
%ADD57R,0.80000X0.60000*%
%ADD58R,1.10000X1.20000*%
%ADD59R,1.30000X0.65000*%
%ADD60R,3.40200X2.51300*%
G04:AMPARAMS|DCode=61|XSize=2.07mm|YSize=0.7mm|CornerRadius=0.125mm|HoleSize=0mm|Usage=FLASHONLY|Rotation=270.000|XOffset=0mm|YOffset=0mm|HoleType=Round|Shape=RoundedRectangle|*
%AMROUNDEDRECTD61*
21,1,2.07000,0.45000,0,0,270.0*
21,1,1.82000,0.70000,0,0,270.0*
1,1,0.25000,-0.22500,-0.91000*
1,1,0.25000,-0.22500,0.91000*
1,1,0.25000,0.22500,0.91000*
1,1,0.25000,0.22500,-0.91000*
%
%ADD61ROUNDEDRECTD61*%
%ADD62R,2.83000X1.34000*%
%TA.AperFunction,ComponentPad*%
%ADD63C,1.63000*%
%ADD64R,1.63000X1.63000*%
%ADD65R,1.63000X1.63000*%
%ADD66P,2.30517X4X350.0*%
%ADD67P,2.30517X4X387.0*%
%ADD68P,2.30517X4X61.0*%
%ADD69P,2.30517X4X99.0*%
%ADD70P,2.30517X4X171.0*%
%ADD71P,2.30517X4X242.0*%
%ADD72P,2.30517X4X278.0*%
%TA.AperFunction,ViaPad*%
%ADD73C,0.10000*%
%TA.AperFunction,ComponentPad*%
%ADD74P,2.30517X4X312.0*%
%ADD75C,1.66000*%
%ADD76R,1.66000X1.66000*%
G36*
X6450000Y5170000D02*
X6340000D01*
Y5290000D01*
X6450000D01*
Y5340000D01*
X6570000D01*
Y5120000D01*
X6450000D01*
Y5170000D01*
D02*
G37*
G36*
X6680000Y5340000D02*
X6800000D01*
Y5290000D01*
X6910000D01*
Y5170000D01*
X6800000D01*
Y5120000D01*
X6680000D01*
Y5340000D01*
D02*
G37*
D47*
X7518500Y4585000D02*
D03*
X7221500D02*
D03*
D48*
X6732000Y4997500D02*
D03*
Y4902500D02*
D03*
Y4807500D02*
D03*
X6498000D02*
D03*
Y4902500D02*
D03*
Y4997500D02*
D03*
X2931000Y-1005500D02*
D03*
Y-910500D02*
D03*
Y-815500D02*
D03*
X3165000D02*
D03*
Y-910500D02*
D03*
Y-1005500D02*
D03*
X6218550Y-430000D02*
D03*
Y-335000D02*
D03*
Y-240000D02*
D03*
X6452550D02*
D03*
Y-335000D02*
D03*
Y-430000D02*
D03*
X5678170Y9069070D02*
D03*
Y8974070D02*
D03*
Y8879070D02*
D03*
X5444170D02*
D03*
Y8974070D02*
D03*
Y9069070D02*
D03*
X2393500Y9768979D02*
D03*
Y9673979D02*
D03*
Y9578979D02*
D03*
X2159500D02*
D03*
Y9673979D02*
D03*
Y9768979D02*
D03*
X264092Y7359350D02*
D03*
Y7264350D02*
D03*
Y7169350D02*
D03*
X30092D02*
D03*
Y7264350D02*
D03*
Y7359350D02*
D03*
D49*
X6367500Y5000000D02*
D03*
Y4890000D02*
D03*
D50*
X6312500Y3472500D02*
D03*
X6407500D02*
D03*
X6502500D02*
D03*
Y3732500D02*
D03*
X6312500D02*
D03*
X6407500D02*
D03*
X-1171750Y4320750D02*
D03*
X-1076750D02*
D03*
X-981750D02*
D03*
Y4580750D02*
D03*
X-1171750D02*
D03*
X-1076750D02*
D03*
X257796Y1577500D02*
D03*
X352796D02*
D03*
X447796D02*
D03*
Y1837499D02*
D03*
X257796D02*
D03*
X352796D02*
D03*
X8777499Y1320000D02*
D03*
X8682499D02*
D03*
X8587499D02*
D03*
Y1060000D02*
D03*
X8777499D02*
D03*
X8682499D02*
D03*
X9312500Y4330000D02*
D03*
X9217500D02*
D03*
X9122500D02*
D03*
Y4070000D02*
D03*
X9312500D02*
D03*
X9217500D02*
D03*
X8789427Y7127898D02*
D03*
X8694427D02*
D03*
X8599427D02*
D03*
Y6867898D02*
D03*
X8789427D02*
D03*
X8694427D02*
D03*
D51*
X6637500Y3437500D02*
D03*
Y3292500D02*
D03*
X7352500Y3762500D02*
D03*
Y3617500D02*
D03*
X6492500Y4020000D02*
D03*
Y3875000D02*
D03*
X-846750Y4285750D02*
D03*
Y4140750D02*
D03*
X-131750Y4610750D02*
D03*
Y4465750D02*
D03*
X-991750Y4868250D02*
D03*
Y4723250D02*
D03*
X582796Y1542500D02*
D03*
Y1397500D02*
D03*
X1297796Y1867500D02*
D03*
Y1722500D02*
D03*
X437796Y2125000D02*
D03*
Y1980000D02*
D03*
X8452499Y1355000D02*
D03*
Y1500000D02*
D03*
X8597499Y772500D02*
D03*
Y917500D02*
D03*
X7737499Y1030000D02*
D03*
Y1175000D02*
D03*
X8272500Y4040000D02*
D03*
Y4185000D02*
D03*
X9132500Y3782500D02*
D03*
Y3927500D02*
D03*
X8987500Y4365000D02*
D03*
Y4510000D02*
D03*
X8609427Y6580398D02*
D03*
Y6725398D02*
D03*
X7749427Y6837898D02*
D03*
Y6982898D02*
D03*
X8464427Y7162898D02*
D03*
Y7307898D02*
D03*
D52*
X6312500Y3307000D02*
D03*
X6407500D02*
D03*
X6502500D02*
D03*
Y3073000D02*
D03*
X6407500D02*
D03*
X6312500D02*
D03*
X-1171750Y4155250D02*
D03*
X-1076750D02*
D03*
X-981750D02*
D03*
Y3921250D02*
D03*
X-1076750D02*
D03*
X-1171750D02*
D03*
X257796Y1412000D02*
D03*
X352796D02*
D03*
X447796D02*
D03*
Y1178000D02*
D03*
X352796D02*
D03*
X257796D02*
D03*
X8777499Y1485500D02*
D03*
X8682499D02*
D03*
X8587499D02*
D03*
Y1719500D02*
D03*
X8682499D02*
D03*
X8777499D02*
D03*
X9312500Y4495500D02*
D03*
X9217500D02*
D03*
X9122500D02*
D03*
Y4729500D02*
D03*
X9217500D02*
D03*
X9312500D02*
D03*
X8789427Y7293398D02*
D03*
X8694427D02*
D03*
X8599427D02*
D03*
Y7527398D02*
D03*
X8694427D02*
D03*
X8789427D02*
D03*
D53*
X6912500Y3830000D02*
D03*
X-571750Y4678250D02*
D03*
X857796Y1935000D02*
D03*
X8177499Y962500D02*
D03*
X8712500Y3972500D02*
D03*
X8189427Y6770398D02*
D03*
D54*
X6665000Y3639500D02*
D03*
Y3766500D02*
D03*
Y3893500D02*
D03*
Y4020500D02*
D03*
X7160000D02*
D03*
Y3893500D02*
D03*
Y3766500D02*
D03*
Y3639500D02*
D03*
X-819250Y4487750D02*
D03*
Y4614750D02*
D03*
Y4741750D02*
D03*
Y4868750D02*
D03*
X-324250D02*
D03*
Y4741750D02*
D03*
Y4614750D02*
D03*
Y4487750D02*
D03*
X610296Y1744500D02*
D03*
Y1871500D02*
D03*
Y1998500D02*
D03*
Y2125500D02*
D03*
X1105296D02*
D03*
Y1998500D02*
D03*
Y1871500D02*
D03*
Y1744500D02*
D03*
X8424999Y1153000D02*
D03*
Y1026000D02*
D03*
Y899000D02*
D03*
Y772000D02*
D03*
X7929999D02*
D03*
Y899000D02*
D03*
Y1026000D02*
D03*
Y1153000D02*
D03*
X8960000Y4163000D02*
D03*
Y4036000D02*
D03*
Y3909000D02*
D03*
Y3782000D02*
D03*
X8465000D02*
D03*
Y3909000D02*
D03*
Y4036000D02*
D03*
Y4163000D02*
D03*
X8436927Y6960898D02*
D03*
Y6833898D02*
D03*
Y6706898D02*
D03*
Y6579898D02*
D03*
X7941927D02*
D03*
Y6706898D02*
D03*
Y6833898D02*
D03*
Y6960898D02*
D03*
D55*
X6175000Y4020000D02*
D03*
X6345000D02*
D03*
X6832500Y4187500D02*
D03*
X6662500D02*
D03*
X-651750Y5035750D02*
D03*
X-821750D02*
D03*
X-1306750Y4745750D02*
D03*
X-1136750D02*
D03*
X777796Y2292500D02*
D03*
X607796D02*
D03*
X122796Y2002500D02*
D03*
X292796D02*
D03*
X2345500Y42000D02*
D03*
X2175500D02*
D03*
X2180180Y-970320D02*
D03*
X2350180D02*
D03*
X5633050Y617500D02*
D03*
X5463050D02*
D03*
X8257499Y605000D02*
D03*
X8427500D02*
D03*
X8792500Y3615000D02*
D03*
X8962500D02*
D03*
X9447500Y3905000D02*
D03*
X9277500D02*
D03*
X8924427Y6702898D02*
D03*
X8754427D02*
D03*
X8269427Y6412898D02*
D03*
X8439427D02*
D03*
X6263670Y8021570D02*
D03*
X6433670D02*
D03*
X2979000Y8721479D02*
D03*
X3149000D02*
D03*
X849592Y6311850D02*
D03*
X1019592D02*
D03*
D56*
X6462500Y4657500D02*
D03*
X6607500D02*
D03*
Y4517500D02*
D03*
X6462500D02*
D03*
X2800500Y-680500D02*
D03*
X2945500D02*
D03*
X2475500Y34500D02*
D03*
X2620500D02*
D03*
X2218000Y-825500D02*
D03*
X2363000D02*
D03*
X6088050Y-105000D02*
D03*
X6233050D02*
D03*
X5505550Y-250000D02*
D03*
X5650550D02*
D03*
X5763050Y610000D02*
D03*
X5908050D02*
D03*
X5808670Y8744070D02*
D03*
X5663670D02*
D03*
X6133670Y8029070D02*
D03*
X5988670D02*
D03*
X6391170Y8889070D02*
D03*
X6246170D02*
D03*
X2849000Y8728979D02*
D03*
X2704000D02*
D03*
X3106500Y9588979D02*
D03*
X2961500D02*
D03*
X2524000Y9443979D02*
D03*
X2379000D02*
D03*
X394592Y7034350D02*
D03*
X249592D02*
D03*
X719592Y6319350D02*
D03*
X574592D02*
D03*
X977092Y7179350D02*
D03*
X832092D02*
D03*
D57*
X6662500Y4317500D02*
D03*
X6772500D02*
D03*
D58*
X7360000Y3892500D02*
D03*
Y4062500D02*
D03*
X-124250Y4740750D02*
D03*
Y4910750D02*
D03*
X1305296Y1997499D02*
D03*
Y2167500D02*
D03*
X2050500Y-485500D02*
D03*
Y-655500D02*
D03*
X5628050Y-565000D02*
D03*
Y-395000D02*
D03*
X5338050Y90000D02*
D03*
Y-80000D02*
D03*
X8749499Y719250D02*
D03*
Y889250D02*
D03*
X7729999Y900000D02*
D03*
Y730000D02*
D03*
X8265000Y3910000D02*
D03*
Y3740000D02*
D03*
X7741927Y6707898D02*
D03*
Y6537898D02*
D03*
X6558670Y8549070D02*
D03*
Y8719070D02*
D03*
X6268670Y9204070D02*
D03*
Y9034070D02*
D03*
X3274000Y9248979D02*
D03*
Y9418979D02*
D03*
X2984000Y9903979D02*
D03*
Y9733979D02*
D03*
X1144842Y6839100D02*
D03*
Y7009100D02*
D03*
X853342Y7493100D02*
D03*
Y7323100D02*
D03*
D59*
X2765500Y-1005500D02*
D03*
Y-910500D02*
D03*
Y-815500D02*
D03*
X2505500D02*
D03*
Y-1005500D02*
D03*
Y-910500D02*
D03*
X6053050Y-430000D02*
D03*
Y-335000D02*
D03*
Y-240000D02*
D03*
X5793050D02*
D03*
Y-430000D02*
D03*
Y-335000D02*
D03*
X5843670Y9069070D02*
D03*
Y8974070D02*
D03*
Y8879070D02*
D03*
X6103670D02*
D03*
Y9069070D02*
D03*
Y8974070D02*
D03*
X2559000Y9768979D02*
D03*
Y9673979D02*
D03*
Y9578979D02*
D03*
X2819000D02*
D03*
Y9768979D02*
D03*
Y9673979D02*
D03*
X429592Y7359350D02*
D03*
Y7264350D02*
D03*
Y7169350D02*
D03*
X689592D02*
D03*
Y7359350D02*
D03*
Y7264350D02*
D03*
D60*
X2408000Y-405500D02*
D03*
X5695550Y170000D02*
D03*
X6201170Y8469070D02*
D03*
X787092Y6759350D02*
D03*
X2916500Y9168979D02*
D03*
D61*
X2598500Y-653000D02*
D03*
X2471500D02*
D03*
X2344500D02*
D03*
X2217500D02*
D03*
Y-158000D02*
D03*
X2344500D02*
D03*
X2471500D02*
D03*
X2598500D02*
D03*
X5886050Y-77500D02*
D03*
X5759050D02*
D03*
X5632050D02*
D03*
X5505050D02*
D03*
Y417500D02*
D03*
X5632050D02*
D03*
X5759050D02*
D03*
X5886050D02*
D03*
X6010670Y8716570D02*
D03*
X6137670D02*
D03*
X6264670D02*
D03*
X6391670D02*
D03*
Y8221570D02*
D03*
X6264670D02*
D03*
X6137670D02*
D03*
X6010670D02*
D03*
X596592Y7006850D02*
D03*
X723592D02*
D03*
X850592D02*
D03*
X977592D02*
D03*
Y6511850D02*
D03*
X850592D02*
D03*
X723592D02*
D03*
X596592D02*
D03*
X2726000Y8921479D02*
D03*
X2853000D02*
D03*
X2980000D02*
D03*
X3107000D02*
D03*
Y9416479D02*
D03*
X2980000D02*
D03*
X2853000D02*
D03*
X2726000D02*
D03*
D62*
X6225000Y4741000D02*
D03*
Y4444000D02*
D03*
D63*
X6970000Y4543000D02*
D03*
X6080000Y3255000D02*
D03*
X7437000Y4250000D02*
D03*
X-227156Y1125968D02*
D03*
X2610464Y-1453565D02*
D03*
X6302080Y-984994D02*
D03*
X9276648Y902245D02*
D03*
X9077278Y7934643D02*
D03*
X5969216Y9709245D02*
D03*
X2308549Y10142869D02*
D03*
X-156431Y7658573D02*
D03*
X9743150Y4369499D02*
D03*
X-1767543Y4158598D02*
D03*
D64*
X6970000Y4797000D02*
D03*
X6080000Y3509000D02*
D03*
X9743150Y4115500D02*
D03*
D65*
X7183000Y4250000D02*
D03*
D66*
X-372844Y1334032D02*
D03*
D67*
X2368895Y-1375075D02*
D03*
X6210784Y9630755D02*
D03*
D68*
X6057920Y-1055006D02*
D03*
D69*
X9127350Y696755D02*
D03*
D70*
X9226576Y7729153D02*
D03*
D71*
X2551451Y10217131D02*
D03*
D72*
X-3569Y7861426D02*
D03*
D73*
X8477649Y8852504D02*
D03*
X9857414Y6917542D02*
D03*
X9867888Y1756834D02*
D03*
X8473475Y-142354D02*
D03*
X3565138Y-1745027D02*
D03*
X1327268Y-1004420D02*
D03*
X-1712850Y3171103D02*
D03*
X-1700438Y5529511D02*
D03*
X1318598Y9727143D02*
D03*
X3565217Y10442613D02*
D03*
D74*
X-1754249Y4412250D02*
D03*
D75*
X5632500Y1781500D02*
D03*
Y2035500D02*
D03*
Y2289500D02*
D03*
Y2543500D02*
D03*
Y2797500D02*
D03*
Y3051500D02*
D03*
Y3305500D02*
D03*
Y3559500D02*
D03*
Y3813500D02*
D03*
Y4067500D02*
D03*
Y4321500D02*
D03*
Y4575500D02*
D03*
Y4829500D02*
D03*
Y5083500D02*
D03*
Y5337500D02*
D03*
Y5591500D02*
D03*
Y5845500D02*
D03*
Y6099500D02*
D03*
Y6353500D02*
D03*
X3092500Y2035500D02*
D03*
Y2289500D02*
D03*
Y2543500D02*
D03*
Y2797500D02*
D03*
Y3051500D02*
D03*
Y3305500D02*
D03*
Y3559500D02*
D03*
Y3813500D02*
D03*
Y4067500D02*
D03*
Y4321500D02*
D03*
Y4575500D02*
D03*
Y4829500D02*
D03*
Y5083500D02*
D03*
Y5337500D02*
D03*
Y5591500D02*
D03*
Y5845500D02*
D03*
Y1781500D02*
D03*
Y6099500D02*
D03*
D76*
Y6353500D02*
D03*
%TF.MD5,6f738ba0dacb682848bba1703b661287*%
M02*
