%TF.GenerationSoftware,Altium Limited,Altium Designer,23.3.1 (30)*%
G04 Layer_Color=0*
%FSLAX45Y45*%
%MOMM*%
%TF.SameCoordinates,30647D46-07CB-4458-BA05-9B6BD05E8BF5*%
%TF.FilePolarity,Positive*%
%TF.FileFunction,Plated,1,2,PTH,Drill*%
%TF.Part,Single*%
G01*
G75*
%TA.AperFunction,ComponentDrill*%
%ADD78C,1.02000*%
%ADD79C,1.02000*%
%ADD80C,1.02000*%
%ADD81C,1.02000*%
%ADD82C,1.02000*%
%ADD83C,1.02000*%
%ADD84C,1.02000*%
%ADD85C,1.02000*%
%ADD86C,1.02000*%
%TA.AperFunction,OtherDrill,Pad Free-16 (84.776mm,88.525mm)*%
%ADD87C,9.00000*%
%TA.AperFunction,OtherDrill,Pad Free-17 (98.574mm,69.175mm)*%
%ADD88C,9.00000*%
%TA.AperFunction,OtherDrill,Pad Free-18 (98.679mm,17.568mm)*%
%ADD89C,9.00000*%
%TA.AperFunction,OtherDrill,Pad Free-19 (84.735mm,-1.424mm)*%
%ADD90C,9.00000*%
%TA.AperFunction,OtherDrill,Pad Free-20 (35.651mm,-17.45mm)*%
%ADD91C,9.00000*%
%TA.AperFunction,OtherDrill,Pad Free-21 (13.273mm,-10.044mm)*%
%ADD92C,9.00000*%
%TA.AperFunction,OtherDrill,Pad Free-22 (-17.129mm,31.711mm)*%
%ADD93C,9.00000*%
%TA.AperFunction,OtherDrill,Pad Free-23 (-17.004mm,55.295mm)*%
%ADD94C,9.00000*%
%TA.AperFunction,OtherDrill,Pad Free-22 (13.186mm,97.271mm)*%
%ADD95C,9.00000*%
%TA.AperFunction,OtherDrill,Pad Free-22 (35.652mm,104.426mm)*%
%ADD96C,9.00000*%
%TA.AperFunction,ComponentDrill*%
%ADD97C,1.02000*%
%ADD98C,1.04000*%
%TA.AperFunction,ViaDrill,NotFilled*%
%ADD99C,0.40000*%
D78*
X6970000Y4543000D02*
D03*
Y4797000D02*
D03*
X6080000Y3255000D02*
D03*
Y3509000D02*
D03*
X9743150Y4115500D02*
D03*
Y4369499D02*
D03*
D79*
X7437000Y4250000D02*
D03*
X7183000D02*
D03*
D80*
X-227156Y1125968D02*
D03*
X-372844Y1334032D02*
D03*
D81*
X2610464Y-1453565D02*
D03*
X2368895Y-1375075D02*
D03*
X5969216Y9709245D02*
D03*
X6210784Y9630755D02*
D03*
D82*
X6302080Y-984994D02*
D03*
X6057920Y-1055006D02*
D03*
D83*
X9276648Y902245D02*
D03*
X9127350Y696755D02*
D03*
D84*
X9077278Y7934643D02*
D03*
X9226576Y7729153D02*
D03*
D85*
X2308549Y10142869D02*
D03*
X2551451Y10217131D02*
D03*
D86*
X-156431Y7658573D02*
D03*
X-3569Y7861426D02*
D03*
D87*
X8477649Y8852504D02*
D03*
D88*
X9857414Y6917542D02*
D03*
D89*
X9867888Y1756834D02*
D03*
D90*
X8473475Y-142354D02*
D03*
D91*
X3565138Y-1745027D02*
D03*
D92*
X1327268Y-1004420D02*
D03*
D93*
X-1712850Y3171103D02*
D03*
D94*
X-1700438Y5529511D02*
D03*
D95*
X1318598Y9727143D02*
D03*
D96*
X3565217Y10442613D02*
D03*
D97*
X-1754249Y4412250D02*
D03*
X-1767543Y4158598D02*
D03*
D98*
X5632500Y1781500D02*
D03*
Y2035500D02*
D03*
Y2289500D02*
D03*
Y2543500D02*
D03*
Y2797500D02*
D03*
Y3051500D02*
D03*
Y3305500D02*
D03*
Y3559500D02*
D03*
Y3813500D02*
D03*
Y4067500D02*
D03*
Y4321500D02*
D03*
Y4575500D02*
D03*
Y4829500D02*
D03*
Y5083500D02*
D03*
Y5337500D02*
D03*
Y5591500D02*
D03*
Y5845500D02*
D03*
Y6099500D02*
D03*
Y6353500D02*
D03*
X3092500Y2035500D02*
D03*
Y2289500D02*
D03*
Y2543500D02*
D03*
Y2797500D02*
D03*
Y3051500D02*
D03*
Y3305500D02*
D03*
Y3559500D02*
D03*
Y3813500D02*
D03*
Y4067500D02*
D03*
Y4321500D02*
D03*
Y4575500D02*
D03*
Y4829500D02*
D03*
Y5083500D02*
D03*
Y5337500D02*
D03*
Y5591500D02*
D03*
Y5845500D02*
D03*
Y1781500D02*
D03*
Y6099500D02*
D03*
Y6353500D02*
D03*
D99*
X6590000Y4900000D02*
D03*
X8587499Y1840000D02*
D03*
X-861250Y3921250D02*
D03*
X3165180Y-710320D02*
D03*
X3033000Y-680500D02*
D03*
X5522730Y-562680D02*
D03*
X8599427Y7646898D02*
D03*
X5318670Y8881070D02*
D03*
X2065180Y-970320D02*
D03*
X8649500Y614250D02*
D03*
X1143592Y6717350D02*
D03*
X2158250Y9457229D02*
D03*
X-91658Y7170600D02*
D03*
X6453800Y-118250D02*
D03*
X9000750Y4730749D02*
D03*
X6500000Y2950000D02*
D03*
X6992500Y3720000D02*
D03*
X6842500D02*
D03*
X6180000Y4120000D02*
D03*
X6240000Y3740000D02*
D03*
X6550000Y4190000D02*
D03*
X527796Y1179007D02*
D03*
X125296Y2095000D02*
D03*
X185296Y1845000D02*
D03*
X787795Y2050000D02*
D03*
Y1825000D02*
D03*
X937795Y2050000D02*
D03*
X857796Y1935000D02*
D03*
X937795Y1825000D02*
D03*
X582796Y1310000D02*
D03*
X-846750Y4053250D02*
D03*
X-491751Y4568250D02*
D03*
X-571750Y4678250D02*
D03*
X-491751Y4793250D02*
D03*
X-641751Y4568250D02*
D03*
Y4793250D02*
D03*
X-1244250Y4588250D02*
D03*
X-1304250Y4838250D02*
D03*
X5785550Y-502500D02*
D03*
X5580550Y100000D02*
D03*
X5805550D02*
D03*
X5580550Y250000D02*
D03*
X5695550Y170000D02*
D03*
X5805550Y250000D02*
D03*
X6320550Y-105000D02*
D03*
X2518000Y-325500D02*
D03*
X2408000Y-405500D02*
D03*
X2293000Y-325500D02*
D03*
X2518000Y-475500D02*
D03*
X2293000D02*
D03*
X2498000Y-1078000D02*
D03*
X9445000Y3812500D02*
D03*
X9385000Y4062500D02*
D03*
X8782500Y3857500D02*
D03*
Y4082500D02*
D03*
X8632500Y3857500D02*
D03*
X8712500Y3972500D02*
D03*
X8632500Y4082500D02*
D03*
X8987500Y4597500D02*
D03*
X8452499Y1587500D02*
D03*
X8097500Y1072500D02*
D03*
X8177500Y962500D02*
D03*
X8097500Y847500D02*
D03*
X8247500Y1072500D02*
D03*
Y847500D02*
D03*
X8849999Y1052500D02*
D03*
X8921927Y6610398D02*
D03*
X8861927Y6860398D02*
D03*
X8259427Y6655398D02*
D03*
Y6880398D02*
D03*
X8109428Y6655398D02*
D03*
X8189427Y6770398D02*
D03*
X8109428Y6880398D02*
D03*
X8464427Y7395398D02*
D03*
X5576170Y8744070D02*
D03*
X6091170Y8389070D02*
D03*
X6201170Y8469070D02*
D03*
X6316170Y8389070D02*
D03*
X6091170Y8539070D02*
D03*
X6316170D02*
D03*
X6111170Y9141570D02*
D03*
X6361170Y9201570D02*
D03*
X6992500Y3945000D02*
D03*
X6912500Y3830000D02*
D03*
X6637500Y3205000D02*
D03*
X6665000Y3550000D02*
D03*
X6132500Y4310000D02*
D03*
X6230000Y4312500D02*
D03*
X6327500Y4315000D02*
D03*
X6425000Y4317500D02*
D03*
X6422500Y4415000D02*
D03*
X2291500Y9443979D02*
D03*
X2806500Y9088980D02*
D03*
X2916500Y9168979D02*
D03*
X3031500Y9088980D02*
D03*
X2806500Y9238979D02*
D03*
X3031500D02*
D03*
X2826500Y9841479D02*
D03*
X3076500Y9901479D02*
D03*
X902092Y6829350D02*
D03*
X677092D02*
D03*
X902092Y6679350D02*
D03*
X787092Y6759350D02*
D03*
X677092Y6679350D02*
D03*
X162092Y7034350D02*
D03*
X945842Y7490600D02*
D03*
X692092Y7441850D02*
D03*
%TF.MD5,f7b661f6f0e797a54306409dec6f3b56*%
M02*
