%TF.GenerationSoftware,Altium Limited,Altium Designer,23.3.1 (30)*%
G04 Layer_Physical_Order=1*
G04 Layer_Color=255*
%FSLAX45Y45*%
%MOMM*%
%TF.SameCoordinates,30647D46-07CB-4458-BA05-9B6BD05E8BF5*%
%TF.FilePolarity,Positive*%
%TF.FileFunction,Copper,L1,Top,Signal*%
%TF.Part,Single*%
G01*
G75*
%TA.AperFunction,SMDPad,CuDef*%
%ADD10R,1.00000X2.00000*%
%ADD11R,1.24000X2.73000*%
G04:AMPARAMS|DCode=12|XSize=1.37mm|YSize=0.59mm|CornerRadius=0.1475mm|HoleSize=0mm|Usage=FLASHONLY|Rotation=180.000|XOffset=0mm|YOffset=0mm|HoleType=Round|Shape=RoundedRectangle|*
%AMROUNDEDRECTD12*
21,1,1.37000,0.29500,0,0,180.0*
21,1,1.07500,0.59000,0,0,180.0*
1,1,0.29500,-0.53750,0.14750*
1,1,0.29500,0.53750,0.14750*
1,1,0.29500,0.53750,-0.14750*
1,1,0.29500,-0.53750,-0.14750*
%
%ADD12ROUNDEDRECTD12*%
%ADD13R,0.50000X0.70000*%
%ADD14R,0.55000X1.20000*%
%ADD15R,0.90000X0.90000*%
G04:AMPARAMS|DCode=16|XSize=1.37mm|YSize=0.59mm|CornerRadius=0.1475mm|HoleSize=0mm|Usage=FLASHONLY|Rotation=270.000|XOffset=0mm|YOffset=0mm|HoleType=Round|Shape=RoundedRectangle|*
%AMROUNDEDRECTD16*
21,1,1.37000,0.29500,0,0,270.0*
21,1,1.07500,0.59000,0,0,270.0*
1,1,0.29500,-0.14750,-0.53750*
1,1,0.29500,-0.14750,0.53750*
1,1,0.29500,0.14750,0.53750*
1,1,0.29500,0.14750,-0.53750*
%
%ADD16ROUNDEDRECTD16*%
%ADD17R,2.41300X3.30200*%
G04:AMPARAMS|DCode=18|XSize=1.97mm|YSize=0.6mm|CornerRadius=0.075mm|HoleSize=0mm|Usage=FLASHONLY|Rotation=180.000|XOffset=0mm|YOffset=0mm|HoleType=Round|Shape=RoundedRectangle|*
%AMROUNDEDRECTD18*
21,1,1.97000,0.45000,0,0,180.0*
21,1,1.82000,0.60000,0,0,180.0*
1,1,0.15000,-0.91000,0.22500*
1,1,0.15000,0.91000,0.22500*
1,1,0.15000,0.91000,-0.22500*
1,1,0.15000,-0.91000,-0.22500*
%
%ADD18ROUNDEDRECTD18*%
%ADD19R,1.10000X1.00000*%
%ADD20R,0.90000X0.90000*%
%ADD21R,0.70000X0.50000*%
%ADD22R,1.00000X1.10000*%
%ADD23R,1.20000X0.55000*%
%ADD24R,3.30200X2.41300*%
G04:AMPARAMS|DCode=25|XSize=1.97mm|YSize=0.6mm|CornerRadius=0.075mm|HoleSize=0mm|Usage=FLASHONLY|Rotation=270.000|XOffset=0mm|YOffset=0mm|HoleType=Round|Shape=RoundedRectangle|*
%AMROUNDEDRECTD25*
21,1,1.97000,0.45000,0,0,270.0*
21,1,1.82000,0.60000,0,0,270.0*
1,1,0.15000,-0.22500,-0.91000*
1,1,0.15000,-0.22500,0.91000*
1,1,0.15000,0.22500,0.91000*
1,1,0.15000,0.22500,-0.91000*
%
%ADD25ROUNDEDRECTD25*%
%ADD26R,2.73000X1.24000*%
%TA.AperFunction,Conductor*%
%ADD27C,0.50000*%
%ADD28C,0.20000*%
%TA.AperFunction,ComponentPad*%
%ADD29C,1.53000*%
%ADD30R,1.53000X1.53000*%
%ADD31R,1.53000X1.53000*%
%ADD32P,2.16375X4X350.0*%
%ADD33P,2.16375X4X387.0*%
%ADD34P,2.16375X4X61.0*%
%ADD35P,2.16375X4X99.0*%
%ADD36P,2.16375X4X171.0*%
%ADD37P,2.16375X4X242.0*%
%ADD38P,2.16375X4X278.0*%
%ADD39P,2.16375X4X312.0*%
%ADD40C,1.56000*%
%ADD41R,1.56000X1.56000*%
%TA.AperFunction,ViaPad*%
%ADD42C,0.80000*%
G36*
X8643740Y9516180D02*
X8858829Y9213786D01*
X8820512Y9181392D01*
X8791510Y9210394D01*
X8742111Y9248300D01*
X8688187Y9279433D01*
X8630660Y9303261D01*
X8570515Y9319377D01*
X8508782Y9327504D01*
X8446516D01*
X8384782Y9319377D01*
X8324637Y9303261D01*
X8267111Y9279433D01*
X8213187Y9248300D01*
X8163788Y9210394D01*
X8119759Y9166365D01*
X8081853Y9116966D01*
X8050720Y9063042D01*
X8026892Y9005516D01*
X8010776Y8945371D01*
X8002649Y8883637D01*
Y8821371D01*
X8010776Y8759638D01*
X8026892Y8699493D01*
X8050720Y8641966D01*
X8081853Y8588042D01*
X8119759Y8538643D01*
X8163788Y8494614D01*
X8213187Y8456709D01*
X8267111Y8425576D01*
X8324637Y8401747D01*
X8384782Y8385632D01*
X8446516Y8377504D01*
X8508782D01*
X8570515Y8385632D01*
X8630660Y8401747D01*
X8688187Y8425576D01*
X8742111Y8456709D01*
X8791510Y8494614D01*
X8835539Y8538643D01*
X8873444Y8588042D01*
X8904577Y8641966D01*
X8928406Y8699493D01*
X8944521Y8759638D01*
X8952649Y8821371D01*
Y8883637D01*
X8944521Y8945371D01*
X8928406Y9005516D01*
X8904577Y9063042D01*
X8904079Y9063905D01*
X8946196Y9090956D01*
X10226634Y7290784D01*
X10188317Y7258390D01*
X10171275Y7275432D01*
X10121876Y7313337D01*
X10067952Y7344470D01*
X10010425Y7368298D01*
X9950281Y7384414D01*
X9888547Y7392541D01*
X9826281D01*
X9764547Y7384414D01*
X9704403Y7368298D01*
X9646876Y7344470D01*
X9592952Y7313337D01*
X9543553Y7275432D01*
X9499524Y7231403D01*
X9461619Y7182004D01*
X9430486Y7128079D01*
X9406657Y7070553D01*
X9390542Y7010408D01*
X9382414Y6948675D01*
Y6886409D01*
X9390542Y6824675D01*
X9406657Y6764530D01*
X9430486Y6707004D01*
X9461619Y6653080D01*
X9499524Y6603680D01*
X9543553Y6559652D01*
X9592952Y6521746D01*
X9646876Y6490613D01*
X9704403Y6466785D01*
X9764547Y6450669D01*
X9826281Y6442542D01*
X9888547D01*
X9950281Y6450669D01*
X10010425Y6466785D01*
X10067952Y6490613D01*
X10121876Y6521746D01*
X10171275Y6559652D01*
X10215304Y6603680D01*
X10253210Y6653080D01*
X10284343Y6707004D01*
X10308171Y6764530D01*
X10324287Y6824675D01*
X10332414Y6886409D01*
Y6948675D01*
X10324287Y7010408D01*
X10308171Y7070553D01*
X10288996Y7116845D01*
X10333023Y7141211D01*
X10527718Y6867488D01*
X10557290Y1801008D01*
X8615709Y-846829D01*
X3540204Y-2459662D01*
X846590Y-1571030D01*
X-2481969Y3190017D01*
X-2313019Y5885216D01*
X1138466Y10376709D01*
X3603650Y11123890D01*
X8643740Y9516180D01*
D02*
G37*
%LPC*%
G36*
X2615520Y10337628D02*
X2430953Y10281201D01*
X2487381Y10096634D01*
X2487381D01*
X2505569Y10083176D01*
Y9988906D01*
X2509062Y9971347D01*
X2519007Y9956462D01*
X2608991Y9866479D01*
X2606689Y9816479D01*
X2479000D01*
X2479000Y9816479D01*
X2447250Y9819160D01*
X2339750D01*
X2326191Y9816463D01*
X2314697Y9808782D01*
X2307016Y9797288D01*
X2304319Y9783729D01*
Y9757908D01*
X2301361Y9754769D01*
X2296270Y9754769D01*
X2248681Y9783729D01*
X2245984Y9797288D01*
X2238303Y9808782D01*
X2226809Y9816463D01*
X2213250Y9819160D01*
X2205382D01*
Y9974815D01*
X2280803Y10050236D01*
X2299220Y10045984D01*
X2324614Y10046871D01*
X2348913Y10054300D01*
X2370461Y10067764D01*
X2387789Y10086347D01*
X2399718Y10108782D01*
X2405434Y10133540D01*
X2404547Y10158933D01*
X2397118Y10183232D01*
X2383654Y10204780D01*
X2365071Y10222109D01*
X2342636Y10234037D01*
X2317878Y10239753D01*
X2292485Y10238866D01*
X2268186Y10231437D01*
X2246638Y10217973D01*
X2229309Y10199390D01*
X2217381Y10176955D01*
X2211665Y10152198D01*
X2212552Y10126804D01*
X2216075Y10115281D01*
X2127057Y10026263D01*
X2117111Y10011378D01*
X2113619Y9993819D01*
Y9819160D01*
X2105750D01*
X2092191Y9816463D01*
X2080697Y9808782D01*
X2073016Y9797288D01*
X2070319Y9783729D01*
Y9754229D01*
X2073016Y9740670D01*
Y9702288D01*
X2070319Y9688729D01*
Y9659229D01*
X2073016Y9645670D01*
Y9607288D01*
X2070319Y9593729D01*
Y9564229D01*
X2073016Y9550670D01*
X2080697Y9539176D01*
X2085651Y9535866D01*
X2095818Y9514979D01*
X2102916Y9482656D01*
X2102755Y9480039D01*
X2098250Y9469164D01*
Y9445295D01*
X2107385Y9423242D01*
X2124263Y9406364D01*
X2146315Y9397229D01*
X2170185D01*
X2188636Y9404872D01*
X2192237Y9406363D01*
X2192239Y9406364D01*
X2233591Y9409464D01*
X2250914Y9399712D01*
X2257513Y9393114D01*
X2279565Y9383979D01*
X2314000Y9378979D01*
X2314001Y9378979D01*
X2409000D01*
X2444000Y9378979D01*
X2494000Y9378979D01*
X2589000D01*
Y9447891D01*
X2626500Y9478391D01*
X2638205Y9480720D01*
X2648129Y9487350D01*
X2689954Y9529176D01*
X2739000Y9531479D01*
X2745353Y9531479D01*
X2757906D01*
X2802462Y9507479D01*
Y9325479D01*
X2754635Y9309629D01*
X2731400D01*
Y9077761D01*
X2730519Y9073329D01*
Y9059384D01*
X2711652Y9040518D01*
X2703500D01*
X2692770Y9038383D01*
X2683674Y9032306D01*
X2677596Y9023209D01*
X2675462Y9012479D01*
Y8918203D01*
X2675119Y8916479D01*
Y8793979D01*
X2639000D01*
Y8663979D01*
X2769000D01*
Y8663979D01*
X2784001D01*
Y8663979D01*
X2904000D01*
Y8651479D01*
X3054000D01*
Y8791479D01*
X3054000D01*
X3030539Y8830480D01*
Y9012479D01*
X3078365Y9028329D01*
X3101600D01*
Y9203098D01*
X3204000D01*
Y9173979D01*
X3344000D01*
Y9323979D01*
X3344000D01*
Y9343980D01*
X3344000D01*
Y9493979D01*
X3209073D01*
X3191567Y9507957D01*
X3171500Y9530517D01*
Y9653979D01*
X3101929D01*
X3054000Y9658980D01*
X3054000Y9698802D01*
X3054000Y9795286D01*
X3057994Y9812749D01*
X3088435Y9841479D01*
X3110487Y9850614D01*
X3127366Y9867492D01*
X3136500Y9889545D01*
Y9913414D01*
X3127366Y9935467D01*
X3110487Y9952345D01*
X3088435Y9961479D01*
X3064566D01*
X3054000Y9968539D01*
Y9978979D01*
X2914000D01*
Y9907733D01*
X2864000Y9888832D01*
X2860487Y9892345D01*
X2838435Y9901479D01*
X2814565D01*
X2792513Y9892345D01*
X2775635Y9875466D01*
X2768163Y9857428D01*
X2762327Y9851988D01*
X2752288Y9848558D01*
X2702382Y9883856D01*
X2698889Y9901414D01*
X2688943Y9916299D01*
X2597332Y10007910D01*
Y10130249D01*
X2671948Y10153062D01*
X2615520Y10337628D01*
D02*
G37*
G36*
X3596350Y10917613D02*
X3534084D01*
X3472350Y10909486D01*
X3412205Y10893370D01*
X3354679Y10869542D01*
X3300755Y10838409D01*
X3251355Y10800503D01*
X3207327Y10756475D01*
X3169421Y10707075D01*
X3138288Y10653151D01*
X3114460Y10595625D01*
X3098344Y10535480D01*
X3090217Y10473746D01*
Y10411480D01*
X3098344Y10349747D01*
X3114460Y10289602D01*
X3138288Y10232076D01*
X3169421Y10178151D01*
X3207327Y10128752D01*
X3251355Y10084723D01*
X3300755Y10046818D01*
X3354679Y10015685D01*
X3412205Y9991857D01*
X3472350Y9975741D01*
X3534084Y9967614D01*
X3596350D01*
X3658083Y9975741D01*
X3718228Y9991857D01*
X3775754Y10015685D01*
X3829679Y10046818D01*
X3879078Y10084723D01*
X3923107Y10128752D01*
X3961012Y10178151D01*
X3992145Y10232076D01*
X4015973Y10289602D01*
X4032089Y10349747D01*
X4040216Y10411480D01*
Y10473746D01*
X4032089Y10535480D01*
X4015973Y10595625D01*
X3992145Y10653151D01*
X3961012Y10707075D01*
X3923107Y10756475D01*
X3879078Y10800503D01*
X3829679Y10838409D01*
X3775754Y10869542D01*
X3718228Y10893370D01*
X3658083Y10909486D01*
X3596350Y10917613D01*
D02*
G37*
G36*
X5961580Y9806278D02*
X5936726Y9800995D01*
X5914086Y9789459D01*
X5895204Y9772458D01*
X5881365Y9751148D01*
X5873513Y9726983D01*
X5872184Y9701609D01*
X5876480Y9681395D01*
X5411727Y9216642D01*
X5401781Y9201758D01*
X5398289Y9184199D01*
Y9119250D01*
X5390420D01*
X5376861Y9116554D01*
X5365367Y9108873D01*
X5357687Y9097379D01*
X5354990Y9083820D01*
Y9054320D01*
X5357686Y9040761D01*
Y9002379D01*
X5354990Y8988820D01*
Y8985089D01*
X5336839Y8952324D01*
X5307640Y8941070D01*
X5306736D01*
X5284683Y8931935D01*
X5267805Y8915057D01*
X5258670Y8893005D01*
Y8869135D01*
X5267805Y8847083D01*
X5284683Y8830204D01*
X5306736Y8821070D01*
X5330605D01*
X5352658Y8830204D01*
X5356642Y8834188D01*
X5372967D01*
X5376861Y8831586D01*
X5390420Y8828889D01*
X5474351D01*
X5492130Y8828889D01*
X5516825Y8802689D01*
X5524421Y8775924D01*
X5516170Y8756005D01*
Y8732135D01*
X5525305Y8710083D01*
X5542183Y8693205D01*
X5564235Y8684070D01*
X5598671Y8679070D01*
X5598671Y8679070D01*
X5693670D01*
X5728670Y8679070D01*
X5778670Y8679070D01*
X5873670D01*
Y8747982D01*
X5911170Y8778482D01*
X5922875Y8780811D01*
X5932799Y8787441D01*
X5974624Y8829267D01*
X6023670Y8831570D01*
X6030024Y8831570D01*
X6042576D01*
X6087132Y8807569D01*
Y8625570D01*
X6039305Y8609720D01*
X6016070D01*
Y8377852D01*
X6015189Y8373420D01*
Y8359475D01*
X5996322Y8340609D01*
X5988170D01*
X5977440Y8338474D01*
X5968344Y8332396D01*
X5962266Y8323300D01*
X5960132Y8312570D01*
Y8218294D01*
X5959789Y8216570D01*
Y8094070D01*
X5923670D01*
Y7964070D01*
X6053670D01*
Y7964070D01*
X6068671D01*
Y7964070D01*
X6188670D01*
Y7951570D01*
X6338670D01*
Y8091570D01*
X6338670D01*
X6315209Y8130570D01*
Y8312570D01*
X6363036Y8328420D01*
X6386270D01*
Y8503188D01*
X6488670D01*
Y8474070D01*
X6628670D01*
Y8624069D01*
X6628671D01*
Y8644071D01*
X6628670D01*
Y8794070D01*
X6493743D01*
X6476237Y8808048D01*
X6456170Y8830608D01*
Y8954070D01*
X6386599D01*
X6338670Y8959070D01*
X6338670Y8998892D01*
X6338670Y9095377D01*
X6342664Y9112840D01*
X6373105Y9141570D01*
X6395157Y9150705D01*
X6412036Y9167583D01*
X6421170Y9189635D01*
Y9213505D01*
X6412036Y9235557D01*
X6395157Y9252436D01*
X6373105Y9261570D01*
X6349236D01*
X6338670Y9268630D01*
Y9279070D01*
X6198670D01*
Y9207824D01*
X6148670Y9188922D01*
X6145157Y9192436D01*
X6123105Y9201570D01*
X6099235D01*
X6077183Y9192436D01*
X6067052Y9182304D01*
X6035160Y9188390D01*
X6017052Y9197632D01*
Y9372136D01*
X6183175Y9538259D01*
X6272741Y9509158D01*
X6332381Y9692711D01*
X6148827Y9752352D01*
X6091712Y9576569D01*
X5938727Y9423584D01*
X5928781Y9408699D01*
X5925289Y9391141D01*
Y9165899D01*
X5923670Y9116570D01*
X5763670D01*
X5763670Y9116570D01*
X5731920Y9119250D01*
X5624420D01*
X5610861Y9116554D01*
X5599367Y9108873D01*
X5591687Y9097379D01*
X5588990Y9083820D01*
Y9057999D01*
X5586031Y9054860D01*
X5580941Y9054860D01*
X5533351Y9083820D01*
X5530654Y9097379D01*
X5522973Y9108873D01*
X5511479Y9116554D01*
X5497921Y9119250D01*
X5494108Y9169250D01*
X5941607Y9616750D01*
X5951479Y9613542D01*
X5976853Y9612213D01*
X6001707Y9617496D01*
X6024346Y9629031D01*
X6043228Y9646033D01*
X6057067Y9667342D01*
X6064919Y9691508D01*
X6066249Y9716882D01*
X6060966Y9741736D01*
X6049430Y9764375D01*
X6032429Y9783258D01*
X6011119Y9797096D01*
X5986953Y9804948D01*
X5961580Y9806278D01*
D02*
G37*
G36*
X1349731Y10202143D02*
X1287465D01*
X1225731Y10194015D01*
X1165586Y10177900D01*
X1108060Y10154071D01*
X1054136Y10122938D01*
X1004736Y10085033D01*
X960708Y10041004D01*
X922802Y9991605D01*
X891669Y9937681D01*
X867841Y9880154D01*
X851725Y9820010D01*
X843598Y9758276D01*
Y9696010D01*
X851725Y9634276D01*
X867841Y9574131D01*
X891669Y9516605D01*
X922802Y9462681D01*
X960708Y9413282D01*
X1004736Y9369253D01*
X1054136Y9331347D01*
X1108060Y9300214D01*
X1165586Y9276386D01*
X1225731Y9260270D01*
X1287465Y9252143D01*
X1349731D01*
X1411464Y9260270D01*
X1471609Y9276386D01*
X1529135Y9300214D01*
X1583060Y9331347D01*
X1632459Y9369253D01*
X1676488Y9413282D01*
X1714393Y9462681D01*
X1745526Y9516605D01*
X1769354Y9574131D01*
X1785470Y9634276D01*
X1793597Y9696010D01*
Y9758276D01*
X1785470Y9820010D01*
X1769354Y9880154D01*
X1745526Y9937681D01*
X1714393Y9991605D01*
X1676488Y10041004D01*
X1632459Y10085033D01*
X1583060Y10122938D01*
X1529135Y10154071D01*
X1471609Y10177900D01*
X1411464Y10194015D01*
X1349731Y10202143D01*
D02*
G37*
G36*
X9079826Y8031943D02*
X9054556Y8029286D01*
X9030835Y8020181D01*
X9010279Y8005246D01*
X8994289Y7985499D01*
X8983954Y7962287D01*
X8979979Y7937191D01*
X8982635Y7911921D01*
X8984587Y7906838D01*
X8756984Y7679235D01*
X8747038Y7664351D01*
X8703287Y7631739D01*
X8668578Y7639739D01*
X8659427Y7658833D01*
X8650293Y7680885D01*
X8633414Y7697764D01*
X8611362Y7706898D01*
X8587492D01*
X8565440Y7697764D01*
X8548562Y7680885D01*
X8539427Y7658833D01*
Y7634963D01*
X8548562Y7612911D01*
X8553546Y7607927D01*
Y7597105D01*
X8551944Y7594707D01*
X8549247Y7581148D01*
Y7497218D01*
X8549246Y7479439D01*
X8523046Y7454743D01*
X8496281Y7447147D01*
X8476362Y7455398D01*
X8452493D01*
X8430440Y7446264D01*
X8413562Y7429385D01*
X8404427Y7407333D01*
X8399427Y7372898D01*
X8399427Y7372898D01*
Y7277898D01*
X8399427Y7242898D01*
X8399427Y7192898D01*
Y7097898D01*
X8468339D01*
X8498839Y7060398D01*
X8501168Y7048693D01*
X8507798Y7038770D01*
X8549624Y6996944D01*
X8551927Y6947898D01*
X8551927Y6941545D01*
Y6928992D01*
X8527927Y6884437D01*
X8345927D01*
X8330077Y6932264D01*
Y6955498D01*
X8098209D01*
X8093777Y6956380D01*
X8079832D01*
X8060966Y6975246D01*
Y6983398D01*
X8058831Y6994128D01*
X8052754Y7003224D01*
X8043657Y7009302D01*
X8032927Y7011437D01*
X7938651D01*
X7936927Y7011780D01*
X7814427D01*
Y7047898D01*
X7684427D01*
Y6917899D01*
X7684427D01*
Y6902898D01*
X7684427D01*
Y6782898D01*
X7671927D01*
Y6632899D01*
X7811927D01*
Y6632898D01*
X7850928Y6656360D01*
X8032927D01*
X8048777Y6608533D01*
Y6585298D01*
X8223546D01*
Y6482898D01*
X8194427D01*
Y6342898D01*
X8344427D01*
Y6342898D01*
X8364428D01*
Y6342898D01*
X8514427D01*
Y6477825D01*
X8528405Y6495331D01*
X8550965Y6515398D01*
X8674427D01*
Y6584970D01*
X8679428Y6632898D01*
X8719250Y6632898D01*
X8815734Y6632898D01*
X8833197Y6628904D01*
X8861927Y6598463D01*
X8871062Y6576411D01*
X8887940Y6559533D01*
X8909993Y6550398D01*
X8933862D01*
X8955915Y6559533D01*
X8972793Y6576411D01*
X8981927Y6598464D01*
Y6622333D01*
X8988987Y6632898D01*
X8999427D01*
Y6772898D01*
X8928181D01*
X8909280Y6822898D01*
X8912793Y6826411D01*
X8921927Y6848464D01*
Y6872333D01*
X8912793Y6894385D01*
X8895915Y6911264D01*
X8890359Y6960204D01*
X8922737Y6994017D01*
X8970427D01*
X8987985Y6997509D01*
X9002870Y7007455D01*
X9054370Y7058955D01*
X9064316Y7073840D01*
X9067809Y7091398D01*
Y7505500D01*
X9160213Y7597904D01*
X9205227Y7594362D01*
X9205227D01*
X9361367Y7707804D01*
X9247925Y7863945D01*
X9091784Y7750502D01*
X9130185Y7697649D01*
X8989484Y7556948D01*
X8979538Y7542063D01*
X8976046Y7524504D01*
Y7110403D01*
X8951422Y7085780D01*
X8893927D01*
X8886927Y7084387D01*
X8851486Y7103598D01*
X8836927Y7116067D01*
Y7207898D01*
X8836927Y7207898D01*
X8839608Y7239648D01*
Y7347148D01*
X8836911Y7360707D01*
X8829230Y7372201D01*
X8817736Y7379882D01*
X8813826Y7380660D01*
X8795316Y7410398D01*
X8813826Y7440137D01*
X8817736Y7440915D01*
X8829230Y7448595D01*
X8836911Y7460089D01*
X8839608Y7473648D01*
Y7581148D01*
X8836911Y7594707D01*
X8835309Y7597105D01*
Y7627787D01*
X9049085Y7841563D01*
X9049634Y7841319D01*
X9074730Y7837344D01*
X9100000Y7840000D01*
X9123721Y7849106D01*
X9144278Y7864041D01*
X9160268Y7883787D01*
X9170603Y7906999D01*
X9174578Y7932095D01*
X9171921Y7957365D01*
X9162816Y7981086D01*
X9147881Y8001643D01*
X9128134Y8017633D01*
X9104922Y8027968D01*
X9079826Y8031943D01*
D02*
G37*
G36*
X-22563Y7996570D02*
X-138713Y7842433D01*
X15424Y7726283D01*
X18993Y7731020D01*
X68872Y7734508D01*
X236840Y7566540D01*
X251725Y7556594D01*
X269283Y7553101D01*
X311487D01*
X403425Y7461164D01*
X385957Y7413643D01*
X349592Y7406850D01*
X317842Y7409531D01*
X210342D01*
X196783Y7406834D01*
X185289Y7399153D01*
X177608Y7387659D01*
X176830Y7383749D01*
X147092Y7365239D01*
X117353Y7383749D01*
X116576Y7387659D01*
X108895Y7399153D01*
X97401Y7406834D01*
X83842Y7409531D01*
X75973D01*
Y7481642D01*
X72481Y7499200D01*
X62535Y7514085D01*
X-61694Y7638314D01*
X-59102Y7659423D01*
X-62638Y7684584D01*
X-72566Y7707973D01*
X-88209Y7727996D01*
X-108502Y7743288D01*
X-132061Y7752806D01*
X-157280Y7755902D01*
X-182442Y7752366D01*
X-205831Y7742438D01*
X-225853Y7726795D01*
X-241145Y7706502D01*
X-250663Y7682943D01*
X-253759Y7657724D01*
X-250223Y7632563D01*
X-240295Y7609174D01*
X-224652Y7589151D01*
X-204360Y7573859D01*
X-180801Y7564341D01*
X-155581Y7561245D01*
X-130420Y7564781D01*
X-121654Y7568502D01*
X-15790Y7462637D01*
Y7409531D01*
X-23658D01*
X-37217Y7406834D01*
X-48711Y7399153D01*
X-56392Y7387659D01*
X-59089Y7374100D01*
Y7344600D01*
X-56392Y7331041D01*
Y7292659D01*
X-59089Y7279100D01*
Y7276172D01*
X-74003Y7243232D01*
X-103593Y7230600D01*
X-125645Y7221465D01*
X-142523Y7204587D01*
X-151658Y7182535D01*
Y7158665D01*
X-142523Y7136613D01*
X-125645Y7119734D01*
X-103593Y7110600D01*
X-79723D01*
X-57671Y7119734D01*
X-53937Y7123468D01*
X-39615D01*
X-37217Y7121866D01*
X-23658Y7119169D01*
X60272D01*
X78051Y7119169D01*
X102747Y7092969D01*
X110343Y7066204D01*
X102092Y7046285D01*
Y7022415D01*
X111226Y7000363D01*
X128105Y6983485D01*
X150157Y6974350D01*
X184592Y6969350D01*
X184592Y6969350D01*
X279592D01*
X314592Y6969350D01*
X364592Y6969350D01*
X459592D01*
Y7056092D01*
X492261Y7088762D01*
X519348D01*
X519350Y7088762D01*
X531055Y7091090D01*
X540979Y7097721D01*
X561207Y7117950D01*
X609592Y7121850D01*
X609592Y7121850D01*
X628498D01*
X673053Y7097849D01*
Y6915850D01*
X625227Y6900000D01*
X601992D01*
Y6668132D01*
X601110Y6663700D01*
Y6649755D01*
X582244Y6630889D01*
X574092D01*
X563362Y6628754D01*
X554266Y6622676D01*
X548188Y6613580D01*
X546053Y6602850D01*
Y6508574D01*
X545710Y6506850D01*
Y6384350D01*
X509592D01*
Y6254350D01*
X639591D01*
Y6254350D01*
X654593D01*
Y6254350D01*
X774592D01*
Y6241850D01*
X924591D01*
Y6381850D01*
X924592D01*
X901131Y6420851D01*
Y6602850D01*
X948957Y6618700D01*
X972192D01*
Y6876093D01*
X972192Y6887811D01*
X977560Y6887811D01*
X1000092D01*
X1010822Y6889946D01*
X1019918Y6896024D01*
X1024842Y6903393D01*
X1029567Y6904386D01*
X1074842Y6895076D01*
X1074842Y6884100D01*
Y6764101D01*
X1074842D01*
X1083592Y6717725D01*
Y6705416D01*
X1092726Y6683363D01*
X1109605Y6666485D01*
X1131657Y6657350D01*
X1155527D01*
X1177579Y6666485D01*
X1194457Y6683363D01*
X1203592Y6705416D01*
Y6718760D01*
X1214842Y6764101D01*
X1214842D01*
Y6884100D01*
X1214842Y6914100D01*
X1214842Y6964100D01*
Y7084100D01*
X1079562D01*
X1062357Y7097990D01*
X1042092Y7120535D01*
Y7244350D01*
X971788D01*
X923342Y7248100D01*
X923342Y7289690D01*
X923342Y7384407D01*
X927336Y7401869D01*
X957777Y7430600D01*
X979829Y7439734D01*
X996707Y7456613D01*
X1005842Y7478665D01*
Y7502535D01*
X996707Y7524587D01*
X979829Y7541465D01*
X957776Y7550600D01*
X933907D01*
X923342Y7557660D01*
Y7568100D01*
X783342D01*
Y7500781D01*
X778338Y7497690D01*
X733342Y7485453D01*
X726079Y7492716D01*
X704027Y7501850D01*
X680157D01*
X658105Y7492716D01*
X641226Y7475837D01*
X632092Y7453785D01*
Y7444087D01*
X587284Y7417380D01*
X567769Y7426592D01*
X362935Y7631426D01*
X348050Y7641372D01*
X330492Y7644865D01*
X288287D01*
X97693Y7835459D01*
X131574Y7880420D01*
X-22563Y7996570D01*
D02*
G37*
G36*
X5645402Y6451500D02*
X5619598D01*
X5594674Y6444821D01*
X5572327Y6431919D01*
X5554081Y6413673D01*
X5541179Y6391327D01*
X5534500Y6366402D01*
Y6340598D01*
X5541179Y6315674D01*
X5554081Y6293327D01*
X5572327Y6275081D01*
X5594674Y6262179D01*
X5619598Y6255500D01*
X5645402D01*
X5670326Y6262179D01*
X5692673Y6275081D01*
X5710919Y6293327D01*
X5723821Y6315674D01*
X5730500Y6340598D01*
Y6366402D01*
X5723821Y6391327D01*
X5710919Y6413673D01*
X5692673Y6431919D01*
X5670326Y6444821D01*
X5645402Y6451500D01*
D02*
G37*
G36*
X3190500D02*
X2994500D01*
Y6255500D01*
X3190500D01*
Y6451500D01*
D02*
G37*
G36*
X5645402Y6197500D02*
X5619598D01*
X5594674Y6190821D01*
X5572327Y6177919D01*
X5554081Y6159673D01*
X5541179Y6137327D01*
X5534500Y6112402D01*
Y6086598D01*
X5541179Y6061674D01*
X5554081Y6039327D01*
X5572327Y6021081D01*
X5594674Y6008179D01*
X5619598Y6001500D01*
X5645402D01*
X5670326Y6008179D01*
X5692673Y6021081D01*
X5710919Y6039327D01*
X5723821Y6061674D01*
X5730500Y6086598D01*
Y6112402D01*
X5723821Y6137327D01*
X5710919Y6159673D01*
X5692673Y6177919D01*
X5670326Y6190821D01*
X5645402Y6197500D01*
D02*
G37*
G36*
X3105402D02*
X3079598D01*
X3054674Y6190821D01*
X3032327Y6177919D01*
X3014081Y6159673D01*
X3001179Y6137327D01*
X2994500Y6112402D01*
Y6086598D01*
X3001179Y6061674D01*
X3014081Y6039327D01*
X3032327Y6021081D01*
X3054674Y6008179D01*
X3079598Y6001500D01*
X3105402D01*
X3130326Y6008179D01*
X3152673Y6021081D01*
X3170919Y6039327D01*
X3183821Y6061674D01*
X3190500Y6086598D01*
Y6112402D01*
X3183821Y6137327D01*
X3170919Y6159673D01*
X3152673Y6177919D01*
X3130326Y6190821D01*
X3105402Y6197500D01*
D02*
G37*
G36*
X5645402Y5943500D02*
X5619598D01*
X5594674Y5936821D01*
X5572327Y5923919D01*
X5554081Y5905673D01*
X5541179Y5883327D01*
X5534500Y5858402D01*
Y5832598D01*
X5541179Y5807674D01*
X5554081Y5785327D01*
X5572327Y5767081D01*
X5594674Y5754179D01*
X5619598Y5747500D01*
X5645402D01*
X5670326Y5754179D01*
X5692673Y5767081D01*
X5710919Y5785327D01*
X5723821Y5807674D01*
X5730500Y5832598D01*
Y5858402D01*
X5723821Y5883327D01*
X5710919Y5905673D01*
X5692673Y5923919D01*
X5670326Y5936821D01*
X5645402Y5943500D01*
D02*
G37*
G36*
X3105402D02*
X3079598D01*
X3054674Y5936821D01*
X3032327Y5923919D01*
X3014081Y5905673D01*
X3001179Y5883327D01*
X2994500Y5858402D01*
Y5832598D01*
X3001179Y5807674D01*
X3014081Y5785327D01*
X3032327Y5767081D01*
X3054674Y5754179D01*
X3079598Y5747500D01*
X3105402D01*
X3130326Y5754179D01*
X3152673Y5767081D01*
X3170919Y5785327D01*
X3183821Y5807674D01*
X3190500Y5832598D01*
Y5858402D01*
X3183821Y5883327D01*
X3170919Y5905673D01*
X3152673Y5923919D01*
X3130326Y5936821D01*
X3105402Y5943500D01*
D02*
G37*
G36*
X5645402Y5689500D02*
X5619598D01*
X5594674Y5682821D01*
X5572327Y5669919D01*
X5554081Y5651673D01*
X5541179Y5629327D01*
X5534500Y5604402D01*
Y5578598D01*
X5541179Y5553674D01*
X5554081Y5531327D01*
X5572327Y5513081D01*
X5594674Y5500179D01*
X5619598Y5493500D01*
X5645402D01*
X5670326Y5500179D01*
X5692673Y5513081D01*
X5710919Y5531327D01*
X5723821Y5553674D01*
X5730500Y5578598D01*
Y5604402D01*
X5723821Y5629327D01*
X5710919Y5651673D01*
X5692673Y5669919D01*
X5670326Y5682821D01*
X5645402Y5689500D01*
D02*
G37*
G36*
X3105402D02*
X3079598D01*
X3054674Y5682821D01*
X3032327Y5669919D01*
X3014081Y5651673D01*
X3001179Y5629327D01*
X2994500Y5604402D01*
Y5578598D01*
X3001179Y5553674D01*
X3014081Y5531327D01*
X3032327Y5513081D01*
X3054674Y5500179D01*
X3079598Y5493500D01*
X3105402D01*
X3130326Y5500179D01*
X3152673Y5513081D01*
X3170919Y5531327D01*
X3183821Y5553674D01*
X3190500Y5578598D01*
Y5604402D01*
X3183821Y5629327D01*
X3170919Y5651673D01*
X3152673Y5669919D01*
X3130326Y5682821D01*
X3105402Y5689500D01*
D02*
G37*
G36*
X7130000Y5382892D02*
X6657500D01*
X6649696Y5381340D01*
X6646111Y5378944D01*
X6638372Y5376154D01*
X6613628Y5372134D01*
X6590303Y5373840D01*
X6582500Y5375392D01*
X6327500D01*
X6319696Y5373840D01*
X6313080Y5369419D01*
X6308660Y5362804D01*
X6307108Y5355000D01*
Y4965000D01*
X6308660Y4957196D01*
X6313080Y4950581D01*
X6319696Y4946160D01*
X6322500Y4945603D01*
Y4945000D01*
X6325531D01*
X6327500Y4944608D01*
X6365179D01*
X6380505Y4935000D01*
X6390000D01*
X6405000Y4920000D01*
Y4919644D01*
X6408819Y4917250D01*
Y4887750D01*
X6411516Y4874191D01*
Y4835809D01*
X6408819Y4822250D01*
Y4792750D01*
X6411516Y4779191D01*
X6419196Y4767697D01*
X6430691Y4760016D01*
X6444249Y4757319D01*
X6506923D01*
X6542500Y4722500D01*
X6542500Y4719700D01*
Y4626287D01*
X6541953Y4624691D01*
X6534045Y4612569D01*
X6512500Y4590511D01*
Y4590000D01*
X6512001D01*
X6509587Y4587528D01*
X6495445Y4585392D01*
X6115000D01*
X6107197Y4583840D01*
X6100581Y4579419D01*
X6100580Y4579419D01*
X6025581Y4504419D01*
X6021160Y4497804D01*
X6019608Y4490000D01*
Y4307500D01*
X6021160Y4299696D01*
X6025581Y4293081D01*
X6078081Y4240581D01*
X6084696Y4236160D01*
X6092500Y4234608D01*
X6450000D01*
X6477903Y4212050D01*
X6490000Y4197539D01*
Y4178065D01*
X6499135Y4156013D01*
X6516013Y4139134D01*
X6525995Y4135000D01*
X6516050Y4085000D01*
X6427500D01*
X6420000Y4090000D01*
Y4090000D01*
X6286194Y4090000D01*
X6262648Y4099208D01*
X6240000Y4127573D01*
Y4131935D01*
X6230866Y4153987D01*
X6213987Y4170865D01*
X6191935Y4180000D01*
X6168065D01*
X6146013Y4170865D01*
X6129135Y4153987D01*
X6120000Y4131935D01*
Y4108065D01*
X6107929Y4090000D01*
X6100000D01*
Y3950000D01*
X6220000D01*
X6250000Y3950000D01*
X6300000Y3950000D01*
X6381642D01*
X6421386Y3941333D01*
X6427500Y3903107D01*
Y3874886D01*
X6396853Y3844239D01*
X6359999Y3812500D01*
X6265000D01*
Y3808730D01*
X6251934Y3800000D01*
X6228065D01*
X6206013Y3790865D01*
X6189134Y3773987D01*
X6180000Y3751935D01*
Y3728065D01*
X6189134Y3706013D01*
X6206013Y3689134D01*
X6217210Y3684497D01*
X6218221Y3669793D01*
X6210119Y3633806D01*
X6202995Y3632389D01*
X6188110Y3622443D01*
X6172048Y3606381D01*
X6131500D01*
X6127068Y3605500D01*
X5983500D01*
Y3412500D01*
X6176500D01*
Y3494270D01*
X6223274Y3518825D01*
X6265000Y3495917D01*
Y3392500D01*
X6265000Y3392500D01*
X6262319Y3360750D01*
Y3297777D01*
X6243745Y3284056D01*
X6218810Y3276053D01*
X6169924Y3292248D01*
X6157219Y3314252D01*
X6139252Y3332219D01*
X6117248Y3344923D01*
X6092705Y3351500D01*
X6067295D01*
X6042752Y3344923D01*
X6020748Y3332219D01*
X6002781Y3314252D01*
X5990076Y3292247D01*
X5983500Y3267704D01*
Y3242295D01*
X5990076Y3217752D01*
X6002781Y3195747D01*
X6020748Y3177781D01*
X6042752Y3165076D01*
X6067295Y3158500D01*
X6092705D01*
X6117248Y3165076D01*
X6139252Y3177781D01*
X6150882Y3189410D01*
X6170203D01*
X6262319Y3097294D01*
Y3019250D01*
X6265016Y3005691D01*
X6272697Y2994197D01*
X6284191Y2986516D01*
X6297750Y2983819D01*
X6327250D01*
X6340809Y2986516D01*
X6379191D01*
X6392750Y2983819D01*
X6394945D01*
X6428590Y2967477D01*
X6440000Y2938065D01*
X6449134Y2916013D01*
X6466013Y2899134D01*
X6488065Y2890000D01*
X6511935D01*
X6533987Y2899134D01*
X6550865Y2916013D01*
X6560000Y2938065D01*
Y2961935D01*
X6550865Y2983987D01*
X6547131Y2987721D01*
Y3001422D01*
X6549984Y3005691D01*
X6552681Y3019250D01*
Y3103180D01*
X6552681Y3120959D01*
X6578881Y3145655D01*
X6605646Y3153251D01*
X6625565Y3145000D01*
X6649435D01*
X6671487Y3154134D01*
X6688365Y3171013D01*
X6697500Y3193065D01*
X6702500Y3227500D01*
X6702500Y3227501D01*
Y3322500D01*
X6702500Y3357500D01*
X6702500Y3407500D01*
Y3502499D01*
X6702500Y3502499D01*
X6702755Y3502902D01*
X6715866Y3516013D01*
X6724999Y3538064D01*
X6725000Y3538066D01*
X6725000Y3543180D01*
Y3561934D01*
X6766730Y3591096D01*
X6775826Y3597174D01*
X6781904Y3606270D01*
X6784039Y3617000D01*
Y3644900D01*
X7003718D01*
X7008150Y3644018D01*
X7022095D01*
X7040961Y3625152D01*
Y3617000D01*
X7043096Y3606270D01*
X7049174Y3597174D01*
X7058270Y3591096D01*
X7069000Y3588961D01*
X7163276D01*
X7165000Y3588618D01*
X7287500D01*
Y3552500D01*
X7417500D01*
Y3682499D01*
X7417500D01*
Y3697501D01*
X7417500D01*
Y3817500D01*
X7430000D01*
Y3967499D01*
X7430000D01*
X7430392Y3992697D01*
Y4063866D01*
X7435309Y4112143D01*
X7520145Y4113290D01*
X7523908Y4114091D01*
X7527673Y4114840D01*
X7527790Y4114918D01*
X7527927Y4114948D01*
X7531097Y4117128D01*
X7534289Y4119261D01*
X7604419Y4189391D01*
X7608840Y4196007D01*
X7610392Y4203810D01*
Y4713838D01*
X7610393Y4735000D01*
X7610392Y4735001D01*
X7608840Y4742804D01*
X7604419Y4749419D01*
X7597804Y4753840D01*
X7590001Y4755392D01*
X7590000Y4755393D01*
X7568839Y4755392D01*
X7362500Y4755392D01*
X7354697Y4753839D01*
X7333981Y4750183D01*
X7311812Y4751383D01*
X7296579Y4755487D01*
X7295303Y4756339D01*
X7287500Y4757892D01*
X7150392D01*
Y5362500D01*
X7148839Y5370303D01*
X7144419Y5376919D01*
X7137803Y5381340D01*
X7130000Y5382892D01*
D02*
G37*
G36*
X5645402Y5435500D02*
X5619598D01*
X5594674Y5428821D01*
X5572327Y5415919D01*
X5554081Y5397673D01*
X5541179Y5375327D01*
X5534500Y5350402D01*
Y5324598D01*
X5541179Y5299674D01*
X5554081Y5277327D01*
X5572327Y5259081D01*
X5594674Y5246179D01*
X5619598Y5239500D01*
X5645402D01*
X5670326Y5246179D01*
X5692673Y5259081D01*
X5710919Y5277327D01*
X5723821Y5299674D01*
X5730500Y5324598D01*
Y5350402D01*
X5723821Y5375327D01*
X5710919Y5397673D01*
X5692673Y5415919D01*
X5670326Y5428821D01*
X5645402Y5435500D01*
D02*
G37*
G36*
X3105402D02*
X3079598D01*
X3054674Y5428821D01*
X3032327Y5415919D01*
X3014081Y5397673D01*
X3001179Y5375327D01*
X2994500Y5350402D01*
Y5324598D01*
X3001179Y5299674D01*
X3014081Y5277327D01*
X3032327Y5259081D01*
X3054674Y5246179D01*
X3079598Y5239500D01*
X3105402D01*
X3130326Y5246179D01*
X3152673Y5259081D01*
X3170919Y5277327D01*
X3183821Y5299674D01*
X3190500Y5324598D01*
Y5350402D01*
X3183821Y5375327D01*
X3170919Y5397673D01*
X3152673Y5415919D01*
X3130326Y5428821D01*
X3105402Y5435500D01*
D02*
G37*
G36*
X-1669305Y6004510D02*
X-1731571D01*
X-1793305Y5996383D01*
X-1853449Y5980267D01*
X-1910976Y5956439D01*
X-1964900Y5925306D01*
X-2014299Y5887401D01*
X-2058328Y5843372D01*
X-2096234Y5793973D01*
X-2127367Y5740048D01*
X-2151195Y5682522D01*
X-2167311Y5622377D01*
X-2175438Y5560644D01*
Y5498378D01*
X-2167311Y5436644D01*
X-2151195Y5376499D01*
X-2127367Y5318973D01*
X-2096234Y5265049D01*
X-2058328Y5215649D01*
X-2014299Y5171621D01*
X-1964900Y5133715D01*
X-1910976Y5102582D01*
X-1853449Y5078754D01*
X-1793305Y5062638D01*
X-1731571Y5054511D01*
X-1669305D01*
X-1607571Y5062638D01*
X-1547427Y5078754D01*
X-1489900Y5102582D01*
X-1435976Y5133715D01*
X-1386577Y5171621D01*
X-1342548Y5215649D01*
X-1304643Y5265049D01*
X-1273510Y5318973D01*
X-1249681Y5376499D01*
X-1233565Y5436644D01*
X-1225438Y5498378D01*
Y5560644D01*
X-1233565Y5622377D01*
X-1249681Y5682522D01*
X-1273510Y5740048D01*
X-1304643Y5793973D01*
X-1342548Y5843372D01*
X-1386577Y5887401D01*
X-1435976Y5925306D01*
X-1489900Y5956439D01*
X-1547427Y5980267D01*
X-1607571Y5996383D01*
X-1669305Y6004510D01*
D02*
G37*
G36*
X5645402Y5181500D02*
X5619598D01*
X5594674Y5174821D01*
X5572327Y5161919D01*
X5554081Y5143673D01*
X5541179Y5121327D01*
X5534500Y5096402D01*
Y5070598D01*
X5541179Y5045674D01*
X5554081Y5023327D01*
X5572327Y5005081D01*
X5594674Y4992179D01*
X5619598Y4985500D01*
X5645402D01*
X5670326Y4992179D01*
X5692673Y5005081D01*
X5710919Y5023327D01*
X5723821Y5045674D01*
X5730500Y5070598D01*
Y5096402D01*
X5723821Y5121327D01*
X5710919Y5143673D01*
X5692673Y5161919D01*
X5670326Y5174821D01*
X5645402Y5181500D01*
D02*
G37*
G36*
X3105402D02*
X3079598D01*
X3054674Y5174821D01*
X3032327Y5161919D01*
X3014081Y5143673D01*
X3001179Y5121327D01*
X2994500Y5096402D01*
Y5070598D01*
X3001179Y5045674D01*
X3014081Y5023327D01*
X3032327Y5005081D01*
X3054674Y4992179D01*
X3079598Y4985500D01*
X3105402D01*
X3130326Y4992179D01*
X3152673Y5005081D01*
X3170919Y5023327D01*
X3183821Y5045674D01*
X3190500Y5070598D01*
Y5096402D01*
X3183821Y5121327D01*
X3170919Y5143673D01*
X3152673Y5161919D01*
X3130326Y5174821D01*
X3105402Y5181500D01*
D02*
G37*
G36*
X9232250Y4818680D02*
X9202750D01*
X9189191Y4815984D01*
X9150809D01*
X9137250Y4818680D01*
X9107750D01*
X9094191Y4815983D01*
X9082697Y4808303D01*
X9079387Y4803349D01*
X9058500Y4793182D01*
X9026177Y4786084D01*
X9023560Y4786245D01*
X9012685Y4790749D01*
X8988815D01*
X8966763Y4781615D01*
X8949885Y4764737D01*
X8940750Y4742684D01*
Y4718815D01*
X8948393Y4700364D01*
X8949884Y4696762D01*
X8949885Y4696761D01*
X8952985Y4655408D01*
X8943233Y4638085D01*
X8936635Y4631487D01*
X8927500Y4609435D01*
X8922500Y4574999D01*
X8922500Y4574999D01*
Y4480000D01*
X8922500Y4445000D01*
X8922500Y4395000D01*
Y4300000D01*
X8991412D01*
X9021912Y4262499D01*
X9024241Y4250794D01*
X9030871Y4240871D01*
X9072697Y4199045D01*
X9075000Y4150000D01*
X9075000Y4131094D01*
X9050999Y4086538D01*
X8869000D01*
X8853150Y4134365D01*
Y4157600D01*
X8621282D01*
X8616850Y4158481D01*
X8602905D01*
X8584039Y4177347D01*
Y4185499D01*
X8581904Y4196229D01*
X8575826Y4205326D01*
X8566730Y4211404D01*
X8556000Y4213538D01*
X8461724D01*
X8460000Y4213881D01*
X8337500D01*
Y4249999D01*
X8207500D01*
Y4120000D01*
X8207500D01*
Y4104999D01*
X8207500D01*
Y3985000D01*
X8195000D01*
Y3835000D01*
X8335000D01*
Y3835000D01*
X8374001Y3858461D01*
X8556000D01*
X8571850Y3810634D01*
Y3787400D01*
X8746619D01*
Y3684999D01*
X8717500D01*
Y3545000D01*
X8867499D01*
Y3544999D01*
X8887501D01*
Y3545000D01*
X9037500D01*
Y3679926D01*
X9051478Y3697433D01*
X9074038Y3717500D01*
X9197500D01*
Y3787071D01*
X9202501Y3834999D01*
X9242322Y3835000D01*
X9338807Y3834999D01*
X9356270Y3831006D01*
X9385000Y3800565D01*
X9394135Y3778512D01*
X9411013Y3761634D01*
X9433065Y3752500D01*
X9456935D01*
X9478987Y3761634D01*
X9495866Y3778512D01*
X9505000Y3800565D01*
Y3824434D01*
X9512060Y3835000D01*
X9522500D01*
Y3974999D01*
X9451254D01*
X9432352Y4024999D01*
X9435866Y4028512D01*
X9445000Y4050565D01*
Y4074434D01*
X9440314Y4085748D01*
X9455620Y4121147D01*
X9467315Y4135748D01*
X9594145D01*
X9595337Y4134557D01*
X9610222Y4124611D01*
X9627780Y4121118D01*
X9646650D01*
Y4019000D01*
X9839650D01*
Y4212000D01*
X9696082D01*
X9691650Y4212881D01*
X9646785D01*
X9645593Y4214073D01*
X9630708Y4224019D01*
X9613150Y4227511D01*
X9400685D01*
X9360000Y4250000D01*
X9360000Y4277511D01*
Y4409999D01*
X9360000Y4410000D01*
X9362681Y4441750D01*
Y4504722D01*
X9412680Y4525433D01*
X9581349Y4356764D01*
X9596234Y4346818D01*
X9613792Y4343326D01*
X9650259D01*
X9653226Y4332252D01*
X9665931Y4310247D01*
X9683898Y4292280D01*
X9705902Y4279576D01*
X9730445Y4272999D01*
X9755855D01*
X9780398Y4279576D01*
X9802402Y4292280D01*
X9820369Y4310247D01*
X9833074Y4332252D01*
X9839650Y4356795D01*
Y4382204D01*
X9833074Y4406747D01*
X9820369Y4428752D01*
X9802402Y4446718D01*
X9780398Y4459423D01*
X9755855Y4465999D01*
X9730445D01*
X9705902Y4459423D01*
X9683898Y4446718D01*
X9672268Y4435089D01*
X9632797D01*
X9362681Y4705205D01*
Y4783250D01*
X9359984Y4796809D01*
X9352303Y4808303D01*
X9340809Y4815983D01*
X9327250Y4818680D01*
X9297750D01*
X9284191Y4815984D01*
X9245809D01*
X9232250Y4818680D01*
D02*
G37*
G36*
X-746751Y5105750D02*
Y5105750D01*
X-776750Y5105750D01*
X-896750D01*
Y4970823D01*
X-910728Y4953317D01*
X-933288Y4933250D01*
X-1056750D01*
Y4863679D01*
X-1061751Y4815750D01*
X-1101573Y4815750D01*
X-1198057Y4815750D01*
X-1215520Y4819744D01*
X-1244250Y4850185D01*
X-1253385Y4872237D01*
X-1270263Y4889115D01*
X-1292316Y4898250D01*
X-1316185D01*
X-1338238Y4889115D01*
X-1355116Y4872237D01*
X-1364250Y4850185D01*
Y4826315D01*
X-1371310Y4815750D01*
X-1381750D01*
Y4675750D01*
X-1310504D01*
X-1291603Y4625750D01*
X-1295116Y4622237D01*
X-1304250Y4600185D01*
Y4576315D01*
X-1295116Y4554263D01*
X-1278237Y4537384D01*
X-1268255Y4533250D01*
X-1278201Y4483250D01*
X-1633550D01*
X-1652831Y4503568D01*
Y4503567D01*
X-1845567Y4513668D01*
X-1855667Y4320933D01*
X-1662932Y4310832D01*
X-1658705Y4391487D01*
X-1219250D01*
Y4240750D01*
X-1219250Y4240750D01*
X-1221931Y4209000D01*
Y4146028D01*
X-1271931Y4125317D01*
X-1337655Y4191041D01*
X-1352540Y4200987D01*
X-1370098Y4204480D01*
X-1682616D01*
X-1687328Y4213728D01*
X-1704330Y4232610D01*
X-1725640Y4246449D01*
X-1749805Y4254301D01*
X-1775179Y4255631D01*
X-1800033Y4250348D01*
X-1822673Y4238812D01*
X-1841555Y4221810D01*
X-1855394Y4200501D01*
X-1863245Y4176336D01*
X-1864575Y4150961D01*
X-1859292Y4126108D01*
X-1847757Y4103468D01*
X-1830755Y4084586D01*
X-1809445Y4070747D01*
X-1785280Y4062895D01*
X-1759906Y4061565D01*
X-1735052Y4066848D01*
X-1712413Y4078384D01*
X-1693530Y4095386D01*
X-1682275Y4112716D01*
X-1389103D01*
X-1221931Y3945544D01*
Y3867500D01*
X-1219234Y3853941D01*
X-1211553Y3842447D01*
X-1200059Y3834766D01*
X-1186500Y3832069D01*
X-1157000D01*
X-1143441Y3834766D01*
X-1105059D01*
X-1091500Y3832069D01*
X-1062000D01*
X-1048441Y3834766D01*
X-1010059D01*
X-996500Y3832069D01*
X-967000D01*
X-953441Y3834766D01*
X-941947Y3842447D01*
X-938637Y3847401D01*
X-919863Y3857343D01*
X-886158Y3865304D01*
X-882551Y3865130D01*
X-873185Y3861250D01*
X-849316D01*
X-827263Y3870384D01*
X-810385Y3887263D01*
X-801250Y3909315D01*
Y3933185D01*
X-808268Y3950127D01*
X-810384Y3955237D01*
X-810385Y3955240D01*
X-812458Y3996342D01*
X-802484Y4012664D01*
X-795885Y4019263D01*
X-786750Y4041315D01*
X-781750Y4075750D01*
X-781751Y4075751D01*
Y4170750D01*
X-781750Y4205750D01*
X-781751Y4255750D01*
Y4350750D01*
X-850662D01*
X-881162Y4388250D01*
X-883491Y4399955D01*
X-890121Y4409879D01*
X-931947Y4451704D01*
X-934250Y4500750D01*
X-934250Y4507103D01*
Y4519656D01*
X-910250Y4564211D01*
X-728251D01*
X-712400Y4516385D01*
Y4493150D01*
X-480532D01*
X-476100Y4492268D01*
X-462155D01*
X-443289Y4473402D01*
Y4465250D01*
X-441155Y4454520D01*
X-435077Y4445424D01*
X-425980Y4439346D01*
X-415250Y4437211D01*
X-320974D01*
X-319250Y4436868D01*
X-196750D01*
Y4400750D01*
X-66750D01*
Y4530749D01*
X-66750D01*
Y4545751D01*
X-66750D01*
Y4665750D01*
X-54250D01*
Y4815750D01*
X-194250D01*
Y4815750D01*
X-233251Y4792289D01*
X-415250D01*
X-431100Y4840115D01*
Y4863350D01*
X-605869D01*
Y4965750D01*
X-576750D01*
Y5105750D01*
X-696751D01*
X-726750Y5105750D01*
Y5105750D01*
X-746751D01*
D02*
G37*
G36*
X5645402Y4927500D02*
X5619598D01*
X5594674Y4920821D01*
X5572327Y4907919D01*
X5554081Y4889673D01*
X5541179Y4867327D01*
X5534500Y4842402D01*
Y4816598D01*
X5541179Y4791674D01*
X5554081Y4769327D01*
X5572327Y4751081D01*
X5594674Y4738179D01*
X5619598Y4731500D01*
X5645402D01*
X5670326Y4738179D01*
X5692673Y4751081D01*
X5710919Y4769327D01*
X5723821Y4791674D01*
X5730500Y4816598D01*
Y4842402D01*
X5723821Y4867327D01*
X5710919Y4889673D01*
X5692673Y4907919D01*
X5670326Y4920821D01*
X5645402Y4927500D01*
D02*
G37*
G36*
X3105402D02*
X3079598D01*
X3054674Y4920821D01*
X3032327Y4907919D01*
X3014081Y4889673D01*
X3001179Y4867327D01*
X2994500Y4842402D01*
Y4816598D01*
X3001179Y4791674D01*
X3014081Y4769327D01*
X3032327Y4751081D01*
X3054674Y4738179D01*
X3079598Y4731500D01*
X3105402D01*
X3130326Y4738179D01*
X3152673Y4751081D01*
X3170919Y4769327D01*
X3183821Y4791674D01*
X3190500Y4816598D01*
Y4842402D01*
X3183821Y4867327D01*
X3170919Y4889673D01*
X3152673Y4907919D01*
X3130326Y4920821D01*
X3105402Y4927500D01*
D02*
G37*
G36*
X5645402Y4673500D02*
X5619598D01*
X5594674Y4666821D01*
X5572327Y4653919D01*
X5554081Y4635673D01*
X5541179Y4613327D01*
X5534500Y4588402D01*
Y4562598D01*
X5541179Y4537674D01*
X5554081Y4515327D01*
X5572327Y4497081D01*
X5594674Y4484179D01*
X5619598Y4477500D01*
X5645402D01*
X5670326Y4484179D01*
X5692673Y4497081D01*
X5710919Y4515327D01*
X5723821Y4537674D01*
X5730500Y4562598D01*
Y4588402D01*
X5723821Y4613327D01*
X5710919Y4635673D01*
X5692673Y4653919D01*
X5670326Y4666821D01*
X5645402Y4673500D01*
D02*
G37*
G36*
X3105402D02*
X3079598D01*
X3054674Y4666821D01*
X3032327Y4653919D01*
X3014081Y4635673D01*
X3001179Y4613327D01*
X2994500Y4588402D01*
Y4562598D01*
X3001179Y4537674D01*
X3014081Y4515327D01*
X3032327Y4497081D01*
X3054674Y4484179D01*
X3079598Y4477500D01*
X3105402D01*
X3130326Y4484179D01*
X3152673Y4497081D01*
X3170919Y4515327D01*
X3183821Y4537674D01*
X3190500Y4562598D01*
Y4588402D01*
X3183821Y4613327D01*
X3170919Y4635673D01*
X3152673Y4653919D01*
X3130326Y4666821D01*
X3105402Y4673500D01*
D02*
G37*
G36*
X5645402Y4419500D02*
X5619598D01*
X5594674Y4412821D01*
X5572327Y4399919D01*
X5554081Y4381673D01*
X5541179Y4359327D01*
X5534500Y4334402D01*
Y4308598D01*
X5541179Y4283674D01*
X5554081Y4261327D01*
X5572327Y4243081D01*
X5594674Y4230179D01*
X5619598Y4223500D01*
X5645402D01*
X5670326Y4230179D01*
X5692673Y4243081D01*
X5710919Y4261327D01*
X5723821Y4283674D01*
X5730500Y4308598D01*
Y4334402D01*
X5723821Y4359327D01*
X5710919Y4381673D01*
X5692673Y4399919D01*
X5670326Y4412821D01*
X5645402Y4419500D01*
D02*
G37*
G36*
X3105402D02*
X3079598D01*
X3054674Y4412821D01*
X3032327Y4399919D01*
X3014081Y4381673D01*
X3001179Y4359327D01*
X2994500Y4334402D01*
Y4308598D01*
X3001179Y4283674D01*
X3014081Y4261327D01*
X3032327Y4243081D01*
X3054674Y4230179D01*
X3079598Y4223500D01*
X3105402D01*
X3130326Y4230179D01*
X3152673Y4243081D01*
X3170919Y4261327D01*
X3183821Y4283674D01*
X3190500Y4308598D01*
Y4334402D01*
X3183821Y4359327D01*
X3170919Y4381673D01*
X3152673Y4399919D01*
X3130326Y4412821D01*
X3105402Y4419500D01*
D02*
G37*
G36*
X5645402Y4165500D02*
X5619598D01*
X5594674Y4158821D01*
X5572327Y4145919D01*
X5554081Y4127673D01*
X5541179Y4105327D01*
X5534500Y4080402D01*
Y4054598D01*
X5541179Y4029674D01*
X5554081Y4007327D01*
X5572327Y3989081D01*
X5594674Y3976179D01*
X5619598Y3969500D01*
X5645402D01*
X5670326Y3976179D01*
X5692673Y3989081D01*
X5710919Y4007327D01*
X5723821Y4029674D01*
X5730500Y4054598D01*
Y4080402D01*
X5723821Y4105327D01*
X5710919Y4127673D01*
X5692673Y4145919D01*
X5670326Y4158821D01*
X5645402Y4165500D01*
D02*
G37*
G36*
X3105402D02*
X3079598D01*
X3054674Y4158821D01*
X3032327Y4145919D01*
X3014081Y4127673D01*
X3001179Y4105327D01*
X2994500Y4080402D01*
Y4054598D01*
X3001179Y4029674D01*
X3014081Y4007327D01*
X3032327Y3989081D01*
X3054674Y3976179D01*
X3079598Y3969500D01*
X3105402D01*
X3130326Y3976179D01*
X3152673Y3989081D01*
X3170919Y4007327D01*
X3183821Y4029674D01*
X3190500Y4054598D01*
Y4080402D01*
X3183821Y4105327D01*
X3170919Y4127673D01*
X3152673Y4145919D01*
X3130326Y4158821D01*
X3105402Y4165500D01*
D02*
G37*
G36*
X5645402Y3911500D02*
X5619598D01*
X5594674Y3904821D01*
X5572327Y3891919D01*
X5554081Y3873673D01*
X5541179Y3851327D01*
X5534500Y3826402D01*
Y3800598D01*
X5541179Y3775674D01*
X5554081Y3753327D01*
X5572327Y3735081D01*
X5594674Y3722179D01*
X5619598Y3715500D01*
X5645402D01*
X5670326Y3722179D01*
X5692673Y3735081D01*
X5710919Y3753327D01*
X5723821Y3775674D01*
X5730500Y3800598D01*
Y3826402D01*
X5723821Y3851327D01*
X5710919Y3873673D01*
X5692673Y3891919D01*
X5670326Y3904821D01*
X5645402Y3911500D01*
D02*
G37*
G36*
X3105402D02*
X3079598D01*
X3054674Y3904821D01*
X3032327Y3891919D01*
X3014081Y3873673D01*
X3001179Y3851327D01*
X2994500Y3826402D01*
Y3800598D01*
X3001179Y3775674D01*
X3014081Y3753327D01*
X3032327Y3735081D01*
X3054674Y3722179D01*
X3079598Y3715500D01*
X3105402D01*
X3130326Y3722179D01*
X3152673Y3735081D01*
X3170919Y3753327D01*
X3183821Y3775674D01*
X3190500Y3800598D01*
Y3826402D01*
X3183821Y3851327D01*
X3170919Y3873673D01*
X3152673Y3891919D01*
X3130326Y3904821D01*
X3105402Y3911500D01*
D02*
G37*
G36*
X5645402Y3657500D02*
X5619598D01*
X5594674Y3650821D01*
X5572327Y3637919D01*
X5554081Y3619673D01*
X5541179Y3597327D01*
X5534500Y3572402D01*
Y3546598D01*
X5541179Y3521674D01*
X5554081Y3499327D01*
X5572327Y3481081D01*
X5594674Y3468179D01*
X5619598Y3461500D01*
X5645402D01*
X5670326Y3468179D01*
X5692673Y3481081D01*
X5710919Y3499327D01*
X5723821Y3521674D01*
X5730500Y3546598D01*
Y3572402D01*
X5723821Y3597327D01*
X5710919Y3619673D01*
X5692673Y3637919D01*
X5670326Y3650821D01*
X5645402Y3657500D01*
D02*
G37*
G36*
X3105402D02*
X3079598D01*
X3054674Y3650821D01*
X3032327Y3637919D01*
X3014081Y3619673D01*
X3001179Y3597327D01*
X2994500Y3572402D01*
Y3546598D01*
X3001179Y3521674D01*
X3014081Y3499327D01*
X3032327Y3481081D01*
X3054674Y3468179D01*
X3079598Y3461500D01*
X3105402D01*
X3130326Y3468179D01*
X3152673Y3481081D01*
X3170919Y3499327D01*
X3183821Y3521674D01*
X3190500Y3546598D01*
Y3572402D01*
X3183821Y3597327D01*
X3170919Y3619673D01*
X3152673Y3637919D01*
X3130326Y3650821D01*
X3105402Y3657500D01*
D02*
G37*
G36*
X5645402Y3403500D02*
X5619598D01*
X5594674Y3396821D01*
X5572327Y3383919D01*
X5554081Y3365673D01*
X5541179Y3343327D01*
X5534500Y3318402D01*
Y3292598D01*
X5541179Y3267674D01*
X5554081Y3245327D01*
X5572327Y3227081D01*
X5594674Y3214179D01*
X5619598Y3207500D01*
X5645402D01*
X5670326Y3214179D01*
X5692673Y3227081D01*
X5710919Y3245327D01*
X5723821Y3267674D01*
X5730500Y3292598D01*
Y3318402D01*
X5723821Y3343327D01*
X5710919Y3365673D01*
X5692673Y3383919D01*
X5670326Y3396821D01*
X5645402Y3403500D01*
D02*
G37*
G36*
X3105402D02*
X3079598D01*
X3054674Y3396821D01*
X3032327Y3383919D01*
X3014081Y3365673D01*
X3001179Y3343327D01*
X2994500Y3318402D01*
Y3292598D01*
X3001179Y3267674D01*
X3014081Y3245327D01*
X3032327Y3227081D01*
X3054674Y3214179D01*
X3079598Y3207500D01*
X3105402D01*
X3130326Y3214179D01*
X3152673Y3227081D01*
X3170919Y3245327D01*
X3183821Y3267674D01*
X3190500Y3292598D01*
Y3318402D01*
X3183821Y3343327D01*
X3170919Y3365673D01*
X3152673Y3383919D01*
X3130326Y3396821D01*
X3105402Y3403500D01*
D02*
G37*
G36*
X5645402Y3149500D02*
X5619598D01*
X5594674Y3142821D01*
X5572327Y3129919D01*
X5554081Y3111673D01*
X5541179Y3089327D01*
X5534500Y3064402D01*
Y3038598D01*
X5541179Y3013674D01*
X5554081Y2991327D01*
X5572327Y2973081D01*
X5594674Y2960179D01*
X5619598Y2953500D01*
X5645402D01*
X5670326Y2960179D01*
X5692673Y2973081D01*
X5710919Y2991327D01*
X5723821Y3013674D01*
X5730500Y3038598D01*
Y3064402D01*
X5723821Y3089327D01*
X5710919Y3111673D01*
X5692673Y3129919D01*
X5670326Y3142821D01*
X5645402Y3149500D01*
D02*
G37*
G36*
X3105402D02*
X3079598D01*
X3054674Y3142821D01*
X3032327Y3129919D01*
X3014081Y3111673D01*
X3001179Y3089327D01*
X2994500Y3064402D01*
Y3038598D01*
X3001179Y3013674D01*
X3014081Y2991327D01*
X3032327Y2973081D01*
X3054674Y2960179D01*
X3079598Y2953500D01*
X3105402D01*
X3130326Y2960179D01*
X3152673Y2973081D01*
X3170919Y2991327D01*
X3183821Y3013674D01*
X3190500Y3038598D01*
Y3064402D01*
X3183821Y3089327D01*
X3170919Y3111673D01*
X3152673Y3129919D01*
X3130326Y3142821D01*
X3105402Y3149500D01*
D02*
G37*
G36*
X5645402Y2895500D02*
X5619598D01*
X5594674Y2888821D01*
X5572327Y2875919D01*
X5554081Y2857673D01*
X5541179Y2835327D01*
X5534500Y2810402D01*
Y2784598D01*
X5541179Y2759674D01*
X5554081Y2737327D01*
X5572327Y2719081D01*
X5594674Y2706179D01*
X5619598Y2699500D01*
X5645402D01*
X5670326Y2706179D01*
X5692673Y2719081D01*
X5710919Y2737327D01*
X5723821Y2759674D01*
X5730500Y2784598D01*
Y2810402D01*
X5723821Y2835327D01*
X5710919Y2857673D01*
X5692673Y2875919D01*
X5670326Y2888821D01*
X5645402Y2895500D01*
D02*
G37*
G36*
X3105402D02*
X3079598D01*
X3054674Y2888821D01*
X3032327Y2875919D01*
X3014081Y2857673D01*
X3001179Y2835327D01*
X2994500Y2810402D01*
Y2784598D01*
X3001179Y2759674D01*
X3014081Y2737327D01*
X3032327Y2719081D01*
X3054674Y2706179D01*
X3079598Y2699500D01*
X3105402D01*
X3130326Y2706179D01*
X3152673Y2719081D01*
X3170919Y2737327D01*
X3183821Y2759674D01*
X3190500Y2784598D01*
Y2810402D01*
X3183821Y2835327D01*
X3170919Y2857673D01*
X3152673Y2875919D01*
X3130326Y2888821D01*
X3105402Y2895500D01*
D02*
G37*
G36*
X-1681717Y3646103D02*
X-1743983D01*
X-1805717Y3637975D01*
X-1865861Y3621860D01*
X-1923388Y3598031D01*
X-1977312Y3566898D01*
X-2026711Y3528993D01*
X-2070740Y3484964D01*
X-2108646Y3435565D01*
X-2139779Y3381641D01*
X-2163607Y3324114D01*
X-2179723Y3263970D01*
X-2187850Y3202236D01*
Y3139970D01*
X-2179723Y3078236D01*
X-2163607Y3018091D01*
X-2139779Y2960565D01*
X-2108646Y2906641D01*
X-2070740Y2857242D01*
X-2026711Y2813213D01*
X-1977312Y2775307D01*
X-1923388Y2744174D01*
X-1865861Y2720346D01*
X-1805717Y2704230D01*
X-1743983Y2696103D01*
X-1681717D01*
X-1619983Y2704230D01*
X-1559839Y2720346D01*
X-1502312Y2744174D01*
X-1448388Y2775307D01*
X-1398989Y2813213D01*
X-1354960Y2857242D01*
X-1317055Y2906641D01*
X-1285921Y2960565D01*
X-1262093Y3018091D01*
X-1245977Y3078236D01*
X-1237850Y3139970D01*
Y3202236D01*
X-1245977Y3263970D01*
X-1262093Y3324114D01*
X-1285921Y3381641D01*
X-1317055Y3435565D01*
X-1354960Y3484964D01*
X-1398989Y3528993D01*
X-1448388Y3566898D01*
X-1502312Y3598031D01*
X-1559839Y3621860D01*
X-1619983Y3637975D01*
X-1681717Y3646103D01*
D02*
G37*
G36*
X5645402Y2641500D02*
X5619598D01*
X5594674Y2634821D01*
X5572327Y2621919D01*
X5554081Y2603673D01*
X5541179Y2581327D01*
X5534500Y2556402D01*
Y2530598D01*
X5541179Y2505674D01*
X5554081Y2483327D01*
X5572327Y2465081D01*
X5594674Y2452179D01*
X5619598Y2445500D01*
X5645402D01*
X5670326Y2452179D01*
X5692673Y2465081D01*
X5710919Y2483327D01*
X5723821Y2505674D01*
X5730500Y2530598D01*
Y2556402D01*
X5723821Y2581327D01*
X5710919Y2603673D01*
X5692673Y2621919D01*
X5670326Y2634821D01*
X5645402Y2641500D01*
D02*
G37*
G36*
X3105402D02*
X3079598D01*
X3054674Y2634821D01*
X3032327Y2621919D01*
X3014081Y2603673D01*
X3001179Y2581327D01*
X2994500Y2556402D01*
Y2530598D01*
X3001179Y2505674D01*
X3014081Y2483327D01*
X3032327Y2465081D01*
X3054674Y2452179D01*
X3079598Y2445500D01*
X3105402D01*
X3130326Y2452179D01*
X3152673Y2465081D01*
X3170919Y2483327D01*
X3183821Y2505674D01*
X3190500Y2530598D01*
Y2556402D01*
X3183821Y2581327D01*
X3170919Y2603673D01*
X3152673Y2621919D01*
X3130326Y2634821D01*
X3105402Y2641500D01*
D02*
G37*
G36*
X5645402Y2387500D02*
X5619598D01*
X5594674Y2380821D01*
X5572327Y2367919D01*
X5554081Y2349673D01*
X5541179Y2327327D01*
X5534500Y2302402D01*
Y2276598D01*
X5541179Y2251674D01*
X5554081Y2229327D01*
X5572327Y2211081D01*
X5594674Y2198179D01*
X5619598Y2191500D01*
X5645402D01*
X5670326Y2198179D01*
X5692673Y2211081D01*
X5710919Y2229327D01*
X5723821Y2251674D01*
X5730500Y2276598D01*
Y2302402D01*
X5723821Y2327327D01*
X5710919Y2349673D01*
X5692673Y2367919D01*
X5670326Y2380821D01*
X5645402Y2387500D01*
D02*
G37*
G36*
X3105402D02*
X3079598D01*
X3054674Y2380821D01*
X3032327Y2367919D01*
X3014081Y2349673D01*
X3001179Y2327327D01*
X2994500Y2302402D01*
Y2276598D01*
X3001179Y2251674D01*
X3014081Y2229327D01*
X3032327Y2211081D01*
X3054674Y2198179D01*
X3079598Y2191500D01*
X3105402D01*
X3130326Y2198179D01*
X3152673Y2211081D01*
X3170919Y2229327D01*
X3183821Y2251674D01*
X3190500Y2276598D01*
Y2302402D01*
X3183821Y2327327D01*
X3170919Y2349673D01*
X3152673Y2367919D01*
X3130326Y2380821D01*
X3105402Y2387500D01*
D02*
G37*
G36*
X682795Y2362500D02*
Y2362500D01*
X652796Y2362499D01*
X532796D01*
Y2227573D01*
X518818Y2210067D01*
X496258Y2189999D01*
X372796D01*
Y2120428D01*
X367795Y2072500D01*
X327973Y2072500D01*
X231489Y2072500D01*
X214026Y2076494D01*
X185296Y2106935D01*
X176161Y2128987D01*
X159283Y2145865D01*
X137230Y2154999D01*
X113361D01*
X91308Y2145865D01*
X74430Y2128987D01*
X65296Y2106934D01*
Y2083065D01*
X58236Y2072500D01*
X47796D01*
Y1932500D01*
X119042D01*
X137943Y1882500D01*
X134430Y1878987D01*
X125296Y1856934D01*
Y1833065D01*
X94234Y1785881D01*
X33124D01*
X15566Y1782388D01*
X681Y1772442D01*
X-307017Y1464744D01*
X-349146Y1468430D01*
X-349146Y1468430D01*
X-507242Y1357730D01*
X-396542Y1199633D01*
X-238446Y1310334D01*
X-276833Y1365156D01*
X52129Y1694118D01*
X177990D01*
X210296Y1657499D01*
X210296Y1644118D01*
Y1497500D01*
X210296Y1497500D01*
X207615Y1465750D01*
Y1358250D01*
X210312Y1344691D01*
X217993Y1333196D01*
X229487Y1325516D01*
X243046Y1322819D01*
X268867D01*
X272006Y1319860D01*
X272006Y1314770D01*
X243045Y1267180D01*
X229487Y1264483D01*
X217993Y1256803D01*
X210312Y1245309D01*
X207615Y1231750D01*
Y1223881D01*
X-147252D01*
X-164811Y1220389D01*
X-179696Y1210443D01*
X-179784Y1210354D01*
X-197888Y1218796D01*
X-222910Y1223208D01*
X-248223Y1220993D01*
X-272099Y1212303D01*
X-292913Y1197729D01*
X-309246Y1178265D01*
X-319984Y1155236D01*
X-324396Y1130214D01*
X-322181Y1104901D01*
X-313491Y1081025D01*
X-298917Y1060211D01*
X-279453Y1043879D01*
X-256424Y1033140D01*
X-231402Y1028728D01*
X-206089Y1030943D01*
X-182213Y1039633D01*
X-161399Y1054207D01*
X-145067Y1073671D01*
X-134328Y1096700D01*
X-129916Y1121722D01*
X-80635Y1132118D01*
X207615D01*
Y1124249D01*
X210312Y1110691D01*
X217993Y1099196D01*
X229487Y1091516D01*
X243046Y1088819D01*
X272546D01*
X286105Y1091516D01*
X324487D01*
X338046Y1088819D01*
X367546D01*
X381105Y1091516D01*
X419487D01*
X433046Y1088819D01*
X462546D01*
X476105Y1091516D01*
X487599Y1099196D01*
X495279Y1110690D01*
X515861Y1119007D01*
X539730D01*
X561783Y1128141D01*
X578661Y1145020D01*
X587796Y1167072D01*
Y1190941D01*
X584044Y1200000D01*
X590588Y1230617D01*
X607201Y1255165D01*
X616783Y1259134D01*
X633661Y1276012D01*
X642796Y1298065D01*
X647796Y1332500D01*
X647796Y1332500D01*
Y1427500D01*
X647796Y1462499D01*
X647796Y1512500D01*
Y1607499D01*
X578884D01*
X548384Y1645000D01*
X546055Y1656705D01*
X539425Y1666628D01*
X497599Y1708454D01*
X495296Y1757500D01*
X495296Y1776405D01*
X519296Y1820961D01*
X701296D01*
X717146Y1773134D01*
Y1749900D01*
X949014D01*
X953446Y1749018D01*
X967391D01*
X986257Y1730152D01*
Y1722000D01*
X988391Y1711270D01*
X994469Y1702173D01*
X1003566Y1696095D01*
X1014296Y1693961D01*
X1108572D01*
X1110296Y1693618D01*
X1232796D01*
Y1657500D01*
X1362796D01*
Y1787499D01*
X1362796D01*
Y1802500D01*
X1362796D01*
Y1922500D01*
X1375296D01*
Y2072499D01*
X1235296D01*
Y2072500D01*
X1196295Y2049038D01*
X1014296D01*
X998446Y2096865D01*
Y2120100D01*
X823677D01*
Y2222500D01*
X852796D01*
Y2362499D01*
X732795D01*
X702796Y2362500D01*
Y2362500D01*
X682795D01*
D02*
G37*
G36*
X5645402Y2133500D02*
X5619598D01*
X5594674Y2126821D01*
X5572327Y2113919D01*
X5554081Y2095673D01*
X5541179Y2073327D01*
X5534500Y2048402D01*
Y2022598D01*
X5541179Y1997674D01*
X5554081Y1975327D01*
X5572327Y1957081D01*
X5594674Y1944179D01*
X5619598Y1937500D01*
X5645402D01*
X5670326Y1944179D01*
X5692673Y1957081D01*
X5710919Y1975327D01*
X5723821Y1997674D01*
X5730500Y2022598D01*
Y2048402D01*
X5723821Y2073327D01*
X5710919Y2095673D01*
X5692673Y2113919D01*
X5670326Y2126821D01*
X5645402Y2133500D01*
D02*
G37*
G36*
X3105402D02*
X3079598D01*
X3054674Y2126821D01*
X3032327Y2113919D01*
X3014081Y2095673D01*
X3001179Y2073327D01*
X2994500Y2048402D01*
Y2022598D01*
X3001179Y1997674D01*
X3014081Y1975327D01*
X3032327Y1957081D01*
X3054674Y1944179D01*
X3079598Y1937500D01*
X3105402D01*
X3130326Y1944179D01*
X3152673Y1957081D01*
X3170919Y1975327D01*
X3183821Y1997674D01*
X3190500Y2022598D01*
Y2048402D01*
X3183821Y2073327D01*
X3170919Y2095673D01*
X3152673Y2113919D01*
X3130326Y2126821D01*
X3105402Y2133500D01*
D02*
G37*
G36*
X5645402Y1879500D02*
X5619598D01*
X5594674Y1872821D01*
X5572327Y1859919D01*
X5554081Y1841673D01*
X5541179Y1819327D01*
X5534500Y1794402D01*
Y1768598D01*
X5541179Y1743674D01*
X5554081Y1721327D01*
X5572327Y1703081D01*
X5594674Y1690179D01*
X5619598Y1683500D01*
X5645402D01*
X5670326Y1690179D01*
X5692673Y1703081D01*
X5710919Y1721327D01*
X5723821Y1743674D01*
X5730500Y1768598D01*
Y1794402D01*
X5723821Y1819327D01*
X5710919Y1841673D01*
X5692673Y1859919D01*
X5670326Y1872821D01*
X5645402Y1879500D01*
D02*
G37*
G36*
X8599434Y1900000D02*
X8575565D01*
X8553512Y1890866D01*
X8536634Y1873987D01*
X8527499Y1851935D01*
Y1828065D01*
X8536634Y1806013D01*
X8541618Y1801029D01*
Y1789207D01*
X8540016Y1786809D01*
X8537319Y1773250D01*
Y1689320D01*
X8537318Y1671541D01*
X8511118Y1646845D01*
X8484354Y1639249D01*
X8464434Y1647500D01*
X8440565D01*
X8418512Y1638366D01*
X8401634Y1621487D01*
X8392499Y1599435D01*
X8387499Y1565000D01*
X8387500Y1565000D01*
Y1470000D01*
X8387499Y1435000D01*
X8387500Y1385000D01*
Y1290000D01*
X8456411D01*
X8486911Y1252500D01*
X8489240Y1240795D01*
X8495870Y1230872D01*
X8537696Y1189046D01*
X8539999Y1140000D01*
X8539999Y1121095D01*
X8515999Y1076539D01*
X8334000D01*
X8318149Y1124366D01*
Y1147600D01*
X8086282D01*
X8081849Y1148482D01*
X8067904D01*
X8049038Y1167348D01*
Y1175500D01*
X8046904Y1186230D01*
X8040826Y1195327D01*
X8031729Y1201405D01*
X8020999Y1203539D01*
X7926723D01*
X7924999Y1203882D01*
X7802499D01*
Y1240000D01*
X7672500D01*
Y1110001D01*
X7672499D01*
Y1095000D01*
X7672500D01*
Y975000D01*
X7659999D01*
Y825001D01*
X7799999D01*
Y825000D01*
X7839000Y848462D01*
X8020999D01*
X8036849Y800635D01*
Y777400D01*
X8211618D01*
Y675000D01*
X8182500D01*
Y535000D01*
X8332499D01*
Y535000D01*
X8352500D01*
Y535000D01*
X8502499D01*
Y669927D01*
X8516477Y687433D01*
X8539037Y707500D01*
X8592569D01*
X8600141Y693512D01*
X8607897Y657501D01*
X8598634Y648237D01*
X8589500Y626185D01*
Y602315D01*
X8598634Y580263D01*
X8615512Y563384D01*
X8637565Y554250D01*
X8661434D01*
X8683487Y563384D01*
X8700365Y580263D01*
X8709499Y602315D01*
Y609364D01*
X8744386Y644250D01*
X8819499D01*
Y764250D01*
X8819500Y794250D01*
X8821627Y843368D01*
X8915851D01*
X9030959Y728260D01*
X8992559Y675406D01*
X9148699Y561964D01*
X9262142Y718104D01*
X9106001Y831547D01*
X9106002D01*
X9060988Y828004D01*
X8967299Y921693D01*
X8952414Y931639D01*
X8934856Y935131D01*
X8870240D01*
X8852936Y980443D01*
X8861934Y992500D01*
X8883987Y1001635D01*
X8900865Y1018513D01*
X8909999Y1040566D01*
Y1064435D01*
X8900865Y1086488D01*
X8883987Y1103366D01*
X8861934Y1112500D01*
X8838065D01*
X8824999Y1121230D01*
Y1140000D01*
X8730000Y1140001D01*
X8698968D01*
X8678257Y1190000D01*
X8694134Y1205877D01*
X8730000Y1240001D01*
X8824999D01*
Y1400000D01*
X8824999Y1400000D01*
X8827680Y1431750D01*
Y1494723D01*
X8877680Y1515434D01*
X9230766Y1162347D01*
Y987450D01*
X9225792Y985235D01*
X9206045Y969245D01*
X9191110Y948688D01*
X9182005Y924967D01*
X9179349Y899697D01*
X9183324Y874602D01*
X9193658Y851389D01*
X9209649Y831643D01*
X9230205Y816708D01*
X9253926Y807602D01*
X9279196Y804946D01*
X9304292Y808921D01*
X9327504Y819256D01*
X9347251Y835246D01*
X9362185Y855802D01*
X9371291Y879524D01*
X9373947Y904793D01*
X9369972Y929889D01*
X9359638Y953101D01*
X9343647Y972848D01*
X9323091Y987783D01*
X9322529Y987999D01*
Y1181352D01*
X9319037Y1198910D01*
X9309091Y1213795D01*
X8827680Y1695206D01*
Y1773250D01*
X8824983Y1786809D01*
X8817302Y1798303D01*
X8805808Y1805984D01*
X8792249Y1808681D01*
X8762749D01*
X8749191Y1805984D01*
X8710808D01*
X8697249Y1808681D01*
X8693589D01*
X8661414Y1822213D01*
X8647499Y1851935D01*
X8638365Y1873987D01*
X8621486Y1890866D01*
X8599434Y1900000D01*
D02*
G37*
G36*
X9899021Y2231834D02*
X9836755D01*
X9775021Y2223707D01*
X9714877Y2207591D01*
X9657350Y2183763D01*
X9603426Y2152630D01*
X9554027Y2114724D01*
X9509998Y2070696D01*
X9472093Y2021296D01*
X9440960Y1967372D01*
X9417131Y1909846D01*
X9401015Y1849701D01*
X9392888Y1787967D01*
Y1725701D01*
X9401015Y1663968D01*
X9417131Y1603823D01*
X9440960Y1546297D01*
X9472093Y1492372D01*
X9509998Y1442973D01*
X9554027Y1398944D01*
X9603426Y1361039D01*
X9657350Y1329906D01*
X9714877Y1306078D01*
X9775021Y1289962D01*
X9836755Y1281835D01*
X9899021D01*
X9960755Y1289962D01*
X10020899Y1306078D01*
X10078426Y1329906D01*
X10132350Y1361039D01*
X10181749Y1398944D01*
X10225778Y1442973D01*
X10263684Y1492372D01*
X10294817Y1546297D01*
X10318645Y1603823D01*
X10334761Y1663968D01*
X10342888Y1725701D01*
Y1787967D01*
X10334761Y1849701D01*
X10318645Y1909846D01*
X10294817Y1967372D01*
X10263684Y2021296D01*
X10225778Y2070696D01*
X10181749Y2114724D01*
X10132350Y2152630D01*
X10078426Y2183763D01*
X10020899Y2207591D01*
X9960755Y2223707D01*
X9899021Y2231834D01*
D02*
G37*
G36*
X5708050Y687500D02*
X5558051D01*
Y547500D01*
X5558050D01*
X5581512Y508499D01*
Y326500D01*
X5533685Y310650D01*
X5510450D01*
Y135881D01*
X5408050D01*
Y165000D01*
X5268050D01*
Y15000D01*
X5268050D01*
Y-5001D01*
X5268050D01*
Y-155000D01*
X5402977D01*
X5420483Y-168978D01*
X5440550Y-191538D01*
Y-315000D01*
X5510122D01*
X5558050Y-320001D01*
X5558050Y-359822D01*
X5558050Y-458247D01*
X5546342Y-480494D01*
X5521587Y-502680D01*
X5510796D01*
X5488743Y-511815D01*
X5471865Y-528693D01*
X5462731Y-550745D01*
Y-574615D01*
X5471865Y-596667D01*
X5488743Y-613546D01*
X5510796Y-622680D01*
X5515225D01*
X5558051Y-640000D01*
Y-640001D01*
X5558051Y-640000D01*
X5698050D01*
Y-568754D01*
X5748050Y-549853D01*
X5751563Y-553366D01*
X5773616Y-562500D01*
X5797485D01*
X5819538Y-553366D01*
X5829669Y-543234D01*
X5861560Y-549320D01*
X5879669Y-558563D01*
Y-922636D01*
X5883161Y-940194D01*
X5893107Y-955079D01*
X5943258Y-1005231D01*
X5991757Y-1174367D01*
X6177281Y-1121169D01*
X6124083Y-935645D01*
X6030329Y-962529D01*
X5971432Y-903631D01*
Y-526830D01*
X5973051Y-477500D01*
X6133050D01*
X6133050Y-477500D01*
X6164800Y-480181D01*
X6272300D01*
X6285859Y-477484D01*
X6297353Y-469803D01*
X6305034Y-458309D01*
X6307731Y-444750D01*
Y-418929D01*
X6310690Y-415790D01*
X6315780Y-415790D01*
X6363370Y-444750D01*
X6366067Y-458309D01*
X6373747Y-469803D01*
X6385241Y-477484D01*
X6398800Y-480181D01*
X6406669D01*
Y-815519D01*
X6329749Y-892439D01*
X6313098Y-888287D01*
X6287694Y-888731D01*
X6263269Y-895734D01*
X6241489Y-908821D01*
X6223839Y-927098D01*
X6211520Y-949321D01*
X6205373Y-973976D01*
X6205817Y-999381D01*
X6212820Y-1023805D01*
X6225907Y-1045585D01*
X6244185Y-1063235D01*
X6266408Y-1075554D01*
X6291062Y-1081701D01*
X6316467Y-1081257D01*
X6340892Y-1074254D01*
X6362671Y-1061167D01*
X6380322Y-1042889D01*
X6392640Y-1020666D01*
X6398787Y-996012D01*
X6398344Y-970607D01*
X6394557Y-957403D01*
X6484993Y-866967D01*
X6494939Y-852082D01*
X6498432Y-834524D01*
Y-480181D01*
X6506300D01*
X6519859Y-477484D01*
X6531353Y-469803D01*
X6539034Y-458309D01*
X6541731Y-444750D01*
Y-415250D01*
X6539034Y-401691D01*
Y-363309D01*
X6541731Y-349750D01*
Y-320250D01*
X6539034Y-306691D01*
Y-268309D01*
X6541731Y-254750D01*
Y-225250D01*
X6539034Y-211691D01*
X6531353Y-200197D01*
X6526399Y-196887D01*
X6516232Y-176000D01*
X6509135Y-143677D01*
X6509295Y-141060D01*
X6513800Y-130185D01*
Y-106316D01*
X6504666Y-84263D01*
X6487787Y-67385D01*
X6465735Y-58250D01*
X6441865D01*
X6423415Y-65893D01*
X6419813Y-67384D01*
X6419811Y-67385D01*
X6378459Y-70485D01*
X6361136Y-60733D01*
X6354537Y-54135D01*
X6332485Y-45000D01*
X6298050Y-40000D01*
X6298050Y-40000D01*
X6203050D01*
X6168050Y-40000D01*
X6118050Y-40000D01*
X6023050D01*
Y-108912D01*
X5985550Y-139412D01*
X5973845Y-141741D01*
X5963922Y-148371D01*
X5922096Y-190197D01*
X5873050Y-192500D01*
X5866697Y-192500D01*
X5854145D01*
X5809589Y-168500D01*
Y13500D01*
X5857416Y29350D01*
X5880650D01*
Y261218D01*
X5881532Y265650D01*
Y279595D01*
X5900398Y298461D01*
X5908550D01*
X5919280Y300596D01*
X5928377Y306674D01*
X5934454Y315770D01*
X5936589Y326500D01*
Y420776D01*
X5936932Y422500D01*
Y545000D01*
X5973050D01*
Y675000D01*
X5843051D01*
Y675000D01*
X5828050D01*
Y675000D01*
X5708050D01*
Y687500D01*
D02*
G37*
G36*
X2420500Y112000D02*
X2270500D01*
Y-28000D01*
X2270500D01*
X2293961Y-67001D01*
Y-249000D01*
X2246135Y-264850D01*
X2222900D01*
Y-439619D01*
X2120500D01*
Y-410500D01*
X1980500D01*
Y-560500D01*
X1980500D01*
Y-580501D01*
X1980500D01*
Y-730500D01*
X2115427D01*
X2132933Y-744478D01*
X2153000Y-767038D01*
X2153000Y-890500D01*
X2151266Y-890871D01*
X2105180Y-900320D01*
Y-900320D01*
X2059322Y-910320D01*
X2053245D01*
X2031193Y-919455D01*
X2014314Y-936333D01*
X2005180Y-958385D01*
Y-982255D01*
X2014314Y-1004307D01*
X2031193Y-1021186D01*
X2053245Y-1030320D01*
X2059322D01*
X2105180Y-1040320D01*
X2105180Y-1040320D01*
X2105181Y-1040320D01*
X2225180D01*
X2255180Y-1040320D01*
X2313656Y-1040320D01*
Y-1248597D01*
X2306938Y-1253478D01*
X2306938D01*
X2247298Y-1437032D01*
X2430852Y-1496672D01*
X2490492Y-1313118D01*
X2405419Y-1285476D01*
Y-1135600D01*
X2416308Y-1129436D01*
X2455419Y-1120272D01*
X2464013Y-1128866D01*
X2486065Y-1138000D01*
X2509935D01*
X2531987Y-1128866D01*
X2548866Y-1111987D01*
X2558000Y-1089935D01*
Y-1066066D01*
X2566730Y-1053000D01*
X2585500D01*
X2585500Y-958000D01*
Y-926968D01*
X2635500Y-906258D01*
X2651377Y-922135D01*
X2685500Y-958001D01*
Y-1053000D01*
X2845500D01*
X2845500Y-1053000D01*
X2877250Y-1055681D01*
X2940223D01*
X2951913Y-1071506D01*
X2960933Y-1105681D01*
X2686720Y-1379894D01*
X2673677Y-1379553D01*
X2652367Y-1365714D01*
X2628202Y-1357862D01*
X2602828Y-1356532D01*
X2577974Y-1361815D01*
X2555335Y-1373351D01*
X2536452Y-1390353D01*
X2522613Y-1411662D01*
X2514762Y-1435828D01*
X2513432Y-1461202D01*
X2518715Y-1486055D01*
X2530250Y-1508695D01*
X2547252Y-1527577D01*
X2568562Y-1541416D01*
X2592727Y-1549268D01*
X2618101Y-1550598D01*
X2642955Y-1545315D01*
X2665594Y-1533779D01*
X2684477Y-1516778D01*
X2698315Y-1495468D01*
X2703826Y-1478509D01*
X2715202Y-1476246D01*
X2730086Y-1466300D01*
X3035151Y-1161235D01*
X3140706Y-1055681D01*
X3218750D01*
X3232309Y-1052984D01*
X3243803Y-1045303D01*
X3251484Y-1033809D01*
X3254181Y-1020250D01*
Y-990750D01*
X3251484Y-977191D01*
Y-938809D01*
X3254181Y-925250D01*
Y-895750D01*
X3251484Y-882191D01*
Y-843809D01*
X3254181Y-830250D01*
Y-800750D01*
X3251484Y-787191D01*
X3243803Y-775697D01*
X3231303Y-761562D01*
X3225180Y-722255D01*
Y-698385D01*
X3216045Y-676333D01*
X3199167Y-659455D01*
X3177115Y-650320D01*
X3153245D01*
X3139194Y-656140D01*
X3129051Y-658869D01*
X3083992Y-646548D01*
X3078775Y-641423D01*
X3066987Y-629635D01*
X3044935Y-620500D01*
X3010500Y-615500D01*
X3010499Y-615500D01*
X2915500D01*
X2880500Y-615500D01*
X2830500Y-615500D01*
X2735500D01*
Y-684412D01*
X2698000Y-714912D01*
X2686295Y-717241D01*
X2676371Y-723871D01*
X2634546Y-765697D01*
X2585500Y-768000D01*
X2566594Y-768000D01*
X2522039Y-744000D01*
Y-562000D01*
X2569865Y-546150D01*
X2593100D01*
Y-314282D01*
X2593982Y-309850D01*
Y-295905D01*
X2612848Y-277039D01*
X2621000D01*
X2631730Y-274904D01*
X2640826Y-268826D01*
X2646904Y-259730D01*
X2649039Y-249000D01*
Y-154724D01*
X2649382Y-153000D01*
Y-30500D01*
X2685500D01*
Y99500D01*
X2555501D01*
Y99500D01*
X2540499D01*
Y99500D01*
X2420500D01*
Y112000D01*
D02*
G37*
G36*
X8504608Y332646D02*
X8442342D01*
X8380608Y324519D01*
X8320463Y308403D01*
X8262937Y284574D01*
X8209013Y253441D01*
X8159613Y215536D01*
X8115584Y171507D01*
X8077679Y122108D01*
X8046546Y68184D01*
X8022718Y10657D01*
X8006602Y-49487D01*
X7998475Y-111221D01*
Y-173487D01*
X8006602Y-235221D01*
X8022718Y-295365D01*
X8046546Y-352892D01*
X8077679Y-406816D01*
X8115584Y-456215D01*
X8159613Y-500244D01*
X8209013Y-538150D01*
X8262937Y-569283D01*
X8320463Y-593111D01*
X8380608Y-609227D01*
X8442342Y-617354D01*
X8504608D01*
X8566341Y-609227D01*
X8626486Y-593111D01*
X8684012Y-569283D01*
X8737937Y-538150D01*
X8787336Y-500244D01*
X8831365Y-456215D01*
X8869270Y-406816D01*
X8900403Y-352892D01*
X8924231Y-295365D01*
X8940347Y-235221D01*
X8948474Y-173487D01*
Y-111221D01*
X8940347Y-49487D01*
X8924231Y10657D01*
X8900403Y68184D01*
X8869270Y122108D01*
X8831365Y171507D01*
X8787336Y215536D01*
X8737937Y253441D01*
X8684012Y284574D01*
X8626486Y308403D01*
X8566341Y324519D01*
X8504608Y332646D01*
D02*
G37*
G36*
X1358401Y-529421D02*
X1296135D01*
X1234401Y-537548D01*
X1174256Y-553664D01*
X1116730Y-577492D01*
X1062806Y-608625D01*
X1013407Y-646530D01*
X969378Y-690559D01*
X931472Y-739958D01*
X900339Y-793883D01*
X876511Y-851409D01*
X860395Y-911554D01*
X852268Y-973287D01*
Y-1035553D01*
X860395Y-1097287D01*
X876511Y-1157432D01*
X900339Y-1214958D01*
X931472Y-1268882D01*
X969378Y-1318282D01*
X1013407Y-1362310D01*
X1062806Y-1400216D01*
X1116730Y-1431349D01*
X1174256Y-1455177D01*
X1234401Y-1471293D01*
X1296135Y-1479420D01*
X1358401D01*
X1420135Y-1471293D01*
X1480279Y-1455177D01*
X1537806Y-1431349D01*
X1591730Y-1400216D01*
X1641129Y-1362310D01*
X1685158Y-1318282D01*
X1723063Y-1268882D01*
X1754196Y-1214958D01*
X1778025Y-1157432D01*
X1794140Y-1097287D01*
X1802268Y-1035553D01*
Y-973287D01*
X1794140Y-911554D01*
X1778025Y-851409D01*
X1754196Y-793883D01*
X1723063Y-739958D01*
X1685158Y-690559D01*
X1641129Y-646530D01*
X1591730Y-608625D01*
X1537806Y-577492D01*
X1480279Y-553664D01*
X1420135Y-537548D01*
X1358401Y-529421D01*
D02*
G37*
G36*
X3596271Y-1270027D02*
X3534005D01*
X3472271Y-1278154D01*
X3412126Y-1294270D01*
X3354600Y-1318098D01*
X3300676Y-1349231D01*
X3251276Y-1387137D01*
X3207248Y-1431166D01*
X3169342Y-1480565D01*
X3138209Y-1534489D01*
X3114381Y-1592016D01*
X3098265Y-1652160D01*
X3090138Y-1713894D01*
Y-1776160D01*
X3098265Y-1837894D01*
X3114381Y-1898038D01*
X3138209Y-1955565D01*
X3169342Y-2009489D01*
X3207248Y-2058888D01*
X3251276Y-2102917D01*
X3300676Y-2140822D01*
X3354600Y-2171956D01*
X3412126Y-2195784D01*
X3472271Y-2211900D01*
X3534005Y-2220027D01*
X3596271D01*
X3658004Y-2211900D01*
X3718149Y-2195784D01*
X3775675Y-2171956D01*
X3829600Y-2140822D01*
X3878999Y-2102917D01*
X3923028Y-2058888D01*
X3960933Y-2009489D01*
X3992066Y-1955565D01*
X4015894Y-1898038D01*
X4032010Y-1837894D01*
X4040137Y-1776160D01*
Y-1713894D01*
X4032010Y-1652160D01*
X4015894Y-1592016D01*
X3992066Y-1534489D01*
X3960933Y-1480565D01*
X3923028Y-1431166D01*
X3878999Y-1387137D01*
X3829600Y-1349231D01*
X3775675Y-1318098D01*
X3718149Y-1294270D01*
X3658004Y-1278154D01*
X3596271Y-1270027D01*
D02*
G37*
%LPD*%
G36*
X6582500Y4965000D02*
X6327500D01*
Y5355000D01*
X6582500D01*
Y4965000D01*
D02*
G37*
G36*
X7130000Y4754872D02*
X7125581Y4751919D01*
X7121160Y4745303D01*
X7119608Y4737500D01*
Y4712500D01*
X6672500D01*
Y4722500D01*
X6657500D01*
Y4940710D01*
X6670200Y4948921D01*
X6678250Y4947320D01*
X6785750D01*
X6799309Y4950017D01*
X6810803Y4957697D01*
X6818483Y4969191D01*
X6821180Y4982750D01*
Y5012250D01*
X6818483Y5025809D01*
X6810803Y5037303D01*
X6799309Y5044984D01*
X6785750Y5047681D01*
X6678250D01*
X6670200Y5046079D01*
X6657500Y5054290D01*
Y5362500D01*
X7130000D01*
Y4754872D01*
D02*
G37*
G36*
X6507500Y4312500D02*
X6450000Y4255000D01*
X6092500D01*
X6040000Y4307500D01*
Y4490000D01*
X6115000Y4565000D01*
X6507500D01*
Y4312500D01*
D02*
G37*
G36*
X7590000Y4203810D02*
X7519870Y4133680D01*
X7435034Y4132534D01*
X7430000Y4137500D01*
Y4137500D01*
X7411972D01*
X7410000Y4137892D01*
X7362500D01*
Y4432500D01*
Y4735000D01*
X7590000Y4735000D01*
Y4203810D01*
D02*
G37*
G36*
X7287500Y4117500D02*
X7410000D01*
Y3992697D01*
X7053150D01*
Y4015100D01*
X7045000D01*
Y4125000D01*
X6915000D01*
Y4275000D01*
X6725000D01*
Y4642500D01*
X7140000D01*
Y4737500D01*
X7287500D01*
Y4117500D01*
D02*
G37*
D10*
X6740000Y5230000D02*
D03*
X6510000D02*
D03*
D11*
X7518500Y4585000D02*
D03*
X7221500D02*
D03*
D12*
X6732000Y4997500D02*
D03*
Y4902500D02*
D03*
Y4807500D02*
D03*
X6498000D02*
D03*
Y4902500D02*
D03*
Y4997500D02*
D03*
X2931000Y-1005500D02*
D03*
Y-910500D02*
D03*
Y-815500D02*
D03*
X3165000D02*
D03*
Y-910500D02*
D03*
Y-1005500D02*
D03*
X6218550Y-430000D02*
D03*
Y-335000D02*
D03*
Y-240000D02*
D03*
X6452550D02*
D03*
Y-335000D02*
D03*
Y-430000D02*
D03*
X5678170Y9069070D02*
D03*
Y8974070D02*
D03*
Y8879070D02*
D03*
X5444170D02*
D03*
Y8974070D02*
D03*
Y9069070D02*
D03*
X2393500Y9768979D02*
D03*
Y9673979D02*
D03*
Y9578979D02*
D03*
X2159500D02*
D03*
Y9673979D02*
D03*
Y9768979D02*
D03*
X264092Y7359350D02*
D03*
Y7264350D02*
D03*
Y7169350D02*
D03*
X30092D02*
D03*
Y7264350D02*
D03*
Y7359350D02*
D03*
D13*
X6367500Y5000000D02*
D03*
Y4890000D02*
D03*
D14*
X6312500Y3472500D02*
D03*
X6407500D02*
D03*
X6502500D02*
D03*
Y3732500D02*
D03*
X6312500D02*
D03*
X6407500D02*
D03*
X-1171750Y4320750D02*
D03*
X-1076750D02*
D03*
X-981750D02*
D03*
Y4580750D02*
D03*
X-1171750D02*
D03*
X-1076750D02*
D03*
X257796Y1577500D02*
D03*
X352796D02*
D03*
X447796D02*
D03*
Y1837499D02*
D03*
X257796D02*
D03*
X352796D02*
D03*
X8777499Y1320000D02*
D03*
X8682499D02*
D03*
X8587499D02*
D03*
Y1060000D02*
D03*
X8777499D02*
D03*
X8682499D02*
D03*
X9312500Y4330000D02*
D03*
X9217500D02*
D03*
X9122500D02*
D03*
Y4070000D02*
D03*
X9312500D02*
D03*
X9217500D02*
D03*
X8789427Y7127898D02*
D03*
X8694427D02*
D03*
X8599427D02*
D03*
Y6867898D02*
D03*
X8789427D02*
D03*
X8694427D02*
D03*
D15*
X6637500Y3437500D02*
D03*
Y3292500D02*
D03*
X7352500Y3762500D02*
D03*
Y3617500D02*
D03*
X6492500Y4020000D02*
D03*
Y3875000D02*
D03*
X-846750Y4285750D02*
D03*
Y4140750D02*
D03*
X-131750Y4610750D02*
D03*
Y4465750D02*
D03*
X-991750Y4868250D02*
D03*
Y4723250D02*
D03*
X582796Y1542500D02*
D03*
Y1397500D02*
D03*
X1297796Y1867500D02*
D03*
Y1722500D02*
D03*
X437796Y2125000D02*
D03*
Y1980000D02*
D03*
X8452499Y1355000D02*
D03*
Y1500000D02*
D03*
X8597499Y772500D02*
D03*
Y917500D02*
D03*
X7737499Y1030000D02*
D03*
Y1175000D02*
D03*
X8272500Y4040000D02*
D03*
Y4185000D02*
D03*
X9132500Y3782500D02*
D03*
Y3927500D02*
D03*
X8987500Y4365000D02*
D03*
Y4510000D02*
D03*
X8609427Y6580398D02*
D03*
Y6725398D02*
D03*
X7749427Y6837898D02*
D03*
Y6982898D02*
D03*
X8464427Y7162898D02*
D03*
Y7307898D02*
D03*
D16*
X6312500Y3307000D02*
D03*
X6407500D02*
D03*
X6502500D02*
D03*
Y3073000D02*
D03*
X6407500D02*
D03*
X6312500D02*
D03*
X-1171750Y4155250D02*
D03*
X-1076750D02*
D03*
X-981750D02*
D03*
Y3921250D02*
D03*
X-1076750D02*
D03*
X-1171750D02*
D03*
X257796Y1412000D02*
D03*
X352796D02*
D03*
X447796D02*
D03*
Y1178000D02*
D03*
X352796D02*
D03*
X257796D02*
D03*
X8777499Y1485500D02*
D03*
X8682499D02*
D03*
X8587499D02*
D03*
Y1719500D02*
D03*
X8682499D02*
D03*
X8777499D02*
D03*
X9312500Y4495500D02*
D03*
X9217500D02*
D03*
X9122500D02*
D03*
Y4729500D02*
D03*
X9217500D02*
D03*
X9312500D02*
D03*
X8789427Y7293398D02*
D03*
X8694427D02*
D03*
X8599427D02*
D03*
Y7527398D02*
D03*
X8694427D02*
D03*
X8789427D02*
D03*
D17*
X6912500Y3830000D02*
D03*
X-571750Y4678250D02*
D03*
X857796Y1935000D02*
D03*
X8177499Y962500D02*
D03*
X8712500Y3972500D02*
D03*
X8189427Y6770398D02*
D03*
D18*
X6665000Y3639500D02*
D03*
Y3766500D02*
D03*
Y3893500D02*
D03*
Y4020500D02*
D03*
X7160000D02*
D03*
Y3893500D02*
D03*
Y3766500D02*
D03*
Y3639500D02*
D03*
X-819250Y4487750D02*
D03*
Y4614750D02*
D03*
Y4741750D02*
D03*
Y4868750D02*
D03*
X-324250D02*
D03*
Y4741750D02*
D03*
Y4614750D02*
D03*
Y4487750D02*
D03*
X610296Y1744500D02*
D03*
Y1871500D02*
D03*
Y1998500D02*
D03*
Y2125500D02*
D03*
X1105296D02*
D03*
Y1998500D02*
D03*
Y1871500D02*
D03*
Y1744500D02*
D03*
X8424999Y1153000D02*
D03*
Y1026000D02*
D03*
Y899000D02*
D03*
Y772000D02*
D03*
X7929999D02*
D03*
Y899000D02*
D03*
Y1026000D02*
D03*
Y1153000D02*
D03*
X8960000Y4163000D02*
D03*
Y4036000D02*
D03*
Y3909000D02*
D03*
Y3782000D02*
D03*
X8465000D02*
D03*
Y3909000D02*
D03*
Y4036000D02*
D03*
Y4163000D02*
D03*
X8436927Y6960898D02*
D03*
Y6833898D02*
D03*
Y6706898D02*
D03*
Y6579898D02*
D03*
X7941927D02*
D03*
Y6706898D02*
D03*
Y6833898D02*
D03*
Y6960898D02*
D03*
D19*
X6175000Y4020000D02*
D03*
X6345000D02*
D03*
X6832500Y4187500D02*
D03*
X6662500D02*
D03*
X-651750Y5035750D02*
D03*
X-821750D02*
D03*
X-1306750Y4745750D02*
D03*
X-1136750D02*
D03*
X777796Y2292500D02*
D03*
X607796D02*
D03*
X122796Y2002500D02*
D03*
X292796D02*
D03*
X2345500Y42000D02*
D03*
X2175500D02*
D03*
X2180180Y-970320D02*
D03*
X2350180D02*
D03*
X5633050Y617500D02*
D03*
X5463050D02*
D03*
X8257499Y605000D02*
D03*
X8427500D02*
D03*
X8792500Y3615000D02*
D03*
X8962500D02*
D03*
X9447500Y3905000D02*
D03*
X9277500D02*
D03*
X8924427Y6702898D02*
D03*
X8754427D02*
D03*
X8269427Y6412898D02*
D03*
X8439427D02*
D03*
X6263670Y8021570D02*
D03*
X6433670D02*
D03*
X2979000Y8721479D02*
D03*
X3149000D02*
D03*
X849592Y6311850D02*
D03*
X1019592D02*
D03*
D20*
X6462500Y4657500D02*
D03*
X6607500D02*
D03*
Y4517500D02*
D03*
X6462500D02*
D03*
X2800500Y-680500D02*
D03*
X2945500D02*
D03*
X2475500Y34500D02*
D03*
X2620500D02*
D03*
X2218000Y-825500D02*
D03*
X2363000D02*
D03*
X6088050Y-105000D02*
D03*
X6233050D02*
D03*
X5505550Y-250000D02*
D03*
X5650550D02*
D03*
X5763050Y610000D02*
D03*
X5908050D02*
D03*
X5808670Y8744070D02*
D03*
X5663670D02*
D03*
X6133670Y8029070D02*
D03*
X5988670D02*
D03*
X6391170Y8889070D02*
D03*
X6246170D02*
D03*
X2849000Y8728979D02*
D03*
X2704000D02*
D03*
X3106500Y9588979D02*
D03*
X2961500D02*
D03*
X2524000Y9443979D02*
D03*
X2379000D02*
D03*
X394592Y7034350D02*
D03*
X249592D02*
D03*
X719592Y6319350D02*
D03*
X574592D02*
D03*
X977092Y7179350D02*
D03*
X832092D02*
D03*
D21*
X6662500Y4317500D02*
D03*
X6772500D02*
D03*
D22*
X7360000Y3892500D02*
D03*
Y4062500D02*
D03*
X-124250Y4740750D02*
D03*
Y4910750D02*
D03*
X1305296Y1997499D02*
D03*
Y2167500D02*
D03*
X2050500Y-485500D02*
D03*
Y-655500D02*
D03*
X5628050Y-565000D02*
D03*
Y-395000D02*
D03*
X5338050Y90000D02*
D03*
Y-80000D02*
D03*
X8749499Y719250D02*
D03*
Y889250D02*
D03*
X7729999Y900000D02*
D03*
Y730000D02*
D03*
X8265000Y3910000D02*
D03*
Y3740000D02*
D03*
X7741927Y6707898D02*
D03*
Y6537898D02*
D03*
X6558670Y8549070D02*
D03*
Y8719070D02*
D03*
X6268670Y9204070D02*
D03*
Y9034070D02*
D03*
X3274000Y9248979D02*
D03*
Y9418979D02*
D03*
X2984000Y9903979D02*
D03*
Y9733979D02*
D03*
X1144842Y6839100D02*
D03*
Y7009100D02*
D03*
X853342Y7493100D02*
D03*
Y7323100D02*
D03*
D23*
X2765500Y-1005500D02*
D03*
Y-910500D02*
D03*
Y-815500D02*
D03*
X2505500D02*
D03*
Y-1005500D02*
D03*
Y-910500D02*
D03*
X6053050Y-430000D02*
D03*
Y-335000D02*
D03*
Y-240000D02*
D03*
X5793050D02*
D03*
Y-430000D02*
D03*
Y-335000D02*
D03*
X5843670Y9069070D02*
D03*
Y8974070D02*
D03*
Y8879070D02*
D03*
X6103670D02*
D03*
Y9069070D02*
D03*
Y8974070D02*
D03*
X2559000Y9768979D02*
D03*
Y9673979D02*
D03*
Y9578979D02*
D03*
X2819000D02*
D03*
Y9768979D02*
D03*
Y9673979D02*
D03*
X429592Y7359350D02*
D03*
Y7264350D02*
D03*
Y7169350D02*
D03*
X689592D02*
D03*
Y7359350D02*
D03*
Y7264350D02*
D03*
D24*
X2408000Y-405500D02*
D03*
X5695550Y170000D02*
D03*
X6201170Y8469070D02*
D03*
X787092Y6759350D02*
D03*
X2916500Y9168979D02*
D03*
D25*
X2598500Y-653000D02*
D03*
X2471500D02*
D03*
X2344500D02*
D03*
X2217500D02*
D03*
Y-158000D02*
D03*
X2344500D02*
D03*
X2471500D02*
D03*
X2598500D02*
D03*
X5886050Y-77500D02*
D03*
X5759050D02*
D03*
X5632050D02*
D03*
X5505050D02*
D03*
Y417500D02*
D03*
X5632050D02*
D03*
X5759050D02*
D03*
X5886050D02*
D03*
X6010670Y8716570D02*
D03*
X6137670D02*
D03*
X6264670D02*
D03*
X6391670D02*
D03*
Y8221570D02*
D03*
X6264670D02*
D03*
X6137670D02*
D03*
X6010670D02*
D03*
X596592Y7006850D02*
D03*
X723592D02*
D03*
X850592D02*
D03*
X977592D02*
D03*
Y6511850D02*
D03*
X850592D02*
D03*
X723592D02*
D03*
X596592D02*
D03*
X2726000Y8921479D02*
D03*
X2853000D02*
D03*
X2980000D02*
D03*
X3107000D02*
D03*
Y9416479D02*
D03*
X2980000D02*
D03*
X2853000D02*
D03*
X2726000D02*
D03*
D26*
X6225000Y4741000D02*
D03*
Y4444000D02*
D03*
D27*
X2598500Y-584500D02*
X2652896Y-530104D01*
X2598500Y-653000D02*
Y-584500D01*
X6499250Y4901250D02*
X6588750D01*
X6590000Y4900000D01*
X6498000Y4902500D02*
X6499250Y4901250D01*
X6832500Y3955000D02*
X6842500Y3945000D01*
X6832500Y3955000D02*
Y4187500D01*
X8934856Y889250D02*
X9127350Y696755D01*
X8749499Y889250D02*
X8934856D01*
X8679999Y1000000D02*
Y1057500D01*
X8597499Y917500D02*
X8679999Y1000000D01*
Y1057500D02*
X8682499Y1060000D01*
X8777499Y1680500D02*
X9276648Y1181352D01*
X8777499Y1680500D02*
Y1719500D01*
X9276648Y902245D02*
Y1181352D01*
X8587499Y1719500D02*
Y1840000D01*
X8597499Y917500D02*
X8625750Y889250D01*
X8749499D01*
X30092Y7359350D02*
Y7481642D01*
X-170077Y7681811D02*
X30092Y7481642D01*
X5971170Y9021570D02*
Y9391141D01*
X6210784Y9630755D01*
X5444170Y9184199D02*
X5969216Y9709245D01*
X5444170Y9069070D02*
Y9184199D01*
X8694427Y7293398D02*
Y7527398D01*
X2551451Y9988906D02*
X2656500Y9883856D01*
X2708675Y9673979D02*
X2819000D01*
X2656500Y9726154D02*
X2708675Y9673979D01*
X2656500Y9726154D02*
Y9883856D01*
X2551451Y9988906D02*
Y10217131D01*
X2972750Y9717729D02*
X2984000Y9728979D01*
X2959000Y9703979D02*
X2972750Y9717729D01*
Y9600229D02*
Y9717729D01*
X2851500Y9673979D02*
X2881500Y9703979D01*
X2984000Y9728979D02*
Y9733979D01*
X2881500Y9703979D02*
X2959000D01*
X2819000Y9673979D02*
X2851500D01*
X2961500Y9588979D02*
X2972750Y9600229D01*
X2159500Y9993819D02*
X2308549Y10142869D01*
X2159500Y9768979D02*
Y9993819D01*
X269283Y7598983D02*
X330492D01*
X555842Y7310600D02*
Y7373633D01*
X30077Y7838189D02*
X269283Y7598983D01*
X330492D02*
X555842Y7373633D01*
X30092Y7264350D02*
X264092D01*
X-1370098Y4158598D02*
X-1171750Y3960250D01*
X-1767543Y4158598D02*
X-1370098D01*
X-1171750Y3921250D02*
Y3960250D01*
X-1729131Y4437368D02*
X-1128717D01*
X-1754249Y4412250D02*
X-1729131Y4437368D01*
X9312500Y4690500D02*
X9613792Y4389207D01*
X9723442D02*
X9743150Y4369499D01*
X9312500Y4690500D02*
Y4729500D01*
X9613792Y4389207D02*
X9723442D01*
X9627780Y4167000D02*
X9691650D01*
X9743150Y4115500D01*
X9613150Y4181630D02*
X9627780Y4167000D01*
X9247500Y4132500D02*
Y4145533D01*
X9283597Y4181630D01*
X9613150D01*
X9217500Y4070000D02*
Y4102500D01*
X9247500Y4132500D01*
X9143750Y3916250D02*
X9261250D01*
X9272500Y3905000D01*
X9220000Y3957500D02*
X9261250Y3916250D01*
X9272500Y3905000D02*
X9277500D01*
X9217500Y4070000D02*
X9220000Y4067500D01*
Y3957500D02*
Y4067500D01*
X9132500Y3927500D02*
X9143750Y3916250D01*
X3002708Y-1128792D02*
X3126000Y-1005500D01*
X2697643Y-1433857D02*
X3002708Y-1128792D01*
X2610464Y-1453565D02*
X2630173Y-1433857D01*
X3126000Y-1005500D02*
X3165000D01*
X2630173Y-1433857D02*
X2697643D01*
X2350180Y-970320D02*
X2359538Y-979678D01*
Y-1365717D02*
X2368895Y-1375075D01*
X2359538Y-1365717D02*
Y-979678D01*
X6302080Y-984994D02*
X6452550Y-834524D01*
Y-430000D01*
X5925550Y-922636D02*
X6057920Y-1055006D01*
X3165000Y-815500D02*
X3165090Y-815410D01*
Y-710410D01*
X3165180Y-710320D01*
X2945500Y-680500D02*
X3033000D01*
X33124Y1739999D02*
X300829D01*
X-372844Y1334032D02*
X33124Y1739999D01*
X-199284Y1125968D02*
X-147252Y1178000D01*
X257796D01*
X-227156Y1125968D02*
X-199284D01*
X5522730Y-562680D02*
X5523890Y-563840D01*
X5626890D02*
X5628050Y-565000D01*
X5523890Y-563840D02*
X5626890D01*
X9021927Y7091398D02*
Y7524504D01*
X9226576Y7729153D01*
X8789427Y7646792D02*
X9077278Y7934643D01*
X8789427Y7527398D02*
Y7646792D01*
X8599427Y7527398D02*
Y7646898D01*
X5318670Y8881070D02*
X5319670Y8880070D01*
X5443170D02*
X5444170Y8879070D01*
X5319670Y8880070D02*
X5443170D01*
X555842Y7310600D02*
X599591Y7266850D01*
X687092D02*
X689592Y7264350D01*
X599591Y7266850D02*
X687092D01*
X-1079250Y4486835D02*
Y4578250D01*
X-1128717Y4437368D02*
X-1079250Y4486835D01*
Y4578250D02*
X-1076750Y4580750D01*
X322796Y1774999D02*
X352796Y1804999D01*
X300829Y1739999D02*
X322796Y1761967D01*
X352796Y1804999D02*
Y1837499D01*
X322796Y1761967D02*
Y1774999D01*
X2356590Y-895500D02*
Y-831910D01*
Y-963910D02*
Y-895500D01*
X2371590Y-910500D01*
X2505500D01*
X2356590Y-831910D02*
X2363000Y-825500D01*
X2350180Y-970320D02*
X2356590Y-963910D01*
X2065180Y-970320D02*
X2180180D01*
X8749499Y714250D02*
Y719250D01*
X8649500Y614250D02*
X8749499Y714250D01*
X1144842Y6718600D02*
Y6839100D01*
X2159500Y9458479D02*
Y9578979D01*
X-91658Y7170600D02*
X-90408Y7169350D01*
X30092D02*
X31342Y7168100D01*
X-90408Y7169350D02*
X30092D01*
X-981750Y3921250D02*
X-861250D01*
X6452550Y-119500D02*
X6453800Y-118250D01*
X6451300Y-241250D02*
X6452550Y-240000D01*
Y-119500D01*
X9000750Y4730749D02*
X9002000Y4729500D01*
X9122500D02*
X9123750Y4728249D01*
X9002000Y4729500D02*
X9122500D01*
X8586249Y1718250D02*
X8587499Y1719500D01*
X6501250Y2951250D02*
Y3071750D01*
X6502500Y3073000D01*
X6500000Y2950000D02*
X6501250Y2951250D01*
X6912500Y3785550D02*
X7008150Y3689900D01*
X6492500Y4020000D02*
X6492500Y4020000D01*
X6345000Y4020000D02*
X6492500D01*
X6178087Y4118087D02*
X6180000Y4120000D01*
X6175000Y4020000D02*
X6178087Y4023087D01*
Y4118087D01*
X6080000Y3509000D02*
X6131500Y3560500D01*
X6191053D01*
X6220553Y3590000D01*
X6350000D01*
X6405000Y3645000D02*
Y3730000D01*
X6407500Y3732500D01*
X6350000Y3590000D02*
X6405000Y3645000D01*
X6410000Y3735000D02*
Y3792500D01*
X6492500Y3875000D01*
X6407500Y3732500D02*
X6410000Y3735000D01*
X6310000D02*
Y3738087D01*
Y3735000D02*
X6312500Y3732500D01*
X6240000Y3740000D02*
X6241913Y3738087D01*
X6310000D01*
X6551250Y4188750D02*
X6661250D01*
X6550000Y4190000D02*
X6551250Y4188750D01*
X6661250D02*
X6662500Y4187500D01*
Y4317500D01*
X6662500D01*
X6493000Y4020500D02*
X6665000D01*
X6492500Y4020000D02*
X6493000Y4020500D01*
X447796Y1178000D02*
X448300Y1178503D01*
X527292D01*
X527796Y1179007D01*
X777796Y2059999D02*
Y2292500D01*
Y2059999D02*
X787795Y2050000D01*
X607796Y2128000D02*
Y2292500D01*
Y2128000D02*
X610296Y2125500D01*
X309046Y1991250D02*
X426546D01*
X322796Y1900000D02*
X352796Y1870000D01*
X322796Y1900000D02*
Y1977499D01*
X309046Y1991250D02*
X322796Y1977499D01*
X352796Y1837499D02*
Y1870000D01*
X304046Y1991250D02*
X309046D01*
X124046Y2093750D02*
X125296Y2095000D01*
X122796Y2002500D02*
X124046Y2003750D01*
Y2093750D01*
X292796Y2002500D02*
X304046Y1991250D01*
X426546D02*
X437796Y1980000D01*
X255296Y1840000D02*
X257796Y1837499D01*
X187209Y1843086D02*
X255296D01*
Y1840000D02*
Y1843086D01*
X185296Y1845000D02*
X187209Y1843086D01*
X257796Y1419500D02*
Y1577500D01*
X447796Y1419500D02*
Y1577500D01*
X582796Y1310000D02*
Y1397500D01*
X1107296Y1869500D02*
X1295796D01*
X1304796Y1998000D02*
X1305296Y1997499D01*
X1280796Y1739500D02*
X1297796Y1722500D01*
X1110296Y1739500D02*
X1280796D01*
X1295796Y1869500D02*
X1297796Y1867500D01*
X610046Y2125249D02*
X610296Y2125500D01*
X437796Y2125000D02*
X438046Y2125249D01*
X610046D01*
X1036795Y1744500D02*
X1105296D01*
X1105796Y1998000D02*
X1304796D01*
X1105296Y1744500D02*
X1110296Y1739500D01*
X986396Y1794900D02*
X1036795Y1744500D01*
X953446Y1794900D02*
X986396D01*
X857796Y1935000D02*
X921296Y1998500D01*
X1105296Y1871500D02*
X1107296Y1869500D01*
X857796Y1890550D02*
Y1935000D01*
Y1890550D02*
X953446Y1794900D01*
X921296Y1998500D02*
X1105296D01*
X1105796Y1998000D01*
X-324250Y4741750D02*
X-323750Y4741250D01*
X-508250Y4741750D02*
X-324250D01*
X-571750Y4633800D02*
X-476100Y4538150D01*
X-571750Y4633800D02*
Y4678250D01*
X-324250Y4614750D02*
X-322250Y4612750D01*
X-571750Y4678250D02*
X-508250Y4741750D01*
X-476100Y4538150D02*
X-443150D01*
X-392751Y4487750D01*
X-324250D02*
X-319250Y4482750D01*
X-323750Y4741250D02*
X-124750D01*
X-392751Y4487750D02*
X-324250D01*
X-991500Y4868500D02*
X-819500D01*
X-991750Y4868250D02*
X-991500Y4868500D01*
X-819500D02*
X-819250Y4868750D01*
X-133750Y4612750D02*
X-131750Y4610750D01*
X-319250Y4482750D02*
X-148750D01*
X-131750Y4465750D01*
X-124750Y4741250D02*
X-124250Y4740750D01*
X-322250Y4612750D02*
X-133750D01*
X-846750Y4053250D02*
Y4140750D01*
X-981750Y4162750D02*
Y4320750D01*
X-1171750Y4162750D02*
Y4320750D01*
X-1244250Y4588250D02*
X-1242337Y4586337D01*
X-1174250Y4583250D02*
Y4586337D01*
X-1242337D02*
X-1174250D01*
Y4583250D02*
X-1171750Y4580750D01*
X-1003000Y4734500D02*
X-991750Y4723250D01*
X-1136750Y4745750D02*
X-1125500Y4734500D01*
X-1305500Y4747000D02*
Y4837000D01*
X-1306750Y4745750D02*
X-1305500Y4747000D01*
Y4837000D02*
X-1304250Y4838250D01*
X-1125500Y4734500D02*
X-1120500D01*
X-1076750Y4580750D02*
Y4613250D01*
X-1120500Y4734500D02*
X-1106750Y4720750D01*
Y4643250D02*
Y4720750D01*
Y4643250D02*
X-1076750Y4613250D01*
X-1120500Y4734500D02*
X-1003000D01*
X-821750Y4871250D02*
X-819250Y4868750D01*
X-821750Y4871250D02*
Y5035750D01*
X-651750Y4803250D02*
X-641751Y4793250D01*
X-651750Y4803250D02*
Y5035750D01*
X5338050Y90000D02*
X5570550D01*
X5580550Y100000D01*
X5338050Y-80000D02*
X5502550D01*
X5505050Y-77500D01*
X5639300Y-378750D02*
Y-261250D01*
X5730550Y-365000D02*
X5760550Y-335000D01*
X5653050Y-365000D02*
X5730550D01*
X5639300Y-378750D02*
X5653050Y-365000D01*
X5760550Y-335000D02*
X5793050D01*
X5639300Y-383750D02*
Y-378750D01*
X5628050Y-395000D02*
X5639300Y-383750D01*
Y-261250D02*
X5650550Y-250000D01*
X5790550Y-432500D02*
X5793050Y-430000D01*
X5787463Y-500587D02*
Y-432500D01*
X5790550D01*
X5785550Y-502500D02*
X5787463Y-500587D01*
X6053050Y-430000D02*
X6211050D01*
X6053050Y-240000D02*
X6211050D01*
X6233050Y-105000D02*
X6320550D01*
X5925550Y-922636D02*
Y-382500D01*
X5795551Y-337500D02*
X5880550D01*
X5925550Y-382500D01*
X5761050Y419500D02*
Y608000D01*
X5632550Y617000D02*
X5633050Y617500D01*
X5891050Y593000D02*
X5908050Y610000D01*
X5891050Y422500D02*
Y593000D01*
X5761050Y608000D02*
X5763050Y610000D01*
X5505050Y-77500D02*
X5505300Y-77750D01*
Y-249750D02*
X5505550Y-250000D01*
X5505300Y-249750D02*
Y-77750D01*
X5793050Y-335000D02*
X5795551Y-337500D01*
X5886050Y349000D02*
Y417500D01*
X5632550Y418000D02*
Y617000D01*
X5886050Y417500D02*
X5891050Y422500D01*
X5835650Y298600D02*
X5886050Y349000D01*
X5835650Y265650D02*
Y298600D01*
X5632050Y233500D02*
X5695550Y170000D01*
X5759050Y417500D02*
X5761050Y419500D01*
X5695550Y170000D02*
X5740000D01*
X5835650Y265650D01*
X5632050Y233500D02*
Y417500D01*
X5632550Y418000D01*
X2344500Y-158000D02*
X2345000Y-157500D01*
X2344500Y-342000D02*
Y-158000D01*
X2452450Y-405500D02*
X2548100Y-309850D01*
X2408000Y-405500D02*
X2452450D01*
X2471500Y-158000D02*
X2473500Y-156000D01*
X2344500Y-342000D02*
X2408000Y-405500D01*
X2548100Y-309850D02*
Y-276900D01*
X2598500Y-226500D01*
Y-158000D02*
X2603500Y-153000D01*
X2345000Y-157500D02*
Y41500D01*
X2598500Y-226500D02*
Y-158000D01*
X2217750Y-825250D02*
Y-653250D01*
Y-825250D02*
X2218000Y-825500D01*
X2217500Y-653000D02*
X2217750Y-653250D01*
X2473500Y32500D02*
X2475500Y34500D01*
X2603500Y-153000D02*
Y17500D01*
X2620500Y34500D01*
X2345000Y41500D02*
X2345500Y42000D01*
X2473500Y-156000D02*
Y32500D01*
X2765500Y-815500D02*
X2923500D01*
X2765500Y-1005500D02*
X2923500D01*
X2498000Y-1078000D02*
X2499913Y-1076087D01*
Y-1008000D02*
X2503000D01*
X2499913Y-1076087D02*
Y-1008000D01*
X2503000D02*
X2505500Y-1005500D01*
X2215000Y-655500D02*
X2217500Y-653000D01*
X2050500Y-655500D02*
X2215000D01*
X2283000Y-485500D02*
X2293000Y-475500D01*
X2050500Y-485500D02*
X2283000D01*
X8792500Y3615000D02*
Y3847500D01*
X8782500Y3857500D02*
X8792500Y3847500D01*
X8962500Y3615000D02*
Y3779499D01*
X8960000Y3782000D02*
X8962500Y3779499D01*
X9445000Y3812500D02*
X9446250Y3813750D01*
Y3903749D02*
X9447500Y3905000D01*
X9446250Y3813750D02*
Y3903749D01*
X9312500Y4070000D02*
X9315000Y4067500D01*
Y4064413D02*
X9383087D01*
X9315000D02*
Y4067500D01*
X9383087Y4064413D02*
X9385000Y4062500D01*
X9312500Y4330000D02*
Y4488000D01*
X9122500Y4330000D02*
Y4488000D01*
X8987500Y4510000D02*
Y4597500D01*
X8274500Y4038000D02*
X8463000D01*
X8265000Y3910000D02*
X8265500Y3909500D01*
X8272500Y4185000D02*
X8289500Y4168000D01*
X8460000D01*
X8272500Y4040000D02*
X8274500Y4038000D01*
X8960000Y3782000D02*
X8960250Y3782250D01*
X9132250D02*
X9132500Y3782500D01*
X8960250Y3782250D02*
X9132250D01*
X8465000Y4163000D02*
X8533500D01*
X8265500Y3909500D02*
X8464500D01*
X8460000Y4168000D02*
X8465000Y4163000D01*
X8533500D02*
X8583900Y4112600D01*
X8616850D01*
X8649000Y3909000D02*
X8712500Y3972500D01*
X8463000Y4038000D02*
X8465000Y4036000D01*
X8712500Y3972500D02*
Y4016950D01*
X8616850Y4112600D02*
X8712500Y4016950D01*
X8465000Y3909000D02*
X8649000D01*
X8464500Y3909500D02*
X8465000Y3909000D01*
X7929499Y899500D02*
X7929999Y899000D01*
X8113999D01*
X8081849Y1102600D02*
X8177499Y1006950D01*
Y962500D02*
Y1006950D01*
X7927999Y1028000D02*
X7929999Y1026000D01*
X8113999Y899000D02*
X8177499Y962500D01*
X8048900Y1102600D02*
X8081849D01*
X7998500Y1153000D02*
X8048900Y1102600D01*
X7924999Y1158000D02*
X7929999Y1153000D01*
X7730499Y899500D02*
X7929499D01*
X7929999Y1153000D02*
X7998500D01*
X8425249Y772250D02*
X8597250D01*
X8597499Y772500D01*
X8424999Y772000D02*
X8425249Y772250D01*
X7737499Y1030000D02*
X7739499Y1028000D01*
X7754499Y1158000D02*
X7924999D01*
X7737499Y1175000D02*
X7754499Y1158000D01*
X7729999Y900000D02*
X7730499Y899500D01*
X7739499Y1028000D02*
X7927999D01*
X8452499Y1500000D02*
Y1587500D01*
X8587499Y1320000D02*
Y1478000D01*
X8777499Y1320000D02*
Y1478000D01*
X8848086Y1054413D02*
X8849999Y1052500D01*
X8779999Y1054413D02*
Y1057500D01*
Y1054413D02*
X8848086D01*
X8777499Y1060000D02*
X8779999Y1057500D01*
X8424999Y772000D02*
X8427500Y769500D01*
Y605000D02*
Y769500D01*
X8247500Y847500D02*
X8257499Y837500D01*
Y605000D02*
Y837500D01*
X8269427Y6412898D02*
Y6645398D01*
X8259427Y6655398D02*
X8269427Y6645398D01*
X8439427Y6412898D02*
Y6577398D01*
X8436927Y6579898D02*
X8439427Y6577398D01*
X8620677Y6714148D02*
X8738177D01*
X8694427Y6835398D02*
X8724427Y6805398D01*
Y6727898D02*
Y6805398D01*
Y6727898D02*
X8738177Y6714148D01*
X8694427Y6835398D02*
Y6867898D01*
X8738177Y6714148D02*
X8743177D01*
X8921927Y6610398D02*
X8923177Y6611648D01*
Y6701648D02*
X8924427Y6702898D01*
X8923177Y6611648D02*
Y6701648D01*
X8743177Y6714148D02*
X8754427Y6702898D01*
X8609427Y6725398D02*
X8620677Y6714148D01*
X8789427Y6867898D02*
X8791927Y6865398D01*
Y6862311D02*
X8860014D01*
X8791927D02*
Y6865398D01*
X8860014Y6862311D02*
X8861927Y6860398D01*
X8893927Y7039898D02*
X8970427D01*
X9021927Y7091398D01*
X8789427Y7127898D02*
Y7285898D01*
X8599427Y7127898D02*
Y7285898D01*
X8464427Y7307898D02*
Y7395398D01*
X8741927Y7000398D02*
X8854427D01*
X8696927Y6870399D02*
Y6955398D01*
X8854427Y7000398D02*
X8893927Y7039898D01*
X8696927Y6955398D02*
X8741927Y7000398D01*
X7751427Y6835898D02*
X7939927D01*
X7741927Y6707898D02*
X7742427Y6707398D01*
X7749427Y6982898D02*
X7766427Y6965898D01*
X7936927D01*
X7749427Y6837898D02*
X7751427Y6835898D01*
X8436927Y6579898D02*
X8437177Y6580148D01*
X8609177D02*
X8609427Y6580398D01*
X8437177Y6580148D02*
X8609177D01*
X8694427Y6867898D02*
X8696927Y6870399D01*
X7941927Y6960898D02*
X8010427D01*
X7742427Y6707398D02*
X7941427D01*
X7936927Y6965898D02*
X7941927Y6960898D01*
X8010427D02*
X8060827Y6910498D01*
X8093777D01*
X8125927Y6706898D02*
X8189427Y6770398D01*
X7939927Y6835898D02*
X7941927Y6833898D01*
X8189427Y6770398D02*
Y6814848D01*
X8093777Y6910498D02*
X8189427Y6814848D01*
X7941927Y6706898D02*
X8125927D01*
X7941427Y6707398D02*
X7941927Y6706898D01*
X6264170Y8221070D02*
X6264670Y8221570D01*
Y8405570D01*
X6061070Y8373420D02*
X6156720Y8469070D01*
X6201170D01*
X6135670Y8219570D02*
X6137670Y8221570D01*
X6201170Y8469070D02*
X6264670Y8405570D01*
X6061070Y8340470D02*
Y8373420D01*
X6010670Y8290070D02*
X6061070Y8340470D01*
X6005670Y8216570D02*
X6010670Y8221570D01*
X6264170Y8022070D02*
Y8221070D01*
X6010670Y8221570D02*
Y8290070D01*
X6101170Y8976570D02*
X6103670Y8974070D01*
X6391420Y8716820D02*
Y8888820D01*
X6391170Y8889070D02*
X6391420Y8888820D01*
Y8716820D02*
X6391670Y8716570D01*
X6133670Y8029070D02*
X6135670Y8031070D01*
X6005670Y8046070D02*
Y8216570D01*
X5988670Y8029070D02*
X6005670Y8046070D01*
X6263670Y8021570D02*
X6264170Y8022070D01*
X6135670Y8031070D02*
Y8219570D01*
X5971170Y9021570D02*
X6016170Y8976570D01*
X6101170D01*
X5576170Y8744070D02*
X5663670D01*
X5685670Y8879070D02*
X5843670D01*
X5685670Y9069070D02*
X5843670D01*
X6109257Y9139657D02*
X6111170Y9141570D01*
X6106170Y9071570D02*
X6109257D01*
Y9139657D01*
X6103670Y9069070D02*
X6106170Y9071570D01*
X6246170Y8889070D02*
X6257420Y8900320D01*
Y9022820D02*
X6268670Y9034070D01*
X6269920Y9202820D02*
X6359920D01*
X6268670Y9204070D02*
X6269920Y9202820D01*
X6359920D02*
X6361170Y9201570D01*
X6257420Y9017820D02*
Y9022820D01*
X6103670Y8974070D02*
X6136170D01*
X6243670Y9004070D02*
X6257420Y9017820D01*
X6166170Y9004070D02*
X6243670D01*
X6136170Y8974070D02*
X6166170Y9004070D01*
X6257420Y8900320D02*
Y9017820D01*
X6391670Y8716570D02*
X6394171Y8719070D01*
X6558670D01*
X6316170Y8539070D02*
X6326170Y8549070D01*
X6558670D01*
X6080000Y3255000D02*
X6099708Y3235292D01*
X6189208D01*
X6312500Y3314500D02*
Y3472500D01*
X6502500Y3314500D02*
Y3472500D01*
X6637500Y3205000D02*
Y3292500D01*
X6189208Y3235292D02*
X6312500Y3112000D01*
Y3073000D02*
Y3112000D01*
X7162000Y3764500D02*
X7350500D01*
X7359500Y3893000D02*
X7360000Y3892500D01*
X7335500Y3634500D02*
X7352500Y3617500D01*
X7165000Y3634500D02*
X7335500D01*
X7350500Y3764500D02*
X7352500Y3762500D01*
X7091500Y3639500D02*
X7160000D01*
X7160500Y3893000D02*
X7359500D01*
X7160000Y3639500D02*
X7165000Y3634500D01*
X7041100Y3689900D02*
X7091500Y3639500D01*
X7008150Y3689900D02*
X7041100D01*
X6912500Y3830000D02*
X6976000Y3893500D01*
X7160000Y3766500D02*
X7162000Y3764500D01*
X6912500Y3785550D02*
Y3830000D01*
X6976000Y3893500D02*
X7160000D01*
X7160500Y3893000D01*
X6665000Y3639500D02*
X6665000Y3639500D01*
X6665000Y3550000D02*
Y3639500D01*
X6607500Y4517500D02*
Y4657500D01*
X2979500Y8920979D02*
X2980000Y8921479D01*
Y9105479D01*
X2776400Y9073329D02*
X2872050Y9168979D01*
X2916500D01*
X2851000Y8919479D02*
X2853000Y8921479D01*
X2916500Y9168979D02*
X2980000Y9105479D01*
X2776400Y9040379D02*
Y9073329D01*
X2726000Y8989979D02*
X2776400Y9040379D01*
X2721000Y8916479D02*
X2726000Y8921479D01*
X2979500Y8721979D02*
Y8920979D01*
X2726000Y8921479D02*
Y8989979D01*
X3106750Y9416729D02*
Y9588729D01*
X3106500Y9588979D02*
X3106750Y9588729D01*
Y9416729D02*
X3107000Y9416479D01*
X2849000Y8728979D02*
X2851000Y8730979D01*
X2721000Y8745979D02*
Y8916479D01*
X2704000Y8728979D02*
X2721000Y8745979D01*
X2979000Y8721479D02*
X2979500Y8721979D01*
X2851000Y8730979D02*
Y8919479D01*
X2291500Y9443979D02*
X2379000D01*
X2401000Y9578979D02*
X2559000D01*
X2401000Y9768979D02*
X2559000D01*
X2824587Y9839566D02*
X2826500Y9841479D01*
X2821500Y9771479D02*
X2824587D01*
Y9839566D01*
X2819000Y9768979D02*
X2821500Y9771479D01*
X2985250Y9902729D02*
X3075250D01*
X2984000Y9903979D02*
X2985250Y9902729D01*
X3075250D02*
X3076500Y9901479D01*
X3107000Y9416479D02*
X3109501Y9418979D01*
X3274000D01*
X3031500Y9238979D02*
X3041500Y9248979D01*
X3274000D01*
X977592Y7006850D02*
X1142591D01*
X977342Y7007100D02*
Y7179100D01*
Y7007100D02*
X977592Y7006850D01*
X721592Y6321350D02*
Y6509850D01*
X850092Y6511350D02*
X850592Y6511850D01*
X591592Y6336350D02*
Y6506850D01*
X596592Y6511850D01*
Y6580350D02*
X646992Y6630750D01*
Y6663700D01*
X787092Y6759350D02*
X850592Y6695850D01*
X721592Y6509850D02*
X723592Y6511850D01*
X742642Y6759350D02*
X787092D01*
X646992Y6663700D02*
X742642Y6759350D01*
X850592Y6511850D02*
Y6695850D01*
X596592Y6511850D02*
Y6580350D01*
X271592Y7169350D02*
X429592D01*
X162092Y7034350D02*
X249592D01*
X271592Y7359350D02*
X429592D01*
X850092Y6312350D02*
Y6511350D01*
X574592Y6319350D02*
X591592Y6336350D01*
X719592Y6319350D02*
X721592Y6321350D01*
X849592Y6311850D02*
X850092Y6312350D01*
X720842Y7263100D02*
X750842Y7293100D01*
X828341D01*
X842092Y7306850D01*
Y7311850D01*
X853342Y7323100D01*
X830842Y7178100D02*
X842092Y7189350D01*
Y7306850D01*
X689592Y7359350D02*
X690842Y7360600D01*
X977092Y7179350D02*
X977342Y7179100D01*
X854592Y7491850D02*
X944592D01*
X690842Y7360600D02*
Y7440600D01*
X692092Y7441850D01*
D28*
X443534Y7250408D02*
X519592D01*
X429592Y7264350D02*
X443534Y7250408D01*
X519592D02*
X570000Y7200000D01*
Y7170000D02*
Y7200000D01*
X519350Y7119350D02*
X570000Y7170000D01*
X394592Y7034350D02*
X479591Y7119350D01*
X519350D01*
X352796Y1577500D02*
Y1660000D01*
X395296Y1702500D01*
X460296D01*
X-1034250Y4445750D02*
X-969250D01*
X-1076750Y4403250D02*
X-1034250Y4445750D01*
X-1076750Y4320750D02*
Y4403250D01*
X6407500Y3555000D02*
X6450000Y3597500D01*
X6515000D01*
X6407500Y3472500D02*
Y3555000D01*
X352796Y1178000D02*
Y1412000D01*
X460296Y1702500D02*
X517796Y1645000D01*
Y1607499D02*
Y1645000D01*
Y1607499D02*
X582796Y1542500D01*
X-911750Y4350750D02*
X-846750Y4285750D01*
X-911750Y4350750D02*
Y4388250D01*
X-969250Y4445750D02*
X-911750Y4388250D01*
X-1076750Y3921250D02*
Y4155250D01*
X6218550Y-335000D02*
X6452550D01*
X5928050Y-227500D02*
X5985550Y-170000D01*
X5928050Y-292500D02*
Y-227500D01*
X5970550Y-335000D02*
X6053050D01*
X5928050Y-292500D02*
X5970550Y-335000D01*
X5985550Y-170000D02*
X6023050D01*
X6088050Y-105000D01*
X2735500Y-745500D02*
X2800500Y-680500D01*
X2698000Y-745500D02*
X2735500D01*
X2640500Y-868000D02*
X2683000Y-910500D01*
X2765500D01*
X2640500Y-868000D02*
Y-803000D01*
X2698000Y-745500D01*
X2931000Y-910500D02*
X3165000D01*
X9217500Y4495500D02*
Y4729500D01*
X9052500Y4262500D02*
X9110000Y4205000D01*
X9175000D01*
X9217500Y4247500D02*
Y4330000D01*
X9175000Y4205000D02*
X9217500Y4247500D01*
X9052500Y4262500D02*
Y4300000D01*
X8987500Y4365000D02*
X9052500Y4300000D01*
X8452499Y1355000D02*
X8517499Y1290000D01*
Y1252500D02*
Y1290000D01*
X8639999Y1195000D02*
X8682499Y1237500D01*
Y1320000D01*
X8574999Y1195000D02*
X8639999D01*
X8517499Y1252500D02*
X8574999Y1195000D01*
X8682499Y1485500D02*
Y1719500D01*
X8529427Y7060398D02*
X8586927Y7002898D01*
X8651927D01*
X8694427Y7045398D02*
Y7127898D01*
X8651927Y7002898D02*
X8694427Y7045398D01*
X8529427Y7060398D02*
Y7097898D01*
X8464427Y7162898D02*
X8529427Y7097898D01*
X5808670Y8744070D02*
X5873670Y8809070D01*
X5911170D01*
X5926170Y8974070D02*
X5968670Y8931570D01*
X5843670Y8974070D02*
X5926170D01*
X5968670Y8866570D02*
Y8931570D01*
X5911170Y8809070D02*
X5968670Y8866570D01*
X5444170Y8974070D02*
X5678170D01*
X6407500Y3073000D02*
Y3307000D01*
X6515000Y3597500D02*
X6572500Y3540000D01*
Y3502500D02*
Y3540000D01*
Y3502500D02*
X6637500Y3437500D01*
X6498000Y4807500D02*
X6587500D01*
X6607500Y4787500D01*
Y4657500D02*
Y4787500D01*
X2524000Y9443979D02*
X2589000Y9508979D01*
X2626500D01*
X2641500Y9673979D02*
X2684000Y9631479D01*
X2559000Y9673979D02*
X2641500D01*
X2684000Y9566479D02*
Y9631479D01*
X2626500Y9508979D02*
X2684000Y9566479D01*
X2159500Y9673979D02*
X2393500D01*
D29*
X6970000Y4543000D02*
D03*
X6080000Y3255000D02*
D03*
X7437000Y4250000D02*
D03*
X-227156Y1125968D02*
D03*
X2610464Y-1453565D02*
D03*
X6302080Y-984994D02*
D03*
X9276648Y902245D02*
D03*
X9077278Y7934643D02*
D03*
X5969216Y9709245D02*
D03*
X2308549Y10142869D02*
D03*
X-156431Y7658573D02*
D03*
X9743150Y4369499D02*
D03*
X-1767543Y4158598D02*
D03*
D30*
X6970000Y4797000D02*
D03*
X6080000Y3509000D02*
D03*
X9743150Y4115500D02*
D03*
D31*
X7183000Y4250000D02*
D03*
D32*
X-372844Y1334032D02*
D03*
D33*
X2368895Y-1375075D02*
D03*
X6210784Y9630755D02*
D03*
D34*
X6057920Y-1055006D02*
D03*
D35*
X9127350Y696755D02*
D03*
D36*
X9226576Y7729153D02*
D03*
D37*
X2551451Y10217131D02*
D03*
D38*
X-3569Y7861426D02*
D03*
D39*
X-1754249Y4412250D02*
D03*
D40*
X5632500Y1781500D02*
D03*
Y2035500D02*
D03*
Y2289500D02*
D03*
Y2543500D02*
D03*
Y2797500D02*
D03*
Y3051500D02*
D03*
Y3305500D02*
D03*
Y3559500D02*
D03*
Y3813500D02*
D03*
Y4067500D02*
D03*
Y4321500D02*
D03*
Y4575500D02*
D03*
Y4829500D02*
D03*
Y5083500D02*
D03*
Y5337500D02*
D03*
Y5591500D02*
D03*
Y5845500D02*
D03*
Y6099500D02*
D03*
Y6353500D02*
D03*
X3092500Y2035500D02*
D03*
Y2289500D02*
D03*
Y2543500D02*
D03*
Y2797500D02*
D03*
Y3051500D02*
D03*
Y3305500D02*
D03*
Y3559500D02*
D03*
Y3813500D02*
D03*
Y4067500D02*
D03*
Y4321500D02*
D03*
Y4575500D02*
D03*
Y4829500D02*
D03*
Y5083500D02*
D03*
Y5337500D02*
D03*
Y5591500D02*
D03*
Y5845500D02*
D03*
Y1781500D02*
D03*
Y6099500D02*
D03*
D41*
Y6353500D02*
D03*
D42*
X6590000Y4900000D02*
D03*
X8587499Y1840000D02*
D03*
X-861250Y3921250D02*
D03*
X3165180Y-710320D02*
D03*
X3033000Y-680500D02*
D03*
X5522730Y-562680D02*
D03*
X8599427Y7646898D02*
D03*
X5318670Y8881070D02*
D03*
X2065180Y-970320D02*
D03*
X8649500Y614250D02*
D03*
X1143592Y6717350D02*
D03*
X2158250Y9457229D02*
D03*
X-91658Y7170600D02*
D03*
X6453800Y-118250D02*
D03*
X9000750Y4730749D02*
D03*
X6500000Y2950000D02*
D03*
X6992500Y3720000D02*
D03*
X6842500D02*
D03*
X6180000Y4120000D02*
D03*
X6240000Y3740000D02*
D03*
X6550000Y4190000D02*
D03*
X527796Y1179007D02*
D03*
X125296Y2095000D02*
D03*
X185296Y1845000D02*
D03*
X787795Y2050000D02*
D03*
Y1825000D02*
D03*
X937795Y2050000D02*
D03*
X857796Y1935000D02*
D03*
X937795Y1825000D02*
D03*
X582796Y1310000D02*
D03*
X-846750Y4053250D02*
D03*
X-491751Y4568250D02*
D03*
X-571750Y4678250D02*
D03*
X-491751Y4793250D02*
D03*
X-641751Y4568250D02*
D03*
Y4793250D02*
D03*
X-1244250Y4588250D02*
D03*
X-1304250Y4838250D02*
D03*
X5785550Y-502500D02*
D03*
X5580550Y100000D02*
D03*
X5805550D02*
D03*
X5580550Y250000D02*
D03*
X5695550Y170000D02*
D03*
X5805550Y250000D02*
D03*
X6320550Y-105000D02*
D03*
X2518000Y-325500D02*
D03*
X2408000Y-405500D02*
D03*
X2293000Y-325500D02*
D03*
X2518000Y-475500D02*
D03*
X2293000D02*
D03*
X2498000Y-1078000D02*
D03*
X9445000Y3812500D02*
D03*
X9385000Y4062500D02*
D03*
X8782500Y3857500D02*
D03*
Y4082500D02*
D03*
X8632500Y3857500D02*
D03*
X8712500Y3972500D02*
D03*
X8632500Y4082500D02*
D03*
X8987500Y4597500D02*
D03*
X8452499Y1587500D02*
D03*
X8097500Y1072500D02*
D03*
X8177500Y962500D02*
D03*
X8097500Y847500D02*
D03*
X8247500Y1072500D02*
D03*
Y847500D02*
D03*
X8849999Y1052500D02*
D03*
X8921927Y6610398D02*
D03*
X8861927Y6860398D02*
D03*
X8259427Y6655398D02*
D03*
Y6880398D02*
D03*
X8109428Y6655398D02*
D03*
X8189427Y6770398D02*
D03*
X8109428Y6880398D02*
D03*
X8464427Y7395398D02*
D03*
X5576170Y8744070D02*
D03*
X6091170Y8389070D02*
D03*
X6201170Y8469070D02*
D03*
X6316170Y8389070D02*
D03*
X6091170Y8539070D02*
D03*
X6316170D02*
D03*
X6111170Y9141570D02*
D03*
X6361170Y9201570D02*
D03*
X6992500Y3945000D02*
D03*
X6912500Y3830000D02*
D03*
X6637500Y3205000D02*
D03*
X6665000Y3550000D02*
D03*
X6132500Y4310000D02*
D03*
X6230000Y4312500D02*
D03*
X6327500Y4315000D02*
D03*
X6425000Y4317500D02*
D03*
X6422500Y4415000D02*
D03*
X2291500Y9443979D02*
D03*
X2806500Y9088980D02*
D03*
X2916500Y9168979D02*
D03*
X3031500Y9088980D02*
D03*
X2806500Y9238979D02*
D03*
X3031500D02*
D03*
X2826500Y9841479D02*
D03*
X3076500Y9901479D02*
D03*
X902092Y6829350D02*
D03*
X677092D02*
D03*
X902092Y6679350D02*
D03*
X787092Y6759350D02*
D03*
X677092Y6679350D02*
D03*
X162092Y7034350D02*
D03*
X945842Y7490600D02*
D03*
X692092Y7441850D02*
D03*
%TF.MD5,485e60a26509a312a8cf01631f19b9fe*%
M02*
